<?xml version="1.0" encoding="UTF-8" ?>
<!DOCTYPE svg PUBLIC "-//W3C//DTD SVG 1.1//EN" "http://www.w3.org/Graphics/SVG/1.1/DTD/svg11.dtd">
<svg width="256pt" height="257pt" viewBox="0 0 256 257" version="1.1" xmlns="http://www.w3.org/2000/svg">
<g id="#535453ad">
<path fill="#535453" opacity="0.68" d=" M 19.97 0.00 L 23.03 0.00 C 23.15 1.70 21.23 2.77 19.80 1.88 C 19.84 1.41 19.93 0.47 19.97 0.00 Z" />
</g>
<g id="#7b7e75ff">
<path fill="#7b7e75" opacity="1.00" d=" M 23.03 0.00 L 75.06 0.00 C 75.41 7.41 75.37 14.82 75.25 22.23 C 55.15 22.33 35.05 22.24 14.95 22.28 C 10.33 22.29 5.61 22.71 1.10 21.49 C 3.22 12.26 10.24 3.76 19.80 1.88 C 21.23 2.77 23.15 1.70 23.03 0.00 Z" />
<path fill="#7b7e75" opacity="1.00" d=" M 106.03 0.00 L 206.98 0.00 C 206.98 7.42 207.00 14.84 206.97 22.26 C 173.45 22.37 139.94 22.12 106.42 22.39 C 106.16 14.93 106.42 7.46 106.03 0.00 Z" />
<path fill="#7b7e75" opacity="1.00" d=" M 237.48 0.00 L 237.90 0.00 C 237.83 0.46 237.68 1.39 237.61 1.85 C 243.81 2.59 248.74 6.84 252.62 11.43 C 253.82 13.64 254.99 15.86 256.00 18.17 L 256.00 206.91 C 249.67 206.92 243.34 206.92 237.01 206.91 C 237.08 138.54 236.83 70.16 237.13 1.79 C 237.22 1.34 237.39 0.45 237.48 0.00 Z" />
<path fill="#7b7e75" opacity="1.00" d=" M 0.00 51.05 C 6.56 51.10 13.12 51.08 19.68 51.09 C 19.55 93.59 19.74 136.10 19.58 178.60 C 13.05 178.66 6.52 178.36 0.00 178.82 L 0.00 51.05 Z" />
<path fill="#7b7e75" opacity="1.00" d=" M 0.00 209.71 C 6.49 209.64 12.99 209.67 19.48 209.40 C 19.83 218.59 19.54 227.79 19.67 236.99 C 53.78 237.00 87.90 237.03 122.01 236.97 C 126.26 236.98 130.48 237.56 134.66 238.27 C 134.59 244.51 134.58 250.76 134.70 257.00 L 23.32 257.00 C 13.25 255.87 3.84 248.23 1.86 238.11 C 2.12 236.45 1.50 235.75 0.00 236.02 L 0.00 209.71 Z" />
<path fill="#7b7e75" opacity="1.00" d=" M 167.01 237.00 C 196.68 236.99 226.34 237.00 256.00 237.00 L 256.00 239.75 C 252.85 248.92 244.40 255.96 234.70 257.00 L 167.21 257.00 C 166.91 250.34 166.98 243.67 167.01 237.00 Z" />
</g>
<g id="#4a413cff">
<path fill="#4a413c" opacity="1.00" d=" M 75.06 0.00 L 106.03 0.00 C 106.42 7.46 106.16 14.93 106.42 22.39 C 139.94 22.12 173.45 22.37 206.97 22.26 C 207.00 14.84 206.98 7.42 206.98 0.00 L 235.42 0.00 C 234.98 1.64 235.55 2.24 237.13 1.79 C 236.83 70.16 237.08 138.54 237.01 206.91 C 243.34 206.92 249.67 206.92 256.00 206.91 L 256.00 237.00 C 226.34 237.00 196.68 236.99 167.01 237.00 C 166.98 243.67 166.91 250.34 167.21 257.00 L 134.70 257.00 C 134.58 250.76 134.59 244.51 134.66 238.27 C 130.48 237.56 126.26 236.98 122.01 236.97 C 87.90 237.03 53.78 237.00 19.67 236.99 C 19.54 227.79 19.83 218.59 19.48 209.40 C 12.99 209.67 6.49 209.64 0.00 209.71 L 0.00 178.82 C 6.52 178.36 13.05 178.66 19.58 178.60 C 19.74 136.10 19.55 93.59 19.68 51.09 C 13.12 51.08 6.56 51.10 0.00 51.05 L 0.00 19.78 C 0.27 20.20 0.82 21.06 1.10 21.49 C 5.61 22.71 10.33 22.29 14.95 22.28 C 35.05 22.24 55.15 22.33 75.25 22.23 C 75.37 14.82 75.41 7.41 75.06 0.00 M 46.45 44.48 C 44.56 45.55 43.51 47.64 42.09 49.23 C 39.89 52.29 36.91 54.77 35.06 58.07 C 34.40 61.67 34.78 65.35 34.72 68.99 C 34.72 111.35 34.75 153.71 34.70 196.08 C 34.93 198.64 34.20 201.75 36.23 203.76 C 39.21 207.14 42.18 210.55 45.41 213.70 C 98.94 213.71 152.47 213.63 206.01 213.74 C 208.47 213.57 211.49 214.38 213.31 212.22 C 216.50 209.05 219.91 206.05 222.75 202.55 C 223.41 200.10 223.24 197.51 223.30 195.00 C 223.14 149.65 223.50 104.28 223.12 58.95 C 220.06 53.57 215.38 49.19 211.54 44.32 C 159.69 44.30 107.83 44.32 55.98 44.31 C 52.81 44.35 49.61 44.04 46.45 44.48 Z" />
</g>
<g id="#39322cc6">
<path fill="#39322c" opacity="0.78" d=" M 235.42 0.00 L 237.48 0.00 C 237.39 0.45 237.22 1.34 237.13 1.79 C 235.55 2.24 234.98 1.64 235.42 0.00 Z" />
</g>
<g id="#968881ff">
<path fill="#968881" opacity="1.00" d=" M 46.45 44.48 C 49.61 44.04 52.81 44.35 55.98 44.31 C 107.83 44.32 159.69 44.30 211.54 44.32 C 215.38 49.19 220.06 53.57 223.12 58.95 C 223.50 104.28 223.14 149.65 223.30 195.00 C 223.24 197.51 223.41 200.10 222.75 202.55 C 219.91 206.05 216.50 209.05 213.31 212.22 C 211.49 214.38 208.47 213.57 206.01 213.74 C 152.47 213.63 98.94 213.71 45.41 213.70 C 42.18 210.55 39.21 207.14 36.23 203.76 C 34.20 201.75 34.93 198.64 34.70 196.08 C 34.75 153.71 34.72 111.35 34.72 68.99 C 34.78 65.35 34.40 61.67 35.06 58.07 C 36.91 54.77 39.89 52.29 42.09 49.23 C 43.51 47.64 44.56 45.55 46.45 44.48 M 46.90 90.97 C 51.77 99.83 56.48 108.80 61.91 117.32 C 63.96 117.32 66.01 117.32 68.06 117.33 C 68.05 116.68 68.02 115.38 68.00 114.73 C 68.50 115.98 69.35 117.47 70.97 117.24 C 75.64 117.52 80.32 117.20 84.99 117.26 C 91.08 117.29 97.17 117.33 103.26 117.17 C 98.92 110.77 93.94 104.83 88.93 98.96 C 88.05 97.29 86.76 95.89 85.59 94.43 C 84.77 93.29 83.97 92.14 83.18 90.99 C 81.90 91.00 80.62 91.02 79.34 91.04 C 75.55 90.97 71.77 90.97 67.98 91.02 C 60.95 90.99 53.93 91.02 46.90 90.97 M 169.05 98.68 C 164.91 102.70 162.11 107.83 158.20 112.06 C 156.87 113.68 155.60 115.37 154.49 117.16 C 160.64 117.31 166.79 117.30 172.95 117.27 C 178.32 117.34 183.70 117.31 189.07 117.22 C 189.29 116.55 189.72 115.23 189.93 114.56 C 189.92 115.25 189.90 116.62 189.89 117.31 C 191.97 117.32 194.05 117.34 196.14 117.35 C 201.21 108.59 205.93 99.63 211.15 90.97 C 204.10 91.03 197.06 90.98 190.02 91.02 C 186.23 90.97 182.45 90.97 178.66 91.03 C 177.39 91.03 176.13 91.02 174.87 91.01 C 172.92 93.56 170.70 95.92 169.05 98.68 M 47.08 145.97 C 46.78 160.66 46.76 175.37 47.13 190.06 C 50.57 190.16 54.01 190.16 57.45 189.98 C 62.63 190.20 67.82 190.20 73.01 190.12 C 73.10 185.43 73.11 180.74 73.04 176.05 L 73.73 176.08 C 73.56 180.68 73.64 185.29 73.95 189.88 C 76.11 190.24 78.25 190.72 80.37 191.25 L 80.14 190.40 C 90.75 189.88 101.39 190.29 112.01 190.15 C 133.89 190.24 155.78 189.95 177.66 190.32 L 177.60 191.09 C 179.71 191.01 181.81 190.93 183.92 190.86 L 183.93 190.16 C 189.47 190.17 195.01 190.20 200.55 190.00 C 203.99 190.19 207.45 190.20 210.90 190.08 C 211.16 175.39 211.28 160.67 210.90 145.97 C 191.94 145.59 172.96 145.96 153.98 145.79 C 118.35 145.95 82.71 145.53 47.08 145.97 Z" />
</g>
<g id="#e9e8e9ff">
<path fill="#e9e8e9" opacity="1.00" d=" M 46.90 90.97 C 53.93 91.02 60.95 90.99 67.98 91.02 C 67.97 96.18 67.97 101.35 67.95 106.51 C 67.95 109.25 67.91 111.99 68.00 114.73 C 68.02 115.38 68.05 116.68 68.06 117.33 C 66.01 117.32 63.96 117.32 61.91 117.32 C 56.48 108.80 51.77 99.83 46.90 90.97 Z" />
<path fill="#e9e8e9" opacity="1.00" d=" M 190.02 91.02 C 197.06 90.98 204.10 91.03 211.15 90.97 C 205.93 99.63 201.21 108.59 196.14 117.35 C 194.05 117.34 191.97 117.32 189.89 117.31 C 189.90 116.62 189.92 115.25 189.93 114.56 C 190.05 111.89 190.05 109.23 190.05 106.56 C 190.03 101.38 190.03 96.20 190.02 91.02 Z" />
</g>
<g id="#d3796bff">
<path fill="#d3796b" opacity="1.00" d=" M 67.98 91.02 C 71.77 90.97 75.55 90.97 79.34 91.04 C 79.36 96.26 79.37 101.48 79.36 106.71 C 75.59 106.02 71.74 106.02 67.95 106.51 C 67.97 101.35 67.97 96.18 67.98 91.02 Z" />
<path fill="#d3796b" opacity="1.00" d=" M 178.66 91.03 C 182.45 90.97 186.23 90.97 190.02 91.02 C 190.03 96.20 190.03 101.38 190.05 106.56 C 186.26 106.05 182.41 106.03 178.64 106.69 C 178.63 101.47 178.64 96.25 178.66 91.03 Z" />
<path fill="#d3796b" opacity="1.00" d=" M 88.93 98.96 C 93.94 104.83 98.92 110.77 103.26 117.17 C 97.17 117.33 91.08 117.29 84.99 117.26 C 85.41 115.17 85.83 113.08 86.25 111.00 C 86.93 111.00 88.30 111.01 88.99 111.01 C 89.00 106.99 89.15 102.97 88.93 98.96 Z" />
<path fill="#d3796b" opacity="1.00" d=" M 158.20 112.06 C 162.11 107.83 164.91 102.70 169.05 98.68 C 168.86 102.79 169.00 106.90 169.01 111.01 C 169.71 111.01 171.11 111.00 171.81 111.00 C 172.19 113.09 172.57 115.18 172.95 117.27 C 166.79 117.30 160.64 117.31 154.49 117.16 C 155.60 115.37 156.87 113.68 158.20 112.06 Z" />
</g>
<g id="#472823ff">
<path fill="#472823" opacity="1.00" d=" M 79.34 91.04 C 80.62 91.02 81.90 91.00 83.18 90.99 C 83.97 92.14 84.77 93.29 85.59 94.43 C 86.76 95.89 88.05 97.29 88.93 98.96 C 89.15 102.97 89.00 106.99 88.99 111.01 C 88.30 111.01 86.93 111.00 86.25 111.00 C 83.94 110.99 81.64 110.98 79.34 110.97 C 79.35 109.55 79.35 108.13 79.36 106.71 C 79.37 101.48 79.36 96.26 79.34 91.04 Z" />
<path fill="#472823" opacity="1.00" d=" M 169.05 98.68 C 170.70 95.92 172.92 93.56 174.87 91.01 C 176.13 91.02 177.39 91.03 178.66 91.03 C 178.64 96.25 178.63 101.47 178.64 106.69 C 178.64 108.12 178.65 109.54 178.66 110.97 C 176.37 110.98 174.09 110.99 171.81 111.00 C 171.11 111.00 169.71 111.01 169.01 111.01 C 169.00 106.90 168.86 102.79 169.05 98.68 Z" />
</g>
<g id="#e18273ff">
<path fill="#e18273" opacity="1.00" d=" M 67.95 106.51 C 71.74 106.02 75.59 106.02 79.36 106.71 C 79.35 108.13 79.35 109.55 79.34 110.97 C 81.64 110.98 83.94 110.99 86.25 111.00 C 85.83 113.08 85.41 115.17 84.99 117.26 C 80.32 117.20 75.64 117.52 70.97 117.24 C 69.35 117.47 68.50 115.98 68.00 114.73 C 67.91 111.99 67.95 109.25 67.95 106.51 Z" />
<path fill="#e18273" opacity="1.00" d=" M 178.64 106.69 C 182.41 106.03 186.26 106.05 190.05 106.56 C 190.05 109.23 190.05 111.89 189.93 114.56 C 189.72 115.23 189.29 116.55 189.07 117.22 C 183.70 117.31 178.32 117.34 172.95 117.27 C 172.57 115.18 172.19 113.09 171.81 111.00 C 174.09 110.99 176.37 110.98 178.66 110.97 C 178.65 109.54 178.64 108.12 178.64 106.69 Z" />
</g>
<g id="#99717eff">
<path fill="#99717e" opacity="1.00" d=" M 47.08 145.97 C 82.71 145.53 118.35 145.95 153.98 145.79 C 172.96 145.96 191.94 145.59 210.90 145.97 C 211.28 160.67 211.16 175.39 210.90 190.08 C 207.45 190.20 203.99 190.19 200.55 190.00 C 200.59 185.34 200.65 180.69 200.73 176.03 C 195.15 175.89 189.57 175.86 184.00 175.97 C 184.02 180.70 183.99 185.43 183.93 190.16 L 183.92 190.86 C 181.81 190.93 179.71 191.01 177.60 191.09 L 177.66 190.32 C 178.41 182.23 177.92 174.10 178.00 165.99 C 145.10 166.05 112.20 165.77 79.30 166.13 C 79.83 174.21 78.37 182.44 80.14 190.40 L 80.37 191.25 C 78.25 190.72 76.11 190.24 73.95 189.88 C 73.64 185.29 73.56 180.68 73.73 176.08 L 73.04 176.05 C 67.79 175.85 62.53 175.85 57.28 176.03 C 57.36 180.68 57.40 185.33 57.45 189.98 C 54.01 190.16 50.57 190.16 47.13 190.06 C 46.76 175.37 46.78 160.66 47.08 145.97 Z" />
</g>
<g id="#c38ca2ff">
<path fill="#c38ca2" opacity="1.00" d=" M 79.30 166.13 C 112.20 165.77 145.10 166.05 178.00 165.99 C 177.92 174.10 178.41 182.23 177.66 190.32 C 155.78 189.95 133.89 190.24 112.01 190.15 C 101.39 190.29 90.75 189.88 80.14 190.40 C 78.37 182.44 79.83 174.21 79.30 166.13 Z" />
</g>
<g id="#c3c5cbff">
<path fill="#c3c5cb" opacity="1.00" d=" M 57.28 176.03 C 62.53 175.85 67.79 175.85 73.04 176.05 C 73.11 180.74 73.10 185.43 73.01 190.12 C 67.82 190.20 62.63 190.20 57.45 189.98 C 57.40 185.33 57.36 180.68 57.28 176.03 Z" />
<path fill="#c3c5cb" opacity="1.00" d=" M 184.00 175.97 C 189.57 175.86 195.15 175.89 200.73 176.03 C 200.65 180.69 200.59 185.34 200.55 190.00 C 195.01 190.20 189.47 190.17 183.93 190.16 C 183.99 185.43 184.02 180.70 184.00 175.97 Z" />
</g>
<g id="#494a4798">
<path fill="#494a47" opacity="0.60" d=" M 0.00 236.02 C 1.50 235.75 2.12 236.45 1.86 238.11 C 1.40 238.07 0.47 237.98 0.00 237.93 L 0.00 236.02 Z" />
</g>
</svg>
