<?xml version="1.0" encoding="UTF-8" ?>
<!DOCTYPE svg PUBLIC "-//W3C//DTD SVG 1.1//EN" "http://www.w3.org/Graphics/SVG/1.1/DTD/svg11.dtd">
<svg width="256pt" height="256pt" viewBox="0 0 256 256" version="1.1" xmlns="http://www.w3.org/2000/svg">
<g id="#fcf8d3ff">
<path fill="#fcf8d3" opacity="1.00" d=" M 22.38 0.00 L 24.70 0.00 C 29.53 8.39 34.54 16.68 39.35 25.07 C 40.12 26.60 40.66 28.26 40.63 29.98 C 40.74 35.50 40.65 41.02 40.38 46.54 C 56.47 46.77 72.56 46.59 88.65 46.63 C 88.65 59.09 88.66 71.54 88.63 84.00 C 88.21 88.16 92.21 90.61 94.30 93.69 C 116.76 93.67 139.21 93.66 161.66 93.70 C 163.60 91.24 165.54 88.79 167.39 86.27 C 167.28 73.05 167.40 59.83 167.33 46.62 C 183.42 46.61 199.52 46.75 215.61 46.55 C 215.35 41.01 215.27 35.46 215.37 29.92 C 215.35 28.21 215.70 26.50 216.55 25.01 C 221.59 16.73 226.23 8.21 231.38 0.00 L 233.46 0.00 C 245.04 1.02 254.99 10.89 256.00 22.49 L 256.00 233.38 C 255.08 244.98 245.18 254.86 233.64 256.00 L 22.48 256.00 C 10.92 254.95 1.03 245.09 0.00 233.51 L 0.00 22.58 C 0.96 10.99 10.83 1.13 22.38 0.00 M 16.99 96.92 C 16.96 118.12 17.00 139.31 16.97 160.50 C 16.97 164.66 16.97 168.83 16.99 172.99 C 39.33 173.00 61.67 172.99 84.01 173.00 C 84.04 168.75 84.03 164.51 84.03 160.26 C 84.01 142.85 84.03 125.45 84.02 108.04 C 82.22 108.00 80.42 107.91 78.62 107.77 C 71.01 105.75 63.03 105.22 55.33 103.47 C 51.69 103.14 48.21 101.93 44.55 101.82 C 42.19 100.08 39.02 101.60 36.54 100.17 C 34.91 99.91 33.27 99.70 31.63 99.46 C 29.65 99.01 27.63 98.71 25.60 98.52 C 24.21 98.14 22.79 97.86 21.42 97.44 C 19.94 97.27 18.46 97.10 16.99 96.92 M 234.63 97.48 C 231.23 98.30 227.77 98.74 224.37 99.50 C 222.02 99.79 219.56 99.69 217.38 100.74 C 215.39 101.01 213.11 100.48 211.44 101.88 C 209.82 101.99 208.20 102.05 206.58 102.16 C 204.81 103.30 202.66 103.14 200.67 103.43 C 194.94 104.66 189.11 105.37 183.37 106.51 C 181.35 106.80 179.23 106.80 177.39 107.77 C 175.59 107.90 173.78 108.00 171.98 108.04 C 171.97 125.46 171.99 142.87 171.97 160.28 C 171.97 164.52 171.96 168.76 171.99 173.00 C 194.33 172.99 216.67 173.00 239.01 172.99 C 239.02 168.82 239.02 164.65 239.04 160.48 C 239.00 139.29 239.04 118.10 239.01 96.91 C 237.54 97.09 236.08 97.28 234.63 97.48 M 104.05 212.02 C 104.02 218.66 104.03 225.31 104.04 231.96 C 107.01 232.01 109.98 232.01 112.95 231.98 C 112.98 225.33 112.97 218.68 112.96 212.03 C 109.99 211.99 107.02 211.98 104.05 212.02 M 142.72 212.06 C 142.65 218.69 142.62 225.32 142.74 231.95 C 145.81 232.00 148.88 232.01 151.95 231.98 C 151.98 225.33 151.97 218.68 151.96 212.03 C 148.88 211.99 145.80 212.00 142.72 212.06 Z" />
</g>
<g id="#e46633ff">
<path fill="#e46633" opacity="1.00" d=" M 24.70 0.00 L 40.71 0.00 C 40.49 6.99 40.72 13.99 40.64 20.98 C 40.72 22.47 39.92 23.76 39.35 25.07 C 34.54 16.68 29.53 8.39 24.70 0.00 Z" />
<path fill="#e46633" opacity="1.00" d=" M 215.39 0.00 L 231.38 0.00 C 226.23 8.21 221.59 16.73 216.55 25.01 C 215.79 23.46 215.20 21.79 215.33 20.04 C 215.37 13.36 215.39 6.68 215.39 0.00 Z" />
</g>
<g id="#f4be00ff">
<path fill="#f4be00" opacity="1.00" d=" M 40.71 0.00 L 215.39 0.00 C 215.39 6.68 215.37 13.36 215.33 20.04 C 215.20 21.79 215.79 23.46 216.55 25.01 C 215.70 26.50 215.35 28.21 215.37 29.92 C 215.27 35.46 215.35 41.01 215.61 46.55 C 199.52 46.75 183.42 46.61 167.33 46.62 C 167.40 59.83 167.28 73.05 167.39 86.27 C 165.54 88.79 163.60 91.24 161.66 93.70 C 139.21 93.66 116.76 93.67 94.30 93.69 C 92.21 90.61 88.21 88.16 88.63 84.00 C 88.66 71.54 88.65 59.09 88.65 46.63 C 72.56 46.59 56.47 46.77 40.38 46.54 C 40.65 41.02 40.74 35.50 40.63 29.98 C 40.66 28.26 40.12 26.60 39.35 25.07 C 39.92 23.76 40.72 22.47 40.64 20.98 C 40.72 13.99 40.49 6.99 40.71 0.00 Z" />
</g>
<g id="#1b0a08ff">
<path fill="#1b0a08" opacity="1.00" d=" M 16.99 96.92 C 18.46 97.10 19.94 97.27 21.42 97.44 C 22.79 97.86 24.21 98.14 25.60 98.52 C 27.63 98.71 29.65 99.01 31.63 99.46 C 33.27 99.70 34.91 99.91 36.54 100.17 C 39.02 101.60 42.19 100.08 44.55 101.82 C 48.21 101.93 51.69 103.14 55.33 103.47 C 63.03 105.22 71.01 105.75 78.62 107.77 C 80.42 107.91 82.22 108.00 84.02 108.04 C 84.03 125.45 84.01 142.85 84.03 160.26 C 81.39 160.68 78.72 161.03 76.04 161.04 C 61.03 160.95 46.03 161.02 31.03 161.00 C 26.33 161.10 21.63 161.11 16.97 160.50 C 17.00 139.31 16.96 118.12 16.99 96.92 M 43.99 106.59 C 43.96 115.73 43.95 124.86 44.00 134.00 C 49.89 134.00 55.78 134.00 61.68 134.00 C 61.61 125.99 61.53 117.97 61.72 109.97 C 55.86 108.58 49.89 107.79 43.99 106.59 Z" />
<path fill="#1b0a08" opacity="1.00" d=" M 234.63 97.48 C 236.08 97.28 237.54 97.09 239.01 96.91 C 239.04 118.10 239.00 139.29 239.04 160.48 C 234.72 161.06 230.36 161.12 226.01 161.01 C 210.68 161.01 195.35 160.96 180.02 161.04 C 177.32 161.02 174.63 160.69 171.97 160.28 C 171.99 142.87 171.97 125.46 171.98 108.04 C 173.78 108.00 175.59 107.90 177.39 107.77 C 179.23 106.80 181.35 106.80 183.37 106.51 C 189.11 105.37 194.94 104.66 200.67 103.43 C 202.66 103.14 204.81 103.30 206.58 102.16 C 208.20 102.05 209.82 101.99 211.44 101.88 C 213.11 100.48 215.39 101.01 217.38 100.74 C 219.56 99.69 222.02 99.79 224.37 99.50 C 227.77 98.74 231.23 98.30 234.63 97.48 M 193.96 109.98 C 194.05 117.99 193.98 125.99 194.00 134.00 C 200.00 134.00 206.00 134.00 212.00 134.00 C 212.05 124.86 212.04 115.72 212.01 106.59 C 206.00 107.80 199.91 108.57 193.96 109.98 Z" />
</g>
<g id="#fcf8f4ff">
<path fill="#fcf8f4" opacity="1.00" d=" M 43.99 106.59 C 49.89 107.79 55.86 108.58 61.72 109.97 C 61.53 117.97 61.61 125.99 61.68 134.00 C 55.78 134.00 49.89 134.00 44.00 134.00 C 43.95 124.86 43.96 115.73 43.99 106.59 Z" />
<path fill="#fcf8f4" opacity="1.00" d=" M 193.96 109.98 C 199.91 108.57 206.00 107.80 212.01 106.59 C 212.04 115.72 212.05 124.86 212.00 134.00 C 206.00 134.00 200.00 134.00 194.00 134.00 C 193.98 125.99 194.05 117.99 193.96 109.98 Z" />
</g>
<g id="#4a3a29ff">
<path fill="#4a3a29" opacity="1.00" d=" M 16.97 160.50 C 21.63 161.11 26.33 161.10 31.03 161.00 C 46.03 161.02 61.03 160.95 76.04 161.04 C 78.72 161.03 81.39 160.68 84.03 160.26 C 84.03 164.51 84.04 168.75 84.01 173.00 C 61.67 172.99 39.33 173.00 16.99 172.99 C 16.97 168.83 16.97 164.66 16.97 160.50 Z" />
<path fill="#4a3a29" opacity="1.00" d=" M 171.97 160.28 C 174.63 160.69 177.32 161.02 180.02 161.04 C 195.35 160.96 210.68 161.01 226.01 161.01 C 230.36 161.12 234.72 161.06 239.04 160.48 C 239.02 164.65 239.02 168.82 239.01 172.99 C 216.67 173.00 194.33 172.99 171.99 173.00 C 171.96 168.76 171.97 164.52 171.97 160.28 Z" />
</g>
<g id="#cec9aaff">
<path fill="#cec9aa" opacity="1.00" d=" M 104.05 212.02 C 107.02 211.98 109.99 211.99 112.96 212.03 C 112.97 218.68 112.98 225.33 112.95 231.98 C 109.98 232.01 107.01 232.01 104.04 231.96 C 104.03 225.31 104.02 218.66 104.05 212.02 Z" />
<path fill="#cec9aa" opacity="1.00" d=" M 142.72 212.06 C 145.80 212.00 148.88 211.99 151.96 212.03 C 151.97 218.68 151.98 225.33 151.95 231.98 C 148.88 232.01 145.81 232.00 142.74 231.95 C 142.62 225.32 142.65 218.69 142.72 212.06 Z" />
</g>
</svg>
