<?xml version="1.0" encoding="UTF-8" ?>
<!DOCTYPE svg PUBLIC "-//W3C//DTD SVG 1.1//EN" "http://www.w3.org/Graphics/SVG/1.1/DTD/svg11.dtd">
<svg width="256pt" height="256pt" viewBox="0 0 256 256" version="1.1" xmlns="http://www.w3.org/2000/svg">
<g id="#ce766bff">
<path fill="#ce766b" opacity="1.00" d=" M 21.66 0.00 L 52.13 0.00 C 52.70 12.98 52.23 26.00 52.36 38.99 C 41.91 39.01 31.46 39.00 21.01 38.99 C 20.98 26.03 21.02 13.07 20.99 0.11 L 21.66 0.00 Z" />
<path fill="#ce766b" opacity="1.00" d=" M 203.63 0.00 L 234.06 0.00 L 234.96 0.19 C 235.05 13.12 234.98 26.06 234.99 38.99 C 224.54 39.00 214.09 39.01 203.64 38.99 C 203.60 25.99 203.63 13.00 203.63 0.00 Z" />
<path fill="#ce766b" opacity="1.00" d=" M 205.58 110.71 C 210.65 107.37 215.83 104.22 220.97 101.00 C 221.03 112.00 221.01 123.00 220.99 133.99 C 205.98 133.91 190.97 133.97 175.96 134.01 C 174.17 134.14 172.52 133.48 171.12 132.41 C 176.62 129.06 181.80 125.13 187.61 122.31 C 187.53 123.87 187.46 125.43 187.39 126.99 C 192.15 127.00 196.91 127.02 201.67 126.95 C 201.74 122.41 201.44 117.85 201.80 113.32 L 201.94 112.24 C 203.20 111.87 204.51 111.51 205.58 110.71 Z" />
<path fill="#ce766b" opacity="1.00" d=" M 35.04 101.30 C 41.74 104.91 48.14 109.11 54.38 113.47 C 54.34 117.97 54.34 122.46 54.33 126.96 C 59.09 127.02 63.85 127.00 68.61 126.99 C 68.54 125.43 68.47 123.86 68.39 122.30 C 74.73 125.38 80.29 129.78 86.32 133.38 C 81.24 134.37 76.06 133.88 70.93 133.94 C 58.96 133.96 46.99 133.91 35.01 134.02 C 35.00 123.12 34.95 112.21 35.04 101.30 Z" />
</g>
<g id="#f7f1c8ff">
<path fill="#f7f1c8" opacity="1.00" d=" M 52.13 0.00 L 74.62 0.00 C 74.76 9.05 76.64 17.95 76.88 26.99 C 76.82 31.04 77.98 34.96 78.12 39.00 C 83.42 39.00 88.71 39.00 94.00 39.00 C 94.01 26.00 93.99 13.00 94.01 0.00 L 161.93 0.00 C 162.09 13.00 161.95 26.00 162.00 39.00 C 167.33 39.00 172.65 39.00 177.98 39.00 C 177.50 34.57 179.21 30.35 179.16 25.95 C 179.37 17.25 181.22 8.70 181.38 0.00 L 203.63 0.00 C 203.63 13.00 203.60 25.99 203.64 38.99 C 214.09 39.01 224.54 39.00 234.99 38.99 C 234.98 26.06 235.05 13.12 234.96 0.19 C 245.90 1.86 254.96 11.36 256.00 22.40 L 256.00 233.57 C 254.95 245.12 245.07 254.94 233.54 256.00 L 22.61 256.00 C 11.03 255.04 1.12 245.20 0.00 233.64 L 0.00 22.44 C 1.02 11.35 10.09 1.97 20.99 0.11 C 21.02 13.07 20.98 26.03 21.01 38.99 C 31.46 39.00 41.91 39.01 52.36 38.99 C 52.23 26.00 52.70 12.98 52.13 0.00 M 17.40 90.00 C 17.33 106.83 17.32 123.66 17.40 140.49 C 23.25 140.45 29.14 140.18 34.96 140.94 L 34.97 140.36 C 52.14 140.39 69.32 140.28 86.49 140.41 C 86.52 139.79 86.60 138.53 86.64 137.90 C 88.50 141.59 93.06 140.13 96.34 140.05 C 93.62 137.40 90.28 135.42 86.84 133.81 L 86.87 133.29 L 86.32 133.38 C 80.29 129.78 74.73 125.38 68.39 122.30 C 63.96 119.02 59.32 115.95 54.38 113.47 C 48.14 109.11 41.74 104.91 35.04 101.30 C 29.43 97.14 23.28 93.75 17.40 90.00 M 220.97 101.00 C 215.83 104.22 210.65 107.37 205.58 110.71 C 204.51 111.51 203.20 111.87 201.94 112.24 L 201.80 113.32 C 196.87 115.97 192.00 118.81 187.61 122.31 C 181.80 125.13 176.62 129.06 171.12 132.41 C 170.39 132.66 169.66 132.91 168.94 133.16 C 168.80 135.56 168.80 137.96 168.91 140.36 C 186.29 140.34 203.66 140.36 221.04 140.35 L 221.04 140.93 C 226.88 140.18 232.77 140.45 238.64 140.52 C 238.61 123.69 238.74 106.86 238.59 90.03 C 232.61 93.50 226.76 97.20 220.97 101.00 M 159.52 140.08 C 162.34 140.37 165.18 140.32 168.01 140.14 C 168.39 138.14 168.71 136.10 168.17 134.10 C 165.24 136.01 162.04 137.59 159.52 140.08 M 100.05 206.16 C 99.95 214.09 99.97 222.02 100.04 229.95 C 103.90 230.01 107.76 229.97 111.61 229.76 C 111.53 221.93 111.57 214.10 111.55 206.27 C 107.72 206.11 103.88 206.11 100.05 206.16 M 144.45 206.25 C 144.43 214.09 144.48 221.93 144.37 229.78 C 148.23 229.97 152.10 230.00 155.97 229.94 C 156.02 222.01 156.04 214.08 155.95 206.16 C 152.12 206.12 148.28 206.11 144.45 206.25 Z" />
</g>
<g id="#e46633ff">
<path fill="#e46633" opacity="1.00" d=" M 74.62 0.00 L 94.01 0.00 C 93.99 13.00 94.01 26.00 94.00 39.00 C 88.71 39.00 83.42 39.00 78.12 39.00 C 77.98 34.96 76.82 31.04 76.88 26.99 C 76.64 17.95 74.76 9.05 74.62 0.00 Z" />
<path fill="#e46633" opacity="1.00" d=" M 161.93 0.00 L 181.38 0.00 C 181.22 8.70 179.37 17.25 179.16 25.95 C 179.21 30.35 177.50 34.57 177.98 39.00 C 172.65 39.00 167.33 39.00 162.00 39.00 C 161.95 26.00 162.09 13.00 161.93 0.00 Z" />
</g>
<g id="#f7f8f7ff">
<path fill="#f7f8f7" opacity="1.00" d=" M 17.40 90.00 C 23.28 93.75 29.43 97.14 35.04 101.30 C 34.95 112.21 35.00 123.12 35.01 134.02 C 35.03 136.14 34.99 138.25 34.97 140.36 L 34.96 140.94 C 29.14 140.18 23.25 140.45 17.40 140.49 C 17.32 123.66 17.33 106.83 17.40 90.00 Z" />
<path fill="#f7f8f7" opacity="1.00" d=" M 220.97 101.00 C 226.76 97.20 232.61 93.50 238.59 90.03 C 238.74 106.86 238.61 123.69 238.64 140.52 C 232.77 140.45 226.88 140.18 221.04 140.93 L 221.04 140.35 C 221.00 138.23 220.97 136.11 220.99 133.99 C 221.01 123.00 221.03 112.00 220.97 101.00 Z" />
<path fill="#f7f8f7" opacity="1.00" d=" M 54.38 113.47 C 59.32 115.95 63.96 119.02 68.39 122.30 C 68.47 123.86 68.54 125.43 68.61 126.99 C 63.85 127.00 59.09 127.02 54.33 126.96 C 54.34 122.46 54.34 117.97 54.38 113.47 Z" />
<path fill="#f7f8f7" opacity="1.00" d=" M 187.61 122.31 C 192.00 118.81 196.87 115.97 201.80 113.32 C 201.44 117.85 201.74 122.41 201.67 126.95 C 196.91 127.02 192.15 127.00 187.39 126.99 C 187.46 125.43 187.53 123.87 187.61 122.31 Z" />
</g>
<g id="#e18073ff">
<path fill="#e18073" opacity="1.00" d=" M 168.94 133.16 C 169.66 132.91 170.39 132.66 171.12 132.41 C 172.52 133.48 174.17 134.14 175.96 134.01 C 190.97 133.97 205.98 133.91 220.99 133.99 C 220.97 136.11 221.00 138.23 221.04 140.35 C 203.66 140.36 186.29 140.34 168.91 140.36 C 168.80 137.96 168.80 135.56 168.94 133.16 Z" />
<path fill="#e18073" opacity="1.00" d=" M 86.32 133.38 L 86.87 133.29 L 86.84 133.81 C 86.78 135.18 86.71 136.54 86.64 137.90 C 86.60 138.53 86.52 139.79 86.49 140.41 C 69.32 140.28 52.14 140.39 34.97 140.36 C 34.99 138.25 35.03 136.14 35.01 134.02 C 46.99 133.91 58.96 133.96 70.93 133.94 C 76.06 133.88 81.24 134.37 86.32 133.38 Z" />
</g>
<g id="#f7f7f7ff">
<path fill="#f7f7f7" opacity="1.00" d=" M 86.84 133.81 C 90.28 135.42 93.62 137.40 96.34 140.05 C 93.06 140.13 88.50 141.59 86.64 137.90 C 86.71 136.54 86.78 135.18 86.84 133.81 Z" />
<path fill="#f7f7f7" opacity="1.00" d=" M 159.52 140.08 C 162.04 137.59 165.24 136.01 168.17 134.10 C 168.71 136.10 168.39 138.14 168.01 140.14 C 165.18 140.32 162.34 140.37 159.52 140.08 Z" />
</g>
<g id="#d6cd8eff">
<path fill="#d6cd8e" opacity="1.00" d=" M 100.05 206.16 C 103.88 206.11 107.72 206.11 111.55 206.27 C 111.57 214.10 111.53 221.93 111.61 229.76 C 107.76 229.97 103.90 230.01 100.04 229.95 C 99.97 222.02 99.95 214.09 100.05 206.16 Z" />
<path fill="#d6cd8e" opacity="1.00" d=" M 144.45 206.25 C 148.28 206.11 152.12 206.12 155.95 206.16 C 156.04 214.08 156.02 222.01 155.97 229.94 C 152.10 230.00 148.23 229.97 144.37 229.78 C 144.48 221.93 144.43 214.09 144.45 206.25 Z" />
</g>
</svg>
