<?xml version="1.0" encoding="UTF-8" ?>
<!DOCTYPE svg PUBLIC "-//W3C//DTD SVG 1.1//EN" "http://www.w3.org/Graphics/SVG/1.1/DTD/svg11.dtd">
<svg width="256pt" height="256pt" viewBox="0 0 256 256" version="1.1" xmlns="http://www.w3.org/2000/svg">
<g id="#dea6b2ff">
<path fill="#dea6b2" opacity="1.00" d=" M 22.52 0.00 L 233.28 0.00 C 244.95 0.90 255.00 10.85 256.00 22.51 L 256.00 233.38 C 255.08 245.03 245.09 254.97 233.47 256.00 L 22.71 256.00 C 11.05 255.10 1.04 245.17 0.00 233.52 L 0.00 22.62 C 0.94 10.96 10.90 1.03 22.52 0.00 M 23.37 40.99 C 23.44 62.76 23.41 84.53 23.38 106.30 L 22.28 106.25 C 19.03 108.98 15.89 111.90 13.25 115.24 C 12.12 116.54 12.34 118.38 12.23 119.98 C 12.31 150.96 12.26 181.95 12.28 212.94 C 12.35 216.84 11.94 220.79 12.51 224.67 C 14.23 227.46 16.68 229.80 19.33 231.70 C 22.85 232.36 26.46 231.91 30.01 231.98 C 95.00 231.97 159.99 231.98 224.97 232.00 C 228.18 231.89 231.55 232.66 234.66 231.71 C 237.33 229.82 239.77 227.46 241.50 224.68 C 242.05 221.16 241.69 217.58 241.75 214.04 C 241.75 185.05 241.74 156.05 241.75 127.06 C 241.69 123.49 242.05 119.88 241.49 116.34 C 240.01 113.71 237.55 111.80 235.50 109.63 C 234.00 108.36 232.63 106.44 230.47 106.44 C 230.59 84.61 230.46 62.79 230.54 40.96 C 209.30 40.48 188.03 40.87 166.79 40.77 C 166.61 62.64 166.70 84.51 166.74 106.39 C 140.25 106.31 113.76 106.39 87.27 106.34 C 87.31 84.48 87.32 62.63 87.26 40.78 C 65.97 40.87 44.65 40.45 23.37 40.99 Z" />
</g>
<g id="#f4f5f7ff">
<path fill="#f4f5f7" opacity="1.00" d=" M 23.37 40.99 C 44.65 40.45 65.97 40.87 87.26 40.78 C 87.32 62.63 87.31 84.48 87.27 106.34 C 65.98 106.46 44.68 106.54 23.38 106.30 C 23.41 84.53 23.44 62.76 23.37 40.99 M 51.34 68.63 C 55.14 68.68 58.93 68.67 62.73 68.66 C 62.70 64.95 62.70 61.25 62.70 57.54 C 58.91 57.56 55.12 57.57 51.32 57.53 C 51.32 61.23 51.32 64.93 51.34 68.63 Z" />
<path fill="#f4f5f7" opacity="1.00" d=" M 166.79 40.77 C 188.03 40.87 209.30 40.48 230.54 40.96 C 230.46 62.79 230.59 84.61 230.47 106.44 C 209.23 106.38 187.99 106.50 166.74 106.39 C 166.70 84.51 166.61 62.64 166.79 40.77 M 191.23 68.78 C 195.04 68.58 198.86 68.65 202.68 68.68 C 202.63 64.97 202.64 61.26 202.66 57.54 C 198.88 57.57 195.10 57.58 191.33 57.54 C 191.35 61.28 191.40 65.03 191.23 68.78 Z" />
</g>
<g id="#212429ff">
<path fill="#212429" opacity="1.00" d=" M 51.34 68.63 C 51.32 64.93 51.32 61.23 51.32 57.53 C 55.12 57.57 58.91 57.56 62.70 57.54 C 62.70 61.25 62.70 64.95 62.73 68.66 C 58.93 68.67 55.14 68.68 51.34 68.63 M 54.01 59.21 C 53.95 61.49 53.88 63.78 53.89 66.07 C 56.28 66.12 58.68 66.06 61.08 65.95 C 61.08 63.68 61.06 61.40 61.00 59.13 C 58.67 59.14 56.34 59.17 54.01 59.21 Z" />
</g>
<g id="#212421ff">
<path fill="#212421" opacity="1.00" d=" M 191.23 68.78 C 191.40 65.03 191.35 61.28 191.33 57.54 C 195.10 57.58 198.88 57.57 202.66 57.54 C 202.64 61.26 202.63 64.97 202.68 68.68 C 198.86 68.65 195.04 68.58 191.23 68.78 M 193.98 59.14 C 193.85 61.51 193.74 63.89 193.75 66.27 C 196.12 66.25 198.49 66.11 200.86 65.97 C 200.86 63.70 200.86 61.42 200.86 59.15 C 198.57 59.14 196.27 59.14 193.98 59.14 Z" />
</g>
<g id="#313431ff">
<path fill="#313431" opacity="1.00" d=" M 54.01 59.21 C 56.34 59.17 58.67 59.14 61.00 59.13 C 61.06 61.40 61.08 63.68 61.08 65.95 C 58.68 66.06 56.28 66.12 53.89 66.07 C 53.88 63.78 53.95 61.49 54.01 59.21 Z" />
<path fill="#313431" opacity="1.00" d=" M 193.98 59.14 C 196.27 59.14 198.57 59.14 200.86 59.15 C 200.86 61.42 200.86 63.70 200.86 65.97 C 198.49 66.11 196.12 66.25 193.75 66.27 C 193.74 63.89 193.85 61.51 193.98 59.14 Z" />
</g>
<g id="#d3c7adff">
<path fill="#d3c7ad" opacity="1.00" d=" M 22.28 106.25 L 23.38 106.30 C 44.68 106.54 65.98 106.46 87.27 106.34 C 113.76 106.39 140.25 106.31 166.74 106.39 C 187.99 106.50 209.23 106.38 230.47 106.44 C 232.63 106.44 234.00 108.36 235.50 109.63 C 237.55 111.80 240.01 113.71 241.49 116.34 C 242.05 119.88 241.69 123.49 241.75 127.06 C 241.74 156.05 241.75 185.05 241.75 214.04 C 241.69 217.58 242.05 221.16 241.50 224.68 C 239.77 227.46 237.33 229.82 234.66 231.71 C 231.55 232.66 228.18 231.89 224.97 232.00 C 159.99 231.98 95.00 231.97 30.01 231.98 C 26.46 231.91 22.85 232.36 19.33 231.70 C 16.68 229.80 14.23 227.46 12.51 224.67 C 11.94 220.79 12.35 216.84 12.28 212.94 C 12.26 181.95 12.31 150.96 12.23 119.98 C 12.34 118.38 12.12 116.54 13.25 115.24 C 15.89 111.90 19.03 108.98 22.28 106.25 M 112.06 139.82 C 111.97 144.66 111.98 149.51 112.05 154.36 C 113.79 154.40 115.54 154.40 117.29 154.38 C 117.34 149.32 117.42 144.25 116.93 139.21 C 115.30 139.40 113.68 139.60 112.06 139.82 M 136.98 139.35 C 136.48 144.30 136.60 149.27 136.76 154.23 C 138.46 154.40 140.16 154.57 141.87 154.72 C 142.02 149.59 141.97 144.46 141.88 139.33 C 140.25 139.32 138.61 139.32 136.98 139.35 M 24.24 160.48 C 24.40 178.88 24.24 197.27 24.34 215.67 C 36.26 215.65 48.18 215.80 60.10 215.59 C 104.71 215.72 149.31 215.56 193.91 215.68 C 205.82 215.65 217.72 215.76 229.63 215.62 C 229.97 197.24 229.69 178.85 229.77 160.46 C 225.00 163.59 219.85 166.07 215.00 169.07 C 212.47 170.84 209.31 170.43 206.41 170.45 C 199.70 170.40 192.99 170.38 186.28 170.38 C 147.04 170.36 107.81 170.54 68.58 170.29 C 61.59 170.39 54.60 170.44 47.60 170.39 C 45.21 170.26 42.65 170.85 40.44 169.66 C 34.93 166.81 29.55 163.69 24.24 160.48 Z" />
</g>
<g id="#b5aa94ff">
<path fill="#b5aa94" opacity="1.00" d=" M 112.06 139.82 C 113.68 139.60 115.30 139.40 116.93 139.21 C 117.42 144.25 117.34 149.32 117.29 154.38 C 115.54 154.40 113.79 154.40 112.05 154.36 C 111.98 149.51 111.97 144.66 112.06 139.82 Z" />
</g>
<g id="#b7ab96ff">
<path fill="#b7ab96" opacity="1.00" d=" M 136.98 139.35 C 138.61 139.32 140.25 139.32 141.88 139.33 C 141.97 144.46 142.02 149.59 141.87 154.72 C 140.16 154.57 138.46 154.40 136.76 154.23 C 136.60 149.27 136.48 144.30 136.98 139.35 Z" />
</g>
<g id="#967984ff">
<path fill="#967984" opacity="1.00" d=" M 24.24 160.48 C 29.55 163.69 34.93 166.81 40.44 169.66 C 42.65 170.85 45.21 170.26 47.60 170.39 C 47.60 173.60 47.65 176.80 47.67 180.00 C 54.57 179.60 61.62 180.60 68.43 179.55 C 68.85 176.48 68.60 173.37 68.58 170.29 C 107.81 170.54 147.04 170.36 186.28 170.38 C 186.29 173.58 186.29 176.79 186.33 180.00 C 193.04 179.94 199.75 179.95 206.46 180.00 C 206.46 176.82 206.44 173.63 206.41 170.45 C 209.31 170.43 212.47 170.84 215.00 169.07 C 219.85 166.07 225.00 163.59 229.77 160.46 C 229.69 178.85 229.97 197.24 229.63 215.62 C 217.72 215.76 205.82 215.65 193.91 215.68 C 193.74 208.45 193.99 201.23 193.75 194.01 C 191.51 193.90 189.27 193.78 187.03 193.76 C 147.02 193.79 107.00 193.81 66.99 193.75 C 64.75 193.78 62.52 193.91 60.29 194.04 C 60.06 201.22 60.28 208.41 60.10 215.59 C 48.18 215.80 36.26 215.65 24.34 215.67 C 24.24 197.27 24.40 178.88 24.24 160.48 Z" />
</g>
<g id="#e7ebefff">
<path fill="#e7ebef" opacity="1.00" d=" M 47.60 170.39 C 54.60 170.44 61.59 170.39 68.58 170.29 C 68.60 173.37 68.85 176.48 68.43 179.55 C 61.62 180.60 54.57 179.60 47.67 180.00 C 47.65 176.80 47.60 173.60 47.60 170.39 Z" />
<path fill="#e7ebef" opacity="1.00" d=" M 186.28 170.38 C 192.99 170.38 199.70 170.40 206.41 170.45 C 206.44 173.63 206.46 176.82 206.46 180.00 C 199.75 179.95 193.04 179.94 186.33 180.00 C 186.29 176.79 186.29 173.58 186.28 170.38 Z" />
</g>
<g id="#aa8896ff">
<path fill="#aa8896" opacity="1.00" d=" M 60.29 194.04 C 62.52 193.91 64.75 193.78 66.99 193.75 C 107.00 193.81 147.02 193.79 187.03 193.76 C 189.27 193.78 191.51 193.90 193.75 194.01 C 193.99 201.23 193.74 208.45 193.91 215.68 C 149.31 215.56 104.71 215.72 60.10 215.59 C 60.28 208.41 60.06 201.22 60.29 194.04 Z" />
</g>
</svg>
