<?xml version="1.0" encoding="UTF-8" ?>
<!DOCTYPE svg PUBLIC "-//W3C//DTD SVG 1.1//EN" "http://www.w3.org/Graphics/SVG/1.1/DTD/svg11.dtd">
<svg width="256pt" height="256pt" viewBox="0 0 256 256" version="1.1" xmlns="http://www.w3.org/2000/svg">
<g id="#dea6b2ff">
<path fill="#dea6b2" opacity="1.00" d=" M 22.30 0.00 L 208.85 0.00 C 208.91 6.92 209.36 13.88 208.76 20.77 C 206.54 23.61 203.21 25.27 200.50 27.59 C 198.78 28.75 197.22 30.61 194.99 30.59 C 184.32 30.85 173.62 30.29 162.96 30.78 C 162.02 31.96 162.45 33.64 162.28 35.04 C 162.38 61.36 162.32 87.69 162.32 114.01 C 162.32 116.54 163.19 118.93 164.01 121.29 C 163.58 121.29 162.73 121.30 162.31 121.31 C 162.31 127.93 162.34 134.55 162.30 141.17 C 162.30 148.40 162.31 155.63 162.28 162.86 C 177.85 163.12 193.43 162.87 209.00 162.96 C 209.03 193.97 209.01 224.99 209.01 256.00 L 22.37 256.00 C 14.25 255.11 6.81 250.10 2.90 242.94 C 34.27 242.84 65.65 242.90 97.03 242.90 C 100.53 242.81 104.12 243.30 107.57 242.52 C 110.06 240.75 112.40 238.57 113.95 235.91 C 114.56 232.30 114.21 228.61 114.25 224.96 C 114.25 195.64 114.24 166.32 114.25 137.01 C 114.59 134.46 113.15 132.37 111.34 130.76 C 109.25 128.75 107.34 126.48 104.87 124.91 C 102.25 124.52 99.59 124.71 96.95 124.69 C 97.09 103.46 97.00 82.23 97.00 61.00 C 76.36 60.96 55.71 60.97 35.07 61.00 C 35.06 82.24 34.97 103.48 35.13 124.72 C 23.42 124.64 11.71 124.59 0.00 124.72 L 0.00 22.29 C 1.16 10.85 10.87 1.16 22.30 0.00 Z" />
</g>
<g id="#c3d1d8ff">
<path fill="#c3d1d8" opacity="1.00" d=" M 208.85 0.00 L 233.62 0.00 C 245.07 1.11 254.84 10.81 256.00 22.26 L 256.00 233.71 C 254.93 243.97 247.02 252.99 236.99 255.39 C 236.97 210.68 237.02 165.97 236.96 121.26 C 233.08 121.20 229.21 121.28 225.34 121.40 C 219.88 121.06 214.40 120.98 208.98 121.81 L 208.63 121.29 C 204.21 121.17 199.79 121.26 195.38 121.41 C 188.48 121.28 181.59 120.90 174.69 121.32 C 171.13 121.30 167.57 121.22 164.01 121.29 C 163.19 118.93 162.32 116.54 162.32 114.01 C 162.32 87.69 162.38 61.36 162.28 35.04 C 162.45 33.64 162.02 31.96 162.96 30.78 C 173.62 30.29 184.32 30.85 194.99 30.59 C 197.22 30.61 198.78 28.75 200.50 27.59 C 203.21 25.27 206.54 23.61 208.76 20.77 C 209.36 13.88 208.91 6.92 208.85 0.00 M 216.98 37.01 C 216.82 43.69 216.90 50.36 216.94 57.04 C 223.62 56.98 230.30 57.01 236.99 56.99 C 237.01 50.33 237.00 43.67 236.99 37.01 C 230.32 36.99 223.65 37.00 216.98 37.01 M 191.36 97.45 C 184.89 101.16 177.80 103.74 171.61 107.93 C 189.10 108.22 206.60 108.11 224.10 108.00 C 224.25 98.97 224.46 89.92 223.99 80.91 C 213.05 86.28 202.24 91.94 191.36 97.45 Z" />
</g>
<g id="#7b8fa7ff">
<path fill="#7b8fa7" opacity="1.00" d=" M 216.98 37.01 C 223.65 37.00 230.32 36.99 236.99 37.01 C 237.00 43.67 237.01 50.33 236.99 56.99 C 230.30 57.01 223.62 56.98 216.94 57.04 C 216.90 50.36 216.82 43.69 216.98 37.01 Z" />
</g>
<g id="#f4f5f7ff">
<path fill="#f4f5f7" opacity="1.00" d=" M 35.07 61.00 C 55.71 60.97 76.36 60.96 97.00 61.00 C 97.00 82.23 97.09 103.46 96.95 124.69 C 76.34 124.68 55.74 124.61 35.13 124.72 C 34.97 103.48 35.06 82.24 35.07 61.00 M 58.28 78.05 C 58.34 81.34 58.34 84.64 58.26 87.93 C 61.41 88.03 64.56 88.03 67.71 87.95 C 67.67 84.66 67.67 81.36 67.74 78.07 C 64.59 77.97 61.43 77.97 58.28 78.05 Z" />
<path fill="#f4f5f7" opacity="1.00" d=" M 57.02 186.93 C 64.69 187.06 72.36 186.90 80.03 186.83 L 78.69 187.08 C 78.58 190.70 78.67 194.33 78.69 197.96 C 71.46 197.99 64.23 197.94 57.01 198.00 C 56.99 194.31 57.00 190.62 57.02 186.93 Z" />
</g>
<g id="#313231ff">
<path fill="#313231" opacity="1.00" d=" M 58.28 78.05 C 61.43 77.97 64.59 77.97 67.74 78.07 C 67.67 81.36 67.67 84.66 67.71 87.95 C 64.56 88.03 61.41 88.03 58.26 87.93 C 58.34 84.64 58.34 81.34 58.28 78.05 Z" />
</g>
<g id="#f7f7f7ff">
<path fill="#f7f7f7" opacity="1.00" d=" M 191.36 97.45 C 202.24 91.94 213.05 86.28 223.99 80.91 C 224.46 89.92 224.25 98.97 224.10 108.00 C 206.60 108.11 189.10 108.22 171.61 107.93 C 177.80 103.74 184.89 101.16 191.36 97.45 M 190.00 101.01 C 190.00 102.67 190.00 104.33 190.00 106.00 C 191.66 106.00 193.33 106.00 195.00 106.00 C 195.00 104.33 195.00 102.66 195.00 101.00 C 193.33 101.00 191.67 101.00 190.00 101.01 Z" />
</g>
<g id="#4a4d52ff">
<path fill="#4a4d52" opacity="1.00" d=" M 190.00 101.01 C 191.67 101.00 193.33 101.00 195.00 101.00 C 195.00 102.66 195.00 104.33 195.00 106.00 C 193.33 106.00 191.66 106.00 190.00 106.00 C 190.00 104.33 190.00 102.67 190.00 101.01 Z" />
</g>
<g id="#3f2436ff">
<path fill="#3f2436" opacity="1.00" d=" M 162.31 121.31 C 162.73 121.30 163.58 121.29 164.01 121.29 C 167.57 121.22 171.13 121.30 174.69 121.32 C 174.58 128.01 174.63 134.69 174.66 141.38 C 173.95 141.33 172.52 141.23 171.81 141.17 C 168.64 140.95 165.47 141.10 162.30 141.17 C 162.34 134.55 162.31 127.93 162.31 121.31 Z" />
<path fill="#3f2436" opacity="1.00" d=" M 195.38 121.41 C 199.79 121.26 204.21 121.17 208.63 121.29 L 208.98 121.81 C 208.94 127.80 209.23 133.81 208.72 139.80 C 209.16 140.37 209.61 140.94 210.07 141.51 C 215.16 141.32 220.26 141.48 225.36 141.36 C 225.37 134.70 225.39 128.05 225.34 121.40 C 229.21 121.28 233.08 121.20 236.96 121.26 C 237.02 165.97 236.97 210.68 236.99 255.39 C 235.91 255.62 234.83 255.83 233.74 256.00 L 209.01 256.00 C 209.01 224.99 209.03 193.97 209.00 162.96 C 209.22 156.03 208.57 149.05 209.43 142.15 C 204.94 140.43 200.08 141.22 195.40 141.15 C 195.52 134.57 195.53 127.99 195.38 121.41 Z" />
</g>
<g id="#ded8deff">
<path fill="#ded8de" opacity="1.00" d=" M 174.69 121.32 C 181.59 120.90 188.48 121.28 195.38 121.41 C 195.53 127.99 195.52 134.57 195.40 141.15 C 195.33 143.34 195.14 145.53 195.01 147.72 C 188.18 147.61 181.36 147.71 174.53 147.64 C 174.61 145.96 174.69 144.27 174.78 142.59 C 173.79 142.11 172.80 141.63 171.81 141.17 C 172.52 141.23 173.95 141.33 174.66 141.38 C 174.63 134.69 174.58 128.01 174.69 121.32 Z" />
<path fill="#ded8de" opacity="1.00" d=" M 208.98 121.81 C 214.40 120.98 219.88 121.06 225.34 121.40 C 225.39 128.05 225.37 134.70 225.36 141.36 C 220.26 141.48 215.16 141.32 210.07 141.51 C 209.61 140.94 209.16 140.37 208.72 139.80 C 209.23 133.81 208.94 127.80 208.98 121.81 Z" />
</g>
<g id="#d3c7adff">
<path fill="#d3c7ad" opacity="1.00" d=" M 0.00 124.72 C 11.71 124.59 23.42 124.64 35.13 124.72 C 55.74 124.61 76.34 124.68 96.95 124.69 C 99.59 124.71 102.25 124.52 104.87 124.91 C 107.34 126.48 109.25 128.75 111.34 130.76 C 113.15 132.37 114.59 134.46 114.25 137.01 C 114.24 166.32 114.25 195.64 114.25 224.96 C 114.21 228.61 114.56 232.30 113.95 235.91 C 112.40 238.57 110.06 240.75 107.57 242.52 C 104.12 243.30 100.53 242.81 97.03 242.90 C 65.65 242.90 34.27 242.84 2.90 242.94 C 1.42 240.06 0.47 236.93 0.00 233.74 L 0.00 226.70 C 33.93 226.63 67.86 226.70 101.79 226.79 L 101.93 226.11 C 102.19 209.90 102.05 193.66 101.99 177.44 C 98.39 179.94 95.12 182.87 91.62 185.50 C 88.35 188.19 83.86 186.64 80.03 186.83 C 72.36 186.90 64.69 187.06 57.02 186.93 C 38.02 187.08 19.01 186.97 0.00 186.98 L 0.00 124.72 M 6.29 156.20 C 6.27 161.06 6.23 165.93 6.32 170.79 C 8.45 170.78 10.57 170.76 12.70 170.72 C 12.77 165.85 12.77 160.99 12.77 156.13 C 10.61 156.00 8.44 156.01 6.29 156.20 Z" />
</g>
<g id="#b2848eff">
<path fill="#b2848e" opacity="1.00" d=" M 162.30 141.17 C 165.47 141.10 168.64 140.95 171.81 141.17 C 172.80 141.63 173.79 142.11 174.78 142.59 C 174.69 144.27 174.61 145.96 174.53 147.64 C 181.36 147.71 188.18 147.61 195.01 147.72 C 195.14 145.53 195.33 143.34 195.40 141.15 C 200.08 141.22 204.94 140.43 209.43 142.15 C 208.57 149.05 209.22 156.03 209.00 162.96 C 193.43 162.87 177.85 163.12 162.28 162.86 C 162.31 155.63 162.30 148.40 162.30 141.17 Z" />
</g>
<g id="#b7ac96ff">
<path fill="#b7ac96" opacity="1.00" d=" M 6.29 156.20 C 8.44 156.01 10.61 156.00 12.77 156.13 C 12.77 160.99 12.77 165.85 12.70 170.72 C 10.57 170.76 8.45 170.78 6.32 170.79 C 6.23 165.93 6.27 161.06 6.29 156.20 Z" />
</g>
<g id="#967984ff">
<path fill="#967984" opacity="1.00" d=" M 91.62 185.50 C 95.12 182.87 98.39 179.94 101.99 177.44 C 102.05 193.66 102.19 209.90 101.93 226.11 C 94.32 226.20 86.70 226.33 79.10 226.05 C 78.85 219.72 79.20 213.38 78.90 207.05 C 52.60 206.94 26.30 206.99 0.00 207.00 L 0.00 186.98 C 19.01 186.97 38.02 187.08 57.02 186.93 C 57.00 190.62 56.99 194.31 57.01 198.00 C 64.23 197.94 71.46 197.99 78.69 197.96 C 78.67 194.33 78.58 190.70 78.69 187.08 L 80.03 186.83 C 83.86 186.64 88.35 188.19 91.62 185.50 Z" />
</g>
<g id="#aa8896ff">
<path fill="#aa8896" opacity="1.00" d=" M 0.00 207.00 C 26.30 206.99 52.60 206.94 78.90 207.05 C 79.20 213.38 78.85 219.72 79.10 226.05 C 86.70 226.33 94.32 226.20 101.93 226.11 L 101.79 226.79 C 67.86 226.70 33.93 226.63 0.00 226.70 L 0.00 207.00 Z" />
</g>
</svg>
