<?xml version="1.0" encoding="UTF-8" ?>
<!DOCTYPE svg PUBLIC "-//W3C//DTD SVG 1.1//EN" "http://www.w3.org/Graphics/SVG/1.1/DTD/svg11.dtd">
<svg width="256pt" height="256pt" viewBox="0 0 256 256" version="1.1" xmlns="http://www.w3.org/2000/svg">
<g id="#b2d1dbff">
<path fill="#b2d1db" opacity="1.00" d=" M 17.42 0.00 L 238.54 0.00 C 247.84 3.00 255.01 11.57 256.00 21.34 L 256.00 232.68 C 254.92 242.77 247.19 252.13 237.11 254.15 C 235.54 253.86 234.81 254.48 234.90 256.00 L 22.64 256.00 C 24.08 253.40 19.22 253.35 20.83 256.00 L 19.20 256.00 C 19.40 255.65 19.79 254.95 19.98 254.59 C 9.49 252.55 1.06 243.28 0.00 232.65 L 0.00 21.33 C 1.00 11.58 8.14 3.04 17.42 0.00 M 65.89 32.80 C 65.82 74.53 65.83 116.26 65.88 157.99 C 107.28 158.12 148.69 158.06 190.09 158.02 C 190.19 116.28 190.19 74.54 190.09 32.79 C 148.69 32.65 107.29 32.64 65.89 32.80 M 23.35 172.20 C 23.30 190.04 23.38 207.89 23.35 225.74 C 41.54 226.35 59.77 226.01 77.97 225.88 C 78.24 207.96 78.21 190.00 77.98 172.08 C 59.77 172.00 41.54 171.76 23.35 172.20 M 177.98 172.09 C 177.83 190.04 177.73 208.02 178.05 225.97 C 196.25 225.91 214.48 226.33 232.67 225.76 C 232.72 207.90 232.66 190.05 232.61 172.19 C 214.42 171.74 196.19 172.03 177.98 172.09 Z" />
</g>
<g id="#f7f9fcff">
<path fill="#f7f9fc" opacity="1.00" d=" M 65.89 32.80 C 107.29 32.64 148.69 32.65 190.09 32.79 C 190.19 74.54 190.19 116.28 190.09 158.02 C 148.69 158.06 107.28 158.12 65.88 157.99 C 65.83 116.26 65.82 74.53 65.89 32.80 M 119.01 86.01 C 119.05 92.25 118.96 98.49 119.06 104.73 C 125.03 104.66 131.00 104.69 136.97 104.71 C 137.01 98.48 136.97 92.24 136.98 86.01 C 130.99 86.02 125.00 86.02 119.01 86.01 Z" />
</g>
<g id="#605f60ff">
<path fill="#605f60" opacity="1.00" d=" M 119.01 86.01 C 125.00 86.02 130.99 86.02 136.98 86.01 C 136.97 92.24 137.01 98.48 136.97 104.71 C 131.00 104.69 125.03 104.66 119.06 104.73 C 118.96 98.49 119.05 92.25 119.01 86.01 Z" />
</g>
<g id="#cbc9cbff">
<path fill="#cbc9cb" opacity="1.00" d=" M 23.35 172.20 C 41.54 171.76 59.77 172.00 77.98 172.08 C 78.21 190.00 78.24 207.96 77.97 225.88 C 59.77 226.01 41.54 226.35 23.35 225.74 C 23.38 207.89 23.30 190.04 23.35 172.20 M 43.10 178.17 C 42.92 182.88 43.03 187.59 43.00 192.31 C 38.69 192.37 34.39 192.38 30.08 192.28 C 29.64 196.98 29.90 201.70 29.86 206.41 C 34.18 206.57 38.50 206.51 42.81 206.37 C 43.22 211.14 42.82 215.93 43.14 220.70 C 48.33 220.57 53.51 220.62 58.70 220.65 C 58.98 215.89 58.40 211.10 59.08 206.37 C 63.39 206.55 67.70 206.58 72.01 206.30 C 71.98 201.63 72.08 196.96 71.91 192.30 C 67.52 192.36 63.13 192.40 58.75 192.28 C 58.75 187.60 58.82 182.92 58.75 178.24 C 53.53 178.19 48.31 178.27 43.10 178.17 Z" />
<path fill="#cbc9cb" opacity="1.00" d=" M 177.98 172.09 C 196.19 172.03 214.42 171.74 232.61 172.19 C 232.66 190.05 232.72 207.90 232.67 225.76 C 214.48 226.33 196.25 225.91 178.05 225.97 C 177.73 208.02 177.83 190.04 177.98 172.09 M 197.25 178.24 C 197.18 182.92 197.27 187.61 197.23 192.30 C 192.86 192.40 188.48 192.36 184.11 192.29 C 183.92 196.96 184.03 201.63 183.99 206.30 C 188.42 206.71 192.88 206.22 197.31 206.68 C 197.17 211.34 197.20 216.00 197.30 220.66 C 202.49 220.61 207.67 220.58 212.86 220.69 C 213.15 215.93 212.84 211.16 213.13 206.40 C 217.47 206.49 221.82 206.57 226.16 206.39 C 226.06 201.68 226.37 196.96 225.93 192.27 C 221.62 192.39 217.31 192.36 213.00 192.31 C 212.98 187.60 213.06 182.89 212.92 178.19 C 207.70 178.26 202.47 178.19 197.25 178.24 Z" />
</g>
<g id="#8e8c8cff">
<path fill="#8e8c8c" opacity="1.00" d=" M 43.10 178.17 C 48.31 178.27 53.53 178.19 58.75 178.24 C 58.82 182.92 58.75 187.60 58.75 192.28 C 63.13 192.40 67.52 192.36 71.91 192.30 C 72.08 196.96 71.98 201.63 72.01 206.30 C 67.70 206.58 63.39 206.55 59.08 206.37 C 58.40 211.10 58.98 215.89 58.70 220.65 C 53.51 220.62 48.33 220.57 43.14 220.70 C 42.82 215.93 43.22 211.14 42.81 206.37 C 38.50 206.51 34.18 206.57 29.86 206.41 C 29.90 201.70 29.64 196.98 30.08 192.28 C 34.39 192.38 38.69 192.37 43.00 192.31 C 43.03 187.59 42.92 182.88 43.10 178.17 Z" />
<path fill="#8e8c8c" opacity="1.00" d=" M 197.25 178.24 C 202.47 178.19 207.70 178.26 212.92 178.19 C 213.06 182.89 212.98 187.60 213.00 192.31 C 217.31 192.36 221.62 192.39 225.93 192.27 C 226.37 196.96 226.06 201.68 226.16 206.39 C 221.82 206.57 217.47 206.49 213.13 206.40 C 212.84 211.16 213.15 215.93 212.86 220.69 C 207.67 220.58 202.49 220.61 197.30 220.66 C 197.20 216.00 197.17 211.34 197.31 206.68 C 192.88 206.22 188.42 206.71 183.99 206.30 C 184.03 201.63 183.92 196.96 184.11 192.29 C 188.48 192.36 192.86 192.40 197.23 192.30 C 197.27 187.61 197.18 182.92 197.25 178.24 Z" />
</g>
<g id="#a0bbc5e4">
<path fill="#a0bbc5" opacity="0.89" d=" M 20.83 256.00 C 19.22 253.35 24.08 253.40 22.64 256.00 L 20.83 256.00 Z" />
</g>
<g id="#6c7f859b">
<path fill="#6c7f85" opacity="0.61" d=" M 234.90 256.00 C 234.81 254.48 235.54 253.86 237.11 254.15 C 237.05 254.61 236.95 255.54 236.90 256.00 L 234.90 256.00 Z" />
</g>
</svg>
