<?xml version="1.0" encoding="UTF-8" ?>
<!DOCTYPE svg PUBLIC "-//W3C//DTD SVG 1.1//EN" "http://www.w3.org/Graphics/SVG/1.1/DTD/svg11.dtd">
<svg width="256pt" height="256pt" viewBox="0 0 256 256" version="1.1" xmlns="http://www.w3.org/2000/svg">
<g id="#ffd55dff">
<path fill="#ffd55d" opacity="1.00" d=" M 22.59 0.00 L 57.25 0.00 C 57.23 44.00 57.26 88.00 57.24 132.00 C 38.16 132.01 19.08 132.00 0.00 132.00 L 0.00 22.95 C 0.73 11.14 10.84 0.99 22.59 0.00 Z" />
<path fill="#ffd55d" opacity="1.00" d=" M 199.00 0.00 L 233.18 0.00 C 244.94 0.84 255.11 10.92 256.00 22.69 L 256.00 132.01 C 236.99 131.99 217.98 132.00 198.97 132.01 C 198.98 129.48 199.00 126.95 199.00 124.43 C 199.00 82.95 199.00 41.48 199.00 0.00 Z" />
</g>
<g id="#b2d1dbff">
<path fill="#b2d1db" opacity="1.00" d=" M 57.25 0.00 L 199.00 0.00 C 199.00 41.48 199.00 82.95 199.00 124.43 C 190.69 125.48 182.31 124.88 173.96 124.95 C 149.96 125.17 125.96 124.90 101.96 125.00 C 87.28 125.25 72.59 124.53 57.92 125.17 C 57.89 127.40 57.86 129.62 57.85 131.84 C 79.82 132.43 101.82 131.53 123.79 132.23 C 124.19 138.49 124.02 144.76 123.97 151.03 C 124.05 186.02 123.85 221.01 123.99 256.00 L 22.81 256.00 C 11.06 255.15 0.92 245.09 0.00 233.35 L 0.00 132.00 C 19.08 132.00 38.16 132.01 57.24 132.00 C 57.26 88.00 57.23 44.00 57.25 0.00 M 94.98 19.82 C 95.00 41.76 94.80 63.70 95.09 85.64 C 117.18 85.54 139.28 85.59 161.38 85.62 C 161.53 63.68 161.49 41.75 161.40 19.81 C 139.26 19.80 117.12 19.78 94.98 19.82 M 73.23 93.12 C 73.16 102.64 73.04 112.16 73.30 121.67 C 82.82 121.77 92.34 121.75 101.85 121.69 C 102.15 112.15 102.06 102.60 101.91 93.06 C 92.35 92.95 82.78 92.85 73.23 93.12 M 154.86 93.11 C 154.51 102.51 154.55 111.93 154.81 121.34 C 164.16 121.78 173.54 121.70 182.90 121.38 C 182.95 111.96 183.16 102.53 182.89 93.11 C 173.55 92.82 164.20 93.02 154.86 93.11 M 17.54 168.01 C 17.51 190.02 17.49 212.03 17.55 234.03 C 39.47 234.04 61.40 234.08 83.32 234.01 C 83.27 212.01 83.34 190.02 83.28 168.02 C 61.37 167.98 39.45 167.99 17.54 168.01 M 91.06 216.06 C 90.92 225.68 90.93 235.31 91.06 244.93 C 100.51 245.04 109.98 245.17 119.43 244.86 C 119.28 235.25 119.61 225.63 119.21 216.02 C 109.83 215.98 100.44 215.91 91.06 216.06 Z" />
<path fill="#b2d1db" opacity="1.00" d=" M 133.17 132.20 C 155.10 131.71 177.04 132.16 198.97 132.01 C 217.98 132.00 236.99 131.99 256.00 132.01 L 256.00 233.10 C 255.26 244.88 245.15 254.99 233.44 256.00 L 133.10 256.00 C 132.90 225.02 133.17 194.03 133.00 163.05 C 133.28 152.76 132.72 142.47 133.17 132.20 M 172.98 168.02 C 172.95 190.02 172.93 212.02 172.99 234.01 C 194.99 234.07 217.00 234.06 239.01 234.02 C 239.08 212.02 239.05 190.02 239.02 168.02 C 217.01 167.98 194.99 167.98 172.98 168.02 M 137.05 216.09 C 136.94 225.70 136.91 235.32 137.07 244.93 C 146.65 245.04 156.25 245.17 165.84 244.85 C 166.17 235.28 166.03 225.69 165.94 216.11 C 156.31 215.90 146.67 215.92 137.05 216.09 Z" />
</g>
<g id="#ffffffff">
<path fill="#ffffff" opacity="1.00" d=" M 94.98 19.82 C 117.12 19.78 139.26 19.80 161.40 19.81 C 161.49 41.75 161.53 63.68 161.38 85.62 C 139.28 85.59 117.18 85.54 95.09 85.64 C 94.80 63.70 95.00 41.76 94.98 19.82 M 123.00 48.00 C 123.00 51.11 123.00 54.22 123.01 57.33 C 126.35 57.33 129.68 57.33 133.02 57.34 C 133.16 54.23 133.15 51.12 133.15 48.00 C 129.77 48.00 126.38 48.00 123.00 48.00 Z" />
<path fill="#ffffff" opacity="1.00" d=" M 17.54 168.01 C 39.45 167.99 61.37 167.98 83.28 168.02 C 83.34 190.02 83.27 212.01 83.32 234.01 C 61.40 234.08 39.47 234.04 17.55 234.03 C 17.49 212.03 17.51 190.02 17.54 168.01 M 45.84 196.00 C 45.84 199.33 45.84 202.65 45.84 205.98 C 48.89 205.98 51.94 205.98 54.99 205.99 C 54.98 202.66 54.98 199.33 54.98 196.00 C 51.94 196.00 48.89 196.00 45.84 196.00 Z" />
<path fill="#ffffff" opacity="1.00" d=" M 172.98 168.02 C 194.99 167.98 217.01 167.98 239.02 168.02 C 239.05 190.02 239.08 212.02 239.01 234.02 C 217.00 234.06 194.99 234.07 172.99 234.01 C 172.93 212.02 172.95 190.02 172.98 168.02 M 201.12 196.00 C 201.12 199.33 201.12 202.66 201.11 205.98 C 204.40 205.98 207.69 205.98 210.99 205.99 C 210.98 202.66 210.98 199.33 210.98 196.00 C 207.69 196.00 204.40 196.00 201.12 196.00 Z" />
</g>
<g id="#636163ff">
<path fill="#636163" opacity="1.00" d=" M 123.00 48.00 C 126.38 48.00 129.77 48.00 133.15 48.00 C 133.15 51.12 133.16 54.23 133.02 57.34 C 129.68 57.33 126.35 57.33 123.01 57.33 C 123.00 54.22 123.00 51.11 123.00 48.00 Z" />
</g>
<g id="#cbc9cbff">
<path fill="#cbc9cb" opacity="1.00" d=" M 73.23 93.12 C 82.78 92.85 92.35 92.95 101.91 93.06 C 102.06 102.60 102.15 112.15 101.85 121.69 C 92.34 121.75 82.82 121.77 73.30 121.67 C 73.04 112.16 73.16 102.64 73.23 93.12 M 83.34 96.03 C 83.34 98.56 83.33 101.09 83.33 103.62 C 81.03 103.64 78.74 103.65 76.45 103.66 C 76.42 106.08 76.40 108.49 76.38 110.90 C 78.70 110.95 81.01 110.99 83.33 111.03 C 83.34 113.48 83.34 115.92 83.34 118.37 C 85.98 118.34 88.63 118.34 91.27 118.26 C 91.29 115.84 91.31 113.43 91.32 111.02 C 93.88 111.00 96.43 110.99 98.99 110.98 C 98.99 108.54 98.99 106.10 98.99 103.65 C 96.45 103.65 93.91 103.65 91.38 103.64 C 91.33 101.09 91.30 98.55 91.27 96.01 C 88.63 96.01 85.99 96.01 83.34 96.03 Z" />
<path fill="#cbc9cb" opacity="1.00" d=" M 91.06 216.06 C 100.44 215.91 109.83 215.98 119.21 216.02 C 119.61 225.63 119.28 235.25 119.43 244.86 C 109.98 245.17 100.51 245.04 91.06 244.93 C 90.93 235.31 90.92 225.68 91.06 216.06 M 101.42 219.03 C 101.39 221.35 101.36 223.67 101.33 226.00 C 98.89 226.00 96.45 226.01 94.01 226.02 C 94.00 228.67 94.00 231.33 94.01 233.99 C 96.45 233.99 98.89 234.00 101.33 234.00 C 101.37 236.55 101.40 239.09 101.43 241.64 C 103.94 241.65 106.46 241.66 108.97 241.67 C 108.99 239.11 108.99 236.56 109.01 234.00 C 111.35 233.99 113.69 233.99 116.03 233.98 C 116.05 231.32 116.05 228.67 116.02 226.01 C 113.68 226.01 111.34 226.00 109.00 226.00 C 109.00 223.66 108.99 221.33 108.99 219.00 C 106.46 219.01 103.94 219.01 101.42 219.03 Z" />
<path fill="#cbc9cb" opacity="1.00" d=" M 137.05 216.09 C 146.67 215.92 156.31 215.90 165.94 216.11 C 166.03 225.69 166.17 235.28 165.84 244.85 C 156.25 245.17 146.65 245.04 137.07 244.93 C 136.91 235.32 136.94 225.70 137.05 216.09 M 147.71 219.02 C 147.70 221.34 147.69 223.66 147.68 225.99 C 145.12 226.00 142.57 226.00 140.01 226.02 C 140.00 228.67 140.01 231.33 140.01 233.98 C 142.55 233.99 145.10 234.00 147.64 234.02 C 147.70 236.55 147.72 239.09 147.88 241.63 C 150.24 241.64 152.60 241.66 154.97 241.67 C 154.98 239.12 154.99 236.56 155.01 234.01 C 157.50 233.99 160.00 233.98 162.50 233.96 C 162.50 231.32 162.50 228.67 162.50 226.04 C 160.00 226.01 157.50 226.00 155.00 225.99 C 155.00 223.66 154.99 221.33 154.99 219.01 C 152.56 219.01 150.13 219.01 147.71 219.02 Z" />
</g>
<g id="#cecbcbff">
<path fill="#cecbcb" opacity="1.00" d=" M 154.86 93.11 C 164.20 93.02 173.55 92.82 182.89 93.11 C 183.16 102.53 182.95 111.96 182.90 121.38 C 173.54 121.70 164.16 121.78 154.81 121.34 C 154.55 111.93 154.51 102.51 154.86 93.11 M 165.02 96.01 C 165.00 98.56 164.99 101.11 164.97 103.67 C 162.64 103.65 160.30 103.64 157.97 103.63 C 157.97 106.08 157.98 108.53 157.98 110.98 C 160.32 110.99 162.65 111.00 164.99 111.01 C 165.00 113.45 165.01 115.90 165.02 118.35 C 167.67 118.36 170.33 118.35 172.98 118.32 C 172.99 115.88 173.00 113.44 173.01 111.01 C 175.33 111.00 177.66 110.99 179.99 110.99 C 179.99 108.53 179.99 106.08 179.99 103.63 C 177.66 103.63 175.34 103.63 173.01 103.64 C 173.00 101.09 172.99 98.55 172.99 96.01 C 170.33 96.00 167.67 96.00 165.02 96.01 Z" />
</g>
<g id="#8e8c8cff">
<path fill="#8e8c8c" opacity="1.00" d=" M 83.34 96.03 C 85.99 96.01 88.63 96.01 91.27 96.01 C 91.30 98.55 91.33 101.09 91.38 103.64 C 93.91 103.65 96.45 103.65 98.99 103.65 C 98.99 106.10 98.99 108.54 98.99 110.98 C 96.43 110.99 93.88 111.00 91.32 111.02 C 91.31 113.43 91.29 115.84 91.27 118.26 C 88.63 118.34 85.98 118.34 83.34 118.37 C 83.34 115.92 83.34 113.48 83.33 111.03 C 81.01 110.99 78.70 110.95 76.38 110.90 C 76.40 108.49 76.42 106.08 76.45 103.66 C 78.74 103.65 81.03 103.64 83.33 103.62 C 83.33 101.09 83.34 98.56 83.34 96.03 Z" />
<path fill="#8e8c8c" opacity="1.00" d=" M 165.02 96.01 C 167.67 96.00 170.33 96.00 172.99 96.01 C 172.99 98.55 173.00 101.09 173.01 103.64 C 175.34 103.63 177.66 103.63 179.99 103.63 C 179.99 106.08 179.99 108.53 179.99 110.99 C 177.66 110.99 175.33 111.00 173.01 111.01 C 173.00 113.44 172.99 115.88 172.98 118.32 C 170.33 118.35 167.67 118.36 165.02 118.35 C 165.01 115.90 165.00 113.45 164.99 111.01 C 162.65 111.00 160.32 110.99 157.98 110.98 C 157.98 108.53 157.97 106.08 157.97 103.63 C 160.30 103.64 162.64 103.65 164.97 103.67 C 164.99 101.11 165.00 98.56 165.02 96.01 Z" />
<path fill="#8e8c8c" opacity="1.00" d=" M 101.42 219.03 C 103.94 219.01 106.46 219.01 108.99 219.00 C 108.99 221.33 109.00 223.66 109.00 226.00 C 111.34 226.00 113.68 226.01 116.02 226.01 C 116.05 228.67 116.05 231.32 116.03 233.98 C 113.69 233.99 111.35 233.99 109.01 234.00 C 108.99 236.56 108.99 239.11 108.97 241.67 C 106.46 241.66 103.94 241.65 101.43 241.64 C 101.40 239.09 101.37 236.55 101.33 234.00 C 98.89 234.00 96.45 233.99 94.01 233.99 C 94.00 231.33 94.00 228.67 94.01 226.02 C 96.45 226.01 98.89 226.00 101.33 226.00 C 101.36 223.67 101.39 221.35 101.42 219.03 Z" />
<path fill="#8e8c8c" opacity="1.00" d=" M 147.71 219.02 C 150.13 219.01 152.56 219.01 154.99 219.01 C 154.99 221.33 155.00 223.66 155.00 225.99 C 157.50 226.00 160.00 226.01 162.50 226.04 C 162.50 228.67 162.50 231.32 162.50 233.96 C 160.00 233.98 157.50 233.99 155.01 234.01 C 154.99 236.56 154.98 239.12 154.97 241.67 C 152.60 241.66 150.24 241.64 147.88 241.63 C 147.72 239.09 147.70 236.55 147.64 234.02 C 145.10 234.00 142.55 233.99 140.01 233.98 C 140.01 231.33 140.00 228.67 140.01 226.02 C 142.57 226.00 145.12 226.00 147.68 225.99 C 147.69 223.66 147.70 221.34 147.71 219.02 Z" />
</g>
<g id="#aac5d0ff">
<path fill="#aac5d0" opacity="1.00" d=" M 173.96 124.95 C 182.31 124.88 190.69 125.48 199.00 124.43 C 199.00 126.95 198.98 129.48 198.97 132.01 C 177.04 132.16 155.10 131.71 133.17 132.20 C 132.72 142.47 133.28 152.76 133.00 163.05 C 133.17 194.03 132.90 225.02 133.10 256.00 L 123.99 256.00 C 123.85 221.01 124.05 186.02 123.97 151.03 C 124.02 144.76 124.19 138.49 123.79 132.23 C 101.82 131.53 79.82 132.43 57.85 131.84 C 57.86 129.62 57.89 127.40 57.92 125.17 C 72.59 124.53 87.28 125.25 101.96 125.00 C 125.96 124.90 149.96 125.17 173.96 124.95 Z" />
</g>
<g id="#605f60ff">
<path fill="#605f60" opacity="1.00" d=" M 45.84 196.00 C 48.89 196.00 51.94 196.00 54.98 196.00 C 54.98 199.33 54.98 202.66 54.99 205.99 C 51.94 205.98 48.89 205.98 45.84 205.98 C 45.84 202.65 45.84 199.33 45.84 196.00 Z" />
<path fill="#605f60" opacity="1.00" d=" M 201.12 196.00 C 204.40 196.00 207.69 196.00 210.98 196.00 C 210.98 199.33 210.98 202.66 210.99 205.99 C 207.69 205.98 204.40 205.98 201.11 205.98 C 201.12 202.66 201.12 199.33 201.12 196.00 Z" />
</g>
</svg>
