<?xml version="1.0" encoding="UTF-8" ?>
<!DOCTYPE svg PUBLIC "-//W3C//DTD SVG 1.1//EN" "http://www.w3.org/Graphics/SVG/1.1/DTD/svg11.dtd">
<svg width="258pt" height="257pt" viewBox="0 0 258 257" version="1.1" xmlns="http://www.w3.org/2000/svg">
<g id="#a7938cff">
<path fill="#a7938c" opacity="1.00" d=" M 23.38 0.00 L 62.81 0.00 C 72.73 15.93 82.09 32.22 91.74 48.33 C 98.47 59.66 105.42 70.87 111.96 82.32 C 123.37 82.38 134.79 82.29 146.20 82.36 C 155.17 67.61 163.80 52.65 172.85 37.93 C 179.85 25.15 188.09 13.09 195.02 0.27 L 193.91 0.00 L 234.48 0.00 C 245.15 0.99 254.51 9.39 256.59 19.90 C 256.94 19.75 257.65 19.43 258.00 19.27 L 258.00 236.82 C 257.66 236.62 256.98 236.22 256.64 236.02 C 254.66 245.68 246.70 253.66 237.02 255.61 C 237.22 255.96 237.60 256.65 237.79 257.00 L 20.11 257.00 C 20.35 256.67 20.84 256.01 21.09 255.67 C 11.44 253.67 3.34 245.82 1.42 236.10 C 1.07 236.25 0.36 236.56 0.00 236.71 L 0.00 21.75 L 0.32 19.25 L 1.53 19.74 C 3.50 9.29 12.89 1.08 23.38 0.00 M 22.94 45.01 C 22.96 71.73 22.86 98.44 22.99 125.16 C 19.51 125.31 16.02 125.28 12.54 125.40 C 12.84 163.03 12.48 200.66 12.72 238.29 C 90.24 238.29 167.76 238.28 245.27 238.30 C 245.52 200.66 245.18 163.02 245.45 125.38 C 241.96 125.29 238.48 125.31 235.01 125.16 C 235.14 98.44 235.04 71.73 235.06 45.01 C 213.71 44.98 192.35 44.99 171.00 45.01 C 171.01 71.72 170.97 98.44 171.02 125.16 C 167.92 125.31 164.82 125.35 161.72 125.27 C 161.64 116.19 161.69 107.11 161.70 98.03 C 139.90 97.98 118.11 98.01 96.32 98.01 C 96.29 107.10 96.37 116.19 96.27 125.28 C 93.17 125.35 90.07 125.31 86.98 125.16 C 87.03 98.44 86.99 71.72 87.00 45.00 C 65.64 44.99 44.29 44.98 22.94 45.01 Z" />
<path fill="#a7938c" opacity="1.00" d=" M 93.46 0.00 L 164.81 0.00 C 152.90 15.90 140.86 31.71 129.44 47.94 C 123.58 40.91 118.52 33.26 112.93 26.01 C 106.23 17.49 100.41 8.32 93.46 0.00 Z" />
</g>
<g id="#39322bff">
<path fill="#39322b" opacity="1.00" d=" M 62.81 0.00 L 93.46 0.00 C 100.41 8.32 106.23 17.49 112.93 26.01 C 118.52 33.26 123.58 40.91 129.44 47.94 C 140.86 31.71 152.90 15.90 164.81 0.00 L 193.91 0.00 L 195.02 0.27 C 188.09 13.09 179.85 25.15 172.85 37.93 C 163.80 52.65 155.17 67.61 146.20 82.36 C 134.79 82.29 123.37 82.38 111.96 82.32 C 105.42 70.87 98.47 59.66 91.74 48.33 C 82.09 32.22 72.73 15.93 62.81 0.00 Z" />
</g>
<g id="#ffffffff">
<path fill="#ffffff" opacity="1.00" d=" M 22.94 45.01 C 44.29 44.98 65.64 44.99 87.00 45.00 C 86.99 71.72 87.03 98.44 86.98 125.16 C 65.65 124.98 44.32 124.98 22.99 125.16 C 22.86 98.44 22.96 71.73 22.94 45.01 M 55.00 53.00 C 55.00 69.35 54.99 85.69 55.01 102.04 C 55.00 107.69 55.00 113.34 55.00 119.00 C 61.33 118.99 67.67 118.99 74.00 119.00 C 74.00 113.77 73.96 108.54 74.03 103.31 C 72.87 103.06 71.73 102.78 70.58 102.51 C 71.45 102.59 73.20 102.74 74.07 102.82 C 73.90 86.21 74.04 69.61 74.00 53.00 C 67.67 53.00 61.33 53.00 55.00 53.00 Z" />
<path fill="#ffffff" opacity="1.00" d=" M 171.00 45.01 C 192.35 44.99 213.71 44.98 235.06 45.01 C 235.04 71.73 235.14 98.44 235.01 125.16 C 213.68 124.98 192.35 124.98 171.02 125.16 C 170.97 98.44 171.01 71.72 171.00 45.01 M 184.00 53.00 C 183.96 69.61 184.10 86.21 183.93 102.81 C 184.77 102.74 186.45 102.59 187.30 102.51 C 186.19 102.78 185.08 103.06 183.97 103.32 C 184.03 108.54 183.99 113.77 184.00 119.00 C 190.33 118.99 196.66 119.00 203.00 119.00 C 203.00 113.34 203.00 107.69 202.99 102.04 C 203.01 85.69 203.00 69.35 203.00 53.00 C 196.66 53.00 190.33 53.00 184.00 53.00 Z" />
<path fill="#ffffff" opacity="1.00" d=" M 61.00 56.00 C 64.00 55.99 67.00 56.00 70.00 56.00 C 70.00 61.67 70.01 67.33 70.00 73.00 C 67.00 73.00 64.00 73.00 61.00 73.00 C 61.00 67.33 60.99 61.67 61.00 56.00 Z" />
<path fill="#ffffff" opacity="1.00" d=" M 188.00 56.00 C 191.00 56.00 194.00 55.99 197.00 56.00 C 197.00 61.67 197.00 67.33 197.00 73.00 C 194.00 73.00 191.00 73.00 188.00 73.00 C 187.99 67.33 187.99 61.67 188.00 56.00 Z" />
</g>
<g id="#29211eff">
<path fill="#29211e" opacity="1.00" d=" M 55.00 53.00 C 61.33 53.00 67.67 53.00 74.00 53.00 C 74.04 69.61 73.90 86.21 74.07 102.82 C 73.20 102.74 71.45 102.59 70.58 102.51 C 65.44 101.54 60.20 102.06 55.01 102.04 C 54.99 85.69 55.00 69.35 55.00 53.00 M 61.00 56.00 C 60.99 61.67 61.00 67.33 61.00 73.00 C 64.00 73.00 67.00 73.00 70.00 73.00 C 70.01 67.33 70.00 61.67 70.00 56.00 C 67.00 56.00 64.00 55.99 61.00 56.00 Z" />
<path fill="#29211e" opacity="1.00" d=" M 184.00 53.00 C 190.33 53.00 196.66 53.00 203.00 53.00 C 203.00 69.35 203.01 85.69 202.99 102.04 C 197.76 102.06 192.48 101.54 187.30 102.51 C 186.45 102.59 184.77 102.74 183.93 102.81 C 184.10 86.21 183.96 69.61 184.00 53.00 M 188.00 56.00 C 187.99 61.67 187.99 67.33 188.00 73.00 C 191.00 73.00 194.00 73.00 197.00 73.00 C 197.00 67.33 197.00 61.67 197.00 56.00 C 194.00 55.99 191.00 56.00 188.00 56.00 Z" />
</g>
<g id="#f7c52eff">
<path fill="#f7c52e" opacity="1.00" d=" M 96.32 98.01 C 118.11 98.01 139.90 97.98 161.70 98.03 C 161.69 107.11 161.64 116.19 161.72 125.27 C 164.82 125.35 167.92 125.31 171.02 125.16 C 192.35 124.98 213.68 124.98 235.01 125.16 C 238.48 125.31 241.96 125.29 245.45 125.38 C 245.18 163.02 245.52 200.66 245.27 238.30 C 167.76 238.28 90.24 238.29 12.72 238.29 C 12.48 200.66 12.84 163.03 12.54 125.40 C 16.02 125.28 19.51 125.31 22.99 125.16 C 44.32 124.98 65.65 124.98 86.98 125.16 C 90.07 125.31 93.17 125.35 96.27 125.28 C 96.37 116.19 96.29 107.10 96.32 98.01 M 33.68 171.03 C 33.69 183.01 33.69 194.99 33.68 206.97 C 44.78 207.00 55.87 206.98 66.97 206.98 C 108.49 206.95 150.01 207.04 191.53 206.93 C 202.68 207.06 213.83 206.94 224.99 206.99 C 224.98 195.00 224.98 183.01 224.99 171.02 C 161.22 171.03 97.45 171.00 33.68 171.03 Z" />
</g>
<g id="#4f4744ff">
<path fill="#4f4744" opacity="1.00" d=" M 55.01 102.04 C 60.20 102.06 65.44 101.54 70.58 102.51 C 71.73 102.78 72.87 103.06 74.03 103.31 C 73.96 108.54 74.00 113.77 74.00 119.00 C 67.67 118.99 61.33 118.99 55.00 119.00 C 55.00 113.34 55.00 107.69 55.01 102.04 Z" />
<path fill="#4f4744" opacity="1.00" d=" M 187.30 102.51 C 192.48 101.54 197.76 102.06 202.99 102.04 C 203.00 107.69 203.00 113.34 203.00 119.00 C 196.66 119.00 190.33 118.99 184.00 119.00 C 183.99 113.77 184.03 108.54 183.97 103.32 C 185.08 103.06 186.19 102.78 187.30 102.51 Z" />
</g>
<g id="#703636ff">
<path fill="#703636" opacity="1.00" d=" M 33.68 171.03 C 97.45 171.00 161.22 171.03 224.99 171.02 C 224.98 183.01 224.98 195.00 224.99 206.99 C 213.83 206.94 202.68 207.06 191.53 206.93 C 191.86 199.97 191.72 192.99 191.73 186.02 C 150.16 185.88 108.58 185.95 67.01 185.98 C 66.97 192.98 67.03 199.98 66.97 206.98 C 55.87 206.98 44.78 207.00 33.68 206.97 C 33.69 194.99 33.69 183.01 33.68 171.03 Z" />
</g>
<g id="#ba5b63ff">
<path fill="#ba5b63" opacity="1.00" d=" M 67.01 185.98 C 108.58 185.95 150.16 185.88 191.73 186.02 C 191.72 192.99 191.86 199.97 191.53 206.93 C 150.01 207.04 108.49 206.95 66.97 206.98 C 67.03 199.98 66.97 192.98 67.01 185.98 Z" />
</g>
</svg>
