<?xml version="1.0" encoding="UTF-8" ?>
<!DOCTYPE svg PUBLIC "-//W3C//DTD SVG 1.1//EN" "http://www.w3.org/Graphics/SVG/1.1/DTD/svg11.dtd">
<svg width="256pt" height="256pt" viewBox="0 0 256 256" version="1.1" xmlns="http://www.w3.org/2000/svg">
<g id="#c6e9ecff">
<path fill="#c6e9ec" opacity="1.00" d=" M 22.46 0.00 L 233.36 0.00 C 244.81 0.94 254.69 10.56 255.96 21.99 C 220.08 22.06 184.19 21.97 148.31 22.03 C 144.72 24.67 141.54 27.81 138.06 30.58 C 138.27 88.74 138.04 146.90 138.17 205.05 C 137.78 207.88 140.71 209.14 142.48 210.69 C 145.11 212.64 147.22 216.10 150.87 216.00 C 172.58 216.01 194.29 216.00 216.00 216.00 C 216.00 229.33 216.00 242.67 216.00 256.00 L 41.64 256.00 C 41.64 242.67 41.63 229.33 41.64 216.00 C 63.95 215.95 86.26 216.09 108.57 215.93 C 112.14 212.90 115.85 210.03 119.37 206.95 C 119.27 148.34 119.29 89.72 119.36 31.11 C 116.52 27.65 112.50 25.45 109.60 22.04 C 73.08 21.95 36.56 22.08 0.04 21.98 C 1.33 10.62 11.08 1.06 22.46 0.00 Z" />
</g>
<g id="#c39368ff">
<path fill="#c39368" opacity="1.00" d=" M 0.00 22.60 L 0.04 21.98 C 36.56 22.08 73.08 21.95 109.60 22.04 C 112.50 25.45 116.52 27.65 119.36 31.11 C 119.29 89.72 119.27 148.34 119.37 206.95 C 115.85 210.03 112.14 212.90 108.57 215.93 C 86.26 216.09 63.95 215.95 41.64 216.00 C 27.76 216.00 13.88 216.00 0.00 216.00 L 0.00 167.89 C 16.49 168.09 33.00 168.03 49.49 167.92 C 49.47 152.77 49.44 137.62 49.51 122.47 C 33.01 122.29 16.50 122.53 0.00 122.35 L 0.00 22.60 M 62.00 78.64 C 62.00 91.43 61.99 104.23 62.01 117.02 C 61.99 120.97 61.99 124.93 62.02 128.88 C 73.32 128.85 84.63 128.94 95.94 128.83 C 95.94 124.73 95.95 120.63 95.88 116.53 C 95.99 103.91 95.85 91.29 95.95 78.66 C 84.63 78.59 73.32 78.63 62.00 78.64 Z" />
<path fill="#c39368" opacity="1.00" d=" M 148.31 22.03 C 184.19 21.97 220.08 22.06 255.96 21.99 L 256.00 22.72 L 256.00 122.13 C 240.06 122.77 224.07 122.26 208.11 122.37 C 207.82 137.57 208.02 152.78 208.00 167.98 C 224.00 168.04 240.00 167.95 256.00 168.03 L 256.00 216.00 C 242.67 216.00 229.33 216.00 216.00 216.00 C 194.29 216.00 172.58 216.01 150.87 216.00 C 147.22 216.10 145.11 212.64 142.48 210.69 C 140.71 209.14 137.78 207.88 138.17 205.05 C 138.04 146.90 138.27 88.74 138.06 30.58 C 141.54 27.81 144.72 24.67 148.31 22.03 M 161.00 78.66 C 161.00 91.27 161.00 103.89 161.00 116.50 C 161.00 120.63 160.99 124.76 161.02 128.88 C 172.56 128.84 184.10 128.96 195.63 128.82 C 195.69 124.68 195.51 120.55 195.53 116.42 C 195.70 103.76 195.74 91.10 195.51 78.44 C 184.01 78.87 172.50 78.48 161.00 78.66 Z" />
</g>
<g id="#2b2c31ff">
<path fill="#2b2c31" opacity="1.00" d=" M 62.00 78.64 C 73.32 78.63 84.63 78.59 95.95 78.66 C 95.85 91.29 95.99 103.91 95.88 116.53 C 84.63 117.59 73.29 116.70 62.01 117.02 C 61.99 104.23 62.00 91.43 62.00 78.64 M 71.00 82.00 C 71.00 87.33 71.00 92.67 71.00 98.00 C 76.33 98.00 81.67 98.00 87.00 98.00 C 87.00 92.67 87.00 87.33 87.00 82.00 C 81.67 82.00 76.33 82.00 71.00 82.00 Z" />
<path fill="#2b2c31" opacity="1.00" d=" M 161.00 78.66 C 172.50 78.48 184.01 78.87 195.51 78.44 C 195.74 91.10 195.70 103.76 195.53 116.42 C 190.78 117.54 185.86 116.84 181.04 117.00 C 174.36 116.86 167.64 117.44 161.00 116.50 C 161.00 103.89 161.00 91.27 161.00 78.66 M 170.00 82.00 C 170.00 87.33 170.00 92.67 170.00 98.00 C 175.33 98.00 180.67 98.00 186.00 98.00 C 186.00 92.66 186.00 87.33 186.00 82.00 C 180.67 82.00 175.33 82.00 170.00 82.00 Z" />
</g>
<g id="#ffffffff">
<path fill="#ffffff" opacity="1.00" d=" M 71.00 82.00 C 76.33 82.00 81.67 82.00 87.00 82.00 C 87.00 87.33 87.00 92.67 87.00 98.00 C 81.67 98.00 76.33 98.00 71.00 98.00 C 71.00 92.67 71.00 87.33 71.00 82.00 Z" />
<path fill="#ffffff" opacity="1.00" d=" M 170.00 82.00 C 175.33 82.00 180.67 82.00 186.00 82.00 C 186.00 87.33 186.00 92.66 186.00 98.00 C 180.67 98.00 175.33 98.00 170.00 98.00 C 170.00 92.67 170.00 87.33 170.00 82.00 Z" />
</g>
<g id="#42434aff">
<path fill="#42434a" opacity="1.00" d=" M 62.01 117.02 C 73.29 116.70 84.63 117.59 95.88 116.53 C 95.95 120.63 95.94 124.73 95.94 128.83 C 84.63 128.94 73.32 128.85 62.02 128.88 C 61.99 124.93 61.99 120.97 62.01 117.02 Z" />
<path fill="#42434a" opacity="1.00" d=" M 161.00 116.50 C 167.64 117.44 174.36 116.86 181.04 117.00 C 185.86 116.84 190.78 117.54 195.53 116.42 C 195.51 120.55 195.69 124.68 195.63 128.82 C 184.10 128.96 172.56 128.84 161.02 128.88 C 160.99 124.76 161.00 120.63 161.00 116.50 Z" />
</g>
<g id="#ecd3b5ff">
<path fill="#ecd3b5" opacity="1.00" d=" M 0.00 122.35 C 16.50 122.53 33.01 122.29 49.51 122.47 C 49.44 137.62 49.47 152.77 49.49 167.92 C 33.00 168.03 16.49 168.09 0.00 167.89 L 0.00 122.35 Z" />
<path fill="#ecd3b5" opacity="1.00" d=" M 208.11 122.37 C 224.07 122.26 240.06 122.77 256.00 122.13 L 256.00 168.03 C 240.00 167.95 224.00 168.04 208.00 167.98 C 208.02 152.78 207.82 137.57 208.11 122.37 Z" />
</g>
<g id="#444544ff">
<path fill="#444544" opacity="1.00" d=" M 0.00 216.00 C 13.88 216.00 27.76 216.00 41.64 216.00 C 41.63 229.33 41.64 242.67 41.64 256.00 L 21.83 256.00 C 10.59 254.51 1.07 244.97 0.00 233.61 L 0.00 216.00 Z" />
<path fill="#444544" opacity="1.00" d=" M 216.00 216.00 C 229.33 216.00 242.67 216.00 256.00 216.00 L 256.00 233.51 C 254.99 245.05 245.17 254.84 233.68 256.00 L 216.00 256.00 C 216.00 242.67 216.00 229.33 216.00 216.00 Z" />
</g>
</svg>
