<?xml version="1.0" encoding="UTF-8" ?>
<!DOCTYPE svg PUBLIC "-//W3C//DTD SVG 1.1//EN" "http://www.w3.org/Graphics/SVG/1.1/DTD/svg11.dtd">
<svg width="256pt" height="256pt" viewBox="0 0 256 256" version="1.1" xmlns="http://www.w3.org/2000/svg">
<g id="#c6e9ecff">
<path fill="#c6e9ec" opacity="1.00" d=" M 22.30 0.00 L 85.56 0.00 C 88.36 13.68 90.48 27.50 92.75 41.28 C 77.08 41.63 61.41 41.20 45.74 41.49 C 43.14 44.34 39.91 46.49 37.25 49.27 C 37.35 103.09 37.30 156.91 37.27 210.74 C 40.26 213.76 43.40 216.73 46.99 219.02 C 49.61 219.59 52.32 219.27 54.98 219.32 C 70.90 219.27 86.81 219.36 102.73 219.28 C 102.46 229.18 102.74 239.08 102.57 248.99 C 102.47 251.40 102.75 253.84 103.91 256.00 L 22.32 256.00 C 10.89 254.86 1.17 245.17 0.00 233.73 L 0.00 218.72 C 4.28 218.61 8.59 219.02 12.85 218.58 C 16.14 216.31 19.30 213.69 22.19 210.94 C 22.56 207.96 22.34 204.95 22.36 201.97 C 22.35 150.99 22.37 100.02 22.35 49.05 C 19.59 46.23 16.35 43.94 13.59 41.11 C 9.07 40.87 4.53 40.94 0.00 40.96 L 0.00 22.25 C 1.18 10.83 10.87 1.16 22.30 0.00 Z" />
<path fill="#c6e9ec" opacity="1.00" d=" M 116.29 0.00 L 140.08 0.00 C 138.92 2.68 138.78 5.63 138.42 8.49 C 136.12 19.41 134.67 30.48 132.43 41.42 C 129.50 41.40 126.57 41.40 123.64 41.41 C 121.05 27.62 118.85 13.79 116.29 0.00 Z" />
<path fill="#c6e9ec" opacity="1.00" d=" M 170.20 0.00 L 233.63 0.00 C 245.07 1.12 254.83 10.80 256.00 22.24 L 256.00 42.01 C 251.65 41.99 247.31 42.00 242.96 42.01 C 239.79 44.57 236.76 47.30 233.58 49.85 C 233.69 102.56 233.67 155.27 233.59 207.98 C 233.74 209.46 233.19 211.39 234.57 212.46 C 237.40 215.01 240.27 217.59 243.47 219.68 C 247.57 220.45 251.83 219.80 256.00 219.98 L 256.00 233.77 C 254.82 245.18 245.11 254.83 233.71 256.00 L 152.52 256.00 C 153.13 253.39 153.52 250.71 153.43 248.03 C 153.25 238.44 153.55 228.85 153.27 219.27 C 170.84 219.38 188.42 219.23 206.00 219.36 C 207.45 219.27 209.15 219.60 210.27 218.40 C 213.15 216.15 215.81 213.63 218.67 211.35 C 218.74 157.12 218.69 102.88 218.69 48.64 C 215.74 46.40 213.00 43.90 210.19 41.49 C 194.60 41.28 179.01 41.48 163.43 41.39 C 165.17 27.50 168.43 13.87 170.20 0.00 Z" />
</g>
<g id="#5d5b5dff">
<path fill="#5d5b5d" opacity="1.00" d=" M 85.56 0.00 L 116.29 0.00 C 118.85 13.79 121.05 27.62 123.64 41.41 C 124.18 45.98 125.29 50.45 125.98 54.99 C 126.51 58.28 126.81 61.71 128.49 64.68 C 129.79 56.92 131.21 49.18 132.43 41.42 C 134.67 30.48 136.12 19.41 138.42 8.49 C 138.78 5.63 138.92 2.68 140.08 0.00 L 170.20 0.00 C 168.43 13.87 165.17 27.50 163.43 41.39 C 160.96 53.85 159.07 66.40 156.88 78.91 C 155.97 83.19 155.30 87.50 154.91 91.86 C 152.92 93.56 150.95 95.27 148.99 97.00 C 135.99 97.01 122.99 96.99 109.99 97.01 C 106.17 97.43 103.88 93.84 101.12 91.85 C 100.28 80.76 97.21 70.00 95.93 58.97 C 94.80 53.08 94.07 47.12 92.75 41.28 C 90.48 27.50 88.36 13.68 85.56 0.00 Z" />
</g>
<g id="#c39368ff">
<path fill="#c39368" opacity="1.00" d=" M 0.00 40.96 C 4.53 40.94 9.07 40.87 13.59 41.11 C 16.35 43.94 19.59 46.23 22.35 49.05 C 22.37 100.02 22.35 150.99 22.36 201.97 C 22.34 204.95 22.56 207.96 22.19 210.94 C 19.30 213.69 16.14 216.31 12.85 218.58 C 8.59 219.02 4.28 218.61 0.00 218.72 L 0.00 40.96 Z" />
<path fill="#c39368" opacity="1.00" d=" M 45.74 41.49 C 61.41 41.20 77.08 41.63 92.75 41.28 C 94.07 47.12 94.80 53.08 95.93 58.97 C 97.21 70.00 100.28 80.76 101.12 91.85 C 103.88 93.84 106.17 97.43 109.99 97.01 C 122.99 96.99 135.99 97.01 148.99 97.00 C 150.95 95.27 152.92 93.56 154.91 91.86 C 155.30 87.50 155.97 83.19 156.88 78.91 C 159.07 66.40 160.96 53.85 163.43 41.39 C 179.01 41.48 194.60 41.28 210.19 41.49 C 213.00 43.90 215.74 46.40 218.69 48.64 C 218.69 102.88 218.74 157.12 218.67 211.35 C 215.81 213.63 213.15 216.15 210.27 218.40 C 209.15 219.60 207.45 219.27 206.00 219.36 C 188.42 219.23 170.84 219.38 153.27 219.27 C 136.42 219.29 119.58 219.29 102.73 219.28 C 86.81 219.36 70.90 219.27 54.98 219.32 C 52.32 219.27 49.61 219.59 46.99 219.02 C 43.40 216.73 40.26 213.76 37.27 210.74 C 37.30 156.91 37.35 103.09 37.25 49.27 C 39.91 46.49 43.14 44.34 45.74 41.49 M 67.10 128.27 C 78.41 128.37 89.73 128.22 101.05 128.34 C 103.39 128.32 105.74 128.31 108.09 128.30 C 108.21 127.41 108.44 125.63 108.56 124.73 C 106.90 122.04 103.75 121.21 101.12 119.80 C 89.90 113.98 78.24 108.95 67.43 102.38 C 66.61 110.96 67.27 119.65 67.10 128.27 M 154.96 119.98 C 152.59 121.49 149.88 122.36 147.61 124.03 C 147.70 125.46 147.77 126.88 147.83 128.31 C 150.20 128.32 152.57 128.32 154.94 128.35 C 166.26 128.21 177.58 128.37 188.90 128.27 C 188.94 119.77 188.98 111.27 188.87 102.78 C 177.61 108.61 166.09 113.93 154.96 119.98 M 118.13 108.16 C 118.05 114.74 117.84 121.33 118.19 127.91 C 119.48 127.96 120.76 128.00 122.05 128.04 C 122.23 121.39 122.31 114.70 121.96 108.05 C 120.68 108.08 119.40 108.12 118.13 108.16 M 134.01 116.15 C 133.64 120.12 133.66 124.12 134.00 128.09 C 135.27 128.02 136.55 127.96 137.82 127.93 C 138.07 123.97 138.04 120.00 137.87 116.03 C 136.59 116.07 135.30 116.11 134.01 116.15 M 108.99 123.85 C 108.96 125.32 108.94 126.79 108.91 128.26 C 111.42 128.37 113.94 128.39 116.44 128.14 C 114.12 126.44 111.37 125.46 108.99 123.85 M 139.78 127.67 C 141.97 128.98 144.66 128.15 147.06 128.26 C 147.04 126.79 147.03 125.33 147.02 123.86 C 144.73 125.36 142.24 126.49 139.78 127.67 M 101.98 139.99 C 101.97 153.32 101.96 166.66 101.99 179.99 C 119.66 180.06 137.34 180.03 155.01 180.01 C 155.03 166.67 155.06 153.33 154.99 139.99 C 137.32 139.96 119.65 139.96 101.98 139.99 Z" />
<path fill="#c39368" opacity="1.00" d=" M 233.58 49.85 C 236.76 47.30 239.79 44.57 242.96 42.01 C 247.31 42.00 251.65 41.99 256.00 42.01 L 256.00 219.98 C 251.83 219.80 247.57 220.45 243.47 219.68 C 240.27 217.59 237.40 215.01 234.57 212.46 C 233.19 211.39 233.74 209.46 233.59 207.98 C 233.67 155.27 233.69 102.56 233.58 49.85 Z" />
</g>
<g id="#c6926bff">
<path fill="#c6926b" opacity="1.00" d=" M 123.64 41.41 C 126.57 41.40 129.50 41.40 132.43 41.42 C 131.21 49.18 129.79 56.92 128.49 64.68 C 126.81 61.71 126.51 58.28 125.98 54.99 C 125.29 50.45 124.18 45.98 123.64 41.41 Z" />
</g>
<g id="#fff5efff">
<path fill="#fff5ef" opacity="1.00" d=" M 67.10 128.27 C 67.27 119.65 66.61 110.96 67.43 102.38 C 78.24 108.95 89.90 113.98 101.12 119.80 C 101.04 122.64 101.01 125.49 101.05 128.34 C 89.73 128.22 78.41 128.37 67.10 128.27 Z" />
<path fill="#fff5ef" opacity="1.00" d=" M 154.96 119.98 C 166.09 113.93 177.61 108.61 188.87 102.78 C 188.98 111.27 188.94 119.77 188.90 128.27 C 177.58 128.37 166.26 128.21 154.94 128.35 C 154.98 125.56 154.97 122.77 154.96 119.98 Z" />
</g>
<g id="#ad825aff">
<path fill="#ad825a" opacity="1.00" d=" M 118.13 108.16 C 119.40 108.12 120.68 108.08 121.96 108.05 C 122.31 114.70 122.23 121.39 122.05 128.04 C 120.76 128.00 119.48 127.96 118.19 127.91 C 117.84 121.33 118.05 114.74 118.13 108.16 Z" />
<path fill="#ad825a" opacity="1.00" d=" M 134.01 116.15 C 135.30 116.11 136.59 116.07 137.87 116.03 C 138.04 120.00 138.07 123.97 137.82 127.93 C 136.55 127.96 135.27 128.02 134.00 128.09 C 133.66 124.12 133.64 120.12 134.01 116.15 Z" />
</g>
<g id="#393c39ff">
<path fill="#393c39" opacity="1.00" d=" M 101.12 119.80 C 103.75 121.21 106.90 122.04 108.56 124.73 C 108.44 125.63 108.21 127.41 108.09 128.30 C 105.74 128.31 103.39 128.32 101.05 128.34 C 101.01 125.49 101.04 122.64 101.12 119.80 Z" />
<path fill="#393c39" opacity="1.00" d=" M 147.61 124.03 C 149.88 122.36 152.59 121.49 154.96 119.98 C 154.97 122.77 154.98 125.56 154.94 128.35 C 152.57 128.32 150.20 128.32 147.83 128.31 C 147.77 126.88 147.70 125.46 147.61 124.03 Z" />
</g>
<g id="#fcefe5ff">
<path fill="#fcefe5" opacity="1.00" d=" M 108.99 123.85 C 111.37 125.46 114.12 126.44 116.44 128.14 C 113.94 128.39 111.42 128.37 108.91 128.26 C 108.94 126.79 108.96 125.32 108.99 123.85 Z" />
<path fill="#fcefe5" opacity="1.00" d=" M 139.78 127.67 C 142.24 126.49 144.73 125.36 147.02 123.86 C 147.03 125.33 147.04 126.79 147.06 128.26 C 144.66 128.15 141.97 128.98 139.78 127.67 Z" />
</g>
<g id="#ecd3b5ff">
<path fill="#ecd3b5" opacity="1.00" d=" M 101.98 139.99 C 119.65 139.96 137.32 139.96 154.99 139.99 C 155.06 153.33 155.03 166.67 155.01 180.01 C 137.34 180.03 119.66 180.06 101.99 179.99 C 101.96 166.66 101.97 153.32 101.98 139.99 Z" />
</g>
<g id="#c8b299ff">
<path fill="#c8b299" opacity="1.00" d=" M 102.73 219.28 C 119.58 219.29 136.42 219.29 153.27 219.27 C 153.55 228.85 153.25 238.44 153.43 248.03 C 153.52 250.71 153.13 253.39 152.52 256.00 L 103.91 256.00 C 102.75 253.84 102.47 251.40 102.57 248.99 C 102.74 239.08 102.46 229.18 102.73 219.28 Z" />
</g>
</svg>
