<?xml version="1.0" encoding="UTF-8" ?>
<!DOCTYPE svg PUBLIC "-//W3C//DTD SVG 1.1//EN" "http://www.w3.org/Graphics/SVG/1.1/DTD/svg11.dtd">
<svg width="256pt" height="256pt" viewBox="0 0 256 256" version="1.1" xmlns="http://www.w3.org/2000/svg">
<g id="#dbe1ecff">
<path fill="#dbe1ec" opacity="1.00" d=" M 22.47 0.00 L 233.40 0.00 C 244.98 0.97 254.92 10.82 256.00 22.39 L 256.00 123.99 C 220.14 123.82 184.27 124.24 148.41 123.80 C 148.06 123.34 147.35 122.42 146.99 121.96 C 146.99 116.98 146.99 111.99 146.99 107.01 C 134.33 107.01 121.67 107.01 109.01 107.01 C 109.01 112.00 109.01 117.00 109.01 122.00 C 108.66 122.44 107.98 123.33 107.64 123.78 C 100.45 124.22 93.24 123.87 86.05 123.98 C 57.36 123.92 28.68 124.08 0.00 123.90 L 0.00 22.48 C 1.04 10.91 10.91 1.05 22.47 0.00 M 15.02 24.69 C 14.99 33.45 15.02 42.22 15.01 50.99 C 16.80 50.99 18.60 50.99 20.40 50.99 C 20.41 44.00 20.41 37.00 20.40 30.01 C 37.33 29.99 54.26 30.01 71.19 30.00 C 71.22 35.24 71.17 40.47 71.22 45.71 C 72.80 45.74 74.39 45.76 75.98 45.77 C 76.02 38.74 76.01 31.71 75.98 24.68 C 55.66 24.68 35.34 24.68 15.02 24.69 M 180.02 24.69 C 179.99 31.71 179.98 38.74 180.02 45.76 C 181.61 45.76 183.19 45.75 184.78 45.71 C 184.83 40.47 184.77 35.23 184.81 30.00 C 201.54 30.00 218.27 30.00 235.00 30.00 C 235.02 37.00 235.00 44.00 235.01 50.99 C 237.00 50.99 238.99 50.99 240.99 50.99 C 240.98 42.22 241.01 33.45 240.98 24.68 C 220.66 24.68 200.34 24.68 180.02 24.69 M 29.03 59.02 C 28.97 70.74 29.02 82.46 29.00 94.19 C 29.00 98.68 28.98 103.17 29.06 107.66 C 41.24 107.58 53.42 107.69 65.60 107.60 C 65.69 103.18 65.66 98.76 65.68 94.35 C 65.64 82.58 65.69 70.81 65.65 59.04 C 53.44 59.03 41.24 59.06 29.03 59.02 M 190.03 59.01 C 189.96 70.78 190.02 82.54 189.99 94.31 C 190.01 98.76 189.98 103.21 190.06 107.66 C 202.35 107.61 214.65 107.61 226.94 107.66 C 227.02 103.17 227.00 98.68 227.00 94.18 C 226.98 82.46 227.03 70.74 226.97 59.02 C 214.66 59.04 202.34 59.06 190.03 59.01 Z" />
</g>
<g id="#5a5d60ff">
<path fill="#5a5d60" opacity="1.00" d=" M 15.02 24.69 C 35.34 24.68 55.66 24.68 75.98 24.68 C 76.01 31.71 76.02 38.74 75.98 45.77 C 74.39 45.76 72.80 45.74 71.22 45.71 C 71.17 40.47 71.22 35.24 71.19 30.00 C 54.26 30.01 37.33 29.99 20.40 30.01 C 20.41 37.00 20.41 44.00 20.40 50.99 C 18.60 50.99 16.80 50.99 15.01 50.99 C 15.02 42.22 14.99 33.45 15.02 24.69 Z" />
<path fill="#5a5d60" opacity="1.00" d=" M 180.02 24.69 C 200.34 24.68 220.66 24.68 240.98 24.68 C 241.01 33.45 240.98 42.22 240.99 50.99 C 238.99 50.99 237.00 50.99 235.01 50.99 C 235.00 44.00 235.02 37.00 235.00 30.00 C 218.27 30.00 201.54 30.00 184.81 30.00 C 184.77 35.23 184.83 40.47 184.78 45.71 C 183.19 45.75 181.61 45.76 180.02 45.76 C 179.98 38.74 179.99 31.71 180.02 24.69 Z" />
</g>
<g id="#212c33ff">
<path fill="#212c33" opacity="1.00" d=" M 29.03 59.02 C 41.24 59.06 53.44 59.03 65.65 59.04 C 65.69 70.81 65.64 82.58 65.68 94.35 C 63.19 94.94 60.65 95.30 58.10 95.50 C 58.21 89.94 58.63 84.04 55.85 78.99 C 56.64 78.99 58.21 79.00 59.00 79.00 C 59.00 73.13 59.01 67.27 58.99 61.40 C 53.01 61.38 47.02 61.39 41.04 61.39 C 41.04 62.83 41.03 64.27 41.04 65.71 C 39.75 65.91 38.46 66.11 37.17 66.30 C 36.71 76.02 37.11 85.76 36.90 95.49 C 34.25 95.16 31.63 94.64 29.00 94.19 C 29.02 82.46 28.97 70.74 29.03 59.02 Z" />
<path fill="#212c33" opacity="1.00" d=" M 190.03 59.01 C 202.34 59.06 214.66 59.04 226.97 59.02 C 227.03 70.74 226.98 82.46 227.00 94.18 C 224.36 94.64 221.74 95.15 219.09 95.48 C 218.98 87.31 219.02 79.14 219.12 70.96 C 219.50 67.19 216.57 64.42 214.60 61.58 C 208.73 61.15 202.83 61.48 196.94 61.41 C 196.93 67.27 196.88 73.13 196.98 79.00 C 197.75 79.00 199.30 78.99 200.07 78.99 C 197.35 84.08 197.80 89.96 197.91 95.53 C 195.25 95.29 192.60 94.90 189.99 94.31 C 190.02 82.54 189.96 70.78 190.03 59.01 Z" />
</g>
<g id="#ffffffff">
<path fill="#ffffff" opacity="1.00" d=" M 41.04 61.39 C 47.02 61.39 53.01 61.38 58.99 61.40 C 59.01 67.27 59.00 73.13 59.00 79.00 C 58.21 79.00 56.64 78.99 55.85 78.99 C 50.90 79.00 45.96 79.00 41.02 78.97 C 41.05 74.55 41.03 70.13 41.04 65.71 C 41.03 64.27 41.04 62.83 41.04 61.39 Z" />
<path fill="#ffffff" opacity="1.00" d=" M 196.94 61.41 C 202.83 61.48 208.73 61.15 214.60 61.58 C 214.68 67.37 214.60 73.17 214.66 78.97 C 209.79 79.01 204.93 79.00 200.07 78.99 C 199.30 78.99 197.75 79.00 196.98 79.00 C 196.88 73.13 196.93 67.27 196.94 61.41 Z" />
<path fill="#ffffff" opacity="1.00" d=" M 31.06 158.02 C 40.11 158.00 49.17 157.93 58.23 158.05 C 58.45 163.32 58.44 168.60 58.20 173.87 C 57.86 184.65 58.15 195.44 58.03 206.23 C 49.16 207.84 40.03 206.66 31.05 206.95 C 30.98 190.64 30.97 174.33 31.06 158.02 Z" />
<path fill="#ffffff" opacity="1.00" d=" M 197.04 158.05 C 206.00 157.95 214.97 157.97 223.93 158.04 C 224.09 174.33 223.97 190.63 223.99 206.92 C 214.95 207.06 205.91 207.01 196.87 206.96 L 196.89 205.77 C 197.04 195.17 196.88 184.56 196.98 173.96 C 197.04 168.66 196.96 163.35 197.04 158.05 Z" />
</g>
<g id="#1b2229ff">
<path fill="#1b2229" opacity="1.00" d=" M 214.60 61.58 C 216.57 64.42 219.50 67.19 219.12 70.96 C 219.02 79.14 218.98 87.31 219.09 95.48 C 219.06 96.63 219.03 97.78 218.99 98.94 C 212.01 99.02 205.02 99.04 198.04 98.91 C 197.99 97.78 197.95 96.65 197.91 95.53 C 197.80 89.96 197.35 84.08 200.07 78.99 C 204.93 79.00 209.79 79.01 214.66 78.97 C 214.60 73.17 214.68 67.37 214.60 61.58 Z" />
<path fill="#1b2229" opacity="1.00" d=" M 37.17 66.30 C 38.46 66.11 39.75 65.91 41.04 65.71 C 41.03 70.13 41.05 74.55 41.02 78.97 C 45.96 79.00 50.90 79.00 55.85 78.99 C 58.63 84.04 58.21 89.94 58.10 95.50 C 58.04 96.65 57.97 97.80 57.90 98.95 C 50.94 99.03 43.98 99.01 37.03 98.94 C 36.97 97.79 36.93 96.64 36.90 95.49 C 37.11 85.76 36.71 76.02 37.17 66.30 Z" />
</g>
<g id="#1e5952ff">
<path fill="#1e5952" opacity="1.00" d=" M 29.00 94.19 C 31.63 94.64 34.25 95.16 36.90 95.49 C 36.93 96.64 36.97 97.79 37.03 98.94 C 43.98 99.01 50.94 99.03 57.90 98.95 C 57.97 97.80 58.04 96.65 58.10 95.50 C 60.65 95.30 63.19 94.94 65.68 94.35 C 65.66 98.76 65.69 103.18 65.60 107.60 C 53.42 107.69 41.24 107.58 29.06 107.66 C 28.98 103.17 29.00 98.68 29.00 94.19 Z" />
<path fill="#1e5952" opacity="1.00" d=" M 189.99 94.31 C 192.60 94.90 195.25 95.29 197.91 95.53 C 197.95 96.65 197.99 97.78 198.04 98.91 C 205.02 99.04 212.01 99.02 218.99 98.94 C 219.03 97.78 219.06 96.63 219.09 95.48 C 221.74 95.15 224.36 94.64 227.00 94.18 C 227.00 98.68 227.02 103.17 226.94 107.66 C 214.65 107.61 202.35 107.61 190.06 107.66 C 189.98 103.21 190.01 98.76 189.99 94.31 Z" />
</g>
<g id="#2e2e31ff">
<path fill="#2e2e31" opacity="1.00" d=" M 109.01 107.01 C 121.67 107.01 134.33 107.01 146.99 107.01 C 146.99 111.99 146.99 116.98 146.99 121.96 C 146.99 122.47 146.99 123.49 146.99 124.00 C 134.33 123.98 121.67 123.98 109.01 124.00 C 109.01 123.50 109.01 122.50 109.01 122.00 C 109.01 117.00 109.01 112.00 109.01 107.01 Z" />
</g>
<g id="#f7edd0ff">
<path fill="#f7edd0" opacity="1.00" d=" M 107.64 123.78 C 107.98 123.33 108.66 122.44 109.01 122.00 C 109.01 122.50 109.01 123.50 109.01 124.00 C 121.67 123.98 134.33 123.98 146.99 124.00 C 146.99 123.49 146.99 122.47 146.99 121.96 C 147.35 122.42 148.06 123.34 148.41 123.80 C 184.27 124.24 220.14 123.82 256.00 123.99 L 256.00 233.50 C 255.00 245.09 245.07 254.97 233.49 256.00 L 22.64 256.00 C 11.03 255.06 1.10 245.19 0.00 233.61 L 0.00 123.90 C 28.68 124.08 57.36 123.92 86.05 123.98 C 93.24 123.87 100.45 124.22 107.64 123.78 M 31.06 158.02 C 30.97 174.33 30.98 190.64 31.05 206.95 C 40.03 206.66 49.16 207.84 58.03 206.23 C 58.04 207.26 58.05 208.28 58.08 209.31 C 57.99 215.77 57.87 222.24 58.17 228.69 C 60.90 230.98 63.45 233.50 66.23 235.74 C 67.21 236.78 68.68 236.67 69.99 236.73 C 106.33 236.68 142.67 236.73 179.01 236.71 C 182.19 236.65 185.39 236.99 188.54 236.50 C 191.49 234.19 194.36 231.68 196.90 228.94 C 197.28 224.98 196.93 220.99 197.06 217.02 C 196.98 214.12 197.50 211.03 196.02 208.39 C 196.44 207.56 196.73 206.69 196.89 205.77 L 196.87 206.96 C 205.91 207.01 214.95 207.06 223.99 206.92 C 223.97 190.63 224.09 174.33 223.93 158.04 C 214.97 157.97 206.00 157.95 197.04 158.05 C 196.96 163.35 197.04 168.66 196.98 173.96 C 176.39 173.65 155.79 173.90 135.20 173.82 C 130.40 173.76 125.60 173.76 120.80 173.81 C 99.93 173.87 79.06 173.75 58.20 173.87 C 58.44 168.60 58.45 163.32 58.23 158.05 C 49.17 157.93 40.11 158.00 31.06 158.02 Z" />
</g>
<g id="#e9cce4ff">
<path fill="#e9cce4" opacity="1.00" d=" M 58.20 173.87 C 79.06 173.75 99.93 173.87 120.80 173.81 C 120.82 179.53 120.81 185.25 120.77 190.97 C 125.59 191.01 130.41 191.01 135.22 190.97 C 135.20 185.25 135.18 179.53 135.20 173.82 C 155.79 173.90 176.39 173.65 196.98 173.96 C 196.88 184.56 197.04 195.17 196.89 205.77 C 196.73 206.69 196.44 207.56 196.02 208.39 C 193.73 210.92 191.50 213.62 188.61 215.50 C 185.51 216.39 182.22 216.01 179.05 216.08 C 146.71 215.99 114.38 216.05 82.05 216.05 C 77.41 215.95 72.72 216.51 68.12 215.77 C 64.70 213.74 61.98 210.59 58.08 209.31 C 58.05 208.28 58.04 207.26 58.03 206.23 C 58.15 195.44 57.86 184.65 58.20 173.87 Z" />
</g>
<g id="#aa96a7ff">
<path fill="#aa96a7" opacity="1.00" d=" M 120.80 173.81 C 125.60 173.76 130.40 173.76 135.20 173.82 C 135.18 179.53 135.20 185.25 135.22 190.97 C 130.41 191.01 125.59 191.01 120.77 190.97 C 120.81 185.25 120.82 179.53 120.80 173.81 Z" />
</g>
<g id="#e1c7deff">
<path fill="#e1c7de" opacity="1.00" d=" M 188.61 215.50 C 191.50 213.62 193.73 210.92 196.02 208.39 C 197.50 211.03 196.98 214.12 197.06 217.02 C 196.93 220.99 197.28 224.98 196.90 228.94 C 194.36 231.68 191.49 234.19 188.54 236.50 C 185.39 236.99 182.19 236.65 179.01 236.71 C 142.67 236.73 106.33 236.68 69.99 236.73 C 68.68 236.67 67.21 236.78 66.23 235.74 C 63.45 233.50 60.90 230.98 58.17 228.69 C 57.87 222.24 57.99 215.77 58.08 209.31 C 61.98 210.59 64.70 213.74 68.12 215.77 C 72.72 216.51 77.41 215.95 82.05 216.05 C 114.38 216.05 146.71 215.99 179.05 216.08 C 182.22 216.01 185.51 216.39 188.61 215.50 Z" />
</g>
</svg>
