<?xml version="1.0" encoding="UTF-8" ?>
<!DOCTYPE svg PUBLIC "-//W3C//DTD SVG 1.1//EN" "http://www.w3.org/Graphics/SVG/1.1/DTD/svg11.dtd">
<svg width="256pt" height="256pt" viewBox="0 0 256 256" version="1.1" xmlns="http://www.w3.org/2000/svg">
<g id="#e9ecf1ff">
<path fill="#e9ecf1" opacity="1.00" d=" M 22.37 0.00 L 233.44 0.00 C 245.02 1.00 254.93 10.84 256.00 22.41 L 256.00 233.57 C 254.94 245.10 245.13 254.88 233.63 256.00 L 22.46 256.00 C 10.93 254.94 1.09 245.14 0.00 233.60 L 0.00 22.48 C 1.04 10.93 10.85 1.13 22.37 0.00 M 21.02 45.04 C 21.06 65.68 21.06 86.32 21.02 106.96 C 23.59 106.97 26.17 107.00 28.74 106.98 C 39.16 106.99 49.58 106.99 60.00 106.99 C 62.02 107.00 64.03 107.02 66.04 107.05 C 66.09 86.35 66.09 65.65 66.04 44.95 C 51.04 45.09 36.03 44.93 21.02 45.04 M 189.96 44.95 C 189.91 65.65 189.91 86.35 189.96 107.05 C 191.97 107.02 193.98 107.00 196.00 106.99 C 206.42 107.00 216.84 106.99 227.26 106.98 C 229.82 107.00 232.39 107.00 234.96 107.00 C 234.97 86.35 234.93 65.69 234.98 45.04 C 219.97 44.92 204.96 45.09 189.96 44.95 M 109.34 99.93 C 109.36 102.27 109.35 104.60 109.32 106.94 C 121.88 107.05 134.44 106.96 147.00 106.99 C 147.00 104.61 147.00 102.24 146.99 99.86 C 134.44 99.90 121.89 99.78 109.34 99.93 M 44.04 165.11 C 43.67 166.12 43.34 167.15 43.03 168.18 C 43.02 167.46 42.99 166.03 42.98 165.31 C 38.17 165.34 33.37 165.31 28.57 165.33 C 28.76 185.89 28.58 206.45 28.66 227.01 C 37.79 226.99 46.92 227.01 56.06 227.00 C 104.03 226.99 151.99 226.98 199.96 226.99 C 209.09 227.01 218.21 226.98 227.34 227.02 C 227.43 206.46 227.23 185.90 227.44 165.35 C 222.63 165.29 217.82 165.34 213.01 165.32 C 213.00 166.03 212.97 167.45 212.96 168.15 C 212.68 167.15 212.36 166.15 212.01 165.17 C 203.87 164.52 195.68 165.68 187.58 164.54 C 186.39 164.56 184.60 163.67 184.04 165.29 C 146.69 165.34 109.33 165.36 71.98 165.28 L 71.33 164.42 C 62.27 165.47 53.14 164.74 44.04 165.11 Z" />
</g>
<g id="#291e18ff">
<path fill="#291e18" opacity="1.00" d=" M 21.02 45.04 C 36.03 44.93 51.04 45.09 66.04 44.95 C 66.09 65.65 66.09 86.35 66.04 107.05 C 64.03 107.02 62.02 107.00 60.00 106.99 C 60.00 102.55 60.00 98.11 60.00 93.67 C 49.57 93.80 39.13 93.71 28.70 93.68 C 28.59 98.12 28.60 102.55 28.74 106.98 C 26.17 107.00 23.59 106.97 21.02 106.96 C 21.06 86.32 21.06 65.68 21.02 45.04 M 39.51 64.88 C 45.78 65.12 52.05 64.95 58.33 64.99 C 58.30 59.01 58.30 53.04 58.32 47.06 C 52.12 47.00 45.91 47.07 39.70 47.01 C 39.40 52.96 39.75 58.92 39.51 64.88 Z" />
<path fill="#291e18" opacity="1.00" d=" M 189.96 44.95 C 204.96 45.09 219.97 44.92 234.98 45.04 C 234.93 65.69 234.97 86.35 234.96 107.00 C 232.39 107.00 229.82 107.00 227.26 106.98 C 227.40 102.55 227.41 98.11 227.29 93.68 C 216.86 93.74 206.43 93.76 196.00 93.67 C 195.99 98.11 195.99 102.55 196.00 106.99 C 193.98 107.00 191.97 107.02 189.96 107.05 C 189.91 86.35 189.91 65.65 189.96 44.95 M 198.00 47.06 C 198.00 53.04 197.99 59.02 198.00 65.00 C 204.15 64.97 210.30 65.07 216.45 64.92 C 216.29 58.96 216.56 52.99 216.31 47.02 C 210.21 47.06 204.10 47.01 198.00 47.06 Z" />
</g>
<g id="#ffffffff">
<path fill="#ffffff" opacity="1.00" d=" M 39.51 64.88 C 39.75 58.92 39.40 52.96 39.70 47.01 C 45.91 47.07 52.12 47.00 58.32 47.06 C 58.30 53.04 58.30 59.01 58.33 64.99 C 52.05 64.95 45.78 65.12 39.51 64.88 Z" />
<path fill="#ffffff" opacity="1.00" d=" M 198.00 47.06 C 204.10 47.01 210.21 47.06 216.31 47.02 C 216.56 52.99 216.29 58.96 216.45 64.92 C 210.30 65.07 204.15 64.97 198.00 65.00 C 197.99 59.02 198.00 53.04 198.00 47.06 Z" />
<path fill="#ffffff" opacity="1.00" d=" M 44.04 165.11 C 53.14 164.74 62.27 165.47 71.33 164.42 L 71.98 165.28 C 71.63 165.27 70.92 165.27 70.56 165.27 C 70.21 172.90 70.48 180.53 70.32 188.17 C 70.32 192.33 70.36 196.50 70.45 200.66 C 65.65 200.65 60.85 200.66 56.05 200.65 C 51.71 200.64 47.36 200.64 43.01 200.65 C 43.01 189.83 42.96 179.00 43.03 168.18 C 43.34 167.15 43.67 166.12 44.04 165.11 Z" />
<path fill="#ffffff" opacity="1.00" d=" M 184.04 165.29 C 184.60 163.67 186.39 164.56 187.58 164.54 C 195.68 165.68 203.87 164.52 212.01 165.17 C 212.36 166.15 212.68 167.15 212.96 168.15 C 213.04 178.99 213.00 189.82 212.98 200.66 C 208.64 200.64 204.31 200.64 199.98 200.65 C 195.17 200.66 190.36 200.64 185.55 200.67 C 185.64 196.51 185.68 192.36 185.68 188.21 C 185.53 180.57 185.77 172.93 185.45 165.29 C 185.10 165.29 184.39 165.29 184.04 165.29 Z" />
</g>
<g id="#816f63ff">
<path fill="#816f63" opacity="1.00" d=" M 28.70 93.68 C 39.13 93.71 49.57 93.80 60.00 93.67 C 60.00 98.11 60.00 102.55 60.00 106.99 C 49.58 106.99 39.16 106.99 28.74 106.98 C 28.60 102.55 28.59 98.12 28.70 93.68 Z" />
<path fill="#816f63" opacity="1.00" d=" M 196.00 93.67 C 206.43 93.76 216.86 93.74 227.29 93.68 C 227.41 98.11 227.40 102.55 227.26 106.98 C 216.84 106.99 206.42 107.00 196.00 106.99 C 195.99 102.55 195.99 98.11 196.00 93.67 Z" />
</g>
<g id="#2e2e31ff">
<path fill="#2e2e31" opacity="1.00" d=" M 109.34 99.93 C 121.89 99.78 134.44 99.90 146.99 99.86 C 147.00 102.24 147.00 104.61 147.00 106.99 C 134.44 106.96 121.88 107.05 109.32 106.94 C 109.35 104.60 109.36 102.27 109.34 99.93 Z" />
</g>
<g id="#6b565dff">
<path fill="#6b565d" opacity="1.00" d=" M 28.57 165.33 C 33.37 165.31 38.17 165.34 42.98 165.31 C 42.99 166.03 43.02 167.46 43.03 168.18 C 42.96 179.00 43.01 189.83 43.01 200.65 C 47.36 200.64 51.71 200.64 56.05 200.65 C 55.92 209.43 55.98 218.21 56.06 227.00 C 46.92 227.01 37.79 226.99 28.66 227.01 C 28.58 206.45 28.76 185.89 28.57 165.33 Z" />
<path fill="#6b565d" opacity="1.00" d=" M 70.56 165.27 C 70.92 165.27 71.63 165.27 71.98 165.28 C 109.33 165.36 146.69 165.34 184.04 165.29 C 184.39 165.29 185.10 165.29 185.45 165.29 C 185.77 172.93 185.53 180.57 185.68 188.21 C 182.55 191.32 177.95 190.22 174.00 190.37 C 143.31 190.30 112.62 190.37 81.93 190.36 C 78.00 190.18 73.36 191.40 70.32 188.17 C 70.48 180.53 70.21 172.90 70.56 165.27 Z" />
<path fill="#6b565d" opacity="1.00" d=" M 213.01 165.32 C 217.82 165.34 222.63 165.29 227.44 165.35 C 227.23 185.90 227.43 206.46 227.34 227.02 C 218.21 226.98 209.09 227.01 199.96 226.99 C 200.03 218.21 200.02 209.43 199.98 200.65 C 204.31 200.64 208.64 200.64 212.98 200.66 C 213.00 189.82 213.04 178.99 212.96 168.15 C 212.97 167.45 213.00 166.03 213.01 165.32 Z" />
</g>
<g id="#9c6d68ff">
<path fill="#9c6d68" opacity="1.00" d=" M 70.32 188.17 C 73.36 191.40 78.00 190.18 81.93 190.36 C 112.62 190.37 143.31 190.30 174.00 190.37 C 177.95 190.22 182.55 191.32 185.68 188.21 C 185.68 192.36 185.64 196.51 185.55 200.67 C 190.36 200.64 195.17 200.66 199.98 200.65 C 200.02 209.43 200.03 218.21 199.96 226.99 C 151.99 226.98 104.03 226.99 56.06 227.00 C 55.98 218.21 55.92 209.43 56.05 200.65 C 60.85 200.66 65.65 200.65 70.45 200.66 C 70.36 196.50 70.32 192.33 70.32 188.17 Z" />
</g>
</svg>
