<svg xmlns="http://www.w3.org/2000/svg" viewBox="0 0 192 192"><path fill="#2a2a2a" d="M9.8 3.9c5.6-1.5 11.5-.8 17.2-1h138c5.7.2 11.6-.5 17.2 1 5 1.4 8 6 9.8 10.5v162.3c-1.7 4.2-4.5 8.6-9 10.2-4.9 1.6-10 1.1-15 1.2-51-.2-102 0-153-.1-7 .3-12.9-5-15-11.3V14.4C1.8 9.7 4.9 5.2 9.8 3.8M12.2 19c-.7 6.3-.1 12.7-.3 19 .2 15.3-.3 30.7.3 46 15.3.6 30.7.3 46 .2 1-8.5 0-17 .6-25.4 10.4-.3 20.8 0 31.2-.1 15 .2 30-.4 44.9.3.9 8.8-.6 17.7.7 26.4 3.8.5 7.6.3 11.4.3h34c.9-19.6 0-39.1.4-58.7-.1-3.7.6-8.2-2.3-11.1-1.8-2-4.6-2.2-7-2.3H30c-4.6 0-9.3-.4-14 .3-2.5.2-3.7 2.9-3.8 5.1m67.2 53.7c-3.3.7-6 3.8-5.8 7.2v29.2c-.4 4.6 4 8.2 8.4 8.2 7.6.4 15.3 0 23 .2 4.1-.1 8.8.4 12.3-2.3 3-2 2.8-6 3-9.2V84c-.2-3.3 0-7.3-2.9-9.5-3.3-3-8.3-2-12.4-2.2-8.5.3-17.1-.5-25.6.4M12.2 104c-.2 3.7-.4 7.3-.4 11v52c.3 2.8 0 6.7 3 8.2 4.2 1.5 8.8 1 13.2 1h144c2.8-.2 6 0 8.1-2 1.7-2.4 1.2-5.5 1.4-8.2-.3-20.7.2-41.4-.3-62.1-15.3-.2-30.7-.4-46 .1-.3 8.9.4 17.8-.5 26.6-25.3.3-50.6.1-75.8.1-.8-9 .2-18-.7-26.8-15.3-.1-30.6-.4-46 .1z"/><path fill="#ff0408" d="M12.2 19c.1-2.2 1.3-5 3.9-5.1 4.6-.7 9.3-.2 13.9-.3h142c2.5 0 5.3.3 7.1 2.3 3 2.9 2.2 7.4 2.3 11.1-.3 19.6.5 39.1-.3 58.7H147c-3.8 0-7.6.2-11.4-.3-1.3-8.7.2-17.7-.7-26.4-15-.7-30-.1-44.9-.3-10.4 0-20.8-.3-31.2.1-.6 8.5.3 17-.6 25.4-15.3 0-30.7.4-46-.2-.6-15.3-.1-30.7-.3-46 .2-6.3-.4-12.7.3-19z"/><g fill="#fefbfc"><path d="M79.4 72.7c8.5-1 17-.1 25.6-.4 4.1.2 9-.9 12.4 2.2 2.9 2.3 2.7 6.2 2.8 9.5v22c-.2 3.2 0 7.2-3 9.3-3.4 2.6-8 2-12.2 2.2-7.7-.2-15.4.2-23-.2-4.4 0-8.8-3.6-8.5-8.2V79.9a7.5 7.5 0 0 1 5.9-7.3z"/><path d="M12.2 104c15.4-.5 30.7-.2 46-.2.9 9 0 18 .6 27 25.3 0 50.6 0 75.9-.2.9-8.8.2-17.7.5-26.6 15.3-.5 30.7-.3 46-.1.5 20.7 0 41.4.3 62.1-.2 2.7.3 5.8-1.4 8.2-2 2-5.3 1.8-8 2H28c-4.4 0-9 .5-13.3-1-3-1.5-2.6-5.4-2.8-8.2v-52c-.1-3.7 0-7.3.3-11z"/></g></svg>