<svg xmlns="http://www.w3.org/2000/svg" viewBox="0 0 512 512"><path d="M414 276.8c1-6.2 1-13.5 1-20.8s-1-13.5-1-20.8l44.6-34.3c4.3-3.1 5.4-8.3 2.2-13.5l-42.6-71.8c-2.1-4.2-8.5-6.2-12.8-4.2l-53.1 20.8a154.8 154.8 0 0 0-36.2-20.8l-7.4-55A11.6 11.6 0 0 0 298 48h-85c-5.4 0-9.7 4.2-10.7 8.3l-8.5 55.1a180.1 180.1 0 0 0-36.2 20.8l-53.2-20.8c-5.3-2-10.6 0-12.8 4.2l-42.5 71.8c-2.1 4.1-1 10.4 2.1 13.5L97 235.2c0 7.3-1 13.5-1 20.8s1 13.5 1 20.8l-44.7 34.3c-4.3 3.1-5.3 8.3-2.1 13.5l42.5 71.8c2.2 4.2 8.5 6.2 12.8 4.2l53.2-20.8a154.8 154.8 0 0 0 36.1 20.8l8.5 55c1.1 5.3 5.4 8.4 10.7 8.4h85c5.4 0 9.7-4.2 10.7-8.3l8.5-55.1a180 180 0 0 0 36.2-20.8l53.2 20.8c5.3 2 10.6 0 12.7-4.2l42.6-71.8c2.1-4.1 1-10.4-2.1-13.5L414 276.8zm-158.5 52c-41.5 0-74.5-32.2-74.5-72.8s33-72.8 74.5-72.8 74.4 32.2 74.4 72.8-33 72.8-74.4 72.8z"/></svg>