<svg xmlns="http://www.w3.org/2000/svg" viewBox="0 0 1280 798"><g fill="#3566b0"><path d="M665.6 0h.4c13.9 21 28.2 41.6 41.8 62.7l-58.6 31.5c21.8.6 43.4 9 59.3 24 5.3 4.4 9 10.3 13.7 15.3 2.9-16 5-32 7.6-48 14.4-.6 28.8-.1 43.2-.3 3.8-.2 7.7.5 11.4-.5 5.3.9 10.6.6 16 .6.9-3.6 1.4-7.3 1.8-11 22.5-.3 45 0 67.6-.1 5.3 31.6 9.9 63.4 15.2 95a86.6 86.6 0 0 1 51.6-16c0-6.1 0-12.3-.2-18.5 6.1 2.6 11.4 6.7 17 10.3 1.7-11 .9-22 1-33-.1-6.6 0-13-.2-19.6 33.7 7.2 67.3 14.8 101 22 .8 3.7 1.7 7.3 2.3 11l5.3 23.5c1.6-10.3 5.6-20.2 7-30.6l3 .3c28 6.9 55.9 13.5 83.7 20.4-27.2 82.6-54.7 165-82 247.6l-1 .5c-9-3.9-18.4-6-27.6-9-11.8-3.9-23.7-7.3-35.4-11.3 0-8.3 0-16.6-.3-24.8-20.2-2.1-40.3-5.6-60.5-8.1 1-10.8 2.3-21.5 3.6-32.3a87 87 0 0 1-35.3 9.2c-3.6 0-7.3-.3-11 0l1.5 7.6c.9 7.4 2.6 14.8 3.3 22.3l-1 .5c-3.8-2-8.3-1.8-12.4-2.8l-78-13.6c-1.8-12.8-2.8-25.7-4.9-38.4-4.6 7.3-7.9 15.4-12.3 22.8-7.1-12.3-13.7-25-20.6-37.5-1.7 9.2-2.8 18.5-4.5 27.7-26.3-4.4-52.8-8.3-79.1-12.6-2.2 0-1.1-2.5-1.1-3.8 1.9-11.4 4-22.7 5.5-34.1a152 152 0 0 1-60 19.5V339l-.5.2c-15.9-8.4-32.2-15.9-48.3-24l-91.6-45a65 65 0 0 0-7.6-3.4c-.8 6 .1 12-.5 18.1v44.8l-.6.2c-4.8.3-9.6.8-14.3 1.7l-37 5.5c-6.7.7-13.3 2.4-20 2.7-1.1-10.6-1.7-21.2-3-31.7a111.4 111.4 0 0 1-19.2 14.7c-2 .6-3.9 1.3-5.7 2.2a84.6 84.6 0 0 1-51 7.8 70 70 0 0 1-45.3-27.5 76 76 0 0 1-14-51.2c-4.7 5-10.3 8.8-15.4 13.3l10.6 41.4c5 19.8 10.6 39.5 15.2 59.4l-1.4.6c-6.1 1-11.8 3.4-17.7 5.2-18.9 6-37.7 12.3-56.7 18-27.4-61-54.7-122-82.4-183-6.4 3.5-12.7 7.1-19.6 9.2-5 4.3-9.5 9.1-13.6 14.2l-.4.2c-5.3-9.3-11-18.5-16.4-27.8 1.7-1.3 3.4-2.8 5.7-3 4.5-1 8.9-2.3 13.4-3a29 29 0 0 0-2.4-5.5c-11.5-19.7-23-39.6-34.7-59.2 9.2-6 18.4-12 27.9-17.4A263 263 0 0 1 206 82c15.3-1.3 30.8.2 46 2.9 12.2 2 24 7 34.3 13.7 15.6 9 28.2 23 35.5 39.6 6.6 14.8 7.8 32 4 47.7a89 89 0 0 1 62.7-16l-.4-4.2c.4 1.7.4 4.4 2.7 4.4a144 144 0 0 1 17 5c-.7-8.7-1.7-17.4-2.5-26.1-6.5 2-12.2 5.8-18 9.1-5.6 2-11.4 2.9-17 4.6-.8-6.8-.8-13.7-1.3-20.6l1.3-2.6c5.4-.3 10.8-1.6 16.2-1 .2-13.4-.1-26.7-1-40 34-10.8 67.8-21.8 101.8-32.4 0 4.9-.3 9.8 0 14.6l.3 8.2c2.1.9 4.1 2 6 3.2 4.5-9.1 10.2-17.6 14-27l.7-.8c21 18.3 41.7 37 62.6 55.4 4.6-2.5 9.4-4.8 13.9-7.6 5.7-3.5 11.5-6.8 17.7-9.4-3.8-5.6-8.4-10.6-12.6-16-6 2.6-11.3 6-17.2 8.5C588 77.5 603.6 60 619 42.3c2 .3 3.8.8 5.7 1.2 0 2-.4 3.8-1 5.6 2.3-4.9 6.5-8.4 10-12.5 6.8-7.9 13.8-15.6 20.6-23.4 3.5-4.2 7.5-8 10.3-12.6l1-.6m-11 38.4L618 82.3c1.1 2 2.3 3.8 3.5 5.7 1-.2 1.9-.5 2.8-.9L672.8 63c3.6-1.8 7.4-3.4 10.8-5.6-7.1-9.4-14-19-21-28.4-3 2.9-5.5 6.2-8.1 9.4m164.9 63.4c-4.2 22.2-8 44.4-11.9 66.6l-1 .8c-4.1-21.7-7.8-43.4-11.9-65h-46.8a15143.4 15143.4 0 0 0-15.5 93c4.9 4.6 10.5 8.6 14.8 13.7-7 6.9-13.6 13.9-20.5 20.8-1.4 4.6-1.3 9.6-2.6 14.4-1 8.1-3 16.1-3.9 24.3 13.1 2.1 26 4.8 39.2 6.6v.2c2.2.5 4.5.9 6.7 1.2 3.7-23.2 7.5-46.4 11-69.6l1.6-.6a6187 6187 0 0 0 24.8 53.6v.2c1.1 1.5 1.1 4.6 3.3 5 5.5-15 11.7-29.6 17-44.5l1.6-3c1.5 5.6 1.6 11.4 2.8 17 3.5 24 7.4 48 10.7 72 14 2.1 28.2 4.4 42.3 6.4 2.2.6 4.5.8 6.8 1a74 74 0 0 0-1.6-10.9 68 68 0 0 1-41-63 88 88 0 0 1 22.5-57.3c-4.5-30.3-9.5-60.7-14-91l-33.1-.1a56 56 0 0 0-1.3 8.2M515 95c-2.2 3.4-4.7 6.7-7 10l-37.7 53-1-.5c-.5-12.5-1.5-25-2.2-37.6-.8-8.2-.6-16.6-1.5-24.8-20 6.3-40.2 12-60.2 18 0 2 0 3.9.2 5.8 0 3.2 0 6.4.4 9.6l17.3-4.4 5.3 65.1a73.5 73.5 0 0 1 19.9 64.8 95.3 95.3 0 0 1-11.8 32.6c1.6 10.2 1.4 20.5 2.9 30.7l31.2-4.2c2-.2 3.8-.6 5.7-.9-.1-25.2.1-50.5-.3-75.8l.5-1.6c46.3 23 92.5 46.2 138.7 69.4l8.6 4.2v-40.2a109 109 0 0 1-24-5.5 81.5 81.5 0 0 1-44.8-38l-58.4-23.1c2-3.1 5-5.6 7.4-8.3 15.3-16.3 30.8-32.3 46-48.6 2.7-2.9 5.7-5.5 8-8.7A8796 8796 0 0 1 515 95M97 140.5l1 2.5c9.5 15.8 19 31.8 28.3 47.8 7-3 13.8-6.8 20.8-10 28 62 55.5 124 83.4 186 10-3 20-6.3 30-9.5 3.3-1 6.5-2 9.7-3.2-8.3-32-16.5-63.9-25-95.8a170 170 0 0 0 35.3-29.8c1.8-2.2 4.1-4.1 5.1-6.9 1.6-.2 2.1-2 3-3 11-15.3 19.3-33.6 18.6-52.7-.4-15.1-8-29.3-18.7-39.6-5.8-5.8-13-10-20-14-9-4.9-19-7.3-29-8.3a139 139 0 0 0-37.6-.9c-37.4 3.7-73 18-105 37.4M627 116a82.2 82.2 0 0 0-44 23.9 64 64 0 0 0-17.4 37 67.3 67.3 0 0 0 9.1 42 63.5 63.5 0 0 0 38.2 26.8c16.6 4.4 34.3 3 50.6-2 16.4-4.3 32-12 45-23 3-2.7 6.5-5.1 8.6-8.6-10.3-9.3-20.6-18.4-30.8-27.8-2.6 3.1-5.5 6-8.4 8.8l-3.7 3a55 55 0 0 1-34.4 9.2c3-3.8 6.5-7.1 9.8-10.8l43.2-46c2.6-2.9 5.5-5.6 8-8.7v-.6a67.2 67.2 0 0 0-29.5-20.7A80.8 80.8 0 0 0 627 116m345.6.9a466 466 0 0 0-.6 16.8c4.8 1.2 9.5 2.4 14.3 3.8-1.4 10.4-2 20.9-3 31.3-.1 1-.6 2.5.5 3.2a67.8 67.8 0 0 1 20.4 43 88.3 88.3 0 0 1-32.2 74.1c-1.5 9.3-1.8 18.8-2.8 28.1a1598.3 1598.3 0 0 0 36.9 6c2.2-11.2 3.9-22.6 6.1-33.8 3.5-21.3 7.8-42.5 11-63.9l1.3-1.7c1.4 43 2.1 86 3.1 128.9l29.1 8.6 5.1 1.5c8.6-27 17.8-53.8 26.6-80.8l43-130.5c-16.1-3.8-32.4-7.3-48.6-10.9-.9 3.3-1.8 6.6-2.4 10-6.8 27.6-13.3 55.2-20 82.9-.3.1-.7.5-.9.7-7.6-34.8-14.8-69.7-22.2-104.5-21.6-4.4-43-9-64.7-12.8m-27.2 36.4c2.7 1.3 5.8 1.5 8.7 2.3 5.1 1.3 9.9 3.7 14.8 5.7l1-9.2c-5.5-.8-10.9-2-16-3.7l-8.5 4.9M702.2 170c3.9 3.9 8 7.7 12.3 11 1.7-9.5 3.5-19 4.5-28.4-6.1 5.3-11 11.7-16.8 17.4m201.8 8.7c-5.7 3.2-11.7 6.5-15.8 11.6-1 .3-1.6 1-2.3 1.6a74.7 74.7 0 0 0-20.5 34.1 56.2 56.2 0 0 0 3.6 40 49 49 0 0 0 31.3 25.3c16.2 4.3 33.7 1 48-7a66.6 66.6 0 0 0 19.3-15.6l1.8-1.5a74.2 74.2 0 0 0 17-34.4c1.8-11.2 1-23-3.9-33.4a48.7 48.7 0 0 0-35-27.3 64.5 64.5 0 0 0-43.5 6.6m-375.7 15.6c6.3 2.4 12.5 5.2 19 7.2-1.5-8-2-16.3-1.4-24.4a867.4 867.4 0 0 1-17.6 17.2m-197.8 9.2l-1.4 1.8c-1 .3-1.8 1.3-2.6 2A78.3 78.3 0 0 0 306 240a60 60 0 0 0 3.2 46.9 51.6 51.6 0 0 0 32.8 26c16 4.1 33.5 1 48-6.8 8-4.5 15.9-10 21.6-17.2l1.8-1.6a73.3 73.3 0 0 0 18.5-52.8 51.5 51.5 0 0 0-16.3-35.1A55.8 55.8 0 0 0 369 186a75.3 75.3 0 0 0-38.5 17.6z"/><path d="M628 141.3a36.3 36.3 0 0 1 34 11.7c-7.4 9.5-16 18.2-23.7 27.4-8 8.6-15.3 17.7-23.5 26.1a36.3 36.3 0 0 1-11.9-47 36.4 36.4 0 0 1 25-18.2m-8 19.6a22.8 22.8 0 0 0-7 15c-.2 3.4 1.2 6.5 2.3 9.7 7.4-8 14.6-16.3 21.6-24.8 1.8-1 2.9-3 4.2-4.4a20 20 0 0 0-21.2 4.5zm-404.6 4a51 51 0 0 1 24.7-6.6 33 33 0 0 1 29.7 16c4.5 9 4.7 19.8 1.6 29.2-3.9 11.4-13 20-22.4 27-3.7 2.4-7.3 5-11.2 7.3a2537 2537 0 0 1-22-71.1l-.4-1.8m20.8 10.2l.4 4.4.6.2c2.5 10.3 6.5 20.1 9 30.4 1.4-.3 2.4-1.4 3.2-2.6a24 24 0 0 0 7.2-19.6c-.3-3-1-6-3.2-8.1a20.3 20.3 0 0 0-17.2-4.7zm663.3 23a34.7 34.7 0 0 1 30.6-15.8c2.7.2 5.5.3 8 1.7a12 12 0 0 1-3.9 1.3c-5.4.8-10.7 3.8-13.4 8.7-4.4 6.7-1.5 16 4.9 20.4a20.9 20.9 0 0 0 22.6 1 16 16 0 0 0 7.8-17.3V197l1.7.4c4.3 6.7 6 15.1 4 22.8a32 32 0 0 1-13.9 19.3 37 37 0 0 1-27 4.2c-12.5-2.6-23-13-25-25.7-1.3-6.8.4-13.9 3.6-19.9zm-554.3 15.3a35.7 35.7 0 0 1 35.4-14.5l.9 1.6-2.4.5c-5.5.8-10.8 3.9-13.6 8.8-3 4.7-2.8 11 .2 15.6 5.4 8.8 18.2 11.3 27 6a16 16 0 0 0 8-17l-.3-2.2h1.6a28.6 28.6 0 0 1 4.5 25.4c-2 7.4-7.1 13.7-13.4 18a37 37 0 0 1-36.4.8 30.4 30.4 0 0 1-11.5-43z"/></g><path fill="#1f396f" d="M649 8.9c5.2-2.8 10.3-5.7 15.5-8.3-2.8 4.7-6.8 8.4-10.3 12.6-6.8 7.9-13.8 15.6-20.7 23.4-3.4 4-7.6 7.6-10 12.5a18 18 0 0 0 1.1-5.6l-5.7-1.3c8-9.3 16.3-18.5 24.4-27.9 1.7-2 3.3-4.2 5.7-5.4zM491.3 74.3c5.4-3 10.8-6.2 16.3-9.1-3.8 9.4-9.5 17.9-14 27a43 43 0 0 0-6-3.3l-.4-8c1-2.4 1.7-5.3 4-6.6zm293.1 10.4c5.8-3.7 12-6.8 17.8-10.4-.4 3.7-1 7.4-1.9 11-5.3 0-10.6.3-16-.6zM713 95l16.8-9.6c-2.5 16-4.7 32.2-7.6 48.1-4.6-5-8.4-10.9-13.7-15.4.7-6.7 2.4-13.3 3.1-20 .3-1 .1-2.5 1.4-3zm-140.3.3c6-2.4 11.3-6 17.1-8.4 4.3 5.3 8.9 10.3 12.7 15.9-6.2 2.7-12 6-17.7 9.4-4.4-5.3-9-10.4-13.2-15.9l1.1-1zm363.3 7.6c6-3.5 12.2-6.9 18.2-10.5.2 6.5 0 13 .1 19.5 0 11 .8 22.1-1 33-5.5-3.5-10.8-7.6-17-10.3L936 103zm-568.5 6l18-10.3c.9 13.3 1.2 26.6 1 40-5.4-.6-10.8.7-16.2 1a56 56 0 0 0-1.3 2.7c-.8-11.2-1-22.3-1.5-33.4zm690 16.5l12.3-7c-1.4 10.3-5.4 20.2-7 30.5l-5.3-23.5zM54.3 149.8l14.6-15.6c11.8 19.6 23.2 39.5 34.7 59.2a29 29 0 0 1 2.4 5.5c-4.5.7-9 2-13.4 3-2.3.2-4 1.7-5.7 3-11-18.3-21.9-36.7-32.7-55.1zm333 8.4c5.8-3.3 11.5-7.2 18-9.1.8 8.7 1.8 17.4 2.4 26.1-5.5-1.9-11-3.8-16.9-5-2.3 0-2.3-2.7-2.7-4.4l-.8-7.6zm558.2-4.8c2.8-1.7 5.6-3.2 8.4-5 5.3 1.8 10.6 3 16 3.8-.2 3-.6 6.1-1 9.2-4.8-2-9.6-4.4-14.7-5.7-3-.8-6-1-8.7-2.3zm-243.3 16.7c5.7-5.7 10.7-12.1 16.8-17.4-1 9.5-2.8 19-4.5 28.4-4.4-3.3-8.4-7.1-12.3-11zm-584.9 48.2c7-2 13.2-5.7 19.6-9.2 27.8 60.8 55 121.9 82.4 182.8 19-5.6 37.8-12 56.7-18 5.9-1.7 11.6-4.1 17.7-5.1-4.4 3.2-9.3 6-13.8 9-4.8 3.3-10.7 4.3-16 6.2-21 6.6-41.8 13.8-63 20l-79-179c-6.1 2.5-12 5.2-18.2 7.5 4-5 8.6-10 13.6-14.2zm526.2 50.1a152 152 0 0 0 59.9-19.5c-1.5 11.4-3.6 22.7-5.5 34.1 0 1.3-1.1 3.9 1 3.8 26.5 4.3 52.9 8.2 79.2 12.6 1.7-9.2 2.8-18.5 4.5-27.7 7 12.5 13.5 25.2 20.6 37.5 4.4-7.4 7.7-15.5 12.3-22.8 2.1 12.7 3 25.6 4.9 38.4l78 13.6c4.1 1 8.6.8 12.5 2.8-6 3.1-11.8 6.3-17.8 9.3-30.3-5.3-60.6-10.8-91-16-.8-5.1-1.3-10.3-1.8-15.5l-13.2 6.4-12.7-24.8-15 8.1c-26.8-4.6-53.6-8.3-80.2-13 2.1-11.3 3.6-22.6 5.6-33.8a111.5 111.5 0 0 1-41.4 16v-9.5zm-374.2-1c5-4.5 10.7-8.3 15.4-13.2a76 76 0 0 0 14 51 70 70 0 0 0 45.2 27.6 84 84 0 0 0 51-7.8c1.9-1 3.9-1.6 5.8-2.2a90.3 90.3 0 0 1-45.8 22.7 71.5 71.5 0 0 1-45.5-7 71.8 71.8 0 0 1-29.5-29.7l-10.6-41.4zm226-.6c2.6 1 5.2 2 7.6 3.4l91.7 45.1c16 8.1 32.4 15.6 48.3 24l-18.2 9.6-85.4-42.2c-14.9-7.2-29.5-15-44.5-21.8.6-6-.3-12 .5-18zm422.7 44a87 87 0 0 0 35.3-9.2c-1.3 10.8-2.5 21.5-3.6 32.3 20.2 2.5 40.3 6 60.5 8l.3 25c11.7 3.9 23.7 7.3 35.4 11.1 9.2 3.1 18.7 5.2 27.5 9.1-6 3.3-12.2 6.2-18.3 9.4-20.8-6.8-41.7-13.4-62.6-20-.4-8.2-.2-16.5-.8-24.7-20-2.7-40-5.7-60.1-8.6.9-10.6 2.7-21.2 3.3-32a82.6 82.6 0 0 1-26.4 7.2l-1.5-7.7c3.7-.2 7.4.2 11 0zM401.7 322c6.5-4 12.6-8.6 18.1-14 1.4 10.6 2 21.3 3 31.8 6.8-.3 13.4-2 20.1-2.7l37-5.5a98 98 0 0 1 14.3-1.7c-6.3 3-12.4 6.4-18.8 9.3l-70.6 10.4c-1-6.9-1.4-13.8-2-20.7-.1-2.3-.1-4.7-1-6.9z"/><g fill="#c8a008"><path d="M654.5 38.4c2.6-3.2 5.1-6.5 8-9.4l21.1 28.4c-3.4 2.3-7.2 3.8-10.8 5.6-6.1-8.2-12-16.6-18.3-24.6zm164.9 63.4a56 56 0 0 1 1.3-8.2h33.2c4.4 30.4 9.4 60.8 13.9 91.2a87.2 87.2 0 0 0-22.4 57.2 68 68 0 0 0 40.9 63 74 74 0 0 1 1.6 11c-2.3-.3-4.6-.5-6.8-1.1-14.2-5-26.4-15-34.1-28a72.7 72.7 0 0 1-10.2-35.9c.1-16 5.1-31.9 13.7-45.4 2.7-4.4 6.1-8.2 9-12.4-5-30.3-9.4-60.6-14.1-90.9-8.7-.5-17.4.3-26-.5zM515.1 95a8796 8796 0 0 0 43.2 41.1c-2.3 3.3-5.3 5.8-8 8.7a7538 7538 0 0 0-42.2-39.7c2.3-3.3 4.8-6.6 7-10zm-109.6 18.3c20-6.2 40.2-11.8 60.2-18.1 1 8.2.8 16.6 1.5 24.8.7 12.6 1.7 25 2.2 37.6l1 .4c-3.4 3.5-6 7.7-9.1 11.4-1.5-16-1.7-32-3-48-.5-5.8-.7-11.6-1-17.4-3 .4-6 1.2-9 2.2-14.2 4.3-28.4 8.4-42.6 12.8l-.2-5.7zM97 140.6a254 254 0 0 1 105-37.4 139 139 0 0 1 37.7 1c10 1 20 3.3 28.9 8.1 7 4 14.2 8.3 20 14a57.7 57.7 0 0 1 18.6 39.7c.8 19.1-7.5 37.4-18.4 52.6-1 1-1.5 2.9-3 3.1 1.5-5 4.8-9.4 6.6-14.3a69.6 69.6 0 0 0 5.8-39.4 62 62 0 0 0-23.5-37.7 80 80 0 0 0-37.8-17 164.7 164.7 0 0 0-43-1.8 250.3 250.3 0 0 0-95.8 31.6l-1-2.5zm650.8-36.4h46.8c4.1 21.6 7.8 43.3 12 65-3 2.4-5.7 5.2-8.5 7.8-4.4-21.4-7.7-43.2-12.2-64.6h-39.4a87 87 0 0 1 1.3-8.2zM627.1 116a80.8 80.8 0 0 1 44.3 2.6 67.2 67.2 0 0 1 29.5 20.7v.6c-2.5 3-5.4 5.8-8 8.8a69.2 69.2 0 0 0-41.8-24.9 91 91 0 0 0-68 16.2 82.2 82.2 0 0 1 44-24zm345.6 1c21.6 3.8 43.1 8.5 64.7 12.8 7.4 34.8 14.5 69.7 22.2 104.5-3 2.6-5.7 5.5-8.6 8-7.6-34.6-14.5-69.5-22.2-104.2l-56.5-11.3.4-9.8zm110.2 23.7c16.2 3.6 32.5 7 48.7 10.9L1088.5 282c-8.8 27-18 53.8-26.6 80.8l-5-1.4c22-67.2 44.5-134.2 66.2-201.4-14.1-3.3-28.3-6.4-42.6-9.4.6-3.4 1.5-6.7 2.4-10zM594.7 175a30.5 30.5 0 0 1 8.2-15.5 36.3 36.3 0 0 0 12 47c-3 1.5-5.9 3.4-8.9 5a38 38 0 0 1-11.3-36.5z"/><path d="M210.6 176.2c-1.5-4 3-6.8 5.2-9.5 7 23.8 14.2 47.5 22 71.1 3.8-2.3 7.4-4.9 11.1-7.3l-.8 1.7c-5 4.7-10.6 8.8-16.3 12.6a2408 2408 0 0 1-21.2-68.6zm693.4 2.6a64.5 64.5 0 0 1 43.5-6.6 48.7 48.7 0 0 1 35 27.3 56.8 56.8 0 0 1 3.9 33.4 74.2 74.2 0 0 1-17 34.4l-1.8 1.5c.6-1.7 1.3-3.4 2.2-5a63.5 63.5 0 0 0 7.9-44.7 48.7 48.7 0 0 0-24.5-33.3 61 61 0 0 0-50.5-2c-5 1.7-9.4 4.9-14.5 6.6 4.1-5 10.1-8.4 15.8-11.6zm-226 14.4c2.9-2.8 5.8-5.7 8.4-8.8l30.8 27.8c-2 3.5-5.6 5.9-8.5 8.6L678 193.2zm-347.5 10.4A75.3 75.3 0 0 1 369 186a55.8 55.8 0 0 1 46.6 13.4c9.8 9 15.6 21.9 16.3 35a73.3 73.3 0 0 1-18.5 53c-.5.3-1.4 1-1.8 1.5 1.5-4.7 4.4-8.7 6.3-13.2a66.4 66.4 0 0 0 4.7-39.3 51.4 51.4 0 0 0-28-37 63.8 63.8 0 0 0-52.3-.2c-4.6 1.7-8.5 4.7-13.2 6.2l1.4-1.8z"/><path d="M920.7 194c2.7-5 8-8 13.4-8.7-2.4 5.2-7.4 9.2-13.4 8.7zm-280.8 11.4a55 55 0 0 0 34.4-9.2 55.4 55.4 0 0 1-42 18.2c2.3-3.2 5.2-5.9 7.6-9zm251.3 3.6c2.4-3.8 4.4-8.3 8.2-10.9-3.2 6-5 13-3.6 19.9a32.2 32.2 0 0 0 25 25.7 37 37 0 0 0 27-4.2c-3 5-8.8 7.8-13.9 10.4-14.2 6.8-33 2-41.5-11.3a28 28 0 0 1-1.2-29.6zm57-2.7c2.8-2.6 5.6-5.1 7.8-8.2a16 16 0 0 1-7.8 17.4v-9.2zm-582.8 3.5c2.8-5 8.1-8 13.6-8.8-2 2.2-4.2 4.5-6.4 6.6-1.9 1.9-4.8 1.8-7.2 2.2zm131.6-8.1l58.3 23a81.5 81.5 0 0 0 44.8 38c7.7 3.1 15.9 4.4 24 5.6v40.2l-8.6-4.2c-.1-9.2.1-18.4-.1-27.6A87.2 87.2 0 0 1 550 239c-1.6-2.3-2.5-5.5-5.4-6.6-18.3-7.5-36.9-14.5-55.1-22.3 2.3-2.9 5.2-5.4 7.4-8.4zm272.1 15.5c2.4-3 5.4-5.5 8-8.4l-11 69.6c-2.4-.3-4.6-.7-6.9-1.2v-.2c3-17.1 5.4-34.3 8.3-51.4.5-2.8.4-5.8 1.6-8.4zm-426.7-1.8a6 6 0 0 1 2.7-2 30.4 30.4 0 0 0 11.5 43 37 37 0 0 0 36.4-.9 4.6 4.6 0 0 1-1.6 2.8 42 42 0 0 1-25.4 10.8c-9.9 0-19.8-4.3-26.2-11.9a29.1 29.1 0 0 1-6.6-25.1c1.6-6.3 4.9-12 9.2-16.7zm50.1 6.3c2.4-2.7 4.8-5.7 8-7.3a15.7 15.7 0 0 1-8 17c.6-3.2.7-6.5 0-9.7zm423 9.6c1.6-3.8 5.2-6.1 8.1-8.8-5.2 15-11.4 29.6-16.9 44.4-2.2-.3-2.2-3.4-3.4-5l.1-.1c4.5-10 8-20.3 12-30.5zm199.2 5.7c.4-5.3 5.7-7.7 8.6-11.4-3.2 21.4-7.5 42.6-11 63.9-2.2 11.2-3.9 22.6-6.1 33.8a74 74 0 0 1-6.5-1.2c4.8-28.4 10-56.8 15-85.2zm-546.5 9c1.1-4.1 5.6-6.2 8-9.5.5 25.3.3 50.6.4 75.8l-5.7.9-2.5-.3c0-22.3-.3-44.6-.2-67zm-232 19.2c3-2.2 6.2-4.3 9-6.8 8.6 32 16.8 63.9 25 95.8-3 1.2-6.3 2.2-9.5 3.2-8-30.8-16.4-61.4-24.5-92.2z"/></g><g fill="#ffcb05"><path d="M618 82.3l36.5-44c6.3 8.1 12.1 16.5 18.3 24.7-16.2 8-32.5 16-48.6 24.1-1 .4-1.8.7-2.8.9l-3.5-5.7zm189.5 86.1c3.9-22.2 7.7-44.5 11.9-66.6 8.6.8 17.3 0 26 .5 4.8 30.3 9.1 60.6 14.1 90.9-2.9 4.2-6.3 8-9 12.4a86.4 86.4 0 0 0-13.7 45.4 72.7 72.7 0 0 0 10.2 36c7.7 12.8 20 23 34 27.9-14-2-28.1-4.3-42.2-6.4-3.3-24-7.2-48-10.7-72-1.2-5.6-1.3-11.4-2.8-17-.5 1-1 2-1.7 3-3 2.7-6.5 5-8.1 8.8-4.1 10.2-7.6 20.5-12 30.5a6187 6187 0 0 1-25-53.6l-1.5.6c-2.5 2.9-5.5 5.4-7.9 8.4-1.2 2.6-1.1 5.6-1.6 8.4-2.9 17.1-5.4 34.3-8.2 51.4-13.1-1.8-26.1-4.5-39.1-6.6.9-8.2 2.7-16.2 3.8-24.3 1.3-4.8 1.2-9.8 2.6-14.4l20.4-20.8c-4.2-5.1-9.8-9.1-14.7-13.8l14.2-84.8H786c4.5 21.5 7.8 43.3 12.2 64.7 2.8-2.6 5.4-5.4 8.4-7.8l1-.8zm-359.2-62.2c3-1 6-1.8 9-2.2.3 5.8.5 11.6 1 17.4 1.3 16 1.5 32 3 48 3-3.7 5.7-7.9 9-11.4 12.7-17.6 25.2-35.2 37.8-52.9a7538 7538 0 0 1 42.3 39.7c-15.3 16.3-30.8 32.3-46 48.6-2.5 2.7-5.4 5.2-7.5 8.3-2.2 3-5 5.5-7.4 8.4 18.2 7.8 36.8 14.8 55.1 22.3 2.9 1.1 3.8 4.3 5.4 6.6a87.2 87.2 0 0 0 65.4 37.7c.2 9.2 0 18.4 0 27.6-46.1-23.2-92.3-46.4-138.6-69.4l-.5 1.6c-2.5 3.3-7 5.4-8.1 9.5-.1 22.3.1 44.6.2 66.9l2.5.3-31.2 4.2c-1.4-10.2-1.3-20.5-2.9-30.7a95.3 95.3 0 0 0 11.8-32.6c4.2-23-3-48.2-19.9-64.8l-5.3-65.2c-5.8 1.4-11.5 3-17.3 4.5-.3-3.2-.3-6.4-.4-9.6 14.2-4.4 28.4-8.5 42.6-12.8zM98 143a251.6 251.6 0 0 1 96-31.5c14.3-1 28.7-.9 42.8 1.9a80 80 0 0 1 38 16.9 62 62 0 0 1 23.4 37.7c2.5 13.3-.6 27-5.8 39.4-1.8 5-5 9.3-6.6 14.3-1 2.8-3.4 4.7-5.2 7a170 170 0 0 1-35.3 29.8c-3 2.4-6 4.5-9.1 6.7 8 30.8 16.4 61.4 24.5 92.2l-30 9.5c-28-62-55.5-124-83.5-186-7 3.2-13.8 7-20.8 10-9.3-16-18.8-32-28.3-47.8m117.2 21.8l.5 1.8c-2.2 2.8-6.7 5.5-5.2 9.5a2408 2408 0 0 0 21.2 68.6c5.7-3.8 11.3-7.9 16.3-12.6l.8-1.7c9.4-7 18.5-15.6 22.3-27 3.2-9.4 3-20.2-1.5-29.2a32.8 32.8 0 0 0-29.7-16 50.4 50.4 0 0 0-24.7 6.6z"/><path d="M583 140a91 91 0 0 1 68.1-16.2 69.2 69.2 0 0 1 41.8 24.9l-43.3 45.9c-3.2 3.7-6.7 7-9.7 10.8-2.4 3.1-5.3 5.8-7.6 9 15.7-.2 31.8-6 42-18.2l3.7-3 30.7 27.6c-13 11-28.7 18.7-45.1 23-16.3 5-34 6.4-50.6 2a63.5 63.5 0 0 1-38.2-26.8 67.3 67.3 0 0 1-9.1-42 64 64 0 0 1 17.3-37m45 1.3a36.4 36.4 0 0 0-25 18.2 30.5 30.5 0 0 0-8.3 15.5 38 38 0 0 0 11.3 36.5c3-1.6 5.8-3.5 8.8-5 8.2-8.4 15.6-17.5 23.5-26.1 7.8-9.2 16.3-17.9 23.8-27.4a36.3 36.3 0 0 0-34.1-11.7zm344.3-14.5l56.5 11.3c7.7 34.7 14.6 69.6 22.2 104.3 3-2.6 5.6-5.5 8.6-8l.9-.8c6.7-27.7 13.2-55.3 20-83 14.3 3 28.5 6.2 42.6 9.5-21.7 67.2-44.3 134.2-66.3 201.3l-29-8.6c-1.1-43-1.8-86-3.2-128.9l-1.2 1.7c-3 3.7-8.3 6-8.7 11.3-5 28.4-10.2 56.8-15 85.2-10.1-1.5-20.3-3.1-30.4-4.8 1-9.4 1.3-18.8 2.8-28 21.3-18 35-46 32.2-74.2a67.8 67.8 0 0 0-20.4-43c-1.1-.7-.6-2.1-.6-3.2 1.1-10.4 1.7-20.9 3-31.3-4.7-1.4-9.4-2.6-14.2-3.8l.2-7z"/><path d="M902.7 183.8a61 61 0 0 1 50.5 2 48.7 48.7 0 0 1 24.5 33.3 63.5 63.5 0 0 1-8 44.7 44 44 0 0 0-2.1 5 65.5 65.5 0 0 1-19.2 15.5 64.6 64.6 0 0 1-48 7 49 49 0 0 1-31.4-25.2 56.2 56.2 0 0 1-3.6-40A74.1 74.1 0 0 1 886 192a6 6 0 0 1 2.2-1.6c5-1.7 9.5-4.9 14.5-6.6m-3.3 14.3c-3.8 2.6-5.8 7.1-8.2 11a28 28 0 0 0 1.2 29.5 33.5 33.5 0 0 0 41.5 11.3c5.1-2.6 10.8-5.4 14-10.4a31.7 31.7 0 0 0 13.7-19.3c2.1-7.7.4-16.1-3.9-22.8l-1.8-.4.1 1.1c-2.2 3-5 5.6-7.8 8.2v9.2a20.9 20.9 0 0 1-22.6-1c-6.4-4.5-9.3-13.8-4.9-20.5 6 .5 11-3.5 13.4-8.7 1.3-.2 2.6-.7 3.8-1.3-2.4-1.4-5.2-1.5-7.9-1.7-12-.6-24.2 5.6-30.6 15.8zm-557.1 1.1c16.5-7 36-7.9 52.4.2a51.4 51.4 0 0 1 27.9 37c2.8 13.2.5 27-4.8 39.3-1.8 4.5-4.7 8.5-6.2 13.2A70.6 70.6 0 0 1 390 306c-14.5 7.8-32 11-48 6.7a51.6 51.6 0 0 1-32.8-26A60 60 0 0 1 306 240a78.3 78.3 0 0 1 20.5-32.6c.8-.7 1.5-1.7 2.6-2 4.7-1.5 8.6-4.5 13.2-6.2m2.8 14.2c-1 .4-2 1.1-2.7 2a39.6 39.6 0 0 0-9.2 16.7 29 29 0 0 0 6.6 25.1 34.9 34.9 0 0 0 26.2 11.9 42 42 0 0 0 25.4-10.8c.9-.7 1.4-1.6 1.6-2.8a32.4 32.4 0 0 0 13.4-18c2.7-8.4.9-18.2-4.4-25.3h-1.7l.3 2.2c-3.4 1.6-5.7 4.6-8.1 7.3.7 3.2.6 6.5 0 9.7a20.4 20.4 0 0 1-27-6c-3-4.6-3-11 0-15.6 2.4-.4 5.2-.3 7-2.2 2.3-2.1 4.4-4.4 6.5-6.6l2.4-.5-.9-1.6a35.7 35.7 0 0 0-35.4 14.5z"/></g><path fill="#858466" d="M619.8 161a20 20 0 0 1 21.2-4.6c-1.4 1.5-2.4 3.4-4.2 4.4-5.6-1.2-11.3-1-17 .1zM236 175.1c6-.9 12.8.3 17.3 4.7 2.2 2 2.9 5.2 3.2 8.1a24 24 0 0 1-7.3 19.6c2.4-6 2.3-12.6.9-18.7-2-5.5-7.8-7.8-13-9.1l-.6-.2-.4-4.4z"/><g fill="#5f2800"><path d="M1110.4 368.5h5.7l3.8 11c1-3.7 2.4-7.4 3.7-11h5.7v18.2h-3.7v-14.5c-1.8 4.8-3.1 9.7-4.8 14.5h-2c-1.6-4.7-2.8-9.5-4.9-14-.3 4.7 0 9.4-.1 14h-3.4v-18.2zm-15.8 0h13.9v3.6h-5v14.6h-4l.1-14.5h-5v-3.7zM1221.1 480l12.7 12.9-10.5-.3c0-4.3 1-9.1-2.2-12.6zm-999.9.8c4.2 4.3 8.3 8.8 12.8 12.9-3.6-1.5-7.7-1-11.5-1.2-.1-3.9.9-8.2-1.3-11.7zm149.6 0c10.4 10.7 21 21.2 31.6 31.8 1.8 1.7 3.4 4 3.2 6.6v91.5c-11 0-22.2.2-33.3 0V491c0-3.4.5-7.2-1.6-10.2zm360.2.1c9.8 10 19.6 19.8 29.6 29.7V589c-.2 3.7 3.1 6 5.4 8.3 2.6 2.4 4.8 5.4 8 7 3.1.5 6.4.2 9.6.2.2 3.2 0 6.4.5 9.6.6 2.8 3.2 4.4 5 6.3 3.4 2.8 6 7.7 11 7.2h111.6c0 4.6 1.8 10.5-2.2 14-2.5 2.6-6.3 2-9.5 2H793c-4.6-.2-9.5 3.4-9.1 8.3v50.2c-.4 3.7 2.8 6 5.1 8.3l3.2 3.3-.8-.6c-.2 10 0 20-.1 29.9 0 4.8-4.6 8.8-9.3 8.3H598a8.8 8.8 0 0 1-6.5-2.8c-10.9-10.8-21.6-21.7-32.5-32.4a14 14 0 0 0 7 2.2h181c3 0 6.2-.8 8.5-2.9 2.2-2.5 2.9-6 2.8-9.4v-45c0-5.2-4.7-8.4-8-11.9-2.4-2.6-5.3-5.8-9.3-5.4-41.5-.1-83 .1-124.6-.1.1-3.3-.3-6.6.4-9.8 1-4 5.3-6.4 9.2-6.1h111c5 .4 8.6-5 8.3-9.6v-42c-.2-5.2-5-8-8-11.5-1.9-1.9-3.7-4-6.4-4.6-4-.7-8-.3-11.9-.4-34.2 0-68.4.2-102.6 0 .2-4-.8-8.4 1.3-12 1.7-2.9 5.1-4 8.3-4l97 .1c4.9.6 9.7-3.6 9.5-8.6v-44c0-3.4.5-7.1-1.5-10.1zm244.7-.1c7.4 7.4 14.7 15 22.4 22.2v61a9 9 0 0 0 2.8 6.9h-19.2c2.2 2.4 4.5 4.7 7 7-3.7-1.4-7.6-1-11.4-1.2 0-3 .3-6-.1-8.8-1.7-3.9-5.2-6.4-8-9.5-2-2-4-4.6-7.1-4.6-44.5-.3-89 .3-133.5-.3.1-3.4-.4-7 .6-10.4 1-3.7 5-5.7 8.7-5.5H968c4.9.6 9.5-3.8 9.4-8.6v-42c.1-2.2-.5-4.4-1.7-6.2z"/><path d="M509.2 482.2l16 16-.3 4.8v169c0 3.3-.4 6.7.5 10 1 2.1 3.2 3.6 4.9 5.3 2.5 2.4 4.6 5.3 7.7 7 3.2.7 6.5.3 9.7.4.3 3.7-.1 7.6 1.2 11.3-2-2.2-4.1-4.2-6.2-6.3v42.4c.2 3-1 6.2-3.8 7.8-2.3 1.7-5.2 1.4-8 1.5H498a9.4 9.4 0 0 1-7.2-3.2l-13.6-13.6h-20.1c-2.8 0-5.7.8-7.3 3.2-2.6 2.9-1 7.5-3.7 10.3a8.8 8.8 0 0 1-7.1 3.3H334c-2.8 0-5.1-1.6-7-3.5a3051.1 3051.1 0 0 0-31.2-31.1c4.1 2 8.8 1.4 13.2 1.5h90c4.7 0 10.5.5 13.8-3.6 2.6-2.9 1.1-7.4 3.5-10.3 1.4-1.6 3.4-3.2 5.7-3 8.5-.2 17 0 25.5-.2-.5 4 2.9 6.8 5.5 9.3 3.4 3.2 6.7 7.8 12 7.7h30c3 0 6.3.3 9.3-1 2.3-1 3.6-3.2 5-5 .2-53.4.1-106.8.1-160.2 0-23.3.3-46.5-.2-69.8zm-265.9 20.6c5.9 6 11.7 12.1 17.7 18V671c0 3-.2 6 .1 9 .4 3.1 3 5.1 5.1 7.2 3 2.6 5.5 6.6 9.7 7.6 2.6.9 5.3.4 7.9-.1.1 3.8 0 7.7 1.3 11.4l-6-6.1v42c.2 3-.8 6-3.4 7.7-4.3 3.2-10 .5-14.7 2.3-3 1.4-5 4.6-4.9 8-.2 10 .2 20-.1 30 0 4-3.3 7-6.9 8H166a13 13 0 0 1-5.1-3c-11-10.9-21.8-21.9-32.8-32.7a8.2 8.2 0 0 0 5.8 2.2h83.4c1.9-1.6 3.6-3.3 5.2-5.2.2-10.8 0-21.6 0-32.4-.1-3.4 2-6.8 5.2-8.3 4.3-1 9 .6 13.2-1.5 4-1.5 5.4-6.2 5.4-10V510.8a12 12 0 0 0-3-8zm1001.7 1.1c10.5 10.8 21.3 21.4 32 32.1 1.5 1.5 2.3 3.3 3 5.2V607c-1 4.1-4.6 7.4-9 7-19.7.2-39.4 0-59.1.1-4.7-.1-9 4-8.6 8.8V742a8.7 8.7 0 0 1-9.3 9.3h-69a9 9 0 0 1-7.4-3c-10.6-10.4-21-21.1-31.8-31.6 2.3.9 4.7 1.6 7.2 1.6h66a14 14 0 0 0 7.8-2.3 12 12 0 0 0 3.5-9V597c0-3.8-.4-7.7.3-11.5 1.7-3 4.9-5.1 8.4-4.9h59c4.6.5 9-4.1 8.5-8.7V510a11 11 0 0 0-1.5-6.1zM104.3 545c-.1-4.4 4.5-7.7 8.7-7.4h52.5c.2 11 0 22.2 0 33.3-6.5 0-13-.2-19.5 0-4.7 0-9.1 4.2-8.6 9v47.9c-3.4.1-6.8-.2-10.2 0 0-3 .4-6-.2-8.8-1.4-4-5.1-6.4-7.8-9.5-1.8-1.8-3.5-4-6.1-4.4-3-.5-6-.5-8.9-.4.2-20 0-39.8.1-59.7zm904.7 34a11 11 0 0 0 7 1.7l57.7-.1c1 11.1.3 22.3.5 33.5H1049c-2.7.1-5.5-.7-7.3-2.7-11-10.8-21.6-21.8-32.6-32.4zm-10.9 8.3l32.7 32.9a8.4 8.4 0 0 1 3 6.7V720c0 3.3-2.3 6.2-5.2 7.5-3 1.2-6.4.5-9.6.7-3.7-.3-6.9 2.6-8 6-1 3.7 0 7.6-.8 11.3a8.7 8.7 0 0 1-8.2 5.8H834a9.2 9.2 0 0 1-7.1-3.1c-10.7-10.7-21.3-21.5-32.1-32 4.2 2.8 9.4 2 14.3 2H960c3.5 0 7.2.4 10.7-.5 3.8-1 6.9-4.7 6.7-8.7.2-4-1-9.1 2.6-12.1 3.4-3.4 8.6-1.4 12.9-2.2a8.8 8.8 0 0 0 7.6-8.8v-93c.1-2.1-1.2-4-2.4-5.6zM10 692.3c3.5 2.9 8.4 3.6 12.7 2.5.3 3.7 0 7.6 1.2 11.2-4.5-4.8-9.2-9.2-13.9-13.7zm24 23.8c2 1.2 4.4 2.3 7 2.2l75.7-.1c.8 11-.7 22.2.8 33.1H73.2c-2.5.2-4.8-1-6.5-2.8L34 716.1z"/></g><path fill="#f8991d" d="M0 475.7c1.1-3.4 4.2-6.3 8-6.3h198c4-.3 6.9 3 9.4 5.7-1 3.8-1.2 8-.3 11.9 1 3 4 5.6 7.3 5.5 3.8.2 7.9-.3 11.5 1.2 1.6 1.4 3 2.9 4.5 4.4-.3 2-.6 4-.6 6V696c0 3.9.7 8.5-2.4 11.5-3.3 3.4-8.3 2-12.5 2.5-4.2 0-8.2 3.7-8.2 8-.3 10 .2 20 0 30 0 4.6-4.3 8.4-8.8 8.1h-84.2c-1.5-1.5-3-3-4.3-4.8-1.5-11 0-22-.8-33.1.4-3.8-2.4-7.1-6-8-3.5-.6-7.1-.3-10.7-.3H34c-2 0-3.9.3-5.8.6L24 706c-1.3-3.6-1-7.5-1.2-11.2a7.4 7.4 0 0 0-5.7-7.6c-4.1-.7-8.3-.4-12.4-.4-2-1.8-4-3.6-4.6-6.2V475.7m200.4 33.8c-4 1.1-6.2 5.5-5.9 9.5.2 5.3-.5 10.6.4 15.9a8 8 0 0 0 7.2 5.7c5.6.2 11.2.2 16.8 0a8.4 8.4 0 0 0 7.3-8.5v-14c0-3-1.2-6-3.7-7.5-2.4-1.9-5.7-1.3-8.5-1.4-4.5.1-9.1-.3-13.6.3M57.2 530.3c-3.6 1.2-5.7 5-5.5 8.7v79c0 2.8.4 5.8 2.6 7.7 2.5 2.6 6.4 2.2 9.7 2.3 4.3-.2 8.7.2 13-.3 4-.7 6.5-4.8 6.3-8.7v-81a8.1 8.1 0 0 0-8.3-8c-6 0-12-.6-17.9.4M96 539v57c-.2 4.5 3.6 9 8.2 8.7 3 0 6 0 8.9.4 2.6.5 4.3 2.6 6 4.4-.1 3.9-.4 7.7.2 11.5.7 3.7 4 7 7.9 6.7 3.4 0 6.8.2 10.2 0 6.8 0 13.7.2 20.5 0a8 8 0 0 0 7.7-8.7v-48l-.1-33.3c.5-4.4-4.2-8.2-8.5-7.8h-53c-4.8 0-8.3 4.7-8 9.2m80.3 175.4c-5.5 2.7-4.4 9.5-4.5 14.6.3 4.7-1.2 10.7 3 14.1 2 2 4.8 1.7 7.2 1.8h14c4-.1 7.4-4 7.3-7.9.1-5.3.2-10.6 0-16 0-3.5-2.8-6.8-6.3-7.3-4-.5-8-.1-12-.2-2.9 0-6-.4-8.7.9zM261 477.9a8.5 8.5 0 0 1 9-8.5h86c3.3-.2 5.9 2.3 8 4.5.6 42.7 0 85.4.3 128.1-.3 4.4 3.2 9.2 8 8.6 11.1.3 22.2.2 33.3.1 6.2-.1 12.3.2 18.5-.1 4.4-.5 6.8-5.5 6.8-9.6V478c-.5-4.5 3.7-8.6 8-8.6h54c4-.3 6.7 3 9.2 5.6-.2 2-.5 4-.5 6v212c0 3.3.2 6.6-.2 9.9-.5 4-4.3 7.1-8.3 6.9-11.4.2-22.7 0-34 0-2.1 0-4.1.3-6.1.7-2.6-2.5-6-5.2-5.5-9.3.3-4.2-3.4-7.8-7.5-8-6.6-.4-13.3 0-20-.2-3.4.1-7.3-.4-10 2-4.4 3-2.1 9.6-6.2 12.8-2 2-5 2-7.8 2.1h-80c-8.9.3-17.8-.6-26.6.5l-4.3-4.3c-1.4-3.7-1.2-7.6-1.4-11.4a7 7 0 0 0-5-7.3c-4-1-8.3-.4-12.5-.2-2-2-4.7-4-5-7.2-.4-3-.2-6-.2-9V478m65.4 4.6c-4 .6-7 4.5-6.8 8.5v73c-.2 3.9 2.4 8.3 6.5 8.8 6 .6 12 .4 18 0 4.3-.1 7.4-4.7 7.1-8.8v-73a8.5 8.5 0 0 0-8.2-8.6c-5.5 0-11.1-.3-16.6.1m-44 159a7.7 7.7 0 0 0-4.1 6.4 288 288 0 0 0 0 16.1 8 8 0 0 0 6.7 7.9c4.3.5 8.6.1 13 .2 3-.1 6.7.3 9-2.2 4-3.5 2.4-9.3 2.7-13.9-.3-4.4 1.1-9.8-2.5-13.2-3-3-7.5-2.1-11.2-2.3-4.6.3-9.3-.7-13.6 1m182 26a8.4 8.4 0 0 0-5.8 6.2c-.7 3.4-.3 6.9-.4 10.3.2 4.2-.8 9 2.5 12.3 3.4 3.6 8.8 2.4 13.3 2.6 3.9-.2 8.1.7 11.7-1.2a8.7 8.7 0 0 0 4.3-7.7l-.2-15c0-4.5-4.4-8.1-8.7-7.8-5.6.1-11.2-.3-16.8.3zM548 478c-.4-4.8 4.3-9 9-8.6h159c4-.3 6.6 3 9 5.5-.3 2.4-.5 4.7-.5 7.1v44.1c.3 3.9-2 8.2-5.9 9.2-3.8.7-7.8.3-11.6.4h-89c-4-.3-8.3 2.2-9.1 6.3-.7 3.6-.7 7.4-.2 11a7.5 7.5 0 0 0 7.7 6.4c34.2.3 68.4 0 102.6.1 4 .1 8-.3 12 .4 2.6.6 4.4 2.7 6.2 4.6V611c.3 5-4.3 9.3-9.2 8.8H618c-4-.4-8.3 2.2-9.1 6.3-.7 3.5-.7 7.2-.2 10.8.5 3.7 3.9 7 7.7 6.6 41.5.2 83 0 124.6 0 4-.3 6.9 2.9 9.4 5.5-.9 5.7-.4 11.4-.5 17v35c0 3.5-1.8 7.3-5.3 8.4-3.9.8-7.8.4-11.7.5H580c-8.8.3-17.8-.7-26.7.5-1.5-1.4-3-2.9-4.3-4.4-1.3-3.7-1-7.6-1.2-11.4 0-3.2-2-6.2-5-7.2-4-1.2-8.4-.8-12.5 0-1.6-1.8-3.7-3.3-4.8-5.5-.9-3.2-.4-6.6-.5-9.9V503c0-1.6 0-3.3.2-4.8 1.4-3 4.3-5.7 7.8-5.5 4-.3 8.6 1 11.8-2 4-3 3.3-8.4 3.3-12.8m134.2 10.5a8.5 8.5 0 0 0-5.3 7.6c-.2 5-.2 10 0 15 0 3.8 3 8 7 8.2 4.7.4 9.4.1 14.1.2 3.5.2 7.6-.5 9.3-4 2.7-5 .8-11 1.4-16.4.7-4.9-2.3-10.8-7.6-11-6.3-.1-12.7-.6-18.9.4m-127.9 113a8.4 8.4 0 0 0-6.4 8.6v48c-.4 4.2 2.7 8.7 7.1 9 5.3.4 10.7.2 16 .2 4.9.2 9-4.4 8.6-9.2v-48c.2-4.6-4-9-8.6-8.7-5.5 0-11.1-.3-16.7.2m50 61c-3.3 1.3-5.2 5-5 8.5-.1 4.7-.2 9.4 0 14 0 3.8 2.8 7.7 6.7 8.1 4.3.5 8.6.1 13 .3 3.4 0 7.4.2 9.7-2.7 3.2-3.4 2.2-8.4 2.4-12.7-.3-4.5 1-10-2.5-13.6-2.6-3.1-7-2.5-10.6-2.6-4.5.3-9.2-.5-13.6.7zM783.8 477c.2-4.2 4.2-7.6 8.2-7.6h169c3.3-.2 5.7 2.3 7.8 4.5.8 15.7.3 31.4.3 47.1.4 5.1-4.3 9-9.2 8.8H830c-3.5-.2-7.1 1.4-8.5 4.7-1.3 4-1 8.4-.5 12.5a7.5 7.5 0 0 0 7.6 6.5c44.5.6 89 0 133.5.3 3 0 5.1 2.6 7.1 4.6.1 4.2-.3 8.5.6 12.7a7.6 7.6 0 0 0 7.5 5.6c3.8.2 7.7-.2 11.3 1.2 1.3 1.1 2.5 2.3 3.7 3.6.5 31.5 0 63 .3 94.5 0 3.3-.6 7.1-3.5 9.2-5.1 3.4-12.3-.5-17 3.9-3.5 2.9-2.4 7.9-2.7 11.9 0 3.6-2.2 7.4-5.8 8.5-3.8.7-7.7.3-11.6.4H808c-6.3.1-12.7-.6-19 .5-2.3-2.3-5.5-4.6-5.1-8.3v-50.2c-.4-4.9 4.5-8.5 9.1-8.3h107c3.2 0 7 .6 9.5-2 4-3.5 2.2-9.4 2.2-14 .8-5-4.4-8.2-8.7-7.8H801c-4-.1-8-.2-11.8.6-1.9-2-4.5-3.5-5-6.3-.6-3.2-.4-6.4-.6-9.6a8 8 0 0 0-5.7-7.4c-3.9-1-8-.7-11.9.2-2.3-2.3-5.6-4.6-5.3-8.3-.2-26.1 0-52.3-.1-78.4 0-4.2-.3-8.4.3-12.4 1.3-3.2 4.5-5.8 8-5.5 4-.2 8.6 1 11.7-2 4.1-3.4 2.8-9.2 3.2-13.8m.6 32.6a8.5 8.5 0 0 0-6.3 8.5v15c.3 4 3.7 7.7 7.8 7.7h16c4.1 0 7.6-3.7 7.9-7.6.2-5 0-10.1 0-15.1.3-4.8-4-9.2-8.8-8.8-5.5.1-11.1-.2-16.6.3m164 87a8.5 8.5 0 0 0-6.1 8.5v48a8.7 8.7 0 0 0 8.7 9.1c5 .1 10 .2 15 0 4.6-.2 8.2-4.6 8-9V605c.2-4.4-3.3-9-8-8.8-5.9 0-11.8-.4-17.7.2zm76-125.1c2.9-2.7 7-1.9 10.6-2h172c3.6-.3 6.3 2.6 8.5 5-.2 3.7-.5 7.5 0 11.2.5 3.8 3.9 7 7.8 7 3.5 0 7 0 10.5.3l5 4.7c-.4 20.4-.2 41-.2 61.4-.1 3.8.8 8.4-2.4 11.2-1.7 2.1-4.5 2.7-7.2 2.6h-58c-5-.4-9.5 4.1-9 9.1v119.2c.2 4.4-3.3 8.7-8 8.7-14.6.2-29.3 0-44 0-10.2.3-20.5-.5-30.7.5-2.2-2.3-5.3-4.6-5-8.2v-88c-.3-11.2.3-22.4-.6-33.5.7-4.4-3.6-7.8-7.6-7.8-5.4-.2-10.7 0-16 0-15.7.2-31.3-.5-46.8.4l-2.4-2.3a9 9 0 0 1-2.8-6.8v-61c0-3 .3-6.4 2.8-8.3 3.3-3.2 8.2-1.8 12.3-2.1 4.4 0 8.3-4.2 8-8.6 0-4.4-.8-9.8 3.2-12.7m17 12c-3.5.7-6.2 4-6.3 7.6-.2 5-.1 10 0 15-.2 4.4 3.4 8.7 7.9 8.6h16c4 0 7.5-3.8 7.6-7.7.2-5 0-10 0-15a8.1 8.1 0 0 0-8.5-8.7c-5.6 0-11.2-.3-16.8.2m156 23c-3.3 1.5-5 5.2-4.7 8.7v38c-.1 3 .6 6.3 3.2 8.2 2.5 2.2 6 1.9 9.2 2 4-.2 8 .2 12-.3a8.6 8.6 0 0 0 7.2-9v-39c.3-3.7-1.8-7.6-5.4-8.8-3.5-1-7.3-.5-10.8-.6-3.6.1-7.3-.5-10.7.8m-99 154a8.5 8.5 0 0 0-7 7.7c-.3 3.6-.1 7.3-.2 11 0 3.5-.3 7.6 2.5 10.3 2.4 2.6 6 2.8 9.4 2.7 4.3-.1 8.7.2 13-.3 3.7-.5 6.8-4 6.8-7.8.1-5.3.2-10.7 0-16.1-.3-4.4-4.5-7.8-8.8-7.6-5.2 0-10.5-.2-15.7.2z"/><g fill="#fbb14c"><path d="M364 474l6.8 6.8c2 3 1.6 6.8 1.6 10.2v119.6c-4.9.6-8.3-4.2-8.1-8.6-.3-42.7.3-85.4-.3-128zm605 0l6.7 6.8c1.2 1.8 1.8 4 1.7 6.2v42c0 4.8-4.5 9.2-9.4 8.6H838c-3.7-.2-7.8 1.8-8.7 5.5-1 3.4-.5 7-.6 10.4a7.6 7.6 0 0 1-7.6-6.5c-.5-4.1-.8-8.5.5-12.5 1.4-3.3 5-5 8.5-4.7h130c4.9.3 9.6-3.7 9.2-8.8 0-15.7.5-31.4-.3-47zm246.5 11.6c-.5-3.7-.2-7.5 0-11.2l5.6 5.6c3.2 3.5 2.2 8.3 2.2 12.6a8.1 8.1 0 0 1-7.8-7zM215.2 487c-.9-4-.7-8 .3-12 1.8 2 3.8 3.9 5.7 5.8 2.2 3.5 1.2 7.8 1.3 11.7a7.6 7.6 0 0 1-7.3-5.5zm286.9-12l7.1 7.2c.5 23.3.1 46.6.3 69.8l-.1 160.2c-1.5 1.8-2.8 4-5.1 5-3 1.3-6.2 1-9.3 1h-30c-5.3.1-8.6-4.5-12-7.7 2-.4 4-.7 6-.7 11.4 0 22.8.2 34.1 0 4 .2 7.8-3 8.3-7 .4-3.2.2-6.5.2-9.8V481c0-2 .3-4 .5-6zm222.9 0l6 5.9c2 3 1.5 6.7 1.5 10V535c.2 5-4.6 9.2-9.5 8.6h-97c-3.1-.1-6.6 1-8.3 3.9-2 3.6-1 8-1.3 12a7.5 7.5 0 0 1-7.7-6.5c-.5-3.6-.5-7.4.1-11 .9-4 5.2-6.6 9.2-6.4h89c3.9 0 7.8.4 11.6-.3 4-1 6.1-5.3 6-9.2l-.1-44c0-2.5.3-4.8.6-7.2zm-398.6 7.5c5.5-.4 11-.2 16.6-.1 4.5 0 8.5 4.1 8.2 8.6v73c.3 4-2.8 8.6-7.2 8.8-6 .4-12 .6-17.9 0-4.1-.5-6.7-5-6.6-8.8v-73c0-4 2.8-7.9 6.9-8.5zm714.9.9c5.6-.5 11.2-.2 16.8-.2 4.7-.4 9 4 8.6 8.7v15c-.2 4-3.6 7.6-7.6 7.6-5.4.2-10.7.2-16.1 0-4.5.2-8-4.1-8-8.4v-15.2a8.3 8.3 0 0 1 6.3-7.5z"/><path d="M682.2 488.4c6.2-1 12.6-.5 18.9-.4 5.3.2 8.3 6.1 7.6 11-.6 5.4 1.3 11.4-1.4 16.5-1.7 3.4-5.8 4-9.3 4-4.7-.2-9.4.1-14-.3-4.1-.3-7-4.4-7.1-8.2-.2-5-.2-10 0-15a8.4 8.4 0 0 1 5.3-7.6zm556.5 9.2l6.3 6.3a11 11 0 0 1 1.5 6.1v62c.5 4.5-4 9-8.5 8.6h-59c-3.5-.2-6.7 2-8.4 5-.7 3.7-.2 7.6-.3 11.5v110c0 3.2-1 6.7-3.5 9a14 14 0 0 1-7.8 2.2h-66c-2.5 0-5-.7-7.2-1.6-2.2-2-4.3-4.3-6.5-6.4 10.2-1 20.5-.2 30.7-.4 14.7-.1 29.4.1 44-.1 4.7 0 8.2-4.3 8-8.7V581.9c-.5-5 4-9.5 9-9.1h58c2.7.1 5.5-.5 7.2-2.6 3.2-2.9 2.3-7.4 2.4-11.2 0-20.5-.2-41 .1-61.4zM237.9 504c0-2 .3-4 .6-6l4.8 4.8a12 12 0 0 1 3 8.1V707c0 4-1.4 8.6-5.4 10-4.2 2.2-9 .6-13.3 1.6a8.9 8.9 0 0 0-5 8.3c0 10.8.1 21.6-.1 32.4a34.4 34.4 0 0 1-5.2 5.1c-27.8.2-55.6 0-83.4 0-2.2.3-4.2-.7-5.8-2l-6.3-6.3H206c4.5.3 8.8-3.5 8.7-8 .3-10-.2-20.1.1-30.1 0-4.3 4-8 8.2-8 4.2-.5 9.2.9 12.5-2.5 3.1-3 2.3-7.6 2.4-11.5V504z"/><path d="M1197.3 506.4c3.4-1.3 7.1-.7 10.7-.8 3.5.1 7.3-.5 10.8.6 3.6 1.2 5.7 5.1 5.5 8.8v39c.2 4.3-3 8.5-7.3 9-4 .5-8 .1-12 .3-3.2-.1-6.7.2-9.3-2-2.5-2-3.2-5.3-3.2-8.3v-37.9c-.1-3.5 1.5-7.2 4.8-8.7zm-996.9 3.1c4.5-.6 9-.2 13.6-.3 2.8 0 6-.4 8.5 1.4a8.5 8.5 0 0 1 3.7 7.4v14c.2 4.2-3 8.3-7.3 8.6-5.6.2-11.2.2-16.8 0a7.9 7.9 0 0 1-7.2-5.8c-.9-5.2-.2-10.5-.4-15.8-.3-4 1.8-8.4 5.9-9.5zm584 0c5.5-.5 11-.2 16.6-.3 4.8-.4 9 4 8.8 8.8 0 5 .2 10 0 15-.3 4-3.8 7.6-7.8 7.7h-16c-4.2 0-7.6-3.7-7.9-7.7v-15a8.5 8.5 0 0 1 6.3-8.5zM57.2 530.3c5.9-1 12-.4 17.9-.4a8.1 8.1 0 0 1 8.2 8.1v81c.2 3.9-2.3 8-6.3 8.7-4.3.5-8.7.1-13 .3-3.3-.1-7.2.4-9.7-2.3-2.2-2-2.6-5-2.6-7.7v-79c-.2-3.7 2-7.5 5.5-8.7zM96 539c-.3-4.5 3.2-9.2 8-9.1 17.6-.2 35.3 0 53-.1 4.3-.4 9 3.4 8.5 7.8H113c-4.2-.3-8.8 3-8.7 7.4l-.1 59.7c-4.6.2-8.4-4.2-8.2-8.6V539zm873.2 19.4c2.8 3 6.3 5.6 8 9.5.4 2.9.1 5.8 0 8.8a7.6 7.6 0 0 1-7.4-5.6c-1-4.2-.5-8.5-.6-12.7zm-232 6.1c3 3.5 7.9 6.3 8.1 11.5v42c.3 4.7-3.3 10-8.3 9.6H626c-4-.3-8.3 2-9.2 6-.7 3.3-.3 6.6-.4 9.9-3.8.3-7.2-2.9-7.7-6.6-.5-3.6-.5-7.3.1-10.8.9-4.1 5.2-6.7 9.2-6.3h110c5 .5 9.5-3.8 9.2-8.8v-46.5zm266.1 8.7c15.5-1 31.1-.2 46.7-.4 5.4 0 10.7-.2 16 0 4.1 0 8.4 3.5 7.7 7.8H1016a11 11 0 0 1-7-1.6c-1.9-2-3.8-4-5.8-5.8zm-11 8.3l5.8 5.8c1.2 1.7 2.5 3.5 2.3 5.7v93a8.8 8.8 0 0 1-7.5 8.7c-4.3.8-9.5-1.2-13 2.2-3.6 3-2.3 8-2.5 12.1a9 9 0 0 1-6.7 8.7c-3.5.9-7.2.5-10.7.6H809c-4.8 0-10 .7-14.3-2.1l-2.5-2.5-3.2-3.3c6.3-1.1 12.7-.4 19-.5h144c3.9-.1 7.8.3 11.6-.4 3.6-1 5.9-4.9 5.8-8.5.3-4-.8-9 2.7-12 4.7-4.3 11.9-.4 17-3.8 2.9-2 3.5-5.9 3.5-9.2-.2-31.5.1-63-.3-94.5z"/><path d="M948.3 596.4c5.9-.6 11.9-.2 17.8-.2 4.6-.2 8 4.4 8 8.8v48c.1 4.5-3.5 8.9-8 9-5 .3-10.1.2-15.1.1a8.7 8.7 0 0 1-8.7-9.1v-48a8.5 8.5 0 0 1 6-8.6zm-182.3.9c4-.9 8-1.1 12-.2a8 8 0 0 1 5.6 7.4c-3.2 0-6.5.3-9.6-.3-3.2-1.6-5.4-4.5-8-6.9zm-211.7 4.2c5.6-.5 11.2-.2 16.7-.2 4.6-.3 8.8 4 8.6 8.6V658c.4 4.8-3.8 9.4-8.6 9.2-5.3 0-10.7.2-16-.1-4.4-.4-7.5-4.9-7.2-9.2V610c-.2-4 2.6-7.8 6.5-8.5zm-435.1 8c2.7 3.1 6.4 5.5 7.8 9.5.6 2.9.2 5.8.2 8.7-4 .3-7.2-3-7.9-6.7-.6-3.8-.3-7.6-.1-11.5zm670 10.9a53 53 0 0 1 11.8-.6h102c4.4-.4 9.5 2.9 8.7 7.8H800.1c-5 .5-7.6-4.4-11-7.2zm-506.8 21.1c4.3-1.7 9-.7 13.6-1 3.7.2 8.3-.7 11.2 2.3 3.6 3.4 2.2 8.8 2.5 13.2-.3 4.6 1.2 10.4-2.8 14-2.2 2.4-5.9 2-9 2.1-4.3 0-8.6.3-13-.3a8 8 0 0 1-6.7-7.8v-16c0-2.8 1.9-5.2 4.2-6.5zM750 666c0-5.6-.5-11.3.4-17 3.2 3.5 7.8 6.7 7.8 11.9l.1 45.1c0 3.3-.6 6.9-2.8 9.4-2.3 2-5.5 2.8-8.4 2.9H566a14 14 0 0 1-7-2.2l-5.8-5.7c8.9-1.2 17.9-.2 26.8-.5h153c3.8-.1 7.7.3 11.6-.5 3.5-1.1 5.4-4.9 5.3-8.4v-35zm348.3-5.5c5.2-.4 10.5-.2 15.7-.2 4.3-.2 8.5 3.2 8.8 7.6.2 5.4.1 10.8 0 16.1a8 8 0 0 1-6.8 7.8c-4.3.5-8.7.2-13 .3-3.3.1-7 0-9.5-2.7-2.7-2.7-2.4-6.8-2.4-10.3.1-3.7-.1-7.4.2-11a8.3 8.3 0 0 1 7-7.6z"/><path d="M604.4 662.5c4.4-1.2 9-.5 13.6-.7 3.6.1 8-.5 10.6 2.6 3.5 3.6 2.2 9 2.5 13.6-.2 4.3.8 9.3-2.4 12.7-2.3 2.9-6.4 2.7-9.7 2.6-4.4 0-8.7.3-13-.2-4-.4-6.6-4.3-6.8-8V671c-.1-3.5 1.8-7.2 5.2-8.5zm-140 5c5.5-.6 11.1-.2 16.7-.3 4.3-.3 8.6 3.3 8.7 7.7l.2 15.1c0 3.1-1.6 6.2-4.3 7.7-3.6 2-7.8 1-11.7 1.2-4.5-.2-9.9 1-13.3-2.6-3.3-3.2-2.3-8.1-2.5-12.3.1-3.4-.3-7 .4-10.3.6-3 3-5.4 5.8-6.2zM4.6 686.8c4 0 8.3-.3 12.4.4 3.5.7 5.9 4 5.7 7.6-4.3 1.1-9.2.4-12.7-2.5l-5.4-5.5zm261.6.4c4.2-.2 8.4-.8 12.5.2a7 7 0 0 1 5 7.3c-2.5.5-5.2 1-7.8 0-4.2-1-6.6-4.9-9.7-7.5zm264.1.1c4-.6 8.3-1 12.4.1 3 1 5 4 5 7.3-3.2 0-6.5.3-9.7-.5-3.1-1.6-5.2-4.6-7.8-6.9zM410 695c2.8-2.4 6.6-1.9 10-2 6.7.2 13.4-.2 20 .2 4 .3 7.8 3.8 7.5 8-8.5.2-17 0-25.5.1-2.3 0-4.3 1.5-5.7 3.1-2.4 3-.9 7.5-3.6 10.3-3.2 4.1-9 3.6-13.7 3.6h-90c-4.4 0-9 .5-13.2-1.5l-6.4-6.4c8.8-1.1 17.7-.2 26.6-.5h80c2.7 0 5.8 0 7.8-2 4.1-3.3 1.8-10 6.1-13zM28.2 710.5c2-.3 3.8-.6 5.8-.6h66c3.6 0 7.2-.3 10.7.4 3.6.8 6.4 4.1 6 7.9-25.3.2-50.5 0-75.8 0-2.5.2-4.8-.9-7-2l-5.7-5.8zm148.1 3.9c2.7-1.3 5.8-.8 8.7-1 4 .2 8-.2 12 .3 3.5.5 6.2 3.8 6.3 7.4.2 5.3.1 10.6 0 15.9.1 4-3.3 7.8-7.3 7.8-4.7.2-9.3 0-14 0-2.4 0-5.3.3-7.1-1.7-4.3-3.4-2.8-9.4-3-14.1 0-5-1.1-12 4.4-14.6z"/></g></svg>