<svg xmlns="http://www.w3.org/2000/svg" viewBox="0 0 256 256"><path fill="#78d9ad" d="M22.4 0h25.1L53 17c.8 2.3 1.5 4.8 3.1 6.7 4 .6 7.9.3 11.8.3h59.7v26.5H182V24h18.9c2.7-8 5.2-16.1 8.2-24h24.5c11.3 1 21 10.6 22.4 21.8v211.8a25.5 25.5 0 0 1-22.3 22.4H22.4A25.5 25.5 0 0 1 0 233.6V22.3A25.5 25.5 0 0 1 22.4 0m70 63.6l17.6.1V46.5H92.5a325 325 0 0 0 0 17.1m39.8 11.5v25.8c8.6.2 17.1 0 25.7.1V75h-25.7M18.6 80c-.2 21.9-.1 43.7 0 65.5 6.5 0 13 0 19.4.6l-.7-.6h44c-1.3-5.9-2.4-11.7-3.5-17.5h-.2c-2.5-14-6.4-27.9-8.4-42l-1.3-6H18.6m170.2 0l-1.7 6c-2 14.7-6.2 29-8.6 43.8h-.4c-.9 5.3-2 10.4-3 15.6 14.5.2 28.9 0 43.3.2h-.8c6.8 0 13.6-.3 20.3 0 .2-21.9 0-43.8 0-65.6h-49.1M116 144v10h4.3v-10H116m19.7 0v10h4.6v-10h-4.6M33 160.3c-.2 13.4 0 26.8 0 40.2 7.9-.3 15.9 0 23.9 0 47.2-.2 94.5-.2 141.7 0 8.1-.1 16.2-.2 24.3 0v-40.1c-4 0-8 0-12 .2v-.2h-17.8l-.8 2.3-.4-2.3H64.1v1.6l-2-1.6c-5.3 0-10.6 0-16-.2 0 .6-.4 1.7-.5 2.2v-2H33.1z"/><path fill="#75b87e" d="M47.5 0H118v24H68c-4 0-8 .3-11.9-.3-1.6-2-2.3-4.4-3-6.7L47.4 0zm90.7 0h71c-3.1 7.9-5.6 16-8.3 24h-62.6c.2-8 .3-16-.2-24z"/><path fill="#639868" d="M118 0h20.2c.4 8 .3 16 .1 24H118V0z"/><path fill="#3c8a5d" d="M127.6 24H182v26.5h-54.4V24zM92.4 63.6V46.4l17.6.1v17.2l-17.6-.1zM132.3 75H158v26h-25.7V75z"/><g fill="#efefef"><path d="M18.6 80h49.3l1.3 6H35.6v43c.3 5.2-.7 10.6.6 15.8l1 .7.8.6c-6.4-.7-13-.7-19.4-.6-.1-21.8-.2-43.6 0-65.4zm170.2 0H238c0 21.8.1 43.7-.1 65.6-6.8-.3-13.5 0-20.3 0h3.4V86h-34l1.8-6z"/><path d="M49.5 101.5h15c-.1 9.1-.3 18.2 0 27.3l.2 3.1H49.5v-30.4zm142.5 0h15V132h-15v-30.5zm1.2 58.8c6 .2 11.8 0 17.7.1v.2l.1 13c-6.2-.1-12.4-.1-18.6 0v-11l.8-2.3zm-147.6 2.1l.6-2.2c5.3.3 10.6.2 16 .2L64 162l-.1 11.6c-6.2-.2-12.3 0-18.5-.1v-11z"/></g><path fill="#bd414f" d="M35.6 86h33.6c2 14.1 5.9 28 8.4 42l-13 .8c-.4-9-.2-18.2-.2-27.3H49.5v26.7c-4.6 0-9.3.3-13.9.7V86zM187 86h34v42.8c-4.7-.4-9.3-.4-14 0v-27.3h-15v27.2c-4.5-.3-9 0-13.5 1 2.4-14.6 6.7-29 8.6-43.7z"/><path fill="#d6616d" d="M35.6 129c4.6-.5 9.3-.7 13.9-.8v3.8h15.2l-.1-3.2 13-.8h.2l3.6 17.4c-14.7.2-29.4 0-44.1.1l-1.1-.8c-1.3-5.1-.3-10.5-.6-15.8zm171.4-.1c4.7-.5 9.3-.5 14 0v16.7h-2.6c-14.4-.3-28.8 0-43.3-.2 1-5.2 2.1-10.3 3-15.6h.4c4.4-1.2 9-1.4 13.5-1v3.2h15v-3.1z"/><path fill="#5aaa84" d="M116 144h4.3v10H116v-10z"/><path fill="#5aa684" d="M135.7 144h4.6v10h-4.7v-10z"/><path fill="#944368" d="M33 160.3l12.6.1v2c-.2 3.7-.1 7.4 0 11 6 .1 12.2 0 18.4.2a898.7 898.7 0 0 1 .1-13.2h128l.3 2.3v10.8H211v-12.9c4-.2 8-.3 12-.2v40.1c-8-.2-16.2-.1-24.3 0 2.3-6.5 1.2-13.4 1.2-20.1H56.5c-.2 6.7-.4 13.4.5 20-8 0-16-.2-24 .1v-40.2z"/><path fill="#ce779f" d="M56.5 180.5c47.8-.2 95.6 0 143.4-.1 0 6.7 1 13.6-1.2 20H57c-.9-6.6-.7-13.3-.5-20z"/></svg>