<svg xmlns="http://www.w3.org/2000/svg" viewBox="0 0 256 256"><path fill="#81bbc6" d="M22.4 0h9c.5 1 1 2 1.7 2.9l19.5 26.6c4.6.4 9.2 0 13.8.3 12.1-.2 24.3-.2 36.4 0 6.4 9 11.5 18.8 17 28.3 4.4 7.5 8.5 15.1 12.5 22.8 7.1.2 14.3.1 21.5 0 6.5-12.9 14-25.2 21.3-37.7 2.3-4.7 5.2-9 8.2-13.4 2.3-.2 4.5 0 6.8 0 4.5-.2 9 0 13.4-.3 6.8-10 14.7-19.3 21-29.5h9A25.5 25.5 0 0 1 256 22.3v211.4a25.5 25.5 0 0 1-22.4 22.3H22.5A25.5 25.5 0 0 1 0 233.7V22.3A25.5 25.5 0 0 1 22.4 0M87 73c2 7.4 5.1 14.5 7.1 21.8 3 .2 6 .1 9 0 2.8-7.1 4.8-14.6 7.8-21.7-8-.2-16 0-23.9 0M16.4 86v51.4H36c16.6.2 33.3-.1 50 .2-1.9-5.7-6.4-10.2-9-15.7h-.8c-.2-3.2-3-6.2-5-8.7-4.4-9.1-10.8-17.5-15.5-26.6l.4-.7c-6.7.2-13.4 0-20 0-6.6.1-13.2-.1-19.7.2M200 86l.5.8c-1.4 1.4-.7 4-2.8 4.7-1 3.4-4 5.7-5 9.1-2.5 2.7-3.6 6.2-5.8 9.1-1.2.8-1.2 2.2-1.1 3.5h-1.3l-.2.6-4.8 8.2h-.2c-3.1 5.2-6.4 10.4-9.2 15.7 16.7-.3 33.3 0 50-.2h19.5c.1-17 0-34.1 0-51.2-6.3-.6-13 0-19.5-.2L200 86m-85.5 61.2c0 3-.3 6.2.2 9.2 1.3.5 2.7.3 4.1.4.5-3.2.4-6.5.2-9.8-1.5 0-3 0-4.5.2m22.7-.2a52 52 0 0 0 .2 9.8c1.4 0 2.8 0 4.2-.3.3-3 .2-6.2.1-9.2-1.5-.3-3-.3-4.5-.3m-111.5 8.7c.3 13.8-.1 27.7.2 41.6 8.9.3 17.8-.1 26.7.2l-.3.5c2.3-.2 4.5-.7 6.7-.6h138c2.3 0 4.5.4 6.8.6l-.3-.5c9.2-.3 18.3 0 27.5-.2-.1-14 .1-28-.1-42H192c-10.5 0-21-.2-31.5.2-1.3 1.5-1.3 3.7-2.8 5.1-1.6 1.7-1.6 5.5-4.6 5.4h-51.2c-3-3-3.8-7.8-6.9-10.7-10.2 0-20.5-.1-30.7.1-8-.2-16.2 0-24.3 0-4.8.1-9.9-.6-14.4.3z"/><path fill="#d87289" d="M31.5 0h34.9v29.8c-4.6-.2-9.2 0-13.8-.3L33.1 3a11 11 0 0 1-1.6-3zM190 0h34.6c-6.4 10.2-14.3 19.5-21.1 29.5-4.5.4-9 0-13.4.3-.2-10 0-19.9 0-29.8z"/><path fill="#6ba470" d="M66.4 0H190c.1 10-.1 19.9.1 29.8-2.3 0-4.5-.2-6.8 0-26.8-.2-53.7-.2-80.5 0a1197 1197 0 0 0-36.4 0V0z"/><path fill="#317d94" d="M102.8 29.8c26.9-.2 53.7-.2 80.5 0a114 114 0 0 0-8.2 13.4c-7.2 12.5-14.8 24.8-21.3 37.7-7.2.1-14.4.2-21.5 0-4-7.7-8.1-15.3-12.5-22.8-5.5-9.5-10.6-19.3-17-28.3zM87 73c8 0 16-.1 24 .1-3.1 7.1-5.1 14.6-8 21.8h-8.9c-2-7.5-5-14.5-7-21.9z"/><path fill="#efefef" d="M16.4 86.2c6.5-.3 13 0 19.6-.1v51.4H16.5V86.2zM220 86c6.5.3 13.2-.3 19.6.3-.1 17.1 0 34.2 0 51.2H220V86.1zM40 155.3l24.3.1c.4 5.8.1 11.7.2 17.5-8.1.2-16.3.1-24.5 0v-17.6zm152 0h24V173h-24v-17.7z"/><path fill="#c84652" d="M36 86c6.7 0 13.4.2 20.1 0l-.4.7-.5.8c-.2 11.5 0 23 0 34.5-6.4.4-12.8.3-19.2.1v-36zm163.9 0c6.7.2 13.4 0 20 0v36c-5.8.4-11.7.2-17.6.2-.5 2.2.2 4.8-1 6.8V90c0-1.2-.2-2.3-1-3.2l-.4-.8z"/><path fill="#3c292b" d="M55.2 87.5l.5-.8c4.7 9 11 17.5 15.5 26.6-1.8 2.6-.5 6-.8 8.8v6.8c-5 .3-10.1.1-15.2 0V122c0-11.5-.2-23 0-34.5zm145.2-.7c.7 1 1 2 1 3.1l-.1 39.1h-15.2v-15.3l-2 .1.3-.6h1.3c-.1-1.3 0-2.7 1.1-3.5 2.2-2.9 3.3-6.4 5.8-9 1-3.5 4-5.8 5-9.2 2-.7 1.4-3.3 2.8-4.7z"/><path fill="#c64552" d="M70.4 122.1c.3-2.9-1-6.2.8-8.8 2 2.5 4.8 5.5 5 8.7l-5.8.1zm113.8-8.3l1.9-.1v8.4h-6.7l4.8-8.3z"/><path fill="#e14e5a" d="M36 122.1c6.4.2 12.8.3 19.1-.1l.1 7c5 0 10.1.2 15.2-.1V122H77c2.6 5.4 7.1 9.9 9 15.6-16.7-.3-33.4 0-50-.2V122zm143.2-.1h6.8v7h15.3c1.2-2 .5-4.6 1-6.8 5.9 0 11.8.2 17.7-.1v15.4c-16.7.2-33.3-.1-50 .2 2.8-5.3 6-10.5 9.2-15.7z"/><path fill="#6b9aa5" d="M114.4 147.2c1.4-.2 3-.3 4.5-.1a45 45 0 0 1-.2 9.7c-1.4 0-2.8 0-4.1-.4-.5-3-.2-6.1-.2-9.2zm22.7-.2c1.5 0 3 0 4.5.3 0 3 .2 6.1-.1 9.2l-4.2.3a52 52 0 0 1-.2-9.8z"/><path fill="#944368" d="M25.6 155.7c4.5-.9 9.6-.2 14.4-.3V173h24.5c0-6 .2-11.8-.2-17.6 10.3-.2 20.5 0 30.7 0 3 2.8 4 7.6 7 10.5 17 .2 34 0 51.1 0 3 .2 3-3.6 4.6-5.3 1.5-1.4 1.6-3.6 2.8-5.1 10.5-.4 21-.1 31.5-.2V173h24v-17.7h14.9c.2 14 0 28 0 42-9 .2-18.2 0-27.4.2-1.9-5.5-.2-11.7-.9-17.4-1.3-.8-3-.3-4.6-.4H53.8c-1.7 5.6.9 12.2-1.3 17.8-9-.3-17.8 0-26.7-.2-.3-13.9 0-27.8-.2-41.6z"/><path fill="#ce779f" d="M52.5 197.5c2.2-5.6-.4-12.2 1.3-17.8H198c1.5.1 3.3-.4 4.6.4.7 5.7-1 11.9.9 17.4l.3.5c-2.3-.2-4.5-.7-6.8-.6H59c-2.3 0-4.5.4-6.8.6l.3-.5z"/></svg>