<svg xmlns="http://www.w3.org/2000/svg" viewBox="0 0 256 256"><path fill="#e1808e" d="M22.4 0h1.8c.3 4.6.3 9.3.2 14h14V0H74v54.5H58.6l-.1 7.7-.1 2.8h-22c-1-6.6-1.7-13.3-2.7-20-.4-4-4.7-7-8.6-6.6H0v-16A25.5 25.5 0 0 1 22.4 0m22 21v19.6c6.6-.3 13-.2 19.6-.2V21H44.5zM182.3 0h14.3c1 9.2 0 18.4.5 27.6h27.4c0-9.2.2-18.4-.1-27.6h9.1A25.5 25.5 0 0 1 256 22.3v16.2h-28.5c-1.7 2-4.2 3.6-4.5 6.4-1 6.7-1.8 13.5-2.7 20.2-6.7-.2-13.4-.3-20 .1L198 65V54.6l-15.7-.2.1-17.4V14c0-4.7.2-9.4-.2-14.1z"/><path fill="#f4d3d3" d="M24.2 0h14.3l-.1 14h-14c.1-4.7.1-9.4-.2-14zm172.4 0h27.8c.3 9.2.1 18.4 0 27.6h-27.3c-.4-9.2.5-18.4-.5-27.6zM44.5 21H64v19.4c-6.5 0-13 0-19.5.2V21z"/><path fill="#8c7152" d="M74 0h108.3c.3 4.7.1 9.4.1 14.1-3.1.4-6.2.7-9.3.7H92c-6 0-12 .1-18-.6V0zm0 37h108.4v17.4c-36.2.3-72.3.2-108.3 0-.2-5.8-.1-11.6 0-17.4z"/><path fill="#7b634a" d="M74 14.2c6 .7 12 .7 18 .6h81a73 73 0 0 0 9.4-.7V37H74V14.2z"/><path fill="#8cc7c3" d="M0 38.5h25c4-.5 8.2 2.5 8.6 6.5 1 6.7 1.7 13.4 2.6 20 1.2 6.3 1.2 12.8 2.9 19 8.5 1 17.2 0 25.8.4.6 10.8-.5 21.7.5 32.5 2 3.6 5 6.8 8 9.5 2.8 1 5.8.5 8.6.6h101c2.7-3.3 6.1-6.2 8.2-10 1-10.8-.4-21.6.5-32.3 8.7-.9 17.4 0 26-.4 1-6.4 1.6-12.8 2.6-19.2 1-6.7 1.6-13.5 2.7-20.2.3-2.8 2.8-4.5 4.5-6.4H256V46h-20.9l-4 4.2v34.3c8.2-.2 16.6 0 24.9-.1V177h-12l-18 .1c-21.6-.2-43.1 0-64.7-.1-2.5 3.2-4.2 7-7.2 9.8-17.3.5-34.7 0-52 .2l-6.8-10c-21.8.1-43.6-.1-65.3.1-6 0-12-.2-18-.1H0V84.4c8.5 0 17-.1 25.6.1V50.4L21.1 46H0v-7.5M15.1 115c-.3 5-.3 10-.1 15l-.7-.2v34c16.3.2 32.7 0 49 0 .2-4.4 0-8.8.2-13.3.4-3.2-.3-6.4-.4-9.6-.2-8.6.2-17.3-.2-25.9-16-.2-31.9-.1-47.8 0m178 0c-.6 11.3.9 22.7-1 33.8l1 1.6V164h48.8c0-11.4.3-22.8 0-34.1.2-5 .2-9.8 0-14.8-16.3-.2-32.5-.2-48.7 0m-82.5 58.5l-.2 7.4h7l-.2-7.5h-6.6m28.3 0v7.5h7v-7.4h-7zM0 220h62c44.3.1 88.7-.2 133 0h61v13.7a25.5 25.5 0 0 1-22.3 22.3H22.4A25.5 25.5 0 0 1 0 233.7V220z"/><path fill="#bd5f6d" d="M0 46h21.1l4.5 4.4v34.1c-8.6-.2-17 0-25.6-.1V46zm235.1 0H256v38.4h-25V50.3l4.1-4.2z"/><path fill="#759a78" d="M74 54.5c36.2.1 72.2.2 108.3 0l15.7.1V65l2.3.3c-22-.4-44.2-.3-66.2-.1-.3 13.2 0 26.5-.3 39.8h-11.7c-.3-13.3.2-26.6-.1-39.9-17.3-.2-34.7 0-52 0-4-.1-8.9 1-11.6-2.8l.1-7.7h15.6z"/><path fill="#81a884" d="M58.4 62.2C61.1 66 66 65 70 65c17.3 0 34.7-.2 52 0 .3 13.3-.2 26.6.2 39.8 3.8.2 7.7.2 11.6.1.3-13.3 0-26.6.3-39.8 22-.2 44.1-.3 66.2.1 6.6-.4 13.3-.3 20-.1-1 6.4-1.7 12.8-2.5 19.2-8.7.4-17.4-.5-26 .4-1 10.7.4 21.5-.7 32.2-2 3.9-5.4 6.8-8.2 10-33.6.2-67.2 0-100.9.1-2.8 0-5.8.4-8.5-.6-3.2-2.7-6-6-8.1-9.5-1-10.8 0-21.7-.5-32.5-8.6-.3-17.3.6-25.8-.4-1.7-6.2-1.7-12.7-2.9-19h22.1l.1-2.8z"/><path fill="#86c0bd" d="M15.1 115l47.8.1c.4 8.6 0 17.3.2 26 .1 3.1.8 6.3.4 9.5-2.6-1.2-5.3-2.3-7.8-3.6-4.1-1.5-8.2-3.1-12.2-4.8l-7.8-3.4-.6-.8c-2-.5-4.1-1.2-6-2-4.7-2.2-9.5-3.8-14.1-5.8-.2-5-.2-10.1.1-15.1zm178.1.1c16.2-.2 32.4-.2 48.7 0 .2 5 .2 9.9 0 14.8l-10 4.3c-3.7 1.8-7.7 3-11.6 4.5-2.5 1.2-4.9 2.5-7.4 3.5a122 122 0 0 1-12.5 4.8 34.8 34.8 0 0 1-7.4 3.5l-1-1.6c2-11.1.5-22.5 1.2-33.8z"/><g fill="#fff"><path d="M14.3 129.9l.7.3c4.6 2 9.4 3.6 14 5.7l-4.1-1.8a977.7 977.7 0 0 1 0 22l19.3-.1H53v-9.9l2.7.9c2.5 1.3 5.2 2.4 7.8 3.6-.1 4.5 0 9-.2 13.4h-49v-34.1zm217.7 4.3l9.8-4.3c.4 11.3.1 22.7.1 34-16.3.2-32.6 0-48.9.1v-13.5c2.6-1 5-2 7.4-3.5h2.4c1.4 2.8.4 6 .6 9H232v-21.9z"/><path d="M34 138.2l1.7.6 7.8 3.4v4.8h-9.2l-.2-.4c-.2-2.8-.1-5.6 0-8.4zm179 4c2.4-1 4.8-2.3 7.3-3.5l1.2.5c1.3 2.2.3 4.9.4 7.2v.6h-9v-4.8zM12 177l18 .1V194H12v-17zm214 .1c6 0 12-.2 18-.1v17h-18v-16.9zM20 209h16v11H20v-11zm26 0h16v11H46v-11zm149 0h16v11h-16v-11zm25 0h16v11h-16v-11z"/></g><path fill="#c65563" d="M24.9 134.1L29 136c2 1 4 1.6 6.1 2l.6.9-1.7-.6v8.4c-3 0-6 0-9.1-.3V134zm195.4 4.6c3.9-1.4 7.9-2.7 11.7-4.5v13l-10.1-.8c0-2.3 1-5-.4-7.2-.3-.1-1-.3-1.2-.5zm-176.8 3.5c4 1.7 8 3.3 12.2 4.8l-2.7-1v10h-8.8a15 15 0 0 0 1.8-8.8l-2.6-.2.1-4.8zm156.9 4.8c4.3-1.4 8.4-3 12.5-4.8v3.3c-3 2.9-2 7-1.2 10.5h-8.3c-.2-3 .8-6.2-.6-9h-2.4z"/><path fill="#db5d6b" d="M24.9 146.3c3 .2 6.1.3 9.2.3l.2.4h9.1l2.6.2c.3 3-.3 6.1-1.8 8.8H25l-.1-9.8z"/><path fill="#db5e6d" d="M211.7 156c-.9-3.6-1.8-7.6 1.2-10.5v1.5h9v-.6c3.3.3 6.7.6 10.1.7v8.9h-20.3z"/><path fill="#6b9a99" d="M110.7 173.6h6.6l.2 7.4h-7l.2-7.4z"/><path fill="#6b9a9c" d="M139 173.6h7v7.4h-7v-7.4z"/><path fill="#864244" d="M0 177h12v17h18v-16.9c21.7-.2 43.5 0 65.3-.1l6.7 10c17.4-.1 34.8.3 52.1-.2 3-2.8 4.8-6.6 7.2-9.8 21.6 0 43.1-.1 64.7.1V194h18v-17h12v25.4c-85.3.3-170.7 0-256 0V177z"/><path fill="#9c7b94" d="M0 202.5c85.3 0 170.7.2 256-.1V220h-20v-11h-16v11h-9v-11h-16v11c-44.3-.2-88.7.1-133 0v-11H46v11H36v-11H20v11H0v-17.5z"/></svg>