<svg xmlns="http://www.w3.org/2000/svg" viewBox="0 0 256 256"><path fill="#efaf84" d="M22.6 0h210.6A25.3 25.3 0 0 1 256 22.6v210.6a25.3 25.3 0 0 1-22.6 22.8H22.8A25.3 25.3 0 0 1 0 233.4V22.8A25.3 25.3 0 0 1 22.6 0M24 33.3V118h56.3V33.5c-18.8-.2-37.5 0-56.3-.1m151.6.1c.3 20.6 0 41.1.1 61.7V118h56V33.4c-18.7-.1-37.4-.2-56 0M110 141.1a489 489 0 0 0 0 15.8h8.1c.3-5.3.3-10.6 0-16l-8 .2m27.6-.1c-.3 5.3-.3 10.7 0 16h7.1c.2-5.3.2-10.6 0-16h-7.1m74.1 22.8l2.4 1.7c-7 .3-14 0-21 .1H62c-7 0-14 .2-21-.1v2.8l-.5-2.7H27.4v61.3H48c4.2-.5 8.4 1.4 12.4.2 5-.1 10.2 0 15.3-.2H180l15.7.2c4 1.2 8.2-.7 12.3-.2l20 .1c0-20.5.1-41-.1-61.4-5.3-.4-11.2 1.3-16-1.8z"/><path fill="#1e2c31" d="M24 33.3h56.3v61.8H63.9V69l8.8-.1V37.6H52V52c-4 0-7.8 0-11.7.2-.2 14.3-.3 28.6.1 42.8H24V33.3zm151.6.1c18.7-.2 37.4-.1 56 0v61.8c-5.4-.2-11-.2-16.4-.2-.6-14.3 0-28.5-.4-42.8-3.7-.2-7.4-.3-11.1-.2V37.6h-20.4V69h8.8v26h-16.4c0-20.5.2-41 0-61.6z"/><path fill="#fcfdff" d="M183.3 37.6h20.4V69h-20.4V37.6zM52 37.6h20.7V69H52V37.6z"/><path fill="#182226" d="M40.3 52.2c3.9-.2 7.8-.3 11.7-.2v17h12c-.2 8.7 0 17.4-.1 26v10.3H40.4V95c-.4-14.2-.3-28.5-.1-42.8zm163.4-.2c3.7 0 7.4 0 11 .2.5 14.3 0 28.5.5 42.8a177 177 0 0 0-.3 10.3h-22.8V69h11.6V52z"/><path fill="#396d7e" d="M24 95h16.4v10.3H64V95h16.4v23H24V95zm151.7 0h16.4v10.3h22.8c0-3.4.1-6.9.3-10.3 5.5 0 11 0 16.5.2V118h-56V95z"/><path fill="#d39873" d="M110.1 141h8c.4 5.3.4 10.7.1 16l-8.1-.1V141zm27.7 0h7c.3 5.4.3 10.7.1 16h-7.1c-.3-5.3-.3-10.7 0-16z"/><path fill="#a26f8e" d="M212 163.8c4.7 3 10.6 1.4 15.9 1.8.2 20.5 0 41 0 61.4h-20v-33H48.1v33H27.2v-61.5l13.2.1.5 2.7v16.3h21v-19h131.4v19h20.9v-19.1l-2.4-1.7z"/><path fill="#fff" d="M41 165.5c7 .3 14 .1 21 0v19.1H41v-19.1zm152.4.1c7 0 14 .2 21-.1-.2 6.3-.1 12.7-.1 19h-21v-18.9zM58.3 211.2h17.4V227c-5 .2-10.2 0-15.3.2l-2-.1v-15.8zm121.7.1h17.7v15.6l-2 .2-15.7-.1v-15.8z"/><path fill="#cb98c0" d="M48 194h160v33c-4.2-.6-8.4 1.3-12.3 0l2-.1v-15.7H180V227H75.7v-15.7H58.3V227h2c-4 1.3-8.1-.6-12.3 0v-33z"/></svg>