<svg xmlns="http://www.w3.org/2000/svg" viewBox="0 0 256 256"><path fill="#ef8b78" d="M22.3 0h211.4A25.5 25.5 0 0 1 256 22.3v211.4a25.5 25.5 0 0 1-22.2 22.3H22.3A25.5 25.5 0 0 1 0 233.8V22.3A25.5 25.5 0 0 1 22.3 0M22 46.9c-.2 20.3-.1 40.7 0 61h68.5A213.2 213.2 0 0 0 74.1 93l-.5 1 .1-1.2c-4.4-4.4-9.2-8.3-13.8-12.5l-11.3-10-6.6-5.5v-.4a581.8 581.8 0 0 1-20-17.6m192 17.6v.5l-6.7 5.7V70c-3.3 4.2-7.8 7.2-11.5 11v1.4l-.3-1.4c-4.1 4.2-9 7.5-13 11.9v1l-.2-1c-5.8 4.8-11.5 9.8-17 15H234V47.4c-7 5.3-12.9 12-20 17.1M108 76v32h4.8V76.2l-4.7-.2m35 .2l.1 31.7 4.8.2c.2-10.7.1-21.4 0-32l-4.8.1m-31.7 70.3c0 4.1-1.2 8.7.6 12.6l4.8.3c.2-4.4.2-8.8 0-13.1l-5.4.2m27.6-.4c-.2 4.4-.2 8.8 0 13.2l5.2.1c.5-4.2 1-8.5 0-12.7-1.7-.3-3.4-.4-5.2-.6M19.3 157v58.6h22.2c4.6 0 9.3.5 13.8-1l1.4 1c5.1 0 10.3.1 15.5-.2v.3c37.2-.2 74.5 0 111.7-.1h15.4l1.4-1c4.5 1.6 9.3 1 14 .9 7.3.2 14.7.2 22 .1v-58.5c-3.9-.2-7.9-.3-11.7.6v-.7c-7.2.1-14.3-.4-21.4.3-14.2-.6-28.4-.2-42.5-.2-2.4 4.8-3.6 10.1-6.4 14.7-17.8.5-35.8.1-53.7.2-2-4.8-3.3-9.9-5.7-14.5-1.4-.5-2.9-.5-4.3-.5H59c-2 0-4 .3-6 .8v-.8H31v.7c-3.8-1-7.8-.8-11.7-.6z"/><path fill="#fff" d="M22 46.9c6.6 6 13.2 11.8 20 17.5v.4c-.2 11.1 0 22.2-.1 33.4v9.7H22V47zm192 17.5c7.1-5.2 13-11.8 20-17V108h-20l.1-9.8V64.4zM48.6 70.2c3.6 3.5 7.5 6.8 11.3 10L60 89H48.7V70.2zm158.7-.2v19H196l-.1-6.6V81c3.6-3.8 8.1-6.8 11.4-11z"/><path fill="#3c5668" d="M42 64.8l6.6 5.4V89H56v9c-4.7.2-9.4.2-14.1.2V64.8zm165.3 5.8c2.2-2 4.5-3.9 6.8-5.7v33.3l-13.4-.1.1-9 6.5-.1V70.6z"/><path fill="#d67d6b" d="M108 76h4.8v32H108V76zm35.2.1l4.8-.2c.1 10.7.2 21.4 0 32.1l-4.8-.2V76.1zm-31.7 70.3l5.4-.2c.2 4.3.2 8.7 0 13-1.6 0-3.2 0-4.8-.2-1.8-3.9-.6-8.5-.6-12.6zm27.6-.4c1.8.2 3.5.3 5.3.7 1 4.1.4 8.4-.1 12.6l-5.2-.2a141 141 0 0 1 0-13z"/><path fill="#231a1e" d="M60 80.3c4.5 4.2 9.3 8 13.7 12.5l-.1 1.1c-.4 2.4-.6 4.7-.8 7.1H56V89h4v-8.8zm122.5 12.6c4-4.4 8.9-7.7 13-11.9l.4 1.4.1 6.6h4.8l-.2 9v3h-17.4l-.8-7 .1-1.1z"/><path fill="#47657b" d="M73.6 94l.5-1c5.7 4.8 11.4 9.6 16.5 15H42l-.1-9.8c4.7 0 9.4 0 14.1-.2v3h16.8c.2-2.4.4-4.7.8-7zm91.7 13.9c5.5-5.2 11.2-10.2 17-15l.1 1 .8 7h17.5v-2.8c4.4.1 9 .2 13.4 0v9.8h-48.8z"/><path fill="#a26f8e" d="M19.3 157c3.9 0 7.9-.3 11.7.7V176h22v-18.3c2-.4 4-.8 6-.7h32c1.4 0 3 0 4.3.5 2.4 4.6 3.7 9.7 5.7 14.5 18 0 35.9.3 53.7-.2 2.8-4.6 4-10 6.4-14.7 14.1 0 28.3-.3 42.5.2.2 6.3.1 12.5 0 18.7H225v-18.3c3.8-1 7.8-.8 11.7-.6v58.5c-7.3 0-14.7.1-22-.1 2-9.3.4-19 1-28.4-58.3-.3-116.5 0-174.7-.1.2 9.5-.6 19 .5 28.5-7.4.2-14.8.1-22.2.1v-58.5z"/><path fill="#f7f5f7" d="M31 157h22v19H31v-19zm172.6.3c7.1-.7 14.2-.2 21.4-.3v19h-21.3l-.1-18.7zM56.7 200.7H72c0 4.9 0 9.8.2 14.8-5.2.2-10.4.2-15.5 0v-14.8zm127.3 0h15.3v14.9H184v-15z"/><path fill="#cb98c0" d="M41 187c58.2 0 116.4-.2 174.7.1-.6 9.5 1 19.1-1 28.4-4.7 0-9.5.7-14-.9l-1.4 1v-14.9H184v14.9c-37.3.1-74.6-.1-111.8.1v-.3l-.2-14.7H56.7v14.9l-1.4-1c-4.5 1.5-9.2 1-13.8 1-1-9.5-.3-19-.5-28.6z"/></svg>