<svg xmlns="http://www.w3.org/2000/svg" viewBox="0 0 256 256"><path fill="#f1633c" d="M22.3 0H29v25H0v-2.7A25.5 25.5 0 0 1 22.3 0zm63.4 0H170c0 8.3.2 16.6 0 24.9-.6 0-1.7.3-2.3.4-2.5-.1-5.1-.3-7.7-.3H85.7V0zM227 0h6.6A25.5 25.5 0 0 1 256 22.3V25c-9.5.2-19-.5-28.5.4-1.1-8.4-.3-17-.5-25.4z"/><path fill="#f4af63" d="M29 0h56.7v25H160c2.6 0 5.2.2 7.7.3 4.5.4 8.9-.4 13.3-.3 15.5.2 31-.4 46.5.4 9.5-.9 19-.2 28.5-.4v208.7a25.5 25.5 0 0 1-22.3 22.3H22.4A25.5 25.5 0 0 1 0 233.7V25h29V0m-7.2 65.4c0 15.4-.3 30.9.1 46.3h18.5c.3-.5 1-1.3 1.2-1.8v1.6c12.8.4 25.5 0 38.2.2l.9-2.3.3 2.3c3.2 0 6.3 0 9.3-.2-2.5-3-6.2-4.6-9.5-6.7l-.2 1.7-.4-2.2c-1.5-1-2.8-2.8-4.7-2.9-3.2-2.5-6.4-4.8-9.6-7.4a39.5 39.5 0 0 1-10.3-6.5v-1l-1-.5-.9.5-.6-.7a64.7 64.7 0 0 1-10.6-7l1.8-.2-3.3-.3c-6.2-4.6-12.8-8.7-19.2-13m194 12.4c-1.5.3-3.3.3-4.6 1.6l.9.2h-.5a28.2 28.2 0 0 1-8.7 6.3l-.7.8-.7-.6-1 .3-.2.9c-2.8 3-6.7 5-10.2 6.9l-1.5.5c-2.1 3-5.8 4.3-8.4 6.8h-.7l-3.7 3-.4 2.1-.1-1.7c-3.7 2-7.1 4.4-10.5 6.8l10.2.1.3-2.3 1 2.3c12.6-.3 25.3.2 38-.2V110l1.2 1.6 18.6.1c.5-15.4.1-30.8.2-46.3a191 191 0 0 0-18.4 12.3M91 78c-.1 10-.3 20 0 30-.3 3.7 4.3 3.1 6.8 3.8.3-11.4.1-22.7 0-34-2.2 0-4.5 0-6.8.2m67 0c-.2 11.2-.3 22.5 0 33.8 2.1-.5 4.3-.6 6.2-1.6 1-1.9.6-4.2.8-6.3-.2-8.6.2-17.3-.2-26H158m-50 34c-.2 5-.2 9.8 0 14.8l6.4-.3c.3-4.8.2-9.6.2-14.3l-6.7-.2m33.3.1l.1 14.4 6.4.2c.3-4.9.3-9.8.2-14.7l-6.7.1M15 161.6V223h20.5l10.3-.1c7.2.2 14.5.1 21.7 0h120.8c7.3.2 14.6.2 21.9 0h10.3l20.5.1v-61.4l-12 .2c-8.2-.4-16.3-.2-24.4-.2H51.4c-8.2 0-16.5-.2-24.7.2l-11.7-.2z"/><path fill="#f9b365" d="M170 0h57c.2 8.5-.6 17 .5 25.4-15.5-.8-31-.2-46.5-.4-4.4 0-8.8.7-13.3.3l2.2-.4c.3-8.3 0-16.6 0-24.9z"/><path fill="#fff" d="M21.8 65.4c6.4 4.2 13 8.3 19.2 12.9l3.3.3-1.8.2-.9-.2v31.3l-1.2 1.7H22c-.4-15.3-.1-30.8-.1-46.2zm194.1 12.3c6-4.3 12-8.7 18.3-12.3 0 15.5.4 30.9-.1 46.3-6.2-.1-12.4 0-18.6 0l-1.1-1.8v-8c0-7.5-.2-15 0-22.4h-2.3l-.9-.2c1.3-1.3 3-1.3 4.7-1.6zM53 85.8l.8.7 1.8 1c3 2.7 6.6 4.8 10.3 6.5 1 .9 1.7 1.9 2.4 3H53.4L53 85.8zm149.2.8l.7-.8c0 3.8-.3 7.5-.3 11.3h-2.8l-12-.1 1.4-1.8.9-1.1c3.6-2 7.4-3.9 10.2-7 .5 0 1.4-.3 2-.5zM80.8 104.8c3.3 2 7 3.8 9.5 6.7-3 .2-6.1.1-9.3.2l-.3-2.3v-4.6zm84 6.8c3.4-2.4 6.8-4.8 10.5-6.8v4.7l-.3 2.2h-10.2z"/><path fill="#e7a660" d="M91 78h7c0 11.2.2 22.5-.1 33.8-2.5-.6-7 0-6.8-3.8-.3-10-.1-20 0-30zm67.1 0h6.8c.4 8.7 0 17.4.2 26-.2 2.1.2 4.4-.8 6.3-2 1-4.1 1.1-6.2 1.6-.3-11.3-.2-22.6 0-33.9z"/><path fill="#2b3c42" d="M41.6 78.6l1 .2c3.3 2.6 6.7 5.1 10.5 7 0 3.8.3 7.5.3 11.3H56l-2.9 1v3.5a50 50 0 0 0-11.6.3V78.6zm170.5.9h2.4c-.3 7.5 0 15-.1 22.4-3.9-.6-7.8-.7-11.6-.3v-3.4l-3-1.1h2.8c0-3.8.2-7.5.3-11.3 3.2-1.6 6.3-3.6 8.7-6.3h.5z"/><path fill="#b7b0a7" d="M53.8 86.5l.8-.5 1 .5v1l-1.9-1zm146.7-.2l1-.3.7.6-1.9.6.2-.9z"/><path fill="#293c42" d="M66 94c3 2.6 6.3 5 9.5 7.4-2.5 0-5 .3-7.4.4l.2-4.9c-.7-1-1.5-2-2.4-2.9zm122.6.6a89 89 0 0 0 1.5-.5l-1 1-1.3 1.9.1 4.8c-2.5 0-5-.2-7.7-.4 2.6-2.5 6.3-3.7 8.4-6.8z"/><path fill="#1e2a2e" d="M56.1 97h12.2l-.2 4.8-.2 5.2H53.2v-8.9l3-1zm131.7 0h12l3 1.2v8.7c-5 .2-9.8.1-14.7 0l-.2-5-.1-5z"/><path fill="#3c565d" d="M41.6 101.9c3.9-.6 7.8-.6 11.6-.3v5.3c5 .2 9.8.2 14.7 0l.2-5.1 7.4-.4c2 .1 3.2 2 4.7 2.9l.4 2.2v3l-.8 2.2c-12.7-.3-25.4.2-38.2-.2v-9.6zm137.9-.5h.7l7.7.4.2 5.1c4.9.1 9.8.2 14.7 0v-5.3c3.8-.4 7.7-.3 11.6.3v9.6c-12.8.4-25.5 0-38.2.2l-.9-2.3v-2.9l.5-2.1 3.7-3z"/><path fill="#d09454" d="M108 112c2.2 0 4.5 0 6.7.2 0 4.7 0 9.5-.2 14.3l-6.3.3c-.3-5-.3-9.9-.2-14.8zm33.3.1h6.7c0 4.8 0 9.7-.2 14.6l-6.4-.2c-.2-4.8-.1-9.6 0-14.4z"/><path fill="#a77191" d="M15 161.6c3.9 0 7.8 0 11.7.2V186h24.7v-24.5h153.2V186h24.3v-24.3l12.1-.2V223h-20.5c1.2-8.9.5-17.8.4-26.7H35.1c0 8.9-.9 17.9.4 26.7H15v-61.4z"/><path fill="#ececec" d="M26.7 161.8c8.2-.4 16.5-.2 24.8-.2v24.5H26.6v-24.3zm177.9-.2c8 0 16.2-.2 24.3.2V186h-24.3v-24.5zM46 208h21c0 5-.1 10 .5 15l-21.7-.1c.2-5 .2-10 .2-15zm142.3 0a449 449 0 0 1 21.7 0c0 5 0 10 .2 14.9-7.3.2-14.6.2-21.9 0v-14.8z"/><path fill="#cb98c0" d="M35 196.3h186c0 8.9.7 17.8-.5 26.7l-10.3-.1c-.2-5-.2-10-.2-15a449 449 0 0 0-21.7.2v14.8H67.5c-.6-5-.5-10-.5-14.9H46c0 5 0 10-.2 14.9H35.5c-1.3-8.7-.5-17.7-.4-26.6z"/></svg>