<svg xmlns="http://www.w3.org/2000/svg" viewBox="0 0 256 256"><path fill="#84c5d6" d="M22.5 0h210.8A25.4 25.4 0 0 1 256 22.4v211.1c-1 11.6-11 21.5-22.5 22.5H22.6A25.4 25.4 0 0 1 0 233.6V22.5C1 10.9 11 1 22.5 0M19 59v78c5.8-.2 11.6.5 17.3.2 13-.3 25.8 0 38.7-.2V59c-13 0-25.9.2-38.8-.1-5.7-.3-11.5.4-17.2.1m201-.1c-13.4.3-26.7 0-40 .1v78c13.2.2 26.5 0 39.7.2 5.7.3 11.5-.4 17.3-.2V59c-4.5-.1-9 .3-13.5-.3-1.2 0-2.4-.4-3.6.2m-105.6 96.3v9.7h6.6v-10c-2.2-.1-4.4 0-6.6.3m20.5-.2c-.3 3.3-.2 6.7 0 10h6.1v-10.2c-2 0-4 0-6.1.2M17 165v39h221.6v-39H164c-2 .1-4.3-.5-6 1-5.2 3.4-10.8 6.5-16.2 9.9-3.2 2-7.1.8-10.7 1.1-5.3-.2-10.8.6-16-.4-6-3.5-11.8-7.3-17.8-10.8-1.9-1.2-4.1-.7-6.2-.8H17z"/><path fill="#fff" d="M19 59c5.8.3 11.6-.4 17.2-.1H33c.2 19 0 38 .1 57.2l-.1 21h3.4c-5.7.4-11.5-.3-17.3 0V59zm201-.1c1-.5 2.3-.3 3.5-.1 4.5.5 9 0 13.5.2v78c-5.8-.2-11.6.5-17.3.2h3.4c-.2-7 0-14.1-.1-21.1V58.8h-3zM44 63h20v19H44V63zm147 0h20v19h-20V63z"/><path fill="#331e29" d="M33 58.8h3.2c13 .4 25.9.1 38.8.2v57.3c-3.7-.2-7.3-.4-11-.3V63H44v53H33V58.9zm147 .2c13.3 0 26.6.2 40-.1l3-.1v57.3l-11.8-.1c-.5-11.4-.1-22.7-.2-34V63h-20v52.9l-11 .1V59z"/><path fill="#151c18" d="M44 82h20v43l-20 .1V82zm147 0h20c.1 11.3-.3 22.6.2 34l-.1 9.1h-20l-.1-9.2V82z"/><path fill="#91526d" d="M33 116h11v9.1h20v-9c3.7-.2 7.3 0 11 .2V137c-12.9.2-25.8 0-38.7.2H33c.2-7 0-14.1.1-21.1zm147 0l11-.1v9.1c6.7.2 13.4.1 20 .1.2-3 .3-6.1.2-9.1H223l.1 21.2h-3.4c-13.2-.3-26.5 0-39.7-.1V116z"/><path fill="#70a6b5" d="M114.3 155.2c2.2-.3 4.4-.4 6.6-.4V165h-6.6v-9.8z"/><path fill="#73a7b5" d="M134.8 155l6.1-.2V165h-6.1c-.2-3.3-.3-6.7 0-10z"/><path fill="#994b78" d="M17 165h74c2 0 4.3-.4 6.2.8 6 3.5 11.8 7.3 17.8 10.8 5.2 1 10.7.2 16 .4 3.6-.3 7.5.9 10.7-1.1 5.4-3.4 11-6.5 16.3-10 1.6-1.4 4-.8 6-1 24.9.2 49.8 0 74.7.1v39H216c-.2-6.7-.1-13.4 0-20H40v20H17v-39z"/><path fill="#d084ad" d="M40 184h176c-.1 6.6-.2 13.3 0 20H40v-20z"/></svg>