<svg xmlns="http://www.w3.org/2000/svg" viewBox="0 0 256 256"><path fill="#75a4db" d="M22.4 0h211A25.4 25.4 0 0 1 256 22.3v108.8c-7-.2-14.1.8-21-.8V65.8h-47.1c-.5 1.4-1 2.8-1.3 4.2-1.6 6-2.7 12.1-4.8 18-1.5 7.5-3.8 14.7-5.3 22.2-3.5 11.7-5.9 23.8-9.3 35.5 15.6.3 31.2 0 46.8.2h42v84.8c-17 0-33.8.2-50.8-.1-51.5.2-103 .2-154.6 0-16.9.3-33.7 0-50.6.1V146h20c.4-5 .4-9.8 0-14.7-6.7-.2-13.3 0-20-.1V22.4A25.5 25.5 0 0 1 22.4 0M21 65.8v79.9c7 .3 14 0 21 .2 15.5-.2 31-.2 46.6 0-3.5-13-6.7-26.2-10.1-39.2v.9c-1.1-6.7-3.4-13-4.7-19.6-1.8-6-3.3-12-4.6-18L68 65.8H21m95.2 91.4a95 95 0 0 0 0 10.6l5.9.3c.4-3.7.4-7.4 0-11.1-2 0-4 0-5.9.2m17.7-.2a53 53 0 0 0 0 11l5.9-.1c.1-3.6.2-7.2 0-10.8l-6-.1M27.2 170.2c-.2 11.6 0 23.2 0 34.8h161c2.5 0 5 .5 7.5 1l-.1-1h32.7v-34.8l-7.2-.1c-6 .2-12 .2-18 0-17.2.4-34.4-.2-51.6.3-3.5 2.7-6.3 6.3-9.7 9.3h-28.2c-3-3.3-6.1-6.5-9.5-9.4-17-.3-34 .1-51-.2a523 523 0 0 0-26 .2z"/><path fill="#fff" d="M21 65.8h21V146c-7-.3-14 0-21-.3V65.8zm193 0h21V146h-21V66zM53.6 70h15.6c1.3 6 2.8 12 4.6 18H53.7V70zm128.2 18c2-5.9 3.2-12 4.8-18H202v18h-20.2z"/><path fill="#70473f" d="M42 65.9c8.7-.2 17.4 0 26 0l1.2 4-15.6.1v18H60c-.3 14 0 28.1-.1 42.2l-1.2-6c-5.5-.1-11.8-1.7-16.6 1.8V66zm145.9-.1h26l.1 60.2c-4.9-3.4-11-2-16.6-1.8l-1.2 6c-.2-14 .2-28.1-.1-42.2h6V70h-15.5l1.3-4.2z"/><path fill="#261915" d="M60 88h13.8c1.3 6.6 3.6 13 4.6 19.6-.3 7.5-.2 15-.5 22.5-6 .2-12 0-18.1.1.2-14-.2-28.1.1-42.2zm121.8 0h14.3c.3 14 0 28.1.1 42.2h-19.1c-.4-6.7 0-13.4-.6-20 1.5-7.5 3.8-14.8 5.3-22.2z"/><path fill="#7e4f47" d="M78.4 107.6v-1C82 119.8 85 133 88.7 146c-15.5-.2-31-.2-46.6 0v-20c4.8-3.5 11.1-2 16.6-1.8l1.2 6H78c.3-7.6.2-15.1.5-22.6zm88.8 38.1c3.4-11.7 5.8-23.8 9.3-35.5.7 6.6.2 13.3.6 20h19.1l1.2-6c5.5-.1 11.7-1.6 16.6 1.8v19.9c-15.6-.3-31.2 0-46.8-.2z"/><path fill="#6892c3" d="M235 130.3c6.9 1.5 14 .6 21 .8V146c-7-.2-14 0-21 0v-15.7zM0 131c6.7.2 13.3 0 20 .2a89 89 0 0 1 0 14.6c-6.7.2-13.3 0-20 0v-14.7z"/><path fill="#6590c0" d="M116.2 157.2c2-.2 4-.2 5.9-.2.4 3.7.4 7.4 0 11-2 0-3.9 0-5.8-.2a95 95 0 0 1 0-10.7zm17.7-.2l5.9.1c.2 3.6.1 7.2 0 10.8l-5.9.1a53 53 0 0 1 0-11z"/><path fill="#994b78" d="M27 170.2l8-.1v17h18v-17c17 .3 34 0 51 .2 3.4 2.9 6.5 6.1 9.5 9.4h28.2c3.4-3 6.2-6.6 9.7-9.3 17.2-.5 34.4 0 51.6-.3V187h18v-17l7.2.2V205h-32.7c-1-6-.2-12-.5-18H60.3c-.2 6 0 12-.3 18H27v-34.8z"/><path fill="#e4f0f7" d="M35 170c6 .3 12 .3 18 0v17H35v-17zm168 0c6 .3 12 .3 18 0v17h-18v-17z"/><path fill="#d084ad" d="M60.3 187H195c.3 6-.4 12 .5 18l.1 1c-2.5-.5-5-1-7.6-1H60c.3-6 .1-12 .3-18z"/><path fill="#e1d1af" d="M0 230.7c16.9 0 33.7.2 50.6-.1 3.3 8.5 6.4 17 10 25.4h-38A25.4 25.4 0 0 1 0 233.6v-2.9zm205.3-.1c16.9.3 33.8 0 50.7.1v2.9c-1 11.5-11 21.3-22.4 22.4h-38.1c3-8.5 6.2-17 9.8-25.4z"/><path fill="#546165" d="M50.6 230.6c51.5.2 103.1.2 154.7 0-3.6 8.3-6.7 16.9-9.8 25.4h-135c-3.5-8.4-6.6-17-10-25.4z"/></svg>