<svg xmlns="http://www.w3.org/2000/svg" viewBox="0 0 256 257"><path fill="#94b7e1" d="M22.4 0h40c2.6 6.7 3.7 13.8 5.8 20.7H188c2.3-6.8 3.7-13.9 6-20.7h39.5A25.5 25.5 0 0 1 256 22.3v169c-4.4.2-8.8 0-13-.7V178H14v12.4c-4.6.9-9.3 1.1-14 .9v-169A25.5 25.5 0 0 1 22.4 0M20 58.1c.4 18.3 0 36.6.1 54.9 10 .5 19.8-.2 29.7.4a442 442 0 0 1 28.2 0c5.6-.4 11.2-.2 16.8-.3-5.3-4.6-11-8.7-17-12.3v-.5L70 95v-.4a80.3 80.3 0 0 1-7-4.8 53 53 0 0 0-8.6-6v-1l-2.2-.4A171 171 0 0 0 50 80c-10-7.3-20.2-14.3-30-22m187.5 21.2l-.7 3v-2a101 101 0 0 1-5.5 2.3l-1.4 2a24.3 24.3 0 0 1-5.8 4.6c-2.7 2-5.3 4-8 5.8l-7.2 5v.7c-5.9 3.7-11.7 7.7-17 12.4 5.7.1 11.4 0 17 .3 9.3-.4 18.6-.1 27.8-.2H236V59c-9.8 6.2-18.8 13.7-28.4 20.2M96 82a534 534 0 0 0-.1 31l7.8-.1c.2-10.3 0-20.6 0-30.8H96m57 0V113h6.9c1.9-10.1.6-20.5.8-30.9H153m-59 63.7l-.3 6.2c2.3.5 4.6.8 7 1 0 1.7.2 3.4.3 5 18.3.1 36.5.2 54.7 0l.4-5 6-.9c-.2-2-.2-4.2-.3-6.3l-12.3-.2c-.4 2.1-.8 4.3-1 6.5-10.5.3-21 0-31.6.1-3.3 0-6.9.6-9.7-1.5l-.1-4.9c-4.4-.1-8.7-.2-13 0z"/><path fill="#a58b6d" d="M62.5 0h131.4c-2.2 6.8-3.6 13.9-6 20.7H68.3c-2-6.9-3.2-14-5.7-20.7z"/><path fill="#fff" d="M20 58.1c9.8 7.6 20 14.6 30 21.8v33.5c-10-.6-19.9 0-29.8-.4 0-18.3.3-36.6-.1-54.9zm187.5 21.2c9.7-6.5 18.6-14 28.4-20.2v54h-29.2V82.3l.8-3zM54.4 83.7c3 1.7 6 3.7 8.6 6V93h-7.5c-2-2.6-.9-6.2-1-9.3zm146.7-.4l1.3 2V93l-2.7.1H194v-3.8a27 27 0 0 0 6-4.5l1.1-1.4zM78 100.8c6 3.6 11.6 7.7 16.9 12.3-5.6.1-11.2 0-16.8.3l-.1-7.7v-4.9zm83.9 12.2a136 136 0 0 1 17-12.3v12.7c-5.6-.3-11.3-.2-17-.3zM40.6 178H64v14H40.6v-14zm152.3 0h23.3v14h-23.3v-14zM41.6 212H64v11l-22.3-.1c-.1-3.7-.2-7.3 0-11zm151.4 0h22.6a249 249 0 0 0-.1 11h-22.7l.2-11zm-179.1.7h14L28 223H13.7c0-3.5 0-6.9.2-10.3zm215.1 0h14V223h-14v-10.3z"/><path fill="#635142" d="M50 79.9l2.2 2.4 2.2.3v1c.2 3.2-1 6.8 1.1 9.4 2.6 3 1.8 7 1.8 10.6l-7.3 2V80zM70 95l8 5.3v5.4a72 72 0 0 0-8-2v-8.8zm109 5l7-5-.1 8.7-7 1.7V100z"/><path fill="#5a4939" d="M201.3 82.6a101 101 0 0 0 5.5-2.4v2.1c-.2 6.5-.1 13 0 19.5l-6.5 2.7-1 3a74 74 0 0 1-13.3-.2c4.3-.2 8.6-.3 13-.3 0-4.7 0-9.4.7-14h2.6v-7.6c-.3-.7-.7-1.4-1.2-2l-1.2 1.3 1.4-2z"/><path fill="#89acd3" d="M96.1 82.1h7.8V113h-8c0-10.3-.2-20.6.2-30.9zm57 .1h7.8c-.3 10.3 1 20.7-1 30.9l-6.8-.1V82.2z"/><path fill="#312921" d="M186 95c2.8-1.9 5.4-3.9 8-5.8V93h5.7c-.7 4.6-.7 9.3-.7 14-4.4 0-8.7 0-13 .3l-.1-3.6c0-3 0-5.8.2-8.7zM63 89.7c2.3 1.7 4.6 3.3 7 4.8v12.8H57.2l.1-3.7c0-3.6.8-7.7-1.8-10.6H63v-3.3z"/><path fill="#7b6552" d="M200.3 104.5l6.5-2.7v11.4c-9.3.1-18.6-.2-27.8.2v-8c2.3-.6 4.6-1.3 6.9-1.7v3.6c4.5.6 9 .5 13.4.3l1-3zM50 105.7l7.3-2.1v3.6c4.2.1 8.4.2 12.7.1v-3.7l8 2v7.8c-9.3-.3-18.7-.3-28 0v-7.7z"/><path fill="#7b98ba" d="M94.2 145.8c4.3-.2 8.6-.1 13 0l.1 5c-4 2.3-9 .6-13.5 1.2l.4-6.2zm55.4-.2l12.3.3.2 6.2c-4-.2-7.9-.3-11.8-.2l-.8-6.3z"/><path fill="#84a4c8" d="M148.7 152c.2-2.1.5-4.3.9-6.4l.7 6.3c4 0 7.9 0 11.8.2l-5.9 1-.4 4.9c-18.2.2-36.4.1-54.7 0l-.3-5c-2.4-.2-4.7-.5-7-1 4.5-.6 9.5 1.1 13.5-1.3 2.8 2.1 6.5 1.5 9.7 1.5 10.6-.1 21.1.2 31.7-.1z"/><path fill="#6b4b4a" d="M14 178h26.6v14H64v-14h128.9v14h23.3v-14H243v34.6h-14V223h-13.5v-11c.2-3.5 0-7 0-10.5l-174.5.1.1 10.3v11L28 223v-10.3H13.9c.2-7.5 0-14.9 0-22.3V178z"/><path fill="#e1d1af" d="M0 191.3c4.7.2 9.4 0 14-1 0 7.5.1 15-.1 22.4-.2 3.4-.2 6.8-.2 10.3h27.5v-11h.4v10.9c7.5.2 15 0 22.4.1h128.8a2857.7 2857.7 0 0 0 36.1 0h14l.1-10.3v-22.1c4.2.7 8.6.9 13 .7v42.4a25.5 25.5 0 0 1-19.8 21.9l.3 1.4H19l1.5-1.1A26 26 0 0 1 0 233.7v-42.4z"/><path fill="#b76b7e" d="M41 201.6h174.4c.2 3.4.3 7 .2 10.5L193 212l-.2 11H64v-11H41.1v-10.4z"/></svg>