<svg xmlns="http://www.w3.org/2000/svg" viewBox="0 0 256 256"><path fill="#639039" d="M17.4 0h221.2c9.3 3 16.4 11.6 17.4 21.3v5.4a93 93 0 0 0-16-.7H68L57.1 36.3v4h-22c.1 20.1.2 40.3 0 60.5 6.7 0 13.5-.3 20.2 0l1.4.8.8 1.1c-.3 3.1-.6 6.2-.6 9.3H20v103.7h23.8c4.5-.1 9 .2 13.4.6 2.9 3 5.4 6.2 8.5 9 1.6 1.7 4.1 1.3 6.3 1.4h28V256H21.9c1-2.4-3-2.4-2.1 0h-.4l-.2-2C9 252.5 1.2 242.9 0 232.8V21.4C1 11.6 8.1 3.1 17.4 0z"/><path fill="#8cc56b" d="M57.2 36.3L68 26h172a93 93 0 0 1 16.1.7v205.8a26 26 0 0 1-20.3 22.4l1.5 1.1H100v-29.3H72c-2.2 0-4.7.3-6.3-1.4-3-2.8-5.6-6-8.5-9-.1-34.7.4-69.5-.2-104.3 0-3 .3-6.2.5-9.3.5-3.6-.4-7.2-.4-10.8.2-17.2 0-34.4.1-51.6v-4m37.6 25.9c.1 36.8-.2 73.7.1 110.5h110.5V62.2H94.7zM20 112h23.8c-.1 34.5-.2 69 0 103.6H20c-.2-34.5 0-69-.1-103.6z"/><path fill="#ef7d4a" d="M35.2 40.2h22L57.1 92c0 3.6.9 7.2.4 10.8l-.7-1.1-1.4-.8c-6.7-.3-13.5 0-20.2 0 .2-20.2.1-40.4 0-60.6z"/><path fill="#ffeb9f" d="M94.8 62.2h110.5v110.5H95c-.3-36.8 0-73.7-.1-110.5M109.7 77v81h80.8V77h-80.8z"/><path fill="#2b2a29" d="M109.7 77h80.8v81h-80.8V77m17.6 5.2v45.5h45.4V82.3h-45.4z"/><path fill="#757775" d="M127.3 82.2h45.4v45.5h-45.4V82.2z"/><path fill="#709e54" d="M43.8 112H57c.6 34.8 0 69.6.2 104.3-4.4-.4-9-.7-13.4-.7-.2-34.5-.1-69 0-103.6z"/><path fill="#4e732d" d="M19.8 256c-1-2.4 3.1-2.4 2 0h-2z" opacity=".8"/></svg>