<svg xmlns="http://www.w3.org/2000/svg" viewBox="0 0 256 256"><path fill="#639039" d="M22.2 0h19c.3 10.4 0 20.8.1 31.3H0v-9A25.6 25.6 0 0 1 22.2 0zM155 0h78.7A25.5 25.5 0 0 1 256 22.2v211.6c-.4 2.4-1 4.9-2 7.2h-62l.1-22h42v-86h-42V43.9c-4.4-3.8-7.4-9.2-12.3-12.4-8.3-.5-16.6 0-24.9-.3.3-10.4.1-20.8.2-31.2z"/><g fill="#b5d575"><path d="M41.2 0H155c-.1 10.4.1 20.8-.2 31.2 8.3.4 16.6-.2 25 .3 4.8 3.2 7.8 8.6 12.2 12.4v89l42 .1v86h-42v37H76c-.5-23.2 0-46.5-.3-69.7-11.2-.5-22.4.1-33.6-.4-.2-16.3-.3-32.5 0-48.8 12 0 23.9-.3 35.8.2l-.2 7H145c-.3-11.7.5-23.4-.4-35 .7-10.4.5-20.8.3-31.1-22.2-.3-44.5-.3-66.7 0-.3 7.2 0 14.5-.2 21.8-.3 3.4 1.1 6.5 2.4 9.5l-2.7.2.2 3.5-1.2-3-.8 2.6c-19.2.5-38.4 0-57.6.3-.5 24.3.1 48.6-.3 72.8-6 .4-12 .1-17.9.1V31.3h41.3c0-10.5.2-20.9-.1-31.3z"/><path d="M0 205.7c16.6.1 33.3-.2 49.9.2.3 12.7 0 25.4.1 38.2.2 4-1 8.7 2.1 11.9H22.4A25.5 25.5 0 0 1 0 233.7v-28zM213.9 241h40.2a25.7 25.7 0 0 1-20.4 15h-21.8c3.6-4.1 1.7-10 2-15z"/></g><path fill="#adcb70" d="M78 78.2c22.3-.3 44.6-.3 66.8 0a375 375 0 0 1-.3 31c-6.6.6-13 .2-19.6.3H80.2c-1.2-3-2.6-6.1-2.3-9.5.2-7.3-.1-14.6.2-21.8z"/><path fill="#eff0ef" d="M77.6 109.7l2.7-.2h15.9l-.1 17.8h28.8v-17.8c6.5-.1 13 .3 19.6-.2.9 11.6.1 23.3.4 35H77.7l.2-7c0-8 .2-16-.1-24l-.2-3.6z"/><path fill="#a5c36b" d="M75.8 112.8l.8-2.5 1.2 3c.3 8 .1 16 0 24-11.8-.5-23.8-.2-35.6-.2-.4 16.3-.3 32.6 0 48.8 11.1.5 22.3 0 33.5.4.3 23.2-.2 46.5.3 69.7H52c-3.1-3.2-1.9-8-2-12-.2-12.7.1-25.4-.2-38.1-16.6-.4-33.3 0-49.9-.2V186c6 0 12 .3 17.9 0 .4-24.3-.2-48.6.3-72.9 19.2-.3 38.4.2 57.6-.3zM192 241h21.9c-.3 5 1.6 10.9-2 15H192l-.1-15z"/><path fill="#3c3c3c" d="M96.2 109.5h28.7v17.8H96v-17.8z"/></svg>