<svg xmlns="http://www.w3.org/2000/svg" viewBox="0 0 256 256"><path fill="#756f89" d="M22.2 0h211.6A25.6 25.6 0 0 1 256 22.2v174.4c-9.4-.3-19-.2-28.4 0 .2 12.3 0 24.7.1 37.1.3 7.4-.1 14.9.2 22.3h-38.1c-.3-8.7 0-17.4-.1-26 .3-2.6-2.2-4.6-4.6-4.3H161c-3.4-.4-6 2.2-8.7 3.8-.4 8.8-.1 17.7-.2 26.5H104c-.2-7.7 0-15.4 0-23 .4-4-3.7-6.1-6.9-7.2-7.6-.5-15.3 0-23-.2-2.6 0-6.3-.3-7.5 2.7-.5 9.2 0 18.5-.3 27.7h-38v-22.3c.3-12.4 0-24.8.2-37.1-9.5-.5-19 .4-28.4-.5V22.2A25.6 25.6 0 0 1 22.2 0M16 30c-.2 36.6-.2 73.3 0 110h84V30H15.8M156 30v110c28 0 55.8.2 83.7-.1V30.2c-6.6-.5-13.2-.2-19.8-.2H156m-55 116c-.2 10-.2 20.2 0 30.3V187h12l-.1-10.8H143c-.2 3.6-.2 7.2 0 10.8l11.7-.1c.3-3.5.3-7 .1-10.6.3-10 .3-20.2 0-30.3h-54z"/><path fill="#db7570" d="M15.8 30h20.3c.5 3 .9 6 .8 9-.2 17.3 0 34.7-.1 52 0 2.3-.3 4.6.4 6.8 1.2.2 2.5.4 3.8.4h59V140H15.8V30zm204.1 0c6.6 0 13.2-.3 19.8.2v109.7c-27.9.3-55.8 0-83.7.1V98.2c21-.2 42 .1 63-.1.4-15.7 0-31.4.2-47.1 0-7-.6-14 .7-21z"/><path fill="#ec7d78" d="M36.1 30H100v68.2H41c-1.3 0-2.6-.2-3.8-.4-.7-2.2-.4-4.5-.4-6.8l.1-52c.1-3-.3-6-.8-9m21.4 6.5c-.3 11.8 0 23.6-.2 35.3 11 .6 22 .3 33 .2V36.6c-11-.3-22-.2-32.8-.1zM156 30h63.9c-1.3 7-.6 14-.7 21-.2 15.7.2 31.4-.2 47-21 .3-42 0-63 .2V30m9.2 6.3c-.5 12-.1 23.9-.2 35.8 11.2 0 22.5.3 33.7-.2-.3-11.8.3-23.5-.3-35.2-11-.7-22.1 0-33.2-.4z"/><path fill="#ecbcba" d="M57.5 36.5c10.9-.1 21.8-.2 32.8 0V72c-11 0-22 .4-33-.2.2-11.7 0-23.5.2-35.3zm107.7-.2c11 .4 22.2-.3 33.2.4.6 11.7 0 23.4.3 35.2-11.2.5-22.5.1-33.7.1 0-11.9-.3-23.8.2-35.7z"/><path fill="#5d8fa5" d="M101 146h54c.2 10 .2 20.2 0 30.3h-12a2763.8 2763.8 0 0 1-42 0c-.2-10-.2-20.2 0-30.3z"/><path fill="#e7f1f7" d="M101 176.3h12c.2 3.5.2 7.1 0 10.7h-12v-10.7zm42 0h12c0 3.5 0 7-.2 10.6l-11.8.1v-10.8z"/><path fill="#e9f1f9" d="M0 196c9.4 1 19 .1 28.4.6-.2 12.3 0 24.7-.1 37.1H0v-37.6zm227.6.5c9.5 0 19-.2 28.4 0v38-.9c-9.4.2-18.8 0-28.3.1-.1-12.4 0-24.8 0-37.2z"/><path fill="#5d90a5" d="M66.5 228.3c1.2-3 4.9-2.7 7.5-2.7 7.7.3 15.4-.3 23 .2 3.2 1 7.3 3.3 6.9 7.2 0 7.6-.2 15.3 0 23H66.2c.3-9.2-.2-18.5.3-27.7zm85.8 1.2c2.7-1.6 5.3-4.2 8.7-3.9h24c2.5-.2 5 1.8 4.7 4.3.2 8.7-.2 17.4.1 26.1h-37.7c0-8.8-.2-17.7.2-26.5z"/><path fill="#605f60" d="M0 233.8c9.4-.2 18.8 0 28.3 0-.2 7.3 0 14.8-.2 22.2h-5.9A26 26 0 0 1 0 234.6v-.8zm227.7-.1H256a25.5 25.5 0 0 1-22.2 22.3h-5.9c-.3-7.4 0-14.9-.2-22.3z"/></svg>