<svg xmlns="http://www.w3.org/2000/svg" viewBox="0 0 256 256"><path fill="#639039" d="M17.5 0h72.3c-.5 14.6-.2 29.3-.2 44H0V20.6A26 26 0 0 1 17.5 0zm149 0h72A26 26 0 0 1 256 20.5v23.7c-29.9-.5-59.8 0-89.7-.2.3-14.7 0-29.3.2-44z"/><path fill="#eff1f1" d="M89.8 0h76.7c-.2 14.7.1 29.3-.2 44H89.6c0-14.7-.3-29.4.2-44z"/><path fill="#e4b370" d="M0 44h166.4c29.8.2 59.7-.3 89.6.2v188.5a25.2 25.2 0 0 1-19.7 21.8l.3 1.5H19.2l.7-1.4A25.4 25.4 0 0 1 0 232.7V44m40.3 62v34c11.6.3 23.1.1 34.7 0v-34c-11.6.2-23.1-.3-34.7 0m140.7 0v34c11.6.1 23.1.3 34.7 0v-34c-11.6-.2-23.1.2-34.7 0M65.2 152.2c-2.2 2.6-6.3 4.7-5.5 8.7.1 23.4-.2 46.7.1 70 2 3.8 4.5 7.7 7.2 10.9h121.7c2.7-4 7.5-7.5 7-12.8v-71.7c-2.2-2-4-4.9-6.7-6.3-40-.2-80 0-120 0-1.4-.1-3 0-3.8 1.2z"/><path fill="#423a36" d="M40.3 106c11.6-.3 23.1.2 34.7 0v34c-11.6.1-23.1.3-34.7 0v-34m12.8 2.1L53 121h13.2v-13l-13.2.1zM181 106c11.6.2 23.1-.2 34.7 0v34c-11.6.3-23.1.1-34.7 0v-34m8.8 2v13H203v-12.9h-13.2z"/><path fill="#fffcff" d="M53 108.1h13.2V121H53v-12.9zm136.8-.1l13.1.1c.2 4.3.1 8.6.1 12.9h-13.2v-13z"/><path fill="#de90ba" d="M65.2 152.2c.9-1.2 2.4-1.3 3.9-1.3 40 .2 80 0 120 .2 2.7 1.3 4.4 4.1 6.6 6.2V229c.5 5.3-4.3 8.8-7 12.8H67c-2.7-3.2-5.1-7-7.2-10.8-.3-23.4 0-46.7-.1-70-.8-4 3.3-6.2 5.5-8.8m34 9c-.4 8-.3 16-.2 24 7 .3 14 0 21 .1 1.5-.2 3.4.5 4.6-.6.2-7.8 0-15.5 0-23.3-8.4 0-17 .2-25.4-.1z"/><path fill="#ecbbd6" d="M99.2 161.3c8.5.3 17 0 25.5.1 0 7.8.1 15.5-.1 23.3-1.2 1-3.1.4-4.6.6-7-.1-14 .2-21-.1-.1-8-.2-16 .2-24z"/></svg>