<svg xmlns="http://www.w3.org/2000/svg" viewBox="0 0 256 256"><path fill="#dec968" d="M22.1 0h211.7A25.8 25.8 0 0 1 256 21.6v108.3c-85.3-.2-170.7 0-256 0V22.2A25.6 25.6 0 0 1 22.1 0m-2.4 46v48h76.5c-3.1-3.4-5.6-7.6-9.6-10-5.1-6.6-11.2-12.3-17-18.2-1.3-.1-2.6-.2-3.8-.6l3.7-.3c-6.7-5.8-12-12.8-18.4-19l-31.4.1m185.5 0c-6 6.4-12.1 12.5-17.7 19.2-3.1 2.2-5.4 5.4-8 8.3-3.3 3.5-7 6.5-10 10.4-3.1 3.5-6.6 6.7-9.8 10.1H237V46h-31.8zM0 146.3c7.9 1.6 16 .8 24 1h43.9c5.1 11.5 10.3 23 14.7 34.8-27.5.3-55 .2-82.6 0v-35.8zm242 1c4.7.1 9.4 0 14-1v35.8c-17.7.3-35.4 0-53 .1-9.8 0-19.6.2-29.4-.1 3.3-8.8 7.3-17.2 10.7-26 1.3-2.8 2.3-6 4.4-8.3 2.3-.7 4.8-.6 7.3-.7 15.3.3 30.7 0 46 .2zm-158.3-.1c29.5.2 59 0 88.6 0-2.7 8.7-6.7 16.7-10.1 25-4 10.2-8.6 20.2-12.6 30.4-.8 1.8-1.5 3.6-2.7 5-2.6.6-5.3.5-7.9.5-10-.2-19.8 0-29.8-.2a6476 6476 0 0 1-25.5-60.7zM0 198h90v58H22.2A25.6 25.6 0 0 1 0 233.8V198zm167 0h89v35.8a25.6 25.6 0 0 1-22.2 22.2h-67.4c.4-4.3.7-8.7.7-13v-45zm-67 23.8c18.7-.2 37.3 0 56 0l-.1 24.2c-.1 3.4.4 6.9 1.8 10H98.4c1.3-3.2 1.8-6.6 1.7-10v-24.2z"/><path fill="#2b2c29" d="M19.7 46H51c6.4 6 11.8 13 18.5 19l-3.7.2c-3.5-.3-7-.2-10.5-.2v13.9c-7.2 2.5-14.9 1-22.3 1.5-4.6.3-9.1-.4-13.4-2V46zm185.5 0H237v32.3a32.6 32.6 0 0 1-11 2h-23.7l-1 3.6c-.1-6.3-.2-12.6 0-18.9-4.6 0-9.2-.1-13.8.2 5.6-6.7 11.8-12.8 17.7-19.2z"/><path fill="#fffffc" d="M55.3 65c3.5 0 7 0 10.5.2 1.2.4 2.5.5 3.7.6 5.9 5.9 12 11.6 17 18.2h-31V64.9zm124.1 8.5c2.7-2.9 5-6 8.1-8.3 4.6-.3 9.2-.2 13.8-.2-.2 6.3-.1 12.6 0 19l-31.8-.1c3-3.9 6.7-6.9 10-10.4z"/><path fill="#47413f" d="M19.6 78.5A33 33 0 0 0 33 80.4c7.4-.5 15.1 1 22.4-1.5v5h31.2c4 2.5 6.5 6.7 9.6 10.1H19.7V78.5zM226 80.4c3.8 0 7.4-1 11-2.1V94h-77.3c3.3-3.4 6.7-6.6 9.8-10.1h31.8l1-3.6H226z"/><path fill="#c8b65d" d="M0 129.9c85.3 0 170.7-.2 256 0v16.4c-4.6 1-9.3 1.1-14 1-15.3-.2-30.7.1-46-.2-2.5 0-5 0-7.3.7-2.1 2.3-3.1 5.4-4.4 8.3-3.4 8.8-7.4 17.2-10.7 26 9.8.3 19.6.1 29.4.1 17.6 0 35.3.2 53-.1V198h-89v45c0 4.3-.2 8.7-.6 13h-8.7c-1.4-3.1-2-6.6-1.8-10 .2-8 .1-16.1 0-24.2-18.6 0-37.2-.2-55.8 0V246c.1 3.4-.4 6.8-1.7 10H90v-58H0v-16c27.5.2 55 .3 82.6 0-4.4-11.8-9.6-23.3-14.7-34.8h-44c-8-.2-16 .6-23.9-1V130m83.7 17.3a6476 6476 0 0 0 25.5 60.7c10 .2 19.9 0 29.8.2 2.7 0 5.3 0 7.9-.4 1.2-1.5 2-3.3 2.7-5 4-10.3 8.6-20.3 12.6-30.5 3.5-8.3 7.5-16.3 10.1-25-29.5 0-59 .2-88.6 0z"/></svg>