<svg xmlns="http://www.w3.org/2000/svg" viewBox="0 0 256 257"><path fill="#f1db63" d="M22.3 0H50v62h25.7V0h104.7v62c8.8.1 17.7 0 26.5 0V0h26.8A25.5 25.5 0 0 1 256 22.4v211.2a25 25 0 0 1-19.8 21.8l.5 1.6H19.2l.8-1.4c-10.5-2-19-11.3-20-22V22.5A25.5 25.5 0 0 1 22.3 0M17 103v65.9h84.1c0-3-1.9-5.2-2.6-7.8-7.8-19.4-16.3-38.6-23.8-58.1H17m165 0c-3 4.9-4.3 10.8-7 16-5.4 13.3-11.1 26.4-16.4 39.8-.9 3.5-3.6 6.3-3.7 10H239V103h-57z"/><path fill="#a2a3b5" d="M50 0h25.7v62H50V0zm130.4 0h26.5v62h-26.6V0z"/><path fill="#bd535d" d="M17 103h57.7c7.5 19.5 16 38.7 23.8 58 .7 2.7 2.7 5 2.6 7.8H85.7c-.1-5.6-.2-11.2 0-16.9l-5.7-.3H30V169H17v-66m23.7 3.7V123h30c-.2-5.5.3-11-.3-16.5-9.9.3-19.8 0-29.7.2zM182 103h57v66h-13v-17.2c-13.7-.2-27.3 0-41 0-5 0-9.8-.3-14.7.2v17H155c0-3.8 2.8-6.6 3.7-10.1 5.3-13.4 11-26.5 16.5-39.8 2.6-5.2 3.8-11.1 7-16m3.2 20h30v-16.3c-9.9-.2-19.8.1-29.7-.2-.5 5.5 0 11-.3 16.4z"/><path fill="#ecd5d8" d="M40.7 106.7c9.9-.2 19.8.1 29.7-.2.6 5.5 0 11 .3 16.4-10 .2-20 0-30 0v-16.2zM185.3 123c.2-5.5-.3-11 .3-16.5 9.9.3 19.8 0 29.7.2V123h-30z"/><path fill="#e7a484" d="M30 151.7c16.7-.2 33.3 0 50-.1l5.7.3c-.2 5.7-.1 11.3 0 17H30v-17.2zm140.3.3c4.9-.6 9.8-.3 14.7-.4h41V169h-55.7v-17z"/></svg>