<svg xmlns="http://www.w3.org/2000/svg" viewBox="0 0 256 256"><path fill="#f7ecb7" d="M22.4 0h64.4c.8 5 .4 10 .5 15v57c0 3.3.4 6.7-.8 9.8-2.9-3.3-5.9-6.6-8.5-10.2-2.8-3.1-5.9-6-8.4-9.5-2.9-3.2-6.1-6.3-8.3-10h-2.6A18 18 0 0 0 50 41h1.3c-3.7-4.2-7.5-8.3-11-12.6-4.5-5.5-9.5-10.4-13.8-16-3-3.9-7-6.9-9.3-11.4a42 42 0 0 1 5.2-1zm146.4 0h64.7c1.6.2 3.2.5 4.7 1l.5 1.3c-3.5 3.9-7.2 7.7-10.5 11.9-3.8 4.8-8.3 9-12 14-4 4.2-7.6 8.7-11.4 12.9h1.2c-3.7 2.8-8 6-8.6 11h-2.7c-2.2 3.7-5.4 6.8-8.3 10-2.5 3.4-5.6 6.4-8.4 9.5-2.6 3.6-5.6 6.8-8.5 10.2-.6-1.5-.9-3.2-.8-4.8.1-25.7-.2-51.3.1-77zM0 98h29v8h33a29 29 0 0 0 5.8-.5c.3 5.5.2 11 .2 16.5v113.5c40-.2 80-.2 120 0V111l.3-5.5c2.2.5 4.5.6 6.7.5h32v-8h29v135.6a25.5 25.5 0 0 1-22.3 22.4H22.3A25.5 25.5 0 0 1 0 233.6V98z"/><path fill="#c69e68" d="M86.8 0h82c-.3 25.7 0 51.3-.1 77 0 1.6.2 3.3.8 4.8l-.8 1c.5 3.9-1.2 8.5 1.1 11.9l-1 .6c-.2 3.2-.2 6.4 0 9.6l1.2.3c-28-.4-56-.4-84 0l1.3-.3v-9.6l-1.1-.6c2.3-3.4.6-8 1.2-12l-.9-1c1.2-3 .7-6.4.8-9.7V15c0-5 .3-10-.5-15zM0 22.3C1 12.6 8 4 17.2 1c2.2 4.5 6.4 7.5 9.3 11.5 4.3 5.5 9.3 10.5 13.8 16-13.5-.2-26.9-.2-40.3 0v-6.2zM238.2 1A25.7 25.7 0 0 1 256 21.7v6.7l-39.8-.1c3.7-5 8.2-9.3 12-14.1 3.3-4.2 7-8 10.5-11.9 0-.3-.3-1-.5-1.3z"/><g fill="#392e26"><path d="M0 28.4c13.4-.1 26.8-.1 40.3 0 3.5 4.4 7.3 8.5 11 12.7H50c-7-.2-14 0-21-.1v57H0V28.5zM204.8 41c3.8-4.1 7.4-8.6 11.3-12.8 13.3.3 26.6 0 39.9.2V98h-29V41h-22.3z"/><path d="M43 52h18.3c2.2 3.8 5.4 6.9 8.3 10h-8v11.8a19.3 19.3 0 0 1-18.6 0V52zm151.7 0H213v21.8a18.3 18.3 0 0 1-18 0V62h-8.6c2.9-3.1 6.1-6.2 8.3-10zM78 71.6c2.6 3.6 5.6 6.9 8.5 10.2l.9 1c-.6 3.9 1.1 8.5-1.3 11.9H70V83.3h8V71.5zm91.5 10.2c3-3.4 5.9-6.6 8.5-10.2v11.8h8.2v11.3h-16.4c-2.3-3.4-.6-8-1.2-12l1-1z"/></g><g fill="#efefef"><path d="M29 41h21a18 18 0 0 1 8.7 11H43v42.6h27l16.3.1 1 .6c.2 3.2.2 6.4 0 9.6l-1.3.3c-6 0-12.2-.8-18.2.3a22 22 0 0 1-5.7.5H29V41zm177 0h21v65h-32c-2.2 0-4.5 0-6.7-.5-6-1-12.2-.3-18.3-.3l-1.3-.3v-9.6l1.1-.6H213V52h-15.6c.7-5 5-8 8.6-11z"/><path d="M61.5 73.8l.1-11.9 8 .2c2.5 3.4 5.6 6.4 8.4 9.5v11.7H61.6v-9.5zM178 71.6c2.8-3.1 5.9-6.1 8.4-9.5h8.6v21.2a1284.1 1284.1 0 0 0-17 0V71.7z"/></g><path fill="#473d36" d="M43 73.8a19.3 19.3 0 0 0 18.5 0v9.5h8.3v11.4H43v-21zm152 0a18.3 18.3 0 0 0 18 0v20.8h-27V83.4h8.8l.1-9.5z"/><path fill="#cea7b2" d="M67.8 105.5c6-1 12-.3 18.1-.3 28-.4 56.1-.4 84.1 0 6 0 12.3-.8 18.3.3l-.3 5.5v124.5c-40-.2-80-.2-120 0V122c0-5.5.1-11-.3-16.5m11.7 52l-.4.4c-.2 13-.2 26 0 39.1h98a831 831 0 0 0 0-39.6c-32.6.2-65.1 0-97.6.1z"/><path fill="#91737b" d="M79.4 157.5h97.5a831 831 0 0 1 0 39.5h-13.1c.4-8.6.4-17.2 0-25.7H92.2a293 293 0 0 0 .1 25.7H79c-.2-13-.2-26 0-39.1l.4-.4z"/><path fill="#b78291" d="M92.1 171.3H164c.3 8.5.3 17.1-.1 25.6H92.2a293 293 0 0 1 0-25.6z"/></svg>