<svg xmlns="http://www.w3.org/2000/svg" viewBox="0 0 256 256"><path fill="#d3676b" d="M22.5 0h98.7v100c.2 6.3.1 12.7-1.1 19h-15.2l.1-19c-3-1.4-6-2.6-9-3.8-2.8-1-5.5-2.3-8.3-3.5-4.6-1.6-9.2-3.3-13.7-5.2l-6.7-2.7c-4-1.4-7.9-3-11.8-4.6-9.1-3.8-18.4-7.2-27.6-11L25.7 68l-.7-.3c-8.5-3-16.6-6.6-25-9.7V22.6A25.4 25.4 0 0 1 22.5 0zM141 0h92.4A25.4 25.4 0 0 1 256 22.5V58c-8.3 3.2-16.5 6.8-25 9.8l-.7.3-2.2 1c-9.2 3.9-18.5 7.3-27.7 11l-11.7 4.7-6.7 2.7a188 188 0 0 1-13.7 5.2c-2.8 1.2-5.5 2.5-8.3 3.5l-9 3.7V119h-10.9c1-5.6 1.2-11.3 1-17V0z"/><path fill="#c66163" d="M121.2 0H141c.2 34 0 68 .1 102 .2 5.7 0 11.4-1 17h-20a85.1 85.1 0 0 0 1-19l.1-100z"/><path fill="#3f3f3f" d="M231 67.8c8.5-3 16.7-6.6 25-9.8v173h-28.5 3.6c-.3-38.4 0-76.8-.1-115.2v-48zM0 58c8.4 3.2 16.5 6.8 25 9.8v163.3h3.4c-9.4 0-19-.2-28.4-.1V58z"/><g fill="#f1f3f7"><path d="M25 67.8l.7.3 2.2 1c9.2 4 18.5 7.3 27.6 11.1v29.4h30.4V96.3l.5-3.1 1.3-.5c2.8 1.2 5.5 2.5 8.3 3.5v19c-20.7.2-41.4 0-62 .1-3 0-6 .3-9 .5v-48zm205.3.2l.7-.2v48c-8.3-.8-16.6-.4-25-.5h-46V96.2c2.8-1 5.5-2.3 8.3-3.5l1.3.5.5 3.1v13.3h30.4V80.2c9.1-3.8 18.4-7.2 27.6-11l2.2-1.1z"/><path d="M67.3 84.8c2.2 1 4.5 1.8 6.7 2.7v13.2h-6.7V84.8zM182 87.5c2.2-1 4.5-1.8 6.7-2.7a874 874 0 0 1 0 15.9H182V87.4z"/></g><path fill="#8b7778" d="M228 69.2l2.3-1.1-2.2 1z"/><path fill="#290000" d="M55.5 80.2c4 1.6 7.8 3.2 11.8 4.6v11.4c-4 .5-7.9.8-11.8 1v-17zm133.2 4.6c4-1.5 7.8-3.2 11.7-4.6.2 5.6 0 11.3.1 17-4-.2-7.9-.5-11.8-1V84.8zM74 87.5c4.5 2 9.1 3.6 13.7 5.2l-1.3.5-.5 3.1c-4 .7-8 .7-12 .1l.1-8.9zm94.3 5.2a188 188 0 0 0 13.7-5.2v9c-4 .5-8 .5-12-.2 0-.8-.3-2.3-.4-3l-1.3-.6z"/><path fill="#3c1818" d="M55.5 97.3l11.8-1v4.4H74v-4.3c4 .6 8 .6 12-.1v13.3H55.4V97.3zm114.5-1c4 .8 8 .8 12 .1v4.3h6.7v-4.5c4 .5 7.9.8 11.8 1v12.4H170V96.3z"/><path fill="#f9f5ba" d="M96 96.2l9 3.7V119H89c-.1 33.3-.2 66.7 0 100h78V119h-16v-19l9-3.7v19c15.4.2 30.7 0 46 .1 8.4.1 16.7-.3 25 .5 0 38.4-.2 76.8 0 115.3h-3.5c-50.8-.3-101.6 0-152.5-.1-15.5 0-31-.2-46.5 0h-3.6c.3-38.4 0-76.8.1-115.2 3-.3 6-.5 9-.5h62V96.2z"/><path fill="#cea8b7" d="M89 119h78l-.1 100H89c-.2-33.3-.1-66.7 0-100m9.4 47.4v27.5h8.9a3181.7 3181.7 0 0 0 50.4 0l-.1-27.5H98.4z"/><path fill="#91737b" d="M98.4 166.4h59.2V194h-8.9v-14.8c-13.8-.3-27.6-.3-41.4 0V194h-9v-27.6z"/><path fill="#b78291" d="M107.3 179c13.8-.2 27.6-.2 41.4 0v15h-41.4v-15z"/><path fill="#c08c47" d="M0 231h28.4c15.6-.2 31.1 0 46.6 0 50.9 0 101.7-.2 152.5 0H256v2.4a25.4 25.4 0 0 1-22.5 22.6H22.6A25.4 25.4 0 0 1 0 233.5V231z"/></svg>