<svg xmlns="http://www.w3.org/2000/svg" viewBox="0 0 256 256"><path fill="#fccd42" d="M22.2 0h211.5a26 26 0 0 1 19.7 13.5C215.3 38 177 62 139 86.2c-.6 7.3.2 14.5-.5 21.7-.3 1-.8 2-1.4 2.8-6.3-.4-12.7.3-19-.4l-.8-2.4c-.7-7.2.2-14.5-.4-21.7C78.9 62 40.6 38 2.7 13.5A25.8 25.8 0 0 1 22.2 0z"/><path fill="#e46239" d="M0 22.2c.5-3 1.3-6 2.7-8.7C40.7 38 78.9 61.9 117 86.2c.6 7.3-.3 14.5.4 21.7l.3 2.4c-5.8.8-11.7 0-17.5.4l-.2-2.8v-3.8l-1.5-.2c-6.3-3.8-13.1-6.5-19.5-10V96h-.4l-.5-3c-3-1-6.2-2.3-8.7-4.4-2.8-1.1-6-1.7-8-4-2.5-1-5-1.8-7.2-3-.6-1.3-2-1.5-3.2-2-9.1-4-18-8.8-27-13.3-8-3.8-15.8-8.1-24-11.8V22.2zm139 64C177.2 62 215.5 38 253.4 13.5c1.4 2.8 2.3 5.7 2.7 8.8v32.4c-8.2 3.5-16 7.9-24 11.8-9 4.3-17.9 9.2-27 13.2-1.2.5-2.6.7-3.2 2-1.9 1-4 1.8-6 2.5l-.8.2-.4.2-.2.4c-2.2 1.9-4.9 2.7-7.5 3.5-2.7 2.3-6 3.4-9 4.8-6.7 3.9-13.8 6.7-20.4 10.6l-1.5.3v3.7l-.2 2.8c-5.8-.5-11.8.5-17.5-.5l.3-2.3c.7-7.2-.1-14.4.5-21.7z"/><path fill="#3c3a39" d="M0 54.6c8.2 3.7 16 8 24 11.9V233c-8-.2-16 .5-24-.4v-178zm232 11.9c8-3.9 15.8-8.3 24-11.8v178.2c-8 .2-16 0-24 .1V66.5z"/><path fill="#f4f5f9" d="M24 66.5c9 4.4 17.9 9.1 27 13.2-.1 8 .2 16.2 0 24.3H24V66.5zm181 13.2c9.1-4 18-8.9 27-13.3V104h-27c-.2-8.1.1-16.2 0-24.3zm-10 4.7l.8-.2c-.2 4 0 7.9-.1 11.8l-.2 1.7h-8.3l-.5-.9c0-2.7 0-5.5.2-8.3 2.6-.8 5.3-1.6 7.5-3.5l.6-.6zM61 96.2c.2-3.8-.5-7.8.4-11.5 2 2.3 5.2 2.9 8 4-.3 2.7 0 5.4-.1 8.1l-.5.9h-7.6l-.2-1.5z"/><path fill="#3e3936" d="M51 79.7c1.2.5 2.6.7 3.2 2-.5 4.3-.7 8.7-.2 13l7 1.5.2 1.5h7.6l.5-.9c2-3.4 6.3-.5 9.3-.8h.4v8H51c.2-8.1-.1-16.2 0-24.3zm150.8 2c.6-1.3 2-1.5 3.2-2 .1 8-.2 16.2 0 24.3h-27.3v-8c3 0 7.2-2.7 9 .8l.5.8h8.3l.2-1.7 6.2-1.3a55 55 0 0 0-.1-13z"/><path fill="#2b2829" d="M54.2 81.7c2.3 1.2 4.7 2 7.2 3-.9 3.7-.2 7.7-.4 11.5l-7-1.4c-.5-4.4-.3-8.8.2-13.1zm141.6 2.5c2-.7 4.1-1.4 6-2.5.5 4.3.6 8.7.1 13l-6.2 1.3V84.2z"/><path fill="#7b6e68" d="M194.6 84.6l.4-.2-.6.6.2-.4z"/><path fill="#292829" d="M177.9 93.3c3-1.4 6.3-2.5 9-4.8-.2 2.8-.3 5.6-.2 8.3-1.8-3.4-6-.7-9-.7l.2-2.8zM69.3 96.8c0-2.7-.2-5.4.1-8.1 2.5 2.1 5.6 3.3 8.7 4.5l.5 2.8c-3 .3-7.3-2.6-9.3.8z"/><path fill="#f7f5f7" d="M79 93.9c6.4 3.5 13.2 6.3 19.5 10-6.5.2-13 .1-19.5 0v-10z"/><path fill="#f7f7f7" d="M157.5 103.9c6.6-4 13.7-6.8 20.4-10.6l-.2 2.8v7.9c-6.7 0-13.5.1-20.2-.1z"/><path fill="#f4edc0" d="M24 104h55c6.5 0 13 .1 19.5-.1l1.5.2v3.8c-1.5 1-2.9 2.7-5 2.5H78.4v106.4c30.9.5 61.8 0 92.7.2 2.2 0 4.5 0 6.7-.2V110.4H161c-2 .3-3.5-1.4-5-2.5v-3.7l1.5-.3a2253.5 2253.5 0 0 1 47.5 0c9 .2 18 0 27 .1v129c0 7.7-.2 15.3.1 23h-208c-.1-7.7 0-15.3-.2-23 .2-43 0-86 .1-129z"/><path fill="#e7bbc8" d="M95 110.4c2.1.2 3.5-1.5 5-2.5l.2 2.8c5.8-.4 11.7.4 17.5-.4l-.3-2.4.7 2.4c6.4.8 12.8 0 19.1.5.6-1 1.1-1.9 1.4-2.9l-.3 2.3c5.7 1 11.7 0 17.5.5l.2-2.8c1.5 1 3 2.8 5 2.5h16.7v106.4l-6.7.2c-31-.2-61.8.3-92.7-.2V110.4h16.8M87 170c-.2 7.3 0 14.6 0 22 5.2-.2 10.5 0 15.7-.2 16.8.2 33.6.1 50.4 0 5.6.2 11.1 0 16.7.1V170H87z"/><path fill="#9f7b78" d="M87 170h83c-.2 7.3 0 14.6-.1 22-5.6-.2-11.2 0-16.7-.2.1-4 .3-7.9 0-11.8h-50.4c-.3 4-.1 7.9 0 11.8-5.2.2-10.5 0-15.8.2v-22z"/><path fill="#cb97b2" d="M102.8 180h50.4c.3 4 .1 7.9 0 11.8-16.8.1-33.6.2-50.4 0-.1-4-.3-7.9 0-11.8z"/><path fill="#c6a057" d="M0 232.6c8 .9 16 .2 24 .4v23h-1.7A25.8 25.8 0 0 1 0 234.5v-2zm232 .4h24v.7a25.5 25.5 0 0 1-22.3 22.3h-1.6c-.3-7.7 0-15.3 0-23z"/></svg>