<svg xmlns="http://www.w3.org/2000/svg" viewBox="0 0 256 256"><path fill="#aa8bbd" d="M22.6 0h210.5c11.8.8 22 10.9 22.9 22.7v102.5c-38.7.4-77.3 0-116 .2V114h-7.3v11.4h-9.3a269 269 0 0 1-.1-11.4H116v11.4H0V22.9A25.3 25.3 0 0 1 22.6 0M19 34v54.8h20.8c17.6-.1 35.2.3 52.8-.2l-2-.4c-6.2-6-14-10.2-20.2-16l-.2 1v-.8c-4.3-2.6-7.9-6.5-12.5-8.8-5.4-5.1-11.9-9.2-17.9-13.7v-.3c-7-5.1-14-10.4-20.8-15.6m197.2 15.6v.3c-6.4 4.3-12.2 9.2-18.5 13.6v.1c-4.1 2.9-7.8 6.1-12 8.8v.9V72c-6.4 6-14 10.2-20.3 16.1h-2c1.4.4 3 .7 4.5.7 16.1-.2 32.2 0 48.3-.1H237V34a2269 2269 0 0 1-20.8 15.6z"/><path fill="#fff5ff" d="M19 34l20.8 15.6v.3c-.2 9.8 0 19.5 0 29.2v9.7H19V34zm197.2 15.6c7-5.1 14-10.4 20.8-15.6v54.8h-20.8V79c0-9.7.2-19.5 0-29.2v-.3zm-158.5 14c4.6 2.3 8.2 6.2 12.6 8.8v.9c-.3 2-.3 4-.4 6H57.7V63.5zm128 8.8c4.2-2.7 7.9-6 12-8.8v15.7H186l-.3-6v-.9z"/><path fill="#a24e54" d="M39.8 50c6 4.4 12.5 8.5 17.9 13.6v15.6h-18l.1-29.3zm157.9 13.5c6.3-4.4 12.1-9.3 18.5-13.6.2 9.7 0 19.5 0 29.2l-18.5.2V63.5zM70.2 73.3l.2-1.2c6.3 6 14 10.1 20.2 16.1-7.9.2-15.8.7-23.6 0v-6.9l3-2c0-2 0-4 .2-6zm95.2 14.9c6.2-6 14-10.2 20.3-16v1c.3 2 .3 4 .4 6l2.8 2.1.1 6.9c-7.9.7-15.8.2-23.6 0z"/><path fill="#b75960" d="M39.7 79.1l18 .2H70l-2.9 2v6.9c7.8.7 15.7.2 23.6 0l2 .4c-17.6.5-35.2 0-52.8.2V79zm146.3.2h11.7l18.6-.2v9.7h-48.4c-1.5 0-3-.2-4.6-.5h2c8 .1 15.8.6 23.7-.1v-6.9l-3-2z"/><path fill="#685573" d="M116 114h7.3v11.4H116V114zm16.7 0h7.3v11.4h-7.4c.2-3.8.2-7.6.1-11.4z"/><path fill="#e4d7ba" d="M0 125.4h140c38.7-.2 77.3.2 116-.2V233a25.2 25.2 0 0 1-22.7 23H23a25.2 25.2 0 0 1-23-22.7v-108M63.5 152v85.1H70c6.7.4 13.4.1 20 .2h89l7-.3h6.5v-85h-28.7a42649.8 42649.8 0 0 0-100.4 0z"/><path fill="#996e84" d="M63.5 152h28.7v41.1H70.1c-.2 14.6 0 29.3 0 44h-6.6v-85zm100.3 0h28.8v85H186v-44h-22.2v-41z"/><path fill="#f7fcf7" d="M92.2 152h71.6v40c-.1 3.3-.5 6.7-.8 10.1-10 .6-20 .4-30 .2-.5-10.7 0-21.4-.3-32.2h-9.4c-.3 10.8.2 21.5-.3 32.2-10 .2-20 .3-30-.1-.4-3.4-.7-6.8-.8-10.2v-40z"/><path fill="#e4e7e1" d="M123.3 170h9.4c.3 10.8-.2 21.5.3 32.2 10 .2 20 .4 30-.2.3-3.4.7-6.8.8-10.1v1.2l.2 9.9c-24-.3-48-.3-72 0l.2-10v-1c0 3.4.4 6.8.8 10.2 10 .4 20 .3 30 0 .5-10.6 0-21.3.3-32z"/><path fill="#d0abb2" d="M70 193h22.2l-.2 10c24-.3 48-.3 72 0l-.2-10h22.1c.2 14.7 0 29.4 0 44-2.3.2-4.6.3-7 .3H90c-6.6 0-13.3.2-20-.3v-44z"/></svg>