<svg xmlns="http://www.w3.org/2000/svg" viewBox="0 0 256 256"><path fill="#ce9b42" d="M22.2 0h211.6A25.6 25.6 0 0 1 256 22.2v211.6a25.6 25.6 0 0 1-22.2 22.2H231l.1-181.3c-19.5-.2-39.1.1-58.7-.2V66H83.7v8.5c-19.6.3-39.1 0-58.7.1V256h-2.7A25.6 25.6 0 0 1 0 233.8V22.2A25.6 25.6 0 0 1 22.2 0m-1 20.8v37.1c7.6 0 15.2.2 22.8-.1 6.3.2 12.5.2 18.8 0 6.8.3 13.6.2 20.5 0-4.3-3.6-9.8-5.5-14-9.3l.9.2c-4.8-.5-7.8-4.6-12.2-5.9v-.5c-5-1.9-8.8-6.6-14.1-6.9l-.1-1.8c-8-3.5-14.7-9.3-22.6-12.8M212 34c-4.6 2.9-9.3 5.7-14 8.3l-.1.7-3.4 1.2c-2.1 2.6-5.9 3-8.1 4.8-4.3 3.3-9.6 5.2-13.7 8.8 6.8.2 13.6.2 20.4 0 6.3.2 12.6.2 18.9 0 7.6.3 15.2 0 22.8.1V20.8c-8 3.8-15.2 9-22.8 13.2z"/><path fill="#fff" d="M21.2 20.8c7.9 3.6 14.6 9.3 22.6 12.8v1.8c.3 5.6.2 11.1.2 16.7v5.7c-7.6.3-15.2 0-22.8.1V20.8zM212 34c7.7-4.3 14.9-9.4 22.8-13.2v37.1c-7.6 0-15.2.2-22.8-.1V34zM58 42.8c4.4 1.3 7.4 5.4 12.2 5.9l-1-.2-2-.4.2 5.8-5.6.1H58V42.8zm136.5 1.4l3.4-1.2a95.7 95.7 0 0 0-.2 11h-9.6c0-1.9-.1-3.8-.7-5.6l-1 .6c2.2-1.8 6-2.2 8-4.8z"/><path fill="#443c3c" d="M198 42.3c4.8-2.6 9.4-5.4 14-8.3v18c-4.1-3-9.6-1.4-14.3-1.8 0-2.4 0-4.8.2-7.2v-.7zM43.9 35.4c5.3.3 9.2 5 14 6.9v.5l.1 7.4c-4.7.4-10-1.2-14 1.9 0-5.6.1-11.1-.1-16.7z"/><path fill="#4a4139" d="M67.2 48.1l2 .4c4.3 3.8 9.8 5.7 14 9.4H62.9l-1-3.9 5.6-.1-.2-5.8z"/><path fill="#4a3c39" d="M186.4 49l1-.6c.6 1.8.7 3.7.7 5.6h6l-1 3.9h-20.4c4-3.7 9.4-5.6 13.7-9z"/><path fill="#5a4f4f" d="M44 52c4-3 9.3-1.4 14-1.8V54h3.9l.9 3.9-18.8-.1V52zm153.7-1.8c4.7.4 10.2-1.3 14.3 1.9v5.7c-6.3.2-12.6.2-18.9 0l1-3.8h3.6v-3.8z"/><path fill="#ecddbd" d="M83.7 66h88.6v8.5c19.6.3 39.2 0 58.7.2-.2 60.4 0 120.9 0 181.3H25V74.6c19.6 0 39.1.2 58.7 0V66m32.3 7c0 4 0 7.8.2 11.7h5.6c.3-3.9.2-7.8.2-11.6h-6m18-.1c0 4-.1 7.8.2 11.7h5.6c.2-4 .2-7.8.2-11.6l-6-.1M91 88.1v.5c-9 0-18-.2-27 .1V237h11c5.4-.4 10.8.7 16-.7v.7h74v-.8c5.1 1.6 10.6.4 16 .7h11V88.8c-9-.3-18-.1-27-.1V88c-4.4.5-8.7.6-13 .5h-48c-4.3 0-8.6.1-13-.5z"/><path fill="#c6b89c" d="M116 73h6c0 4 0 7.8-.2 11.7h-5.6c-.2-3.9-.2-7.8-.2-11.7zm18 0h6c0 4 0 7.8-.2 11.6l-5.6.1c-.3-3.9-.3-7.8-.1-11.7z"/><path fill="#f7fcf7" d="M91 88.1c4.4.6 8.7.6 13 .5h48c4.3 0 8.6 0 13-.5v54c0 5.7.2 11.4 0 17.1-10.8.1-21.5.4-32.1 0-1.3-10 0-20.2-.8-30.2H124c-.7 10 .6 20.2-.8 30.1a502 502 0 0 1-32 0c-.3-5.6 0-11.3-.1-17V88zm0 79.5c11-.2 22-.1 32.9 0-.2 10-.4 20.2 0 30.4h8.2a517 517 0 0 0 0-30.5h33l-.1 68.7v.8H91v-69.4z"/><path fill="#a5828e" d="M64 88.7c9-.3 18-.2 27-.1v53.5c-5.3-.3-10.7-.3-16 0v94.8H64V88.8zm101-.1c9 0 18-.2 27 .1V237h-11v-95c-5.3-.2-10.7-.2-16 0V88.7z"/><path fill="#e4e7e1" d="M123.9 129h8.2c.8 10-.5 20.1.8 30.1 10.6.5 21.3.2 32 .1v.6c-24.6.2-49.2.1-73.7 0l-.1-.6c10.7.2 21.3.4 32 0 1.4-10 .1-20.1.8-30.1zm0 38.5h8.2a517 517 0 0 1 0 30.5h-8.2c-.4-10.2-.2-20.3 0-30.5z"/><path fill="#c694b2" d="M75 142c5.3-.2 10.7-.2 16 0 0 5.8-.2 11.5.1 17.2v.6c24.7.1 49.2.2 73.8 0v-.6c.3-5.7 0-11.4.1-17.1 5.3-.3 10.7-.3 16 0v94.8c-5.4-.3-10.9.9-16-.7v-68.7H91l.1 68.8c-5.2 1.4-10.6.3-16 .6V142z"/></svg>