<svg xmlns="http://www.w3.org/2000/svg" viewBox="0 0 256 256"><path fill="#ba845a" d="M22.3 0h211.3A25.5 25.5 0 0 1 256 22.3V216h-40v40h-40v-40h-22v40h-52v-40H80v40H40v-40H0V22.2A25.6 25.6 0 0 1 22.3 0M20 51.5v47.9h68V89c0-5.6.2-11.2 0-16.7-4.8-1-9.3-2.8-14-4.3-3.2-.6-6.2-2-9.3-2.9-5.3-1.5-10.6-3-15.7-5-9.8-2.4-19.2-6.3-29-8.6M207.6 60c-5.5 2-11.2 3.2-16.5 5.5l-.1-.7a44.1 44.1 0 0 1-9 3.1c-4.7 1.2-9 3.6-13.8 4.3.2 5.5.1 11 .1 16.6v10.3c13 .3 26.1.2 39.3 0v.2H236v-48c-9.6 2.6-19 6-28.4 8.7m-102 24l.1 24c-9.8.2-19.6-.2-29.4.1.1 27.6.2 55.2 0 82.8 34.5.2 69 .2 103.4 0-.2-27.6-.1-55.2 0-82.8-9.6-.2-19.1 0-28.7-.1V84h-45.3z"/><path fill="#f7f7fc" d="M20 51.5c9.8 2.3 19.2 6.2 29 8.6v39.3H20v-48zm187.6 8.6c9.5-2.7 18.8-6 28.4-8.6v47.9h-28.4V60.1z"/><path fill="#2e2a2b" d="M49 60c5.1 2 10.4 3.6 15.7 5.1v23.4c-5.2 1-10.5.6-15.7-.4v-28zm142 5.6c5.4-2.3 11.1-3.5 16.6-5.5v29c-5.5-.3-11 .3-16.4-.6.1-7.6.3-15.3-.1-22.9zM74 68c4.7 1.5 9.2 3.3 14 4.3.2 5.5 0 11.1 0 16.7-4.6.1-9.2-.2-13.9-.3-.2-6.9 0-13.8 0-20.7zm94.3 4.3c4.8-.7 9-3.1 13.7-4.3v20.4a77 77 0 0 1-13.7.5V72.3z"/><path fill="#e1e1e4" d="M64.7 65.1c3.1 1 6.1 2.3 9.3 2.9 0 6.9-.1 13.8.1 20.7-2.9.3-5.9.5-8.8.3l-.5-.5c-.2-7.8 0-15.6 0-23.4zM191 65v.6c.5 7.6.3 15.3.2 22.9l-.5.5h-8.5l-.1-.6c-.2-6.8 0-13.6-.1-20.4 3.1-.6 6.1-1.8 9-3z"/><path fill="#f1d1d6" d="M105.7 84H151v24h28.7c-.1 27.7-.2 55.3 0 83H76.3c.2-27.7.1-55.3 0-82.9 9.8-.3 19.6 0 29.4-.2V84m-21.2 64v28H172v-28H84.5z"/><path fill="#52494a" d="M49 88.1c5.2 1 10.5 1.3 15.8.4l.5.5c3 .2 5.9 0 8.8-.3 4.7.1 9.3.4 14 .3v10.3l-39.1.1V88.1z"/><path fill="#524a4a" d="M168.3 89c4.6.1 9.2 0 13.8-.6l.1.6h8.5l.5-.5c5.4.9 10.9.3 16.4.5v10.3c-13.2.1-26.3.2-39.4 0l.1-10.4z"/><path fill="#ad7d8c" d="M84.5 148H172v28h-19c.3-5.3.4-10.6-.1-15.8-16.7 0-33.3-.2-50 0-.5 5.2-.3 10.5-.1 15.8H84.5v-28z"/><path fill="#c3969c" d="M103 160.2c16.7-.2 33.3 0 50 0 .5 5.2.3 10.5.1 15.8H103c-.2-5.3-.5-10.6.1-15.8z"/><path fill="#fcefd6" d="M0 216h40v40H22.3A25.5 25.5 0 0 1 0 233.7V216zm80 0h22v40H80v-40zm74 0h22v40h-22v-40zm62 0h40v17.6a25.5 25.5 0 0 1-22.3 22.4H216v-40z"/></svg>