<svg xmlns="http://www.w3.org/2000/svg" viewBox="0 0 256 256"><path fill="#b5f9ff" d="M22.3 0H101v46H4l-4 .2V22.3A25.5 25.5 0 0 1 22.3 0zM155 0h78.7A25.5 25.5 0 0 1 256 22.3v23.9l-1.9-.2h-99L155 0z"/><path fill="#db7663" d="M101 0h54v46h99.1c-.4 1.6.2 2.3 1.9 2v40.2c-1.5-1-3-2.5-5-2.2h-17.7c-2 2.2-3.3 4.8-5.5 6.7-4 3.4-6.4 8.2-10.6 11.5-2.6 3.6-5.7 7-9 10-2.5 4.5-7 7.2-9.7 11.5-1.2 1.8-3 3-4.3 4.7-.5 1.7-.3 3.6-.8 5.3-.4-1.2-.3-2.6-1.1-3.6l-.5-.4-1 .3c-.2.5-.6 1.4-.7 2-.7 4-5.2 5.6-7.3 8.8-1.8 3.2-4.9 5.3-7 8.3-3.4 4.5-8 7.9-11 12.6-2.4 2.7-5.4 4.8-7.3 8-2.2 3.4-6.4 5.3-7.8 9.3h-44.2c-1.8-3.2-4.5-5.8-6.7-8.8-4.1-3.3-6.6-8-10.6-11.5-3.3-2.9-5-7.5-9.1-9.5-2.3-4.9-6.9-8-10.3-12-1.8-3-4.3-5.3-6.8-7.6-2.6-4-6-7-9.2-10.4-2.4-4.2-6.7-6.8-9.3-10.8-2-3.2-5.5-5.2-7.5-8.4-2.5-3.8-6.5-6.2-9-10-1.6-2.5-3.9-4.3-6-6.3v2.5c-4.8-3.1-10.6-2-16-2.1-2-.4-3.5 1-5 2V46.2l4-.2h97V0z"/><path fill="#94797b" d="M254.1 46l1.9.2v1.7c-1.7.4-2.3-.3-1.9-2z"/><path fill="#bd864f" d="M0 88.1c1.5-1 3-2.4 5-2 5.4.1 11.2-1 16 2V181h52v75H22.2A25.5 25.5 0 0 1 0 233.7V88.1zM234 86h17c2-.3 3.5 1.2 5 2.2v145.5a25.5 25.5 0 0 1-22.2 22.3H182v-75h52V86z"/><path fill="#ecebec" d="M21 85.7c2.1 2 4.4 3.8 6 6.3 2.5 3.8 6.5 6.2 9 10 2 3.2 5.4 5.3 7.5 8.4 2.6 4 7 6.6 9.3 10.8 3.2 3.4 6.6 6.5 9.2 10.4V160h17v-8.8c4.3 2 5.9 6.6 9.2 9.5 4 3.4 6.5 8.2 10.6 11.5 2.2 3 5 5.6 6.7 8.8-10.4.2-20.9-.2-31.3.2l-1.2 3v-3.3c-17.4.2-34.7 0-52 .1V85.7zm212.3.3h.7v95h-84.3c1.4-4 5.6-5.9 7.8-9.3 1.9-3.2 4.9-5.3 7.2-8 3.1-4.7 7.7-8.1 11.1-12.6.2 3 .2 6 .2 8.9h17c.2-8-.4-16.2.4-24.3.5-1.7.3-3.6.8-5.3 1.3-1.7 3.1-3 4.3-4.7 2.7-4.3 7.2-7 9.8-11.4 3.2-3.2 6.3-6.5 9-10.1 4-3.3 6.5-8 10.5-11.5 2.2-1.9 3.5-4.5 5.5-6.7z"/><path fill="#313031" d="M62 131.6c2.5 2.3 5 4.6 6.8 7.6 3.4 4 8 7.1 10.3 12L79 160H62v-28.4zm130.3.5c.8 1 .7 2.4 1 3.6-.7 8 0 16.2-.3 24.3h-17c0-3 0-6-.2-9 2.1-2.9 5.2-5 7-8.2 2-3.2 6.6-4.9 7.3-8.9a3 3 0 0 0 2.2-1.8z"/><path fill="#ba9e97" d="M190.7 132l1.1-.3.5.4a3 3 0 0 1-2.2 1.8l.6-1.9z"/><path fill="#efcdd8" d="M74.2 181.2c10.4-.4 20.9 0 31.3-.2H182v75H73v-71.8l1.2-3z"/></svg>