<svg xmlns="http://www.w3.org/2000/svg" viewBox="0 0 256 256"><path fill="#8e4694" d="M22.6 0H36v46.2H0V22.7C1 11 11 1 22.6 0zM0 116l165.6.1c.1 13.7 0 27.3 0 41a46 46 0 0 1-.5 11.1c-28-.4-56 0-84.1-.2v55H51c.2 11-.4 22 .4 33H22.8A25.4 25.4 0 0 1 0 233.6V116z"/><path fill="#bd8cc0" d="M36 0h197c11.8.8 22 10.8 23 22.5v210.8a25.3 25.3 0 0 1-22.7 22.7H51.4c-.8-11-.2-22-.4-33h30c28.1.2 56.3.2 84.4 0 .5-14 0-28 .2-42 .2-4.3-.5-8.5-.5-12.8.7-3.7.7-7.4.6-11.2v-40.9H0V46.2h36c35.9-.2 71.7.2 107.6-.2v48H215V23c-10.2-.3-20.5 0-30.8-.4-3.9.3-7.8.3-11.8.3-9.6.1-19.3-.4-28.9.3-2.5.2-5 .4-7.5.4-33.3.1-66.7-.2-100 .2V0z"/><path fill="#f1dfaa" d="M184.2 22.6c10.3.4 20.6.1 30.8.4v71c-23.8 0-47.6.2-71.4 0V23.3c9.6-.7 19.2-.2 28.8-.3 0 17.7.1 35.4 0 53l13 .1V28c0-1.7 0-3.4-.8-5l-.4-.4z"/><path fill="#3c3421" d="M172.4 22.9c4 0 7.9 0 11.8-.3l.5.4c.6 1.6.7 3.3.7 5v48h-13V22.9z"/><path fill="#ad80af" d="M36 23.8c33.3-.4 66.7 0 100-.2 2.5 0 5-.2 7.5-.4.2 7.6.1 15.2.1 22.9-35.9.4-71.7 0-107.6.1V23.9z"/><path fill="#d39ca2" d="M81 168c28 .1 56.1-.3 84.1.2 0 4.3.7 8.5.5 12.8-.2 14 .3 28-.2 42-28.1.2-56.3.2-84.4 0v-55z"/></svg>