<svg xmlns="http://www.w3.org/2000/svg" viewBox="0 0 256 256"><path fill="#a594c0" d="M22.4 0h211C245 1 255 11 256 22.5v210.8a25.4 25.4 0 0 1-22.4 22.7h-211A25.4 25.4 0 0 1 0 233.5V22.7A25.4 25.4 0 0 1 22.4 0m94.7 14v41c-4.2.1-8.3.2-12.4 0V32h-14v38.6h74.7c-.2-12.9 0-25.8-.1-38.7h-14V55c-4.1.2-8.2.1-12.4 0V14h-21.8M26 46.3V155h88.7V82H79V46.3H26m151 0V82h-35.8v73H230V46.3h-53m-163 122v55.4c33.1 0 66.3-.1 99.4 0V242h29.3v-18.3H242v-55.5c-6.2.1-12.3-.1-18.4.2 0 4 .3 8 0 12h-69V169h-53.3v11.3l-68.8.1c-.4-4-.2-8-.1-12-6.1-.3-12.3-.1-18.4-.2z"/><g fill="#4a4747"><path d="M117 14h22c0 13.7-.1 27.4 0 41 4 .1 8.2.2 12.3 0V32h14v38.6H90.7c.2-12.9 0-25.8.1-38.7h14V55c4.1.2 8.2.1 12.4 0V14z"/><path d="M26 46.3h53V82h35.8v73H26V46.3M38 60v85c21.6.1 43.2.2 64.7 0V92H67V59.9H38zm139-13.7h53V155h-88.8V82H177V46.3m12 13.5V92h-35.7v53H218V59.8h-29zM14 168.2c6.1.1 12.3-.1 18.4.2 0 4-.3 8 0 12h69l-.1-11.3h53.4v11.2l68.9.1c.3-4 0-8 0-12 6.1-.3 12.3 0 18.4-.2v55.5c-33.2 0-66.3-.1-99.4 0V242h-29.3v-18.3H14v-55.5z"/></g><path fill="#c86e65" d="M38 59.9h29v32l35.7.1v53H38V59.8M50.8 103v31c13.3 0 26.6.2 39.9 0v-31h-40zM189 59.8h29V145h-64.7V92H189V59.8m-23.7 43.3v30.8c13.5.3 27.1.1 40.7 0V103c-13.6 0-27.1-.2-40.7 0z"/><path fill="#c8ba5d" d="M50.8 103h39.9v31c-13.3.2-26.6 0-40 0v-31zm114.5 0c13.6-.2 27.1 0 40.7 0v31c-13.6 0-27.2.2-40.7-.1v-30.8z"/></svg>