<svg xmlns="http://www.w3.org/2000/svg" viewBox="0 0 256 256"><path fill="#fce47e" d="M22.5 0h210.8A25.3 25.3 0 0 1 256 22.5V132h-48.7v57.7H256v43.7a25.4 25.4 0 0 1-22.5 22.6H22.7A25.4 25.4 0 0 1 0 233.5v-43.8c16.5 0 33 .1 49.4 0-.2-19.3 0-38.5-.1-57.7H0V22.6A25.4 25.4 0 0 1 22.5 0M42 60v50h43V60H42m129 0v50h43.7V60H171m-51.6 54v10h17.2v-10h-17.2m-5.6 33H80v51c4.4 0 8.8.3 13.2-.2 9.3.6 18.5.2 27.8.3 14-.2 27.9.3 41.8-.3 4.4.6 8.8.1 13.2.3v-51h-33.8c-5.2-5.4-9.1-11.7-14-17.2-5 5.6-9.1 11.8-14.4 17.1z"/><path fill="#181212" d="M42 60h43v40.4c-7.7.4-15.4.1-23 .2-6.7-.1-13.4.3-20-.4V60m16 3v18h18V63H58zm113-3h43.7v39.8c-6.2 1.3-12.4.7-18.6.8-8.4-.1-16.8.2-25-.2L171 60m9 3v18h18V63h-18zm-60.6 51h17.2v10h-17.2v-10z"/><path fill="#fff" d="M58 63h18v18H58V63zm122 0h18v18h-18V63z"/><path fill="#3c3126" d="M42 100.2c6.6.7 13.3.3 20 .4 7.6 0 15.3.2 23-.2v9.6H42v-9.8zm129 .2c8.3.4 16.7 0 25 .2 6.3 0 12.5.5 18.7-.8v10.1H171v-9.5z"/><path fill="#945f6d" d="M113.8 147c5.3-5.3 9.4-11.5 14.3-17.1 5 5.5 9 11.8 14 17.1H176v51c-4.4 0-8.8.4-13.2-.2.4-7.5.2-15 .1-22.5H93.1c0 7.5-.3 15 0 22.5-4.3.5-8.7.2-13 .3v-51h33.7z"/><path fill="#de6b52" d="M0 132h49.3v57.6c-16.4.2-32.8 0-49.3.1V132zm207.3 0H256v57.8c-16.2-.2-32.5 0-48.7-.1V132z"/><path fill="#d69bb5" d="M93 175.3h70c0 7.5.2 15-.2 22.5-14 .6-27.9.1-41.8.3-9.3-.1-18.5.3-27.8-.3-.4-7.5-.2-15-.1-22.5z"/></svg>