<svg xmlns="http://www.w3.org/2000/svg" viewBox="0 0 256 256"><path fill="#f4c95a" d="M22.5 0h210.9A25.4 25.4 0 0 1 256 22.4v105.7c-19 .5-38 0-57.1.2l-.3 6.7c.2 20.6-.1 41.3.2 62 19 .2 38.1 0 57.2 0v36.5c-1 11.6-11 21.5-22.5 22.5H22.6A25.4 25.4 0 0 1 0 233.6V197c19 0 38.1.2 57.2 0 .3-21 0-42 .2-63 0-1.9-.2-3.8-.4-5.7H0V22.5C1 11 11 1 22.5 0m21 60.3v51H85v-51H43.5m127.5 0v51h41v-51h-41m-54 52.8V126h22v-13h-22m-1.2 31.7H79V185h15.4l-.2-3.3c.9 1 1.3 2.1 1.5 3.4 21.5-.2 43-.2 64.6 0a6 6 0 0 1 1.5-3.4l-.2 3.4c5.1-.2 10.2-.1 15.4-.1v-40.3h-36.7c-3.8-4.5-8-8.8-12.3-12.8-4.1 4.2-8.8 8-12.2 12.8z"/><path fill="#1b110d" d="M43.5 60.3H85V103H43.5V60.3M58 63v17h18.2V63H58zm113-2.7h41V103h-41V60.3m8.8 2.7v17H198V63h-18.2z"/><path fill="#fff" d="M58 63h18.2v17H58V63zm121.8 0H198v17h-18.2V63z"/><path fill="#4a3f33" d="M43.5 103H85v8.3H43.5V103zm127.5 0h41v8.3h-41V103z"/><path fill="#312a26" d="M117 113h22v13h-22v-13z"/><path fill="#ffe984" d="M0 128.3h57c.2 1.9.4 3.8.4 5.7-.2 21 .1 42-.2 63-19 .2-38.1 0-57.2 0v-68.7zm198.9 0c19-.2 38 .3 57.1-.2v69c-19-.2-38.2 0-57.2-.2-.3-20.6 0-41.3-.2-61.9l.3-6.7z"/><path fill="#945f6d" d="M115.8 144.7c3.4-4.9 8-8.6 12.2-12.8 4.4 4 8.5 8.3 12.3 12.8H177V185h-15.4l.2-3.3c.5-6 .1-12 .2-18H94c.1 6-.3 12 .2 18l.2 3.4c-5.1-.2-10.2-.1-15.4-.1v-40.3h36.8z"/><path fill="#d69bb5" d="M94 163.7h68c0 6 .3 12-.2 18a6 6 0 0 0-1.5 3.4c-21.5-.2-43-.2-64.6 0a6.6 6.6 0 0 0-1.5-3.4c-.5-6-.1-12-.2-18z"/></svg>