<svg xmlns="http://www.w3.org/2000/svg" viewBox="0 0 256 256"><g fill="#ecd168"><path d="M22.3 0h43.5c-1.4 7-.6 14-.8 21 0 11.4.2 22.7 0 34-9 .6-17.9 0-26.8.3-.5 18.7 0 37.4-.2 56-5.1 0-10.2 0-15.3-.3v65.6h15.2c.3 10.5.1 21 .2 31.3-12.1-.2-24.2.4-36.3-.3L0 205.4v-183A25.5 25.5 0 0 1 22.3 0zm55.3 0h100.7l-.8 1.8-1-.3c-.6 7.8-.2 15.7-.3 23.5 0 10-.3 20 .2 30-3.1.2-6.3.3-9.4.3-29-.2-58 .2-86.9-.2-.4-16.7.1-33.4-.1-50.1.2-2-1-3.7-2.4-5zm112.3 0h43.8a26 26 0 0 1 11.9 4.6l-.2-1c1.7 2.6 4.4 4.4 6 6.9 2.5 3.3 3.8 7.3 4.6 11.2v186.5c-12.7-.6-25.4-.2-38-.2.1-10.5-.3-21 .1-31.4H234c-.3-21.8-.1-43.6-.1-65.5-5.3.1-10.6.3-15.9.2V79c0-7.9.7-15.8-.1-23.7-8.8-.4-17.6.3-26.3-.3.6-14.6 0-29.4.3-44 0-3.8.5-8-2-11z"/><path d="M53.2 71.1c7.2-.4 14.5 0 21.8-.1 15.3.1 30.5-.3 45.8.1.2 16.6.2 33.2 0 49.8-11.5.7-23 0-34.6.4-.4 9.9-.1 19.8-.2 29.7-2.6 0-5.3 0-7.8-.6l-2.5-.4c.5-13 .2-25.9.1-38.9l-6.3.2v-1.2l-3.2.5c-4.1 1-8.4.7-12.6.8-1.2-6.4-.6-13-.7-19.4.1-7-.2-13.9.2-20.9zm82 .1c5.9-.4 11.9-.3 17.8-.3 16.6.2 33.2-.2 49.8.2.3 7 0 14 0 20.9 0 6.5.6 13-.5 19.3-4 0-8 .3-12-.2l-1-1.2-3 .7c-2 .5-4 .7-6.2.7.4 13 .1 25.9.2 38.8a35 35 0 0 1-10.7.9c-.1-1.9-.2-3.8-.1-5.6.8-8 .5-16 .3-24.1-11.5-.4-23 .2-34.6-.3-.3-16.6-.2-33.2 0-49.8z"/><path d="M98.1 135.2c20-.2 39.9-.4 59.8 0 .4 5.2.2 10.5.1 15.7H98c0-5.2-.2-10.5.1-15.8zM0 218.1c9 2.3 18.5.3 27.7 1.2.5 10.5 0 21.1.3 31.7-.1 2 1.1 3.5 2.2 5h-7.8A25.5 25.5 0 0 1 0 233.8v-15.7zm46 .9c10.7.1 21.4-.3 32 .2 2.6 1.9 4.8 4.5 7 6.8 1.2 1 .9 2.6 1 4v26H46c-1.9-5.5-1-11.3-1.1-17 .1-6.7-.7-13.5 1.2-20zm124.2 8c3-3.5 6.5-8.7 11.8-8h28c2 6.5 1.1 13.4 1.2 20-.1 5.7.8 11.5-1 17H170c.3-9.6-.4-19.3.2-29zm58-7.7c9.3-.6 18.5 0 27.8-.3v14.7a25.5 25.5 0 0 1-22.3 22.3h-8.3a44 44 0 0 0 2.6-2.3c.2-11.5-.1-23 .2-34.4z"/></g><path fill="#dec360" d="M65.8 0h11.8c1.5 1.3 2.6 3 2.4 5 .2 16.7-.3 33.4.1 50 29 .5 58 0 87 .3 3 0 6.2 0 9.3-.3-.5-10-.1-20-.2-30 0-7.8-.3-15.7.2-23.5l1.1.3.8-1.8h11.6c2.5 3 2 7.2 2 11-.2 14.6.3 29.4-.3 44 8.7.6 17.5 0 26.3.3.8 8 0 15.8.1 23.7v32.3l-7.8-.1c-1-1.2-2.6-1-3.9-.7l-4 .8c1.1-6.3.5-12.8.6-19.3-.1-7 .2-14-.1-20.9-16.6-.4-33.2 0-49.8-.2-6 0-11.9-.1-17.8.3-.2 16.6-.3 33.2 0 49.8 11.5.5 23 0 34.6.3.2 8 .5 16-.3 24-.1 2 0 3.8.1 5.7H158c.1-5.3.3-10.6 0-15.8-20-.4-40-.2-59.9 0-.3 5.2-.2 10.5-.1 15.7H86c.1-9.8-.2-19.7.2-29.6 11.5-.4 23 .3 34.6-.4.2-16.6.2-33.2 0-49.8-15.3-.4-30.5 0-45.8-.1-7.3 0-14.6-.3-21.8.1-.4 7 0 14-.2 21 .1 6.4-.5 12.9.7 19.3-1.6-.1-3.2-.4-4.7-1l.5-.6c-1.3.3-2.5.7-3.7 1.3-2.6.2-5.2.2-7.8.2.1-18.6-.3-37.3.2-56 9-.3 17.8.3 26.7-.3.3-11.3 0-22.6.1-34 .2-7-.6-14 .8-21zM0 205.4l1.8 2.2c12 .7 24.2.1 36.3.3v11l8 .1c-2 6.5-1.2 13.3-1.3 20 0 5.7-.8 11.5 1.1 17H30.2c-1-1.5-2.3-3-2.3-5-.2-10.6.3-21.2-.2-31.7-9.2-1-18.6 1-27.7-1.2v-12.7zm218 2.6c12.6 0 25.3-.4 38 .2V219c-9.3.4-18.5-.3-27.8.3-.3 11.4 0 23-.2 34.4a44 44 0 0 1-2.6 2.3h-15.3c1.9-5.5 1-11.3 1.1-17 0-6.6.8-13.5-1.2-20h8v-11z"/><path fill="#021a2b" d="M45.8 111.1c1.2-.6 2.4-1 3.7-1.3l-.5.7c-.7 1-1.8 2-1.4 3.3l.1 21.5h20.6c.1-7.9-.3-15.7.2-23.6l-2.2-1c1-.3 2.2-.5 3.2-.6v1.2c2 0 4.2 0 6.3-.2.1 13 .4 26 0 39l2.4.3-2.7.9c.3 1.6.4 3.2.4 4.8-.4 2.5-2 1.2-2.5-.2-9.4.4-18.8 0-28.2.2 0 6.8-.6 13.8.7 20.5H22.7V111c5 .4 10.2.3 15.3.3 2.6 0 5.2 0 7.8-.2zm160.5-.6c1.3-.2 2.9-.5 3.9.7l7.8.1c5.3 0 10.6 0 15.9-.2 0 21.9-.2 43.7 0 65.5h-23.8c2.1-6.7 1-13.7 1.2-20.6-9.7-.3-19.5.8-29.2-.6l-.3 3.2-1.6-3.8V150c0-13 .3-25.9 0-38.8 2 0 4-.2 6.1-.7l2.3 1.2c-.5 7.8 0 15.5-.3 23.3 6.6.4 13.3.1 20 .2.2-7.8-.3-15.6.2-23.4a42 42 0 0 0-2.2-1.4z"/><path fill="#fffffc" d="M186.3 110.6l3-.7 1 1.2c4 .5 8 .2 12 .3l4-.9 2.2 1.4c-.5 7.8 0 15.6-.2 23.4-6.7 0-13.4.2-20-.2.2-7.8-.3-15.5.3-23.3l-2.3-1.2zm-138.7 3.2c-.4-1.3.7-2.3 1.4-3.3 1.5.5 3 .8 4.7.9 4.2-.1 8.5.3 12.6-.8l2.2 1.1c-.5 7.9 0 15.7-.2 23.6H47.7v-21.5z"/><path fill="#efecd6" d="M169.6 151c3.6.1 7.2 0 10.7-.9v4.7c0 7.1.3 14.3-.3 21.5 10 .8 20 .1 30.2.3h8c-.5 10.5 0 21-.3 31.4v11H182c-5.3-.7-8.7 4.5-11.8 8-.6 9.7 0 19.4-.2 29H86v-26c-.1-1.4.2-3-1-4-2.2-2.3-4.4-4.9-7-6.8-10.6-.4-21.3 0-32-.2h-8v-11c0-10.5.2-21 0-31.4h34c1.3-.2 3 .5 3.8-.6.4-6.7 0-13.3 0-20 .1-1.5 0-3.1-.3-4.7l2.7-.9c2.5.5 5.2.7 7.8.6h12a12024 12024 0 0 0 71.6 0z"/><path fill="#004978" d="M45.2 156.1c9.4-.2 18.8.2 28.2-.2.5 1.4 2.1 2.7 2.5.2 0 6.6.3 13.2 0 19.9-1 1-2.7.4-3.9.7H46c-1.4-6.8-.7-13.8-.8-20.6zm135-1.3l1.6 3.8.3-3.2c9.7 1.4 19.5.3 29.2.6-.2 6.9.9 14-1.2 20.6-10-.2-20.1.5-30.1-.3.6-7.2.2-14.4.2-21.5z"/></svg>