<svg xmlns="http://www.w3.org/2000/svg" viewBox="0 0 257 257"><path fill="#f1d170" d="M22.4 0h7.3c8 16.4 16.3 32.6 24.4 49l43.6-.1c0-16.3-.1-32.6 0-48.9h60.6v49h43.6c4.6-9 8.8-18.3 13.8-27.1 3.8-7.3 7.2-14.7 11.1-21.9h6.7c10.6 1 20 9.4 22 19.9l1.5-.6v117.5c-7.6 0-15.1 0-22.7-.2l1.4-4.2c.8-4 2.4-7.7 3.3-11.7h-57c-1.5.2-3.2-.3-4.5.5-1.3 2.7-1.1 5.7-2.2 8.4-1.8 6-2.9 12.1-5 18-1.7 9-5 17.7-6.8 26.8h3c-1.2.5-2.3 1.2-3.4 1.8v56H93v-56.5l-3-.1 3-1.3c-1.8-6.5-3.9-13-5.2-19.7a539.7 539.7 0 0 1-9-34c-20.5.2-41 .1-61.5.1 1.1 5.7 3.3 11.1 4.7 16.7-7.2-1.3-14.7-.5-22-.5V22.5A25.5 25.5 0 0 1 22.4 0z"/><path fill="#aa7b2e" d="M29.7 0h68c-.1 16.3 0 32.6 0 48.9H54.1C46.1 32.7 37.7 16.5 29.7 0zm128.6 0h68.5c-3.9 7.2-7.3 14.6-11 21.9-5 8.8-9.3 18-14 27h-43.5V0z"/><path fill="#021a2b" d="M22 137.4c-1.4-5.6-3.6-11-4.7-16.7h61.5c2.6 11.4 5.6 22.7 9 33.9 1.3 6.7 3.4 13.2 5.2 19.7H78.2c2.6-5.3 1.2-11.4 1.5-17.1-11.9-.3-23.7-.2-35.6-.1.3 5.7-1.6 12.2 1.9 17.3-4.3-.2-8.6.1-12.9-.2-1.6-1.4-1.5-4-2.2-6L22 137.4M58.7 127v16h16.6v-16H58.7zm118.8-5.8c1.3-.8 3-.3 4.5-.5h57c-.9 4-2.5 7.7-3.3 11.7-.5 1.4-1 2.8-1.3 4.2-1.5 4.6-2.2 9.5-4.2 14-1.5 8-5 15.6-6.4 23.8H210c3.3-5.2 1.6-11.6 1.8-17.3-11.9 0-23.7-.3-35.6.1.2 5.7-1 11.8 1.5 17.2h-14.3c1.8-9 5-17.8 6.7-26.8 2.2-5.9 3.4-12 5-18 1.2-2.7 1-5.7 2.3-8.4m3.2 5.8v16H198v-16h-17.3z"/><path fill="#fff" d="M58.7 127h16.6v16H58.7v-16zm122 0H198v16h-17.3v-16z"/><path fill="#f1e5ce" d="M0 137c7.3 0 14.8-.9 22 .4 3 10.3 5.9 20.6 9 30.8.6 2 .5 4.6 2.1 6 4.3.3 8.6 0 12.9.2h47l-3 1.2 3 .1v56.4h70c.2-18.6 0-37.3.1-55.9l3.4-1.8h57.3c1.4-8.2 4.9-15.8 6.4-23.9 2-4.4 2.7-9.3 4.2-13.9 7.5.3 15 .2 22.6.2v98.5c-1.6-1.2-3.3 1-2 2.5a24 24 0 0 1-17.3 17.3l-2-.5-.7 2.4H20.6c1.3-1.7-1-3.3-2.5-2A25.2 25.2 0 0 1 0 233.7V137z"/><path fill="#002d4a" d="M44.1 157.1c11.9-.1 23.7-.3 35.6.1-.3 5.7 1.1 11.8-1.5 17.1H46c-3.5-5-1.6-11.5-1.9-17.2zm132.2.1c11.9-.4 23.7-.1 35.6-.1-.2 5.7 1.5 12.1-1.8 17.3h-32.3c-2.6-5.4-1.3-11.5-1.5-17.2z"/><path fill="#6f6a60" d="M255 237.8c-1.3-1.4.4-3.7 2-2.5v2.4h-2z" opacity=".5"/><path fill="#6e6a5f" d="M18.1 255c1.4-1.3 3.8.3 2.5 2h-2.3l-.2-2zm216.9 2l.7-2.4 2 .5.2 1.9H235z" opacity=".5"/></svg>