<svg xmlns="http://www.w3.org/2000/svg" viewBox="0 0 256 256"><path fill="#cbd5ec" d="M22.4 0h211.1A25.5 25.5 0 0 1 256 22.4v211.2a25.5 25.5 0 0 1-22.3 22.4H22.4A25.5 25.5 0 0 1 0 233.7V22.5A25.5 25.5 0 0 1 22.4 0m-3.1 48.1v53.7c5.6.5 11.1.2 16.7.3 1.7.2 2.9-1.3 4-2.3v2.2h48c1.3-.2 2.9.4 4-.4-4.8-2.5-8.4-6.8-13.1-9.2-2.5-2.8-6-4.5-8.8-7-3.1-2.5-6.4-4.7-9.5-7.2-1.5-1-2.8-2.4-4.6-2.4v-1.5c-2.7-.6-4-3.5-6.6-4.1-2.7-2.7-6.3-5-9.4-7.3v1.4c-1.8-1-2-3.3-3.8-4.5L20.6 48.2l-1.3-.1m212 3.2c-5.7 4.1-11 8.9-16.9 12.6-4.4 4.2-10.2 7-14.4 11.6v.4l-1.6.3c-4 2.9-7.6 6-11.9 8.4l-.2 1.1c-2.2.4-3.5 2.3-5.1 3.6-1 1.2-3.1 1.1-3.5 2.9l-.6-.1c-4.3 3.4-8.7 6.9-13.4 9.8 17.5.2 35.1.1 52.7 0l1-2 .9 2c6 .2 12.4.5 18.4-.2V48.2c-2.1.1-3.6 2-5.3 3.1m-116 56.9v8.6c1.4.2 3 .2 4.5.2v-9.1c-1.4-.3-3.3-.6-4.6.3m21.8-.4v9.2h3.8v-9.2c-1.3-.2-2.6-.2-3.8 0M84 140v40.7c0 10.6-.3 21.3 0 32h88c.2-10.7 0-21.3 0-32V140a4153.1 4153.1 0 0 1-88 0z"/><path fill="#fff" d="M19.3 48.1l1.3.1 15.6 11.6c1.7 1.2 2 3.5 3.8 4.5v35.5c-1.1 1-2.3 2.5-4 2.3-5.6-.1-11.1.2-16.7-.3V48.1zm212.1 3.2c1.7-1 3.2-3 5.3-3.1v53.5c-6 .7-12.3.4-18.4.1l-.9-1.8-1 2V92c0-9.6-.3-19.3.2-29l-2.2.8c6-3.7 11.2-8.5 17-12.6zM56 75.8c1.9 0 3.1 1.5 4.6 2.5 3 2.4 6.4 4.6 9.5 7v7.2L56 92.4V75.8zm142.4.4l1.6-.3v16.5h-13.7v-6.7l.2-1c4.3-2.5 8-5.6 11.9-8.5zM99 140c19.3.2 38.7.2 58 0v50.7H99c-.2-3.5 0-7-.1-10.5V140z"/><path fill="#9f362b" d="M40 63c3 2.2 6.7 4.5 9.4 7.2 2.5.5 3.9 3.5 6.6 4v18.3c-5.4 0-10.7.2-16-.3V63zm174.4.9l2.2-.8c-.4 9.7-.1 19.4-.2 29-5.5.5-11 .2-16.4.3V75.5c4.2-4.6 10-7.4 14.4-11.6zm-33.2 25.4c1.6-1.3 3-3.2 5.1-3.6v6.7a38 38 0 0 1-8.6-.3c.4-1.7 2.5-1.6 3.5-2.8z"/><path fill="#9c3829" d="M70 85.4c3 2.5 6.4 4.2 8.9 7-3 .1-5.9.2-8.8 0v-7z"/><path fill="#cb4d39" d="M40 92.1c5.3.5 10.6.2 16 .3h14c3 .2 5.9.1 8.8 0 4.7 2.4 8.3 6.7 13.1 9.2-1.1.8-2.7.2-4 .4H40V92zm137.1-.1l.6.2c2.8.5 5.7.4 8.6.2H200c5.5 0 11 .2 16.4-.3v9.8c-17.6.1-35.2.2-52.7 0 4.7-2.9 9-6.4 13.4-9.8z"/><path fill="#a5aebd" d="M115.3 108.2c1.3-1 3.2-.6 4.7-.3v9h-4.7v-8.7zm21.7-.4c1.3-.2 2.6-.2 4 0v9.2h-4v-9.2z"/><path fill="#946270" d="M84 140c5 .2 10 .2 15 0v40.2c-5 .7-10 .2-15 .5V140zm73 0c5 .2 10 .2 15 0v40.7c-5-.3-10 .1-15-.4V140z"/><path fill="#c8829f" d="M84 180.7c5-.3 10 .2 15-.5l.1 10.5h57.8c.2-3.5 0-7 .1-10.4 5 .5 10 0 15 .4 0 10.7.1 21.3-.1 32H84c-.3-10.7 0-21.4 0-32z"/></svg>