<svg xmlns="http://www.w3.org/2000/svg" viewBox="0 0 256 256"><path fill="#b2d4d8" d="M22.5 0h210.8A25.3 25.3 0 0 1 256 22.6v210.7a25.3 25.3 0 0 1-22.6 22.7H22.7A25.3 25.3 0 0 1 0 233.5V22.6A25.4 25.4 0 0 1 22.5 0M19 56.6V116h72.3c-3.3-2.5-6.6-4.8-9.5-7.7h-.4c-1.5-1.6-3-3.2-5-4.3-5-4.2-9.8-8.5-15-12.3v-.4c-6-4.2-11-9.6-17.2-13.6-1-1.5-2.6-2.7-4-3.9-7.2-5.6-14-11.5-21.2-17.2M212 77l-18 15c-4.8 4-9.8 7.8-14.5 12-2.1 1.2-3.8 3.2-5.7 4.7-2.8 2.7-6.3 4.5-9 7.3H237V56.4L212 77m-98.6 60v10.6l4.7.1V137h-4.7m24.7 0v10.8l4.6-.2v-10.5l-4.6-.1m-73.4 12.7c-6.3 0-12.6-.3-18.9.2-4-.6-8-.2-12-.2V207c8 0 16.2.2 24.3-.1 13 .3 26 0 39 .1 33.7 0 67.4.2 101-.1 8.1.3 16.2 0 24.3.1v-57.3c-4 0-8-.3-12 .2-6.3-.5-12.6-.2-19-.2-1 .1-1.9-.9-2.8-1.4l.9 1.2c-10.1.3-20.3 0-30.4.2v8.6H97v-8.6c-10.1-.2-20.3.1-30.4-.2l1-1.3c-1 .6-1.8 1.6-3 1.5z"/><path fill="#fff" d="M19 56.6c7.1 5.7 14 11.6 21.1 17.2 1.5 1.2 3 2.4 4.1 4v38.1H19V56.7zM211.9 77L237 56.4V116h-25.3v-7c.1-10.7-.2-21.4.2-32zM61.4 91.7c5.2 3.8 10 8.1 15 12.3h-15V91.7zM179.5 104c4.7-4.2 9.7-8 14.5-12v12h-14.5zM64.6 149.7c1.2.1 2-.9 3-1.5l-1 1.3v19h-21l.1-18.6c6.3-.5 12.6-.2 19-.2zm123.9-1.4c1 .5 1.7 1.5 2.9 1.4 6.3 0 12.6-.3 19 .2v18.7h-21v-19.1l-.9-1.2z"/><path fill="#c6412b" d="M194 92l18-15c-.4 10.6 0 21.3-.2 32-12.6 0-25.3.3-38-.3 2-1.5 3.7-3.5 5.8-4.7H194V92zM44.2 77.7c6.1 4 11.2 9.4 17.2 13.6V104h15c2 1 3.5 2.7 5 4.4-2.4.5-4.9.7-7.4.7-9.9-.2-19.8 0-29.8-.2V77.7z"/><path fill="#ef7d5d" d="M81.4 108.4l.4-.1c2.9 2.9 6.2 5.3 9.5 7.6-15.7.2-31.3 0-47 0v-7c9.9.3 19.8 0 29.7.2 2.5 0 5-.2 7.4-.7zm83.4 7.6c2.7-2.8 6.2-4.6 9-7.3 12.6.6 25.3.3 38 .2v7l-47 .1z"/><path fill="#738284" d="M113.3 137h4.7v10.7h-4.6V137zm24.7 0h4.7v10.6l-4.7.2V137z"/><path fill="#7e636b" d="M33.7 149.7c4 0 8-.4 12 .2v18.7h21v-19.1c10 .3 20.2 0 30.3.2v8.6h62v-8.6c10.1-.2 20.3.1 30.4-.2v19h21V150c3.9-.5 8-.2 12-.2V207c-8.2 0-16.3.2-24.3-.1.4-8.3.2-16.6.2-24.9H57.7c0 8.3-.2 16.6.3 24.9-8.1.3-16.2 0-24.3.1v-57.3z"/><path fill="#c0a0a5" d="M57.7 182h140.6c0 8.3.2 16.6-.3 24.9-33.6.3-67.3 0-101 .1-13 0-26 .2-39-.1-.5-8.3-.3-16.6-.3-24.9z"/></svg>