<svg xmlns="http://www.w3.org/2000/svg" viewBox="0 0 256 256"><g fill="#89afc8"><path d="M22.3 0h67.9v46c0 2-.2 4.8 2.2 5.5 3.5.5 7 .2 10.6.3h56c2.3 0 4.7 0 6.7-1 .4-2.3.3-4.5.3-6.8V0h67.6A25.5 25.5 0 0 1 256 22.4v135.8c-29-.3-58-.1-87 0-.2 4.2.1 8.5 0 12.7-27.4 0-54.6.1-82 0-.1-4.3.2-8.5 0-12.8H7c-2.3 0-4.7-.1-7 .6V22.4A25.5 25.5 0 0 1 22.3 0M18 56.7c.3 18.6.1 37.1.1 55.7H36c14.3.2 28.6-.1 43 .1-.3-2.6-3.4-3-4.8-4.8-1.8-1.5-3.2-3.8-5.2-4.8l-.2-.7a15.2 15.2 0 0 0-4.4-3.5l-7.4-7c-4.6-3.9-9.1-7.9-13.3-12.2-3-1.4-4.7-4.7-7.4-6.5v-.2c-6.5-5-12-11-18.3-16.1m216 3.2c-4.5 4.5-9.5 8.4-14 12.8-2.5 1.6-3.9 4.6-6.7 5.7-4.7 5-10 9.2-15 14v-.2c-3.4 3.8-7.6 6.6-11.2 10.1v.7h-1v.7c-2.2 1.2-3.4 3.8-5.8 4.8-1.1 1.3-3 2.2-3.3 4 14.3-.2 28.7.1 43-.2 6 .1 12 .4 17.9 0 0-18.5-.2-37 .1-55.5-1.4 1-2.9 1.8-4 3m-123.7 95.4v11.6c2.2.3 4.4.3 6.6 0 .2-3.9.2-7.8 0-11.8a35 35 0 0 0-6.6.2m28.8-.1c-.2 4-.2 7.9 0 11.8 2 .2 3.9.2 5.8 0 .2-4 .2-7.9 0-11.8-2-.2-3.9-.2-5.8 0z"/><path d="M99 0h58c0 11.3.2 22.6 0 34 0 2-2.4 2.4-4 2.3h-49c-1.5 0-3.1 0-4.4-.9-1-11.7.1-23.6-.6-35.4z"/></g><path fill="#7b9fba" d="M90.2 0H99c.7 11.8-.5 23.7.6 35.4 1.3 1 2.9.9 4.4.9h49c1.6 0 4-.3 4-2.4.2-11.3 0-22.6 0-33.9h9v44c0 2.3 0 4.5-.3 6.7-2 1.2-4.4 1-6.7 1.1h-56c-3.5 0-7.1.3-10.6-.3-2.4-.7-2.2-3.6-2.3-5.5V0z"/><path fill="#fff" d="M18 56.7c6.4 5 11.8 11.2 18.3 16v.3c-.7 10.3-.1 20.8-.3 31.1v8.2c-6 .2-12 .2-17.9.1 0-18.6.2-37.1-.1-55.7zm216 3.2c1.1-1.3 2.6-2.1 4-3-.3 18.4 0 36.9-.1 55.4-5.9.4-12 .1-17.9 0V72.7c4.5-4.4 9.5-8.3 14-12.8zM57 91.8l7.4 7c1.6.8 3.2 2 4.4 3.4l.2.7v6H57v-4.8c0-4.1.1-8.2 0-12.3zm141.3.4v.2c.4 4.2 0 8.5.2 12.7v3.9H187v-6l.1-.7c3.7-3.5 7.8-6.3 11.2-10z"/><path fill="#312c29" d="M213.3 78.4c2.8-1 4.2-4 6.7-5.7v31.5c-7 2.2-14.4.7-21.5.9-.1-4.2.2-8.5-.2-12.7 5-4.8 10.3-9 15-14zM36 104.1c.2-10.3-.4-20.8.3-31 2.7 1.8 4.4 5 7.4 6.4 4.2 4.3 8.7 8.3 13.3 12.3.1 4 0 8.2 0 12.3a40 40 0 0 1-21 0z"/><path fill="#5a4b3c" d="M69 102.9c2 1 3.4 3.3 5.2 4.8 1.4 1.8 4.5 2.2 4.7 4.8-14.3-.2-28.6.1-42.9-.2v-8.2a40 40 0 0 0 21 0v4.9h12v-6.1zm111.3 5.6c2.4-1 3.6-3.6 5.8-4.8h.9v5.3h11.5v-4c7.1-.1 14.6 1.4 21.5-.8v8.1c-14.3.3-28.7 0-43 .2.3-1.8 2.2-2.7 3.3-4z"/><path fill="#002842" d="M186.1 103h1l-.1.7h-1l.1-.7z"/><path fill="#738ea5" d="M110.3 155.2a35 35 0 0 1 6.6-.2c.2 4 .2 8 0 11.9-2.2.2-4.4.2-6.6-.1v-11.6zm28.7-.2h6v12h-6v-12z"/><path fill="#a58386" d="M0 158.7c2.3-.7 4.7-.6 7-.6h80c.2 4.3-.1 8.6 0 12.8 27.4.1 54.6 0 82 0 .1-4.3-.2-8.5 0-12.8 29 0 58-.2 87 .1V202c-11.2-.8-22.6-.1-33.9-.4.2-4.8.5-9.6 0-14.4-63-.2-126 0-189 0-.3 4.8 0 9.6 0 14.4-11 .1-22-.1-33.1.2v-43.1z"/><path fill="#c8a2aa" d="M33.2 187.2c63 0 125.9-.2 188.8 0 .6 4.8.3 9.6.1 14.4-63 0-126 .1-189 0 0-4.8-.3-9.6 0-14.4z"/><path fill="#e9e1c0" d="M0 201.8c11-.3 22 0 33-.2h189.1c11.3.3 22.7-.4 33.9.4v31.5a25.5 25.5 0 0 1-22.3 22.5H22.4A25.5 25.5 0 0 1 0 233.6v-31.8z"/></svg>