<svg xmlns="http://www.w3.org/2000/svg" viewBox="0 0 256 256"><g fill="#c698c3"><path d="M22.6 0H101c.1 10.7-.2 21.3.2 32 .2 8.2 0 16.5.1 24.8h53.9L155 32c-.3-10.7 0-21.3-.2-32h78.3A25.5 25.5 0 0 1 256 22.6v210.6a25.3 25.3 0 0 1-22.6 22.8H22.9A25.3 25.3 0 0 1 0 233.4V22.8A25.3 25.3 0 0 1 22.6 0m-4 52.1c-.3 18.5-.2 37-.2 55.4h21.1v-.2c4.8.4 9.6.2 14.4.2h38.5c-6-4.5-12.1-8.7-17.9-13.5-4.3-2.5-7.7-6.1-12-8.7-3-1.8-5.5-4.5-8.4-6.5v1.5c-2.6-3.2-5.2-6.5-9-8.3l-5.6-3.8c-6.8-5.6-14-10.7-21-16m198.9 16c-2 1-3.8 2.3-5.4 3.7-3.5 2.2-7.4 4.4-9 8.4v-1.6c-12.7 9.6-25.7 19-38.3 28.9 12.8-.2 25.6 0 38.4-.1h14.5c6.8-.2 13.6.1 20.4-.2v-55c-6.8 5.5-14.1 10.2-20.6 16M109 114v8.3l7 .1V114h-7m31.6 0v8.4h6.8V114h-6.8M84 146v72.3c29.4.3 58.9.1 88.3 0 .6-10.3.2-20.8.2-31.3v-41c-5 0-9.9 0-14.8.2l-.1 2.1-.6-2.3H99.8l-.3 2.4-.2-2.4H84z"/><path d="M111 0h34v20h-34c-.2-6.7 0-13.4 0-20z"/></g><path fill="#b586b5" d="M101 0h10c0 6.6-.2 13.3 0 20h34V0h9.9c.2 10.7 0 21.3.2 32h-53.9c-.4-10.7 0-21.3-.2-32z"/><path fill="#895e8e" d="M101.2 32h53.9c.1 8.2 0 16.5 0 24.7h-53.8c0-8.2.1-16.5 0-24.7z"/><path fill="#fff" d="M18.5 52.1c7 5.4 14.2 10.5 21 16.1v39.3h-21c0-18.4-.2-36.9 0-55.4zm198.9 16.2c6.5-5.8 13.8-10.5 20.6-16v55c-6.8.3-13.6 0-20.4.3 0-13.1.3-26.3-.2-39.3zM99.8 146H157l.6 2.3v48h-58l-.1-9.1v-38.8l.3-2.4z"/><path fill="#aa615a" d="M39.5 68.2c2 1.2 3.8 2.5 5.6 3.8L45 91.4h9v16c-4.9.1-9.7.3-14.5 0V68.1zM212 72c1.6-1.5 3.3-2.9 5.4-3.8.5 13.1.1 26.3.2 39.3h-14.5a662 662 0 0 1-.1-16.1l9 .1V72z"/><path fill="#ce9a94" d="M45 72c4 1.8 6.5 5.1 9 8.3v11h-9V72z"/><path fill="#cb9b96" d="M203 80.3c1.6-4 5.5-6.2 9-8.4v19.6l-9-.1V80.3z"/><path fill="#470d15" d="M54.1 78.8c3 2 5.4 4.7 8.4 6.5 4.3 2.6 7.7 6.3 12 8.7 5.8 4.8 12 9 18 13.5H53.8l.1-16.2v-11l.1-1.5zm110.6 28.8c12.6-9.9 25.6-19.3 38.4-29v1.7c-.2 3.7 0 7.4-.1 11.1v16c-12.7.2-25.5 0-38.3.2z"/><path fill="#735b73" d="M109 114h7v8.4h-7V114z"/><path fill="#735d73" d="M140.6 114h6.8v8.4h-6.8V114z"/><path fill="#946270" d="M84 146h15.3l.2 2.4v38.8c-5.2-.1-10.3-.2-15.5-.1v-41zm73.7.2c5-.2 9.9-.3 14.8-.1v41h-14.9v-40.9z"/><path fill="#c8829f" d="M84 187c5.2 0 10.3 0 15.5.2v9.1h58l.1-9.1c5-.2 10-.2 14.9-.2 0 10.5.4 21-.2 31.4-29.4 0-58.9.2-88.3 0V187z"/></svg>