<svg xmlns="http://www.w3.org/2000/svg" viewBox="0 0 256 256"><g fill="#c698c3"><path d="M22.4 0h74H95l1 1.8-1.7-.2c-.8 6.7-.5 13.6-.5 20.4.2 14.7-.2 29.3.2 44 12.7.4 25.4 0 38 .2 10-.1 20 .2 30-.2.6-19.3 0-38.7.2-58a12 12 0 0 0-2.3-8h73.7a41 41 0 0 1 8.3 2.3l4 2.5 3.4 2.9a27 27 0 0 1 6.7 14.7v211.3a25.9 25.9 0 0 1-10 17.4l-3.2 2.3-1.1-1 .4 2.1-.6-.6c-2.6.9-5.2 1.7-7.9 2.1H22.4c-2.6-.4-5.2-1.2-7.7-2h-.4l-6.5-4.6-1.2-1.3-2.1-2.5C2.2 242 .5 238 0 233.7V22.3A27 27 0 0 1 6.7 7.7l1-1C12 3 17 .7 22.5 0M231 80.6h-.3c-4 2.4-7.7 5.2-11.5 8-2.1 1.5-5.2 2.7-6 5.5v-1.4c-4.5 3-9 6-13.4 9.2-1 .4-4.1-.3-3.6 1.6h-.4c-2 3.6-6.5 4.6-9 7.6-.5 2-.3 4-.3 6h-.3l-.1-6-2.6 2.2c-1.8 1-3.5 2.2-5.3 3.3h-.2c-3 2.5-6.3 4.6-9.5 7-.8-1.5-1.7-2.9-1.7-4.6-.1-7 .2-14 0-21l-5.8.2v26.6c2.3.6 4.7 1.3 7 .3 14.6-.1 29.2-.2 43.9 0h4.1c8-.2 16 0 23.9 0-.1-17-.2-34 0-51-3 2-6 4.2-9 6.5M17 74.7V125h26.1c15 .1 29.9-.3 44.8.2 2.3.8 4.7.2 7-.4.3-8.9.3-17.8 0-26.7h-4.7c-.5 7.3.2 14.7-.2 22 0 1.6-1.8 2.2-2.7 3.2-3-2.4-6.3-4.4-9.3-6.7h-.3c-2.5-2-5.2-3.7-8-5.4v5.9h-.3c-.2-2.2.5-4.6-.6-6.5-3.6-3-7.6-5.3-11.3-8.1-3.7-2.5-7.6-4.8-11-7.6L43 92.8v-.2c-8.6-6-17.2-12-26-17.9m91 75.3v11h6v-11h-6m34.8 0c0 3.6-.7 7.2.3 10.7l4.8.4V150h-5M38 160v49.3h180V160c-3.8 0-7.5 0-11.3.2-6.5-.4-13.1-.1-19.7-.3-8.6.2-17.2 0-25.7.2v9.5H94.7l.1-9.5c-8.5-.2-17.1 0-25.7-.2-6.5.2-13.1 0-19.7.2H38z"/><path d="M100 0h56v45c-18.7 0-37.3.2-56 0V0z"/></g><path fill="#ba8bb7" d="M96.5 0h3.5v45c18.7.2 37.3 0 56 0V0h4a12 12 0 0 1 2.2 8c-.3 19.3.4 38.7-.3 58-10 .4-19.9 0-29.9.2-12.6-.1-25.3.2-38-.2-.4-14.7 0-29.3-.2-44 0-6.8-.3-13.7.5-20.4l1.6.2L95 0h1.6z"/><path fill="#fff" d="M231 80.6l9-6.6c-.2 17-.1 34 0 51-8 .1-16-.1-23.9.1H212h1.3v-31c.8-2.8 3.9-4 6-5.6 3.8-2.8 7.5-5.5 11.5-7.9h.3zM17 74.7c8.8 5.8 17.4 11.9 26 17.9v.2c.2 8 0 16.1.1 24.2v8H17V74.7zM57.4 117v-14.5c3.8 2.8 7.8 5.1 11.4 8 1 2 .4 4.4.6 6.6h-12zm138.9-13.5h2.4l-.1 13.5h-12c0-2-.2-4 .2-6 2.6-3 7-4 9.1-7.5h.4zm-147 56.6c6.6-.3 13.2 0 19.7-.2v19.8H49.3v-19.6zM187 160c6.6 0 13.2-.2 19.7.2v19.5H187v-19.8z"/><path fill="#362d26" d="M43 92.8l3.4 2.1c3.5 2.8 7.4 5 11 7.5V117H43V92.8zm156.9 9.1c4.4-3.2 8.9-6.3 13.5-9.2V117c-5-.2-9.9-.1-14.8 0l.1-13.6h-2.4c-.5-1.9 2.5-1.2 3.6-1.6z"/><path fill="#ba8eb7" d="M90.2 98l4.7.1c.3 9 .3 17.8 0 26.7-2.3.6-4.7 1.2-7 .4h1.8a404 404 0 0 0-2.4-1.9c1-1 2.8-1.6 2.7-3.2.4-7.3-.3-14.7.2-22z"/><path fill="#bd8eb5" d="M161.1 98.2l5.8-.2c.2 7-.1 14 0 21 0 1.7 1 3.1 1.7 4.5l-2 1.5h1.5c-2.3 1.1-4.7.4-7-.2V98.2z"/><path fill="#393029" d="M69.8 111.2a102 102 0 0 1 8 5.4c-2.7.3-5.4.4-8 .5v-6z"/><path fill="#382d27" d="M183.6 113.3l2.6-2.3v6c-2.6 0-5.2-.2-7.9-.4 1.8-1.1 3.5-2.3 5.3-3.3z"/><path fill="#705e4a" d="M77.7 116.6h.3c3 2.3 6.3 4.3 9.3 6.7l2.4 2-1.8-.1c-15-.5-29.8 0-44.8-.2v-8h26.7c2.6 0 5.3-.1 8-.4zm100.3 0h.3l8 .5h12.3c5-.1 9.8-.2 14.8 0l-.1 8H212c-14.7-.2-29.3-.1-44 0h-1.4l2-1.6c3.2-2.3 6.5-4.4 9.5-7z"/><path fill="#a777a7" d="M108 150h6v11l-6-.1V150zm34.8 0h5.1v11l-4.8-.3c-1-3.5-.3-7.1-.3-10.7z"/><path fill="#946270" d="M38 160l11.3.1v19.6H69v-19.8c8.6.2 17.2 0 25.7.2v9.5h66.7l-.1-9.5c8.5-.2 17.1 0 25.7-.2v19.8h19.8c-.2-6.5-.2-13 0-19.5 3.7-.2 7.4-.2 11.2-.2v49.3h-23c.2-7.1.2-14.2 0-21.3H61c-.2 7-.2 14.2 0 21.3H38V160z"/><path fill="#ba879c" d="M61 188h134c.2 7 .2 14.2 0 21.3H61c-.2-7.1-.2-14.2 0-21.3z"/></svg>