<svg xmlns="http://www.w3.org/2000/svg" viewBox="0 0 256 256"><g fill="#b783b2"><path d="M22.4 0h61.8c-.3 11 0 22-.1 33-.1 3 .2 6 1 9 3.9.2 7.9.4 11.9.3h71c3.2.4 4-3 3.9-5.3 0-12.3-.2-24.6 0-37h61.6A25.4 25.4 0 0 1 256 22.4v129.3c-5.3-.9-10.7-.5-16-.6h-78v16.7H94v-16.6c-31.4 0-62.7-.3-94 .1V22.6A25.4 25.4 0 0 1 22.4 0M18 55v50.3c7.3 0 14.6-.1 22 .2l.2-2c1.5 2.5 4.4 1.8 6.8 1.9l38.1-.1a88.7 88.7 0 0 0-11.4-8.8C71.1 94 68 92.2 65.1 90c-2.9-1.6-5.3-3.8-8-5.6v-.6c-5.6-3.4-10.3-8-15.8-11.4l.6.4L18 55m219.8 0c-7.2 5.6-14.6 10.8-21.8 16.4-5.8 4-11.3 8.6-17 12.6v.5c-2.8 1.7-5.4 3.7-8 5.6-2.8 2.3-6 4-8.7 6.4-4 2.7-8 5.5-11.4 8.8H238c-.2-16.7 0-33.5-.2-50.2M86.1 70c-.3 11.8-.3 23.8 0 35.6h6.7c.5-11.8.3-23.7 0-35.6h-6.6m77 9.1a263 263 0 0 0 0 26.7h6.5c2-8.8 1.4-17.8 1.2-26.7h-7.7M114.8 152a101 101 0 0 0 0 11h4.5c.2-3.7.2-7.3 0-11h-4.5m22 0a110 110 0 0 0 0 11h4.4c.2-3.7.2-7.4 0-11h-4.5z"/><path d="M92 0h72c-.3 9.5.6 19.1-.6 28.6-6.4 1-13 .4-19.5.5h-40c-3.9.2-7.7 0-11.5-.6-1-9.5-.4-19-.4-28.5zM0 208h256v25.5a25.4 25.4 0 0 1-22.4 22.5H22.5A25.4 25.4 0 0 1 0 233.5V208z"/></g><path fill="#aa76a2" d="M84.2 0H92c0 9.5-.6 19 .5 28.5 3.8.6 7.6.8 11.5.6h40c6.5-.1 13 .5 19.5-.5 1.2-9.5.3-19 .6-28.6h7.9c-.3 12.3 0 24.7-.1 37 0 2.4-.8 5.7-3.8 5.2H97c-4 .2-8 0-12-.3a38 38 0 0 1-1-8.9c.3-11 0-22 .2-33z"/><path fill="#fff" d="M18 55l24 17.8-.6-.4-1-.6v31.8l-.3 1.9c-7.4-.3-14.7-.1-22-.2V55zm219.8 0c.3 16.8 0 33.6.2 50.3h-22l-.1-9.1V71.4c7.2-5.6 14.6-10.8 21.8-16.3zM57 84.4c2.8 1.8 5.2 4 8 5.6v9h-7.9V84.4zm134 5.7c2.6-2 5.2-4 8-5.6V96l-.1 3-8-.1v-2.6l.2-6.3zM0 176h15v18h52.4c.4 4.7.3 9.3.3 14H0v-32zm241 0h15v32h-67v-14h52v-18z"/><path fill="#ad7ba5" d="M86.2 70h6.7c.2 12 .4 23.9 0 35.8H86c-.3-12-.3-23.9 0-35.7zm77 9.2h7.7c.2 8.9.7 17.9-1.2 26.6h-6.5a263 263 0 0 1 0-26.6z"/><path fill="#362e31" d="M199 84c5.8-4 11.2-8.6 17-12.6v24.8c-5.7.6-11.4.5-17-.1V84zM40.4 71.8l.9.6c5.6 3.3 10.2 8 15.8 11.4V96a73 73 0 0 1-16.7.2V71.8z"/><path fill="#393031" d="M65 90c3 2.2 6.1 4 8.7 6.5l-8.7-.1V90zm117.3 6.5c2.7-2.5 6-4.1 8.8-6.4l-.2 6.3h-8.6z"/><path fill="#4a4142" d="M40.4 96.2A73 73 0 0 0 57 96v3h8v-2.6l8.6.1c4 2.7 8 5.5 11.4 8.8-12.7.2-25.4 0-38 0-2.5 0-5.4.7-6.9-1.7.2-2.5.2-5 .2-7.4zm130.5 9.1c3.5-3.3 7.5-6.1 11.4-8.8h8.6V99h8v-3c5.7.7 11.4.8 17 .2l.2 9c-15 .2-30.2.2-45.2 0z"/><path fill="#967a7e" d="M0 151.3c31.3-.4 62.6 0 94-.1v16.6h68V151h78c5.3 0 10.7-.3 16 .6V176h-15v18h-23l-.1-8.6H38v8.6H15v-18H0v-24.7z"/><path fill="#94698c" d="M114.8 152h4.5c.2 3.7.2 7.3 0 11h-4.5a101 101 0 0 1 0-11zm21.9 0h4.5c.2 3.6.2 7.3 0 11h-4.5a110 110 0 0 1 0-11z"/><path fill="#af8e94" d="M38.1 185.4h179.8l.2 8.6H189v14H67.7c0-4.7 0-9.3-.3-14H38l.1-8.6z"/></svg>