<svg xmlns="http://www.w3.org/2000/svg" viewBox="0 0 256 256"><path fill="#f7d8db" d="M22.5 0h133.8c.6 4 1 8 .8 12-.2 7.3.3 14.5-.3 21.8-29.9.4-59.8 0-89.8.2-2.5-.1-5.4.2-7.5-1.5C51 26.4 43.6 19.1 35 13.2c-5.6 4.6-11.8 8.5-17 13.6 7 6.8 15.2 12.2 22.6 18.6 3 2.4 6 5.9 10.3 5.6 44.3-.1 88.6.1 132.9-.2.4-16.9.1-33.8.2-50.8h49.2A25.4 25.4 0 0 1 256 22.4v120.7c-12.3 0-24.6-.3-36.8 0a553 553 0 0 0 0 28.8c12.2.2 24.5 0 36.8 0v61.6c-1 11.6-11 21.5-22.5 22.5H22.7A25.4 25.4 0 0 1 0 233.6V172c12.3 0 24.6.1 36.9-.2.1-9.6.2-19.1 0-28.7-12.3-.2-24.6.1-36.9-.1V22.5C1 11 11 1 22.5 0M56 80l-.3 12.3V129h21v-13l.1-23.8H76c1.1-4 1.1-8 .8-12-7-.5-13.8-.4-20.8-.2m123.2 0c-.3 4.2-.3 8.3.8 12.2h-.8V129h21V92.3c0-4 0-8.1-.2-12.2-6.9 0-13.8-.4-20.8 0M86 141.7v39.5c-.1 11 0 21.9.1 32.8 9.7.5 19.3 0 29 .2 18.2-.1 36.5.2 54.8-.1.2-11 0-22 0-32.9V163c-6.6-.3-13.2-.1-19.9 0v-.8c6.6.3 13.3.5 19.9-.1.2-6.8.2-13.5 0-20.2-6.6-.4-13.3 0-19.9-.2-21.3-.2-42.7 0-64 0z"/><path fill="#eccdd0" d="M156.3 0h27.8c0 17 .2 33.9-.2 50.8-44.3.3-88.6 0-133 .2-4.2.3-7.1-3.2-10.2-5.6C33.3 39 25 33.6 18 26.8c5.2-5 11.4-9 17-13.6 8.5 6 16 13.2 24.4 19.3 2.1 1.7 5 1.4 7.5 1.5 30-.3 59.9.2 89.8-.2.6-7.3 0-14.5.3-21.8.1-4-.2-8-.8-12z"/><path fill="#eff0ef" d="M56 80c7 0 13.9-.2 20.8.2.3 4 .3 8.2-.8 12.1H55.7l.3-12.2zm123.2.2c7-.5 14-.2 20.8-.1.2 4 .2 8.1.3 12.2H180c-1.2-4-1-8-.8-12.1zM150 141.7c6.6.1 13.3-.2 19.9.2.2 6.7.2 13.4 0 20.2-6.6.6-13.3.4-19.9 0v-20.4z"/><path fill="#1e0405" d="M55.7 92.3h21.1v23.8c-7-.2-14-.1-21 0V92.2zm123.5 0h21.1V116c-7 0-14-.1-21 .1l-.1-23.8z"/><path fill="#4f7a9f" d="M55.7 116c7 0 14-.1 21 .1V129h-21v-13zm123.5.1c7-.2 14-.1 21 0V129h-21v-13z"/><path fill="#bd96aa" d="M86 141.6h64V163c6.7 0 13.3-.2 20 .1v18.1c-28-.2-56-.2-84 0v-39.5z"/><path fill="#e7c5d6" d="M0 143c12.3.2 24.6-.1 36.9 0 .2 9.7.1 19.3 0 28.8-12.3.3-24.6.1-36.9.2v-29zm219.2.2c12.2-.3 24.5 0 36.8-.1V172c-12.3-.1-24.6.1-36.9-.2-.3-9.5-.1-19 0-28.6z"/><path fill="#e4c8d6" d="M86 181.1c28-.2 56-.2 84 0l-.1 32.9c-18.3.3-36.6 0-54.9.1-9.6-.2-19.3.3-28.9-.2 0-11-.2-21.9 0-32.8z"/></svg>