<svg xmlns="http://www.w3.org/2000/svg" viewBox="0 0 257 257"><path fill="#f7d7c8" d="M23.5 0h138.6c-.2 7.6.1 15.3-.2 23-27.6.3-55.3 0-82.9 0-7.2.2-14.4-.3-21.5.3-.2 4.1-.9 8.3.1 12.2 1.9 3 4.8 5.2 7.1 7.7 1.6 1.4 3 3.4 5.2 3.6 4 .5 8.1.1 12.1.2h102c1.9 0 3.8 0 5.5-.6 2.8-1.8 4.9-4.4 7.3-6.6 1.8-2 4.2-3.8 4-6.8.1-11-.3-22 .2-33h33.3A25.4 25.4 0 0 1 257 22.4v211.2c-1 10.8-9.6 20-20.2 22.1l1 1.3H20.2l1-1.3c-9.2-2-17.7-9.4-19.3-19 1-1.2-.2-3.8-1.8-2.6V22.3l2.6-.5L0 20.4v-1.1h.6c1.6-.5 1.6-2.4 2.2-3.7A25 25 0 0 1 23.5 0M65 86v13a2194.2 2194.2 0 0 1 0 38h20V86H65m107 0c.2 4.3-.7 8.9.8 13h-.8v38h20V99h-3.2l3.2-.7V86h-20M41 87.1c-.4 6 0 12-.2 17.9.2 10.9-.3 21.8.3 32.7h8.5c0-1.5.2-2.8.3-4.2l-4.2-1.3c-.9-1.6-.5-3.5-.6-5.2.2-11.5-.2-23 .1-34.5 1.4-.4 2.8-.8 4-1.3.9-1.2.5-2.8.8-4-3-.2-6-.2-9-.1m167 0v4.5l4.8.7c0 13.3.4 26.7-.3 40-1.5.5-3.3.6-4.7 1.7l.6 3.6c2.8.2 5.7.3 8.5.2.6-7.3.2-14.5.3-21.8-.2-9.6.2-19.2-.2-28.8-3-.2-6-.3-9 0M82 153.8c0 9-.1 18 .1 26.8v26.1h92.7c.4-8.7.1-17.3.1-26 .2-9 .1-18 0-26.9H82z"/><path fill="#e7c9ba" d="M162 0h39c-.5 11 0 22-.2 33 .2 3-2.2 4.9-4 6.8-2.4 2.2-4.5 4.8-7.3 6.6-1.7.7-3.6.5-5.5.6H82c-4 0-8 .3-12-.1-2.3-.3-3.7-2.3-5.3-3.7-2.3-2.5-5.2-4.7-7-7.7-1-4-.4-8.1-.2-12.2 7.1-.6 14.3-.1 21.5-.3 27.6 0 55.3.3 82.9 0 .3-7.7 0-15.4.2-23z"/><path fill="#fff" d="M65 86h20v13H65V86zm107 0h20v12.3l-3.2.7h-16c-1.5-4.1-.6-8.7-.8-13z"/><path fill="#ecccbd" d="M41 87.1h9c-.3 1.4 0 3-.7 4-1.3.6-2.7 1-4 1.4-.4 11.5 0 23-.2 34.5.1 1.7-.3 3.6.6 5.2l4.2 1.3-.3 4.1c-2.9.2-5.7.2-8.5.1-.6-10.9-.1-21.8-.3-32.7.1-6-.2-12 .3-17.9zm167 .1c3-.3 6-.2 9 0 .4 9.6 0 19.2.2 28.8-.1 7.3.3 14.5-.3 21.8-2.8 0-5.7 0-8.5-.3l-.6-3.5c1.3-1 3.2-1.2 4.8-1.7.7-13.3.2-26.7.2-40l-4.7-.7v-4.4z"/><path fill="#260400" d="M65 99h20v24.3H65V99zm107 0h20v24.2c-6.7.2-13.3.1-20 .1V99z"/><path fill="#6b6560" d="M65 123.3h20V137H65v-13.7zm107 0c6.7 0 13.3.1 20-.1V137h-20v-13.7z"/><path fill="#ba9094" d="M82 153.8h93l-.1 26.9H82.1c-.2-9 0-18 0-26.9z"/><path fill="#e4aeb2" d="M82.1 180.7H175c0 8.7.3 17.3 0 26H82v-26z"/><path fill="#a89287" d="M0 234.1c1.6-1.3 2.8 1.4 1.8 2.6l-1.8.4v-3z" opacity=".7"/></svg>