<svg xmlns="http://www.w3.org/2000/svg" viewBox="0 0 256 256"><path fill="#c88e6d" d="M21.4 0H49c.3 9.3.2 18.7.1 28 0 1.8 0 3.6.5 5.3 2.8 2.6 6.1 4.6 9.3 6.8 2 1.5 4.6 1.8 7 1.8 10.3 0 20.6-.2 31 0 .2 8.4-.3 16.8 0 25.2-.2 3 2.7 4.6 4.8 6 2.6 2 6 1.8 9.2 1.8 12-.2 24 0 36 0 4 .1 7.7-2.8 9.7-6 .9-9 0-18 .3-27 10.7-.3 21.3 0 32 0 5.5 0 9.5-4.4 13.8-7.2 2.5-1.3 1.8-4.4 2-6.8-.2-9.3-.1-18.6 0-27.9h27.7a26 26 0 0 1 22.3 20.1l1.2-1v218l-1.2-1.4a26 26 0 0 1-22.2 20.3H21.4C11.7 255 3 248 0 238.6V17.4C3 8.1 11.6 1 21.4 0m-1 65.4V126H82V65.4H20.2m151.8 0c-.2 20.2 0 40.4-.1 60.6h61.7V65.4H172M109 122v24h36v-24h-36m-10.1 62c-.2 13.3-.4 26.5.1 39.7h56c.5-13.2.3-26.4.1-39.6H99z"/><path fill="#de8242" d="M49.1 0h155.6v28c-.1 2.3.6 5.4-1.9 6.7-4.3 2.8-8.3 7.2-13.8 7.2-10.7 0-21.3-.3-32 0-.3 9 .6 18-.3 27-2 3.2-5.6 6.1-9.7 6-12 0-24-.2-36 0-3.1 0-6.6.2-9.2-1.8-2.1-1.4-5-3-4.8-6-.3-8.4.2-16.8 0-25.2-10.4-.2-20.7 0-31 0-2.4 0-5-.3-7-1.8-3.1-2.2-6.5-4.2-9.3-6.8-.5-1.7-.4-3.5-.5-5.3 0-9.3.2-18.7 0-28z"/><path fill="#65463c" d="M20.3 65.4H82c.2 20.2 0 40.4.1 60.6H66c0-7.2.1-14.5-.2-21.8-12.9-.2-25.8-.2-38.7 0-.2 7.3 0 14.6 0 21.9h-6.8V65.3M54 69v20h17V69H54zm118-3.6h61.7V126H227c0-7.2.2-14.5-.1-21.8-13-.2-25.8-.2-38.7 0-.3 7.3-.2 14.6-.2 21.9h-16V65.3m11 3.6v20h17V69h-17z"/><path fill="#fff" d="M54 69h17v20H54V69zm129 0h17v20h-17V69z"/><path fill="#705247" d="M27.1 104.2c13-.2 25.8-.2 38.7 0 .3 7.3.2 14.6.2 21.9H27c.1-7.3-.1-14.6.1-22zm161.1 0c12.9-.2 25.8-.2 38.7 0 .3 7.3 0 14.6 0 21.9H188c0-7.3-.1-14.6.2-22z"/><path fill="#4c413f" d="M109 122h36v24h-36v-24z"/><path fill="#9c7e7e" d="M98.9 184H155c.2 13.3.4 26.5-.1 39.7h-8V205h-40v18.7h-8c-.5-13.2-.3-26.4-.1-39.6z"/><path fill="#e7c3ce" d="M107 205h40c.1 6.2.1 12.4 0 18.6h-40c-.1-6.2-.1-12.4 0-18.6z"/></svg>