<svg xmlns="http://www.w3.org/2000/svg" viewBox="0 0 256 256"><path fill="#d6c994" d="M22.5 0H51c.1 13 .4 25.8-.1 38.7H16.2c-.3-12.4.2-24.8-.3-37.1C18.1.8 20.3.3 22.5 0zm182.4 0h28.4c2.3.3 4.6.8 6.8 1.6-.5 12.3 0 24.7-.3 37l-34.7.1c-.5-12.9 0-25.8-.2-38.7z"/><path fill="#f4eca5" d="M51 0h21.4c-.8 12.9-.4 25.9-.2 38.8 37.1 0 74.2.1 111.4-.1-.1-13 .3-25.8-.6-38.7h21.9c.1 12.9-.3 25.8.2 38.7h34.8c.2-12.4-.3-24.8.2-37.1 8.7 3.4 15 11.7 15.9 21v210.7a25.3 25.3 0 0 1-22.6 22.7H22.8A25.3 25.3 0 0 1 0 233.4V22.7C.8 13.4 7.2 5 16 1.6c.4 12.3 0 24.7.2 37l34.7.1C51.4 25.8 51 13 51 0M18 86.5v53.2h69.3c-3.2-4-7.7-6.5-11.7-9.5-3-2.2-5.8-4.9-9-7v-.2c-4-2.5-7.4-5.6-11-8.4-2.3-1.4-4.3-4-7.3-3.6.2-1.5-.4-2.8-1.8-3.5-5-3.5-9.7-7.7-15.1-10.8-1.4-2.8-5-4-7.2-6.1-2-1.3-3.6-3.8-6.2-4M224.6 96v.5c-4.7 3-9 6.5-13.4 9.8-1.6 1.2-4.1 2.2-3.5 4.7a6 6 0 0 0-3.7 1c-5.1 3.4-9.4 7.8-14.6 11v.1c-3 2.2-6 4.3-8.7 6.8-4 3.2-8.7 5.7-12 9.8H238V91c-.1-1.6.4-3.6-.9-4.8-3.8 3.6-8.4 6.4-12.5 9.8m-112.3 47.3V166h31.4v-22.7h-31.4z"/><path fill="#f1e58c" d="M72.4 0H183c1 12.9.5 25.8.6 38.7-37.2.2-74.3.1-111.4 0-.2-12.9-.6-25.8.2-38.7z"/><path fill="#d3735a" d="M18 86.5c2.6.3 4.1 2.8 6.2 4 2.2 2.2 5.8 3.4 7.2 6.2.1 4.7 0 9.5 0 14.3h8.2c-1.4 6.9-.9 14-.6 21 8.9.4 17.7.6 26.5 0 .3-3 .7-6 1.2-8.9 3 2.2 5.8 4.9 9 7 4 3.1 8.4 5.7 11.6 9.6H18V86.5zM224.6 96c4.1-3.4 8.7-6.2 12.5-9.8 1.3 1.2.8 3.2 1 4.8-.2 16.2 0 32.5-.1 48.7h-69.3c3.3-4 8-6.6 12-9.8 2.8-2.5 5.7-4.6 8.7-6.8l1.1 8.8c8.8.7 17.7.5 26.5.1.3-7 .8-14-.6-21h8.2V96z"/><path fill="#ffefec" d="M31.4 96.7c5.4 3 10 7.3 15.1 10.8 1.4.7 2 2 1.9 3.5h-17c0-4.8.1-9.6 0-14.3zm179.8 9.6c4.4-3.3 8.7-6.8 13.4-9.8V111h-16.9c-.6-2.5 2-3.5 3.5-4.7z"/><path fill="#e97e63" d="M39.6 111h8.8c2.9-.3 4.9 2.2 7.1 3.6 3.7 2.8 7.2 6 11.2 8.4v.1l-1.2 8.8c-8.8.7-17.6.5-26.5.1-.3-7-.8-14.1.6-21zm164.4 1c1-.8 2.3-1 3.7-1h8.7c1.4 7 .9 14 .6 21-8.8.4-17.7.6-26.5 0l-1.1-8.9v-.1c5.2-3.2 9.5-7.6 14.6-11z"/><path fill="#393931" d="M112.3 143.3h31.4V166h-31.3c-.2-7.6-.1-15.1-.1-22.7z"/></svg>