<svg xmlns="http://www.w3.org/2000/svg" viewBox="0 0 256 256"><g fill="#f4d5de"><path d="M22.4 0H70v54c-.1 2 0 4.6 2.3 5.5 3.1.7 6.4.4 9.6.4h91c3.5 0 7.2.4 10.6-.4 2.5-1.6 2.4-5 2.5-7.5.1-8.3-.1-16.6.1-25 4.6-.3 9.2 0 13.8-.1 1.7 0 3.5-1.2 3.7-3 .5-4 0-8 .2-11.9 0-4 .7-8.5-2-12h31.6A25.5 25.5 0 0 1 256 22v211.6a25.4 25.4 0 0 1-22.4 22.4H22.4A25.4 25.4 0 0 1 0 233.6V22.4A25.5 25.5 0 0 1 22.4 0M19 76v77h76V76H19m142 0a6806 6806 0 0 0 0 77h76V76h-76m-54.8 74.2V184c14.5 0 29 .1 43.6-.1V150h-43.6z"/><path d="M81 0h113c0 4 .4 8-.2 11.9-.8 1.8-2.6 3.3-4.7 3.2-4.7.2-9.3-.2-14 .1-.6 7 0 13.9-.2 20.8 0 3.5-3.5 6.2-6.9 5.8H94c-3.5-.1-7.2.3-10.7-.4-2.3-.7-2.1-3.5-2.2-5.4 0-12 .2-24-.1-36z"/></g><path fill="#e4c5ce" d="M70 0h11c.3 12 0 24 0 36 .2 2 0 4.7 2.3 5.4 3.5.7 7.2.3 10.7.4h74c3.4.4 7-2.3 7-5.8.1-6.9-.5-13.9 0-20.8 4.8-.3 9.4 0 14.1-.1 2 0 4-1.4 4.7-3.2.6-4 .2-8 .3-11.9h7.8c2.7 3.5 2 8 2 12-.1 4 .3 8-.2 12-.2 1.7-2 3-3.7 2.9-4.6.1-9.2-.2-13.8.2-.2 8.3 0 16.6 0 24.9-.2 2.6 0 5.9-2.6 7.5-3.4.8-7 .4-10.6.4H82c-3.2 0-6.5.3-9.6-.4-2.2-.9-2.4-3.4-2.4-5.5V0z"/><g fill="#fff"><path d="M19 76h76v77H19V76m11 8.3V143h58.7V84c-19.6.7-39.2.1-58.7.3zM161 76h76v77h-76a6806 6806 0 0 1 0-77m6 8.3V143h59V84.3h-59z"/><path d="M54 90h19v18H54V90zm129 0h19v18h-19V90z"/></g><path fill="#007d94" d="M30 84.3c19.5-.2 39.1.4 58.6-.3v46c-19.5-.6-39-.2-58.6-.2V84.3M54 90v18h19V90H54zm113-5.7h59v45.4c-19.7 0-39.3-.4-59 .2V84.3m16 5.7v18h19V90h-19z"/><path fill="#00a2c0" d="M30 129.7c19.6 0 39.1-.4 58.7.2v13L30 143v-13.3zm137 .3c19.7-.7 39.3-.3 59-.3V143h-59v-13z"/><path fill="#8c4142" d="M106.2 150.2h43.6V177c-14.5-.2-29 0-43.6-.1v-26.8z"/><path fill="#ec8b99" d="M106.2 177h43.6v6.9c-14.5.2-29 .1-43.6 0v-7z"/></svg>