<svg xmlns="http://www.w3.org/2000/svg" viewBox="0 0 256 256"><g fill="#f9dde4"><path d="M22.7 0H66c.1 10.7-.2 21.4 0 32 0 3.1 3 5.2 5.9 5h111c3.5.4 7.9-2 7.6-6 .3-10.3-.4-20.7.3-31H233a25.3 25.3 0 0 1 23 22.7v210.4a25.2 25.2 0 0 1-22.7 22.9H220c-.2-40 0-80 0-120h19c.2-26.3.1-52.7 0-79a3838 3838 0 0 0-67 0c0 3.4 0 6.8.2 10.1.3 16.3 0 32.5.1 48.8-29.5-.2-59-.1-88.6 0 0-16.3-.2-32.5 0-48.8.2-3.3.3-6.7.3-10-22.3-.2-44.6-.3-67 0-.2 26.2-.1 52.5 0 78.8 6.4.2 12.7 0 19 .1.2 40 0 80 .1 120H23a25.3 25.3 0 0 1-23-22.7V23C.8 11.1 10.9 1 22.7 0z"/><path d="M76 0h103.5c-.2 5.3.4 10.7-.4 16-1 2.9-4.4 3.5-7.1 3.4H90c-4.7 0-10 1-14-2.4V0z"/></g><path fill="#e7c5cb" d="M66 0h10v17c4 3.4 9.3 2.3 14 2.4h82c2.7 0 6.1-.5 7.1-3.4.8-5.3.2-10.7.4-16h11.4c-.7 10.3 0 20.7-.3 31 .3 4-4 6.4-7.6 6H72c-2.9.2-6-1.9-5.8-5-.3-10.6 0-21.3-.1-32z"/><g fill="#fff"><path d="M17 57h67c0 3.4 0 6.8-.2 10.1H32V125h51.8c.2 3.6.2 7.2.1 10.8-16 .5-31.9 0-47.8.2H17c-.2-26.4-.3-52.7 0-79zm155 0c22.3-.1 44.7-.2 67 0 .1 26.3.2 52.7 0 79h-19c-16-.2-32 .2-48-.1 0-3.7 0-7.3.2-11l6.9.1H224V67l-51.8.1-.2-10z"/><path d="M53.7 70h16.6v16H53.7V70zm132 0h16.6v16h-16.6V70z"/></g><path fill="#0d7b96" d="M32 67l51.8.1c-.3 16.3 0 32.5-.1 48.8v9l-6.8.1v-10.6H41.5c0 3.5 0 7 .2 10.6H32V67m21.7 3v16h16.6V70H53.7zm118.5-2.9H224V125h-9v-10.6h-36V125h-6.8c.2-3 .2-6 .1-9.1 0-16.3.2-32.5 0-48.8m13.4 2.9v16h16.6V70h-16.6z"/><path fill="#70abb5" d="M41.4 114.4H77V125H41.6c-.2-3.5-.3-7-.2-10.6zm137.6-.1h36V125h-36v-10.7z"/><path fill="#f9f4f7" d="M83.7 115.9c29.5-.1 59-.2 88.6 0v9c-.3 3.7-.3 7.3-.3 11 16 .3 32 0 48 .1 0 40-.2 80 0 120H36.2c-.2-40 0-80-.1-120 16-.2 31.9.3 47.8-.2.1-3.6 0-7.2-.1-10.8-.2-3-.1-6-.1-9.1M98 128v28h10a5884.5 5884.5 0 0 0 50 0v-28H98z"/><path fill="#8c4142" d="M98 128h60v28h-10v-17.7h-40V156H98v-28z"/><path fill="#ec8b99" d="M108 138.3h40V156h-40v-17.7z"/></svg>