<svg xmlns="http://www.w3.org/2000/svg" viewBox="0 0 256 256"><path fill="#845b81" d="M20.4 0H44c-.7 12.3-.2 24.5-.3 36.8-14.6.4-29.1 0-43.7.2V20A27 27 0 0 1 20.4 0zM212 0h23.6c10 2 18 10 20.4 19.8V37c-14.6-.2-29.1.2-43.7-.2 0-12.2.3-24.5-.2-36.8z"/><path fill="#478cb5" d="M44 0h26v37h116V0h26c.6 12.3.2 24.6.3 36.8 14.6.4 29.1 0 43.7.2v197.9a26.2 26.2 0 0 1-20.4 21.1H20.5A26.1 26.1 0 0 1 0 234.8V37c14.6-.1 29.1.2 43.7-.2.1-12.3-.4-24.5.3-36.8m12 75c-12.6.1-25.1-.2-37.7.2.2 54 0 108.2.1 162.4 8.3-.2 16.7-.1 25 0 8.4 0 16.8-.2 25.1 0 39.8-.3 79.7 0 119.5-.1h24.6c8.5 0 17 .2 25.5-.2-.2-54 0-108.2-.1-162.3h-48c-2 .2-4.2-1.3-6.1-.1-6.6.1-13.3.2-19.9 0-1.3-1.3-3.3.1-4.9 0-21 .2-42.1 0-63.2.1l-.5 3.2L95 75c-7.7-.1-15.5.1-23.2-.1v-.7c-5.2 1.3-10.6.7-15.8.8z"/><path fill="#a78ec8" d="M70 0h116v37H70V0z"/><path fill="#3c3f42" d="M56 75c5.2-.1 10.6.5 15.8-.8v.7h-2.5v35.8c8.7-.1 17.4.2 26.1-.2V78.2l.5-3.2H159c1.6 0 3.6-1.4 5-.1l-3.2-.1c.2 12 0 24 .2 35.9h26V74.8h-3c1.9-1.1 4 .4 6.1.2h48v162.3c-8.4.4-17 .3-25.4.1.2-11.8 0-23.6 0-35.4H188v35.5c-39.8 0-79.7-.2-119.5.1v-35.5c-8.4-.2-16.8-.1-25.2 0l.1 35.4h-25V75.3c12.5-.4 25 0 37.6-.2z"/><path fill="#dedfe9" d="M69.3 74.8h2.5c7.7.3 15.5.1 23.2.2l.4 3.2v32.3c-8.7.4-17.4 0-26 .2V74.8zm91.7 0h3c6.6.3 13.3.3 19.9 0h3.2c-.2 12 0 24-.1 35.9h-26V74.8zM43.3 202l25.2.1v35.5c-8.4-.2-16.7 0-25.1 0-.2-11.9 0-23.7-.1-35.5zm144.7 0h24.7l-.1 35.4c-8.2.1-16.4 0-24.6 0V202z"/></svg>