<svg xmlns="http://www.w3.org/2000/svg" viewBox="0 0 256 256"><path fill="#a78ec8" d="M22.3 0h211.3C244 1 253 9 255.5 19H221a808 808 0 0 1-4 4.3c0 10.6.2 21.1-.1 31.7H39c-.3-10.6 0-21.1-.1-31.7l-4-4.3H.6A25.7 25.7 0 0 1 22.3 0z"/><path fill="#3682a5" d="M.6 19H35l4 4.3c0 10.6-.2 21.1.1 31.7h178c.3-10.6 0-21.1.1-31.7a808 808 0 0 0 4-4.3h34.3l.6 3.4v211.2a25.5 25.5 0 0 1-22.3 22.4H229V122.3h-33.8l-.4 1.9-1.3-1.9h-131l-1.3 1.9c0-.5-.3-1.4-.4-1.8H27V256h-4.7A25.5 25.5 0 0 1 0 233.7V22.4L.6 19M9 30.2V55h20c.3-8.2.3-16.5 0-24.8-1.3-.8-2.3-2.5-4-2.3H13c-1.7-.1-2.8 1.4-4 2.3m218 0c-.3 8.3-.2 16.6 0 24.8h20V32c.2-1.7-1.2-2.8-2.4-3.7-4.5-.7-9.1-.3-13.7-.3-1.7-.1-2.7 1.5-3.9 2.3M42 85c-6.8.3-13.7 0-20.5.2l1.8 5.4c2.1 5.6 4 11.3 6 16.9h36.5c1.5-7.6 4.7-14.8 6.7-22.4-7.5.1-15-.2-22.4.4-2.7-.3-5.3-.6-8-.5m163.8.5c-7.5-.6-15-.3-22.4-.4 2 7.6 5 14.8 6.7 22.5h21.9l14.6-.1c2.6-7.5 5.3-14.9 7.8-22.4h-21.1l.8-.3c-2.8.1-5.5.5-8.3.7z"/><path fill="#b273a7" d="M9 30.2c1.3-.9 2.3-2.4 4-2.3h12c1.7-.2 2.8 1.5 4 2.4.3 8.2.3 16.5 0 24.7H9V30.2zm218 0c1.2-.8 2.2-2.4 4-2.3 4.5 0 9-.4 13.6.3 1.2.9 2.6 2 2.4 3.7V55h-20c-.2-8.2-.3-16.5 0-24.8z"/><path fill="#232423" d="M42 84.9c2.8 0 5.4.2 8.1.5v22H44v-22l-2-.4zm163.9.5c2.8-.2 5.5-.6 8.3-.7l-.8.3c-.4 0-1 .3-1.3.4v22h-6.2v-22z"/><path fill="#f1f1f1" d="M21.5 85c6.8 0 13.7.2 20.6-.1l1.8.5v22H29.3c-2-5.6-3.9-11.3-6-16.9l-1.8-5.4zm28.6.4c7.5-.6 15-.3 22.4-.4-2 7.6-5.2 14.8-6.7 22.5H50.1V85.4zm133.4-.4c7.5.1 15-.2 22.4.4v22h-15.7c-1.6-7.6-4.7-14.8-6.7-22.4zm28.5.4l1.4-.4h21c-2.4 7.5-5.1 15-7.7 22.4H212v-22z"/><path fill="#363836" d="M27 122.3h10V155h24.3c-.1-10.3.1-20.5-.1-30.8l1.3-1.9h131l1.3 1.9c-.2 10.2 0 20.5-.1 30.8H219v-32.6h10V256H27V122.3z"/><path fill="#deddde" d="M37 122.4h23.8l.4 1.8c.2 10.3 0 20.5.1 30.8H37v-32.6zm158.2 0H219V155h-24.3c.1-10.3-.1-20.6.1-30.8 0-.5.3-1.4.4-1.8z"/></svg>