<svg xmlns="http://www.w3.org/2000/svg" viewBox="0 0 256 256"><path fill="#529344" d="M22.3 0h211.3A25.5 25.5 0 0 1 256 22.4v34c-3.7 2.9-8.6 1.7-13 1.9H13c-4.4-.2-9.3 1-13-2V22.4A25.5 25.5 0 0 1 22.3 0z"/><path fill="#57829c" d="M0 56.3c3.7 3 8.6 1.8 13 2h230c4.4-.2 9.3 1 13-2v177.3a25.5 25.5 0 0 1-22.3 22.4H22.4A25.5 25.5 0 0 1 0 233.7V56.3m63 54.8v25h17.3v-25H63m113 0v25h17v-25h-17m-77 35.6V180h58.5v-16c0-5.8 0-11.6-.2-17.3H99z"/><path fill="#f4a296" d="M63 111.1h17.4v9c-5.8.1-11.6.1-17.4 0v-9zm113 .1h17v8.9h-17v-9z"/><path fill="#d07368" d="M63 120c5.8.2 11.6.2 17.4 0v16.1H63v-16zm113 0c5.7.2 11.4.2 17 0v16.1h-17v-16z"/><path fill="#c6778c" d="M99 146.7h58.3c.3 5.7.1 11.5.2 17.2-19.5.1-39 .2-58.5 0v-17.2z"/><path fill="#e488a2" d="M99 164h58.5v16H99v-16z"/></svg>