<svg xmlns="http://www.w3.org/2000/svg" viewBox="0 0 256 256"><path fill="#d86678" d="M22.3 0h211.3A25.5 25.5 0 0 1 256 22.4v17.5c-4.3-.3-8.7-.3-13-.3H19c-6.3 0-12.7-.1-19 .3V22.5A25.5 25.5 0 0 1 22.3 0z"/><path fill="#607399" d="M0 39.9c6.3-.4 12.7-.2 19-.3h224c4.3 0 8.7 0 13 .3v193.7a25.5 25.5 0 0 1-22.3 22.4H22.3A25.5 25.5 0 0 1 0 233.6V40m60 71.5c-.2 8.5 0 17 0 25.6 8.5.4 17.2.6 25.7-.1v-25.5H60m110.3 0l-.1 25.5c8.5.7 17.1.5 25.7.1 0-8.5.2-17 0-25.6h-25.6m-79.3 35c-.1 8.5 0 17 0 25.6-.1 3.1-.1 6.2 0 9.3h74v-35.1H91z"/><path fill="#8c494a" d="M60 111.4h25.6l.1 25.5c-8.5.7-17.2.5-25.7.1 0-8.5-.2-17 0-25.6m4.3 4.7l.1 16.5h15.5c.2-5.5.1-11 .1-16.6l-15.7.1zm106.1-4.7h25.5c.3 8.5.1 17 .1 25.6-8.6.4-17.2.6-25.7-.1v-25.5m4.7 4.6v16.7l16.6-.1V116c-5.5-.2-11 0-16.6 0z"/><path fill="#d68a89" d="M64.3 116.1c5.3-.2 10.5 0 15.7 0v16.6l-15.6-.1V116zM175 116c5.6 0 11.1-.1 16.7.1l-.1 16.5h-16.5c-.2-5.5 0-11-.1-16.6z"/><path fill="#4c2223" d="M91 146.3h74V172c-24.7.3-49.3.2-74 0v-25.7z"/><path fill="#7b3839" d="M91 172c24.7.2 49.3.3 74 0v9.3H91V172z"/></svg>