<svg xmlns="http://www.w3.org/2000/svg" viewBox="0 0 257 257"><path fill="#94a631" d="M20.5 0h216.6l-1.4 1.1a27.6 27.6 0 0 1 15 9.3c2.8 3.3 3.6 7.8 6.3 11.2v.8c-2 .4-4 .7-6 .7-22.4-.2-44.7 0-67-.2-2.5.1-5.4-.2-7.3 1.7-5 4.2-10.3 7.9-15.3 11.9 0 25.6-.2 51.3.1 77-2.8.5-5.7 1-8.6 1-15-.2-30 0-45-.1-4.7-.1-9.7.6-14.4-.8.3-25.8 0-51.5.1-77.3C88.7 32.5 83.7 29 79 25c-2.7-2.6-6.6-2-10-2H0C1 16 4.7 9.5 10.5 5.5c3.1-2.3 7.1-3 10-5.5z"/><path fill="#d68ca5" d="M0 23.2V23h69c3.4 0 7.3-.6 10 2 4.7 4 9.7 7.5 14.6 11.3 0 25.8.2 51.5 0 77.3l-1.3 1-9.3-.3V99H19.6v21.8c-6.5-.3-13-.3-19.6-.1V90h12c0-10.2.1-20.5-.1-30.7H0V23.2m35.5 25.4l.1 15.4 16-.1V48.5h-16zm141.2-24c2-1.9 4.8-1.6 7.3-1.7 22.3.2 44.6 0 67 .2 2 0 4-.3 6-.7v35c-5.7 1.8-11.7.8-17.6 1v30.4c5.8.2 11.7.2 17.6.2v31.6c-6.9 0-13.8-.1-20.6.2V99H173v15.3l-10.4.3-1-1.1c-.4-25.7-.1-51.4-.2-77 5-4 10.3-7.7 15.3-12M191 39c0 9.6-.2 19.1.2 28.7 9.4-.2 18.9 0 28.4-.1.2-9.5 0-19 .1-28.5-9.5-.3-19.1 0-28.7 0z"/><path fill="#f9d7a2" d="M191 39c9.6 0 19.2-.2 28.7.1-.1 9.5.1 19-.1 28.5h-28.4c-.4-9.5-.2-19-.2-28.6zM35.5 48.6c5.4-.2 10.8-.1 16.1-.1v15.4c-5.3.2-10.6.2-16 0V48.7zm203.9 9.8c5.9-.2 11.9.8 17.6-1V89c-5.9 0-11.8 0-17.6-.2V58.4zM0 59.3h11.9c.2 10.2 0 20.5 0 30.7H0V59.3z"/><path fill="#f1f5fc" d="M19.6 99H83v63c-21.1-.1-42.3.2-63.4-.2V99m31.4 5c-.1 4.5.6 9 0 13.4V114H34.3l.1 24v9.6c11.1.2 22.4 0 33.6.1V126l5-.1v-21.8c-7.4-.1-14.7-.2-22 0zm122-5h63.4v62.8c-21.1.4-42.3.1-63.4.2V99m10 5.1c0 7.3-.2 14.5.1 21.8h4.9a4844.1 4844.1 0 0 0 0 21.8h34V114h-13.8l-3-1.3c-.2-2.9-.3-5.7-.3-8.6a528 528 0 0 0-21.8 0z"/><path fill="#fff" d="M51 104h22v22h-5l-17 .1v-8.6c.6-4.4-.1-8.9 0-13.3zm132 .1a528 528 0 0 1 21.8 0l.3 8.6 3 1.3H205v12h-17l-4.9-.1a317 317 0 0 1 0-21.8z"/><path fill="#eca252" d="M92.3 114.6l1.2-1c4.7 1.4 9.7.7 14.5.8h45a41 41 0 0 0 8.5-1l1.1 1.2c3.5 0 7 0 10.4-.3V162c21.1 0 42.3.2 63.4-.2 6.8-.2 13.7.4 20.6.1v76.2l-1.1-1.4a26 26 0 0 1-22.2 20.3H22.3A25.5 25.5 0 0 1 0 234.7V162c6.5.1 13-.4 19.6-.2 21.1.4 42.3 0 63.4.2v-47.7l9.3.3m27.7 74.5l.1 3-22.6-.1c.2 4.6.2 9.1 0 13.7 7.8.7 15.6.2 23.5.4v.8H97.7l.3 5.6h2.3l-2.9.6c.2 4.6.2 9.2-.2 13.8 7.8.2 15.6 0 23.4.2l.2-2.4v2.4l14.6-.1v-2.4l.4 2.4h22.8c-.4-4.7-.4-9.3-.2-13.9l-2.9-.6h2.3c0-1.9.2-3.8.3-5.6-7.4-.2-15 .7-22.3-.5 7.5-.8 15.1.1 22.7-.7-.3-4.6-.3-9.1 0-13.7l-23 .1a262 262 0 0 0-11.6 0l-.1-3.1H120z"/><path fill="#292426" d="M34.3 114H51v12h17v12H34.4v-24zm170.7 0h17v24h-34v-12h17v-12z"/><path fill="#bda75d" d="M0 120.7c6.5-.2 13-.2 19.6.1v41c-6.5-.2-13 .3-19.6.2v-41.3zm236.4.1c6.8-.3 13.7-.2 20.6-.2v41.3c-6.9.3-13.8-.3-20.6 0v-41z"/><path fill="#68615a" d="M34.4 138H68v9.7H34.4V138zm153.6 0h34v9.7h-34V138z"/><path fill="#c0a35d" d="M120 189h3.9v3h-3.8v-3z"/><path fill="#e7f0f1" d="M97.5 192h23.4v14.1c-7.8-.2-15.6.3-23.4-.4.2-4.6.2-9.1 0-13.7zm38 .1c7.7-.2 15.4 0 23 0-.2 4.5-.2 9 0 13.6-7.5.8-15-.1-22.6.7h-.6c.3-4.8.1-9.6.2-14.3zm-35.1 20.4H121v12.2l-.3 2.4c-7.8-.2-15.6 0-23.4-.2.4-4.6.4-9.2.2-13.8l2.9-.6zm35.1 0h20.1l2.9.6c-.2 4.6-.2 9.2.2 13.8-7.6.2-15.2 0-22.8.1l-.4-2.4v-12.1z"/><path fill="#291c10" d="M121 192h3l11.5.1c0 4.8.1 9.5-.2 14.3h.6c7.3 1.2 14.9.3 22.3.5l-.3 5.6h-22.4V227l-14.6.1v-2.4c.2-4 .1-8.1 0-12.2H98.2c0-1.9-.2-3.8-.3-5.6H121v-14.8z"/></svg>