<svg xmlns="http://www.w3.org/2000/svg" viewBox="0 0 256 256"><path fill="#cb7d99" d="M22.4 0h38.3c.8 14.3 0 28.6.3 42.9 2 1.7 4 3.6 6.3 4.9 2.8.4 5.8.2 8.7.2h78c2.9 0 5.9.2 8.8-.2 2.3-1.3 4.2-3.2 6.2-5-.3-14.2.5-28.5-.4-42.8h64.9A25.4 25.4 0 0 1 256 22.4V40h-37l-6 5.1v36c2.6 1.8 4.5 5 8 5h35V157c-14.3.2-28.7-.5-43 .4V106h-66v51.4a373 373 0 0 0-38 0V106H43v51.4c-14.3-.9-28.7-.2-43-.4v-43h22c3.5.3 5.6-3 8-4.8V80l-6-5H0V22.3A25.5 25.5 0 0 1 22.4 0z"/><path fill="#efc421" d="M60.6 0h108c1 14.3.1 28.6.4 42.8-2 1.8-3.9 3.8-6.2 5-3 .4-5.9.2-8.8.2H76c-3 0-5.9.2-8.7-.2-2.4-1.3-4.2-3.2-6.3-5-.3-14.2.5-28.5-.4-42.8zM213 45.1l6-5 37-.1v46h-35c-3.5.2-5.4-3.1-8-4.9v-36zM0 75h24l6 5v29.2c-2.4 1.9-4.5 5.1-8 4.8H0V75z"/><path fill="#d0d5e7" d="M43 106h66v66H43v-66zm104 0h66v66h-66v-66z"/><path fill="#e7964c" d="M0 157c14.3.2 28.7-.5 43 .4V172h66v-14.6a373 373 0 0 1 38 0V172h66v-14.6c14.3-.9 28.7-.2 43-.4v76.6c-1 11.5-11 21.3-22.5 22.4h-211A25.4 25.4 0 0 1 0 233.6V157m69.7 42.7l-.1 33.4H172c4.8.1 9.5 0 14.3.2v-33.6H69.7z"/><path fill="#392512" d="M69.7 199.7h116.6v33.6l-14.3-.1V215H84v18.2l-14.4-.1v-33.4z"/><path fill="#68424f" d="M84 215h88v18.2H84V215z"/></svg>