<svg xmlns="http://www.w3.org/2000/svg" viewBox="0 0 256 256"><path fill="#7b6faf" d="M22.4 0H92v38h13.8V0H150c-.5 12.7-.1 25.3-.2 38h13.6c.3-12.7.1-25.3.2-38h70A25.4 25.4 0 0 1 256 22.4v211.1a25.4 25.4 0 0 1-22.4 22.5H22.5A25.4 25.4 0 0 1 0 233.6V22.5A25.4 25.4 0 0 1 22.4 0m-2.3 49.3c-.2 29.1-.1 58.3 0 87.4 24.4-.2 48.9.2 73.3-.2-.2-27.5 0-55 0-82.5l-.4-4.7H20.1m142 0c-.2 29.2 0 58.3 0 87.4h72.8c.4-8.2.1-16.5.2-24.7-.2-20.8.3-41.6-.2-62.4-24.3-.5-48.5 0-72.8-.3M107 129c0 3.8.5 7.6.1 11.4l-.2-3.1h-7.4v29.2l2.7 2.5c3.4-.2 7 .5 10.4-.4 2.9-3.7.8-9 1.4-13.3 9-.5 18-.4 26.9-.1v11l3 2.8h9.3c.9-1 1.8-2 2.8-2.8a553 553 0 0 1 0-28.8l-7-.1-.1 3c-.4-3.7.1-7.5.1-11.3h-42m-31.5 50c0 10.8.2 21.5 0 32.3 2.1 1.8 4.3 4.3 7.5 4h20c2.3.2 3.5-2.1 5-3.3v-33a388 388 0 0 1-3.3-3.8c-8.2-.1-16.4 0-24.6 0l-4.6 3.8m72.4-1c.2 11 0 22 .1 33.1-.1 2.1 1.8 4.3 4 4.2h20c3 .3 5.3-2.1 7.7-3.7v-33.1c-1.8-1.2-3.4-3.2-5.7-3.3-5-.2-10 0-15 0-3.8 0-8.6-1.1-11 2.8z"/><path fill="#dedde7" d="M91.8 0h13.9v38H91.8V0zm58.1 0h13.6c-.1 12.7.1 25.3-.2 38h-13.6c0-12.7-.3-25.4.2-38z"/><path fill="#de83ad" d="M20.1 49.3c24.3.1 48.6 0 73 0 0 1.6.2 3.1.3 4.7 0 27.5-.2 55 0 82.5-24.4.4-48.9 0-73.3.2-.1-29.1-.2-58.3 0-87.4m16 4.9v5.6c3.8 1.4 3 5.5 2.7 8.7l-2.5 1.1c0 3.3-1.4 7.3 1.3 9.9 2.3 2 1.2 5.3 1.2 8l-2.5 1.2a43 43 0 0 0 0 9.4 12 12 0 0 1 3.4 3.6c3.6.2 7.2.7 10.7-.2l2-2.4c2.4-.3 5-.3 7.4-.2l.8 3c4.2.2 8.5.1 12.7-.2 3-3.4 3.3-8 2.7-12.4-3.2-2.6-2.7-7.6-.7-11 1.2-1.8 1-4.1.9-6.3-.2-2.5-2.8-4.3-2.4-7-.4-2.3 1.3-4 2.3-6l-.1-4.8c-13.3-.2-26.6-.1-39.9 0zm126-4.9c24.3.2 48.5-.2 72.8.3.5 20.8 0 41.6.2 62.4 0 8.2.2 16.5-.2 24.7h-72.8c0-29.1-.2-58.2 0-87.4m17 4.9c.1 2.2-.6 4.8 1 6.6a6.7 6.7 0 0 1-1 9.4c0 3-.7 6.1 1 8.7 2 3.1 2 7.8-.9 10.3-.5 4.4-.6 9 2.5 12.6 4.3.3 8.5.2 12.8 0l.8-2.8c3.3 0 8.2-1.7 9.4 2.7 3.8.3 7.7.3 11.5 0 3.5-4 4.5-11 .5-14.9 0-2.4-.6-5 1-7.2 2-3.5 2.7-9.1-1-11.8v-5.6c3-1.9 2.4-5.2 2.1-8-13.2 0-26.4-.2-39.7 0z"/><path fill="#e794ba" d="M36.1 54.1c13.3 0 26.6-.1 39.9.1 0 1.6.2 3.2 0 4.8-.9 2-2.6 3.7-2.2 6-.4 2.7 2.2 4.5 2.4 7 0 2.2.3 4.5-.9 6.4-2 3.3-2.5 8.3.7 11 .6 4.3.3 9-2.7 12.3-4.2.3-8.5.4-12.7.1l-.8-2.9a38 38 0 0 0-7.4.2l-2 2.4c-3.5.9-7.1.4-10.7.2a12 12 0 0 0-3.3-3.6 43 43 0 0 1-.1-9.4l2.5-1.2c0-2.7 1-6-1.2-8-2.7-2.6-1.2-6.7-1.3-9.9l2.5-1.1c.3-3.2 1-7.3-2.7-8.6V54m15.7 7a56 56 0 0 0 .2 7.7h8V61h-8.2m.2 19c-.2 2.7-.2 5.4 0 8h8v-8.1c-2.6-.2-5.3-.2-8 .1zm127.1-25.8c13.3-.2 26.5 0 39.7 0 .3 2.8.8 6.1-2 8-.1 1.8-.2 3.7-.1 5.6 3.7 2.7 3 8.3 1 11.8-1.6 2.1-1 4.8-1 7.3 4 3.8 3 10.9-.5 14.8-3.8.3-7.7.3-11.5 0-1.2-4.4-6-2.7-9.4-2.7l-.8 2.8c-4.3.2-8.5.3-12.8 0-3-3.5-3-8.2-2.5-12.6 3-2.5 2.9-7.2.9-10.3-1.7-2.6-1-5.8-1-8.7a6.7 6.7 0 0 0 1-9.4c-1.6-1.8-.9-4.4-1-6.6m16 6.9v7.7h8.6V61h-8.6m0 18.8v8c2.8.2 5.7.1 8.6-.1V80c-2.9-.4-5.8-.4-8.6-.1z"/><path fill="#d37da7" d="M51.8 61.1H60v7.7h-8a56 56 0 0 1-.2-7.7zM52 80c2.6-.4 5.3-.4 8-.2V88h-8c-.3-2.7-.3-5.4 0-8zm143.1-.1c2.8-.3 5.7-.3 8.6.1v7.8c-2.9.2-5.8.3-8.6.2v-8.1z"/><path fill="#d67da5" d="M195 61l8.7.1v7.6h-8.5c-.1-2.5-.2-5-.1-7.6z"/><path fill="#c0768e" d="M107 129h42c0 3.8-.5 7.6-.1 11.3.2 5 .1 9.8.1 14.6l-8.1.3c-9-.3-18-.4-26.9 0l-7-.3.1-14.5c.4-3.8-.1-7.6-.1-11.4z"/><path fill="#d6d7e1" d="M99.5 137.4l7.4-.1.2 3.1c-.2 4.8-.1 9.7-.1 14.5l7 .4c-.6 4.3 1.5 9.6-1.4 13.3-3.3 1-7 .2-10.4.4l-2.7-2.5v-29.1z"/><path fill="#d6d7de" d="M149 137.3h7a553 553 0 0 0 0 28.8l-2.8 2.9h-9.3l-3-2.9v-11l8.1-.2-.1-14.6.2-3z"/><path fill="#b5a686" d="M75.5 178.9l4.6-3.8c8.2 0 16.4-.1 24.6 0a388 388 0 0 0 3.3 3.8v33c-1.5 1.2-2.7 3.5-5 3.3H83c-3.2.3-5.4-2.2-7.5-4 .2-10.8 0-21.5 0-32.3zm72.5-1c2.4-4 7.2-2.7 11-2.8 5 0 10-.2 15 0 2.3.1 3.9 2.1 5.7 3.3v33c-2.4 1.7-4.6 4-7.8 3.8h-20c-2.1.1-4-2-3.9-4.2v-33z"/></svg>