<svg xmlns="http://www.w3.org/2000/svg" viewBox="0 0 256 256"><path fill="#ece1ef" d="M22.4 0h47.3c4.8 7.5 9 15.2 13.5 23 .3 3.9.2 7.8.2 11.7-21 .8-42 0-63 .5-.2 5.1-.2 10.3-.1 15.4-6.8 0-13.6-.4-20.3.3V22.6A25.4 25.4 0 0 1 22.4 0zm163.9 0h47A25.4 25.4 0 0 1 256 22.4v28.1l-20.3.1V35.1c-21-.6-42 .4-63-.4-.1-4-.2-7.9.1-11.8 4.4-7.7 8.8-15.4 13.5-22.9zM0 80h20.3l-.1 11.9v26.9c10.5.7 21 0 31.6 0l-7.7 8.6v17.7H0V80zm235.7 0l20.3-.1v65.3h-44.1v-18c-2.6-2.7-5.1-5.5-7.6-8.4 10.5 0 21 .6 31.5 0 .2-9 0-17.9 0-26.8V80zM0 175.3h34.6l.3 7.8 9.1.2c.2 8.2.1 16.4 0 24.7h-9.2a560 560 0 0 0 0 22.9l9.2.1c.1 8.3.2 16.7 0 25H22.6A25.4 25.4 0 0 1 0 233.6v-58.3zm221.4.1h2.3c10.7-.3 21.5.1 32.3-.3v58.4c-1 11.6-11 21.5-22.5 22.5h-22c.8-8.3.2-16.7.5-25l9.2-.1c.2-7.6.2-15.2 0-22.8l-9.3-.1v-24.7l9.3-.1.2-7.8z"/><path fill="#a290bd" d="M69.7 0h116.6c-4.7 7.5-9 15.2-13.5 22.9-2.4 4-4.9 7.9-7 12H154v81.4c-3.4 0-6.9-.4-10.2.4-.4 8.8 0 17.5-.1 26.3H160c-.1-8 .3-16-.2-24 14.8 0 29.7.3 44.5-.2l7.6 8.5v17.9l.1 14.2c-17 .5-34.2 0-51.3.3v23.6H212c-.2 8.2-.2 16.4 0 24.7h-51.3v23H212c-.3 8.3.3 16.7-.4 25H44v-25c17 0 34 .1 51.2 0v-23H44c.1-8.3.2-16.5 0-24.7 17.1 0 34.2.1 51.2 0l.1-23.6c-17.1-.3-34.2.2-51.3-.3l.1-14.3v-17.7l7.6-8.6c14.9.5 29.7 0 44.5.2-.5 8 0 16-.2 24h16.3v-26.7H102V35H90.4c-2.3-4.2-4.8-8-7.2-12-4.4-7.8-8.7-15.5-13.5-23z"/><path fill="#cbc3ce" d="M83.2 23c2.4 4 5 7.8 7.2 12a82 82 0 0 0-7-.3c0-3.9.1-7.9-.2-11.8zm82.6 11.9c2.1-4.1 4.6-8 7-12-.3 4-.2 7.9-.2 11.8l-6.8.2zM0 51c6.7-.8 13.5-.4 20.3-.4V80H0V51zm235.7-.4H256v29.3h-20.3V50.7zM0 145.2h44.1l-.1 14.2-8.9-.3c0 4 .1 8-.2 12 .1 1.9-1.5 3-2.6 4.3-10.8-.2-21.5 0-32.3-.1v-30.1zm211.9 0H256V175c-10.8.4-21.6 0-32.3.3-4.6-4.2-2.3-11-2.9-16.3-3 0-5.9.2-8.8.3l-.1-14.3z"/><path fill="#d6e1f9" d="M83.4 34.7l7 .2H102v58.7c-5-2.5-11-2.4-16 0v-39l-9-.2V40H56v14.5l-14.6-.1v36.1c-6.8 2.8-14.2 1-21.2 1.4v-12c.2-9.7.2-19.5 0-29.3l.1-15.4c21-.6 42 .3 63-.5zm82.4.2l6.8-.2c21 .8 42-.2 63 .4.2 5.2.2 10.4.1 15.5V80l.1 12c-7-.6-14.4 1.3-21.2-1.5V54.4H200V40h-21v14.4c-3 0-6 0-9 .2v39a18 18 0 0 0-16 0V35l11.8-.1z"/><path fill="#fff" d="M56 40h21v22.4H56V40zm123 0h21v22.4h-21V40z"/><path fill="#2b2529" d="M41.4 54.4H56v8h21v-8c3 0 6 0 9 .2v44.7h-6.5c-1.6-4.2-1.3-8.8-1.3-13.3H48v13.3l-6.6-.1V54.4zm158.6.1l14.6-.1v44.8l-6.6.1V86h-30.2c0 4.5.3 9-1.2 13.3H170V54.6l8.9-.2v8h21v-8z"/><path fill="#4c474a" d="M48 86h30.2c0 4.5-.3 9 1.3 13.3H48V86zm129.8 0h30.1l.1 13.3h-31.4c1.5-4.2 1.2-8.8 1.2-13.3z"/><path fill="#ecf1f9" d="M20.2 91.9c7-.4 14.4 1.4 21.2-1.4v8.7l6.6.1h38v-5.7c5.1-2.4 11-2.5 16.1 0V114l-5.6 2.8-.2 2.3c-14.8-.1-29.6.3-44.5-.2-10.5 0-21 .7-31.5 0v-27zm194.4-1.4c6.8 2.8 14.2 1 21.2 1.5 0 9 .2 17.9 0 26.8-10.5.6-21 0-31.5 0-14.8.5-29.7.1-44.5.2l-.1-2.3-5.7-2.8V93.7a18 18 0 0 1 16 0v5.6h6.6a5502 5502 0 0 1 38-.1v-8.7z"/><path fill="#ececec" d="M96.4 116.7l5.6-2.8v2.4h10.3V143H96c.1-8-.3-16 .2-24l.2-2.3zm57.6-2.8l5.7 2.8.1 2.3c.5 8 0 16 .2 24h-16.3c.1-8.8-.3-17.5.1-26.3 3.3-.8 6.8-.4 10.2-.4v-2.4z"/><path fill="#d3cbc3" d="M35.1 159l8.9.4c17 .5 34.2 0 51.3.3v23.6H44c-3 0-6 0-9.1-.2l-.3-7.7h-2.3c1-1.3 2.8-2.4 2.6-4.3.3-4 .1-8 .2-12zm176.9.4l8.8-.3c.6 5.4-1.7 12.1 2.9 16.3h-2.3l-.2 7.8-9.2.1h-51.2v-23.6c17-.3 34.1.2 51.2-.3zM34.8 208H44c17 0 34.1-.1 51.2 0v23a5146.2 5146.2 0 0 1-60.5-.1 560 560 0 0 1 0-22.8zm125.9 0h60.5c.2 7.7.2 15.3 0 22.9l-9.2.1h-51.3v-23z"/></svg>