<svg xmlns="http://www.w3.org/2000/svg" viewBox="0 0 257 257"><path fill="#b5947b" d="M22.3 0h211.3a26 26 0 0 1 22.1 19.9l1.3-.5V238l-.6-3.2c-2 6.7-5.4 13.4-11.5 17.2-3.1 2-6.7 3.2-10.2 4.4l3.2.7H18.1l3.2-.7c-6.4-2-13-5-16.8-10.8A26.4 26.4 0 0 1 0 233.7V22.4A25.5 25.5 0 0 1 22.3 0M49 30.4V106h34.6V30.4H49m124 0V106h34.6V30.4H173M61.2 128l-11.8 10.3v77.5c3.8 3.4 7.6 6.9 11.5 10.2h122.2c4.1 0 8.5.6 12.5-.6 4.4-2.5 7.5-6.5 11.4-9.5v-77.7L195 128H61.3z"/><path fill="#232121" d="M49 30.4h34.6v60.8c-11.5-.9-23-1-34.6 0V30.5m7.4 4.6v18.6h20.1a289 289 0 0 1 0-18.6H56.4zM173 30.4h34.6v60.8c-11.5-.9-23-1-34.6 0V30.4m7 4.6v18.6h20V35h-20z"/><path fill="#fcfdfc" d="M56.4 35h20.1a289 289 0 0 0 0 18.6h-20c-.2-6.2-.1-12.4-.1-18.6zM180 35h20v18.6h-20V35z"/><path fill="#39322e" d="M49 91.3c11.5-1 23-1 34.6-.1V106H49V91.2zm124-.1c11.5-1 23-.9 34.6 0V106H173V91.2z"/><path fill="#e4aece" d="M61.2 128h133.9l11.9 10.2V216c-3.9 3-7 7-11.4 9.5-4 1.2-8.4.5-12.5.6H60.9c-3.9-3.3-7.7-6.8-11.4-10.2v-77.5L61.2 128M73 148v22h41.5v-22H73z"/><path fill="#f9ecf4" d="M73 148h41.5v22H73v-22z"/></svg>