<svg xmlns="http://www.w3.org/2000/svg" viewBox="0 0 256 256"><path fill="#d6b36d" d="M21.8 0h25c.5 4 .6 8 .6 12l-.1 114.6c-15.8-.2-31.6.5-47.3-.3V22.6C1 11.2 10.5 1.6 21.8 0zm184.1 0h27.4A25.5 25.5 0 0 1 256 22v104.7c-16.7.2-33.4-.2-50 .2v-1c-.2-42 0-84-.1-125.9z"/><path fill="#a5846b" d="M46.9 0h159v125.9h-70c-6.3 0-12.5 1.3-18.9 1.1-23.2-.4-46.5.4-69.7-.4V12c.1-4 0-8-.4-12m41.8 21v36h16.6V21H88.7m60 0v36h16.6V21h-16.6m-60 51.2v38c2.1 1.7 4.2 4.2 7.3 3.8h61c3 .4 5.3-1.7 7.4-3.5.5-1.4.2-3 .3-4.5-.1-11.3.1-22.6-.1-33.9-2-1.2-3.8-2.6-5.6-4H94a111 111 0 0 1-5.3 4z"/><path fill="#232121" d="M88.7 21h16.6v26c-5.6.5-11.2.7-16.6-.5V21m3.3 2v8.3h10V23H92zm56.7-2h16.6v26a55 55 0 0 1-16.7-.5V21m2.7 2v8c3.2.5 6.4.3 9.7.3V23h-9.7zM17.4 146H34v27.1H17.4V146m3.6 2v9h9.8v-9H21zm56.4-2H94v27.1c-5.3 0-10.5-.1-15.8.1l-.7 9-.1-36.2m3.6 2v9h9.8v-9H81zm81.6-1c5.5-.6 11-.2 16.4 0 .5 9 .3 18 .2 27h-16.6v-27m3.4 2v8.1h10v-8c-3.3-.1-6.7-.2-10-.1zm56.6-2c5.5-.6 11-.2 16.5 0v27h-16.6l.1-27m3.4 2v8.1l10-.1v-7.8c-3.3-.2-6.7-.3-10-.2z"/><path fill="#fcfdfc" d="M92 23h10v8.3H92V23zM21 148h9.8v9H21v-9zm60 0h9.8v9H81v-9zm85 1c3.3 0 6.7 0 10 .2v7.8l-10 .1V149zm60 0c3.3 0 6.7 0 10 .2v7.8l-10 .1V149z"/><path fill="#fff" d="M151.3 23h9.7v8.3c-3.3 0-6.5.2-9.7-.3v-8z"/><path fill="#393431" d="M88.7 46.5c5.4 1.2 11 1 16.6.6V57H88.7V46.5zm60 0c5.4 1.2 11 1 16.6.5v10h-16.6V46.5z"/><path fill="#e4aece" d="M88.7 72.2A111 111 0 0 0 94 68h65c1.8 1.4 3.6 2.8 5.6 4 .2 11.3 0 22.6.1 34 0 1.4.2 3-.3 4.4-2 1.8-4.4 3.9-7.3 3.5H96c-3.1.4-5.2-2-7.3-3.8v-38m11.3 8.5V91h20V80.7h-20zM17.4 198.5c2.4-1.7 4.3-4.8 7.6-4.5h61c3.3-.5 5.5 2.2 8 3.9v37c-2.4 1.8-4.6 4.7-8 4.4H23.8c-2.2-1.3-5-2.5-6.3-4.8-.2-12 0-24 0-36m11.7 7.6v10.2h20.4c0-3.5 0-6.9-.2-10.3H29.2zm133.5-7.9c2.3-1.3 4.5-3.4 7.3-3.3h62c2.8-.2 4.8 2.1 7 3.5v37.7c-2 1.6-4 4.2-7 4h-62c-3 0-5.2-2.4-7.4-4 0-12.6-.2-25.3 0-37.9m11.7 8.6V217c6.8.2 13.6.2 20.4 0 0-3.4 0-6.9-.3-10.3-6.7 0-13.4-.1-20.1.2z"/><path fill="#f9ecf4" d="M100 80.7h20V91h-20V80.7zM29.2 206h20.2l.2 10.3H29.2V206z"/><path fill="#ad8c73" d="M0 126.3c15.7.8 31.5.1 47.3.3 23.2.8 46.5 0 69.7.4 6.4.2 12.6-1.1 19-1.2h70v1c-26 .8-51.9-.2-77.8.5-.4 5.6-.3 11.1-.2 16.7v96c0 5.3-1 11.1 1.8 16H22.5A25.4 25.4 0 0 1 0 233.6V126.3M17.4 146v36.1H34V146H17.4m60 0l.1 36.2H94V146H77.4m-60 52.5c.1 12-.1 24 .1 36 1.4 2.3 4 3.5 6.3 4.7 20.7.3 41.5 0 62.2.1 3.4.3 5.6-2.6 8-4.4v-37c-2.5-1.7-4.7-4.4-8-4H25c-3.3-.2-5.3 2.9-7.6 4.6z"/><path fill="#b5947b" d="M128.2 127.3c26-.7 51.9.3 77.8-.4 16.6-.4 33.3 0 50-.2v107a25.5 25.5 0 0 1-22.4 22.3H129.8c-2.8-4.9-1.8-10.7-1.9-16v-96c0-5.6-.1-11.1.3-16.7m34.4 19.6V183h16.6c-.1-3-.2-6 0-9 .1-9 .3-18-.2-27-5.5-.2-11-.6-16.4 0m60 0v36h16.6c-.1-3-.2-6-.1-9v-27c-5.5-.2-11-.6-16.5 0m-60 51.2c-.2 12.6 0 25.3 0 37.9 2.2 1.6 4.3 4 7.3 4h62.2c3 .2 4.8-2.4 6.9-4v-37.7c-2.2-1.4-4.2-3.7-7-3.5h-62c-2.8-.1-5 2-7.3 3.3z"/><path fill="#39322e" d="M17.4 173.1H34v9H17.4v-9zm60.8.1c5.3-.2 10.5-.1 15.8 0v9H77.5l.7-9zm84.4.8h16.6c-.2 3-.1 6 0 9h-16.6v-9zm59.9 0h16.6l.1 9h-16.6v-9z"/><path fill="#f7ebf7" d="M174.3 206.8c6.7-.3 13.4-.1 20.1-.2.4 3.4.3 6.9.3 10.3-6.8.2-13.6.2-20.4 0v-10z"/></svg>