<svg xmlns="http://www.w3.org/2000/svg" viewBox="0 0 256 256"><path fill="#5d5b5a" d="M22.3 0h2c.3 13.2 0 26.4 0 39.6H0v-17A25.5 25.5 0 0 1 22.3 0zm209.3 0h2A25.5 25.5 0 0 1 256 22.4v17.3c-8.1-.2-16.2 0-24.3 0-.2-13.3 0-26.5-.1-39.7z"/><path fill="#e79c78" d="M24.2 0H70v39.6H24.2c0-13.2.3-26.4 0-39.6zM186 0h45.6c.1 13.2-.1 26.4.1 39.6h-45.6c-.2-13.2 0-26.4-.1-39.6z"/><path fill="#fcedc0" d="M70 0h20.6v78.9l9.6 10.1h55.7l9.5-10.1c.2-26.3 0-52.6 0-78.9H186v39.6h45.7c8.1 0 16.2-.1 24.3.1v193.7a25.4 25.4 0 0 1-22.4 22.6h-211C10.9 255 1 245 0 233.4V39.7c8.1-.2 16.2-.1 24.3 0h45.6c.2-13.3 0-26.5.1-39.7M19 82v67h57.4c0-22.4.1-44.7-.1-67-19.1-.2-38.2-.2-57.3 0m160.7 0c-.2 22.3-.2 44.6 0 67H237V82c-19-.2-38.2-.2-57.3 0M34.2 163v51c62.5.2 125 .2 187.5 0 .2-5.7.2-11.4.2-17-.2-11.3-.1-22.6 0-33.9l-8.9 7h-12v2.1c-4.4-3.2-10-1.9-15-2l-1 2.2V170H71v2.3l-1-2.3c-5 .2-10.6-1-15 2.1v-2l-12-.1c-3-2.3-6-4.6-8.8-7z"/><path fill="#f9d147" d="M90.6 0h74.9c-.2 26.3 0 52.6-.1 78.9l-9.5 10-55.7.1-9.6-10.1V0M102 13.7V24h52V13.7h-52m0 24.3v10.3h52V38h-52m0 25.6V74h52V63.6c-17.3-.2-34.7-.1-52 0z"/><path fill="#c0a036" d="M102 13.7h52V24h-52V13.7zm0 24.3h52v10.3h-52V38zm0 25.6c17.3-.1 34.7-.2 52 0V74h-52V63.6z"/><path fill="#f9f9f4" d="M19 82c19-.2 38.2-.2 57.3 0 .2 22.3.1 44.6 0 67H19V82m30 9v48.4h8V91h-8zm130.7-9c19.1-.2 38.2-.2 57.3 0v67h-57.3c-.2-22.4-.2-44.7 0-67m19.3 9v48.3h8V91h-8zM55 172.1c4.4-3.2 10-1.9 15-2l1 2.2c.1 4.5 0 9.1 0 13.7H55v-13.9zm131-2.1c5 .2 10.6-1.1 15 2.1V186h-16c0-4.6-.1-9.1 0-13.7l1-2.3z"/><path fill="#756965" d="M49 91h8v14h-8V91zm150 0h8v14h-8V91z"/><path fill="#1e1c1b" d="M49 105h8v34.3h-8V105zm150 0h8v34.4h-8v-34.5z"/><path fill="#a27689" d="M34.2 163c2.8 2.4 5.8 4.7 8.7 7h12v2.1L55 186h16c0-4.6.1-9.2 0-13.7V170h114v2.3c-.1 4.6 0 9.1 0 13.7h16v-15.9l12-.1c3-2.3 6-4.6 8.8-7v33.8H34.2V163z"/><path fill="#d8a7bd" d="M34.1 196.8H222c0 5.7 0 11.4-.2 17.1-62.4.2-125 .2-187.4 0-.2-5.7-.2-11.4-.2-17z"/></svg>