<svg xmlns="http://www.w3.org/2000/svg" viewBox="0 0 256 256"><path fill="#f7e8bd" d="M22.5 0h210.9A25.4 25.4 0 0 1 256 22.4v211.1c-1 11.6-11 21.4-22.5 22.5H22.7A25.4 25.4 0 0 1 0 233.6V22.5C1 10.9 11 1.1 22.5 0M113 41.3V72h30.4c.1-3.1.1-6.2 0-9.3.1-7.1 0-14.2.2-21.3-10.2-.2-20.4 0-30.6-.1M21 59.8l.1 57.4c25.3.3 50.6 0 76 .2a22 22 0 0 0 6.5-.8c-9.8-14.2-18.8-28.9-28.3-43.2C72.6 69.2 70 65 67.1 61c-1-2-3.4-1.2-5-1.4-13.7.3-27.4-.2-41 .2m169.3-.2c-3.7 4.6-6.6 9.7-9.8 14.6-9.3 14.3-18.8 28.5-27.7 43 10 .3 20 0 30 .1 17.5-.1 34.8.3 52.2-.2.1-19 0-38.1 0-57.2-13.4-.4-27-.2-40.4-.1l-4.3-.2M112 116v20h12.3c1.6 9 0 18.2 1 27.2l-8.7 8.8H83l-.2 2.2c-5-3.2-12.1-3.4-17.1-.2v-2H55a2197.6 2197.6 0 0 0 0 42h147v-42h-11v2.2c-5-3-12.1-3.6-17-.3V172h-33.8c-3-3.1-6.3-5.8-9.4-8.7.8-9-.6-18.3 1-27.3H144v-20h-32z"/><path fill="#e17b6b" d="M113 41.3h30.6c-.2 7.2 0 14.3-.1 21.4H113V41.3m6 1.8v9h9.2v-9H119z"/><path fill="#f7dfdb" d="M119 43h9.2v9H119v-9z"/><path fill="#fcfbf4" d="M21 59.8c13.7-.4 27.4.1 41-.2V113h13.3V73.4c9.5 14.3 18.5 29 28.3 43.2a22 22 0 0 1-6.6.8c-25.3-.2-50.6.1-75.9-.2V59.8zm173.7 0c13.5-.1 27-.3 40.5 0v57.3c-17.4.5-34.8 0-52.2.2-10 0-20 .2-30-.1 8.8-14.5 18.3-28.7 27.6-43 .2 9.3 0 18.6 0 27.8v11h14c.2-17.7 0-35.5 0-53.2z"/><path fill="#e97560" d="M62 59.6c1.7.2 4.1-.5 5.1 1.4 3 4 5.5 8.2 8.2 12.4V102c-4.3-1.8-9.1-2.8-13.3-.2V59.6zm128.4 0l4.3.2c-.1 17.7.1 35.5-.2 53.2-.2-3.5.2-7.2-.9-10.7-3.1-4.2-9-1.6-13-.3 0-9.2.2-18.5 0-27.8 3.3-4.9 6.1-10 9.8-14.6z"/><path fill="#f79f91" d="M113 62.8l30.5-.1V72H113v-9.2z"/><path fill="#fc7e68" d="M62 101.8c4.2-2.6 9-1.6 13.3.2v11H62v-11.2zm118.7.2c4-1.3 9.8-4 12.9.3 1 3.5.7 7.2 1 10.7h-14v-11z"/><path fill="#423833" d="M112 116h32v20h-32v-20z"/><path fill="#decfa5" d="M124.3 136h7.4c-1.5 9-.1 18.2-1 27.3l-2.7-2.7-2.8 2.6c-.9-9 .7-18.2-1-27.2z"/><path fill="#af7d91" d="M125.2 163.2l2.8-2.6 2.8 2.7c3 3 6.4 5.6 9.4 8.7H174v16h17v-16h11v26.9c-49 .2-98 0-147 0V172h10.7v16h17.2a112.2 112.2 0 0 1 0-16h33.7l8.6-8.8z"/><path fill="#efefe7" d="M65.7 174c5-3.2 12.2-3 17.1.2-.3 4.6-.1 9.2.1 13.8H65.7v-14zm108.3 0c4.9-3.4 12-2.7 17 .2V188h-17v-14z"/><path fill="#ce9cb2" d="M55 199l147-.1v15H55v-15z"/></svg>