<svg xmlns="http://www.w3.org/2000/svg" viewBox="0 0 256 256"><path fill="#63b6fc" d="M22.4 0h211.1A25.5 25.5 0 0 1 256 22.4V115c-33.5.1-67-.2-100.4.2l1.8-.4c12.3-17.5 24.2-35.3 36.5-52.7 1.8-2.2 2-5 2-7.7-5.6-3.8-11-7.9-16.2-12-5.3.3-7.4 5.5-10.3 9-10 13-19.5 26.2-29.4 39.1.2-23.2 0-46.3.1-69.5 0-2.7-.6-5.3-1-8h-22.2c-2.7 4.9-1.8 10.6-1.9 16v60.8c-12-15.5-23.2-31.3-35.3-46.7l-4.2-.4c-4.3 3.4-8.8 6.4-13 9.8-2 1.5-2.5 4-3.4 6C71.6 76.1 83.7 94 96 111.8l1 3.4c-32.3-.4-64.7 0-97-.2V22.4A25.5 25.5 0 0 1 22.4 0z"/><path fill="#474747" d="M117 13h22c.5 2.7 1.1 5.3 1.1 8-.2 23.2.1 46.3-.1 69.5 10-13 19.4-26.2 29.4-39 3-3.6 5-8.8 10.3-9.1a323 323 0 0 0 16.2 12c0 2.7-.2 5.5-2 7.7-12.3 17.4-24.2 35.2-36.6 52.7l-1.7.4c-19-.3-38-.4-57.1 0l-2.5-3.4C83.7 94 71.6 76.1 59 58.5c1-2 1.5-4.5 3.4-6 4.3-3.4 8.9-6.4 13-9.8l4.3.4c12 15.4 23.4 31.2 35.3 46.7V29c0-5.4-.8-11.1 2-16z"/><path fill="#f9d970" d="M96 111.8l2.5 3.4c19-.4 38-.3 57.1 0 33.5-.4 67-.1 100.4-.2v118.6a25.5 25.5 0 0 1-22.4 22.4h-18.3c.3-14 .2-28.2 0-42.3h-61.2V193h-52.4v20.6h-61c-.3 14.2 0 28.3-.2 42.4h-18A25.5 25.5 0 0 1 0 233.7V115c32.3.1 64.7-.2 97 .2l-1-3.4m-71.6 48.3V206h66.9v-46h-67m139.7 0v46h67v-46h-67z"/><path fill="#f4f7f7" d="M24.4 160h66.9v46h-67c.2-15.3.1-30.6 0-46M53 176v12h10.9v-11.9h-11zm111-16h67v46h-67v-46m27.8 16.1V188H203v-12l-11.3.1z"/><path fill="#393431" d="M52.9 176l10.9.1V188h-11v-12z"/><path fill="#363533" d="M191.8 176.1H203V188h-11.3v-12z"/><path fill="#ecdcc0" d="M101.7 193H154v20.7h61.3c.2 14.1.3 28.2 0 42.3H40.5l.1-42.3h61l.1-20.7m14.3 6.3v14.4l5.6-.1v-14.3H116m18.3 0v14.3h5.3v-14.3h-5.3z"/><path fill="#8c8473" d="M116 199.3h5.7v14.3l-5.7.1v-14.4z"/><path fill="#8c8673" d="M134.3 199.3h5.3v14.3h-5.2v-14.3z"/></svg>