<svg xmlns="http://www.w3.org/2000/svg" viewBox="0 0 256 256"><path fill="#86afd6" d="M21.4 0h211c10.8 1 20 9.4 22.3 20l1.3-.8v217.6l-1.3-.8a25.6 25.6 0 0 1-22.1 20H21.5c-9.8-1-18.6-8.1-21.5-17.5v-221A25.6 25.6 0 0 1 21.4 0M113 42v28h28V42h-28m95.4 31.3c-2.2 1-4.2 3.1-6.8 3v.4a92 92 0 0 1-4.7 3c-1.6.4-3.4.4-4.7 1.6l.9.2h-.6c-2 2.3-4.9 3.4-7.5 4.8v.5c-2.3 1.4-5.7 2.2-7 4.7-3.3.7-6 2.8-9 4.4-5 3-10.4 5.6-15.2 9 8.1 0 16.2.4 24.3-.2h2.7c7 .7 14.1.2 21.1.2v-.6c2.7.5 5.4.8 8.1.7h27V56.7l-28.6 16.5M17 61v44c11.7-.2 23.3.4 35-.4 7 .7 14.2.6 21.2 0l1.9.6.8-.5c8 .6 16 .3 23.8 0-6.3-4.2-13.2-7.6-19.6-11.6a7.1 7.1 0 0 0-4-1.4V91a76 76 0 0 0-7.2-4.3c-2.3-2-5.6-2.6-7.5-5.2H61l.8-.2c-3-2-7-1.7-9.4-4.6v-.4c-1.5 0-2.9-.7-4.2-1.4C38 68.9 27.5 63 17.4 57c-.3 1.3-.4 2.7-.4 4m90 35c-2.3 2.8-4.7 5.4-7.2 8v19.6c-27.6-.4-55.2 0-82.8-.2-.2 35.4 0 70.9 0 106.3h220V123.5c-27.8 0-55.7-.2-83.5 0-.2-6.4 0-13-.2-19.4-2.6-2.6-5-5.3-7.4-8H107z"/><path fill="#ff5368" d="M113 42h28v21h-28V42m7 3v9h9v-9h-9z"/><path fill="#ffb3bd" d="M120 45h9v9h-9v-9z"/><path fill="#fff" d="M208.4 73.3L237 56.8v48.1l-27 .1a43 43 0 0 1-8-.7v-8.7c-.2-6.3.4-12.6-.3-19l-.1-.4c2.6.2 4.6-1.8 6.8-3zM17 61c0-1.3.1-2.7.4-4C27.6 63.1 38 69 48.1 75c1.3.7 2.7 1.5 4.3 1.4v.4c-.8 6.3-.2 12.6-.4 19v8.9c-11.7.8-23.3.2-35 .3V61zm41.7 20.5h2.7c1.9 2.6 5.3 3.2 7.5 5.2L69 89H59v-1.8l-.3-5.7zm134.4 0h2.2l-.3 5.7V89h-10v-2.7c2.6-1.4 5.6-2.5 7.5-4.8h.6zM76 91.7c1.5 0 2.8.6 4 1.4 6.5 4 13.4 7.4 19.7 11.7-7.9.2-15.9.5-23.8-.1V96l.1-4.3zm93 4.2c3-1.6 5.7-3.7 9-4.4v13.2c-8 .6-16.1.2-24.2.2 4.8-3.4 10.2-6 15.2-9z"/><path fill="#ff7686" d="M113 63h28v7h-28v-7z"/><path fill="#ad530d" d="M52 95.6c.2-6.3-.4-12.6.3-19 2.5 3 6.5 2.8 9.4 4.7l-.8.2h-2.2l.3 5.7c-2.7 1.5-2.2 4.3 0 6v1.5l-7 1zm149.7-18.9c.7 6.3 0 12.6.3 19l-7-1v-1.5c2.2-1.7 2.7-4.5 0-6 0-2 .1-3.8.3-5.7H193l-.8-.2c1.2-1.2 3-1.2 4.6-1.5l4.8-3.1z"/><path fill="#ad5510" d="M69 86.7c2.4 1.3 4.7 2.7 7 4.3v5l-7-1.3v-8zm109 4.8c1.3-2.5 4.7-3.3 7-4.7v8l-7 1.2v-4.5z"/><path fill="#8c4108" d="M59 93.2c-2.2-1.7-2.7-4.5 0-6V89h2.6c-.8 1.5-1.7 2.8-2.6 4.2zm136-6c2.7 1.5 2.2 4.3 0 6a76 76 0 0 1-2.6-4.2h2.7v-1.8z"/><path fill="#5a2c08" d="M61.6 89H69v10H59v-5.8c1-1.4 1.8-2.7 2.6-4.2zM185 89h7.4a76 76 0 0 0 2.6 4.2 72 72 0 0 1 0 5.8h-10V89z"/><path fill="#c65f0d" d="M52 95.6l7-.9V99h10v-4.3l7 1.3v7.9c-1-.3-2 0-2.8.8-7 .5-14.2.6-21.3-.1l.1-9zm126 .4l7-1.2V99h10v-4.3l7 1v9.2c-7 0-14.2.5-21.2-.2-.8-.8-1.7-1-2.8-.8v-8z"/><path fill="#fff5d3" d="M107.1 96H146c2.3 2.8 4.8 5.5 7.4 8.1.2 6.5 0 13 .2 19.5 27.8-.3 55.7 0 83.5-.1v106.2H17c0-35.4-.1-70.9.1-106.3 27.6.3 55.2-.2 82.9.2v-19.5l7.1-8m2.6 10.9c-.2 5.4-.1 11 0 16.4h4.6v-16.5h-4.6m29.3 0v16.3l4.9.7c.2-5.7.1-11.3 0-17H139M30 164v48h28.7a68735.6 68735.6 0 0 0 164.3 0v-48c-64.3.2-128.7.2-193 0z"/><path fill="#a53439" d="M73.2 104.7c.8-.8 1.7-1 2.8-.8v.8l-1 .5-1.8-.5zm104.8-.8c1-.3 2 0 2.8.8h-2.7v-.8z"/><path fill="#d6cfb5" d="M109.7 107h4.6v16.3l-4.7.1.1-16.5zm29.3 0h5l-.1 16.9-5-.7.1-16.2z"/><path fill="#8e7375" d="M30 164c64.3.2 128.7.2 193 0v48h-28l-.1-21.2c-38-.3-76 0-113.9 0-7.4 0-14.8-.4-22.2.2-.4 7-.3 14 0 21H30v-48z"/><path fill="#aa808e" d="M58.8 191c7.4-.6 14.8-.2 22.2-.3 38 .1 76-.2 113.9.1.2 7.1.1 14.2 0 21.2H58.7c-.2-7-.3-14 0-21z"/></svg>