<svg xmlns="http://www.w3.org/2000/svg" viewBox="0 0 256 256"><path fill="#ecdbc6" d="M22.5 0h210.9A25.4 25.4 0 0 1 256 22.4v211.2c-1 11.5-11 21.3-22.4 22.4h-211A25.4 25.4 0 0 1 0 233.7V22.4C1 11 11 1.1 22.5 0m.5 55v67h35.2a934 934 0 0 0 0-41c-5.5-5-12-8.7-17.6-13.5-6-4-11.4-8.8-17.6-12.4m192.6 12.6c-5.5 4.5-11.7 8.2-17 13-1.5 1.3-.8 3.5-1 5.3.3 12-.3 24 .2 36 12 0 24 .2 35.9-.2V55c-6.5 3.6-12 8.6-18 12.7M58.8 81.4c-.2 13.5-.2 27 0 40.6 7.3.2 14.7-.5 22 .4-3.4 3-8.6 6.3-7.9 11.6v56c2.6 2.5 5.2 5 7.6 7.6 31.6.3 63.3.1 95 .1 2.8-3.6 8.6-6.2 8-11.5V135c.7-5.6-4.4-9.6-8.3-12.7 7.3-.6 14.6-.1 21.8-.3.2-13.5.3-27 0-40.4a463 463 0 0 0-17.5 12.8c-2.5 1.1-4.2 3.8-6.9 4.2l.2.4c-5.9 4.8-12.2 9-18.3 13.6-3.7 3.4-8.6 5.5-11.8 9.4h-.9V83.3l-5.8.5c-.2 12.8-.1 25.5 0 38.2h-15.5V98.1a62 62 0 0 0-6.3 0v23.4l-8.3-5.6c-7.4-6-15.3-11.4-23-17-4-3.3-8.5-6-12.5-9.4-4.2-2.3-7.5-5.8-11.6-8.1z"/><path fill="#f1f1f1" d="M23 55c6.2 3.7 11.5 8.6 17.6 12.5 5.6 4.8 12.1 8.4 17.6 13.4a934 934 0 0 1 0 41c-11.7.2-23.4.1-35.1 0-.2-22.2 0-44.5 0-66.8zm192.6 12.7c6.2-4 11.6-9.1 18-12.7v66.8c-11.9.4-23.8.1-35.8.2-.6-12 0-24-.2-36 .2-1.8-.5-4 1-5.4 5.3-4.7 11.5-8.4 17-13zM83 98.9c7.7 5.6 15.6 11 23 17l8.3 5.6v.5c-10.4.1-20.9-.2-31.3.2V98.9zm90 .1c.9 1.5.6 3.3.7 5l-.1 18.2c-10.3-.4-20.6 0-30.8-.2 3.2-4 8-6 11.8-9.4 6.1-4.5 12.4-8.8 18.3-13.6z"/><path fill="#cb9484" d="M58.9 81.4c4.1 2.3 7.4 5.8 11.6 8C74.5 93 79 95.7 83 99v23.3l-2 .2c-7.4-.9-14.8-.2-22.1-.4-.2-13.5-.2-27 0-40.6M66 95.7V115h9.6c-.3-6.5 0-13-.3-19.3H66zm113.6-1.3c5.7-4.4 11.6-8.6 17.5-12.8.3 13.5.2 27 0 40.4-7.2.2-14.5-.3-21.8.3l-1.7-.1V104c0-1.7.3-3.5-.7-5l-.2-.4c2.7-.4 4.4-3 6.9-4.2m1.4 1.3V115h9.3V95.7H181z"/><path fill="#c3b4a2" d="M136 83.8l5.8-.5c.2 12.9 0 25.8.1 38.7H136V83.8zm-21.7 14.3h6.3V122h-6.2V98.1z"/><path fill="#39322e" d="M66 95.7h9.3c.4 6.4 0 12.8.3 19.3H66V95.7zm115 0h9.3V115H181V95.7zm-37.5 46.8h7.1c-.4 10.5-.1 21-.2 31.5l-7-.1c.2-10.5 0-21 .1-31.4zm-38.1-.1h7.6V174h-7.4c0-10.5.2-21-.2-31.6z"/><path fill="#d38c78" d="M81 122.4l2-.2c10.4-.4 21 0 31.4-.2h28.4c10.2.1 20.5-.2 30.8.2l1.7.1c4 3 9 7 8.2 12.7v51c.7 5.4-5 8-8 11.6-31.6 0-63.3.2-95 0a187 187 0 0 0-7.4-7.7L73 134c-.7-5.3 4.5-8.5 8-11.6m62.5 20V174l6.9.1c0-10.5-.2-21 .2-31.6h-7m-38.2 0c.4 10.5.1 21 .2 31.6h7.4v-31.6h-7.6z"/></svg>