<svg xmlns="http://www.w3.org/2000/svg" viewBox="0 0 256 256"><path fill="#ecdbc6" d="M22.7 0H233c11.8.7 22 10.8 23 22.6v210.6a25.3 25.3 0 0 1-22.7 22.8H23a25.3 25.3 0 0 1-23-22.6V22.8C.8 11 11 .8 22.7 0m158.4 15v15H164v8h25V15h-8m15.3 0v23h25v-8h-17.1V15h-7.9M164 45v8h17v15.7h8V45h-25m32.3.1c0 7.8-.1 15.7.1 23.5h7.7l.1-15.5c5.7-.2 11.4-.1 17.1-.2v-7.8h-25m-166.7 22c-.5 21.2-.2 42.5-.2 63.7 17.1.4 34.2 0 51.3.3-2.5 3.3-5.2 6.6-8 9.8-1.4 1.3-1 3.4-1.2 5.1v48c.1 1.8-.1 3.8 1.2 5.2 2.9 3.5 5.9 6.8 8.6 10.5h93.3c2.7-3.7 5.8-7 8.6-10.7 1.7-2 1.2-4.7 1.3-7-.3-16.4.3-32.7-.2-49-2.4-4.5-6.5-7.7-9.2-12 17.2-.2 34.3.2 51.4-.2 0-21.2.4-42.5-.1-63.8-11.8 9.2-22.7 19.6-34.3 29.1-2 1.7-4.3 3.5-5 6.2v-1.6c-3.6 2.8-6.9 6-10.5 8.8-8 7.3-16.3 14.3-24.7 21.2-.4-14.6.5-29.2 0-43.8H144c-.2 14.7-.2 29.4 0 44.1h-32.2c.1-10.3.2-20.6 0-31H104c-.2 10.4-.2 20.7 0 31h-.7c-7.2-8-16.3-14-24-21.4-3.6-2.8-6.9-6-10.5-8.9v1.6c-.7-2.5-2.8-4-4.6-5.7-11.6-9.7-22.8-20-34.7-29.5z"/><path fill="#c3b4a5" d="M181 15h8v23h-25v-8h17V15zm15.3 0h7.9v15h17.1v8h-25V15zM164 45h25v23.7h-8V53h-17v-8zm32.3.1h25v7.8l-17 .1c-.1 5.3 0 10.5-.2 15.7l-7.7-.1c-.2-7.8 0-15.7 0-23.5z"/><path fill="#f1f1f1" d="M29.6 67c11.9 9.5 23 19.9 34.7 29.6 1.8 1.6 4 3.2 4.6 5.7 0 6.2 0 12.4-.2 18.7h10.7v-11.4c7.7 7.5 16.8 13.5 24 21.4H80.7c-17-.2-34.2.3-51.3-.2 0-21.2-.3-42.5.2-63.8zm162.5 29.1c11.6-9.5 22.5-19.9 34.3-29 .5 21.2.2 42.5.1 63.7-17 .4-34.2 0-51.4.2H152v-.3c8.3-7 16.7-14 24.7-21.2V121l10.7-.1c-.2-6.3-.1-12.5-.2-18.7.7-2.7 3-4.5 5-6.2z"/><path fill="#dbc9b7" d="M144.1 87h7.8c.5 14.5-.4 29.1 0 43.7v.3h-7.8c-.2-14.7-.2-29.4 0-44zm-40 13h7.8c.2 10.4.1 20.7 0 31h-7.8c-.2-10.3-.2-20.6 0-31z"/><path fill="#313029" d="M68.9 100.7c3.6 2.8 6.9 6.1 10.5 8.9v11.5l-10.7-.1c.2-6.3.1-12.5.2-18.7v-1.6zm107.7 8.8c3.6-2.8 6.9-6 10.5-8.8v1.6c0 6.2 0 12.4.2 18.7h-10.7v-11.5z"/><path fill="#d38c78" d="M80.7 131h23.4a2033.2 2033.2 0 0 0 40 0h31c2.7 4.3 6.8 7.5 9.2 12 .4 16.3 0 32.6.2 49-.1 2.3.4 5-1.3 7-2.8 3.6-5.9 7-8.6 10.6H81.3c-2.7-3.6-5.7-7-8.6-10.4-1.3-1.4-1-3.4-1.2-5.2v-48c.1-1.7-.2-3.8 1.3-5.1l8-9.8m21 23.6c-.2 10.1-.1 20.2-.1 30.3H115v-30.3h-13.3m39.3 0V185h13.3v-30.3H141z"/><path fill="#754f42" d="M101.7 154.7H115V185h-13.3v-30.3zm39.3 0h13.3V185H141v-30.3z"/></svg>