<svg xmlns="http://www.w3.org/2000/svg" viewBox="0 0 256 256"><path fill="#e9a360" d="M22.5 0h82.4c-.5 14.3 0 28.7-.2 43h46.6V0h82A25.4 25.4 0 0 1 256 22.5V104c-7.4 0-14.7.1-22-.1 0-19.7.3-39.4-.2-59.1-8.7 4.2-17.4 8.4-26.3 12.2l-.5 3.2-.1-3.1c-6 4-13 5.9-19.1 9.5-5.2 1.7-9.6 6-15.3 5.5l-.6 1.4c-.9 1-2 1.6-3.2 2.3V104H153v-4.2h-50v4.2H87.3V76c-1.1-.8-2.4-1.5-3.3-2.5l-.2-1.4c-5.9.8-10.3-3.7-15.6-5.4-6.3-3.5-13-6-19.4-9.3-9-4-17.8-8.2-26.6-12.5-.5 19.6-.2 39.4-.1 59.1-7.4.2-14.7 0-22.1 0V22.7A25.4 25.4 0 0 1 22.5 0z"/><path fill="#f7e5bd" d="M105 0h46.3v43h-46.6c.2-14.3-.3-28.7.2-43zM0 104c7.4 0 14.7.2 22 0 9-.2 18-.3 27 0 12.8.2 25.5 0 38.3 0H103v26.7h50V104h15.7c12.8 0 25.6.2 38.3 0 9-.3 18-.2 27 0 7.3.2 14.6 0 22 0v129.3a25.3 25.3 0 0 1-22.5 22.7H22.7A25.4 25.4 0 0 1 0 233.5V104m18 72v44.4h220V176H18z"/><path fill="#fff" d="M22.2 44.9C31 49.1 40 53.4 48.8 57.4c.4 12.6.2 25.4.2 38l3.3-.3-3.3.7v8.2c-9-.3-18-.2-27 0 0-19.7-.3-39.5.2-59.1zM207.6 57c8.8-3.7 17.5-8 26.2-12.1.5 19.7.2 39.4.1 59.1-9-.2-18-.3-26.9 0v-8.3l-3.4-.6 3.4.3v-35l.6-3.3zM68.2 66.7c5.3 1.7 9.7 6.2 15.6 5.4l.2 1.5-1.2-1.4c-1.6 3.1-.6 6.8-.8 10.1-4.7 0-9.3.2-14-.3 0-5-.2-10.2.2-15.3zm104.3 5.5c5.7.5 10.1-3.8 15.3-5.5.4 5 .1 10.2.2 15.3-4.7.5-9.3.2-14 .3-.2-3.3.8-7-.8-10l-1.3 1.3.6-1.4z"/><path fill="#182431" d="M48.8 57.4c6.4 3.4 13.1 5.8 19.4 9.3-.4 5-.1 10.2-.2 15.3 4.7.5 9.3.2 14 .3.2-3.3-.8-7 .8-10.1l1.2 1.3c1 1 2.2 1.7 3.3 2.5v19h-9l-1 2.8c-5.3.3-10.7.1-16 .1l-.7-3c-2.8 0-5.5-.1-8.3.2l-3.3.2c0-12.7.2-25.4-.2-38zm139 9.3c6.1-3.6 13.1-5.6 19-9.5l.2 3.1v35.1l-3.4-.3c-2.7-.2-5.4-.1-8.2 0l-.7 3L179 98l-1.4-3-8.9.1V76c1.1-.7 2.3-1.3 3.2-2.3l1.3-1.3c1.6 3 .6 6.7.8 10 4.7 0 9.3.2 14-.3 0-5 .2-10.2-.2-15.3z"/><path fill="#4a4754" d="M52.3 95.2c2.8-.3 5.5-.2 8.3-.2l.7 3c5.3 0 10.7.2 16-.1l1-2.8h9v9H49v-8.3l3.3-.6zm116.4-.1h9L179 98h15.7l.7-3c2.8 0 5.5-.1 8.2.1l3.4.6v8.3c-12.8.2-25.5 0-38.3 0v-8.9z"/><path fill="#333639" d="M103 99.8h50v30.9h-50V99.8z"/><path fill="#917375" d="M18 176h220v44.5h-29.4V201H47.4v19.5H18V176z"/><path fill="#ffacb2" d="M47.4 201h161.2v19.5H47.4V201z"/></svg>