<svg xmlns="http://www.w3.org/2000/svg" viewBox="0 0 256 256"><path fill="#f7e5bd" d="M22.6 0h210.6A25.3 25.3 0 0 1 256 22.6V37c-7 4.8-14 9.2-21 14.1l-16.4 11.3c-2.2 1.5-4.8 2.2-6.5 4-3.5 3.4-8.4 4.8-11.3 8.7-4 1.7-7.4 5-11.9 5.9l-1.4 2c-2.6 2-5.2 3.9-7.9 5.6a20.5 20.5 0 0 0-2.8 2.4c-4.5 3.2-9.5 5.8-13.8 9.2-1.3 3.7-.4 7.8-.6 11.7 31.2.2 62.4 0 93.6.1v121.3a25.3 25.3 0 0 1-22.6 22.7H22.7A25.3 25.3 0 0 1 0 233.4V112h93.7c0-4 0-8-.2-11.8-4.4-3.3-9-6.1-13.5-9.4-1.1-.8-2.3-1.4-3.5-2.1-3-2.4-6.2-4.5-9.3-6.7v-1.3c-4.2-1-7.6-3.7-11.2-6-3.9-2.8-7.8-5.3-11.7-8l-.6-1-.7-1c-7.7-3.2-13.7-9.4-21-13.1-7.5-4.8-14.6-10.1-22-14.8v-14A25.3 25.3 0 0 1 22.6 0m82.3 116.6c.1 8.7-.1 17.4.1 26h46c.2-8.6 0-17.3.1-26h-46.2M13.7 178v46H39c59.3-.2 118.7-.2 178 0h25.3v-46l-19.3.1c-7.6-.2-15.3-.1-23 0H56.2c-7.7-.2-15.5 0-23.3-.2-6.4.2-12.8 0-19.2.1z"/><path fill="#e9a360" d="M0 36.8c7.5 4.7 14.5 10 22 14.8v48.7h58l13.5-.1c.2 3.9.2 7.8.2 11.7-31.3.2-62.5 0-93.7.1V36.8zm235 14.3c7-4.9 14-9.4 21-14.1v75h-93.6c.2-4-.7-8 .6-11.8 4.6.2 9.3 0 14 .1h58V51.1z"/><path fill="#fff" d="M218.6 62.4c5.5-3.7 10.9-7.6 16.5-11.3-.1 16.4 0 32.8 0 49.2h-20.7V64.9l-2.3 1.6c1.7-2 4.3-2.6 6.5-4zM22 51.6c7.3 3.8 13.3 10 21 13.2l.7 1-1.6-.3-.1 22.7v12l-20 .1V51.6zm34 23.1c3.6 2.3 7 5 11.2 6V82c-.1 2.1-.3 4.2-.2 6.3V93c-3.5 1.1-7.3.5-11 .6V74.7zM189 81c4.4-1 7.7-4.2 11.8-5.9.3 4.4.2 8.7.2 13v5.6h-11l-.4-.9c-.1-3.6 0-7.3.1-11l-2.3 1.3 1.4-2.1zM80 90.8c4.4 3.3 9.1 6.1 13.5 9.4-4.5.2-9 .1-13.5.1v-9.5zm83 9.4c4.3-3.4 9.3-6 13.8-9.2.2 3 .2 6.2.2 9.3-4.7 0-9.4.1-14-.1zM33 178h23.2v20H33v-20zm167 0l23 .1V198h-23v-20z"/><path fill="#262221" d="M212 66.5l2.4-1.6v35.4h-.7c.2-4 .1-7.9 0-11.8-4.3.1-8.5.1-12.7-.3 0-4.4 0-8.8-.2-13.1 2.9-3.9 7.8-5.3 11.3-8.6zm-170-1l1.7.2.6 1c3.9 2.7 7.9 5.2 11.7 8v13.7a68 68 0 0 1-14-.2V65.5z"/><path fill="#292421" d="M67 88.3c0-2 0-4.2.2-6.3 3 2.2 6.4 4.3 9.3 6.7-3.2 0-6.3 0-9.5-.4zM187.5 83l2.3-1.3c0 3.8-.2 7.5 0 11.1-1-1.3-1.9-2.7-3-3.8-2.4-.5-4.8-.4-7.2-.4 2.7-1.7 5.3-3.6 7.9-5.5z"/><path fill="#3f3833" d="M42 88.2c4.6.6 9.3.6 14 .2v5.2c3.7 0 7.5.5 11-.6v-4.7c3.2.3 6.3.4 9.5.4l3.5 2v9.6H42v-12zm159 0c4.2.4 8.4.4 12.6.3a93 93 0 0 1 0 11.8H177c0-3.1 0-6.2-.2-9.3a26.2 26.2 0 0 1 2.8-2.4c2.4 0 4.8 0 7.2.4 1.1 1.1 2 2.5 3 3.8l.3.9H201v-5.5z"/><path fill="#333639" d="M104.9 116.6h46.2c-.1 8.7.1 17.4-.1 26h-46c-.2-8.6 0-17.3-.1-26z"/><path fill="#917375" d="M13.7 178h19.2c.2 6.6 0 13.3.1 20h23.2v-20H200v20h23v-19.9c6.5-.2 12.9 0 19.3 0V224H217v-16.2H39V224H13.7v-46z"/><path fill="#ffacb2" d="M39 207.8h178V224c-59.3-.2-118.7-.2-178 0v-16.2z"/></svg>