<svg xmlns="http://www.w3.org/2000/svg" viewBox="0 0 256 256"><path fill="#6593d0" d="M19.2 0h217.7l-1 1.4c10.6 2 19 11.3 20.1 22v211.2c-1 9.8-8.1 18.4-17.4 21.4H232V120.1c-4.9-4.7-9.3-10.2-15-13.9-19.7-.5-39.4 0-59-.2V76H98v30H39c-4.8 4.9-10.7 8.7-14.8 14.2l-.3 2.8v133h-6.5A25.7 25.7 0 0 1 0 234.7V23.4c1-10.6 9.5-20 20-22L19.2 0m.5 24v62h62.6c.1-3.4.2-6.7 0-10h.4c-.3-17.4-.1-34.6-.1-52H19.7m153.7 0c.2 17.4-.2 34.8.2 52v10h62.7V24h-62.9z"/><path fill="#fff" d="M19.7 24H30v52h8a44262.5 44262.5 0 0 1 44.2 0c.3 3.3.2 6.6.1 10H19.7V24zM226 24h10.3v62h-62.6c-.2-3.3 0-6.6-.1-10H226V24zM57.4 50.7V32.5h18c0 6-.4 12 .3 17.9-6 .6-12.2.1-18.4.3zm123-.1v-18l18.2-.1v18.2l-18.2-.1z"/><path fill="#180e10" d="M30 24h52.6c0 17.4-.2 34.6 0 52h-8.1c-1-1.7-2.7-3-3.2-5-.3-3.6-.1-7.2-.3-10.8-10.9 0-21.8-.6-32.6.2-.3 5.2-.1 10.4-.4 15.6h-8V24m27.4 26.7c6-.2 12.2.3 18.3-.3-.7-6-.3-12-.2-18H57.4v18.3zm116-26.7H226v52h-8l-.4-15.5c-10.8-1-21.7-.2-32.5-.3-.3 3.6-.1 7.2-.4 10.8-.6 2-2 3.4-3.2 5h-8c-.3-17.3.1-34.6-.1-52m7 26.6h18.3v-18h-18.3v18z"/><path fill="#261c1e" d="M38.4 60.4c10.8-.8 21.7-.2 32.6-.2.2 3.6 0 7.2.3 10.8.5 2 2.1 3.3 3.2 5H38c.3-5.2.1-10.4.4-15.6zm146.6-.2c11 0 21.8-.6 32.6.3L218 76h-36.5c1.1-1.6 2.6-3 3.2-5 .3-3.6.1-7.2.4-10.8z"/><path fill="#f4c5db" d="M98 76h60v30c0 4.9 0 9.8-.2 14.7H98.2c-.3-5-.2-9.8-.2-14.7V76m15.2 16v12.6h29.5V92h-29.5z"/><path fill="#4f2c42" d="M113.2 92h29.6v12.6h-29.6V92z"/><g fill="#dee1ef"><path d="M24.2 120.2c4.1-5.5 10-9.3 14.7-14.2H98c0 4.9 0 9.8.2 14.7h59.6c.3-5 .2-9.8.2-14.7 19.6.1 39.3-.3 59 .2 5.7 3.7 10.1 9.2 15 14V256h-28.4V130c-42.8-.4-85.7-.1-128.6-.2-7.6 0-15.1-.2-22.7.1V256H24V123l.3-2.8z"/><path d="M71.3 147h113.4v96H110v-58h36v20.1h-17.3v17.8h36.2c.2-19 0-38 0-56.9H91v90H71.3V147z"/></g><path fill="#362629" d="M52.3 130c7.6-.4 15.1-.1 22.7-.2 42.9 0 85.8-.2 128.7.1V256H91v-90h74v57l-36.3-.1V205H146v-20h-36v58h74.7v-96H71.3v109h-19c0-42 .1-84 0-126z"/></svg>