<svg xmlns="http://www.w3.org/2000/svg" viewBox="0 0 256 256"><path fill="#6593d0" d="M22.4 0H88v26c0 6.6-.2 13.3.2 20 23.3.4 46.5 0 69.8.1 3.3 0 6.5 0 9.8-.3.3-6.6.2-13.2.2-19.8V0h65.5A25.4 25.4 0 0 1 256 22.4v211c-1 11-10 20.6-20.8 22.4V111c.2-1.7-.2-3.4-1.4-4.7-3.4-3.7-6.5-7.6-10-11.3H32c-4 4.2-7.5 8.8-11.2 13.1v147.6A25.4 25.4 0 0 1 0 233.6V22.5A25.4 25.4 0 0 1 22.4 0M15 19v60h60V19H15m166 0v60h60V19h-60m-69.9 53.1c-.2 4.6-.2 9.2 0 13.8 3 .2 5.8.3 8.6-.1.2-4.5.2-9 0-13.6-2.8-.3-5.7-.3-8.6-.1m26.1 0c-.2 4.6-.2 9.2 0 13.8 2.5.2 5 .2 7.6 0 .2-4.6.2-9.2 0-13.7-2.6-.3-5-.3-7.6 0z"/><path fill="#3f66ba" d="M88 0h80v26H88V0z"/><g fill="#fff"><path d="M15 19h60v60H15V19m8.7 9.2v42.1H56l10.7.1c0-14-.1-28.1.1-42.2h-43zM181 19h60v60h-60V19m8.2 9.2c.2 14 0 28.2 0 42.2h43.2V28.1h-43.1z"/><path d="M46 33h14.5c0 4.6.1 9.3-.2 14H46V33zm149.5 0H210v14h-14.3c-.4-4.7-.1-9.4-.2-14z"/></g><path fill="#6b9bdb" d="M88 26h80c0 6.6.2 13.2-.2 19.8-3.3.2-6.5.4-9.8.3-23.3-.2-46.5.3-69.8-.2-.4-6.6-.2-13.3-.2-20z"/><path fill="#180e10" d="M23.7 28.2h43.1c-.2 14 0 28.1-.1 42.2-3.6-.1-7.1 0-10.7 0 .1-4.1 0-8.2-.2-12.3-8.5-.2-17-.2-25.6 0 0 4.2.1 8.6-2.2 12.2h-4.3V28.2M46 33v14h14.3c.4-4.7.1-9.4.2-14H46zm143.2-4.8h43v42.1H228c-2.3-3.7-2-8-2.2-12.2-8.5-.1-17-.3-25.6 0-.2 4-.3 8.2-.2 12.2l-10.7.1c0-14 .1-28.1-.1-42.2m6.3 4.8c0 4.6-.2 9.3.2 14H210V33h-14.5z"/><path fill="#231c1b" d="M30.2 58.2c8.5-.3 17-.3 25.6 0 .2 4 .3 8 .2 12.1H28c2.3-3.6 2.2-8 2.2-12.1zm170-.1c8.5-.3 17-.1 25.6 0 .1 4.2 0 8.5 2.2 12.2h-28c-.1-4 0-8.1.2-12.2z"/><path fill="#5d88c0" d="M111.1 72.1c2.9-.2 5.8-.2 8.6.1.2 4.5.2 9 0 13.6-2.8.4-5.7.3-8.5 0-.3-4.5-.3-9.1 0-13.7zm26.1 0c2.5-.2 5-.2 7.6 0 .2 4.7.2 9.2 0 13.8-2.5.2-5 .2-7.6 0-.2-4.6-.2-9.2 0-13.8z"/><g fill="#dee1ef"><path d="M20.8 108.1C24.5 103.8 28 99.2 32 95h191.8c3.5 3.7 6.6 7.6 10 11.3 1.2 1.3 1.6 3 1.5 4.7v144.8l-1 .2h-26.5V123H47.4v133H22.2l-1.4-.3V108.1z"/><path d="M66 142h123.3v114h-17.6v-94.8c-14.8-.3-29.8 0-44.7-.1-14.3 0-28.5-.2-42.8.2v63.4h48.4V204H102v-22h51.3v64H66V142z"/></g><path fill="#362629" d="M47.5 123h160.2c.2 44.3 0 88.7 0 133h-18.4V142H66v104h87.3v-64H102v22h30.6v20.7H84.3v-63.4c14.2-.4 28.5-.2 42.7-.3 15 .1 29.9-.2 44.8.3V256H47.4V123z"/></svg>