<svg xmlns="http://www.w3.org/2000/svg" viewBox="0 0 256 256"><path fill="#6593d0" d="M22.3 0h69.3c-2 8.7-.5 17.6-1 26.3L91 51c25 .3 50 .1 74.9 0 .3-8.1.2-16.4 0-24.6 0-8.8.2-17.6 0-26.4h67.8A25.5 25.5 0 0 1 256 22.3V119H22c-7.3 0-14.7-.2-22 .2V22.3A25.5 25.5 0 0 1 22.3 0M15 35c-.2 4.2-.4 8.4.7 12.4l-.8-.2v48.1h61.4c0-10.8.1-21.6-.1-32.5-.3-9.2 0-18.4-.3-27.7-20.3-.2-40.6-.1-60.9 0m165 0c0 9.2-.3 18.4 0 27.6v32.6h61.2V47.1l-2.4.8c3.6-3.3 2-8.6 2.1-12.8-20.3-.2-40.7-.1-61 0m-72 52a190 190 0 0 0 0 16h6.9c.2-5.4.2-10.7 0-16h-7m33.2 0c-.2 5.3-.2 10.7 0 16h6.8c.4-5.4.4-10.7 0-16H141z"/><path fill="#3f66ba" d="M91.6 0h74.2c.3 8.8 0 17.6.2 26.4-25.2 0-50.3.2-75.5 0 .5-8.8-.8-17.7 1-26.4z"/><path fill="#6b9bdb" d="M90.5 26.3c25.2.3 50.3.1 75.5.1 0 8.2.2 16.5-.1 24.7-25 0-50 .1-74.9-.1 0-8.2-.2-16.4-.5-24.7z"/><path fill="#5d88c0" d="M15.1 35c20.3 0 40.6-.1 61 .1.2 9.3-.1 18.5.2 27.7-4.3-.8-8.5-1.5-12.6-2.8l-.2-1.5-2.7-.9-1.5 2.5c-5-1.4-10.2-2.1-15-4.2-4.6-2.3-9.9-3.1-14.9-4.5-4.6-1.2-9-2.8-13.6-4-1-4-.9-8.2-.7-12.3zM180 35l61 .1c-.1 4.2 1.5 9.5-2 12.8-8.6 2.4-17 5.1-25.7 6.6h-.5l-.3 3.3-1.2-1.3-14.4 3.6a7.3 7.3 0 0 0-4.2-2.6l-.2 2.5c-4 1.3-8.2 2-12.4 2.7-.3-9.2 0-18.4 0-27.6zm-72 52h6.9c.2 5.4.2 10.7 0 16H108a190 190 0 0 1 0-16zm33.1.1h6.9c.3 5.3.3 10.6-.1 16h-6.7c-.3-5.3-.3-10.7-.1-16z"/><path fill="#fff" d="M15 47.2l.8.2c4.5 1.2 9 2.8 13.6 4 5 1.4 10.3 2.2 15 4.5l-1.7-.7c.5 8.8.2 17.6.3 26.4h18c0-7.3.2-14.6-.3-21.8.9-.8 2 0 3 .2 4 1.3 8.3 2 12.6 2.8.2 10.9 0 21.7 0 32.6H15V47.1zm198.3 7.3C222 53 230.4 50.3 239 48l2.4-.8v48.2H180c.2-10.8 0-21.7.1-32.6 4.2-.7 8.4-1.4 12.4-2.7l2.9-.8c-.7 7.5-.3 15-.4 22.4 6.2-.1 12.4 0 18.6 0 0-9 .4-18-.3-27z"/><path fill="#180e10" d="M212.8 54.6h.5c.7 9 .2 18 .3 27-6.2 0-12.4-.1-18.6 0 .1-7.4-.3-15 .4-22.4l-2.9.8.2-2.5c1.6.5 3.2 1.2 4.2 2.6l14.4-3.6 1.2 1.3.3-3.2zm-170.1.6l1.7.7c4.7 2 10 2.8 14.9 4.2l1.5-2.5 2.7 1 .2 1.4c-1-.2-2.1-1-3-.3.5 7.3.2 14.6.3 22-6-.2-12-.2-18 0-.1-8.9.2-17.7-.3-26.5z"/><g fill="#dee1ef"><path d="M0 119.2c7.3-.4 14.7-.2 22-.2h234v114.7a25.5 25.5 0 0 1-22.3 22.3h-5.2V135.7H29.3V256h-7A25.5 25.5 0 0 1 0 233.7V119.2z"/><path d="M55 159c49.4 0 98.9.1 148.3-.1.4 32.4 0 64.7.2 97.1H184v-79.6H73.5V244h66c-.2-8.2-.1-16.4 0-24.6-13.5.4-27 0-40.6.2v-18l59.4-.1V256H55v-97z"/></g><g fill="#362629"><path d="M29.3 256V135.6c66.4.1 132.8 0 199.2 0V256h-25c-.1-32.4.2-64.7-.2-97.1-49.4.2-98.9 0-148.3 0V256H29.3z"/><path d="M73.6 176.4H184c.2 26.5 0 53 0 79.6h-25.5v-54.5H99v18.1c13.5-.1 27 .3 40.6-.2-.1 8.2-.2 16.4 0 24.6h-66v-67.6z"/></g></svg>