<svg xmlns="http://www.w3.org/2000/svg" viewBox="0 0 256 256"><path fill="#f7dd4a" d="M17.5 0h221c9.4 3 16.6 11.6 17.5 21.4v211.1a25.3 25.3 0 0 1-10.6 18c-3 2.3-6.8 3.4-10.4 4.6l2.6.9H18.4l2.7-1A26.2 26.2 0 0 1 0 232.7v-211C1 11.5 8 3 17.5 0M26 88.3l-3 10.4c6.5 2.5 13.1 4.5 19.6 7 13.8 4.4 27.5 9.4 41.3 14V138h10v-26c-6.1-1.9-12.2-4.2-18.4-6.3l-26-9c-7.7-3-15.7-5.5-23.5-8.4m154.4 17.3a155.2 155.2 0 0 0-4.8 1.6c-4.7 2-9.5 3.5-14.3 5V138H172v-18.5l3.5-1c11.7-4.3 23.5-8 35.1-12.2l1.8-.5c6.7-2.3 13.3-4.7 20-6.9l-2.6-10.6-49.4 17.3M88.2 151c-3.6 3.5-8 6.3-11.2 10.2-1 10.8 0 21.8-.4 32.8.2 3.8-1 8.3 1.6 11.7 3.2 4.2 6.7 8.1 9.9 12.3h79.6c3.1-4.3 6.8-8.3 10-12.5 1.6-2.2 1.3-5 1.4-7.5-.2-12.2 0-24.5-.1-36.7-3.9-3.1-7.1-7-11.3-9.8-3.1-.9-6.4-.5-9.6-.5H88.3z"/><path fill="#524e3c" d="M26 88.3c7.8 3 15.8 5.4 23.6 8.4l26 9c6 2.1 12.2 4.4 18.4 6.4V138H83.9v-18.3c-13.8-4.6-27.5-9.6-41.3-14-6.5-2.5-13-4.5-19.6-7l3-10.4zm154.4 17.3l49.4-17.3c.8 3.6 1.7 7.1 2.7 10.6-6.8 2.2-13.4 4.6-20.1 6.9a6 6 0 0 0-1.8.5c-11.6 4.2-23.4 8-35 12.1l-3.6 1V138h-10.7v-25.7a227.6 227.6 0 0 0 16.1-5.5l3-1.2z"/><path fill="#f4e4b5" d="M88.3 151H158c3.2 0 6.5-.4 9.6.5 4.2 2.8 7.4 6.7 11.3 9.8V198c0 2.5.3 5.3-1.3 7.5-3.3 4.2-6.9 8.2-10 12.5H88.1c-3.2-4.2-6.7-8.1-9.9-12.3-2.5-3.4-1.4-7.9-1.6-11.8.4-10.9-.6-21.9.4-32.8 3.3-3.8 7.6-6.6 11.3-10M112 189l.1 14.7 6.9-.4-.1-14.2-6.9-.1m25 .1v14.1l6 .6c.2-5 .3-10 0-14.8l-6 .1z"/><path fill="#dec584" d="M112 189l6.9.1v14.2l-6.8.4V189z"/><path fill="#dec784" d="M137 189.1l6-.1c.3 4.9.2 9.8 0 14.8l-6-.6v-14z"/></svg>