<svg xmlns="http://www.w3.org/2000/svg" viewBox="0 0 256 256"><path fill="#f1d947" d="M22.2 0h211.5A25.5 25.5 0 0 1 256 22.3v126.2c-6.6.8-13.3.4-20 .5h-59v29h77l2 2v53.7a25.5 25.5 0 0 1-22.2 22.3H226v-52h-49v23c.8 6-5 9.4-7.8 14-1.3 2.3-3.7 3-6.2 2.8-20.7-.2-41.3 0-62-.1-3.8 0-7.7.3-11.6-.2-2.3-1.6-3.8-4.2-5.6-6.3-2-2.8-5.3-5.4-4.8-9.2v-24H30v52h-7.7A25.5 25.5 0 0 1 0 233.7v-55.9c26.3.5 52.7 0 79 .2v-29H7a49 49 0 0 1-7-.8V22.3A25.6 25.6 0 0 1 22.2 0m105.2 10.2c-3.4 5.5-7 11-10.2 16.7-1.4 2-2.5 4.7-5.1 5.3-6 1.8-12.3 3-18.4 4.8 5.1 5.4 10.3 10.6 15.2 16.2.2 7.3-.7 14.6-1.4 22 7-3.8 13.5-8.4 20.5-12.3 6.7 4 13.2 8.3 20 12 .3-7.2-1.7-14.4-.7-21.6 4-6.3 10.3-10.6 15-16.3-6.6-2-13.4-3.2-20-5.4-3-3-4.7-7.1-7.2-10.7-2.4-3.4-4.3-7.1-6.5-10.7h-1.2m-110.3 23c0 5.6-.4 11.2.6 16.7l-.6-.4V104H101c0 28-.2 56 0 84 3.6.2 7.2.2 10.7 0 .2-21.4 0-42.7.1-64 0-5-1-9.9-1-14.9 0-3.9.5-7.8-.2-11.7C95.5 86 79.4 76.1 64.1 65 53.3 57.7 42.6 50.5 32 43a132 132 0 0 0-14.9-9.8m186.1 24c-17.6 12.4-35.6 24.3-53.4 36.6-2 1.7-5.4 3-4.9 6.2 0 29.3 0 58.6.2 88 3.2 0 6.5 0 9.7-.2.2-28 0-56 0-84 28 .2 56.1 0 84.1.1V49.4l-.7.5c1.1-5.6.7-11.3.6-16.9-12.3 7.4-23.4 16.5-35.6 24.1m-100.9 153v13.8h7.6V210l-7.6.1m43.8-.1c-.2 4.6-.2 9.3 0 14l7.6-.1V210l-7.6-.1z"/><path fill="#efb39c" d="M127.4 10.2h1.2c2.2 3.6 4.1 7.3 6.5 10.7 2.5 3.6 4.2 7.7 7.3 10.7 6.5 2.2 13.3 3.4 19.9 5.4-4.7 5.7-11 10-15 16.3-1 7.2 1 14.4.7 21.7-6.8-3.8-13.3-8.2-20-12-7 3.8-13.4 8.5-20.5 12.2.7-7.4 1.6-14.7 1.4-22A384 384 0 0 0 93.7 37c6-1.8 12.3-3 18.4-4.8 2.6-.6 3.7-3.3 5-5.3 3.3-5.7 6.9-11.2 10.3-16.8z"/><path fill="#e7cd3c" d="M17.1 33.2c5.1 3 10.2 6 14.9 9.8 10.6 7.5 21.3 14.7 32 22 15.4 11 31.5 21 46.6 32.3.7 3.9.2 7.8.2 11.7 0 5 1 10 1 15v63.8c-3.6.3-7.2.3-10.7.1-.3-28 0-56-.1-84-8.4-6.7-18.4-11.2-26.6-18.2l-1-1a35.6 35.6 0 0 1-12.6-7.8l-1.7-.8C45 68 31.6 58.5 17.7 50c-1-5.5-.6-11.1-.6-16.7zm186.1 23.9c12.2-7.6 23.3-16.7 35.6-24 .1 5.5.5 11.2-.6 16.8-13.6 8.5-27 17.3-40.4 26l-3.5.3c0 .5-.4 1.4-.5 1.9-3 3-7.2 4.6-10.9 6.8l-1.2 1c-8.5 6.6-18.3 11.4-26.8 18v84c-3.3.1-6.6.2-9.8 0-.3-29.3-.1-58.6-.2-88-.5-3.1 3-4.4 5-6.1 17.7-12.3 35.7-24.2 53.3-36.6z"/><path fill="#fff" d="M17 49.5l.7.4c14 8.6 27.3 18 41.4 26.2l1 .8V97H71c0-4.1.1-8.2-.2-12.3l2.7.3 1 .7c8 7 18 11.5 26.5 18.2H17V49.5zM197.8 76c13.5-8.8 26.8-17.6 40.4-26.1l.7-.5v54.5h-84c8.5-6.6 18.3-11.4 26.8-18L185 84v13h11c-.3-6.9.6-13.9-.5-20.7l-1.7 1.8.5-2c1.2 0 2.4 0 3.5-.2z"/><path fill="#42413f" d="M59 76.1l1.8.8c3.5 3.6 8 6 12.5 7.8l1.1 1-1-.7-2.6-.3c.3 4 .2 8.2.2 12.3H60V76.9l-1-.8zm136.5.2c1.1 6.8.2 13.8.5 20.7h-11V84l-3.3 1.8c.3-.2 1-.6 1.2-.9 3.7-2.2 7.8-3.8 11-6.8l1.6-1.8z"/><path fill="#7e6a65" d="M0 148.2c2.3.4 4.7.8 7 .8h72v29c-26.3-.1-52.7.3-79-.2v-29.6zm177 .8h59c6.7 0 13.4.3 20-.5v31.6l-2-2-77-.1v-29zM30 204h49v24c-.5 3.8 2.7 6.4 4.8 9.2 1.8 2 3.3 4.7 5.6 6.3 3.9.5 7.8.1 11.6.2h62c2.5.4 5-.4 6.2-2.8 2.8-4.5 8.6-8 7.8-14V204h49v52H30v-52z"/><path fill="#d6c342" d="M102.3 210.1l7.7-.1v14l-7.8-.1.1-13.8zm43.7-.1h7.7v14h-7.6c-.2-4.6-.2-9.3 0-14z"/></svg>