<svg xmlns="http://www.w3.org/2000/svg" viewBox="0 0 256 256"><path fill="#f4dd44" d="M22.5 0h210.8A25.3 25.3 0 0 1 256 22.5V132h-78v60h23v27.7l-.1 3.7c-7.6-.8-15.2-.3-22.8-.4-.4 2.8.8 6.4-1.4 8.6-2.4 2.8-5 5.4-7 8.4h-83c-2.4-2.9-5-5.5-7.2-8.4-2-2.4-1.4-5.7-1.6-8.6-7.6.1-15.2-.3-22.8.4v-3.7L55 192h23v-60H0V22.7A25.4 25.4 0 0 1 22.5 0m-2.3 34a164 164 0 0 0-.2 14c.4 15 0 30 .2 44.8 26.2 0 52.4.3 78.6-.1v-.4l1.1.7c-.2 24.7 0 49.3 0 74-.2 4.3-.1 8.6.2 13 3.6.1 7.2.1 10.8-.1.5-30.3 0-60.7.2-91-.2-1.5.5-3.8-1.3-4.6-7-4.4-14.5-8.2-21.7-12.4C74 64.2 60.1 55.5 45.7 48c-8.3-5-16.6-10-25.5-14.1m197.5 9.7c-12.2 7.4-24.9 13.7-37 21-6 3.7-12.5 6.7-18.3 10.6-5.3 3.4-11.7 5.2-16.2 9.7-.5 3.3-.3 6.7-.3 10 .2 28.3 0 56.6.2 84.9 3.3.2 6.6.2 9.9 0 .5-29-.1-58 .3-87.1l.4-.2c3.7.4 7.5.3 11.3.3h67.8c.2-15-.2-30 .2-44.8 0-4.8 0-9.5-.2-14.2-6.3 2.7-12 6.8-18.1 9.8M101 206c-.2 5-.2 10 0 15h8.8v-15H101m45 0v15h8.8c.2-5 .2-10 0-15H146z"/><path fill="#e7d142" d="M20.2 34c8.9 4 17.2 9 25.5 14.1C60.2 55.5 74 64.1 88.1 72c7.2 4.2 14.6 8 21.7 12.4 1.8.8 1 3 1.3 4.6-.3 30.3.3 60.7-.2 91-3.6.2-7.2.2-10.8 0a159 159 0 0 1-.3-12.9c0-24.7-.1-49.3.1-74l-1.2-.7c-8.5-4.9-17.2-9.7-25.8-14.5l-.2 2.9-.7-3.5c-5-2.9-10.2-5.4-14.7-9-2.7-1-5.4-2.2-7.9-3.7C39.7 59 30 53.3 20 48.1c-.1-4.7 0-9.4.2-14.1zm197.5 9.7c6.2-3 11.8-7 18.1-9.8.2 4.7.3 9.4.2 14.2-8.6 4.6-17 9.4-25.5 14.2-3.8 2.2-7.6 4.5-11.8 6-4.5 3.5-9.7 6.1-14.7 9l-.7 3.4-.2-3-26.4 14.9-.4.2c-.4 29 .2 58-.3 87.1-3.3.2-6.6.2-10 0-.2-28.3.1-56.6 0-85 0-3.3-.3-6.6.2-10 4.5-4.4 10.9-6.3 16.2-9.6 5.8-4 12.3-6.9 18.2-10.6 12.2-7.3 25-13.6 37-21z"/><path fill="#fff" d="M20 48c10 5.3 19.7 11 29.4 16.5 2.5 1.5 5.2 2.7 7.9 3.8.8 1 2.3 2 2 3.7.2 5.2 0 10.5 0 15.7h13.4v-7l.2-3 25.8 14.6.1.4c-26.2.4-52.4 0-78.6.1C20 78 20.4 63 20 48.1zm190.5 14.3c8.5-4.8 17-9.6 25.5-14.2-.3 14.9 0 29.8-.2 44.7H168a97 97 0 0 1-11.3-.2c8.8-4.9 17.6-10 26.4-14.8l.2 3v7h13.3v-17c.6-1 1.4-1.7 2.1-2.5 4.2-1.5 8-3.8 11.8-6z"/><path fill="#3f3f3f" d="M57.3 68.3c4.5 3.5 9.7 6 14.7 8.9l.7 3.5v7H59.4V72c.2-1.7-1.3-2.6-2.1-3.7zm126.7 9c5-2.9 10.2-5.5 14.7-9-.7.8-1.5 1.6-2 2.6-.2 5.6 0 11.2 0 16.8h-13.4v-7l.7-3.4z"/><path fill="#7e6a65" d="M0 132h78v60H55v-24.5L42.6 155H0v-23zm178 0h78v23h-42.6c-3 3.2-6.1 6.2-9.2 9.3-1.4 1.5-3.2 3.2-3.1 5.5-.3 7.4 0 14.8-.1 22.2h-23v-60zM55 219.7l.1 3.7c7.6-.8 15.2-.3 22.8-.4.2 2.9-.5 6.2 1.6 8.6 2.2 3 4.8 5.5 7.1 8.4h83c2.2-3 4.7-5.6 7-8.4 2.3-2.2 1.1-5.8 1.5-8.6 7.6.1 15.2-.3 22.8.4v-3.7l.1 36.3H55v-36.3z"/><path fill="#d6d7cb" d="M0 155h42.6L55 167.6V256H22.7A25.3 25.3 0 0 1 0 233.5v-21.6l18.9-.1c.3-14.6.3-29.1 0-43.7-6.3-.3-12.6-.2-18.9-.2v-12.8zm213.4 0H256v13c-6.3 0-12.6-.2-19 .1a1010 1010 0 0 0 .2 43.7H256v21.5a25.4 25.4 0 0 1-22.5 22.7H201v-64c0-7.4-.2-14.8 0-22.2 0-2.3 1.8-4 3.2-5.6l9.2-9.1z"/><path fill="#e1e1d3" d="M0 168c6.3-.1 12.6-.2 18.9.1.3 14.6.3 29.1 0 43.7l-18.9.1v-44zm237 .1c6.4-.3 12.7-.2 19 0v43.6c-6.3.2-12.6.2-18.8.1a1010 1010 0 0 1-.1-43.7z"/><path fill="#e1cb3f" d="M101 206h9l-.1 15H101v-15zm45 0h9v15h-9v-15z"/></svg>