<svg xmlns="http://www.w3.org/2000/svg" viewBox="0 0 256 256"><path fill="#b5cdd6" d="M22.6 0H63v43c10.2 0 20.4.1 30.6-.2 0-14.2-.2-28.5 0-42.8h19.5c-.3 14.3-.2 28.6 0 43h29.7c.2-14.4-.1-28.7.2-43h19.3v42.8c10.1.3 20.3.2 30.5.1.2-14.3 0-28.6.1-42.9h40.3A25.4 25.4 0 0 1 256 22.4v211c-1 11.7-11 21.6-22.6 22.6H22.8A25.4 25.4 0 0 1 0 233.6v-211C1 10.9 11 1 22.6 0M22 51v91h58V51H22m154 0v91h58V51h-58m-64 89v13.3h7V140h-7m24.3 0c-.1 4.4-.2 8.8 0 13.1 2.4.2 5 .1 7.5.1V140h-7.5M42 166v64.2h172V166H42z"/><path fill="#d6cdc3" d="M63.1 0h30.6c-.2 14.3 0 28.6 0 42.8-10.2.3-20.4.2-30.6.1V0zm50.1 0H143c-.3 14.3 0 28.6-.2 43H113c0-14.4-.2-28.7 0-43zm49.2 0H193v43c-10.3 0-20.5 0-30.7-.2V0z"/><path fill="#fff" d="M22 51h58v11H40v80H22V51zm154 0h58v91h-18V62h-40V51z"/><path fill="#d36e6b" d="M40 62h40v58.7l-9 .8V80H53v41.5c-4.3-.5-8.6-.7-13-.6V62zm136 0h40v58.9a89 89 0 0 0-13 .6V80h-18v41.5l-9-.8V62z"/><path fill="#392523" d="M53 80h18v47H53V80zm132 0h18v47h-18V80z"/><path fill="#e47775" d="M40 120.9c4.4-.1 8.7 0 13 .6v5.5h18v-5.5l9-.8V142H40v-21.1zm136-.2l9 .8v5.5h18v-5.5a89 89 0 0 1 13-.6V142h-40v-21.3z"/><path fill="#9caeb5" d="M112 140h7v13.3h-7V140zm24.3 0h7.4c.2 4.4.2 8.8 0 13.2h-7.5V140z"/><path fill="#998c94" d="M42 166h172v64.2h-21v-28.6H62v28.5c-6.7.2-13.3 0-20 0v-64z"/><path fill="#dbaec3" d="M62 201.6h131v28.6H62v-28.6z"/></svg>