<svg xmlns="http://www.w3.org/2000/svg" viewBox="0 0 256 257"><path fill="#babbd6" d="M22.5 0h39.8v87.8c7.2.3 14.3.4 21.3 0V13c.1-4.3-.2-8.7.4-13h32c0 29.3-.1 58.6.1 87.9 8.2.2 16.5.2 24.7 0 .2-29.3-.3-58.6.2-87.9h31.4v87.8c7 .3 14.2.3 21.2 0V12c.1-4-.1-8 .4-11.9h39.3A25.3 25.3 0 0 1 256 22.5v211a25 25 0 0 1-19.9 22l.6 1.5H19.4l.5-1.5a25.1 25.1 0 0 1-19.9-22V22.6A25.4 25.4 0 0 1 22.5 0M18 69.8V122h64.4c-3.3-3.3-7.4-5.8-10.6-9-.3-1.2-1.7-1-2.6-1.6-4.6-4.3-9.5-8.1-14.5-11.8v-.4c-5.1-3.5-9.5-8-14.7-11.4V87L18 69.8m198 17.3v.6c-4.8 4-9.7 7.7-14.5 11.6-4.6 4.3-10 7.7-14.7 12-4.5 3.2-8.6 7-13 10.4 14.1.6 28.2.2 42.2.3h22c.1-17.4-.1-34.8 0-52.3-7.2 6-14.6 11.6-22 17.4m-103.7 74.3c-.5 5.1-.3 10.3-.2 15.5h7.8c.1-5.2.3-10.4-.2-15.5h-7.4m24 0c-.5 5.1-.3 10.3-.2 15.5h7.8c.1-5.2.3-10.4-.2-15.5h-7.4M15.3 184c0 15.2-.2 30.4 0 45.6h12.6c6 .9 12.2.2 18.3.5l.8-.6c3.6.2 7.3.1 11 0 46.7.2 93.4.2 140.2 0 3.6.1 7.2.3 10.8 0l.8.6c6-.3 12.3.3 18.3-.4h12.7V184a3667.7 3667.7 0 0 0-54.8 0 44853.4 44853.4 0 0 0-170.8 0z"/><path fill="#a7a3a5" d="M62.3 0H84c-.6 4.3-.3 8.7-.3 13v74.8c-7.1.4-14.3.3-21.3 0-.2-29.2 0-58.5 0-87.8zM116 0h25c-.4 29.3 0 58.6-.2 87.8-8.3.3-16.5.3-24.7.1-.2-29.3 0-58.6-.1-87.9zm56.4 0H194c-.5 4-.3 8-.3 12v75.8c-7.1.3-14.3.3-21.3 0V0z"/><path fill="#fff" d="M18 69.8l22 17.3V122H18V69.8zM216 87c7.4-5.7 14.8-11.3 22-17.3-.1 17.5.1 34.9 0 52.3h-22V87zM50 184h20v16.3H50V184zm136 0h20v16.3h-20V184zM28 209h19v20.5l-.8.6c-6-.3-12.3.4-18.3-.4.2-6.9 0-13.8.1-20.7zm181 0h19v20.7c-6 .8-12.2 0-18.2.4l-.8-.6V209z"/><path fill="#914b57" d="M40 87.8c5.2 3.4 9.6 7.9 14.7 11.4v.4c-.7 5.4-.1 10.9-.3 16.3-4.8-1-9.6-.9-14.4-.8V87.8zm161.5 11.5c4.8-3.9 9.8-7.7 14.5-11.6V115c-4.8 0-9.6-.2-14.3.8-.2-5.6 0-11.1-.2-16.6z"/><path fill="#29161b" d="M54.4 115.9c.2-5.4-.4-10.9.3-16.3 5 3.7 9.9 7.6 14.5 11.8 0 2.3 0 4.6-.3 7-4.8 0-9.6-.2-14.4.1l-.1-2.6zm132.4-4.5c4.8-4.4 10-7.8 14.7-12.1.3 5.5 0 11 .2 16.6l-.2 2.6c-4.8-.3-9.6 0-14.4-.2-.2-2.3-.2-4.6-.3-7z"/><path fill="#aa5763" d="M69.2 111.4c.9.5 2.3.4 2.6 1.5 3.2 3.3 7.3 5.8 10.6 9.1H40v-7c4.8 0 9.6-.2 14.4.9l.1 2.6c4.8-.3 9.6 0 14.5-.2l.2-6.9z"/><path fill="#aa5963" d="M173.9 121.7c4.3-3.4 8.4-7.2 12.9-10.3.1 2.3 0 4.6.3 6.9 4.8.2 9.6-.1 14.4.2l.2-2.6c4.7-1 9.5-.9 14.3-.8v6.9c-14-.1-28.1.3-42.1-.3z"/><path fill="#999bb2" d="M112.3 161.4h7.5c.4 5.1.2 10.3.1 15.5h-7.8c-.1-5.2-.3-10.4.2-15.5zm24 0h7.4c.5 5.1.3 10.3.2 15.5h-7.8c-.1-5.2-.3-10.4.2-15.5z"/><path fill="#81435d" d="M15.2 184H50v16.3h20V184h116v16.3h20V184h34.8v45.6H228V209h-19v20.5c-3.6.3-7.2.1-10.8 0 0-6.6.6-13.6-.3-20-46.6-.2-93.2-.1-139.8-.1-.3 6.7 0 13.4-.2 20.2H47V209H28v20.7c-4.3-.1-8.5 0-12.8 0V184z"/><path fill="#998094" d="M58.1 209.4H198c1 6.5.2 13.5.3 20.2H57.9c.3-6.8-.1-13.5.2-20.2z"/></svg>