<svg xmlns="http://www.w3.org/2000/svg" viewBox="0 0 257 257"><path fill="#7c756b" d="M19.1 0h3.1c.9 1.6-1.6 2.7-2.8 1.9L19.1 0zm214.5 0h3.3l.3 2c-1.5.6-3.2-.4-3.6-2z" opacity=".7"/><path fill="#b7ab9c" d="M22.2 0h13.6l2 1.1c.7 7.3 0 14.7.3 22 0 1 .4 1.9 1.1 2.6 18.2 21.5 36 43.3 54.1 64.9 5 6.3 10.6 12.2 15.1 18.9-6.9 0-13.7.2-20.6-.2C83 103.5 78 97.8 73 92.2l-8-9.5c-4.1-4.5-8-9.3-12-14l-8-9C38 51 30.4 42.8 23.5 34.2 20.8 30.8 16.9 28 15 24c-.5-7 .5-14-.6-20.8 1.6-.5 3.2-1.7 5-1.3 1.1.8 3.6-.3 2.7-1.9zm90.1 0h31.4a10 10 0 0 0-1 5c0 34.8-.2 69.6 0 104.5H113V6c0-2-.2-4-.6-6zm104 0h17.3c.4 1.6 2 2.6 3.6 2a7 7 0 0 1 3.2.8c-.2 7.4.3 14.8-.2 22.1-2 3.6-5.3 6.2-7.7 9.4-7 8.6-14.6 16.7-21.5 25.3l-8 9c-3.8 4.8-8 9.4-12 14.1-2.6 3.3-5.7 6.1-8 9.5-5.3 5.5-10 11.4-14.9 17.2-6.8.2-13.7 0-20.5 0 1.4-2.7 3.4-5 5.4-7.4 6.6-7.4 12.8-15.3 19.1-22.9 12.1-14.5 24.4-29 36.3-43.7 2.8-3.5 6.2-6.6 8.5-10.5.3-4.6 0-9.2.1-13.9 0-3.7.5-7.5-.7-11z"/><path fill="#aabacb" d="M35.8 0h76.5c.5 2 .7 4 .6 6v103.5h-4.5c-4.5-6.7-10-12.6-15-19-18.2-21.5-36-43.3-54.2-64.8a3.7 3.7 0 0 1-1-2.6c-.4-7.3.3-14.7-.3-22l-2-1.1zm107.9 0h72.6c1.2 3.5.7 7.3.7 11-.1 4.7.3 9.3-.1 14-2.3 3.8-5.7 6.9-8.5 10.4-12 14.7-24.2 29.2-36.3 43.7-6.3 7.7-12.5 15.5-19 22.9-2 2.3-4.1 4.7-5.5 7.5h-4.8c-.3-34.9 0-69.7-.2-104.5 0-1.7.3-3.4 1.1-5zm96.7 2.8c7.6 3 13.6 10 15 18l1.6-.4V110c-7.8-1.2-16 0-23.8-.7.2-23.4 0-46.9 0-70.4a9 9 0 0 0-.7-4.6c2.4-3.2 5.7-5.8 7.7-9.4.6-7.3 0-14.7.2-22.1zM0 23.6C.8 14.8 6.5 6.8 14.5 3.2c1.1 6.9.1 13.9.6 20.8 1.8 4 5.7 6.8 8.4 10.3-.7 1.5-.9 3-.8 4.7l.1 70.3c-7.6.4-15.2.1-22.8.2v-86z"/><path fill="#fff" d="M22.7 39c0-1.6.1-3.3.8-4.7C30.4 42.9 38 51 45 59.6v49.8H22.7c-.2-23.5 0-47 0-70.4zm209.8-4.7c.8 1.4.8 3 .8 4.6l-.1 70.4-22.1.1c-.2-4.1 0-8.2-.1-12.4V59.6c7-8.6 14.6-16.7 21.5-25.3zM73 92.2c5 5.6 10 11.3 14.8 17.1l-14.7.1c-.2-4.2 0-8.4-.1-12.5v-4.7zm95.1 17.2c5-5.8 9.7-11.7 14.8-17.2l.1 4.8v12.4h-15z"/><path fill="#a56e5d" d="M45 59.6c2.6 3 5.2 6.1 8 9v28.2l-8 .2V59.6zm158 9l8-9V97a163 163 0 0 0-8-.2V68.6z"/><path fill="#473029" d="M53 68.6c4 4.8 7.9 9.6 12 14.1V101H53V68.7zm138 14.1c4-4.7 8.2-9.3 12-14.1v32.3h-12V82.7z"/><path fill="#a56e5a" d="M65 82.7l8 9.5v4.7h-8V82.7zm118 9.5c2.3-3.4 5.4-6.2 8-9.5V97h-8v-4.7z"/><path fill="#b77b68" d="M45 97l8-.2v4.2h12v-4c2.7-.2 5.3-.2 8-.1v12.5c-9.3.2-18.7.1-28 0V97zm138 0c2.7-.2 5.3-.1 8-.1v4h12v-4l8 .1v12.4c-9.3.1-18.7.2-28 0V96.9z"/><path fill="#f4ecba" d="M22.8 109.3l22.1.1c9.4.1 18.8.2 28.2 0h14.7c6.9.3 13.7 0 20.6 0h4.5a2128.6 2128.6 0 0 0 34.7 0c6.8 0 13.7.2 20.5 0h14.8c9.4.2 18.8.1 28.2 0h22c8 .6 16-.6 23.9.6v44.3h-88.7c-3.2 2.6-5 6.4-8.4 9H96c-3.2-2.6-5.5-6.1-8.4-9H2l-2-.3v-44.5c7.6 0 15.2.2 22.8-.2zM0 210h257v29.2l-1-4a25.5 25.5 0 0 1-22.5 21.8H22.7A25.3 25.3 0 0 1 0 234.5V210z"/><path fill="#967984" d="M0 154l2 .3h85.7c2.9 2.9 5.2 6.4 8.4 9H160c3.3-2.6 5.2-6.4 8.4-9H257v55.8c-9-.2-18 0-27.1-.1.2-7.7.1-15.3 0-23H26.1a486 486 0 0 0 0 23H0v-56z"/><path fill="#c69fad" d="M26 187h204l-.1 23H26a486 486 0 0 1 0-23z"/></svg>