<svg xmlns="http://www.w3.org/2000/svg" viewBox="0 0 256 256"><path fill="#eceb5d" d="M18.5 0h221c7.7 2.4 14 8.7 16.5 16.4v148.7L5 165c-1.7.3-4.6-.8-5 1.7V20.8l.6-3.1.8 1.3A25.3 25.3 0 0 1 18.6 0m37.9 51.4l-.3 4-.1-3.6h-6.8a1782.4 1782.4 0 0 1 .2 36.6c9-.2 18 0 26.9-.1V51.8l-3-.1c-5.5-.6-11.3.7-17-.3m145.2 3.8c.5-1.6-.7-2.8-1.8-3.8-3.8.4-7.6.6-11.4 0l-.2 4-.1-3.6h-6.2v36.5H209V51.8l-4-.1-3-1.4-.6 4.9z"/><path fill="#fcfbfc" d="M56.4 51.4c5.6 1 11.4-.3 17 .3h-2.5v13H56a156.7 156.7 0 0 1 .4-13.3zm145.1 3.8l.7-4.9 3 1.4-2.7-.2c-.1 4.3-.2 8.7 0 13-4.8.2-9.6.1-14.5.1l.1-9.2.2-4c3.8.6 7.6.4 11.4 0 1 1 2.3 2.2 1.8 3.8z"/><path fill="#2e2a29" d="M49.3 51.8H56l.1 3.6-.1 9.2h15l-.1-13h2.4l3 .2V82c-9-.5-18-.3-27 0V51.8zm132.5 0h6.2l.1 3.6v9.2h14.5c-.3-4.4-.2-8.8 0-13.1l2.6.2 3.8.2v29.9c-9 0-18.2-.4-27.2.2V51.8z"/><path fill="#575757" d="M49.3 82c9-.3 18-.5 27 0v6.3c-9 .2-18 0-27 .1V82zm132.5 0c9-.6 18.2-.2 27.3-.3v6.6c-9.2 0-18.3.1-27.4 0V82z"/><path fill="#dbb8b5" d="M0 166.7c.4-2.5 3.3-1.4 5-1.7h251v15c-80.7.2-161.3 0-242 0-4.7.2-9.3.2-14-.5v-12.7z"/><path fill="#d0b0ad" d="M0 179.4c4.7.7 9.3.7 14 .5 80.7 0 161.3.2 242 0v57.6a26.5 26.5 0 0 1-19.8 17.5l2.1 1H222c.2-15 0-30 .1-45H36.6v45H20.2l.8-1.4c-10-2-17.8-10.3-20-20.2l-1 1.8v-56.8z"/><path fill="#292621" d="M36.5 211H222c0 15 .1 30-.1 45H36.6v-45z"/></svg>