<svg xmlns="http://www.w3.org/2000/svg" viewBox="0 0 256 256"><path fill="#eceb5d" d="M22.7 0H233c11.8.7 22 10.8 23 22.6V158H0V22.8C.8 11 11 .8 22.7 0M72 9v36.7l37.6-.1c.2-12.2 0-24.4 0-36.6H72M21.4 65.5v72.1H94V65.5H21.3m140.7 0v72.3c24.2-.2 48.4-.2 72.6 0V65.4H162z"/><path fill="#a5ae3f" d="M72 9h37.7l-.1 36.6H72V9z"/><path fill="#f9fdf9" d="M21.4 65.5H94v72.2c-24.2-.2-48.4-.2-72.6 0V65.4M37.7 81c-.1 13.7 0 27.3 0 41H78V81H37.6zM162 65.4h72.7l-.1 72.2H162V65.5M178 81v41h41.1c0-13.7.1-27.3 0-41H178z"/><path fill="#393939" d="M37.6 81H78v41H37.6V81zM178 81h41c.2 13.7 0 27.3.1 41H178V81z"/><path fill="#dbb8b5" d="M0 158h256v23H0v-23z"/><path fill="#d0b0ad" d="M0 181h256v52.3a25.3 25.3 0 0 1-22.7 22.7h-1.5c0-11.8-.1-23.5.1-35.3H24.1c.2 11.8 0 23.5.1 35.3H23a25.3 25.3 0 0 1-23-22.6V181z"/><path fill="#292621" d="M24 220.7h208c-.3 11.8-.1 23.5-.2 35.3H24.2c-.1-11.8.1-23.5-.1-35.3z"/></svg>