<svg xmlns="http://www.w3.org/2000/svg" viewBox="0 0 256 256"><path fill="#8cc984" d="M22.5 0h97.2c-1.2 9-.5 18-.6 26.9 5.6.2 11.3.2 17 0 .2-9 0-18 0-26.9h97.3A25.4 25.4 0 0 1 256 22.4v16.8H19c-6.3 0-12.7 0-19-.2V22.5C1 11 11 1 22.5 0z"/><path fill="#78af73" d="M119.7 0H136c.1 9 .3 18 0 26.9-5.6.2-11.3.2-16.9 0 0-9-.6-18 .6-26.9z"/><path fill="#7eb375" d="M0 39c6.3.2 12.7.2 19 .2h237V69H0V39z"/><path fill="#d6b6b2" d="M0 69h11v35h234V69h11v48c-85.3 0-170.7.2-256 0V69z"/><path fill="#292621" d="M11 69h234v35h-37V87h-29v17H76.2c.2-5.7.1-11.3.1-17H48v17H11V69z"/><path fill="#f9fdf9" d="M48 87h28.3v17H48V87zm131 0h29v17h-29V87zM25.4 170.6c10.5.2 21 .2 31.6 0V192h9v-21.3h34V209c-24.9.1-49.8.2-74.7 0l.1-38.4zm130.6.2l33-.1V192h9v-21.3c10.9 0 21.7.1 32.6-.1v38.3c-24.8.3-49.7.2-74.6.1v-38.3z"/><path fill="#d0b0ad" d="M0 117c85.3.2 170.7 0 256 0v53.8c-8.5-.1-17 .1-25.4-.3-10.9.3-21.7.3-32.6.2H57c-10.5 0-21 .1-31.6-.1-8.4.3-17 .1-25.4.1V117z"/><path fill="#efef65" d="M0 170.7c8.5 0 17 .2 25.4-.1v38.3c24.8.3 49.7.2 74.6.1v-23h56v23c24.9.1 49.8.2 74.7 0l-.1-38.4c8.5.3 17 0 25.4.2v62.6c-1 11.7-11 21.6-22.6 22.6H22.8A25.4 25.4 0 0 1 0 233.6v-62.9z"/><path fill="#393939" d="M57 170.6h9V192h-9v-21.4zm132 .1h9V192h-9v-21.3z"/><path fill="#4c4d21" d="M100 170.8h56V186h-56v-15.2z"/></svg>