<svg xmlns="http://www.w3.org/2000/svg" viewBox="0 0 256 256"><path fill="#54a4d0" d="M17.5 0h221c9.4 3 16.5 11.6 17.5 21.4v159.7c-26.3-.2-52.7.2-79-.2-.3-14.3 0-28.7 0-43.1h-9.8c-.3 12.7-.1 25.4 0 38.2-.1 2.4 0 5.3-2 7.1-7.6 8.7-15.9 16.8-23.3 25.7-2.6 2.5-5 6.1-8.9 6.2-4.5.2-9.1.5-13.6-.5-2.6-1.6-4.3-4.3-6.4-6.6-6.3-7-12.6-14-19-20.8-2.3-2.6-5.3-5.3-5.1-9-.1-13.5.2-26.9 0-40.3H79c-.2 14.4.2 28.8-.1 43.1-26.4.3-52.7.1-79 .1V21.6C1 11.6 8 3 17.5 0M86 24.3v81.3l9.3 8.3c21.8.2 43.6.1 65.4 0 2.4-2 4.6-4.2 7-6.1a5.5 5.5 0 0 0 2.3-4.8V24.4c-3-2.8-6.2-5.7-9.1-8.7H95c-3 3-6 5.9-9.1 8.6zM0 189c5.3-.2 10.6 0 15.9 0-.1 11.7.4 23.3 1.1 34.9 35.3.2 70.6-.1 106 .1.3 10.7-.3 21.4.4 32H19l1.4-1.1A26 26 0 0 1 0 232.6V189zm240.2 0c5.2 0 10.5-.2 15.8 0v43.5a26 26 0 0 1-20.2 22.3l1.3 1.2H131.9c.3-10.6-.1-21.3.2-32 35.7-.3 71.3 0 107 0 .7-11.7-.8-23.4 1-35z"/><path fill="#c6517b" d="M86 24.3a213 213 0 0 0 9.1-8.6H161c3 3 6 5.9 9.2 8.7-.2 26.2 0 52.4-.1 78.6.2 2-.8 3.6-2.3 4.8l-7 6.1c-21.8.1-43.6.2-65.4 0l-9.3-8.3V24.3m13.4-4.2c-2.6 2.9-5.8 5-8.1 8-.5 2.6-.3 5.3-.3 7.9v65.8c3.2 2.5 6.2 5 9 7.7 17.7.2 35.4 0 53 .1 1-.2 2.8.4 3-.8 3.1-2.2 6.2-4.5 9-7.1V28.2c-2.9-2.6-5.7-5.3-8.4-8.1-19-.2-38.1-.2-57.2 0z"/><path fill="#b5344a" d="M99.4 20h57.2a160 160 0 0 0 8.3 8.2c.2 24.5.1 49 0 73.5-2.8 2.6-5.8 5-9 7 .3-7.5 0-15.1.2-22.7 0-2.7.1-5.3-.4-8-1-1.8-2.7-3.1-4-4.7h-47.5c-2 2.2-4.6 4.4-4.2 7.6v28.6c-2.8-2.7-5.8-5.2-9-7.7V36c0-2.6-.2-5.3.3-7.8 2.3-3 5.5-5.2 8-8.1M109 28v21h21.7V28H109z"/><path fill="#ffe1ef" d="M109 28h21.7v21H109V28z"/><path fill="#d07b99" d="M104.2 73.3h47.4c1.4 1.6 3 3 4 4.8.6 2.6.5 5.3.5 7.9-.3 7.6 0 15.2-.2 22.8-.2 1.2-2 .6-2.8.8-17.7-.1-35.4.1-53-.1l-.1-28.6c-.4-3.3 2.2-5.4 4.2-7.6z"/><path fill="#4a94ba" d="M79.1 137.8H89c.2 13.4-.1 26.8 0 40.2-.2 3.8 2.8 6.5 5 9l19.1 21c2.1 2.2 3.8 4.9 6.4 6.5 4.5 1 9.1.7 13.6.5 4 0 6.3-3.7 8.8-6.2 7.5-8.9 15.8-17 23.5-25.7 1.9-1.8 1.8-4.7 1.8-7.1 0-12.8-.2-25.5 0-38.3 3.3.2 6.6.2 9.8 0 .2 14.5-.2 28.9.1 43.3 26.3.3 52.7 0 79 .1v8c-5.3-.3-10.6-.2-15.8 0-1.9 11.5-.4 23.2-1.1 34.8-35.7.2-71.3-.2-107 .2-.3 10.6.1 21.3-.2 31.9h-8.5c-.7-10.6 0-21.3-.4-32-35.4-.2-70.7 0-106-.1-.7-11.6-1.2-23.3-1.1-34.9-5.3 0-10.6-.2-15.9 0v-8c26.3 0 52.6.2 79 0 .3-14.4-.1-28.8.1-43.2m-14.6 50v.9c-2.9.3-5.7.5-8.5.3H24.7v28H98v-11.5c-5-5.7-10.4-10.9-15.4-16.5l-15.4.1v-1.3h-2.7m123.3 1c-4.8.4-9.6.1-14.4.2-5.2 5.9-11.3 11.1-16 17.5v10.4c24.6.2 49.3 0 74 .1v-28h-32l-.2 2.5V189c-2.4 0-4.7-.2-7-.4-1.3-1.6-2.9-.3-4.3 0z"/><path fill="#ecf3f9" d="M64.5 187.7l2.7.1v1.3c5.1-.1 10.3-.2 15.4-.1 5 5.6 10.4 10.8 15.4 16.5V217H24.7v-28H56v15h10.4c-.1-5.2 0-10.3.1-15.5l-2 .2v-1zm123.3 1c1.5-.3 3.1-1.6 4.4 0l-3.4-.2c.2 5.2.3 10.3.2 15.5h10c.2-4.2.1-8.3.2-12.5l.2-2.6c10.7.2 21.3 0 32 .1v28h-74v-10.5c4.7-6.4 10.8-11.6 16-17.5 4.8 0 9.6.2 14.4-.3z"/><path fill="#212c31" d="M56 189a44.6 44.6 0 0 0 10.5-.5 267 267 0 0 0-.1 15.5H56v-15zm132.8-.5l3.4.2c2.3.2 4.6.4 7 .4v2.4L199 204h-10c0-5.2 0-10.3-.2-15.5z"/></svg>