<svg xmlns="http://www.w3.org/2000/svg" viewBox="0 0 256 257"><path fill="#b5344a" d="M22.2 0h.4c.5 21.3 0 42.6.3 64 .5 4-3.3 6.6-5.6 9.3-2.1 2.2-3.8 5-6.3 6.5-3.7.6-7.3.2-11 .2V22.2A25.6 25.6 0 0 1 22.2 0zm210 0h1.6A25.6 25.6 0 0 1 256 22.2V80h-11.6c-3.7-4.8-8-9-12-13.5-.2-22.1.2-44.3-.2-66.5zM93.5 24.5c2.5-2.1 5-5 8.5-4.5h53c3.3-.4 5.4 2.5 7.5 4.5 1.7 1.8 4 3.6 3.6 6.4v53c.3 4.9-5.3 6.6-8.2 9.6-1-7.5.5-15.2-.7-22.5l-4.5-5h-49.4l-4.5 5c-1.2 7.3.2 15-.7 22.5-2.7-2.5-6.6-4.2-8-7.6-.4-18.3 0-36.6-.2-54.9-.4-2.8 1.8-4.7 3.6-6.5M111 28v20.6l21.4-.1V28H111z"/><path fill="#c64f78" d="M22.6 0h20.1v99.2H0V80c3.6 0 7.3.4 11-.2 2.6-1.6 4.2-4.3 6.3-6.5 2.3-2.7 6-5.2 5.6-9.3-.3-21.4.2-42.7-.3-64zm190.7 0h18.9c.4 22.2 0 44.4.2 66.5 4 4.4 8.3 8.7 12 13.4 3.9.1 7.7.2 11.6 0v19.6c-14.3-.7-28.5 0-42.8-.3.2-18.2 0-36.3 0-54.5V0zM94.5 15.4H158c6.1-.7 9 5.9 13.2 9.2a2073 2073 0 0 1 0 19.7l2.8.3-2.8-.1v45.8c-3.2 2.8-5.8 6.3-9.4 8.6-9.1.8-18.4 0-27.6.3h-12.7l-26.8.1a84 84 0 0 1-10.1-9V45.1l-2.5-.4 2.5-1.6V24.4l9.8-9m-1 9.1c-1.8 1.8-4 3.7-3.6 6.5.1 18.3-.2 36.7.1 55 1.5 3.3 5.4 5 8 7.5 1-7.5-.4-15.2.8-22.5l.1 23c19.4.2 38.8.1 58.2 0 .3-7.7.1-15.4 0-23 1.3 7.3-.1 15 .8 22.5 2.9-3 8.5-4.7 8.2-9.5V30.9c.3-2.8-1.9-4.6-3.6-6.4-2-2-4.2-4.9-7.5-4.5h-53c-3.6-.5-6 2.4-8.5 4.5z"/><path fill="#6bbbe4" d="M42.7 0h170.6v35.7c-8.7-1.8-17.5-.7-26.3-1-5.2-.2-10.5 0-15.7 1V24.6c-4.2-3.3-7-10-13.2-9.2H94.5a238 238 0 0 0-9.8 9v11.3a67 67 0 0 0-15.7-1c-8.8.3-17.6-.7-26.3 1V0zm0 44.7c13.2.3 26.4.4 39.5 0 .7 0 2 .3 2.6.4-.2 15 0 30.1-.1 45.2a84 84 0 0 0 10.1 9h26.8c-.5 6.8-.2 13.8-.3 20.7 0 24.4.2 49-.1 73.4H94.9c-8.3-5.5-17.1-10-25.8-14.7-3.5-1.8-6.8-3.7-10.2-5.7a592 592 0 0 0-19.2-10.7c-2.9-2-6.5-1.2-9.7-1.3-2.6.1-5.2-1.1-7.8-.5-7.3 1-14.8.3-22.2.5V99.3l42.8-.1V44.7zm128.6-.2l2.8.1c13 .6 26.1.3 39.2.1v54.5c14.2.3 28.4-.4 42.7.3V161c-7.4-.1-15 .4-22.3-.4-5.2 0-10.4.3-15.6.8-7.1 3.5-14 7.7-21 11.6l-10.2 5.7c-8.7 4.8-17.5 9.2-25.8 14.7h-26.3c-.3-29.2 0-58.3-.1-87.4 0-2.3-.2-4.5-.3-6.8 9.1-.2 18.4.5 27.5-.3 3.6-2.3 6.3-5.8 9.4-8.6V44.5zM91 210.3h74V257H91v-46.7z"/><path fill="#ffe1ef" d="M111 28h21.3v20.5l-21.2.1c-.2-6.9 0-13.7-.1-20.6z"/><path fill="#5798ba" d="M42.7 35.7c8.7-1.7 17.5-.8 26.3-1a67 67 0 0 1 15.7 1v7.4l-2.5 1.6c-13.1.4-26.3.3-39.5 0v-9zm128.6 0c5.2-1 10.5-1.2 15.7-1 8.8.3 17.6-.8 26.3 1v9c-13 .2-26.2.5-39.2 0l-2.7-.4v-8.6zm-49.7 63.5h12.8l.3 6.8c0 29.1-.2 58.3.1 87.4h-13.6c.3-24.5 0-49 .1-73.4 0-7-.2-13.9.3-20.8z"/><path fill="#d07b99" d="M103.3 66h49.4l4.5 5c0 7.6.2 15.3-.1 23-19.4.1-38.8.2-58.2 0-.2-7.7-.1-15.3-.1-23l4.5-5z"/><path fill="#fff" d="M22.2 160.5c2.6-.6 5.2.6 7.8.5 3.2.2 6.8-.6 9.7 1.3A592 592 0 0 1 58.9 173l.1 15h10v-9.3c8.8 4.7 17.6 9.2 25.9 14.7H24.3v-30.8l-.8-1.4-1.3-.7zm195.9.8a168 168 0 0 1 15.6-.7l-1.4.7c-1 1.3-.6 3-.7 4.6.2 9.2 0 18.3 0 27.5h-70.5c8.3-5.5 17.2-10 25.8-14.7l.1 9.3h10v-15c7-4 14-8.1 21.1-11.7z"/><path fill="#363636" d="M0 161c7.4-.2 14.9.5 22.2-.5l1.3.7.9 1.4v30.8h207.2l-.1-27.5c0-1.5-.3-3.3.7-4.6l1.4-.7c7.4.8 14.9.3 22.3.4v72.8a24.9 24.9 0 0 1-18.9 21.3c-1.4-1-3.4.2-3.2 1.9h-69v-46.7H91.1V257H21.5c1-1.8-1.5-2.8-2.8-1.8A25.2 25.2 0 0 1 0 233.8V161z"/><path fill="#292c29" d="M59 173c3.3 2 6.6 4 10 5.7v9.3H59v-15zm128 5.7c3.3-1.9 6.7-3.7 10-5.7v15h-10v-9.3z"/><path fill="#262626" d="M18.8 255.2c1.3-1 3.8 0 2.8 1.8H19v-1.8zM234 257c-.3-1.7 1.7-2.8 3.1-1.9l-.2 1.9h-3z" opacity=".7"/></svg>