<svg xmlns="http://www.w3.org/2000/svg" viewBox="0 0 257 257"><g fill="#b5b4af"><path d="M23.6 0h210.6c10.3.8 19.5 8.6 22 18.5-2.6 1-5.3 1.7-8.2 1.6-16.3-.4-32.6 0-49-.3-3 0-6.6 0-9 2-3.6 2.8-6.8 6-10.4 8.8-6.1 4.9-11.2 11-17.4 15.7-2 1.6-4.7 1.8-7.2 1.8-15.6-.3-31.3-.3-47 0-4-.2-8.7.7-12.3-1.8-3.5-2.5-6.4-5.6-9.5-8.5-4.8-4.9-10.5-8.8-15.4-13.6-2.3-2.4-5.3-4.5-8.8-4.3-17.3 0-34.6.2-52 0a12 12 0 0 0-10 3.5v-4.2l1.4.7A25.4 25.4 0 0 1 23.6 0z"/><path d="M0 30c19.6-.1 39.3.2 59-.1 3 0 6.6-.3 9.1 2 8.8 7.6 17.5 15.3 26 23.1 3.6 3.9 9.2 3 14 3l46 .1c2.7 0 5.9.1 8.1-1.9 7.2-5.7 13.5-12.6 20.7-18.3 4-3.1 7.4-8.3 13-8l61.1.1v203.3a25.3 25.3 0 0 1-19.9 22.3l.6 1.4H20.2l.8-1.4c-9.7-2-17.6-9.8-19.6-19.5l-1.4.7V30m204.5 32.5c-15.3 7.5-30.9 14.6-46.3 22a65 65 0 0 0-.3 9.5c.2 8.2-.3 16.5.3 24.8 3.3-.1 6.7-.2 10-.8l-3 1.3c.2 12 0 24 .1 36 22 .5 43.8 0 65.8.3.4-21.6 0-43.2.2-64.7l-2.2 1c5.8-2.8 12-4.5 17.8-7.4-.2-4.8-2.7-9-4-13.5-2.3-7.7-4.3-15.4-7.3-22.8-10.6 4.3-20.6 9.9-31.1 14.3M20 54a303 303 0 0 1-8 25c-.3 1.9-2 4.7 0 6 4.9 2.4 10.1 4 15 6l-.5.2L26 94v61.6h66v-36.4l-2.3-1.2c3.2 0 7.7 2.2 10.2 0-1.7-11.2-.2-22.4-1.2-33.6-15.2-8.2-31.3-14.5-46.6-22.5-6.3-2.6-12.4-5.6-18.6-8.5-3.2-1.5-6.1-3.5-9.6-4.4-2.6 0-2.8 3.3-3.8 5.1m21.2 128v53.3h19.8a43837.6 43837.6 0 0 1 155.6 0V182H41.3z"/></g><path fill="#babcb7" d="M248 20.1c2.9.1 5.6-.6 8.3-1.6l.7 3.8V30h-61c-5.7-.4-9.1 4.8-13.1 7.9-7.2 5.8-13.5 12.6-20.7 18.4-2.2 2-5.4 1.8-8.2 1.8-15.3-.2-30.6-.1-46 0-4.7 0-10.3.8-14-3a978.7 978.7 0 0 0-25.9-23.2c-2.5-2.3-6-2-9.1-2-19.7.3-39.4 0-59 .2v-6.7a12 12 0 0 1 10-3.6c17.4.3 34.7 0 52 .1 3.5-.2 6.5 1.9 8.8 4.3 4.9 4.8 10.6 8.7 15.4 13.6 3 2.9 6 6 9.5 8.5 3.6 2.5 8.2 1.6 12.3 1.7 15.7-.2 31.4-.1 47 0 2.5 0 5.2-.1 7.2-1.7 6.2-4.7 11.3-10.8 17.4-15.7 3.6-2.8 6.8-6 10.3-8.8 2.5-2 6-2 9.1-2 16.4.3 32.7-.1 49 .3z"/><path fill="#afb0aa" d="M204.5 62.6c10.5-4.4 20.5-10 31-14.3 3 7.4 5.1 15.1 7.4 22.8 1.3 4.5 3.8 8.7 4 13.5-5.8 2.9-12 4.6-17.8 7.4-9 4-18.1 7.8-27.2 11.6l-3 1.4-9.9 4.2-4 1.7c-5.7 2.2-11.2 4.8-16.9 7.2-3.2.6-6.6.7-9.9.8-.6-8.3 0-16.6-.3-24.8a65 65 0 0 1 .3-9.5c15.4-7.4 31-14.5 46.3-22zM20.1 54.1c1-1.8 1.2-5.1 3.8-5.1 3.5.9 6.4 3 9.6 4.4 6.2 2.9 12.3 5.9 18.6 8.5 15.3 8 31.4 14.3 46.6 22.5 1 11.2-.5 22.4 1.2 33.5-2.5 2.3-7 0-10.2.1-5.5-2.3-11-4.8-16.7-7l-4-1.7c-3.3-1.5-6.6-3-10-4.3l-3-1.3c-9.7-4.1-19.5-8-29-12.6-5-2.2-10.2-3.7-15.2-6-2-1.4-.2-4.2.1-6.1 3-8.2 5.8-16.5 8.2-24.9z"/><g fill="#ecf0f4"><path d="M26.4 91.2l.6-.1c9.5 4.7 19.3 8.5 29 12.6V151h17v-40c5.6 2.2 11.2 4.7 16.8 7l2.2 1.2v36.4H26V94l.4-2.8zM202 103.6c9-3.8 18.1-7.5 27-11.6l2.3-1c-.2 21.5.2 43.1-.2 64.7-22-.3-43.9.2-65.8-.3v-36l2.8-1.3c5.7-2.4 11.2-5 16.9-7.2V151h17v-47.4z"/><path d="M59 105l10 4.3V124H59v-19zm130 4.2c3.3-1.5 6.7-2.8 10-4.2v19h-10v-14.8z"/></g><path fill="#21111b" d="M56 103.7l3 1.3v19h10v-14.7l4 1.7v34.8c-5.6-1-11.4-.8-17 0v-42zm143 1.3l3-1.4V146a51 51 0 0 0-17-.1v-35l4-1.6V124h10v-19z"/><path fill="#422e21" d="M56 145.9c5.6-1 11.4-1 17-.2v5.3H56v-5.1zm129-.1c5.6-1 11.4-.8 17 0v5.2h-17v-5.2z"/><path fill="#ad4f5a" d="M41.3 182h175.4v53.4h-19.9c.3-8.1.3-16.2.1-24.3-34.3-.2-68.6 0-103 0-10.9 0-21.9-.3-32.8 0-.2 8.1-.1 16.2 0 24.3H41.3V182z"/><path fill="#d05f6b" d="M61 211.1c11-.3 22 0 33 0 34.3 0 68.6-.2 103 0 .1 8 0 16.2-.2 24.3H61.1c-.1-8.1-.2-16.2 0-24.3z"/></svg>