<svg xmlns="http://www.w3.org/2000/svg" viewBox="0 0 257 257"><path fill="#a5a494" d="M20.5 0h217.3l-.8 1.4a25.5 25.5 0 0 1 20 22v24.3c-9.7 5.4-19 11.4-29 16.4-.1-10.3.2-20.5-.1-30.8-.2-4 .4-8.1-.2-12.2-2.2-3.1-5.4-6.6-9.7-6h-48c-3.9-.2-7.1 2.9-8.9 6-.8 4.4-.1 8.8-.1 13.2V64c-21.3 0-42.6.2-64-.1V34.2c-.5-5.4 2.4-12.5-2.7-16.4-2-2-4.5-3.1-7.3-2.8-13.3.2-26.6 0-40 .1-3.6 0-7.2-.3-10.7.4a16 16 0 0 0-5.8 5c-1 4.2-.2 8.6-.4 12.9-.3 10.3 0 20.5-.1 30.8-10.3-5-19.8-11.7-30-16.8V20.2l1.4.8c2-9.6 9.7-17.6 19.3-19.5L20.5 0z"/><path fill="#999889" d="M30.5 20.4a16 16 0 0 1 5.8-5c3.5-.7 7.1-.2 10.7-.3h40c2.8-.4 5.4.7 7.3 2.7 5 3.9 2.2 11 2.7 16.4-1.8-1.6-3.4-3.5-5.5-4.7-1.7-.6-3.7-.5-5.5-.6-15.3.2-30.7 0-46 0-3.9-.3-7 2.4-9.9 4.5.2-4.3-.5-8.7.4-13zm130.6.7c1.8-3.1 5-6.2 8.9-6h48c4.3-.6 7.5 2.9 9.8 6 .5 4 0 8.1 0 12.2-2.9-2-5.9-4.7-9.8-4.3h-45c-2.2 0-4.5-.2-6.6.5-2 1.3-3.7 3.1-5.4 4.8 0-4.4-.7-8.8.1-13.2zM0 47.4c10.2 5.1 19.7 11.8 30 16.8 0 4.6.2 9.2-.1 13.8C19.6 73 10.3 66.4 0 61.6V47.5zm228 16.7c10-5 19.3-11 29-16.4V62c-9.7 5.2-19.1 11-28.8 16.2-.4-4.6-.3-9.3-.2-14zM97 64c21.4.3 42.7.1 64 0l-.1 13.9c-10 .5-20-.1-30 .1-11.2 0-22.5.3-33.7-.1-.2-4.7-.1-9.3-.1-13.9z"/><path fill="#a2a291" d="M30.1 33.4c3-2 6-4.8 10-4.4H86c1.8 0 3.8-.1 5.5.5 2.1 1.3 3.7 3 5.5 4.7V64c0 4.6 0 9.2.2 13.9 11.2.4 22.5 0 33.8.1 10-.2 19.9.4 29.9-.1V34.3c1.8-1.7 3.4-3.5 5.5-4.8 2.1-.7 4.4-.5 6.7-.6 15 .2 30 0 45 0 3.8-.3 6.8 2.4 9.8 4.4.3 10.3 0 20.5 0 30.8 0 4.7 0 9.4.3 14 9.7-5.2 19-11 28.8-16.2v172.7a25.5 25.5 0 0 1-22.3 22.4H23.3c-10.6-1-20-9.4-22-19.9l-1.4.6v-176C10.3 66.4 19.6 73 29.9 78c.3-4.6.2-9.2 0-13.8.2-10.3 0-20.5.2-30.8M19 121.9c.2 16 0 32 0 48l89.3-.1c-9.5-5-18.8-10.3-28.3-15.1v-.5c-4-1.2-7.4-3.7-11.1-5.4v-.3C52 140 35.7 130.6 18.9 122m170.3 26.5v.4c-4 1.3-7.1 4.4-11.2 5.4v.5c-9.7 4.7-18.8 10.3-28.4 15 29.8.2 59.5 0 89.3.1.1-16-.1-32 .1-47.9-16.7 8.7-33 18-49.8 26.5M108 134c0 8.3.1 16.7-.1 25a45 45 0 0 0 1.2 10.8h5.7c.4-13.2.2-26.5 0-39.7-2-.1-4-.4-5.9-.1-1.4.7-.7 2.7-1 4m34.2 7c-.3 9.7-.4 19.2 0 28.8h6.5c2-9.4 1-19 1-28.6-2.5-.3-5-.3-7.5-.1m-97.4 52c0 5.5 2 10.7 2.2 16.2.6 3.9 1.7 7.7 1.8 11.6H209c.3-3.9 1.3-7.7 1.8-11.6.4-5.5 2.4-10.7 2.2-16.3H44.8z"/><path fill="#efedef" d="M19 122c16.7 8.6 33.1 17.9 49.9 26.5V164H80v-9.3c9.5 4.8 18.8 10.2 28.3 15.1H19.1c0-16 .1-32-.1-47.9zm170.2 26.4c16.7-8.5 33.1-17.8 49.8-26.5-.2 16 0 32 0 48l-89.4-.1c9.6-4.9 18.7-10.4 28.4-15.1v9.3h11.1v-15.6z"/><path fill="#969789" d="M108 134c.3-1.3-.4-3.3 1-4 2-.3 4 0 5.9.1.2 13.3.4 26.5 0 39.8l-5.7-.1A45 45 0 0 1 108 159c.2-8.3.2-16.7 0-25zm34.2 7c2.5-.1 5 0 7.6.2-.1 9.5 1 19.2-1 28.6h-6.6c-.4-9.6-.3-19.2 0-28.7z"/><path fill="#292823" d="M68.9 148.8c3.7 1.7 7.1 4.2 11.1 5.4v9.8H68.9v-15.3zm109.1 5.4c4-1 7.2-4 11.2-5.4V164H178v-9.8z"/><path fill="#bd8899" d="M44.8 193h168.3c.3 5.6-1.8 10.8-2.2 16.3H47c-.3-5.5-2.3-10.7-2.2-16.2z"/><path fill="#efaabd" d="M47 209.3c54.7.1 109.3.1 164 0-.6 3.9-1.6 7.7-2 11.6H48.9c-.1-4-1.1-7.7-1.8-11.6z"/></svg>