<svg xmlns="http://www.w3.org/2000/svg" viewBox="0 0 256 257"><path fill="#535453" d="M20 0h3a2.1 2.1 0 0 1-3.2 1.9L20 0z" opacity=".7"/><path fill="#7b7e75" d="M23 0h52c.4 7.4.4 14.8.3 22.2H15c-4.7 0-9.4.5-13.9-.7 2.1-9.2 9.1-17.7 18.7-19.6 1.4.9 3.3-.2 3.2-1.9zm83 0h101v22.3c-33.6 0-67-.2-100.6 0-.2-7.4 0-14.8-.4-22.3zm131.5 0h.4l-.3 1.9c6.2.7 11.1 5 15 9.5 1.2 2.2 2.4 4.5 3.4 6.8v188.7h-19c0-68.4-.2-136.7.1-205.1l.4-1.8zM0 51h19.7l-.1 127.6c-6.6 0-13-.2-19.6.2V51zm0 158.7c6.5 0 13 0 19.5-.3.3 9.2 0 18.4.2 27.6H122c4.3 0 8.5.6 12.7 1.3V257H23.3A24.8 24.8 0 0 1 2 238.1c.2-1.7-.4-2.3-1.9-2v-26.4zM167 237h89v2.8a26 26 0 0 1-21.3 17.2h-67.5c-.3-6.7-.2-13.3-.2-20z"/><path fill="#4a413c" d="M75 0h31c.4 7.5.2 15 .4 22.4 33.5-.3 67 0 100.6-.1V0h28.4c-.4 1.6.2 2.2 1.7 1.8-.3 68.4 0 136.7 0 205.1H256V237h-89c0 6.7 0 13.3.2 20h-32.5v-18.7A77 77 0 0 0 122 237H19.7c-.2-9.2.1-18.4-.2-27.6-6.5.3-13 .2-19.5.3v-30.9c6.5-.4 13-.1 19.6-.2V51.1H0V19.7l1.1 1.7c4.5 1.2 9.2.8 13.8.8h60.3c.2-7.5.2-14.9-.1-22.3M46.5 44.5c-2 1-3 3.1-4.4 4.7-2.2 3-5.2 5.6-7 8.9-.7 3.6-.3 7.2-.4 10.9v127c.2 2.6-.5 5.8 1.5 7.8 3 3.3 6 6.8 9.2 9.9H206c2.5-.1 5.5.7 7.3-1.5 3.2-3.1 6.6-6.1 9.4-9.6.7-2.5.5-5 .6-7.6-.2-45.3.2-90.7-.2-136-3-5.4-7.7-9.8-11.6-14.7H56c-3.2 0-6.4-.3-9.5.2z"/><path fill="#39322c" d="M235.4 0h2l-.3 1.8c-1.5.4-2.1-.2-1.7-1.8z" opacity=".8"/><path fill="#968881" d="M46.5 44.5c3.1-.5 6.3-.1 9.5-.2h155.5c3.9 4.9 8.6 9.3 11.6 14.7.4 45.3 0 90.7.2 136 0 2.5.1 5.1-.6 7.6-2.8 3.5-6.2 6.5-9.4 9.6-1.8 2.2-4.8 1.4-7.3 1.5H45.4c-3.2-3.1-6.2-6.6-9.2-10-2-2-1.3-5-1.5-7.6V69c0-3.7-.3-7.3.4-11 1.8-3.2 4.8-5.7 7-8.8 1.4-1.6 2.5-3.7 4.4-4.7m.4 46.5c4.9 8.8 9.6 17.8 15 26.3h6.2l-.1-2.6c.5 1.3 1.3 2.8 3 2.5 4.6.3 9.3 0 14 0h18.3c-4.4-6.4-9.4-12.4-14.4-18.2-.9-1.7-2.1-3.1-3.3-4.6a194 194 0 0 1-2.4-3.4H46.9m122.2 7.7c-4.2 4-7 9.1-10.9 13.4a47.8 47.8 0 0 0-3.7 5c6.1.2 12.3.2 18.4.2h16.2l.8-2.7v2.7h6.2c5.1-8.7 9.8-17.7 15-26.3H175c-2 2.6-4.2 5-5.8 7.7M47 146c-.3 14.7-.3 29.4 0 44 3.5.2 7 .2 10.4 0 5.1.2 10.3.2 15.5.1v-14h.7c-.1 4.6 0 9.2.3 13.8 2.1.3 4.3.8 6.4 1.3l-.3-.8c10.7-.5 21.3-.1 32-.3 21.8.1 43.7-.2 65.6.2l-.1.8 6.3-.2v-.7c5.6 0 11.1 0 16.7-.2 3.4.2 6.8.2 10.3 0a922 922 0 0 0 0-44c-19-.4-38 0-57-.2-35.6.1-71.2-.3-106.8.2z"/><path fill="#e9e8e9" d="M46.9 91h21v15.5l.1 8.2v2.6h-6c-5.5-8.5-10.2-17.5-15.1-26.3zM190 91h21.2c-5.3 8.6-10 17.6-15 26.3h-6.3v-2.7c.2-2.7.2-5.4.2-8V91z"/><path fill="#d3796b" d="M68 91h11.3v15.7a37 37 0 0 0-11.3-.2V91zm110.7 0H190v15.6c-3.7-.5-7.6-.6-11.4 0V91zM89 99c5 5.8 10 11.8 14.3 18.2H85l1.3-6.2H89c0-4 .2-8 0-12zm69.2 13c4-4.2 6.7-9.3 10.9-13.3-.2 4-.1 8.2 0 12.3h2.7l1.1 6.3-18.4-.1c1.1-1.8 2.4-3.5 3.7-5.1z"/><path fill="#472823" d="M79.3 91h3.9a194 194 0 0 0 2.4 3.4c1.2 1.5 2.5 2.9 3.3 4.6.3 4 .1 8 0 12h-9.5V91zm89.7 7.7c1.7-2.8 4-5.1 5.9-7.7h3.8v20H169c0-4.1-.1-8.2 0-12.3z"/><path fill="#e18273" d="M68 106.5a37 37 0 0 1 11.4.2v4.3h6.8l-1.2 6.3c-4.7-.1-9.4.2-14 0-1.7.2-2.5-1.3-3-2.6v-8.2zm110.6.2c3.8-.7 7.7-.7 11.5-.1 0 2.6 0 5.3-.2 8l-.8 2.6h-16.2l-1-6.2h6.8v-4.3z"/><path fill="#99717e" d="M47 146c35.7-.5 71.3 0 107-.2 19 .2 38-.2 56.9.2a922 922 0 0 1 0 44c-3.5.2-7 .2-10.3 0l.1-14H184v14.9l-6.4.2v-.8c.8-8 .3-16.2.4-24.3-32.9 0-65.8-.2-98.7.1.5 8.1-1 16.3.8 24.3l.3.8c-2.2-.5-4.3-1-6.5-1.3-.3-4.6-.3-9.2-.2-13.8H73a218 218 0 0 0-15.7 0l.2 13.9c-3.5.2-7 .2-10.4 0-.3-14.6-.3-29.3 0-44z"/><path fill="#c38ca2" d="M79.3 166.1c32.9-.3 65.8 0 98.7-.1 0 8.1.4 16.2-.3 24.3-22-.4-43.8 0-65.7-.2-10.6.2-21.3-.2-31.9.3-1.7-8-.3-16.2-.8-24.3z"/><path fill="#c3c5cb" d="M57.3 176a218 218 0 0 1 15.7 0v14.1c-5.2.1-10.4.1-15.5-.1l-.2-14zm126.7 0h16.7l-.1 14c-5.6.2-11.1.2-16.7.2l.1-14.2z"/><path fill="#494a47" d="M0 236c1.5-.3 2.1.4 1.9 2.1L0 238v-2z" opacity=".6"/></svg>