<svg xmlns="http://www.w3.org/2000/svg" viewBox="0 0 256 256"><path fill="#fcf8d3" d="M22.4 0h2.3c4.8 8.4 9.8 16.7 14.7 25 .7 1.6 1.3 3.3 1.2 5 .1 5.5 0 11-.2 16.5 16 .3 32.2 0 48.3.1V84c-.5 4.2 3.5 6.6 5.6 9.7h67.4l5.7-7.4V46.6h48.2c-.3-5.6-.3-11.1-.2-16.7 0-1.7.3-3.4 1.2-4.9 5-8.3 9.6-16.8 14.8-25h2A25.4 25.4 0 0 1 256 22.5v210.9a25.4 25.4 0 0 1-22.4 22.6H22.5C10.9 255 1 245 0 233.5v-211A25.4 25.4 0 0 1 22.4 0M17 97v76h67v-65c-1.8 0-3.6 0-5.4-.2-7.6-2-15.6-2.6-23.3-4.3-3.6-.4-7-1.6-10.8-1.7-2.3-1.7-5.5-.2-8-1.6l-4.9-.7c-2-.5-4-.8-6-1l-4.2-1-4.4-.6m217.6.6c-3.4.8-6.8 1.2-10.2 2-2.4.3-4.8.2-7 1.2-2 .3-4.3-.2-6 1.2l-4.8.3c-1.8 1.1-4 1-6 1.2-5.7 1.3-11.5 2-17.2 3.1-2 .3-4.2.3-6 1.3l-5.4.2v65h67V96.9l-4.4.6M104.1 212v20h8.9v-20h-9m38.7 0v20h9.3v-20h-9.3z"/><path fill="#e46633" d="M24.7 0h16c-.2 7 0 14 0 21 0 1.5-.8 2.8-1.4 4L24.8 0zm190.7 0h16c-5.2 8.2-9.8 16.7-14.8 25a9.7 9.7 0 0 1-1.3-5V0z"/><path fill="#f4be00" d="M40.7 0h174.7v20c-.2 1.8.4 3.5 1.2 5a9.6 9.6 0 0 0-1.2 5c-.1 5.5 0 11 .2 16.5-16 .3-32.2.1-48.3.1v39.7l-5.6 7.4H94.3c-2-3-6-5.5-5.7-9.7V46.6c-16 0-32.1.2-48.2 0 .3-5.6.3-11.1.2-16.6 0-1.7-.5-3.4-1.3-5 .6-1.2 1.4-2.5 1.3-4 .1-7-.1-14 .1-21z"/><path fill="#1b0a08" d="M17 97l4.4.4c1.4.5 2.8.7 4.2 1.1 2 .2 4 .5 6 1l5 .7c2.4 1.4 5.6-.1 8 1.6 3.6.1 7 1.3 10.7 1.7 7.7 1.7 15.7 2.3 23.3 4.3l5.4.2v52.3c-2.6.4-5.3.7-8 .7H31a93 93 0 0 1-14-.5V96.9m27 9.7V134h17.7c0-8-.2-16 0-24-5.8-1.4-11.8-2.2-17.7-3.4zm190.6-9.1l4.4-.6v63.6c-4.3.6-8.6.6-13 .5h-46c-2.7 0-5.4-.3-8-.7V108l5.4-.2c1.8-1 4-1 6-1.3 5.7-1.1 11.5-1.8 17.3-3 2-.4 4.1-.2 5.9-1.3l4.8-.3c1.7-1.4 4-.9 6-1.2 2.2-1 4.6-1 7-1.2 3.4-.8 6.8-1.2 10.2-2M194 110v24h18v-27.4c-6 1.2-12 2-18 3.4z"/><path fill="#fcf8f4" d="M44 106.6c5.9 1.2 11.9 2 17.7 3.4-.2 8 0 16 0 24H44v-27.4zm150 3.4c6-1.4 12-2.2 18-3.4V134h-18v-24z"/><path fill="#4a3a29" d="M17 160.5c4.6.6 9.3.6 14 .5h45c2.7 0 5.4-.3 8-.7V173H17v-12.5zm155-.2c2.6.4 5.3.7 8 .7h46c4.4.1 8.7 0 13-.5V173h-67v-12.7z"/><path fill="#cec9aa" d="M104 212h9v20h-9v-20zm38.7 0h9.3v20h-9.3a694 694 0 0 1 0-20z"/></svg>