<svg xmlns="http://www.w3.org/2000/svg" viewBox="0 0 256 256"><path fill="#ce766b" d="M21.7 0H52c.6 13 .1 26 .3 39H21V0l.7-.1zm181.9 0h30.5l.9.2V39h-31.4V0zm2 110.7c5-3.3 10.2-6.5 15.4-9.7v33h-45c-1.8.1-3.5-.5-4.9-1.6 5.5-3.3 10.7-7.3 16.5-10l-.2 4.6h14.3c0-4.6-.3-9.2.1-13.7l.1-1c1.3-.4 2.6-.8 3.7-1.6zM35 101.3a198 198 0 0 1 19.4 12.2V127h14.2l-.2-4.7c6.3 3 11.9 7.5 18 11-5.2 1-10.3.6-15.5.6L35 134v-32.7z"/><path fill="#f7f1c8" d="M52.1 0h22.5c.2 9 2 18 2.3 27 0 4 1 8 1.2 12H94V0h68v39h16c-.5-4.4 1.2-8.6 1.2-13 .2-8.8 2-17.3 2.2-26h22.2v39H235V.2a25.5 25.5 0 0 1 21 22.2v211.2c-1 11.5-11 21.3-22.5 22.4H22.6A25.4 25.4 0 0 1 0 233.6V22.4C1 11.4 10 2 21 .1V39h31.4c-.2-13 .3-26-.3-39M17.4 90v50.5c5.9 0 11.7-.3 17.6.4v-.5h51.5l.1-2.5c1.9 3.7 6.5 2.2 9.7 2.2-2.7-2.7-6-4.7-9.5-6.3v-.5h-.5c-6-3.5-11.6-8-18-11a87 87 0 0 0-14-8.8A198 198 0 0 0 35 101.3c-5.6-4.2-11.7-7.5-17.6-11.3M221 101l-15.4 9.7c-1 .8-2.4 1.2-3.7 1.5l-.1 1.1c-5 2.7-9.8 5.5-14.2 9-5.8 2.8-11 6.8-16.5 10.1l-2.2.8v7.2H221v.5c5.9-.7 11.8-.5 17.6-.4V90c-6 3.5-11.8 7.2-17.6 11m-61.5 39c2.8.4 5.7.3 8.5.1.4-2 .7-4 .2-6-3 2-6.2 3.5-8.7 6M100 206v24c3.9.1 7.8 0 11.6-.1v-23.5a210 210 0 0 0-11.5-.1m44.3 0v23.6c3.8.2 7.7.2 11.6.1v-23.7h-11.6z"/><path fill="#e46633" d="M74.6 0H94v39H78.1c-.1-4-1.3-8-1.2-12-.3-9-2.1-18-2.3-27zM162 0h19.4c-.2 8.7-2 17.3-2.2 26 0 4.4-1.7 8.6-1.2 13h-16V0z"/><path fill="#f7f8f7" d="M17.4 90c5.9 3.8 12 7.1 17.6 11.3v39.6c-5.9-.7-11.8-.5-17.6-.4V90zM221 101c5.8-3.8 11.6-7.5 17.6-11v50.5c-5.8 0-11.7-.3-17.6.4V101zM54.4 113.5c5 2.5 9.6 5.5 14 8.8l.2 4.7H54.3v-13.5zm133.2 8.8a100 100 0 0 1 14.2-9c-.4 4.5 0 9.1-.1 13.7h-14.3l.2-4.7z"/><path fill="#e18073" d="M169 133.2l2.1-.8c1.4 1 3 1.7 4.9 1.6h45v6.3h-52a42 42 0 0 1 0-7.1zm-82.7.2l.6-.1v.5l-.3 4.1-.1 2.5H35V134h36c5-.1 10.2.4 15.3-.6z"/><path fill="#f7f7f7" d="M86.8 133.8c3.5 1.6 6.8 3.6 9.5 6.3-3.2 0-7.8 1.5-9.7-2.2l.2-4zm72.7 6.2c2.5-2.4 5.7-4 8.7-5.9.5 2 .2 4-.2 6-2.8.2-5.7.3-8.5 0z"/><path fill="#d6cd8e" d="M100 206.2h11.5l.1 23.6c-3.8.2-7.7.2-11.6.1v-23.7zm44.4.1c3.9-.2 7.7-.2 11.5-.1v23.7c-3.8.1-7.7 0-11.5-.1v-23.6z"/></svg>