<svg xmlns="http://www.w3.org/2000/svg" viewBox="0 0 256 256"><path fill="#dea6b2" d="M22.5 0h210.8A25.3 25.3 0 0 1 256 22.5v210.9c-1 11.6-11 21.6-22.5 22.6H22.7A25.4 25.4 0 0 1 0 233.5V22.6A25.4 25.4 0 0 1 22.5 0m.9 41v65.3h-1.1a62.9 62.9 0 0 0-9 9c-1.2 1.2-1 3-1 4.7v93c0 3.8-.4 7.8.2 11.7a25 25 0 0 0 6.8 7c3.6.7 7.2.2 10.7.3h195c3.2-.1 6.6.7 9.7-.3a25 25 0 0 0 6.8-7c.6-3.5.2-7.1.3-10.7v-87c-.1-3.5.3-7.1-.3-10.7-1.5-2.6-4-4.5-6-6.7-1.5-1.2-2.9-3.2-5-3.2V41c-21.2-.5-42.5-.1-63.7-.2-.2 21.8-.1 43.7 0 65.6H87.2V40.7c-21.3 0-42.6-.3-64 .2z"/><path fill="#f4f5f7" d="M23.4 41c21.3-.5 42.6-.1 63.9-.2v65.5c-21.3.2-42.6.2-64 0V41m28 27.6h11.4v-11H51.3v11zm115.5-27.8c21.2 0 42.5-.3 63.7.2v65.4h-63.8V40.8m24.5 28c3.8-.2 7.7-.1 11.5-.1V57.5h-11.4v11.3z"/><path fill="#212429" d="M51.3 68.6v-11h11.4v11H51.3m2.7-9.4l-.1 6.9L61 66v-7l-7 .1z"/><path fill="#212421" d="M191.2 68.8c.2-3.8.2-7.5.1-11.3h11.4v11.2h-11.5m2.8-9.6a121 121 0 0 0-.3 7.2l7.2-.3v-7h-7z"/><path fill="#313431" d="M54 59.2h7V66h-7l.1-6.8zm140-.1h6.9V66l-7.2.3.3-7.2z"/><path fill="#d3c7ad" d="M22.3 106.3h1c21.4.2 42.7.2 64 0h79.4c21.3.2 42.5 0 63.8.1 2.1 0 3.5 2 5 3.2 2 2.2 4.5 4.1 6 6.7.6 3.6.2 7.2.3 10.8v87c-.1 3.5.3 7-.3 10.6a25 25 0 0 1-6.8 7c-3.1 1-6.5.2-9.7.3H30c-3.5 0-7.1.4-10.7-.3a25 25 0 0 1-6.8-7c-.6-4-.2-7.9-.2-11.8v-93c0-1.5-.2-3.4 1-4.7 2.6-3.3 5.7-6.2 9-9m89.8 33.6v14.6h5.2c0-5 .1-10.2-.4-15.2l-4.8.6m24.9-.5c-.5 5-.4 10-.2 15l5 .4c.2-5.1.2-10.2 0-15.4H137M24.2 160.5c.2 18.4 0 36.8.1 55.2 12 0 23.9.1 35.8-.1 44.6.1 89.2 0 133.8 0 12 0 23.8.2 35.7 0 .4-18.4 0-36.8.2-55.1-4.8 3-10 5.6-14.8 8.6-2.5 1.7-5.7 1.3-8.6 1.3h-20.1c-39.3 0-78.5.1-117.7-.1h-21c-2.4 0-5 .5-7.2-.6a373 373 0 0 1-16.2-9.2z"/><path fill="#b5aa94" d="M112 139.8l5-.6c.4 5 .3 10.1.3 15.2H112v-14.6z"/><path fill="#b7ab96" d="M137 139.3h4.9v15.4a421 421 0 0 1-5.1-.5c-.2-5-.3-9.9.2-14.8z"/><path fill="#967984" d="M24.2 160.5a373 373 0 0 0 16.2 9.2c2.3 1.2 4.8.6 7.2.7v9.6c7-.4 14 .6 20.8-.4.4-3.1.2-6.2.2-9.3 39.2.2 78.4 0 117.7 0v9.7h20.2v-9.6c2.8 0 6 .4 8.5-1.3 4.8-3 10-5.5 14.8-8.6-.1 18.3.2 36.7-.2 55.1-11.9.2-23.8 0-35.7 0-.2-7.2 0-14.4-.2-21.6l-6.7-.2H67l-6.7.2c-.2 7.2 0 14.4-.2 21.6-12 .2-23.8 0-35.8 0v-55.1z"/><path fill="#e7ebef" d="M47.6 170.4l21-.1c0 3 .3 6.2-.2 9.3-6.8 1-13.8 0-20.7.4l-.1-9.6zm138.7 0h20.1v9.6h-20l-.1-9.6z"/><path fill="#aa8896" d="M60.3 194l6.7-.3h120c2.3 0 4.5.2 6.8.3.2 7.2 0 14.4.1 21.7l-133.8-.1c.2-7.2 0-14.4.2-21.6z"/></svg>