<svg xmlns="http://www.w3.org/2000/svg" viewBox="0 0 256 256"><path fill="#dea6b2" d="M22.3 0h186.5c.1 7 .6 13.9 0 20.8-2.3 2.8-5.6 4.5-8.3 6.8-1.7 1.1-3.3 3-5.5 3-10.7.3-21.4-.3-32 .2-1 1.2-.6 2.8-.7 4.2v79c0 2.5.9 5 1.7 7.3h-1.7V163c15.5.2 31.1 0 46.7 0v93H22.4a25.7 25.7 0 0 1-19.5-13c31.4-.2 62.8-.1 94.1-.1 3.5 0 7.1.4 10.6-.4a22 22 0 0 0 6.4-6.6c.6-3.6.2-7.3.3-11V137c.3-2.5-1.1-4.6-3-6.2-2-2-4-4.3-6.4-5.9-2.7-.4-5.3-.2-8-.2.2-21.2.1-42.5.1-63.7H35l.1 63.7H0V22.3A25.5 25.5 0 0 1 22.3 0z"/><path fill="#c3d1d8" d="M208.8 0h24.8A25.5 25.5 0 0 1 256 22.3v211.4c-1 10.3-9 19.3-19 21.7V121.3c-4-.1-7.8 0-11.7.1-5.4-.3-10.9-.4-16.3.4l-.4-.5c-4.4-.1-8.8 0-13.2.1-7-.1-13.8-.5-20.7 0-3.6-.1-7.1-.2-10.7-.1-.8-2.4-1.7-4.8-1.7-7.3V35c.1-1.4-.3-3 .7-4.2 10.6-.5 21.3 0 32-.2 2.2 0 3.8-1.9 5.5-3 2.7-2.3 6-4 8.3-6.8.6-7 .1-13.9 0-20.8m8.2 37c-.2 6.7-.1 13.4 0 20h20V37h-20m-25.6 60.5c-6.5 3.7-13.6 6.2-19.8 10.4 17.5.3 35 .2 52.5.1.2-9 .4-18-.1-27-11 5.3-21.8 11-32.6 16.5z"/><path fill="#7b8fa7" d="M217 37h20v20h-20c-.1-6.6-.2-13.3 0-20z"/><path fill="#f4f5f7" d="M35 61h62v63.7H35V61m23.2 17v10h9.4V78h-9.4zM57 187l23-.2-1.3.3V198H57v-11z"/><path fill="#313231" d="M58.3 78h9.4v10h-9.4V78z"/><path fill="#f7f7f7" d="M191.4 97.5c10.8-5.6 21.7-11.2 32.6-16.6.5 9 .3 18 .1 27.1-17.5.1-35 .2-52.5 0 6.2-4.3 13.3-6.8 19.8-10.5M190 101v5h5v-5h-5z"/><path fill="#4a4d52" d="M190 101h5v5h-5v-5z"/><path fill="#3f2436" d="M162.3 121.3h12.4v20l-2.9-.1c-3.2-.3-6.3-.1-9.5 0v-19.9zm33.1.1c4.4-.1 8.8-.2 13.2-.1l.4.5c0 6 .2 12-.3 18l1.4 1.7c5-.2 10.2 0 15.3-.1v-20c3.8-.1 7.7-.2 11.6-.1v134l-3.3.7H209v-93c.2-7-.4-14 .4-20.8-4.5-1.8-9.3-1-14-1v-19.8z"/><path fill="#ded8de" d="M174.7 121.3c6.9-.4 13.8 0 20.7.1v19.8c0 2.1-.3 4.3-.4 6.5h-20.5l.3-5.1-3-1.4 2.9.2v-20zm34.3.5c5.4-.8 10.9-.7 16.3-.4v20l-15.2.1-1.4-1.7c.5-6 .2-12 .3-18z"/><path fill="#d3c7ad" d="M0 124.7h97c2.6 0 5.3-.2 7.9.2 2.4 1.6 4.3 3.8 6.4 5.9 1.9 1.6 3.3 3.7 3 6.2v88c0 3.6.3 7.3-.3 11a22 22 0 0 1-6.4 6.5c-3.5.8-7 .3-10.6.4H3a29 29 0 0 1-2.9-9.2v-7h101.8l.1-.6c.3-16.2.1-32.4 0-48.7-3.5 2.5-6.8 5.5-10.3 8.1-3.3 2.7-7.7 1.1-11.6 1.3-7.6.1-15.3.3-23 .1-19 .2-38 0-57 0v-62.2m6.3 31.5v14.6h6.4V156c-2-.1-4.3 0-6.4.1z"/><path fill="#b2848e" d="M162.3 141.2c3.2-.1 6.3-.3 9.5 0l3 1.4-.3 5 20.5.1.4-6.5c4.7 0 9.5-.8 14 1-.8 6.9-.2 13.8-.4 20.8-15.6-.1-31.2.1-46.7-.1v-21.7z"/><path fill="#b7ac96" d="M6.3 156.2c2.1-.2 4.3-.2 6.5 0l-.1 14.5H6.3v-14.5z"/><path fill="#967984" d="M91.6 185.5c3.5-2.6 6.8-5.6 10.4-8 0 16.2.2 32.4 0 48.6-7.7.1-15.3.2-22.9 0-.3-6.4.1-12.7-.2-19-26.3-.2-52.6-.1-78.9-.1v-20h57v11h21.7v-11l1.3-.2c3.9-.2 8.3 1.4 11.6-1.3z"/><path fill="#aa8896" d="M0 207h78.9c.3 6.4 0 12.7.2 19 7.6.3 15.2.2 22.8.1l-.1.7c-34-.1-67.9-.2-101.8-.1V207z"/></svg>