<svg xmlns="http://www.w3.org/2000/svg" viewBox="0 0 256 256"><path fill="#b2d1db" d="M17.4 0h221.1c9.3 3 16.5 11.6 17.5 21.3v211.4a25 25 0 0 1-18.9 21.5c-1.6-.3-2.3.3-2.2 1.8H22.6c1.5-2.6-3.4-2.7-1.8 0h-1.6l.8-1.4c-10.5-2-19-11.3-20-22V21.3C1 11.6 8.1 3 17.4 0M66 32.8V158h124V32.8c-41.4-.1-82.8-.2-124.2 0M23.3 172.2v53.5c18.2.7 36.5.3 54.7.2.2-18 .2-35.9 0-53.8-18.2-.1-36.5-.3-54.6.1m154.6-.1c-.2 18-.3 36 0 53.9 18.3 0 36.5.3 54.7-.2v-53.6c-18.3-.5-36.5-.2-54.7-.1z"/><path fill="#f7f9fc" d="M65.9 32.8c41.4-.2 82.8-.1 124.2 0V158H65.9V32.8M119 86v18.7h18V86h-18z"/><path fill="#605f60" d="M119 86h18v18.7h-18V86z"/><path fill="#cbc9cb" d="M23.4 172.2c18.1-.4 36.4-.2 54.6-.1.2 17.9.2 35.9 0 53.8-18.2.1-36.5.4-54.6-.2v-53.5m19.7 6c-.2 4.7 0 9.4-.1 14.1H30c-.4 4.7-.1 9.4-.1 14.1 4.3.2 8.6.1 13 0 .3 4.7 0 9.5.2 14.3h15.6c.3-4.8-.3-9.6.4-14.3 4.3.2 8.6.2 13-.1-.1-4.7 0-9.3-.2-14H58.7v-14l-15.6-.1zM178 172c18.2 0 36.4-.3 54.6.2v53.6c-18.1.5-36.3.1-54.5.2-.4-18-.3-36-.1-54m19.3 6.2v14.1H184c-.2 4.7 0 9.3-.1 14 4.4.4 8.9 0 13.3.4v14h15.6c.3-4.8 0-9.5.2-14.3 4.4 0 8.7.2 13 0 0-4.7.3-9.4-.2-14.1H213v-14.1h-15.8z"/><path fill="#8e8c8c" d="M43.1 178.2h15.6v14c4.4.2 8.8.2 13.2.1.2 4.7 0 9.3.1 14a94 94 0 0 1-13 0c-.6 4.8 0 9.6-.3 14.3l-15.6.1c-.3-4.8.1-9.6-.3-14.3-4.3.1-8.6.2-13 0 .1-4.7-.2-9.4.3-14.1H43l.1-14.1zm154.2 0h15.6c.2 4.7 0 9.4.1 14.1h13c.4 4.7 0 9.4.2 14-4.4.3-8.7.2-13 .1-.4 4.8 0 9.5-.3 14.3h-15.6v-14c-4.4-.5-8.9 0-13.3-.4l.1-14h13.1v-14z"/><path fill="#a0bbc5" d="M20.8 256c-1.6-2.7 3.3-2.6 1.8 0h-1.8z" opacity=".9"/><path fill="#6c7f85" d="M234.9 256c0-1.5.6-2.1 2.2-1.8l-.2 1.8h-2z" opacity=".6"/></svg>