<svg xmlns="http://www.w3.org/2000/svg" viewBox="0 0 256 256"><path fill="#ffd55d" d="M22.6 0h34.6v132H0V23C.7 11 10.8 1 22.6 0zM199 0h34.2c11.7.8 22 11 22.8 22.7V132h-57V0z"/><g fill="#b2d1db"><path d="M57.3 0H199v124.4c-8.3 1-16.7.5-25 .5-24 .3-48 0-72 .1-14.7.3-29.4-.5-44 .2l-.1 6.6c22 .6 44-.3 65.9.4.4 6.3.2 12.6.2 18.8 0 35-.2 70 0 105H22.8A25.3 25.3 0 0 1 0 233.3V132h57.2V0M95 19.8c0 22-.2 43.9 0 65.8h66.4V19.8H95M73.2 93.1c0 9.5-.2 19 .1 28.6h28.5c.4-9.5.3-19.1.1-28.6-9.6-.1-19.1-.3-28.7 0m81.7 0c-.4 9.4-.3 18.8 0 28.2 9.3.5 18.6.4 28 0 0-9.3.3-18.8 0-28.2-9.3-.3-18.7 0-28 0m-137.4 75v66h65.8v-66H17.5m73.6 48c-.2 9.6-.2 19.2 0 28.8 9.4.1 18.9.3 28.3 0-.1-9.7.2-19.3-.2-28.9H91.1z"/><path d="M133.2 132.2c21.9-.5 43.8 0 65.8-.2h57v101.1a25.3 25.3 0 0 1-22.6 22.9H133.1c-.2-31 0-62-.1-93 .3-10.2-.3-20.5.2-30.8M173 168v66h66v-66h-66m-36 48v29c9.7 0 19.3.2 28.8-.2.4-9.5.2-19.1.1-28.7-9.6-.2-19.2-.2-28.8 0z"/></g><path fill="#fff" d="M95 19.8h66.4v65.8H95c-.3-21.9-.1-43.8-.1-65.8M123 48v9.3h10c.2-3 .2-6.2.2-9.3H123zM17.5 168h65.8v66H17.5v-66m28.3 28v10H55v-10h-9.2zM173 168h66v66h-66v-66m28.1 28v10h9.9v-10h-10z"/><path fill="#636163" d="M123 48h10.2c0 3.1 0 6.2-.2 9.3h-10V48z"/><path fill="#cbc9cb" d="M73.2 93.1c9.6-.3 19.1-.1 28.7 0 .2 9.5.3 19 0 28.6H73.3c-.3-9.5-.1-19 0-28.6m10 3v7.5h-6.8l-.1 7.3 7 .1v7.4l7.9-.1V111H99v-7.3h-7.6l-.1-7.7h-8zM91 216h28.2c.4 9.6 0 19.3.2 28.9-9.4.3-18.9.1-28.3 0-.2-9.6-.2-19.2 0-28.8m10.3 3v6.9H94v8h7.3l.1 7.6h7.6V234h7v-8h-7v-7h-7.6zM137 216c9.7 0 19.3-.1 29 .1 0 9.6.2 19.2-.2 28.8-9.6.3-19.2.1-28.7 0-.2-9.6-.2-19.2 0-28.8m10.6 3v6.9H140v8h7.6l.3 7.6h7l.1-7.6h7.5v-8H155v-7h-7.3z"/><path fill="#cecbcb" d="M154.9 93.1c9.3 0 18.7-.3 28 0 .3 9.4 0 18.9 0 28.3-9.4.3-18.7.4-28 0-.3-9.5-.4-18.9 0-28.3m10.1 3v7.6h-7v7.3h7v7.3h8V111h7v-7.4h-7V96h-8z"/><path fill="#8e8c8c" d="M83.3 96h8v7.6H99v7.4h-7.7v7.3h-8V111l-7-.1.2-7.2h6.8V96zm81.7 0h8v7.6h7v7.4h-7v7.3h-8V111h-7v-7.4h7V96zm-63.6 123h7.6v7h7v8h-7v7.7h-7.6V234H94v-8h7.3l.1-7zm46.3 0h7.3v7h7.5v8H155v7.7h-7.1l-.3-7.7H140v-8h7.7v-7z"/><path fill="#aac5d0" d="M174 125c8.3-.1 16.7.5 25-.6v7.6c-22 .2-43.9-.3-65.8.2-.5 10.3 0 20.6-.2 30.9.2 31-.1 62 .1 92.9H124c-.2-35 0-70 0-105 0-6.2.2-12.5-.2-18.8-22-.7-44 .2-66-.4l.1-6.6c14.7-.7 29.4 0 44-.2 24-.1 48 .2 72 0z"/><path fill="#605f60" d="M45.8 196H55v10h-9.2v-10zm155.3 0h9.9v10h-10v-10z"/></svg>