<svg xmlns="http://www.w3.org/2000/svg" viewBox="0 0 258 257"><g fill="#a7938c"><path d="M23.4 0h39.4c10 16 19.3 32.2 29 48.3 6.7 11.4 13.6 22.6 20.2 34h34.2c9-14.7 17.6-29.6 26.7-44.4 7-12.8 15.2-24.8 22.1-37.6l-1-.3h40.5c10.7 1 20 9.4 22 19.9l1.5-.6v217.5l-1.4-.8c-2 9.7-9.9 17.7-19.6 19.6l.8 1.4H20l1-1.3c-9.7-2-17.8-9.9-19.7-19.6l-1.4.6v-215l.3-2.4 1.2.4A25.2 25.2 0 0 1 23.4 0m-.5 45v80.2c-3.4.1-6.9 0-10.4.2.3 37.6 0 75.3.2 112.9h232.6c.2-37.6-.1-75.3.1-113l-10.4-.1V45h-64v80.2c-3 .1-6.2.1-9.3 0V98H96.3v27.3l-9.3-.1V45H23z"/><path d="M93.5 0h71.3c-11.9 15.9-24 31.7-35.4 48-5.8-7-10.9-14.7-16.5-22-6.7-8.5-12.5-17.7-19.4-26z"/></g><path fill="#39322b" d="M62.8 0h30.7c7 8.3 12.7 17.5 19.4 26 5.6 7.3 10.7 15 16.5 22C141 31.6 153 15.8 164.8 0H194l1.1.3C188 13 179.8 25 172.8 37.9c-9 14.8-17.6 29.7-26.6 44.5H112c-6.6-11.5-13.5-22.7-20.3-34-9.6-16.2-19-32.5-28.9-48.4z"/><g fill="#fff"><path d="M23 45h64v80.2c-21.3-.2-42.7-.2-64 0V45m32 8v66h19v-15.7l-3.4-.8 3.5.3c-.2-16.6 0-33.2-.1-49.8H55zm116-8h64v80.2c-21.3-.2-42.7-.2-64 0V45m13 8c0 16.6.1 33.2 0 49.8l3.3-.3-3.3.8V119h19V53h-19z"/><path d="M61 56h9v17h-9V56zm127 0h9v17h-9V56z"/></g><path fill="#29211e" d="M55 53h19c0 16.6-.1 33.2 0 49.8l-3.4-.3c-5.2-1-10.4-.4-15.6-.5V53m6 3v17h9V56h-9zm123-3h19v49c-5.2 0-10.5-.5-15.7.5l-3.4.3c.2-16.6 0-33.2.1-49.8m4 3v17h9V56h-9z"/><path fill="#f7c52e" d="M96.3 98h65.4v27.3l9.3-.1c21.3-.2 42.7-.2 64 0 3.5.1 7 0 10.4.2-.2 37.6.1 75.3-.1 112.9H12.7c-.2-37.6.1-75.3-.2-112.9 3.5-.1 7 0 10.5-.2a3791.5 3791.5 0 0 1 73.3 0V98m-62.6 73v36H225v-36H33.7z"/><path fill="#4f4744" d="M55 102c5.2 0 10.4-.5 15.6.5l3.4.8V119H55v-17zm132.3.5c5.2-1 10.5-.4 15.7-.5v17h-19v-15.7l3.3-.8z"/><path fill="#703636" d="M33.7 171H225v36h-33.5c.4-7 .2-14 .2-21H67v21H33.7v-36z"/><path fill="#ba5b63" d="M67 186h124.7c0 7 .2 14-.2 21H67v-21z"/></svg>