<svg xmlns="http://www.w3.org/2000/svg" viewBox="0 0 256 256"><path fill="#c6e9ec" d="M22.5 0h210.9A25.4 25.4 0 0 1 256 22H148.3c-3.6 2.7-6.8 5.8-10.2 8.6.2 58.1 0 116.3 0 174.5-.3 2.8 2.6 4 4.4 5.6 2.6 2 4.7 5.4 8.4 5.3H216v40H41.6v-40h67c3.5-3.1 7.3-6 10.8-9V31c-2.9-3.5-6.9-5.7-9.8-9-36.5-.2-73 0-109.6-.1A25.4 25.4 0 0 1 22.5 0z"/><path fill="#c39368" d="M0 22.6V22h109.6c2.9 3.4 7 5.6 9.8 9.1V207l-10.8 9c-22.3.2-44.6 0-67 .1H0V168c16.5.2 33 .1 49.5 0v-45.4c-16.5-.2-33 0-49.5-.2V22.6m62 56V129h34l-.1-12.4V78.7H62zM148.3 22H256v100c-16 .7-32 .2-47.9.3-.3 15.2 0 30.4-.1 45.6h48v48H150.9c-3.7.1-5.8-3.4-8.4-5.3-1.8-1.6-4.7-2.8-4.3-5.6-.2-58.2 0-116.4-.1-174.5 3.4-2.8 6.6-6 10.2-8.6M161 78.7v50.2h34.6V78.4c-11.6.5-23.1 0-34.6.3z"/><path fill="#2b2c31" d="M62 78.6h34c-.2 12.7 0 25.3-.1 38-11.3 1-22.6.1-33.9.4V78.6m9 3.4v16h16V82H71zm90-3.3c11.5-.2 23 .2 34.5-.3.2 12.7.2 25.4 0 38-4.7 1.1-9.6.4-14.5.6-6.6-.1-13.4.4-20-.5V78.7m9 3.3v16h16V82h-16z"/><path fill="#fff" d="M71 82h16v16H71V82zm99 0h16v16h-16V82z"/><path fill="#42434a" d="M62 117c11.3-.3 22.6.6 33.9-.5v12.3H62V117zm99-.5c6.6 1 13.4.4 20 .5 4.9-.2 9.8.5 14.5-.6 0 4.1.2 8.3.1 12.4-11.5.2-23 0-34.6 0v-12.3z"/><path fill="#ecd3b5" d="M0 122.3c16.5.2 33 0 49.5.2v45.4c-16.5.1-33 .2-49.5 0v-45.6zm208.1.1c16-.1 32 .4 47.9-.3v46c-16-.2-32 0-48-.1 0-15.2-.2-30.4.1-45.6z"/><path fill="#444544" d="M0 216h41.6v40H21.8A25.7 25.7 0 0 1 0 233.6V216zm216 0h40v17.5a25.5 25.5 0 0 1-22.3 22.5H216v-40z"/></svg>