<svg xmlns="http://www.w3.org/2000/svg" viewBox="0 0 256 256"><path fill="#c6e9ec" d="M22.3 0h63.3c2.8 13.7 4.9 27.5 7.2 41.3-15.7.3-31.4-.1-47 .2-2.7 2.8-5.9 5-8.5 7.8v161.4c3 3 6.1 6 9.7 8.3 2.6.6 5.3.3 8 .3h47.7c-.2 9.9 0 19.8-.1 29.7-.1 2.4.2 4.8 1.3 7H22.3A25.5 25.5 0 0 1 0 233.7v-15c4.3 0 8.6.3 12.8-.1 3.3-2.3 6.5-5 9.4-7.7.4-3 .1-6 .2-9V49c-2.8-2.8-6-5-8.8-7.9L0 41V22.2A25.5 25.5 0 0 1 22.3 0zm94 0H140c-1.2 2.7-1.3 5.6-1.7 8.5-2.3 11-3.7 22-6 33h-8.8L116.3 0zm53.9 0h63.4A25.5 25.5 0 0 1 256 22.2V42h-13l-9.4 7.9v158c.1 1.6-.4 3.5 1 4.6 2.8 2.5 5.7 5 8.9 7.2 4 .8 8.3.1 12.5.3v13.8a25.5 25.5 0 0 1-22.3 22.2h-81.2c.6-2.6 1-5.3 1-8-.3-9.6 0-19.2-.2-28.7H206c1.4 0 3.2.3 4.3-.9 2.8-2.3 5.5-4.8 8.4-7V48.5c-3-2.2-5.7-4.7-8.5-7.1-15.6-.2-31.2 0-46.8-.1 1.8-13.9 5-27.5 6.8-41.4z"/><path fill="#5d5b5d" d="M85.6 0h30.7l7.3 41.4c.6 4.6 1.7 9 2.4 13.6.5 3.3.8 6.7 2.5 9.7l4-23.3c2.2-11 3.6-22 6-33 .3-2.8.4-5.7 1.6-8.4h30.1c-1.8 13.9-5 27.5-6.8 41.4-2.4 12.5-4.3 25-6.5 37.5a95 95 0 0 0-2 13l-6 5.1h-39c-3.7.4-6-3.2-8.8-5.2-.8-11-3.9-21.8-5.2-32.8-1.1-6-1.8-11.9-3.2-17.7-2.2-13.8-4.3-27.6-7.1-41.3z"/><path fill="#c39368" d="M0 41c4.5 0 9-.1 13.6.1 2.8 2.8 6 5.1 8.8 8V202c0 3 .2 6-.2 9-2.9 2.7-6 5.3-9.3 7.6-4.3.4-8.6 0-12.9.1V41zm45.7.5c15.7-.3 31.4.1 47-.2C94.2 47 94.8 53 96 59c1.3 11 4.4 21.8 5.2 32.8 2.8 2 5 5.6 8.9 5.2h39l6-5.1c.3-4.4 1-8.7 1.9-13 2.2-12.5 4-25 6.5-37.5h46.8c2.8 2.5 5.5 5 8.5 7.2v162.7c-2.9 2.3-5.5 4.8-8.4 7.1-1.2 1.2-2.9.9-4.3 1-17.6-.2-35.2 0-52.7-.1H55c-2.7 0-5.4.3-8-.3a57.7 57.7 0 0 1-9.7-8.3V49.3c2.6-2.8 5.8-5 8.4-7.8m21.4 86.8h41l.5-3.6c-1.7-2.7-4.8-3.5-7.5-4.9C90 114 78.2 109 67.4 102.4c-.8 8.6-.1 17.3-.3 25.9M155 120c-2.4 1.5-5.1 2.4-7.4 4l.2 4.3H189v-25.5c-11.3 5.8-22.8 11.1-34 17.2m-36.8-11.8c0 6.5-.3 13.1 0 19.7l4 .1c.1-6.6.2-13.3-.1-20l-3.9.2m16 8c-.5 4-.4 8-.1 11.9l3.8-.2c.3-4 .2-7.9 0-11.9l-3.8.2m-25 7.6v4.5c2.4 0 5 0 7.4-.2-2.3-1.7-5-2.6-7.4-4.3m30.8 3.9c2.2 1.3 4.9.5 7.3.6v-4.4c-2.4 1.5-4.9 2.6-7.3 3.8M102 140v40h53v-40h-53zm131.6-90.1L243 42h13v178c-4.2-.2-8.4.4-12.5-.3-3.2-2.1-6.1-4.7-9-7.2-1.3-1.1-.8-3-1-4.5.2-52.7.2-105.4 0-158.2z"/><path fill="#c6926b" d="M123.6 41.4h8.8c-1.2 7.8-2.6 15.5-4 23.3-1.6-3-1.9-6.4-2.4-9.7-.7-4.5-1.8-9-2.4-13.6z"/><path fill="#fff5ef" d="M67.1 128.3c.2-8.7-.5-17.3.3-26C78.2 109 90 114 101.1 119.9v8.5H67zM155 120c11-6 22.6-11.4 33.9-17.2v25.5h-34V120z"/><path fill="#ad825a" d="M118.1 108.2l3.9-.2c.3 6.7.2 13.4 0 20h-3.8c-.4-6.7-.2-13.3 0-19.8zm15.9 8l3.9-.2c.1 4 .2 8 0 12H134c-.3-3.9-.4-7.9 0-11.8z"/><path fill="#393c39" d="M101.1 119.8c2.7 1.4 5.8 2.2 7.5 5l-.5 3.5h-7v-8.5zm46.5 4.2c2.3-1.6 5-2.5 7.4-4v8.3h-7.2l-.2-4.3z"/><path fill="#fcefe5" d="M109 123.8c2.4 1.7 5.1 2.6 7.4 4.3-2.5.3-5 .3-7.5.2v-4.5zm30.8 3.9c2.4-1.2 5-2.3 7.2-3.8v4.4c-2.3-.2-5 .7-7.2-.6z"/><path fill="#ecd3b5" d="M102 140h53v40h-53v-40z"/><path fill="#c8b299" d="M102.7 219.3h50.6c.3 9.5 0 19.1.1 28.7.1 2.7-.3 5.4-.9 8H104a13.5 13.5 0 0 1-1.3-7c.1-10-.1-19.8.1-29.7z"/></svg>