<svg xmlns="http://www.w3.org/2000/svg" viewBox="0 0 256 256"><path fill="#dbe1ec" d="M22.5 0h210.9A25.4 25.4 0 0 1 256 22.4V124c-35.9-.2-71.7.2-107.6-.2L147 122v-15h-38v15l-1.4 1.8c-7.1.4-14.4 0-21.5.2L0 123.9V22.5C1 10.9 11 1 22.5 0M15 24.7V51h5.4V30h50.8v15.7H76v-21H15m165 0v21h4.8V30H235v21h6V24.7h-61M29 59v48.7l36.6-.1V59H29m161 0v48.7h37V59h-37z"/><path fill="#5a5d60" d="M15 24.7h61v21h-4.8V30H20.4v21H15V24.7zm165 0h61V51h-6V30h-50.2v15.7H180v-21z"/><path fill="#212c33" d="M29 59h36.7v35.3c-2.5.6-5 1-7.6 1.2.1-5.6.5-11.5-2.3-16.5H59V61.4H41v4.3l-3.8.6c-.5 9.7 0 19.5-.3 29.2-2.6-.3-5.3-.9-7.9-1.3V59zm161 0h37v35.2c-2.6.4-5.3 1-8 1.3l.1-24.5c.4-3.8-2.5-6.6-4.5-9.4-5.9-.5-11.8-.1-17.7-.2V79h3.2c-2.8 5-2.3 11-2.2 16.5-2.7-.2-5.3-.6-8-1.2L190 59z"/><path fill="#fff" d="M41 61.4h18V79H41V61.4zm156 0c5.8 0 11.7-.3 17.6.2V79H197V61.4zM31 158h27.2c.3 5.3.2 10.6 0 15.9-.3 10.8 0 21.5-.2 32.3-8.8 1.6-18 .5-27 .8v-49zm166 0h27v49h-27.1v-33l.1-16z"/><path fill="#1b2229" d="M214.6 61.6c2 2.8 4.9 5.6 4.5 9.4v24.5l-.1 3.4h-21v-3.4c-.2-5.5-.7-11.4 2-16.5h14.7l-.1-17.4zM37.2 66.3l3.8-.6V79h15c2.7 5 2.3 11 2.2 16.5L58 99H37l-.1-3.5c.2-9.7-.2-19.5.3-29.2z"/><path fill="#1e5952" d="M29 94.2c2.6.4 5.3 1 7.9 1.3l.1 3.4h21l.2-3.4c2.5-.2 5-.6 7.6-1.2l-.1 13.3H29.1L29 94.3zm161 .1c2.6.6 5.3 1 8 1.2V99h21v-3.4c2.7-.3 5.4-.9 8-1.3v13.5h-37V94.3z"/><path fill="#2e2e31" d="M109 107h38v17h-38v-17z"/><path fill="#f7edd0" d="M107.6 123.8l1.4-1.8v2h38v-2l1.4 1.8c35.9.4 71.7 0 107.6.2v109.5c-1 11.6-11 21.5-22.5 22.5H22.6A25.4 25.4 0 0 1 0 233.6V124c28.7.2 57.4 0 86 0 7.2 0 14.5.3 21.6-.1M31.1 158v49c9-.3 18 .8 27-.8v3.1c-.1 6.5-.2 13 0 19.4 2.8 2.3 5.4 4.8 8.1 7 1 1 2.5 1 3.8 1h109c3.2 0 6.4.3 9.5-.2 3-2.3 5.9-4.8 8.4-7.6.4-4 0-8 .2-11.9-.1-2.9.4-6-1-8.6l.8-2.6v1.2h27c0-16.4.2-32.7 0-49H197v16c-20.6-.3-41.2-.1-61.8-.2h-77c.2-5.2.3-10.5 0-15.8H31.1z"/><path fill="#e9cce4" d="M58.2 173.9c20.9-.2 41.7 0 62.6 0v17h14.4v-17c20.6 0 41.2-.3 61.8 0l-.1 31.9c-.2.9-.5 1.8-.9 2.6-2.3 2.5-4.5 5.2-7.4 7.1-3 .9-6.4.5-9.5.6H82c-4.7-.2-9.4.4-14-.3-3.4-2-6.1-5.2-10-6.5v-3c0-10.9-.2-21.7.1-32.4z"/><path fill="#aa96a7" d="M120.8 173.8h14.4V191h-14.4v-17.2z"/><path fill="#e1c7de" d="M188.6 215.5c2.9-1.9 5.1-4.6 7.4-7.1 1.5 2.6 1 5.7 1 8.6 0 4 .3 8-.1 12a71.4 71.4 0 0 1-8.4 7.5c-3.1.5-6.3.2-9.5.2H70c-1.3 0-2.8 0-3.8-1-2.8-2.2-5.3-4.7-8-7-.3-6.5-.2-13-.1-19.4 3.9 1.3 6.6 4.4 10 6.5 4.6.7 9.3.1 14 .3h97c3.1 0 6.4.3 9.5-.6z"/></svg>