<svg xmlns="http://www.w3.org/2000/svg" viewBox="0 0 256 256"><path fill="#e9ecf1" d="M22.4 0h211A25.4 25.4 0 0 1 256 22.4v211.2a25.5 25.5 0 0 1-22.4 22.4H22.5A25.4 25.4 0 0 1 0 233.6V22.5A25.5 25.5 0 0 1 22.4 0M21 45v62h45V45H21m169 0v62h45V45h-45m-80.7 55v7H147v-7.1h-37.7M44 165.1l-1 3v-2.8H28.6c.2 20.6 0 41.1 0 61.7h198.8l.1-61.7H213v2.8l-1-3c-8.1-.6-16.3.6-24.4-.6-1.2 0-3-.8-3.6.8H72l-.7-.9c-9 1-18.2.3-27.3.7z"/><path fill="#291e18" d="M21 45h45v62h-6V93.7H28.7V107H21V45m18.5 20c6.3.2 12.5 0 18.8 0V47.2c-6.2-.1-12.4 0-18.6 0-.3 5.9 0 11.8-.2 17.8zM190 45h45v62h-7.7V93.7H196V107h-6V45m8 2v18h18.4c-.1-6 .2-12 0-18H198z"/><path fill="#fff" d="M39.5 64.9c.3-6-.1-12 .2-17.9h18.6v18c-6.3 0-12.5.1-18.8-.1zM198 47h18.3c.3 6 0 12 .1 18H198V47zM44 165.1c9.1-.4 18.3.4 27.3-.7l.7.9h-1.4c-.4 7.6-.1 15.2-.3 22.9 0 4.1 0 8.3.2 12.5H43v-32.5l1-3zm140 .2c.6-1.6 2.4-.7 3.6-.8 8 1.2 16.3 0 24.4.7l1 3v32.5h-27.4v-12.5c0-7.6.2-15.3-.2-23H184z"/><path fill="#816f63" d="M28.7 93.7H60V107H28.7V93.7zm167.3 0h31.3V107H196V93.7z"/><path fill="#2e2e31" d="M109.3 100c12.6-.2 25.1-.1 37.7-.1v7h-37.7v-7z"/><path fill="#6b565d" d="M28.6 165.3H43v35.4h13V227H28.8l-.1-61.7zm42 0h114.8c.4 7.6.1 15.3.3 23-3.1 3-7.8 2-11.7 2H82c-4-.1-8.6 1.1-11.7-2.1.2-7.7 0-15.3.3-23zm142.4 0h14.4c-.2 20.6 0 41.2 0 61.7H200v-26.3h13v-35.4z"/><path fill="#9c6d68" d="M70.3 188.2c3 3.2 7.7 2 11.6 2.2H174c4-.2 8.6 1 11.7-2.2l-.1 12.5H200V227H56v-26.3h14.5l-.2-12.5z"/></svg>