<svg xmlns="http://www.w3.org/2000/svg" viewBox="0 0 256 256"><path fill="#bda0c8" d="M22.7 0H233c11.8.8 22 10.9 22.9 22.7v22c-8.4 0-16.8-.2-25.2 0v-18l-60.6-.1c-.4 6-.1 12-.2 18h-68.8c0 9 .2 18 0 27 22.9 0 45.9.1 68.8-.1v21h60.8l-.1-21c8.4.4 16.9-.3 25.3.3v161.3a25.2 25.2 0 0 1-22.7 22.9h-15c.1-21.3-.3-42.6.5-64-.2-24 0-48.2 0-72.4-3.3 2.9-6.2 6-9.6 8.7H42.8c-3.4-2.7-6.3-5.8-9.5-8.7v72.5c0 8-.2 16 .3 24 .4 13.2-.3 26.6.3 39.9H23a25.3 25.3 0 0 1-23-22.7V23C.8 11.1 10.9 1 22.7 0m-1.4 92.5H82c-.1-22 .2-44-.2-65.9H21.3v66z"/><path fill="#f7f1f7" d="M21.3 92.5v-66c20.2.2 40.3.1 60.5.1.4 22 0 44 .2 65.9H21.2m30.6-57.1v19.3h17.6c-.2-6.5 0-13 0-19.4H51.7zM170 44.6c0-6-.2-12 .2-18h60.6v18l-.1 26.9v21H170V44.6m12.7-9.3v19.4h17.5V35.3h-17.5z"/><path fill="#444147" d="M51.8 35.4h17.5v19.3H51.9V35.3zm130.9-.1h17.5v19.4h-17.6c.2-6.5 0-13 0-19.4z"/><path fill="#6d577e" d="M101.2 44.6H170v26.9c-23 .2-46 .1-68.9 0 .3-9 .1-18 .1-27zm129.6.1c8.4-.2 16.8 0 25.2 0v27.1c-8.4-.6-16.9 0-25.3-.3V44.7z"/><path fill="#262221" d="M33.3 119.6c3.2 2.9 6 6 9.5 8.7h166.4c3.4-2.7 6.3-5.8 9.5-8.7v72.5H33.4v-72.5z"/><path fill="#9494a2" d="M33.3 192h185.5c-.8 21.4-.4 42.7-.5 64H33.9c-.6-13.3 0-26.7-.3-40-.5-8-.3-16-.4-24z"/></svg>