<svg xmlns="http://www.w3.org/2000/svg" viewBox="0 0 256 256"><path fill="#ad9cb5" d="M17.5 0h221A25.7 25.7 0 0 1 256 21v15.2c-1.6-.6-3.3-.9-5-.9-26 .2-52.2 0-78.3.1H13c-4.3 0-8.7 0-13-.3V21.6C.9 11.7 8 3 17.5 0zM0 57h19v5h54v-5h110v5h54v-5h19v169.7c-57.3-.2-114.7 0-172 0-28 0-56-.3-84 0V57m20 29v72.7h2.2A8.9 8.9 0 0 0 20 165c0 11.3-.1 22.7.1 34 4.3.4 8.6.3 12.8.3h152.2l4.9-.2c.7-13.4.1-26.9.3-40.3.3-24.3 0-48.5.1-72.8H20m192 0v72.7h2.2a9.4 9.4 0 0 0-2.2 6.3l.1 34.2c8.3.2 16.5.2 24.8-.1.2-11 0-22 0-33 0-3.1 1-6.3.1-9.3V86h-25z"/><path fill="#7e717e" d="M0 35.1c4.3.3 8.7.4 13 .3h71c-.2 4.8.3 9.6-.4 14.3-2.4 3-7.2 1.7-10.6 2.8V48a1341.2 1341.2 0 0 1-20 0H19v9H0V35.1zm89.9.3H167c0 7.2-.6 14.5.7 21.6H88.4c2.7-6.9.9-14.4 1.5-21.6zm82.8 0H251c1.6 0 3.3.2 4.9.8V57c-6.3-.2-12.7 0-19-.1v-9h-34a1353 1353 0 0 0-20 0v4.5c-3.3-1-8.1 0-10.2-3.2-1-4.6-.3-9.3-.1-13.9zM0 226.8c28-.4 56 0 84-.2l172 .1v6.2a24.8 24.8 0 0 1-18.7 21.2c-1.5-1-3.3.2-3.3 1.9H22c1-1.7-1.6-2.7-2.8-1.8-10.1-1.7-17.7-11-19.2-20.9v-6.5z"/><path fill="#635a68" d="M84 35.4h5.9c-.6 7.2 1.2 14.7-1.5 21.6H73v-4.5c3.4-1 8.2.2 10.6-2.8.7-4.7.2-9.5.4-14.3z"/><path fill="#63596b" d="M167 35.4h5.7c-.2 4.6-1 9.3 0 13.9 2.2 3.3 7 2.3 10.3 3.2V57h-15.3c-1.3-7.1-.7-14.4-.7-21.6z"/><path fill="#e9e8ef" d="M19 48h34v9h9v-9h11v14H19V48zm164 0h11v9h9v-9h34v14h-54V48z"/><path fill="#444147" d="M53 48h9v9h-9v-9zm141 0h9v9h-9v-9z"/><path fill="#312e2e" d="M20 86h170.4c0 24.3.2 48.5-.1 72.8-56-.3-112 0-168.1-.2H20V86zm192 0h25v72.7h-25V86z"/><path fill="#9494a2" d="M237 156.8c1 3 0 6.2 0 9.2-.2 11 0 22-.1 33-8.3.4-16.5.4-24.8.2-.2-11.4 0-22.8 0-34.2a9 9 0 0 1 2-6.3H237v-1.8zm-214.8 1.8c56 .1 112-.1 168 .2 0 13.4.5 26.8-.2 40.3l-5 .2H33c-4.3 0-8.6 0-12.9-.2-.2-11.4 0-22.8-.1-34.2-.3-2.3.8-4.4 2.2-6.3z"/><path fill="#564f56" d="M19.2 254.2c1.2-1 3.9.1 2.8 1.8h-3l.2-1.8zM234 256c0-1.7 1.8-2.9 3.3-1.9l-.4 1.9h-3z" opacity=".7"/></svg>