<svg xmlns="http://www.w3.org/2000/svg" viewBox="0 0 256 256"><path fill="#948bc0" d="M22.8 0h12.4v108c.1 9-.8 18 .8 27H0V23A25.2 25.2 0 0 1 22.8 0zM47 0h75c.5 27.3-.1 54.7.2 82v33c0 6.7-.9 13.6 1.7 20h-76c-1.8-10.3-.8-20.7-1-31 0-34.7-.2-69.3 0-104zm87 0h76.2v116c-.1 6.4-.7 13 1.7 19H132c2.8-7 1.6-14.7 1.8-22 0-37.7-.2-75.3 0-113zm88 0h11c11.9.7 22.2 11 23 22.8V135h-36c2.9-7 1.7-14.7 1.8-22 .1-37.7-.1-75.3.2-113zM0 222h101v34H23a25.2 25.2 0 0 1-23-22.7V222zm156 0h100v11a25.2 25.2 0 0 1-22.8 23H156v-34z"/><path fill="#8980b2" d="M35.2 0H47c-.3 34.7 0 69.3-.1 104 .2 10.3-.8 20.7 1 31h-12c-1.4-9-.6-18-.8-27l.1-108zM122 0h12c-.3 37.7 0 75.3-.2 113-.1 7.3 1 15-1.7 22H124c-2.6-6.4-1.7-13.3-1.8-20V82c-.2-27.3.4-54.7-.2-82zm88.2 0H222c-.3 37.7 0 75.3-.2 113-.1 7.3 1 15-1.7 22h-8.2c-2.4-6-1.8-12.6-1.8-19l.1-116z"/><path fill="#393836" d="M0 135h47.9a48184 48184 0 0 1 172.2 0H256v87H156v-28h-55v28H0v-87m22 15.3V205h54.5v-54.6H22m158.3 0c.2 18.3.2 36.4 0 54.6h54.2c-.5-6 0-12-.2-18 .1-12.2-.3-24.3.2-36.5-18-.2-36.1-.1-54.2 0z"/><path fill="#f4f4f7" d="M22 150.3h54.5V205H22v-54.7m23.4 24.2a41 41 0 0 1 0 7l7.6.2v-7.3l-7.6.1zm135-24c18-.1 36.2-.2 54.2 0-.5 12.2 0 24.3-.2 36.5.1 6-.3 12 .2 18h-54.2c.2-18.2.2-36.3 0-54.5m23.1 23.9v7.2h7.4v-7.3h-7.4z"/><path fill="#3f4147" d="M45.4 174.5l7.6-.2v7.3l-7.6-.1a41 41 0 0 0 0-7zm158.1-.1h7.4v7.3h-7.4v-7.3z"/><path fill="#deb0b7" d="M101 194h23c0 20.7-.1 41.3.1 62H101v-62zm31 0h24v62h-24v-62z"/><path fill="#b28e94" d="M124 194h8v62h-7.9c-.2-20.7 0-41.3 0-62z"/></svg>