<svg xmlns="http://www.w3.org/2000/svg" viewBox="0 0 256 256"><g fill="#b2b8c0"><path d="M22.5 0h56.2v17.2c-20.8.3-41.7 0-62.6.1-.2 74.5-.2 149 0 223.4 74.8-.1 149.7 0 224.5 0V17.3c-21.1-.2-42.3.2-63.4-.2.1-5.7.2-11.5 0-17.2h56.1A25.3 25.3 0 0 1 256 22.5v210.8a25.4 25.4 0 0 1-22.5 22.7H22.7A25.4 25.4 0 0 1 0 233.5V22.6A25.4 25.4 0 0 1 22.5 0z"/><path d="M91 0h74.6v17.4c-24.9-.2-49.8 0-74.6 0V0z"/></g><path fill="#848494" d="M78.7 0H91v17.3c25 .2 49.8 0 74.7.1V0h11.5c.3 5.7.2 11.5.1 17.2 21.1.4 42.3 0 63.4.2v223.2H16.1c-.2-74.4-.2-148.8 0-223.3 20.9 0 41.8.2 62.7 0V0M32.4 46.4c-.5 3.9-.1 7.7-.2 11.6v150c.1 2.5-.7 5.4 1.4 7.3 3 3.2 6 6.6 9.6 9.2 8.9.6 17.8 0 26.7.2 47.9 0 95.8.2 143.6 0 3.3-3.4 6.6-6.8 10-10 .3-54.6 0-109.1.1-163.7 0-2.4.2-5.2-1.7-7a80.6 80.6 0 0 0-8.2-8.1c-2.9-.8-5.9-.3-8.8-.4H43c-3.4 3.7-7.5 6.9-10.5 11z"/><path fill="#605796" d="M32.5 46.4c3-4 7-7.2 10.5-10.8 54-.2 108 0 162-.1 2.9 0 6-.4 8.8.4 3 2.4 5.6 5.3 8.2 8 2 2 1.7 4.7 1.7 7.1-.1 54.6.2 109.1-.1 163.7l-10 10c-47.8.2-95.7 0-143.6 0-8.9-.1-17.8.4-26.7-.2-3.6-2.6-6.5-6-9.6-9.2-2-1.9-1.3-4.8-1.4-7.3V58c.1-3.9-.3-7.7.2-11.6M46 74.6V136h61.8c-6.3-6.2-12.2-13-18.8-18.9-2.6-2.5-5.3-5-8.2-7.4-.6-1.1-1.6-2-2.6-3C67.4 96 56.8 85.2 46 74.6M188.1 97a231 231 0 0 0-12 11.3v.3a798 798 0 0 0-27.5 27.3H210V75.1c-7.3 7.3-14.7 14.5-21.9 22M58.6 155l3 12.7 1.2 4 .3 2.3H171c7.2-.1 14.4.3 21.6-.1l1.1-1.4c1.3-5.8 2.7-11.6 3.8-17.5-8.8 0-17.7-.1-26.5 0h-7a1469.8 1469.8 0 0 0-30.2.1c-25-.3-50.2 0-75.3-.1z"/><path fill="#e9e8e9" d="M46 74.6C56.8 85.2 67.5 96 78.2 106.7c1 1 2 1.9 2.6 3 .2 6 0 11.8 0 17.7H89v-10.3c6.6 6 12.5 12.7 18.8 18.9H46V74.6zM188.1 97c7.2-7.4 14.6-14.6 22-21.9V136h-61.5c6-6.2 12.2-12.3 18.4-18.4v9.8h9v-19c4-4 8-7.7 12.1-11.3z"/><path fill="#3c3a3c" d="M167 117.6c3-3 5.9-6.1 9-9v18.9l-9-.1v-9.8z"/><path fill="#393a39" d="M80.8 109.7c2.9 2.4 5.6 4.8 8.2 7.4v10.3h-8.1v-17.7z"/><path fill="#e7e8e9" d="M58.5 155c25.2 0 50.2-.2 75.3.1-.2 6.3-.2 12.6 0 19H63.2l-.3-2.4-1.2-4-3-12.7zm82.5 0h23v19h-23v-19zm30 0c8.8-.1 17.7 0 26.5 0l-3.8 17.5-1.1 1.4c-7.2.4-14.4 0-21.5.2l-.1-19z"/><path fill="#474547" d="M133.8 155.1h7.2v19h-7.1c-.3-6.4-.3-12.7 0-19zm30.2-.1h7v19h-7v-19z"/></svg>