<svg xmlns="http://www.w3.org/2000/svg" viewBox="0 0 257 257"><path fill="#756f94" d="M22.3 0h211.4c10.4 1 19.7 9.3 21.8 19.7l1.5-.2v17c-1.5 1-3 2-4.3 3.2l-13.5 13.7c-.5-7.1 0-14.3-.2-21.5 0-1.8-1.3-3.2-2.3-4.5l-9-10.2H28.3c-3 3.1-5.7 6.4-8.5 9.6-1.3 1.5-3 3-2.8 5.2v22.2C11.3 48.6 5.8 42.8 0 37.3v-15A25.5 25.5 0 0 1 22.3 0zM0 154h16.9c.3 23.7 0 47.4.1 71-.2 2 1.2 3.3 2.3 4.7l9 10.3h199.4l11.3-13.3c.1-24.2-.2-48.4.1-72.6H257v82.7l-1.4-.7c-1.9 9-9.2 17.2-18.4 19-1.5-.9-3.4.2-3.2 1.9H19.3l.6-1.4A25.4 25.4 0 0 1 0 233.7v-79.6z"/><g fill="#332e2e"><path d="M28.3 17.2h199.5c2.8 3.5 5.9 6.8 8.9 10.2 1 1.3 2.4 2.7 2.3 4.5.2 7.2-.3 14.4.2 21.5-31.2 31-62.3 62.3-93.5 93.4-2.2 1.6-1.5 4.5-1.5 7l2.8.2c30.7.2 61.4 0 92.1 0-.3 24.3 0 48.5-.1 72.8-3.8 4.3-7.6 8.7-11.3 13.2H28.3l-9-10.3c-1.1-1.4-2.5-2.8-2.3-4.7 0-23.6.2-47.3-.1-71 30.7 0 61.4.2 92.1 0l3-.2c-.2-1.9.4-4.2-1.2-5.6C79.6 116.8 48 85.7 17 54.2V32c-.1-2.2 1.5-3.7 2.8-5.2 2.8-3.2 5.6-6.5 8.5-9.6m108 108v28.6h3.7c.2-9.6.2-19.2.1-28.9l-3.8.2m-20.4 7.9c-.1 7-.1 14 .1 20.9l3.7-.1v-20.7l-3.8-.1M88 159v3.8h23V159H88m54 0v3.9h34V159h-34m-81.6 18.2c-.4 9.6-.3 19.2-.3 28.8 0 1.1.1 2.2.5 3.3 12-.6 24.2-.1 36.3-.3 32.9.1 65.7-.2 98.6.2 1-10.6.2-21.4.1-32-3.5-1.3-7.8-.2-11.6-.5H72c-3.8.3-8-.8-11.6.5z"/><path d="M72 128h7.3v16H72v-16zm104.7 0h7.3v16h-7.3v-16z"/></g><path fill="#212021" d="M252.7 39.7c1.3-1.3 2.8-2.2 4.3-3.2v8.7l-2 .7L147 154l-2.8-.3c0-2.4-.7-5.3 1.5-7l93.5-93.3 13.5-13.7zM0 37.3c5.8 5.5 11.3 11.3 17 17 31 31.4 62.6 62.5 93.8 93.9 1.6 1.4 1 3.7 1.1 5.6l-2.9.2-95-95c-5-4-9.4-9-14-13.5v-8.2z"/><path fill="#efedf4" d="M255 46l2-.8V154h-17.9c-30.7 0-61.4.2-92.1 0L255 46m-78.3 82v16h7.3v-16h-7.3zM0 45.5C4.6 50.1 9 55 14 59l95 95c-30.7.2-61.4 0-92.1 0H0V45.6M72 128v16h7.3v-16H72z"/><path fill="#7b5552" d="M136.3 125.1l3.8-.1v28.9l-3.8-.1V125zm-20.4 7.9l3.8.1v20.7l-3.7.1c-.2-7-.2-14-.1-21z"/><path fill="#735152" d="M88 159h23v3.9H88V159zm54 0h34v3.9h-34V159z"/><path fill="#786168" d="M60.4 177.2c3.5-1.3 7.8-.2 11.6-.5v14.1c-3.8-.2-7.5-.2-11.2 0-.4 6.2 0 12.3-.2 18.4-.4-1-.6-2-.5-3.2 0-9.6 0-19.2.3-28.8zm26.6-.5h82v13.6c-8.3.8-16.7.2-25 .3-19-.1-38 .4-57-.3v-13.6zm97 0c3.8.3 8-.8 11.6.5.1 10.6.8 21.4-.1 32-.3-6.1 0-12.3-.3-18.4-3.7-.2-7.5-.2-11.2 0v-14.1z"/><path fill="#e4dde4" d="M72 176.7h15v21.6H72v-21.6zm97 0h15v21.6h-15v-21.6z"/><path fill="#997981" d="M87 190.3c19 .7 38 .2 57 .3 8.3-.1 16.7.5 25-.3v8h15v-7.5c3.7-.2 7.5-.2 11.2 0 .4 6.1 0 12.3.3 18.4-32.9-.4-65.7 0-98.6-.2-12 .2-24.2-.3-36.3.3.2-6.2-.2-12.3.2-18.4 3.7-.3 7.5-.3 11.2 0v7.4h15v-8z"/><path fill="#4e4c64" d="M234 257c-.2-1.7 1.7-2.8 3.2-1.9l-.1 1.9H234z" opacity=".7"/></svg>