<svg xmlns="http://www.w3.org/2000/svg" viewBox="0 0 256 256"><path fill="#756f94" d="M22.6 0h210.6A25.4 25.4 0 0 1 256 22.5v211c-1 11.6-11 21.5-22.6 22.5H22.7A25.4 25.4 0 0 1 0 233.6v-211C1 10.9 11 1 22.6 0M19 51.3V119c28.1 0 56.2-.2 84.4.1-5.3-3.4-9.8-7.8-14.7-11.6-4.8-3.5-9.2-7.5-13.8-11.3a80 80 0 0 1-8-6.4C50.9 77.2 35.2 64 19 51.3m170 38.4a76.4 76.4 0 0 1-8 6.4c-3.2 3.1-6.8 5.7-10.2 8.7-6.3 4.4-11.7 10-18.2 14.3 28.1-.4 56.3-.1 84.4-.2V51.3c-16 12.7-31.7 26-48 38.4M13 138c-.3 24.4-.1 48.8 0 73.2 6.5.2 13 .2 19.5 0h12c.3-5 0-9.9 0-14.8 7.8-.2 15.6 0 23.4-.1.1 5 0 10 .2 14.9 4 .2 8.2.2 12.3 0 .2-5 0-9.9.1-14.8 7.8-.2 15.6-.1 23.4-.1.2 5 0 10 .2 14.9 4 .2 7.9.2 11.8 0 .2-5 0-10 .2-15h23.8c.2 5 0 10 .2 15 4 .2 7.9.2 11.8 0 .2-5 0-10 .2-15 7.8.1 15.6 0 23.4.2.1 4.9-.1 9.8.2 14.8 4 .2 8.2.2 12.3 0 .2-5 0-10 0-15 7.9.1 15.7 0 23.4.2 0 5-.2 9.9.1 14.8h12c6.5.2 13 .2 19.5 0 .1-24.4.3-48.8-.1-73.2-3.6 3.3-7 7.1-11 9.9-6.9.6-13.7-.1-20.5.3-.3 6.8.5 13.7-.4 20.5-9.5-.1-19 .1-28.6-.1-.3-6.9.1-13.7-.2-20.5h-17.1c-1.2 6.8-.3 13.7-.6 20.5-9.5.2-19 0-28.4 0-.3-6.8.1-13.6-.2-20.5h-15.8c-.3 6.9.1 13.7-.2 20.6l-28.4-.1c-.2-6.8.1-13.7 0-20.5H73.7c-.3 6.8 0 13.6-.2 20.5-9.7.2-19.3.1-29 0 0-6.8.3-13.7-.1-20.5-6.8-.2-13.6.4-20.4-.2-4-2.8-7.4-6.6-11-10z"/><path fill="#fff" d="M19 51.3c16 12.7 31.8 26 48 38.4V110h8V96c4.5 3.8 8.9 7.8 13.7 11.3 5 3.8 9.4 8.2 14.7 11.6-28.2-.3-56.3 0-84.4-.1V51.3zm170 38.4c16.3-12.4 32-25.7 48-38.4V119c-28.1.1-56.3-.2-84.4.2 6.5-4.3 11.9-10 18.2-14.3 3.4-3 7-5.6 10.3-8.7V110h7.9V89.7z"/><path fill="#232029" d="M67 89.7c2.5 2.3 5.1 4.5 8 6.4V110h-8V89.7zm114 6.4c2.9-1.9 5.4-4.1 8-6.4V110h-8V96z"/><path fill="#945f75" d="M13 138c3.7 3.3 7 7 11 9.9 6.9.6 13.7 0 20.5.2.4 6.8 0 13.7.1 20.5 9.7.1 19.3.2 29 0 .3-6.9-.1-13.7.2-20.5h17.6c.2 6.8 0 13.7.1 20.5 9.5.2 19 0 28.4 0 .3-6.8-.1-13.6.2-20.5H136c.3 6.9-.1 13.7.2 20.6l28.4-.1c.3-6.8-.6-13.7.6-20.5h17.1c.3 6.8-.1 13.6.3 20.5 9.5.2 19 0 28.5.1.9-6.8.1-13.7.4-20.5 6.8-.4 13.6.3 20.4-.3 4.1-2.8 7.5-6.6 11.1-10 .4 24.5.2 49 0 73.3-6.4.2-13 .2-19.4 0-1-9.6-.2-19.4-.6-29.1-63.3-.1-126.6-.2-189.8 0-.4 9.7.4 19.5-.6 29.2H13c-.1-24.5-.3-49 0-73.3z"/><path fill="#a77991" d="M33 182h190c.3 9.8-.5 19.6.5 29.3h-12c-.3-5 0-10 0-15H188c-.1 5 0 10-.2 14.9-4 .2-8.1.2-12.2 0-.3-5 0-10-.2-14.8-7.8-.2-15.6-.1-23.4-.1-.2 5 0 10-.2 14.9-4 .2-7.9.2-11.8 0-.2-5 0-10-.2-15H116c-.2 5 0 10-.2 15-4 .2-7.9.2-11.8 0-.2-5 0-10-.2-15-7.8.1-15.6 0-23.4.2l-.1 14.8c-4.1.2-8.2.2-12.3 0-.3-5 0-10-.2-15-7.8.1-15.6 0-23.3.2 0 5 .2 9.9-.1 14.8h-12c1-9.6.2-19.4.5-29.1z"/></svg>