<svg xmlns="http://www.w3.org/2000/svg" viewBox="0 0 256 256"><path fill="#756f94" d="M22.3 0h211.4A25.7 25.7 0 0 1 256 21.7v212.5a25.7 25.7 0 0 1-22.3 21.8H22.3A25.8 25.8 0 0 1 0 234.5V21.7A25.8 25.8 0 0 1 22.3 0M38 58.5V116h69.5c-2.3-1.8-4.3-4-6.7-5.7-5.3-3.7-9.5-8.5-15-12a63.8 63.8 0 0 0-8.9-7.7h1.2c-7-3.8-12.5-10-18.9-14.8-7.3-5.5-13.8-12-21.2-17.3m156.4 19.9c-5.5 4-10.2 9.3-16.3 12.4l1.2-.2c-2.5 2.8-5.8 4.6-8.3 7.1-7.2 6.2-14.8 11.9-21.8 18.2 22.9.2 45.8 0 68.8 0 0-19 .2-38-.2-57-7.7 6.5-15.8 12.7-23.4 19.5M13.1 108.6c-.2 27.8 0 55.6-.1 83.4h72a3809.6 3809.6 0 0 0 46.6 0c13.4 0 26.7.1 40-.1h6.4c12.4 0 24.7.2 37 0h28.7v-83.2c-5.8 7.8-9.6 16.9-15.2 24.7-2.6.5-5.2.2-7.8.2h-193l-14.6-25z"/><path fill="#e1887e" d="M38 58.5c7.4 5.4 14 11.8 21.2 17.3 6.3 4.9 11.9 11 18.9 14.8h-1.7v17l9.6-.3-.1-9c5.4 3.5 9.6 8.3 14.9 12 2.4 1.7 4.4 3.9 6.7 5.7H38V58.5zm156.4 19.9c7.6-6.8 15.7-13 23.4-19.5.4 19 .1 38 .2 57-23 0-46 .2-68.8 0 7-6.3 14.6-12 21.8-18.2v9.6l8.6.3V90.5l-.3.1-1.2.2c6.1-3.1 10.8-8.3 16.3-12.4z"/><path fill="#292421" d="M76.4 107.6v-17h.5c3.2 2.3 6.3 4.9 9 7.7v9l-9.5.3zm102.9-17l.4-.1-.1 17-8.6-.2v-9.6c2.6-2.5 5.8-4.4 8.3-7.1z"/><path fill="#e7e3f4" d="M13 108.6c5 8.3 10 16.6 14.7 25h7.6c.1 19.5-.1 39 .2 58.4H13v-83.4zm215.5 24.8c5.6-7.8 9.4-17 15.2-24.7v83.2h-23.2c.3-19.4 0-38.8.2-58.3 2.6 0 5.2.3 7.8-.2zm-186.8.3h36.5L78 192H41.6c.2-19.5 0-38.9.1-58.3zm43.3-.1h40V192H85v-58.4zm46.9 0h39.7V192c-13.3.2-26.6.1-40 0 .6-19.4.2-38.8.3-58.3zm46.3 0H215V192c-12.3.2-24.6 0-37 0 .4-19.4.1-38.8.2-58.3z"/><path fill="#adaab5" d="M35.3 133.7h6.4V192h-6.2c-.3-19.5 0-39-.2-58.3zm42.9-.1H85V192l-6.9.1c.2-19.5 0-39 0-58.4zm136.8.1h5.7c-.1 19.4.1 38.8-.2 58.3H215v-58.3z"/><path fill="#adabb7" d="M125 133.7h6.9c-.1 19.4.3 38.8-.3 58.3H125v-58.3zm46.6 0h6.6c0 19.4.2 38.8-.2 58.3l-6.3-.1c-.2-19.4-.1-38.8 0-58.2z"/></svg>