<svg xmlns="http://www.w3.org/2000/svg" viewBox="0 0 256 256"><g fill="#adabb2"><path d="M22.4 0h211.1A25.4 25.4 0 0 1 256 22.3V107c-6.6 0-13.1.2-19.7-.5V74.2c-18 3.5-36.2 6.6-54.3 10.1l-8.7 1.7c-4 .7-8.2 1.3-12.2 2.2v1.4l-6-2.3c-.5-8 .1-16.1-.3-24.2h-7.7c-.2 8.6 0 17.3 0 26-12.8-.2-25.4 0-38.1-.1l-.1-39-7.7.1c-.5 12.4.3 24.8-.3 37.2l-6 2.3v-1.3c-4-1-8.1-1.6-12.2-2.3L74 84.3c-18.1-3.5-36.3-6.6-54.4-10v32.2c-6.5.7-13 .5-19.6.4V22.4A25.5 25.5 0 0 1 22.4 0z"/><path d="M101.1 93.4l1-.1c.2 8.2 0 16.4.2 24.6 17.2.3 34.5.1 51.7.1h7l95 .1v115.6a25.5 25.5 0 0 1-22.4 22.3H22.5A25.5 25.5 0 0 1 0 233.7V118h100.8c.3-8.2-.5-16.4.3-24.6m-91 77.6v35.3h78.2c3-2.4 4.7-5.8 7-8.7h65.5c2 3 4.2 5.8 6.4 8.7H246V171h-23.3v7.6H182l-.1-7.6h-21.5a1658 1658 0 0 1-15.3 18.3c-1.1 1.8-3.5 1.2-5.3 1.4-9.3-.2-18.7 0-28-.1-5.6-6.5-11.2-12.8-16.4-19.6H74v7.6H33.4V171H10z"/></g><path fill="#a5a3aa" d="M101.2 50.1h7.7c.2 13 0 25.9 0 38.9l-.1 3.8-6.6.5-1 .1c-.9 8.2 0 16.4-.4 24.5l-5.7.2v-11.8L95 89.6l5.9-2.3c.6-12.4-.2-24.8.3-37.2zM147.1 63l7.7.1c.4 8-.2 16.1.3 24.2l6 2.3c-.2 5.5 0 11.1-.2 16.7V118H154c0-8.3.3-16.5-.1-24.8l-6.8-.6V89c0-8.6-.2-17.3 0-26z"/><path fill="#fff" d="M19.6 74.2C37.7 77.7 56 80.8 74 84.3V101h8.7V86c4 .7 8.2 1.3 12.2 2.3v1.3c.2 5.6 0 11.1.1 16.7-25 .1-50.2-.3-75.3.2V74.2zM182 84.3c18-3.5 36.3-6.6 54.4-10v32.2c-25.2-.5-50.3 0-75.5-.2l.1-16.7.1-1.4c4-1 8.1-1.5 12.2-2.3V101h8.7V84.3z"/><path fill="#313031" d="M74 84.3l8.7 1.7v15H74V84.3zm99.3 1.7l8.7-1.7V101h-8.7V86z"/><path fill="#b2b0b7" d="M109 89h38l.2 3.7 6.7.6c.4 8.3 0 16.5.1 24.7-17.2 0-34.5.2-51.7-.1-.3-8.2 0-16.4-.1-24.6l6.6-.5.2-3.8zM0 106.9c6.6.1 13.1.3 19.7-.4 25-.5 50.2 0 75.3-.2V118H0v-11.2zm161-.6c25 .1 50.2-.3 75.3.2 6.6.7 13.1.5 19.7.5v11h-95v-11.8z"/><path fill="#54514f" d="M10 171h23.3v7.6H74V171h21.5c5.2 6.8 10.8 13.1 16.3 19.6H140c1.8 0 4.2.5 5.3-1.3 5.2-6 10.3-12.2 15.3-18.3H182v7.6h40.6V171H246v35.3h-78.8c-2.2-2.9-4.4-5.7-6.4-8.7H95.3c-2.3 2.9-4 6.3-7 8.6-26.1.2-52.2 0-78.3 0V171z"/></svg>