<svg xmlns="http://www.w3.org/2000/svg" viewBox="0 0 256 256"><path fill="#f4d96d" d="M22.3 0h211.3A25.4 25.4 0 0 1 256 22.4v162.7h-27c-1.8 2.2-4 4.2-5.2 6.8-.5 6.6 0 13.2-.2 19.7a118 118 0 0 1-6.7 7.4h-48.6a168 168 0 0 0-5.8-7v-18.9c-1-3.1-3.8-5.3-5.5-8H99c-1.9 3.2-6 5.7-5.5 9.9v17a94 94 0 0 0-5.8 6.9H39.2c-2.2-2.4-5-4.3-6.7-7.2-.6-6.6.3-13.2-.3-19.9-1.2-2.6-3.5-4.6-5.3-6.8-9-.2-18 .3-26.9-.4V22.5A25.5 25.5 0 0 1 22.3 0m68.8 25.1c-.4 5-.3 9.8 0 14.8 24.6.2 49.2.2 73.8 0 .4-5 .4-9.9 0-14.8H91.1M23.2 48.3c-2.9 3.6-4.6 7.9-7 11.9-2.1 3.8-4.6 7.5-6.3 11.6 7.7.6 15.4.2 23.1.3 14-.1 28 .3 42-.2-3.4-7.6-8.5-14.2-12.4-21.6-1.1-2.7-4.3-2.2-6.7-2.2-10.9.2-21.8-.3-32.7.2m171.5.4c-1.4 1.5-2.2 3.2-3.2 4.9-3.3 6.2-7.8 11.8-10.6 18.2 19.3.6 38.8.1 58.2.3 2.4 0 5 .4 7.2-.8-4.8-7.5-8.7-15.6-13.6-23-11-.4-21.8 0-32.7-.2-1.8.1-3.8-.3-5.3.6M91 71.2c-.3 4.9-.3 9.8 0 14.7h74c.1-4.9.2-9.8-.1-14.6a3631 3631 0 0 0-73.8-.1m-66 8.7c-.2 21 0 42 0 63H231V79.8c-2.2 2-4.3 4-6.3 6.3H180c0 8.5-.2 17 .1 25.4-3 3.2-5.4 7.3-9.1 9.9-28.7.2-57.4-.1-86 .1a62 62 0 0 1-9.1-10.1c.3-8.5 0-16.9 0-25.3H31.5c-2-2.2-4-4.2-6.3-6.1z"/><path fill="#e7cd68" d="M91 25.1h74c.3 5 .3 9.9-.2 14.8-24.5.2-49 .2-73.6 0-.4-5-.5-9.9-.1-14.8zm.1 46.1c24.6-.2 49.2-.3 73.8 0 .3 5 .2 9.8 0 14.7H91c-.2-4.9-.2-9.8.1-14.7z"/><path fill="#e7cf6b" d="M23.2 48.3c11-.4 21.8 0 32.7-.2 2.4 0 5.6-.5 6.7 2.2 4 7.4 9 14 12.5 21.6-14 .5-28 0-42 .2-7.8 0-15.5.3-23.2-.3 1.7-4 4.2-7.8 6.3-11.6 2.4-4 4.1-8.3 7-12M25 52c-2.7 5.5-5.3 11-8.3 16.3h51.6c-2.5-5.6-6.5-10.5-8.8-16.2A221.2 221.2 0 0 0 48 52H25zm169.7-3.3c1.5-.9 3.5-.5 5.3-.6 10.9.2 21.8-.2 32.7.1 5 7.5 8.8 15.5 13.6 23-2.2 1.3-4.8.9-7.3 1-19.3-.3-38.8.2-58.1-.4 2.8-6.4 7.3-12 10.6-18.2 1-1.7 1.8-3.4 3.2-4.9m1.8 3.4c-2.7 5.5-6.3 10.6-8.8 16.2h51c-2.1-5.6-5-10.8-7.7-16.3h-28.7l-5.8.1z"/><path fill="#f7f5f7" d="M25 52h23v5.7h5.6V52l5.9.1c2.3 5.7 6.3 10.6 8.8 16.2H16.7c3-5.3 5.6-10.8 8.3-16.3zm171.5.1l5.8-.1v5.6h5.7V52h23c2.6 5.5 5.6 10.7 7.6 16.4h-51c2.6-5.7 6.2-10.8 8.9-16.3z"/><path fill="#291c18" d="M48 52h5.7v5.6H48V52zm154.3 0h5.7v5.7h-5.6V52z"/><path fill="#91666b" d="M25.1 79.9c2.2 1.9 4.3 4 6.3 6L76 86c0 8.4.2 16.8-.1 25.3-6.3-1-12.6-.5-18.8-.6-4.3-.1-8.5-.1-12.8.3v32H25c0-21-.1-42 .1-63.1zM224.7 86c2-2.2 4-4.3 6.3-6.3V143h-19.3v-32c-5.5-.6-11.1-.3-16.7-.3-5 0-10-.5-14.9.7-.3-8.5 0-17 0-25.4h44.6z"/><path fill="#bd8e94" d="M44.3 111c4.3-.4 8.5-.4 12.8-.3 6.2 0 12.6-.5 18.8.6 2.7 3.6 5.6 7.1 9 10.1 28.7-.2 57.4.1 86-.1 3.8-2.6 6.2-6.7 9.2-10 5-1 10-.6 15-.6 5.5 0 11-.3 16.6.3v32H44.3v-32z"/><path fill="#7b736d" d="M0 184.7c9 .8 18 .2 26.9.4 1.8 2.2 4.1 4.2 5.3 6.8.6 6.7-.3 13.3.3 20 1.6 2.8 4.5 4.7 6.7 7l48.5.1a94 94 0 0 1 5.8-6.9V195c-.4-4.2 3.6-6.7 5.5-10h58c1.7 2.8 4.5 5 5.4 8.1.2 6.3 0 12.7 0 19 2 2.3 4 4.5 5.9 7l48.6-.1a118 118 0 0 0 6.7-7.4c.2-6.5-.3-13.1.2-19.7 1.2-2.6 3.4-4.6 5.3-6.9H256v48.6a25.5 25.5 0 0 1-22.3 22.4H22.3A25.5 25.5 0 0 1 0 233.7v-49z"/></svg>