<svg xmlns="http://www.w3.org/2000/svg" viewBox="0 0 256 256"><path fill="#8c7360" d="M21.6 0H70v44H15.7c.1-14-.1-28 .2-41.9l1.2-.9c1.5-.5 3-.9 4.6-1.2zm175.2 0h37.3c1.6.3 3.2.7 4.7 1.2l1.4.8c.3 14 0 28 .2 42H197c-.2-14.7.1-29.4-.2-44z"/><g fill="#f7dd42"><path d="M70 0h16v44h83.4c.3-14.7-.2-29.3.2-44H186c.3.5 1 1.3 1.2 1.8-.2 31.8 0 63.5-.1 95.3h-28.4l-9 7.9v72l8.8 8H225c5.6.2 8.8-5.1 12.7-8.2-.2-19.3 0-38.5-.1-57.8-.1-4.5.5-9.1-.4-13.6-2-2.8-5-5-7.8-7-2.4-1.7-5.5-1.4-8.4-1.5-8 .2-16 0-24 .2V44h43.3c0-14 .2-28 0-42l-1.5-.8c9.1 2.8 16 11.3 17.2 20.8v211.8a25.5 25.5 0 0 1-22.4 22.2h-211A25.4 25.4 0 0 1 0 233.6v-211C.9 12.9 7.8 4.2 17 1.2c-.3.3-1 .7-1.2 1-.3 13.9 0 27.8-.2 41.8h54.5V0M19 151h23c1 3 1.8 5.9 2.6 8.9 13.7.2 27.4 0 41.2 0V151c-3.5-5.5-6.6-11.3-9.8-17l-8.8-.1H59c-10 .2-20-.3-30.1.2-4 5-6.5 11.2-9.8 16.8z"/><path d="M186.7 125c0-1.1 0-2.2.2-3.3v6.6H197c0-2.2.2-4.4.1-6.6l.2 3.3h8.8l4 3.8-.1 5.2h-30.3l-3.1 4.7c0-3 .1-6.2 0-9.3a380 380 0 0 0 3.8-4.4h6.3z"/></g><path fill="#d8ace1" d="M86 0h83.6c-.4 14.7 0 29.3-.2 44H86V0z"/><path fill="#cdc59f" d="M186 0h.8l.3 1.8-1.2-1.8z"/><path fill="#605d5a" d="M186.8 0h10c.3 14.7 0 29.3.2 44v53c0 8.2-.2 16.4.1 24.6v6.6H187c0-2.2-.2-4.4-.1-6.6.3-8.2 0-16.4 0-24.6.2-31.8 0-63.5.2-95.3l-.3-1.8z"/><path fill="#a2a09c" d="M158.6 97l28.4.1c0 8.2.2 16.4-.1 24.6l-.3 3.3h-6.3a380 380 0 0 1-3.6 4.3l-.1 9.4c-.1 4.2.3 8.4.6 12.5l-.2.3-1 1.7 4.2 4.1c9 .2 17.8 0 26.8 0l3-3.2v-25.3l-3.9-3.8h-8.8l-.2-3.3c-.3-8.2 0-16.4 0-24.6 8-.1 16 0 24-.2 2.8 0 5.9-.2 8.3 1.5 2.8 2 5.8 4.2 7.8 7 1 4.5.3 9.1.4 13.6v57.8c-3.8 3-7 8.4-12.6 8.2h-66.6l-8.7-8v-72l9-8z"/><path fill="#ececec" d="M19 151c3.4-5.6 5.9-11.8 9.9-16.8 10-.5 20 0 30.1-.2v10h8.3v-10h8.9c3.1 5.8 6.2 11.6 9.8 17H19zm157.6-12.3l3.1-4.7h8.3v10h8.3v-10H210v17c-11 .1-21.8-.3-32.8.2-.3-4.1-.7-8.3-.6-12.5z"/><path fill="#312a0d" d="M59 134h8.3v10H59v-10zm129 0h8.3v10H188v-10z"/><path fill="#f1cd36" d="M42 151h44l-.1 8.9c-13.8 0-27.5.2-41.2 0L42 151z"/><path fill="#efcf39" d="M177 151.4l.2-.2c11-.5 21.9 0 32.8-.2v3.1l-3 3.3h-26.8l-4.1-4.2 1-1.8z"/></svg>