<svg xmlns="http://www.w3.org/2000/svg" viewBox="0 0 256 256"><path fill="#63b6fc" d="M22.3 0h211.3c11.3 1 21 10.5 22.4 21.8V84c-7.1.1-14.3 0-21.4 0v2.5c-.2-4.8 0-9.7.1-14.5H202l-.8-2.6c-.6-13.5 0-27-.2-40.5 0-3.1-2.2-7.3-6-6.9h-24c-3.1-.3-4.5 3-6.3 5 .2 19 0 38 0 57H91.4V30c.4-3.2-1.7-5.7-3.5-8H58.5c-1.5 2.4-3.7 4.9-3.5 8-.2 13.1.4 26.3-.2 39.5L54 72H21.3c-.1 4.6.5 9.2.2 13.8l-.7-1.3-1.4-.5H0V22.5A25.5 25.5 0 0 1 22.3 0z"/><path fill="#d38c4f" d="M58.5 22h29.3c1.8 2.3 4 4.8 3.5 8v54h73.4l-.1-57c1.8-2 3.2-5.3 6.3-5H195c3.7-.4 5.9 3.8 5.9 7 .2 13.4-.4 27 .2 40.4l.2 2.6h-29c-4.2 17.4-7.6 35-11.4 52.4h73.6c0-12.7.2-25.3 0-37.9V84c7.1.2 14.3.2 21.4 0v56c-8 .2-16-.1-24.1.1-3.7-.2-6 3.7-5.9 7v30h-67c-3.4 0-7-.5-10.3.7-7 3.5-13.2 8.8-20.6 11.6-6.7-2.8-12.4-7.3-18.8-10.6-3.6-2.4-8.2-1.7-12.3-1.8H30.3c.2-9.3.1-18.6.2-27.9.4-3.5-1.3-6.5-3.4-9-8.4.1-16.9-.2-25.3 0 .5-1.5-.1-2.2-1.8-2V84h19.4l1.4.5.7 1.3c-.4 12.8 0 25.7-.2 38.5h74c-3.7-17.5-7.4-35-11.4-52.3H54.6l.2-2.5c.6-13.2 0-26.4.2-39.5-.2-3.1 2-5.6 3.5-8z"/><path fill="#fcfcff" d="M54 72l.8-2.5-.2 2.5h29.3c4 17.4 7.7 34.8 11.4 52.3h-74c.1-12.8-.2-25.7.2-38.5.3-4.6-.3-9.2-.2-13.8H54m6 18v10.3h11.3V90H60.1zm141.2-20.6l.8 2.6h32.7c0 4.8-.3 9.7-.1 14.5.2 12.6 0 25.3 0 37.9H161c3.8-17.5 7.2-35 11.4-52.4h29l-.2-2.6M184.7 90v10.3h11.6V90h-11.6z"/><path fill="#4a4a4a" d="M60 90h11.3v10.3H60V90zm124.7 0h11.6v10.3h-11.6V90z"/><path fill="#a5825a" d="M0 138c1.7-.2 2.3.5 1.8 2l-1.8-.3V138z"/><path fill="#ecdddb" d="M0 139.8l1.8.3c8.4-.3 16.9 0 25.3-.2 2.1 2.6 3.8 5.6 3.4 9.1 0 9.3 0 18.6-.2 28H97c4.1 0 8.7-.7 12.3 1.7 6.4 3.3 12.1 7.8 18.8 10.6 7.4-2.8 13.6-8 20.6-11.6 3.3-1.2 6.9-.7 10.3-.8h67v-30c0-3.2 2.2-7.1 5.9-6.9 8-.2 16 0 24.1 0v93.6a25.5 25.5 0 0 1-22.3 22.4H22.5A25.4 25.4 0 0 1 0 233.7v-94z"/></svg>