<svg xmlns="http://www.w3.org/2000/svg" viewBox="0 0 256 256"><path fill="#63b6fc" d="M16.5 0h221a25.5 25.5 0 0 1 17 19c.4-.3 1.2-.6 1.5-.7V42h-16.9c-1 1.5-2.6 3-2.4 5v41.6H217V32a6.9 6.9 0 0 0-3.4-6.5c-7.6-.3-15.2 0-22.8 0l-2.5 3.1c.2 20-.2 40 .2 60-6.8.2-13.7 0-20.5 0V21c0-2.6-2-6-5-5.7-7.6 0-15.3-.2-22.9.1a6 6 0 0 0-3 5.6l-.1 67.8h-20V20.9c.3-2.4-1.4-4.2-3-5.8-7.7.2-15.4 0-23 .1-2.6-.3-4.5 2.3-4.4 4.7v68.7c-6.8.1-13.7 0-20.5 0V32c.2-2.6-1.2-4.8-2.7-6.6H42c-3.3-.3-5 3.6-5 6.5v56.8H17.4V46.8c.1-2-1.5-3.4-2.5-5H0V16.7A25.7 25.7 0 0 1 16.5 0z"/><path fill="#d38c4f" d="M86.6 19.9c-.1-2.4 1.8-5 4.4-4.7h23c1.6 1.5 3.3 3.3 3 5.7v67.8h20V20.9a6.2 6.2 0 0 1 3.1-5.6c7.7-.3 15.3 0 23 0 2.9-.3 4.9 3 4.9 5.6v67.8l20.5-.1c-.4-20 0-40-.2-60l2.4-3.2c7.7 0 15.3-.2 23 .1A6.9 6.9 0 0 1 217 32v56.7h19.6V46.8c0-2 1.5-3.4 2.5-5H256V121l-.4.8c-5.8.3-11.7 0-17.5 0-1 2.3-2.3 4.6-2.1 7v68.3c-6.6-.2-13.2 0-19.7-.2v-18c.2-2.6-1.2-4.9-2.5-7h-44.2c-3 8-1.1 16.8-1.6 25.2a6220 6220 0 0 0-82 0c-.5-8.4 1.3-17.1-1.6-25.2H40.2c-1.3 2-2.7 4.3-2.5 7v18c-6.6.2-13.1 0-19.7.2V129c.1-2.5-1.1-4.8-2.1-7H0V42h14.9c1 1.5 2.6 3 2.4 5v41.6H37V32c0-2.9 1.7-6.8 5-6.5h21.4c1.5 1.9 2.9 4 2.6 6.6.1 18.9 0 37.8 0 56.7h20.6v-69M28 103v43h77.2A1737 1737 0 0 0 90 103H28m135.9 0c-5.1 14.3-10.2 28.7-15 43H226v-43h-62z"/><path fill="#fff" d="M28 103h62a1737 1737 0 0 1 15.2 43H28v-43m38 19v14h8.3v-14h-8.2zm97.9-19H226v43h-77.2l15-43m15.8 19v14h8.3v-14h-8.3z"/><path fill="#ecdddb" d="M0 122h15.9c1 2.2 2.2 4.5 2.1 7v68.2c6.6-.2 13.1 0 19.7-.2v-18c-.2-2.7 1.2-5 2.5-7h44.2c3 8 1.1 16.8 1.6 25.2 27.3-.2 54.7-.2 82 0 .5-8.4-1.4-17.1 1.6-25.2H214c1.2 2.1 2.6 4.4 2.4 7v18c6.5.2 13.1 0 19.7.2V129c-.2-2.5 1.1-4.8 2.1-7 5.8-.1 11.7.2 17.5-.1l.4-.9v116.2l-1-4a26.3 26.3 0 0 1-21.6 21.9l3.5.9H18.2l.8-1.4a25.6 25.6 0 0 1-19-17.1V122z"/><path fill="#47474a" d="M66 122h8.3v14h-8.2v-14zm113.7 0h8.2v14h-8.3v-14z"/></svg>