<svg xmlns="http://www.w3.org/2000/svg" viewBox="0 0 256 256"><path fill="#de415a" d="M22.6 0h210.6A25.3 25.3 0 0 1 256 22.6V161H0V22.8A25.3 25.3 0 0 1 22.6 0M19 80v47h76c-6.2-4.3-13-7.5-19-12.1l-1 1.4v-1.9c-4.7-1.8-8.2-6.5-13.3-6.9l-.1-1 2.4.7v-3.3c-1.5 0-2.9.3-4.3.6l1 1.2c-14-8.4-27.8-17-41.7-25.6m176.2 25.7l1.2-1.2c-1.4-.4-2.9-.7-4.4-.7v3.3l2.3-.8v1.1c-3-.3-5.2 2.2-7.6 3.5-2.2 1.6-5 2.4-6.5 4.8v-.9L161 127l76 .1V80l-41.8 25.8z"/><path fill="#e9ebef" d="M19 80c13.9 8.7 27.8 17.3 41.8 25.7l.8.7v1.1c.2 4.8 0 9.6 0 14.5H75v-5.7l1-1.4c6 4.5 12.8 7.8 19 12l-76 .1V80zm176.2 25.8L237 80v47h-76l19.1-12v.8l.3 6.2h14v-15.6l.8-.7zM0 161h256v72a25.2 25.2 0 0 1-22.8 23H23a25.2 25.2 0 0 1-23-22.7V161z"/><path fill="#b2525f" d="M59.7 104.5c1.4-.3 2.8-.5 4.3-.6v3.3l-2.4-.8-.8-.7-1.1-1.2zm132.3-.6c1.5 0 3 .3 4.4.7l-1.2 1.2-.9.6-2.3.8V104z"/><path fill="#232121" d="M61.7 107.5c5.1.4 8.6 5.1 13.3 7v7.5H61.7v-14.5z"/><path fill="#232421" d="M186.7 111c2.4-1.3 4.7-3.8 7.6-3.5V122h-14l-.1-6.3c1.4-2.3 4.3-3.1 6.5-4.7z"/></svg>