<svg xmlns="http://www.w3.org/2000/svg" viewBox="0 0 256 256"><path fill="#e9ebef" d="M22.4 0h211A25.4 25.4 0 0 1 256 22.4V144H0V22.4A25.5 25.5 0 0 1 22.4 0m23 33.8l-5.8 6.8c-8.5 8.8-16 18.6-24.9 27.1 1 3.3 4.3 4.7 6.5 6.9 8.2-9.8 17.3-18.8 25.2-28.7a4380 4380 0 0 1 62.1 52l5.4-6c-16.6-15-34.5-28.7-51.3-43.6-2.8-1.4-4.5-4.2-7.2-5.6l-4.8-4.4c-2-1-3.7-2.8-5.2-4.5m165.1 0a93.2 93.2 0 0 1-3.8 3.9c-2.8 1.4-4.7 4-7 6-3.2 1.7-5.3 4.7-8 7-2.4 1.2-4 3.3-6 5-12.3 10.4-24.4 21-36.7 31.6l-6.7-19h-6c2.6 10 6 19.5 8.8 29.4l4.7.3c14-12.3 28.2-24.5 42.2-36.9 6-5 11.5-10.5 17.6-15.3l1.7 2.8a400 400 0 0 1 23.1 26c2.3-1.8 4.8-3.4 6.7-5.6-2.6-4.8-7.1-8.2-10.4-12.6A833.1 833.1 0 0 1 210.5 34M78 94v33h10.2V94H78m89.8 0v33h9.2V94h-9.2z"/><path fill="#363231" d="M45.4 33.8c1.5 1.7 3.1 3.5 5.2 4.5l4.8 4.4c2.7 1.4 4.5 4.2 7.2 5.6C79.4 63.2 97.3 77 114 92l-5.4 6a7116.3 7116.3 0 0 0-62-52c-8 9.9-17 19-25.3 28.7-2.3-2.2-5.5-3.6-6.5-6.9 9-8.5 16.4-18.3 25-27 2-2.3 3.7-4.7 5.7-6.9zm165.1.1c6.6 7.6 13.4 15 20.2 22.5 3.3 4.4 7.8 7.8 10.4 12.6-2 2.2-4.4 3.8-6.7 5.5a400 400 0 0 0-23.1-25.9l-1.7-2.8c-6.1 4.8-11.6 10.4-17.6 15.3l-42.2 37-4.7-.4c-2.7-9.9-6.2-19.5-8.8-29.4h6l6.7 19c12.3-10.5 24.4-21.2 36.7-31.6 2-1.7 3.6-3.8 6-5 2.7-2.3 4.8-5.3 8-7 2.3-2 4.2-4.6 7-6l3.8-3.8zM78 94h10.2v33H78V94zm89.8 0h9.2v33h-9.2V94z"/><path fill="#de415a" d="M0 144h256v89.7a25.5 25.5 0 0 1-22.3 22.3H22.4A25.5 25.5 0 0 1 0 233.7V144m38.7 27v35.4l5.8 5.6h123.8l.5-2.6.2 2.8 7-.2.8-2.6v2.6H217c1.8-2 3.4-4.2 5-6.3.2-11.6.5-23.1.4-34.7H38.7z"/><path fill="#eff1f4" d="M38.7 171h183.6c.1 11.6-.2 23.1-.3 34.7l-5 6.3h-23.2l.3-1.8c-.2-6.8 0-13.7 0-20.5h-8c-.1 6.8 0 13.7-.2 20.5l.3 1.9-9.3-.1v-15h-8.2l.1 12.4-.5 2.6H44.5l-5.9-5.6c.2-11.8 0-23.6 0-35.4z"/><path fill="#424342" d="M186 189.7h8v20.5c-1.4-.4-2.1.2-1.9 1.8H188c.2-1.6-.5-2.2-2-1.8.2-6.8 0-13.7.1-20.5zm-17.3 7.3h8.2v12.4l-1 2.6-6.9.2-.2-2.8V197z"/><path fill="#842029" d="M186 210.2c1.4-.4 2.1.2 2 1.8h-1.8l-.3-1.8zm6.1 1.8c-.2-1.6.5-2.2 2-1.8l-.3 1.9H192z"/></svg>