<svg xmlns="http://www.w3.org/2000/svg" viewBox="0 0 256 256"><g fill="#f4e4e4"><path d="M22.5 0h91v34H198v19H22c-7.3 0-14.7.5-22-.8V22.7A25.4 25.4 0 0 1 22.5 0z"/><path d="M144 0h54v14.3c-17.8.2-35.7 0-53.5.1-.6-4.8-.4-9.6-.5-14.4zm85.8 0h3.6C245 1 255 11 256 22.6V52c-8.8 1.8-17.7.5-26.6.9V14c0-4.7-.3-9.3.4-14z"/></g><path fill="#c0b0b2" d="M113.5 0H144c.1 4.8 0 9.6.5 14.4H198V0h31.8c-.7 4.7-.3 9.3-.4 14v39c.2 14.5-.5 29 .4 43.6-5.3 3.7-11.3 6.1-16.9 9.3-4.9 2.5-9.5 5.6-14.8 7.4-.3-20 0-40.2-.1-60.3V34h-84.4V0z"/><path fill="#f1dfde" d="M0 52.2c7.3 1.3 14.7.8 22 .8h176c0 20.1-.2 40.2.1 60.3-9.5 4.5-18.6 9.9-28 14.7-6.3 3.4-12.9 6.5-19.1 10.2v6.7c30.7.3 61.3.2 92 0 0-17.6.2-35.3 0-53-5-.3-9.5 1.8-13.2 4.7-1-14.5-.2-29-.4-43.6 8.9-.4 17.8.9 26.6-.9v181.2a25.4 25.4 0 0 1-22.4 22.7h-211C10.9 255 1 245 0 233.4V52.2m19.3 40c-.2 17.5-.1 35 0 52.6 2.5.2 5 .3 7.7.3 28.2-.3 56.5.3 84.8-.3v-6.4a8499.6 8499.6 0 0 1-84.5-44.8 12.9 12.9 0 0 0-8-1.5m82.2 90.3c-3.3 10-5.9 20.4-9 30.6h77.7c-2.6-10.3-6.2-20.4-8.5-30.7h-60.2z"/><path fill="#decfce" d="M19.3 92.1c2.8-.3 5.6 0 8 1.5 28.1 15 56.2 30 84.4 44.8l.1 6.4c-28.3.5-56.6 0-84.8.3-2.6 0-5.2 0-7.8-.3V92.1m4.6 6c-.3 13.2-.2 26.6 0 39.9h74.7c-3.3-2.6-7-4.1-10.7-6-2.9-1.5-5.5-3.8-8.8-4.2v-.3c-3.1-2-6.5-3.7-9.7-5.5l.3-1.5c-2-.2-4-.4-5.8-1.3-13.3-7-26.4-14.5-40-21.2z"/><path fill="#e1cfce" d="M229.8 96.6c3.7-3 8.3-5 13.1-4.7.3 17.7.2 35.4 0 53-30.6.2-61.3.3-91.9 0v-6.7c6.2-3.7 12.8-6.8 19.2-10.2 9.3-4.8 18.4-10.2 28-14.7 5.2-1.8 9.8-5 14.8-7.4 5.5-3.2 11.5-5.6 16.8-9.3m3.3 4.4c-13.1 6.9-26 14-39.1 20.8-3.4 1.8-6.5 4-10 5.4v.5c-6.7 2.8-13.1 6.3-19.3 10 6.1.5 12.2.2 18.4.3 18.9 0 37.8.1 56.8-.1v-40a21 21 0 0 0-6.8 3.1z"/><path fill="#efedf4" d="M23.8 98c13.6 6.7 26.7 14.2 40 21.2 1.8 1 3.8 1 5.8 1.3l-.3 1.5c-.6 4.2-.2 8.5-.3 12.7h10v-6.9c3.3.4 6 2.7 8.8 4.2 3.6 1.9 7.5 3.4 10.7 6H23.8c-.2-13.3-.3-26.7 0-40zm209.2 3c2.2-1.3 4.4-2.6 6.8-3.2.2 13.4 0 26.7 0 40.1-18.9.2-37.8 0-56.7.1-6.2 0-12.3.2-18.4-.2 6.2-3.8 12.6-7.3 19.3-10v6.9h10v-12.9c13-6.8 26-14 39-20.8z"/><path fill="#3c3939" d="M69 134.7c0-4.2-.3-8.5.3-12.7 3.2 1.8 6.6 3.5 9.7 5.5v7.2H69zm115-7.5c3.5-1.5 6.6-3.6 10-5.4v12.9h-10v-7.5z"/><path fill="#a59394" d="M101.5 182.3h60.2c2.3 10.3 5.9 20.4 8.5 30.7H92.6c3-10.2 5.6-20.6 9-30.7z"/></svg>