<svg xmlns="http://www.w3.org/2000/svg" viewBox="0 0 256 256"><path fill="#579363" d="M22.2 0h211.5A25.6 25.6 0 0 1 256 22.2v6.6a39 39 0 0 0-10.8.1 50.8 50.8 0 0 0-11.4 11.3c-4.9.3-9.9.6-14.6-.9-3.2-4-7-7.3-10.8-10.6-53.6-.1-107.3-.2-160.9 0-3.7 3.7-7.4 7.3-10.8 11.3-4.8.4-9.7.5-14.5.2-2.6-4.7-7-8-10.8-11.7L0 28.6v-6.4A25.6 25.6 0 0 1 22.2 0z"/><path fill="#efebb7" d="M0 28.6h11.4c3.8 3.6 8.2 6.9 10.8 11.6-.4 55 0 109.8-.2 164.8-.2 5.3.6 10.7-.4 16-2.6 3.6-6.6 6-10 9H0V28.6zm47.5.1c53.7-.2 107.3-.1 161 0 3.8 3.3 7.5 6.7 10.7 10.6.2 60.6 0 121.2 0 181.7-3.5 2.9-6.5 6.5-10.7 8.5-4 1-8.3.4-12.5.5H62c-4.7 0-9.4.5-13.9-.4a36.8 36.8 0 0 1-9.6-7.3c-1.7-1.3-1.4-3.5-1.6-5.3.2-54.3 0-108.7.1-163 0-4.6 0-9.3-.3-14 3.4-4 7.1-7.6 10.8-11.3m44.7 35.6l-.1 2.4c-3 .3-6 .9-9.1 1.4l-22.8 4.1v24c15.9.2 31.8 0 47.7 0V63.7c-4.5 1-9 1.5-13.6 1.6l-.4-.8 2-.6-3.7.4m55.9-.7v32.6H196v-24c-7.7-1.3-15.2-3-22.9-4.1l-9-1.4-.2-2.4-3.7-.4 1.7.4-.1 1a84 84 0 0 1-13.6-1.7M69.6 114c0 7.4 1.2 14.7 1.2 22 0 3 .5 6 1 9-.3 8.3 1.4 16.6 1.3 25 .9 7.3 1 14.7 1.8 22h106.8c-.3-9 1.5-18 1.5-27 1-6.6.6-13.3 1.5-20l2-31h-117zm164.2-73.9c3-4.4 7.2-8 11.4-11.2 3.5-.7 7.2-.3 10.8 0V230c-3.8 0-7.8.5-11.5-.6-4-2.2-7-5.5-10.5-8.3v-165l-.2-16z"/><path fill="#a79c91" d="M219.2 39.3c4.7 1.5 9.7 1.3 14.6.9 0 5.3.3 10.5.2 15.8v165.1c3.5 2.8 6.6 6.2 10.5 8.3 3.7 1.1 7.7.6 11.5.6v3.8a25.6 25.6 0 0 1-22.1 22.2H22.2A25.6 25.6 0 0 1 0 233.7V230h11.7c3.3-3 7.3-5.4 10-9 1-5.3.1-10.7.3-16 .1-55-.2-109.9.2-164.8 4.8.3 9.7.2 14.6-.2.2 4.7.3 9.4.2 14v163c0 1.8-.2 4 1.5 5.3a36 36 0 0 0 9.6 7.3c4.5 1 9.2.3 13.8.4h134c4.3 0 8.5.6 12.6-.5 4.2-2 7.2-5.6 10.8-8.5 0-60.5.1-121.1-.1-181.7z"/><path fill="#474636" d="M92.2 64.3L96 64l-2 .6.4.8c-.4 3.8-.3 7.5-.3 11.3H83V68l9-1.4.2-2.4zm67.9-.3l3.7.3.1 2.4c3 .3 6 .9 9.1 1.4v8.5h-11c0-3.8.1-7.5-.3-11.3l.1-1-1.7-.4z"/><path fill="#fff" d="M94.3 65.3c4.6-.1 9.1-.7 13.6-1.6v32.5c-16 0-31.8.2-47.7 0v-24c7.6-1.4 15.2-2.9 22.8-4.1v8.5h11c0-3.8-.1-7.5.3-11.3zm53.8-1.7c4.5 1 9 1.5 13.6 1.7.4 3.8.3 7.5.3 11.3h11V68c7.7 1.1 15.2 2.8 22.9 4v24.1H148V63.6zM84 114h15v14H84v-14zm73 0h15v14h-15v-14z"/><path fill="#aa8384" d="M69.6 114H84v14h15v-14h58v14h15v-14h14.8l-2.1 31H71.8c-.5-3-1-6-1-9 0-7.3-1.2-14.6-1.2-22z"/><path fill="#c8a6aa" d="M71.8 145h112.9c-.9 6.7-.6 13.4-1.5 20 0 9-1.8 18-1.5 27H74.9c-.7-7.3-1-14.7-1.8-22 0-8.4-1.5-16.7-1.3-25z"/></svg>