<svg xmlns="http://www.w3.org/2000/svg" viewBox="0 0 256 256"><path fill="#ba845a" d="M22.4 0H223v45H98.9c-3.2 3.4-7.2 6-10.2 9.6-1 4.4-.2 9-.4 13.4-.1 14.7.2 29.5-.2 44.2-3.3.7-6.7.3-10.1.4l-44-.1c-7.4-.5-12.7 5.5-18.7 8.8v88c3.8 3.5 7.3 7.1 10.9 10.7h67.2v36h-71A25.5 25.5 0 0 1 0 233.6v-211A25.4 25.4 0 0 1 22.4 0z"/><path fill="#cecdce" d="M223 0h10.4A25.4 25.4 0 0 1 256 22.5V220H125v36H93.4v-36H26.2c-3.6-3.6-7.1-7.2-10.8-10.6v-88.1c5.9-3.3 11.2-9.3 18.5-8.8h44c3.5 0 6.9.4 10.2-.3.4-14.7 0-29.5.2-44.2.2-4.5-.6-9 .4-13.4 3-3.6 7-6.2 10.2-9.6h124l.1-45m-72.5 90.5c-3.1 2.9-6.4 5.6-9.4 8.6-1.7 1.5-1 4-1.3 6 .2 21.6 0 43.2.2 64.8 3.5 2.8 6.6 6 10 9 1.7 1.4 4 1.2 6 1.3l71-.1c4-3.4 7.7-7.2 11.9-10.3.3-23.3 0-46.5.1-69.7L226 89h-70c-2 0-4.1 0-5.5 1.5M47 163.7v29l4.8 5.3h25.4c3.5 0 5.6-3.4 8-5.4v-28.3l-5.4-4.6H52a62.4 62.4 0 0 0-5 4z"/><path fill="#d6b47e" d="M150.5 90.5c1.4-1.6 3.5-1.5 5.4-1.5h70.2c4.2 3.8 8.6 7.4 13 11.1-.2 23.2 0 46.4-.2 69.7-4.2 3.1-8 6.9-12 10.3h-70.8c-2 0-4.4.2-6-1.3-3.5-2.8-6.6-6-10.1-8.9-.2-21.6 0-43.2-.2-64.8.3-2-.4-4.5 1.3-6 3-3 6.3-5.7 9.4-8.6m47.5 26.8c-6.3 4.2-12.6 8.2-19 11.9-4.2 3-8.6 5.5-13 8l.8-.3c-4.6 3-9.3 5.8-13.8 8.9-2.2 1.4-4.4 2.8-6.7 4v13.3l4.2.3h-1c16.2-.3 32.4-.1 48.5-.2l28.5.1c.3-21.4 0-42.7.2-64-9.6 6-19 12.2-28.7 18zM125 220h131v13.4a25.4 25.4 0 0 1-22.4 22.6H125v-36z"/><path fill="#fffcf9" d="M198 117.3c9.7-5.8 19.1-12 28.7-18-.3 21.3 0 42.6-.2 64H198v-46zm-32 20c4.4-2.6 8.8-5.2 13-8.1-.2 6.3-.1 12.5-.2 18.8h-10.5l.1-11.8-1.6.7-.9.4z"/><path fill="#2b2423" d="M179 129.2c6.4-3.7 12.8-7.7 19-11.9v37c-14.3 0-28.7.2-43 0l-2-2.2v-6.3l13.8-9c.4 0 1.2-.4 1.6-.6V148h10.4l.1-18.8zM47 163.7c1.5-1.4 3.2-2.8 5-4h27.8l5.5 4.6v28.3c-2.5 2-4.6 5.4-8.1 5.4H51.8l-4.8-5.2v-29z"/><path fill="#fffbf7" d="M146.3 149.9l6.7-4.1v17.6a206.7 206.7 0 0 1-6.8-.3l.2-13.2z"/><path fill="#33323c" d="M153 152.1l2 2.2c14.3.2 28.7 0 43 0v9c-16.1 0-32.3-.2-48.4.1h3.4v-11.3z"/></svg>