<svg xmlns="http://www.w3.org/2000/svg" viewBox="0 0 256 256"><path fill="#ba845a" d="M22.3 0h211.3A25.5 25.5 0 0 1 256 22.3V27l-.4 1H117.4c-3.9 5-8.6 9.2-12.2 14.3-.5 18.5 0 37.1-.2 55.7H30.9c-4 3.7-7.6 7.8-11.6 11.4-.2 36.4 0 72.8 0 109.2 4.5 4.8 9.7 9.2 14.5 13.8H144c-.2 7.9-.1 15.7-.1 23.6H22.3A25.5 25.5 0 0 1 0 233.7V22.3A25.5 25.5 0 0 1 22.3 0z"/><path fill="#cecdce" d="M117.4 28h138.2l.4-1v28.3c-42.9 17.7-85.5 35.8-128.5 53.2-1.4.5-3 .5-4.5.6-24.3-.1-48.7 0-73 0-4.3-.3-7.2 3.4-9.7 6.3-.8 5.1 0 10.4-.3 15.5 0 8.3-.1 16.7.1 25 4.6.2 9.2.2 13.7 0 .2-8.4 0-16.6 0-25h69.3c4 .2 8.1.2 12.2-.4 10.5 1 21.1.3 31.7.6 10.4-.2 20.7 0 31 0 13-.1 26 0 39-.2V86.6c6.3-2.7 12.9-5 19-8.3v154c-37.3.3-74.7 0-112 .1H33.8c-4.8-4.6-10-9-14.6-13.8V109.4c4-3.6 7.8-7.7 11.7-11.4h74c.2-18.6-.2-37.2.3-55.8 3.6-5 8.3-9.2 12.2-14.2z"/><path fill="#adacad" d="M127.5 108.5C170.5 91 213.1 73 256 55.3v23c-6.1 3.3-12.7 5.6-19 8.3l-39 16.8c-3.3 1.3-6.4 2.9-9.7 4.3-3.8 1.5-7.6 3-11.3 4.7-3.2 1.6-6.6 3-10 4.3-10.4 5-21.3 9-31.7 13.8-4 .6-8.2.6-12.3.5H40c.2-5.2-.5-10.5.3-15.6 2.5-3 5.5-6.6 9.7-6.4h73c1.5 0 3 0 4.5-.5z"/><path fill="#eff1f1" d="M198 103.4l39-16.8v44.3c-13 .2-26 0-39 .1v-27.6z"/><path fill="#a5867b" d="M188.3 107.7c3.3-1.4 6.4-3 9.7-4.3V124c-3.3-.1-6.5 0-9.7.7v-17z"/><path fill="#392e2b" d="M177 112.4c3.7-1.8 7.5-3.2 11.3-4.7v17c-3.7.5-7.4.3-11 .3l-.3-1v-11.6z"/><path fill="#a2877b" d="M167 116.7c3.4-1.4 6.8-2.7 10-4.3v11.7h-10v-7.4z"/><path fill="#eff1ef" d="M135.3 130.5c10.4-4.9 21.3-8.9 31.8-13.8V131c-10.7-.2-21.3.6-31.8-.5z"/><path fill="#b5968c" d="M167 124h10l.2 1c3.7 0 7.4.2 11-.3 3.3-.6 6.5-.8 9.8-.7v7h-31v-7z"/><path fill="#b2b3b2" d="M40 131h14v24.8c-4.6.3-9.2.3-13.8 0-.3-8.2 0-16.6 0-24.9z"/><path fill="#cea86b" d="M144 232.4c37.3 0 74.7.3 112-.2v1.4a25.5 25.5 0 0 1-22.3 22.4h-89.8v-23.6z"/></svg>