<svg xmlns="http://www.w3.org/2000/svg" viewBox="0 0 256 256"><path fill="#b29c94" d="M22.3 0h211.3A25.5 25.5 0 0 1 256 22.4v211.2a25.5 25.5 0 0 1-22.3 22.4H22.4A25.5 25.5 0 0 1 0 233.7V22.3A25.5 25.5 0 0 1 22.3 0m31 75.6v.2c-11.5-.5-23.1-.1-34.7-.2V115c29.8 0 59.5.2 89.2 0-3.5-3.4-7-6.8-10-10.7-3-2.6-5.6-5.8-8-9-4.4-3.4-6.7-8.8-11.6-11.6-1.4-3-3.7-5.3-6.2-7.4v-.7c-4 0-8.1-.1-12.2.1v-.2c-2.1 0-4.3.2-6.5.1m142.9 0H184v.7c-2.3 2.2-5.2 4.5-5.6 7.8v-1.2a35.2 35.2 0 0 0-6.2 6c-2.5 3.9-6.6 6.4-9 10.3-5 5.2-9.5 10.9-15 15.7 29.8.3 59.5.1 89.2.1V75.6c-11.6 0-23.2-.3-34.7.2v-.2h-6.5z"/><path fill="#eff0ef" d="M53.3 75.6l6.5-.1v21.8H72v-21c2.5 2.1 4.8 4.5 6.2 7.4.2 7.2.1 14.4.1 21.6-8.3.2-16.7 0-25 .1V75.6zm142.9 0h6.5v29.8h-24.3V84c.4-3.3 3.3-5.6 5.6-7.8v21h12.2V75.6z"/><path fill="#363a39" d="M18.6 75.6c11.6 0 23.2-.3 34.7.2v29.6h25V83.6c4.8 2.8 7.1 8.2 11.4 11.7 2.5 3.1 5 6.3 8 9 3 3.8 6.6 7.2 10 10.6-29.6.2-59.4 0-89 0V75.6zm184.1.2c11.5-.5 23.1-.1 34.7-.2V115c-29.7 0-59.4.2-89.1 0 5.4-5 9.8-10.6 15-15.8 2.3-4 6.4-6.4 9-10.3 1.6-2.3 3.9-4.2 6.1-6v22.5h24.3V75.7z"/><path fill="#292c2b" d="M59.8 75.7c4-.2 8.1 0 12.2-.1v21.8H59.8V75.6zm124.2-.1h12.2v21.7H184V75.6z"/></svg>