<svg xmlns="http://www.w3.org/2000/svg" viewBox="0 0 256 256"><g fill="#a79781"><path d="M22.5 0h210.9A25.4 25.4 0 0 1 256 22.4v150.9c-14.3 0-28.6-.4-42.8.3-.4-9 0-18-.3-27-54-.2-107.9 0-161.9-.1-2.6 0-5.3 0-8 .2-.1 9 .2 17.9-.2 26.9-14.2-.7-28.5-.2-42.8-.4V22.5C1 10.9 11 1 22.5 0m-2.8 43v73c12.8 0 25.6.1 38.4-.1 10.6.2 21.3 0 31.9 0v-12.8c0-8.2.2-16.5-.2-24.7L84 75.8l-12.1-6.1c-4.5-2.6-9.5-4.2-13.7-7.2V62c-2-.4-4-1.4-6-2.4-10.7-5.7-21.7-11-32.5-16.6m177.5 19.5h.4c-4.4 2.6-9 5-13.5 7.2L172 75.8c-1.9 1-3.8 1.8-5.8 2.6-.4 8.2-.1 16.5-.1 24.7 0 4.3-.2 8.6 0 13h31.8c12.8-.2 25.6 0 38.4-.1V43c-13.1 6.3-25.8 13.6-39.1 19.5z"/><path d="M51.2 154.4h153.6a80 80 0 0 1-.6 18.8h-17.8V188H69.6v-14.7H51.8a75.5 75.5 0 0 1-.7-19z"/></g><path fill="#fff" d="M19.7 43l32.6 16.6c1.9 1 3.8 2 6 2.4v.5c-.6 13.3-.1 26.5-.3 39.8v13.6c-12.7.2-25.5 0-38.3 0V43zm177.5 19.5c13.3-5.9 26-13.3 39.1-19.5v73H198l.1-13.7V62.5h-.8zM71.9 69.7l12.1 6V84H72l-.1-14.3zM172 75.8l12.1-6.1V84H172v-8.2z"/><path fill="#15242e" d="M58 102.3c.2-13.3-.3-26.5.2-39.8 4.3 3 9.2 4.6 13.7 7.2V84H84v-8.2c1.9 1 3.8 1.8 5.8 2.6.4 8.2.1 16.5.2 24.7-10.7-.7-21.4.6-32-.8zm126.1-32.6c4.5-2.3 9-4.6 13.5-7.2h.4v39.8c-10.6 1.4-21.3.1-32 .8 0-8.2-.2-16.5.2-24.7l5.8-2.6V84h12l.1-14.3z"/><path fill="#234152" d="M58 102.3c10.6 1.4 21.3.1 32 .8V116c-10.6 0-21.3.1-32-.1v-13.6zm108 .8c10.7-.7 21.4.6 32-.8V116h-32v-13z"/><path fill="#8c7d6b" d="M43 146.7l8-.2c54 .2 108-.1 162 .2.2 9-.2 17.9.2 26.9-3-.1-6-.4-9-.4 1-6.2 1-12.5.6-18.8H51.2a74 74 0 0 0 .7 18.8c-3 0-6 .3-9 .4.3-9 0-18 .1-27z"/><path fill="#ce695a" d="M0 173.2c14.3.2 28.6-.3 42.8.4 3-.1 6-.4 9-.4h17.8V256h-47A25.4 25.4 0 0 1 0 233.6v-60.4zm186.4.1h17.8l9 .3c14.2-.7 28.5-.3 42.8-.3v60.3c-1 11.5-11 21.3-22.4 22.4h-47.2c-.2-22.7 0-45.3 0-68v-14.7z"/><path fill="#c8c3d8" d="M69.7 188h116.6v68H69.8v-68z"/></svg>