<svg xmlns="http://www.w3.org/2000/svg" viewBox="0 0 256 257"><path fill="#f4b8c0" d="M19.9 0H237l-1.3 1.2A26.2 26.2 0 0 1 256 22.6v212.2a25.6 25.6 0 0 1-22.2 22.2H221c-.2-18.3 0-36.6-.1-55 0-4 .1-8 .4-11.9 6.5 0 13 0 19.4-.2-.2-28.8 0-57.7-.1-86.5H27c-3.3 0-6.6-.3-10 0-.7 3.2-.4 6.4-.4 9.6l.1 77c6 0 11.9.2 17.8-.1 2.5 4.3 1.5 9.4 1.6 14.1v53H22.2A25.6 25.6 0 0 1 0 234.8V23.2A25.6 25.6 0 0 1 19.3 1.5l.6-1.5M42 35l-.1 3c-4.3 0-8.8-.5-13 .7V38h-6v32.7h3.7c7-.2 14 0 21.1-.2l3.2.3V38h-5l-.1-3H42m164 3c0 11-.1 21.8.1 32.7l3.8-.1h20.9l3.1.1c.2-10.9 0-21.8.1-32.7h-6v1a31.8 31.8 0 0 0-16-.1V38h-6m-92.4 41c-.1 5.3-.2 10.7 0 16h5.6c.2-5.3.1-10.7 0-16h-5.6m24.3-.1a461 461 0 0 0 0 16.2l5.8-.2V79H138z"/><path fill="#cbb4ba" d="M42 35h4v3h-4v-3z"/><path fill="#262131" d="M23 38h6v10h16V38h6v32.8l-3.2-.3.2-10.2H26.9l-.2 10.3-3.7.1V38zm183 0h6v10h16V38h6v32.7l-3.2-.1V60.3h-21v10.3l-3.7.1c-.2-10.9 0-21.8-.1-32.7z"/><path fill="#fff" d="M29 38.7c4.3-1.2 8.7-.7 13-.7h3v10H29v-9.3zm183 .2a31.8 31.8 0 0 1 16 0V48h-16v-9z"/><path fill="#4f5168" d="M26.9 60.3h21v10.3H26.6c0-3.4 0-6.9.2-10.3zm182.9 0h21v10.3h-21V60.3z"/><path fill="#ba8c91" d="M113.6 79h5.7v16h-5.7c-.2-5.3-.1-10.7 0-16zm24.4-.1l5.7.2V95l-5.8.2V78.9z"/><path fill="#a89" d="M17 103.5c3.4-.4 6.7-.2 10-.2l213.6.1c.1 28.8-.1 57.7.1 86.5-6.4.2-12.9.2-19.3.2-.9-13.7-.2-27.4-.4-41.1H36v40.8h-1.5c-6 .4-11.9.2-17.8.2-.2-25.7 0-51.3 0-77 0-3.2-.4-6.4.4-9.5z"/><path fill="#e4c1ce" d="M36 149h87v108H36v-53c0-4.7.9-9.8-1.6-14.1l1.4-.1c.2-13.6 0-27.2.1-40.8zm98 0h87c.3 13.7-.5 27.4.3 41.1-.3 4-.5 8-.4 12V257H134V149z"/><path fill="#c0a3ad" d="M123 149h11v108h-11V149z"/></svg>