<svg xmlns="http://www.w3.org/2000/svg" viewBox="0 0 256 256"><g fill="#9993ba"><path d="M22.6 0H233c11.8.8 22 11 22.9 22.7V233a25.3 25.3 0 0 1-22.6 23H23c-12-.8-22.1-11-23-22.7V23C.7 11.2 10.8 1 22.6 0m14.6 20.4c-1.5 9.8-3.8 19.5-5.8 29.3l65.8-.1c-2.5-9.7-3.6-19.7-6.3-29.3-18 .2-35.8.1-53.7 0m127 0c-1 10-3.9 19.5-5.3 29.3h65.3c-1.7-9.6-4.3-19-5.3-28.7-6.6-1-13.3-.2-20-.5-11.5.3-23 0-34.7 0m-134 52.1v.2c-4-.3-8.2-.2-12.3-.1L23 96h209.9c2-7.8 3.5-15.6 5.4-23.4a130 130 0 0 0-12.5.1v-.2H210c-55 0-110 .2-165 0H30.4m62 41.6c.2 16.5 0 33 .1 49.4 23.9 0 47.7-.1 71.5.1.2-16.5.1-33 .1-49.6H92.4m90.3 46.2c-13.6 8.3-27.5 16.2-41 24.5-4.6 2.4-8.8 5.6-13.6 7.7-18.3-10.4-36.2-21.6-54.5-32-3.6 4.3-5.8 9.5-9.3 13.8 16.3 8.7 31.8 19 48 27.8-13 7.6-26.1 14.8-39 22.5 2.6 4.7 5.8 9 8 14 15.6-9.2 31.2-18.3 46.9-27.3 15.5 9.3 31.4 17.9 46.7 27.4 2.3-5 5.5-9.4 8-14.2-12.9-7.7-26-14.9-38.8-22.4 16-9 31.6-18.8 47.6-27.7a145 145 0 0 0-9-14z"/><path d="M109.5 129.6h37.2V148h-37.2v-18.4z"/></g><path fill="#fff" d="M37.2 20.4h53.7c2.7 9.5 3.8 19.5 6.3 29.2H31.4c2-9.7 4.3-19.4 5.8-29.3m28.6 2V33H73l-.1-11-7 .3zm98.4-2c11.6.1 23.2.4 34.8.1 6.6.3 13.3-.6 20 .5.9 9.7 3.5 19.1 5.2 28.8h-65.3c1.4-9.9 4.3-19.5 5.3-29.4m18.9 1.7l-.1 11h6.7l.1-10.8-6.7-.2zM30.3 72.5H45V88H30.3V72.5zm179.7.1h15.7V88H210V72.6z"/><path fill="#312e3c" d="M65.8 22.3c2.4 0 4.7-.1 7.1-.3l.1 11h-7.2V22.3z"/><path fill="#313039" d="M183 22l6.8.2V33H183V22z"/><path fill="#9c6e78" d="M45 72.4c55 .3 110 0 165 .2V88h15.7V72.7c4.2-.3 8.3-.2 12.5 0-1.8 7.7-3.4 15.5-5.4 23.3h-34.6V82.4H57.9c-.2 4.5-.2 9-.1 13.6H22.9l-5-23.4c4.1-.1 8.3-.1 12.4.1V88h14.8V72.4z"/><path fill="#c88b9c" d="M57.9 82.4h140.3V96H57.8V82.4z"/><g fill="#e1ddd6"><path d="M92.4 114H164v49.6c-23.9-.2-47.7 0-71.6 0V114m17.1 15.5V148h37.1v-18.3h-37z"/><path d="M182.7 160.2c3.3 4.5 6.2 9.3 9 14-16 9-31.6 18.7-47.6 27.8 12.9 7.5 26 14.7 38.7 22.4-2.4 4.8-5.6 9.3-7.9 14.2-15.3-9.5-31.2-18.1-46.7-27.4-15.7 9-31.3 18.2-47 27.3-2-5-5.3-9.3-7.9-14 12.9-7.8 26-15 39-22.5-16.2-8.8-31.7-19.1-48-27.8 3.5-4.3 5.7-9.5 9.3-13.8 18.3 10.4 36.2 21.6 54.5 32 4.8-2.2 9-5.3 13.5-7.8 13.6-8.2 27.5-16.1 41.1-24.4z"/></g></svg>