<svg xmlns="http://www.w3.org/2000/svg" viewBox="0 0 256 256"><g fill="#a598b5"><path d="M22.5 0h211A25.4 25.4 0 0 1 256 22.5v211a25.4 25.4 0 0 1-22.4 22.5h-211A25.4 25.4 0 0 1 0 233.6v-211A25.4 25.4 0 0 1 22.5 0M34 22v19.3h58.4V22H34m125 0v19.3h58V22h-58M37 51.7v10.4l-9.5.3v22.5H58v-.8c2.3.5 4.6 1 7 1 42.4-.2 84.9 0 127.3-.1H223V62.3c-3 0-6 0-9-.2V51.7h-21.5l-.2 10.6c-7.4 0-14.9.1-22.3-.2-9.3-.2-18.7 0-28-.1-1.2.4-3.7-.5-3.9 1.1v-1c-8.5.2-17 .3-25.6 0a945 945 0 0 0-31.5 0c-7.6.6-15.3-.4-23 .6l.1-11H37m6 59.4V160h71v-49H43m132.3 23.3v.3h-15.8v12.7h28v-12.8l-7.3.4v-.6h-5m35.2 13h27.9v-12.6c-5 0-10.2 0-15.3-.3l-.3 2.4-.7-2.6c-1.7.3-3.4.3-4.9 1l-.5.8-.6-1c-1.8-.5-3.8-.4-5.6-.4v12.7m-187.3 7.9c-2.8 4.8-6 9.4-8.8 14.2 16.2 9.1 31.9 19 47.9 28.4-12.9 8-26.5 14.8-39.5 22.5 2.4 4.9 5.4 9.4 7.7 14.4a2330 2330 0 0 1 48-27.6c11.3 6.4 22.7 12.8 33.9 19.4a178 178 0 0 0 13.9 7.8l7.9-14c-13.4-7.3-26.6-14.9-39.8-22.3 15.9-9.9 32.1-19.2 48.1-28.9-3-4.6-5.9-9.3-9-13.8-15.4 9.3-30.6 18.8-46.1 28-3.1 1.5-5.8 4.3-9.3 4.9-2.5-1-4.7-2.6-7-4-16-9.7-32-19.1-48-29m132.2 2l-.3 4c7 .2 14 .7 21 .5 22.4-.2 44.8.6 67.2-.5l-.4-4h-87.5m-.1 4.7l-.1 9.1 9.6-.1v-9H155m78-.2c.1 3 0 6 .5 8.9 3 1 6.3.3 9.4.4l.1-9.1-10-.2m-57 48.2c15.1.2 30.1 0 45.2 0v-32.2c-15-.2-30 .1-44.9-.1-.5 10.7-.1 21.5-.2 32.3z"/><path d="M59.7 126h36.8v19c-12.3-.2-24.5-.1-36.7-.1V126zM187 186.3c8.2.1 16.3-.2 24.4.2V201H187v-14.7z"/></g><path fill="#fff" d="M34 22h38.9l.1 10h8V22h11.3v19.4H34V22zm125 0h11v10h8V22h39v19.3h-58V22zM37 51.7h21.1V85H37V51.8zm155.3 10.6c0-3.6 0-7.1.2-10.7 7.2.2 14.3 0 21.5.1V85c-7.2.2-14.4.1-21.7 0V62.3zM81 62c10.5 0 21-.1 31.5.1V71H81v-9zm57.1 1.1c.2-1.6 2.7-.7 3.9-1.1h28v9h-32l.1-7.9zm21.4 71.5h15.8l-.2 5h5.4l-.3-4.7 7.2-.4v12.7h-27.8v-12.6zm50.9 12.7v-12.8c1.8 0 3.8 0 5.6.6l.6.9.6 3.7h5.4a130 130 0 0 1 .4-5.3c5.1.3 10.2.3 15.3.3v12.6h-27.9zM155 161.9h9.6v9l-9.6.1v-9zm78.1-.1h10l-.1 9.2c-3.1-.1-6.4.5-9.4-.4-.5-3-.4-6-.5-8.8z"/><path fill="#47413f" d="M72.9 22h8.2L81 32h-8V22zm97.1 0h8v10h-8V22z"/><path fill="#9c6e78" d="M27.5 62.4L37 62v23l-9.6-.1V62.4zm30.5.3c7.7-1 15.4 0 23-.6V71h31.6l-.1-8.9c8.5.3 17.1.2 25.7 0v1c-.2 2.6-.2 5.2-.2 7.9h32v-9c7.4.4 14.9.2 22.3.3v13.9c-32.4.2-64.9 0-97.3 0-12.3 0-24.6.4-37-.2V62.7zm156-.6l9 .2V85h-9V62z"/><path fill="#af798e" d="M58 76c12.4.6 24.7.1 37 .3 32.4 0 64.9.1 97.3-.1V85H65c-2.4 0-4.7-.4-7-1v-8z"/><g fill="#e1ddd6"><path d="M43 111h71v49H43v-49m16.7 15v19h36.7v-19l-36.7.1z"/><path d="M23 155.2c16 9.9 32 19.3 48 29 2.3 1.4 4.5 3 7 4 3.5-.6 6.2-3.4 9.3-5 15.5-9 30.7-18.6 46.1-28 3.1 4.6 6 9.3 9 14-16 9.6-32.2 19-48.1 28.8 13.2 7.4 26.4 15 39.8 22.2-2.7 4.7-5.2 9.5-8 14a178 178 0 0 1-13.8-7.7c-11.2-6.6-22.6-13-33.9-19.4a2330 2330 0 0 0-48 27.6c-2.3-5-5.3-9.5-7.7-14.4 13-7.7 26.6-14.5 39.5-22.5-16-9.4-31.7-19.3-48-28.4l8.9-14.2zm153.2 54.7c.1-10.8-.3-21.6.2-32.3 15 .2 30 0 44.9.1V210c-15 0-30.1.2-45.1 0m10.8-23.6V201h24.3l.1-14.5c-8-.4-16.2 0-24.4-.2z"/></g><path fill="#4a4142" d="M175.3 134.3h4.9v.6l.3 4.7h-5.3v-5.3z"/><path fill="#4a4542" d="M217.1 135.3c1.5-.8 3.2-.8 4.9-1.1l.7 2.6-.1 2.8-5.4.1-.6-3.7.5-.8z"/><path fill="#8c829c" d="M155.2 157.3h87.5c0 1.3.2 2.6.4 3.9-22.4 1-44.8.3-67.1.5-7 .2-14-.3-21-.6 0-1.3 0-2.5.2-3.8z"/></svg>