<svg xmlns="http://www.w3.org/2000/svg" viewBox="0 0 256 256"><path fill="#9faaaf" d="M21.6 0h16.7c1.7 16.6.2 33.3.8 50-.2 2.7 1.9 4.6 3.7 6.2 8.6 7 16.6 14.6 25 21.8 3.8 3 7 7.5 12.2 7.8 7 .5 14 .4 21-.8.2-18-.1-36 0-54-.1-4.2 4-7.2 8-7 12-.2 24 .2 36-.1 2.7.2 6.1-.3 8 2.1 2.2 2.4 2 6 2.1 9a2314 2314 0 0 0 0 50c6.9 1 14 1.4 20.9.8 4.3-.2 7.5-3.5 10.6-6.1l21.8-19.3c2.9-2.7 6.8-4.8 8.2-8.6 1-6.5.2-13.2.4-19.8.3-10.6-.7-21.4.7-32h15.9A25.6 25.6 0 0 1 256 21.8V234a25.6 25.6 0 0 1-22.3 22H21.8A25.7 25.7 0 0 1 0 233.7V22.4A25.8 25.8 0 0 1 21.6 0m-2.2 110.7v44.1h52c-3.4-3-7-5.7-10.3-8.7l-9-8c-2.4-2.2-5-3.9-7.5-5.9l-.9.1c-1.6-2.6-4-4.7-6.6-6.4-1.7-2-3.8-3.7-6.1-5v-.4c-3.9-3.3-7.6-6.7-11.6-9.8m205.7 9.7v.7a23.6 23.6 0 0 0-6.1 4.8 20.5 20.5 0 0 0-6.3 6h-.8c-2.5 2.1-5.2 4-7.6 6.2-3.2 2.3-5.8 5.3-8.8 8-3.9 2.4-7.1 5.8-10.7 8.7H237v-44.4l-12 10m-123.5 37c-.2 5.7-.2 11.4 0 17.2h8c.2-5.8.2-11.5 0-17.2h-8m45.7 0c-.4 5.7-.4 11.5 0 17.2h7.6c.3-5.7.3-11.5 0-17.2h-7.6M12 182v30c15.2 0 30.4.1 45.6-.1H199c15 .3 30 0 45 .1.2-10 .1-20 .1-30H12z"/><path fill="#99a4aa" d="M38.3 0h179.4c-1.4 10.6-.4 21.4-.7 32-.2 6.6.6 13.3-.4 19.8-1.4 3.9-5.3 5.9-8.2 8.6l-21.8 19.3c-3.1 2.6-6.3 6-10.6 6.1-7 .6-14 .3-20.9-.8a2314 2314 0 0 1 0-50c0-3 .1-6.6-2.1-9-1.9-2.4-5.3-2-8-2.1-12 .3-24 0-36 0-4-.1-8.1 2.9-8 7-.1 18.1.2 36.1 0 54.1a87 87 0 0 1-21 .8c-5.1-.3-8.5-4.7-12.1-7.8-8.5-7.2-16.5-14.8-25-21.8-2-1.6-4-3.5-3.9-6.2-.5-16.7 1-33.4-.7-50z"/><path fill="#fff" d="M19.4 110.7c4 3 7.8 6.5 11.6 9.8V146c10 0 20-.1 30.1.1 3.4 3 7 5.7 10.2 8.8h-52l.1-44.2zm205.6 9.7l12-10v44.5h-52.2c3.6-3 6.8-6.4 10.7-8.8 9.8-.3 19.7 0 29.5-.1v-25.6zM25 182h21v21H25v-21zm185 0h21v21h-21v-21z"/><path fill="#c6756b" d="M31 120.9c2.3 1.3 4.4 3 6.1 5l.2 6.6h3v5.9l-9.3-.1v-17.4zm188 5.1c1.7-2 3.8-3.6 6-4.9v17.2l-9 .1.1-6 2.8.3.1-6.8z"/><path fill="#fff7f7" d="M37.1 125.9c2.6 1.7 5 3.8 6.6 6.4l-3.4.1-3 .1-.2-6.6zm175.6 6.1a19 19 0 0 1 6.3-6l-.1 6.7a2514.4 2514.4 0 0 1-6.3-.7z"/><path fill="#392021" d="M43.8 132.3h.8c2.4 2 5.1 3.6 7.5 5.8l1.3 3.5h-13a17208.8 17208.8 0 0 0-.1-9.2h3.5zm160.5 5.8c2.4-2.2 5-4.1 7.6-6.2h.8c1.1.3 2.3.4 3.4.5v6l-.1 3c-4.4 0-8.7.2-13 0l1.3-3.3z"/><path fill="#d87e73" d="M31 138.3h9.4v3.2l13 .1-1.3-3.5 9 8c-10-.2-20 0-30.1-.1v-7.7zm164.5 7.8c3-2.7 5.6-5.7 8.8-8l-1.4 3.4 13-.1.1-3h9v7.6c-9.8 0-19.7-.2-29.5.1z"/><path fill="#899399" d="M101.5 157.4h8c.2 5.7.2 11.4 0 17.1h-8c-.2-5.7-.2-11.4 0-17zm45.7-.1h7.6c.3 5.8.3 11.6 0 17.3h-7.6c-.4-5.7-.4-11.5 0-17.3z"/><path fill="#6d6370" d="M12 182h13v21h21v-21h164v21h21v-21h13v30c-15 0-30 .2-45.1 0l.1-14H57.5l.1 13.9c-15.2.2-30.4.1-45.6.1v-30z"/><path fill="#ad9291" d="M57.5 198H199l-.1 14-141.3-.1-.1-13.9z"/></svg>