<svg xmlns="http://www.w3.org/2000/svg" viewBox="0 0 256 256"><path fill="#b5bbcb" d="M22.5 0h210.8A25.4 25.4 0 0 1 256 22.4v211.1c-1 11.6-11 21.4-22.5 22.5h-38.4c.4-4.6.5-9.3 0-14l-3.2-.8 3.4-.3c.2-6.3.3-12.5 0-18.8-44.9-.2-89.7-.2-134.6 0-.2 6.3-.3 12.6 0 19h3.5l-3.3 1-.5 13.9H22.6A25.4 25.4 0 0 1 0 233.6V22.5C1 10.9 11 1 22.5 0m76.7 36c-.4 5.5-.2 11 0 16.4A1906.7 1906.7 0 0 0 99 82c.4 2.8-1.1 6.5 1.1 8.7h-1V107H157V90.7h-1.2c2.4-2 .7-5.9 1.2-8.7V62c0-3.2 0-6.4-.2-9.7.2-4.8.3-9.6.1-14.4 0-2.6-2.7-4-4.2-5.8-16-.2-31.9 0-47.8-.1-2.6-.3-4.5 2-5.8 4m114 40.2v.7l-5.1 3v.5c-2.8 1.6-5.3 3.6-8 5.3l-3.6 2.5v1c-3.4.3-5.4 3.7-8.5 5v.7c-6 3.3-11.1 7.8-16.7 11.6-.5-9.5 0-19-.4-28.4h-6.5c-.2 9.6-.2 19.2 0 28.8l6.5.1h17c8.3.1 16.6-.2 24.8.1v-.7c8.8 1.2 17.6.4 26.4.6V57.8c-8.7 6-17 12.6-26 18.4M17 58.3c-.5 16.3-.1 32.5-.3 48.7 8.9-.3 17.8.6 26.6-.6l.1.7c8.2-.3 16.4 0 24.6-.1h16.7c-5.2-4.7-11.2-8.2-16.8-12.2v-.4c-2.9-1.5-5.3-3.9-8.2-5.5l-.3 1 .3-1.2-4-2.8v3h-.3a17 17 0 0 0-.5-3.5c-2.4-2.2-5.2-4-7.9-5.7V79c-1.3-.6-2.6-1.2-4-1.6v-1C34 71 25.9 64 17 58.4m67.3 19.8c-.3 3.5-.3 7 .2 10.5 1 6.1.3 12.3.5 18.4h6c.2-9.7.2-19.3 0-29h-6.6m31.7 53v11h4.4v-11H116m19 0v11h4.2l.1-11H135M15.3 146c.2 7.7-.7 15.4.5 23-.5 6-.2 12.2-.2 18.3 11.3 0 22.5.2 33.8-.2 15.5.3 31 0 46.6.2 36.6-.1 73.2.2 109.9-.2 11.3.4 22.7.1 34 .2.2-6.1 0-12.2.2-18.3.5-7.6 0-15.3.2-23H219a39429 39429 0 0 1-203.7 0z"/><path fill="#e4d3ba" d="M99.2 36c1.2-2 3-4.3 5.7-4h47.8c1.5 1.9 4.2 3.3 4.2 5.9.2 4.8.1 9.6 0 14.4H99.1c-.2-5.4-.4-10.8 0-16.3zM99 62h58v20H99V62zm0 28.8h58V107H99V90.8z"/><path fill="#c3b39f" d="M99.2 52.4h57.6c.2 3.2.3 6.4.2 9.6H99c0-3.2 0-6.4.2-9.6zM99 82h58c-.5 2.8 1.2 6.7-1.2 8.8h-55.7c-2.2-2.2-.7-6-1-8.8z"/><path fill="#f4f5f7" d="M213 76.2c9-5.8 17.3-12.3 26-18.4V107c-8.8-.2-17.6.6-26.3-.6.4-9.8-.2-19.7.3-29.5v-.7zM17 58.3C25.8 64 34 71 43 76.6v1c.4 9.5 0 19.2.3 28.8-8.8 1.2-17.7.3-26.6.6.2-16.2-.2-32.4.2-48.7zm51 36.5c5.5 4 11.5 7.5 16.7 12.1-5.6.2-11.2 0-16.7.1V94.8z"/><path fill="#a75947" d="M208 80l5-3.1c-.5 9.8 0 19.7-.3 29.5v.7c-.4-3-.6-6-.7-9l-8-.2V89h4v-9zM43 77.5c1.4.4 2.7 1 4 1.6V89h5v8.9l-8 .2-.6 9v-.7c-.5-9.6 0-19.3-.4-28.9zm145 16.8c3-1.4 5-4.8 8.5-5.2.1 3 .2 6 .1 8.9H188v-3.7zM59.4 90l.4-1c2.8 1.5 5.2 3.9 8.2 5.4V98h-9c0-2.7-.1-5.4.4-8z"/><path fill="#a5aebd" d="M84.3 78h6.6c.2 9.7.2 19.3 0 29H85c-.2-6.1.5-12.3-.5-18.4-.5-3.5-.5-7-.2-10.5z"/><path fill="#a7acba" d="M164.3 78h6.5c.3 9.5-.2 19 .4 28.5l-.4.5c-2.2 0-4.3 0-6.5-.2-.2-9.5-.2-19.1 0-28.7z"/><path fill="#efefef" d="M47 79.7c2.7 1.8 5.5 3.5 8 5.7.2 1.1.4 2.4.4 3.6H47v-9.3z"/><path fill="#eff3f7" d="M200 85.7c2.7-1.7 5.2-3.7 8-5.3V89h-8v-3.3z"/><path fill="#4a2821" d="M196.4 88.2l3.6-2.5V89h4a874.2 874.2 0 0 1 0 12.2l-7.4-.2v-3l-.1-8.9v-1zM55.8 86l3.9 2.7-.3 1.3c-.5 2.6-.4 5.3-.4 8v3l-7 .1V89h3.8v-3z"/><path fill="#f7f7f7" d="M171.2 106.5c5.6-3.8 10.8-8.3 16.7-11.6v12c-5.7.2-11.4 0-17 .1l.3-.5z"/><path fill="#ba634f" d="M44 98.1l8-.2v3.2h7V98h9v9c-8.2 0-16.4-.2-24.6.1l.6-9zm143.9-.1h8.7v3l7.4.2v-3.3l8 .2.6 9c-8.2-.3-16.5 0-24.7-.2v-9z"/><path fill="#7e828c" d="M116 131h4.5v11H116v-11z"/><path fill="#7b828c" d="M135 131h4.3v11H135v-11z"/><path fill="#fff" d="M15.3 146H37v23H15.8c-1.2-7.6-.3-15.3-.5-23zm203.7 0h21.3c-.1 7.7.3 15.4-.2 23H219v-23z"/><path fill="#947789" d="M37 146c60.7.2 121.3.2 182 0v23h21v18.3c-11.4 0-22.8.2-34.1-.2.2-5.7.2-11.4.1-17-52.2 0-104.5-.2-156.7 0l.1 17c-11.3.4-22.5.1-33.8.2 0-6.1-.3-12.2.2-18.3H37v-23z"/><path fill="#c6a4ad" d="M49.3 170H206c0 5.7.1 11.4-.1 17.1-36.7.4-73.3 0-110 .2-15.5-.1-31 .1-46.5-.2v-17z"/><path fill="#e1d0ba" d="M60.7 222.1c44.9-.2 89.7-.2 134.6 0 .3 6.3.2 12.6 0 18.8l-3.4.3c-35.3-.4-70.6-.1-105.9-.2-7.3 0-14.6 0-21.8.2l-3.5-.2c-.3-6.3-.2-12.6 0-18.9z"/><path fill="#cebeaa" d="M64.2 241.2c7.2-.3 14.5-.2 21.8-.2 35.3.1 70.6-.2 105.9.2l3.2.9c.5 4.6.4 9.3 0 13.9H60.3l.6-14 3.3-.8z"/></svg>