<svg xmlns="http://www.w3.org/2000/svg" viewBox="0 0 256 256"><path fill="#f9c9d3" d="M22.7 0h210.4c11.8.8 22 11 22.9 22.7v210.4c-.7 11.8-11 22-22.7 22.9H228v-40c0-2.2 0-4.6-1.8-6.2-2.9-3.2-5-7-8-10-3.3-1-6.8-.3-10.2-.4H42c-1.5.1-3.3-.1-4.3 1.2-3 3.5-5.6 7.2-8.5 10.7-1.4 1.5-1.2 3.8-1.3 5.8.2 13 0 26 .1 38.9h-5a25.3 25.3 0 0 1-23-22.7V23C.8 11.1 11 1 22.7 0M67 36c-.3 2.4.5 4.7 1.2 7H67v25.4c.6 1.2.7 2.4.2 3.7-.3 1.3-.3 2.6-.2 3.9h16c-.3-2.4.7-4.9.1-7.2-.3-8.2 0-16.4-.1-24.5 1.7-2.4-.2-5.6-.2-8.3H67m107 0c-.7 2.7 1 4.8 2 7h-2v25.7l.4.5c-.1 2.3-.6 4.5-.4 6.8h16c.2-2.3-.2-4.5-.4-6.8l.4-.5V43h-2c1-2.2 2.7-4.3 2-7h-16M84 98v42h88V98H84z"/><path fill="#fff" d="M67 36h15.8c0 2.7 1.9 5.9.2 8.3V43H68.2c-.7-2.3-1.5-4.6-1.2-7zm107 0h16c.7 2.7-1 4.8-2 7h-12c-1-2.2-2.7-4.3-2-7z"/><path fill="#182026" d="M67 43h16v1.3c0 8.1-.2 16.3.1 24.5-5 .6-10.2 0-15.3.2a17 17 0 0 1-.6 3.1c.5-1.3.4-2.5-.2-3.7V43zm107 0h16v25.7l-.4.5c-5-.4-10.2-.3-15.2 0l-.4-.5V43z"/><path fill="#5a9aba" d="M83.1 68.8c.6 2.3-.4 4.8-.1 7.2H67a17 17 0 0 1 .2-3.9l.6-3c5.1-.3 10.3.3 15.3-.3zm91.3.4c5-.3 10.1-.4 15.2 0 .2 2.3.6 4.5.4 6.8h-16c-.2-2.3.3-4.5.4-6.8z"/><path fill="#734e57" d="M84 98h88v42h-21v-22h-46v22H84V98z"/><path fill="#e497a5" d="M105 118h46v22h-46v-22z"/><path fill="#efe9d8" d="M37.7 200.6c1-1.3 2.8-1 4.3-1.2h166c3.4.1 6.9-.5 10.1.4 3 3 5.2 6.8 8.1 10 1.8 1.6 1.9 4 1.9 6.2v40H28c-.1-13 0-26-.2-39 .1-2-.1-4.2 1.3-5.8 3-3.4 5.5-7.1 8.5-10.6z"/></svg>