<svg xmlns="http://www.w3.org/2000/svg" viewBox="0 0 256 256"><path fill="#70a3c3" d="M22.4 0h99.2c-.8 8.6-.4 17.3-.4 26-.1 2.5.2 5.5-1.9 7.4-2.7 2.8-5.4 5.8-8.8 8-4 1.3-8.3.6-12.5.7H0V22.4A25.4 25.4 0 0 1 22.4 0zm131.8 0H198c0 11.6-.2 23.1.2 34.7 15.2.3 30.5 0 45.8.2 4 0 8-.2 12-.7V78c-10.9-1.3-21.9-.7-32.8-.1-17.7-.7-35.5 0-53.2-.3-1.5-.1-3-.3-4-1.4-3.8-3-7.2-6.6-11-9.5V55.4c-.3-11.2-.1-22.4-.2-33.5 0-7.3.5-14.7-.7-22zM0 86.3c7.9.8 15.8.6 23.7.3v43.8a61 61 0 0 1-23.7-.3V86.3zM244 136c4-1.6 8.3.1 12 1.8v96a25.8 25.8 0 0 1-21.7 22.2c-2.2-5-1.4-10.7-1.5-16v-38c0-5.8 1-11.5.1-17.2-.6-13 0-25.9-.3-38.9 3-4 6.8-7.6 11.3-9.9zM0 161.6c7.9-.9 15.8-.9 23.7 0-.3 8 .5 15.8-.4 23.7-1 6.2 1.6 12.3.4 18.5-5.6.1-11.2.4-16.8.3-2.4 0-4.8-.9-6.9-2v-40.5zm79.7 10.8h103.6c3 3.4 6.3 6.7 9.7 9.8v12.3c.2 13.5.2 27 .2 40.5 0 7-.5 14 .7 21h-43.5c.9-15 .4-29.9.3-44.8-8.9-.6-17.8 0-26.7-.3-4.6 0-9.2 0-13.9.2-.3 15 0 30 0 44.9H22.4A25.4 25.4 0 0 1 0 233.6v-11.2c9.7.8 19.3.3 29 .4 13.6 0 27.2.2 40.8 0 .4-9.5.1-19 .2-28.4v-11.6a138 138 0 0 0 9.7-10.4z"/><path fill="#6898b7" d="M121.6 0h32.6c1.1 7.3.6 14.7.6 22l.1 33.5c-18.3.2-36.6 0-55 .1L100 67a236 236 0 0 0-10.9 10h-56a57.7 57.7 0 0 1-9.4 9.6c-8 .3-15.8.5-23.7-.3V42c32.7.2 65.4 0 98 .1 4.2 0 8.5.6 12.5-.7 3.4-2.2 6-5.2 8.8-8 2.1-2 1.8-4.9 2-7.4 0-8.7-.5-17.4.3-26zM198 0h35.5c11.4 1 21 10.6 22.5 21.9v12.3c-4 .5-8 .7-12 .7-15.3-.2-30.6.1-45.8-.2-.4-11.6-.2-23.1-.2-34.7zm25.2 77.8c11-.6 22-1.2 32.8 0v60c-3.7-1.7-8-3.4-12-1.8a32.4 32.4 0 0 0-11.4 10l.1-58.8c-3.3-3-6.4-6.2-9.5-9.4zM0 130.1a61.5 61.5 0 0 0 23.7.3v31.2c-7.9-.9-15.8-.9-23.7 0v-31.5zm224.1 63c3.3-2.4 6-5.4 8.8-8.3.8 5.7-.2 11.4 0 17.2v38c0 5.3-.8 11 1.4 16h.4-40.8c-1.2-7-.7-14-.8-21v-40.6l24 .1c2.3 0 5 .3 7-1.4zM23.7 203.8c1.2-6.2-1.3-12.3-.4-18.5 3.7 3.3 7.6 6.3 11.6 9.1H70c0 9.5.2 19-.2 28.3-13.6.3-27.2 0-40.8.1-9.7 0-19.4.4-29-.4V202c2.1 1.1 4.5 2 7 2 5.5.1 11.1-.2 16.7-.3zm86.4 7.3c4.7-.2 9.3-.3 14-.2 8.8.3 17.7-.3 26.6.3.1 14.9.6 29.9-.3 44.8H110c0-15-.2-30 .1-44.9z"/><path fill="#4a4747" d="M100 55.6c18.3-.1 36.6.1 55-.1v11c3.8 3 7.2 6.5 11 9.6 1 1 2.5 1.3 4 1.4 17.7.2 35.5-.4 53.2.3 3 3.2 6.2 6.4 9.5 9.4V146c.2 13-.4 26 .2 38.9-2.8 2.8-5.5 5.9-8.8 8.3-2 1.7-4.7 1.3-7 1.4h-24v-12.3c-3.4-3.1-6.7-6.3-9.8-9.8H79.7c-3 3.7-6.3 7.1-9.7 10.4v11.6H35c-4.1-2.8-8-5.8-11.7-9.1.9-7.9.1-15.8.4-23.7v-75c3.5-2.8 6.6-6 9.4-9.5h56A236 236 0 0 1 100 66.8V55.6M46 97v61.8h61.8c-.2-20.6 0-41.2 0-61.8H46m103 0v61.8h61.8V97H149z"/><path fill="#f4f1f4" d="M46 97h61.7c0 20.6-.1 41.2.1 61.8H46V97m25.7 24.2V132h10.8l.1-10.8h-11zM149 97h61.8v61.8H149V97m25.2 24.2l.1 10.8h11c0-3.6 0-7.2-.2-10.8h-11z"/><path fill="#393636" d="M71.7 121.2h11c-.2 3.6-.2 7.2-.2 10.8H71.6v-10.8z"/><path fill="#393839" d="M174.2 121.2h11l.1 10.8h-11l-.1-10.8z"/></svg>