<svg xmlns="http://www.w3.org/2000/svg" viewBox="0 0 257 257"><path fill="#968b81" d="M23.4 0h211A25.4 25.4 0 0 1 257 22.4V24c-6 .6-12.2-.3-18.3.4-10.2 5.7-20.3 11.8-30.5 17.5a9.7 9.7 0 0 1-6 2.5l-1 1.4-1.1 2.4-.2-1.4a32 32 0 0 0-6.1 3.7c-1.5 1-3.2 1.6-4.8 2.4-2.7 1.7-5.7 3-8.3 5-5 3.1-10.5 5.6-15.5 9-23.9.2-47.8 0-71.6 0-5.7-3.8-11.9-6.6-17.7-10.2-2.3-1.2-4.7-2.4-7-3.9-1.2-.8-2.5-1.7-4-2.3-2.3-1-4.4-2.6-6.8-3.7l-.1 1.4-1.3-3.2-5.3-2.5c-10.1-6-20.5-11.8-30.6-17.8-1.5-.7-3.2-.6-4.9-.6L0 24.2v-4.8c.4 0 1.1.3 1.5.5A25.1 25.1 0 0 1 23.5 0z"/><path fill="#c6b0a2" d="M0 24.2h16c1.6-.1 3.3-.2 4.8.5l-1.4-.3c-.2 14.2 0 28.4 0 42.5 11.5.3 23 0 34.6.2h22c5.8-.2 11.7 0 17.6-.1 23.8 0 47.7.1 71.6-.1 6 .3 11.9 0 17.8.2h21l.6-3.3.4 3.2h34c-.1-14.2.4-28.5-.3-42.6 6-.7 12.2.2 18.3-.4v197h-84c0-6.4.2-12.8-.1-19.2a5351 5351 0 0 0-87.8 0c-.3 6.4 0 12.8-.1 19.2H0V24.2m112.4 71.2v9.4l4.7.2c.5-3.3.2-6.5-.3-9.7a79 79 0 0 0-4.4 0m28.8 0c-.3 3.2-.3 6.4 0 9.6h4.8c.4-3.1.8-6.6-.3-9.6h-4.5M13 96c0 25.2-.2 50.4.1 75.6 14.7-.2 29.4 0 44-.1h188.4V97.1l-.3-1.1H208a2689 2689 0 0 0-44 0c-4 2.8-6.8 6.6-10.6 9.3-1.5 1.2-2.8 2.7-4.2 4h-39.4c-3.3-1.5-5.3-4.8-8.2-6.9-2.7-1.6-4.5-4.2-6.7-6.3-14.6-.2-29.3 0-43.9 0H13z"/><path fill="#fff" d="M19.3 67V24.3l1.5.3c10.1 6 20.4 11.8 30.6 17.8 1.7 1 3.5 1.7 5.3 2.5l-2.7-.8V67c-11.5-.2-23.1 0-34.7-.2zm188.9-25.1c10.2-5.7 20.3-11.8 30.5-17.5.7 14.1.2 28.4.3 42.6h-34l-.4-3.3v-3c0-5.3-.3-10.7.3-16l-2.8.2-.9.9 1-1.4c2.2-.2 4.3-1 6-2.5zM58.1 46.8c2.4 1 4.5 2.6 6.9 3.7V53h-7v-4.8l.1-1.4zm135.7 3.7a32 32 0 0 1 6-3.7l.3 1.4-.2 4.9-2.4-.1h-3.8v-2.5zM76 56.7c5.7 3.6 12 6.4 17.6 10.3H76V56.6zm104.7 1.1l2.3-1.3a424.9 424.9 0 0 1 0 10.6c-6-.2-11.9 0-17.8-.2 5-3.4 10.4-5.9 15.5-9zM30.3 96H51v19H30.3V96zM208 96h20v19h-20V96z"/><path fill="#bd4d63" d="M54 44.2l2.7.8 1.3 3.2V53h3v8.6c-2.3-.8-4.7-1.2-7-1.6V44.2zm148 .7l2.9-.2c-.6 5.3-.2 10.7-.3 16-2.4.1-4.7.3-7 1-.2-3-.2-5.8-.1-8.7h2.4l.2-4.9 1.1-2.3.9-.9z"/><path fill="#36161e" d="M65 50.5c1.4.6 2.7 1.5 4 2.3v9c-2.6.4-5.5.5-8-.1V53h4v-2.5zm124 2.4c1.6-.8 3.3-1.4 4.8-2.4l-.2 2.5h3.9v8.7c-2.7.5-5.7.5-8.5 0V53z"/><path fill="#bd4d65" d="M69 52.8c2.2 1.5 4.6 2.7 7 4V60c-2.3.3-4.7.9-7 1.6v-8.9zm111.7 5c2.7-1.8 5.6-3.2 8.3-5v9c-2-.7-4-1.3-6-1.7v-3.6l-2.3 1.3z"/><path fill="#d65973" d="M54 60c2.3.4 4.7.8 7 1.6 2.5.7 5.4.6 8 .1 2.3-.8 4.7-1.3 7-1.6v7H54V60zm129 .1c2 .4 4 1 6 1.6 2.8.5 5.8.5 8.6 0 2.3-.7 4.6-.9 7-1v3L204 67h-21v-6.9z"/><path fill="#aa978c" d="M112.4 95.4a79 79 0 0 1 4.4-.1c.5 3.2.8 6.4.3 9.7-1.6 0-3.2 0-4.8-.2l.1-9.4zm28.8-.1h4.5c1.1 3 .7 6.5.3 9.6h-4.9c-.2-3.2-.2-6.4.1-9.6z"/><path fill="#8c5f68" d="M13 96h17.3v19H51V96c14.6 0 29.3-.1 43.9.1 2.2 2.1 4 4.8 6.7 6.3 3 2.1 4.9 5.4 8.2 7h39.4c1.4-1.4 2.7-2.9 4.2-4 3.8-2.8 6.7-6.6 10.6-9.3h44v19l20-.1V96h17.3l.2 1.1v74.4h-44.7c.5-11.8.6-23.5 0-35.2-47.8-.2-95.7-.2-143.5 0-.3 11.7 0 23.4-.2 35.2h-44c-.3-25.1 0-50.3 0-75.5z"/><path fill="#a76e70" d="M57.3 136.3c47.8-.2 95.7-.2 143.6 0 .5 11.7.4 23.4 0 35.1-48 .2-95.9 0-143.8 0 .2-11.7-.1-23.4.2-35.1z"/><path fill="#aa9f73" d="M85.1 201.8c29.3-.2 58.6-.2 87.8 0 .3 6.4 0 12.8.1 19.2v16.3l-11.3.2v-12.4h-17.4v12.4c-10-.1-20.2-.4-30.2 0v-12.4H96.2v12.4a284 284 0 0 0-11.3-.2V221c.1-6.4-.2-12.8.1-19.2z"/><path fill="#f1e1a5" d="M0 221h57c.4 7 0 14 .4 20.9 9 1.8 18.4.3 27.6 1V257H20.3l.6-1.5a24.6 24.6 0 0 1-19.3-19.3l-1.6.4V221zm201 0h56v12.3a25.6 25.6 0 0 1-21.8 22.7l3.9 1H173v-14.2c9.2-.6 18.6 1 27.7-1 .2-7-.2-13.9.2-20.8z"/><path fill="#e1cd96" d="M57 221h28v21.8c-9.2-.6-18.5.9-27.6-1-.4-6.9 0-13.9-.4-20.8zm116 0h28c-.5 7 0 13.9-.3 20.8-9 2-18.5.4-27.7 1V221z"/><path fill="#362626" d="M96.3 225H114l.1 12.6v7.4H96.2v-19.9zm48 0h17.4v20h-17.4v-19.9z"/><path fill="#c8c3e1" d="M85 237.3l11.3.2v7.5H114l.1-7.4c10-.5 20.2-.2 30.2 0v7.4h17.4v-7.5l11.3-.2V257H85v-19.7z"/></svg>