<svg xmlns="http://www.w3.org/2000/svg" viewBox="0 0 256 256"><path fill="#94d5f1" d="M22.4 0h211A25.5 25.5 0 0 1 256 22v211.5a25.4 25.4 0 0 1-22.4 22.5h-211A25.4 25.4 0 0 1 0 233.5v-211A25.4 25.4 0 0 1 22.4 0m-4 167.6c18.8.2 37.7 0 56.5.1.1-3.9.4-8-1-11.7h1V77h-.8c1.2-5 1-10.3.9-15.4H18.5c-.2 35.3 0 70.7-.1 106m163.8-106v106.1h56c.2-35.3 0-70.7 0-106-18.7 0-37.3-.2-56 0m-85.7 68.8c-4.3 2.6-7.4 6.7-10.8 10.3-2 1.8-1.7 4.7-1.8 7.2.3 16.7 0 33.3.1 50-.4 4.1 3 6.8 5.4 9.7 2.3 2.3 4 5.3 6.7 7.1 3.6.5 7.3.1 11 .1 14.6 0 29.3.2 44 0 3.1 0 6.4.4 9.5-.3 3.6-2.4 5.7-6.4 8.6-9.4 1.5-1.8 3.9-3.5 3.7-6.1v-48c-.2-3 0-6-1.4-8.6-2-3-4.7-5.3-7-8-1.7-2-3.4-4.8-6.5-4.5-19-.2-38 .1-57 0-1.5 0-3.1-.2-4.5.5z"/><path fill="#fcf9ff" d="M18.4 167.6c0-35.3-.1-70.7 0-106H75c0 5.1.3 10.3-1 15.4H32.4v79H74c1.3 3.8 1 7.8 1 11.7H18.3zM182.2 61.7c18.7-.2 37.3 0 56 0 0 35.3.2 70.7 0 106h-56v-11.6l42.1-.1V77h-42l-.1-15.3z"/><path fill="#9c3631" d="M32.3 77H75v61l-8 .5V96.3H52v42.4c-6.6-.5-13.1-.3-19.7-.5V77zm149.9 0h42.1v61.2c-6.5.3-13 .3-19.6 0V96.3l-15.2.1c.2 15.3-.2 30.5.2 45.7l-1.1-3.6-6.4-.5V77z"/><path fill="#260d0d" d="M52 96.3h15v45.8H52V96.3zm137.5.1c5-.1 10.1-.2 15.2 0v45.8l-15-.1c-.4-15.2 0-30.4-.2-45.7z"/><path fill="#9fdcf7" d="M96.5 130.5c1.4-.7 3-.5 4.5-.6 19 .2 38 0 57 .1 3-.3 4.8 2.5 6.6 4.5 2.2 2.7 5 5 7 8 1.3 2.6 1.1 5.7 1.3 8.5v48c.2 2.7-2.2 4.3-3.7 6.2-3 3-5 7-8.6 9.4-3.1.7-6.4.3-9.6.4h-44c-3.6 0-7.3.3-11-.2-2.6-1.8-4.3-4.8-6.6-7.1-2.3-2.9-5.8-5.6-5.4-9.7 0-16.7.2-33.3 0-50 0-2.5-.4-5.4 1.7-7.2 3.4-3.6 6.5-7.7 10.8-10.3M97 151v42.7c3 3.2 5.5 6.9 8.7 9.9 15 .5 30 0 45 .3 2.9-3.2 5.5-6.5 8.3-9.7v-43.8l-8.2-8.9h-45c-3.2 3-5.9 6.3-8.8 9.5z"/><path fill="#c64d3f" d="M32.3 138.2c6.6.3 13.1 0 19.6.5v3.4H67v-3.5l8-.5v18H32.3v-17.9zm149.9-.2l6.4.5 1 3.6h15v-4c6.6.4 13.2.4 19.7 0V156h-42v-18z"/><path fill="#213036" d="M97 151c2.9-3.3 5.6-6.7 8.8-9.6h45l8.2 8.9V194c-2.8 3.2-5.4 6.5-8.3 9.7-15-.4-30 .2-45-.3-3.3-3-5.8-6.7-8.7-10V151z"/></svg>