<svg xmlns="http://www.w3.org/2000/svg" viewBox="0 0 256 256"><path fill="#78bede" d="M22.4 0h211A25.4 25.4 0 0 1 256 22.4v211.2a25.5 25.5 0 0 1-22.4 22.4H22.5A25.5 25.5 0 0 1 0 233.7V22.3A25.5 25.5 0 0 1 22.4 0m22.4 39C51 49 59.6 57.2 66.3 66.8c4.1 4.5 7.6 9.7 11.8 14.2 6.7 9.8 15 18.4 22 28 .7 1 1.6 2 3 2 1.8-.5 3.1-2 4.6-3.3l-2.4-3.9-47.7-59.3c-2.5-3-4.6-6.6-7.8-9-2 .7-3.4 2.4-5 3.7m161.5-4c-12.3 15.4-24.8 30.7-37 46.2-6.8 9-14.5 17.3-21 26.4l5.2 4c7.1-7.6 13-16.4 20.1-24 7.2-10.1 15.4-19.4 23-29.3 5-6.4 10.6-12.5 15.2-19.3a17 17 0 0 0-5.5-4M19 48.3c.2 25.8 0 51.6.1 77.4h75.6c-4.6-3.7-10-6.3-14.8-9.7-3-2-6.1-3.7-9-5.8-3.1-2.2-6.8-3.5-9.4-6.3-3.1-1.5-6-3.3-8.8-5.4l-.2 3.9c-.1-1.4-.4-2.8-.6-4.1-2.6-1.9-5.7-3.3-7.2-6.3C36.2 77.5 28 62.6 19.1 48.3M234.9 52l-24.6 42.3c-1.8 1.7-4.2 2.6-6.2 4-2.8 2.2-6.2 3.7-9 5.9-3.4 2-6.6 4.4-10 6.2v.3c-2 1-3.9 2.4-5.8 3.5-6.1 3.6-12 7.6-17.8 11.6 5.2-.1 10.3-.2 15.5.1 9-.3 18 0 27-.1 11.1-.1 22.3.1 33.4-.2-.2-25.6.1-51.3-.2-77-1 .9-1.6 2.2-2.3 3.4m-113.7 60.2c-14 20-27.5 40.5-41.3 60.7-4.4 5.5-7.7 11.7-11.9 17.3-4.8 6.8-9.2 13.9-14 20.7-2.1 3.3-4.7 6.3-6.2 10 5.4.4 10.8 0 16.1.1h132c4.4 0 8.7.1 13-.1-11-17.5-23.1-34.2-34.5-51.4-9.7-14-18.9-28.3-28.8-42.1-5.3-8.7-11.4-16.8-16.9-25.3-3.2 2.7-5 6.7-7.5 10z"/><path fill="#70b2d0" d="M44.8 39c1.6-1.2 3-3 5-3.7 3.2 2.5 5.3 6 7.8 9.1 16 19.7 31.8 39.5 47.7 59.3l2.4 4c-1.5 1.1-2.8 2.7-4.7 3.2-1.3 0-2.2-1-3-2-6.9-9.6-15.2-18.2-21.9-28-4.2-4.5-7.7-9.7-11.8-14.3C59.6 57.2 51 49 44.8 39.2zm161.5-4c2.1 1 4 2.5 5.5 4.1-4.6 6.8-10.2 12.9-15.3 19.3-7.5 9.9-15.7 19.2-22.9 29.2-7.1 7.8-13 16.5-20.1 24.2l-5.3-4.1c6.6-9.1 14.3-17.5 21-26.4 12.3-15.5 24.8-30.8 37-46.2z"/><path fill="#fff" d="M19 48.3C28 62.6 36.3 77.5 44.9 92c1.5 3 4.6 4.4 7.2 6.3l.6 4v23.5H19.1c-.1-25.9.1-51.7-.1-77.5zM235 52c.6-1.2 1.1-2.5 2.3-3.4.2 25.7-.1 51.4.1 77-11.1.3-22.3 0-33.4.2 0-9.2-.1-18.4.1-27.5 2-1.4 4.4-2.3 6.2-4 8.3-14 16.4-28.2 24.6-42.3zM61.6 104c2.6 2.8 6.3 4 9.4 6.2v7.5h-9c-.2-4.6.5-9.3-.4-13.8zm123.4 6.4c3.5-1.8 6.7-4.1 10-6.2v13.5h-10v-7.3zm-23.5 15.4c5.8-4 11.7-8 17.8-11.6l-2.2 1.3V126c-5.3-.3-10.4-.2-15.6 0zM80 116c4.8 3.4 10.2 6 14.8 9.7H79.9V116z"/><path fill="#212c31" d="M52.8 98.5c2.8 2.1 5.7 3.9 8.8 5.4.9 4.5.2 9.2.4 13.8h9v-7.5c2.9 2 6 3.8 9 5.8v9.8H52.4v-23.4l.3-3.9z"/><path fill="#1e2c33" d="M195 104.2c3-2.2 6.3-3.7 9.1-6-.2 9.2 0 18.4-.1 27.6-9 0-18-.2-27 .1v-10.4l2.3-1.3c2-1.1 3.7-2.4 5.7-3.5v7h10v-13.5z"/><path fill="#73c9f1" d="M121.2 112.2c2.5-3.5 4.3-7.4 7.5-10.1 5.5 8.5 11.6 16.7 16.9 25.3 9.9 13.8 19.1 28.1 28.8 42 11.4 17.3 23.6 34 34.6 51.5-4.4.2-8.7.2-13 .2-44-.2-88 0-132 0-5.4-.1-10.8.2-16.2-.3 1.5-3.6 4-6.6 6.1-9.9 4.9-6.8 9.3-14 14.1-20.7 4.3-5.6 7.5-11.8 12-17.3 13.7-20.3 27.2-40.7 41.2-60.8m7 18.6c-1.2 1.9-2.1 4-3.5 5.7-2.1 3.8-4.7 7.3-6.7 11.1-7.5 11.5-13.9 23.6-21.5 35l-.7 2c-5 6.8-8.8 14.4-13.5 21.4 30.7.2 61.3 0 92 .2-3.6-5.5-6.9-11-10.3-16.6l-6-10c-10.1-16.2-19.6-32.8-29.9-48.8z"/><path fill="#15253c" d="M128.1 130.7c10.3 16 19.8 32.6 30 48.8l6 10 10.1 16.6c-30.6-.2-61.2 0-91.8-.2 4.6-7 8.4-14.6 13.4-21.3l.7-2.1c7.6-11.4 14-23.5 21.5-35 2-3.8 4.6-7.3 6.7-11.1 1.4-1.8 2.3-3.8 3.4-5.8z"/></svg>