<svg xmlns="http://www.w3.org/2000/svg" viewBox="0 0 256 256"><path fill="#ece9f1" d="M22.7 0H107v28H85.8c-2.2 3-5.8 5.8-5.7 10v18.4l9.6.2v23.7c1.5 1.8 3.2 3.4 4.8 5.1 22 .4 44.1 0 66.2.2l5.3-4.8V56.4h9c-.1-7 .2-14.3-.1-21.4-1.3-2.6-3.3-4.7-5-7h-21V0h84.2c11.8.8 22 10.9 22.9 22.7V233a25.3 25.3 0 0 1-22.7 22.9H23a25.3 25.3 0 0 1-23-22.6V23C.8 11 10.9.9 22.7 0M18 87v33c0 12-.2 24 0 36h58c.3-12 0-24 0-36V87H18m161.1 0v69l58-.1c.4-12 0-24 .2-36V87h-58.2m-77 60.9l-.1 36.5h51.3V148H102z"/><path fill="#d6ccba" d="M107 0h42v28l-.1 28.4H107V0z"/><path fill="#e19378" d="M80.1 38c-.1-4.2 3.5-7 5.7-10H107v28.4h42V28h21c1.7 2.3 3.7 4.4 5 7 .3 7.1 0 14.3 0 21.5l-8.8-.1c-.2 8.1 0 16.3-.1 24.4l-5.3 4.8c-22.1-.1-44.1.2-66.2-.2l-4.9-5c.2-8 0-15.9.1-23.8l-9.6-.2V38zM18 87h58v33H18V87zm161.1 0h58.2v33H179V87z"/><g fill="#fff"><path d="M18 120h15v25.7h34.3c-.2-8.6 0-17.1 0-25.7H76c0 12 .2 24-.1 36H18.1c-.3-12-.2-24 0-36z"/><path d="M36 120h11v6H36v-6zm143.1 0h9.7c-.1 8.6 0 17.1-.2 25.7H222V120h15.3c-.1 12 .2 24-.3 35.9-19.3.2-38.6.2-57.9 0V120z"/><path d="M208.2 120h11.7l.1 6h-12l.2-6z"/></g><path fill="#399a9c" d="M33 120h3v6h4v11c-2.4-.1-4.7-.5-7-.8V120zm155.8 0h6.4v17h9.7l-.5 8.7h-15.8c.3-8.6 0-17.1.2-25.7z"/><path fill="#180508" d="M47 120h13v17l-8.4.2L40 137v-11h7v-6zm148.2 0h13l-.2 6h8a101 101 0 0 0-.3 11h-20.5v-17z"/><path fill="#39989f" d="M60 120h7.2c.1 8.6 0 17.1.2 25.7H48.3c1.3-2.8 2.4-5.6 3.3-8.5l8.4-.2v-17zm159.9 0h2.2v16.3c-2.2.3-4.3.6-6.4.7-.1-3.7 0-7.3.2-11h4.1l-.1-6z"/><path fill="#42b0b5" d="M33 136.2c2.3.3 4.6.7 7 .8l11.6.2c-.9 2.9-2 5.7-3.3 8.5H33v-9.5zm182.7.8c2.1-.1 4.3-.4 6.4-.7v9.4h-17.7l.5-8.6h10.8z"/><path fill="#e7acb5" d="M102 147.9h51.3v36.5H102V148m13 8.7V176h25.3v-19.4H115z"/><path fill="#ad7278" d="M115 156.6h25.4v9.7H115v-9.7z"/><path fill="#c8838c" d="M115 166.3h25.3v9.7H115v-9.8z"/></svg>