<svg xmlns="http://www.w3.org/2000/svg" viewBox="0 0 256 256"><path fill="#63b6fc" d="M22.5 0h48.7c0 7-.2 14 .2 21H56.2c-5.5 6.6-11 13.3-16.8 19.5v90c-8.4-.3-16.9-.2-25.3-.2V210h25.3v46H22.7A25.3 25.3 0 0 1 0 233.5V22.7A25.4 25.4 0 0 1 22.5 0zm111.9 0h46.3c-.2 7 .3 14-.4 21-16.2 0-32.4.1-48.6-.1l2.7-.5V0z"/><path fill="#e7d5bd" d="M71.2 0h63.2v20.4l-2.7.5c-20 .3-40.2 0-60.3 0C71 14 71.2 7 71.2 0z"/><path fill="#e4e5ec" d="M180.7 0H226c0 6.6.3 13.1-.1 19.7L224 21h-7.8l.2 3.3-.6-3.3h-35.6c.7-7 .2-14 .4-21zM242 2.4A26 26 0 0 1 256 21h-12l-1.9-1.2c-.4-5.8-.2-11.6 0-17.4z"/><path fill="#ced1d6" d="M226 0h7.2c3 .3 6 1.2 8.9 2.4-.2 5.8-.4 11.6 0 17.4l2 1.2h-20l1.8-1.3c.4-6.6 0-13.1.1-19.7z"/><path fill="#e1734f" d="M39.4 40.5c5.8-6.3 11.3-12.9 16.8-19.4l15.2-.1c20.1 0 40.2.2 60.3-.1 16.2.3 32.4 0 48.6.1H216l.6 3.3c.4 26.9 0 53.8.2 80.7v151H39.4V131l-3.6.8 3.6-1.4v-90M91 73v94h94V73H91m24.4 105v25h82.3v-25h-82.3M105 219.3V243h66v-23.8h-66z"/><path fill="#474644" d="M216.3 21H256l.1.8v211.7a25.5 25.5 0 0 1-22.4 22.5h-17V105c0-26.9.3-53.8 0-80.7l-.3-3.3zM115.4 178h82.3v25h-82.3v-25zM105 219.3h66V243h-66v-23.7z"/><g fill="#fff"><path d="M91 73h94v94H91V73m12 12.7c.2 23.1 0 46.2 0 69.3h69.5V85.5c-23.1.3-46.3 0-69.5.2z"/><path d="M116 93h23v23h-23V93z"/></g><path fill="#313031" d="M103 85.7c23.2-.3 46.4.1 69.6-.2V155h-8.8c-1.4-7.3-.6-14.7-.8-22-13 0-25.8-.1-38.7.1-.4 7.3-.1 14.6-.3 21.9h-21c0-23.1.2-46.2 0-69.3m13 7.3v23h23V93h-23z"/><path fill="#e7bacb" d="M14 130.3c8.5 0 17 0 25.4.2l-3.6 1.3 3.6-.7V210l-25.3.1v-79.7z"/><path fill="#524f4f" d="M124.3 133.1c12.9-.2 25.8 0 38.7 0 .2 7.3-.6 14.7.8 21.9H124c.2-7.3-.1-14.6.3-21.9z"/></svg>