<svg xmlns="http://www.w3.org/2000/svg" viewBox="0 0 256 256"><g fill="#91754f"><path d="M22.3 0h211.4A25.5 25.5 0 0 1 256 22.4v164c-11.9.1-23.7-.2-35.6.1V145H237l4-3.3v-24.6l-4.6-3.7c-5.3.2-10.5.4-15.8.1l-.1-1.2c-.3-16.4 0-32.8-.2-49.2v-3.7c3.4-3.8 9.1-6.8 9-12.6-4.3-5.9-10-10.6-15.1-16-2-2.5-5.2-2-8-1.9-2.6 2.7-5.2 5.3-7.6 8.1H57.4c-3.4-4.1-7.2-8.8-13-9.1-6.2 5.9-12 12-18.1 18 .8 5.9 6 9.4 9.7 13.4v53.1l-.1 1c-4.7.4-9.3 0-13.9.1-2.8-.2-4.6 2-6.7 3.5.5 8.2.4 16.4.1 24.7l3.9 3.3c5 0 9.9.2 14.8-.2.4 0 1 .3 1.4.4l.5.7v53.3c-2.7 2.8-5.9 5.2-8.4 8.3-1 1.9-.9 4.2-1.2 6.3A726 726 0 0 1 44 231.3c2-.4 4-.5 5.7-1.4 3-2.2 5-5.3 7.6-8 17.1.2 34.2 0 51.3.1-.4 11.3-.1 22.7-.2 34h-86A25.3 25.3 0 0 1 0 232.8V22.4A25.5 25.5 0 0 1 22.3 0z"/><path d="M222 221.7c3-.8 6-.8 9-.8 8.3.2 16.7.1 25 .1v12.6a25.5 25.5 0 0 1-22.3 22.4H148v-34h50.8c4.1 3.8 7.5 9 13.6 9.9 3.4-3.3 6.3-6.9 9.7-10.2z"/></g><path fill="#fff16d" d="M44.3 27.9c5.9.3 9.7 5 13.2 9.1 4 4.8 9 8.6 13.3 13.2 4.4 4.3 8.5 8.9 13 13 1.9 1.9 4.7 2 7.2 2 23.3-.2 46.6 0 70 0 4-.1 8.7.7 11.7-2.5 4.5-4.2 8.6-8.7 13-13 4-4.4 8.9-8.1 12.9-12.7 2.4-2.8 5-5.4 7.6-8.1 2.8 0 6-.6 8 2 5 5.3 10.8 10 15.2 16 0 5.7-5.7 8.7-9 12.5v3.7c-5 1-8.5 5-12 8.2-4.3 3.8-7.6 8.4-11.8 12.2-1.5 1.6-3.6 3-3.6 5.5-.5 8 0 16 0 24 9.2.2 18.4.6 27.5-.7l.1 1.2c5.3.3 10.6.1 15.8-.1l4.6 3.7v24.7c-1.3 1-2.7 2-4 3.2h-16.6v3c-2-1.3-4-2.9-6.4-2.9-7-.4-14 0-21 0-.1 7.7-.3 15.3-.1 22.9 0 2.1.8 4.2 2.3 5.7 5 5.4 9.7 11.2 15.5 15.7 5.5 4.4 9.4 10.5 14.8 15 2.6 2.3 5.6 5.4 5 9.2-2 3.4-5.6 5.5-8.4 8.1-3.4 3.3-6.3 7-9.7 10.2-6-.8-9.5-6-13.6-10-9.3-8.2-17.3-17.8-26.6-26-2.2-2.2-5.5-1.8-8.3-2-24.6.3-49.3.1-74 0a9 9 0 0 0-7.2 2.8c-8.4 8.5-16.7 17-25.4 25.3-2.6 2.6-4.7 5.7-7.6 7.9-1.8.9-3.8 1-5.7 1.4-5.8-6-11.6-11.8-17.6-17.5.3-2.1.2-4.4 1.2-6.3 2.5-3 5.7-5.5 8.5-8.3v-2.4c8.2-5.4 15.2-12.6 21.8-20 2.2-2.5 5.4-5 5.2-8.8.3-7.6 0-15.2-.2-22.8l-28.8-.4c-5 .4-9.9.2-14.8.2l-3.9-3.3c.3-8.3.4-16.5 0-24.7 2-1.4 3.8-3.7 6.6-3.5 4.6 0 9.2.3 13.9-.1v-1c9 1.1 18 .8 27 .6.3-7 0-14 .4-21 0-2.3.4-5-1.5-6.7-8.5-8.8-17.4-17.1-25.8-26-3.8-4-8.9-7.5-9.7-13.4l18-18m30.1 57.7c-1.3 1-1 3-1 4.5l-.1 78.9c0 1.8-.2 4 1.3 5.3 3.2 3.8 6.7 7.2 10.2 10.7h86.4c3.4-3.5 7.2-6.7 10.3-10.6 1.1-1.2 1.2-2.9 1.2-4.4V86.8c-3.7-4-7.6-8-11.6-11.8H84.8c-3.5 3.4-6.8 7.2-10.4 10.6z"/><path fill="#f7e568" d="M57.5 37h141c-3.9 4.6-8.7 8.3-12.8 12.7-4.4 4.3-8.5 8.8-13 13-3 3.2-7.8 2.4-11.7 2.5-23.4 0-46.7-.2-70 0-2.5 0-5.3-.1-7.2-2-4.5-4.1-8.6-8.7-13-13-4.3-4.6-9.2-8.4-13.3-13.2zM36 59.3c8.4 8.9 17.3 17.3 25.8 26 1.9 1.7 1.5 4.4 1.5 6.7-.3 7 0 14-.3 21-9 .2-18.1.5-27-.6.1-17.7-.1-35.4 0-53zm172.3 12c3.6-3.3 7-7.2 12-8.2.2 16.4-.1 32.8.2 49.2-9.1 1.3-18.3.9-27.4.7-.1-8-.6-16-.1-24 0-2.4 2.1-3.9 3.6-5.5 4.2-3.8 7.6-8.4 11.7-12.2zM34.1 144.8l28.8.4c.2 7.6.5 15.2.2 22.8.2 3.8-3 6.3-5.2 8.9a112.7 112.7 0 0 1-21.8 20c-.2-17 0-34-.1-51l-.5-.7-1.4-.4zm158.9.4c7 0 14-.5 21-.1 2.5 0 4.4 1.6 6.4 2.9v38.5c11.9-.3 23.7 0 35.6-.2V221h-25c-3 0-6 0-9 .7 2.9-2.6 6.4-4.7 8.5-8.1.6-3.8-2.4-6.9-5-9.2-5.4-4.5-9.3-10.6-14.8-15-5.8-4.6-10.4-10.3-15.5-15.7a7.8 7.8 0 0 1-2.3-5.7c-.2-7.6 0-15.2.2-22.8zM82.8 196.7A9 9 0 0 1 90 194c24.6 0 49.3.2 74 0 2.7 0 6-.3 8.2 1.8 9.3 8.3 17.3 18 26.6 26.1-17 .2-33.9 0-50.8.1v34h-39.6c0-11.3-.2-22.7.2-34H57.3c8.8-8.2 17-16.8 25.5-25.3z"/><path fill="#ff5f81" d="M74.4 85.6c3.6-3.4 6.9-7.2 10.4-10.6h86.3c4 3.8 7.9 7.8 11.6 11.8V170c0 1.5 0 3.2-1.2 4.4-3.2 3.9-7 7-10.3 10.6H84.8c-3.5-3.5-7-6.9-10.2-10.7-1.5-1.4-1.3-3.5-1.3-5.3V90c.2-1.4-.2-3.3 1.1-4.4m8.7 11.5v65.7c3.7 3.6 7.3 7.4 10.8 11.3 1.2 1.7 3.3 1.4 5 1.5H157c1.8 0 3.9.1 5.1-1.5 3.7-3.7 7-7.7 10.8-11.3V97.2c-3.7-3.4-6.8-7.3-10.1-11-1.6-2.2-4.5-1.7-6.8-1.8h-28.6c-10.8.2-21.6.2-32.4 0-3.7 4.4-7.7 8.6-12 12.6z"/><path fill="#d64e68" d="M83.1 97.1c4.2-4 8.2-8.3 11.9-12.8v33.3h32.3V84.3c9.6.1 19.2.2 28.7 0 2.3.2 5.2-.3 6.8 1.9 3.3 3.7 6.4 7.6 10.1 11v65.6c-3.7 3.6-7.1 7.6-10.8 11.3-1.2 1.6-3.3 1.5-5 1.5H99c-1.8 0-3.9.2-5-1.5-3.6-3.8-7.2-7.7-11-11.3l.1-65.7m8 30.4c.4 5 .2 10 .3 15.1 4.8-.3 9.7-.3 14.5-.2l.1-14.9H91z"/><path fill="#fcffff" d="M95 84.3c10.8.3 21.6.3 32.4 0v33.3H95V84.3zm-4 43.2h15v15c-5-.2-9.8-.2-14.6.1 0-5 0-10-.3-15.1z"/></svg>