<svg xmlns="http://www.w3.org/2000/svg" viewBox="0 0 256 256"><path fill="#a59cb7" d="M22.5 0h210.8A25.3 25.3 0 0 1 256 22.5v210.8a25.3 25.3 0 0 1-22.5 22.7H22.7A25.3 25.3 0 0 1 0 233.5V22.7A25.3 25.3 0 0 1 22.5 0M118 16c-1.1 1.5-3 2.8-3 4.9 0 6.5-.2 13.1.2 19.7-18.8.2-37.6-.4-56.4.3-4-3.2-7.3-7.3-11.2-10.6-1.5-1.4-3.5-1.3-5.4-1.4-4.6 4.9-9.6 9.4-14 14.3-.5 2 .2 4.4 1.7 5.9 3 3.2 6.3 6.2 9.5 9.4V116H19.9c-1.9 0-4.5.8-4.5 3.1V140c1.7 1 3.4 2.3 5.5 2h18.5v56.8c-3.8 3.8-7.8 7.5-11.4 11.5v4.5c4.9 4.6 9.5 9.4 14.3 14.1l4.3-.2c4-4 7.8-8.2 12.2-11.8 17.7.4 35.4.2 53 .1l3.2.2v20c0 1.5 1.3 2.7 2 4 6.7-.2 13.4 0 20-.1 2.2.1 3.3-2.3 3.6-4.1v-20c18.9-.1 37.8.3 56.6-.2 3.7 3 6.8 6.5 10.2 9.8 1.3 1.5 3.4 1.6 5.2 2.2l13.7-13.6c1.9-1.4.8-3.9.7-5.8-3.8-3.5-7.3-7.3-11-10.9V142h19c2.2.4 4-1.2 5.7-2.2V119c-.1-2.2-2.8-3-4.6-3H216V59.2c3.3-3.5 6.8-6.8 10.1-10.2 2-1.7 1.8-4.4 2-6.7-5-4.4-9.2-9.4-14.2-13.7-2.3-.2-4.9 0-6.5 1.8-3.3 3.5-6.8 6.8-10.2 10.3-18.8-.4-37.7 0-56.6-.2V19.4L138 16h-20z"/><path fill="#ffe873" d="M118 16h20l2.7 3.4-.1 21.2c.2 9.4 0 18.9.3 28.3 8 .3 16 .1 24.2.2 4.6.4 7.4-3.8 10.5-6.6 7-7.4 14.6-14.3 21.6-21.7 3.4-3.5 6.9-6.8 10.2-10.3 1.6-1.8 4.2-2 6.5-1.8 5 4.3 9.3 9.3 14.2 13.7-.2 2.3 0 5-2 6.7L216 59.3l-21.3 21.4c-2.3 2.3-5 4.3-6.7 7.1-.9 2-.6 4.1-.7 6.2.2 7.2 0 14.5.1 21.8 9.6.5 19.1 0 28.7.2H236c1.8 0 4.5.9 4.5 3v20.7c-1.7 1-3.4 2.6-5.6 2.3h-19c-9.6.1-19.1-.3-28.6.2-.2 8.2-.2 16.5-.1 24.8-.2 2.3 1.2 4.3 2.8 5.8l25.9 25.7c3.7 3.6 7.2 7.4 11 10.9 0 2 1.2 4.4-.8 5.8-4.5 4.6-9 9.2-13.6 13.6-1.8-.6-3.9-.7-5.2-2.2-3.4-3.3-6.5-6.9-10.2-9.8-8.2-8.9-17-17-25.3-25.7-2.4-3-6.5-2.4-10-2.4-7 .2-14-.3-21 .2-.5 9.4 0 18.7-.3 28.1v19.9c-.3 1.8-1.4 4.2-3.5 4-6.7.2-13.4 0-20.1.1-.7-1.3-2-2.4-2-4v-20l-3.2-.1 3-1.1c.4-9 .3-18 .1-26.9-8.3-.4-16.6-.1-25-.2-3-.4-5.4 1.8-7.3 3.9-7.8 8.1-16.1 15.9-23.8 24.2-4.4 3.6-8.1 7.8-12.2 11.8l-4.3.2c-4.8-4.7-9.4-9.5-14.3-14.2v-4.4c3.6-4 7.6-7.7 11.4-11.5 8.2-8.3 16.3-16.5 24.6-24.6 2-2 4.2-4 4-7l-.1-25c-9.5-.3-19 0-28.5-.2H20.9c-2.1.3-3.8-1-5.6-2V119c0-2.3 2.7-3.1 4.6-3l19.5-.1c9.5 0 19 .3 28.5-.2.1-9.2.4-18.5-.2-27.7-1.9-3.5-5.3-5.9-8-8.8-6.9-6.8-13.5-14-20.4-20.8-3-3.2-6.3-6.2-9.4-9.4a6.6 6.6 0 0 1-1.8-5.9c4.5-5 9.5-9.4 14-14.3 2 0 4 0 5.5 1.4 3.9 3.3 7.1 7.4 11.2 10.6 8 9 17 17.2 25.4 26C86.3 69.5 90 69 93 69c7.3-.2 14.6.2 22-.2l.2-28.3c-.4-6.6-.2-13.2-.2-19.7 0-2.1 1.9-3.4 3-5M79.3 88.5l.1 81.2 8.8 7.4c26.3 0 52.5.1 78.8-.1 3.3-2 6-4.8 9-7.2V87.9c-4-2.5-6.6-8-12-7.3-25 .1-50-.1-75 .1a35.7 35.7 0 0 0-9.7 7.7z"/><path fill="#f7db5d" d="M115.2 40.6c0 9.4-.1 18.9-.3 28.3-7.3.4-14.6 0-21.9.2-3 0-6.7.5-8.8-2.2-8.4-8.8-17.4-17-25.4-26 18.8-.7 37.6 0 56.4-.3zm25.7 28.3c-.3-9.4-.1-18.9-.3-28.3 18.9.1 37.8-.3 56.6.2-7 7.4-14.6 14.3-21.6 21.7-3 2.8-5.9 7-10.5 6.6-8.1 0-16.2.1-24.2-.2zM39.4 58.5c6.8 6.9 13.5 14 20.3 20.8 2.7 3 6.1 5.3 8 8.8.6 9.2.3 18.5.2 27.7-9.5.5-19 .1-28.5.2V58.5zm155.2 22.2c7-7.2 14.3-14.3 21.3-21.4.2 18.9 0 37.8 0 56.7-9.5-.1-19 .3-28.6-.2V94c0-2-.3-4.3.6-6.2 1.8-2.8 4.4-4.8 6.7-7.1zM39.4 142c9.5 0 19-.2 28.5 0 .2 8.4.1 16.7 0 25 .3 3-2 5.1-3.9 7l-24.6 24.7v-56.8zm148 .2c9.5-.5 19-.1 28.6-.3v56.6l-26-25.7c-1.6-1.5-3-3.5-2.8-5.8v-24.8zM82.6 192.6c2-2 4.3-4.3 7.4-3.9 8.3 0 16.6-.2 24.9.2.2 9 .3 18 0 26.9l-3 1.1c-17.7.1-35.4.3-53-.1 7.6-8.3 15.9-16 23.7-24.2zM141 189c7-.6 14-.1 21-.3 3.4 0 7.5-.6 10 2.4 8.3 8.6 17 16.8 25.2 25.7-18.8.5-37.7 0-56.6.2.3-9.4-.2-18.7.3-28z"/><path fill="#ff5f81" d="M79.3 88.4c2.8-3 6-5.9 9.6-7.7 25-.2 50 0 75.1-.1 5.4-.8 8 4.8 12 7.3v81.8c-3 2.4-5.7 5.2-9 7.2-26.3.2-52.5 0-78.8 0-3-2.3-5.8-5-8.8-7.3V88.4m7.7 5c-.2 11.3-.1 22.7 0 34.1l1-.5c-1.4 1.3-1.1 3.3-1.2 5l.1 31c0 1.8 1.9 2.6 3 3.7 1.6 1 3 2.7 5 3.1 3.6.4 7.2.1 10.7 0 4.6 0 9.2.5 13.8 0 12.8.4 25.7 0 38.5.2 4.7.6 7.6-3.7 10.9-6.1.2-12.3 0-24.6.1-36.9 0-2.2.2-4.5-.7-6.6 1.6-4.4.5-9.3.5-13.9l-.7.7c1.3-4.3 1-8.8.7-13.1 0-1.5-1.7-2-2.7-2.7-2.2-1.6-4-4.5-7-4-9.7 0-19.3-.2-29 .1-11-.2-22 0-33.1-.1-4.3-.3-6.8 3.8-9.9 6z"/><path fill="#d64e68" d="M87.1 93.4c3.2-2.2 5.7-6.3 9.9-6l33.1.1c-4 2.4-6.7 6.3-10.2 9.4-5.8 4.9-10.7 10.6-16.5 15.4-5 5-10.2 9.8-15.4 14.7l-.8.5c-.3-11.4-.3-22.8 0-34.1zm37.1 39.9l42-41.9c.9.8 2.5 1.2 2.6 2.7.3 4.3.6 8.9-.7 13-13.1 12.9-26 26-39 39-7.5 8.2-15.5 15.9-23.4 23.7-3.5.1-7.1.4-10.6 0-2-.5-3.5-2-5.1-3.2 11.7-10.8 22.2-22.8 34.2-33.3zm38.1-6c2.2-2.1 4.3-4.4 6-6.9 1 2.1.7 4.4.7 6.6-.1 12.3.1 24.6-.1 36.9-3.3 2.4-6.3 6.7-10.9 6-12.8-.1-25.7.3-38.5-.2 14.5-13.8 28.4-28.3 42.8-42.4z"/><path fill="#f7a0b2" d="M130.1 87.5c9.7-.3 19.3 0 29-.1 3-.5 4.8 2.4 7 4l-41.9 42c-12 10.4-22.5 22.4-34.3 33.3-1-1.1-3-2-2.9-3.7-.2-10.4 0-20.7 0-31 0-1.7-.3-3.7 1-5 5.2-4.9 10.4-9.6 15.4-14.7 5.8-4.8 10.7-10.5 16.5-15.4 3.5-3 6.2-7 10.2-9.4zm38 19.7l.7-.7c0 4.6 1 9.5-.5 14a49.1 49.1 0 0 1-6 6.8c-14.4 14-28.3 28.5-42.8 42.5-4.6.5-9.2 0-13.8 0 8-7.8 16-15.5 23.4-23.7 13-13 25.9-26.1 39-39z"/></svg>