<svg xmlns="http://www.w3.org/2000/svg" viewBox="0 0 256 256"><path fill="#fce9ef" d="M22.3 0h211.3A25.6 25.6 0 0 1 256 21.8V110c-17.4-.2-34.9 0-52.3 0v74.6c17.4.3 34.8 0 52.3.2v48.8l-1.1 5.2a6 6 0 0 0-4.9-2L3.1 237c-.5.5-1.4 1.6-2 2L0 233.8v-49h52.3V110H0V22.3A25.5 25.5 0 0 1 22.3 0M63 53v65c14 .2 28 0 42 0 .3-21.6.1-43.2 0-64.8-14-.3-28-.2-42 0m88 0c-.3 21.6-.1 43.2 0 64.8 14 .2 28 0 42 0 .2-21.6 0-43.2 0-64.8-14-.2-28-.2-42 0m-80.8 84.6l.1 63.3h115.4c0-21.2.2-42.4 0-63.5-38.5.2-77-.1-115.5.2z"/><path fill="#fff" d="M63 53c14 0 28-.2 42 0 .1 21.7.3 43.3 0 65-14 0-28 .1-42-.1V53m26 18v22.7h13V71H89zm62-18h42c0 21.7.2 43.3 0 65-14 0-28 .1-42-.1-.1-21.6-.3-43.2 0-64.9m3 18v22.7h13V71h-13z"/><path fill="#424142" d="M89 71h13v22.7H89V71zm65 0h13v22.7h-13V70.9z"/><path fill="#ef94aa" d="M0 110c17.4 0 34.9-.1 52.3 0v74.7H0V110zm203.7 0c17.4 0 34.9-.2 52.3 0v74.8c-17.5-.3-35 0-52.4-.2.2-24.9 0-49.8.1-74.7z"/><path fill="#9c6f81" d="M70.2 137.7c38.5-.3 77 0 115.4-.2.3 21.1.1 42.3 0 63.4H168c.2-12.3.3-24.7 0-37.1a4331 4331 0 0 0-80.6 0c0 12.4.2 24.8-.1 37.2h-17c-.2-21.1 0-42.2 0-63.3z"/><path fill="#c692a5" d="M87.3 163.8c26.9-.3 53.7-.2 80.6 0 .3 12.4.2 24.8 0 37.2H87.2c.3-12.4.2-24.8.1-37.2z"/><path fill="#f4f4f7" d="M1.2 239l1.9-2.1h247a6 6 0 0 1 4.8 1.9 25.6 25.6 0 0 1-21.2 17.2H22.4c-9.6-1-18.2-7.8-21.2-17z"/></svg>