<svg xmlns="http://www.w3.org/2000/svg" viewBox="0 0 256 256"><path fill="#aad38c" d="M17.5 0h221c9.4 3 16.6 11.7 17.5 21.5v210.9a25 25 0 0 1-19.7 22l.2 1.6h-217c0-.4.3-1.1.4-1.5a25.2 25.2 0 0 1-19.9-22V21.7C.8 11.7 8 3 17.5 0M19 50.7V118h21c1.5-.2 3-.2 4.4 0h40.5l.4.6c2.5 0 5-.4 7.5-.9.5-5.2 0-10.5.2-15.8-.2-5.5.3-11.1-.3-16.7-2.4-.2-5-.2-7.4 0-.3 5 0 9.9-.4 14.8-.3 5.6.6 11.3-.9 16.8-3.7-3-6.3-7-9.8-10-4.3-4.5-8.7-8.8-13-13.1l-.9-1.8h-.6c-4.9-4.7-9.2-10-14.7-14v-1c-2.1-1.3-2.8-3.9-5-5.2-3.7-3.9-7.6-7.5-11.4-11.3-3.2-3.2-5.8-7.1-9.6-9.7m197 21c-2 1.8-4 3.8-5.9 5.8v.5c-1.7 1-3 2.4-4.4 3.8-2.6 3.9-6.3 6.7-9.4 10.1h-.5c-2.4 3.1-5.7 5.6-8.3 8.5-1.2 2.6-4 4-5.7 6.3-3.1 2.9-6 6.1-9.1 9l-1.6-1.8c-.7-12.5 0-25-.4-37.6a21 21 0 0 0-7.5-.1c-.3 13.8-.3 27.6 0 41.4 2.5.5 5 1 7.7 1.1l.1-.7h65V51.2c-6.7 6.8-13.4 13.5-20 20.5M111.2 142c-.2 4.6-.2 9.2 0 13.8 1.8.2 3.6.2 5.5 0v-13.5a9.7 9.7 0 0 0-5.5-.3m28.1.2v13.6c1.8.2 3.7.2 5.5 0 .2-4.6.2-9.2 0-13.8-1.8-.3-3.7-.4-5.5.2M20 156v51h188c9.2 0 18.4.1 27.6-.1v-50.8c-5.4-.3-11 0-16.4-.2h-22.3l-34.5.1c-2.4 3.7-5 7.2-7.6 10.7-17.8.2-35.6.1-53.4 0-3.4-3-5.4-7.3-8.5-10.6-11.3-.2-22.6 0-33.9-.1-7.3.2-15-.4-22.2.2-5.5-.4-11.2-.1-16.8-.2z"/><path fill="#fff" d="M19 50.7c3.8 2.6 6.4 6.5 9.6 9.7 3.8 3.8 7.7 7.4 11.4 11.3.2 15.4.1 30.8 0 46.2-7 .2-14 .1-21 0V50.8zm197 21c6.6-7 13.3-13.7 20-20.5V118h-20.2v-11c.2-11.8 0-23.5.2-35.3zM45 77.9c5.5 4 9.8 9.3 14.7 14l-3.8.1H45V77.9zm160.7 3.9a20 20 0 0 1 4.4-3.8c.5 4.6 0 9.3.2 14h-14c3-3.5 6.8-6.3 9.4-10.2zM36.8 156.2c7.3-.6 14.9 0 22.3-.2-.2 7 0 14-.1 21l-22.3-.1.1-20.7zM197 156h22.2l.1 21H197v-21z"/><path fill="#212829" d="M40 71.7c2.2 1.3 2.9 3.9 5 5.2v15l11 .1c-1 5-1 10-1.1 15-4.6 0-9.2-.2-13.8.2a10 10 0 0 0 3.3 10.7H40c.1-15.4.2-30.8 0-46.2z"/><path fill="#212629" d="M210.1 77.5c2-2 3.9-4 6-5.8-.4 11.8-.1 23.5-.2 35.3h-15.7c-.3-5-.3-10-.2-15h10.3c-.1-4.7.3-9.4-.3-14l.1-.5z"/><path fill="#9fc481" d="M163.2 76.2c2.5-.4 5-.4 7.5 0 .4 12.6-.3 25.2.4 37.7l1.6 1.7c-.6.8-1.5 1.4-1.7 2.4l-.2.7c-2.5-.1-5-.6-7.6-1a957 957 0 0 1 0-41.5zm-77.9 9c2.5-.2 5-.2 7.4 0 .6 5.6.1 11.2.3 16.7-.1 5.3.3 10.6-.2 15.8-2.5.5-5 1-7.5.9l-.4-.6-.9-1.2c1.5-5.5.6-11.2 1-16.8.3-5 0-9.9.3-14.8z"/><path fill="#1b1e21" d="M56 92h4.3l.8 1.7c4.4 4.3 8.8 8.6 13 13-1.4.1-3 0-4.4.4l-1.4 2.6c-4.2.6-8.6.5-13 0L55 107c.1-5 .1-10 1-15zm131.5 8.4c2.7-3 5.9-5.4 8.3-8.5h.5l3.7.1c0 5-.1 10 .2 15l-.5 2.9c-4 .2-8 .5-12-.2-.6-3-3.3-3.2-5.9-3 1.8-2.2 4.5-3.7 5.7-6.3z"/><path fill="#313639" d="M41.1 107.2c4.6-.4 9.2-.1 13.8-.2l.5 2.8c4.3.4 8.7.5 13 0l1.3-2.7c1.4-.4 3-.3 4.5-.4 3.5 3.2 6.1 7.1 9.8 10l.9 1.3H44.3a10 10 0 0 1-3.2-10.8zm131.6 8.4c3.2-2.8 6-6 9.1-8.9 2.6-.2 5.3 0 5.9 3 4 .7 8 .4 12 .2l.5-2.9h15.7v11c-15 0-30-.1-44.9 0 .2-1 1.1-1.6 1.7-2.4z"/><path fill="#99bc7b" d="M111.2 142c1.8-.4 3.7-.3 5.5.3v13.5c-1.9.2-3.7.2-5.5 0-.2-4.6-.2-9.2 0-13.8zm28.1.2c1.8-.6 3.7-.5 5.5-.2.2 4.6.2 9.3 0 13.9a30 30 0 0 1-5.5-.1v-13.6z"/><path fill="#896965" d="M20 156c5.6 0 11.3-.3 16.8.2V177H59v-21c11.3.1 22.6 0 34 .2 3 3.3 5 7.5 8.4 10.6 17.8.1 35.6.2 53.4 0 2.6-3.5 5.2-7 7.6-10.7h34.5c.2 7 0 14 .1 21h22.3l-.1-21c5.5.1 11-.2 16.5 0V207c-9.3.2-18.5.1-27.7 0 0-6.5.2-13-.1-19.5H48c-.3 6.5 0 13-.1 19.5-9.3.2-18.6.1-28 0v-51z"/><path fill="#c8a09c" d="M48.1 187.4H208c.3 6.5 0 13 .1 19.5H48c0-6.5-.2-13 .1-19.5z"/></svg>