<svg xmlns="http://www.w3.org/2000/svg" viewBox="0 0 256 256"><path fill="#f9f4c8" d="M22.8 0h210.1c12 .7 22.3 11 23.1 22.8V233a25 25 0 0 1-11 18.9c0-12.6.1-25.2-.2-37.8.3-55.9.1-111.8.1-167.7.1-8.7.5-17.4 0-26.1-4.2-2.8-8-6.2-12.3-8.6-4.4-1.4-9.1-.5-13.6-.7H38c-4.6.1-9.3-.5-13.9.5-4.6 2.1-8.3 5.7-12.3 8.7-.5 8.8-.1 17.6-.3 26.4V214c0 12.7-.1 25.5.1 38.2a25.3 25.3 0 0 1-11.6-19V23.1C.7 11 11 .9 22.8 0z"/><path fill="#e7e0b7" d="M11.8 20c4-2.9 7.7-6.5 12.3-8.6 4.6-1 9.3-.4 13.9-.5h181c4.5.2 9.2-.7 13.6.7 4.4 2.4 8.2 5.8 12.3 8.6.5 8.7.1 17.4 0 26.1-4.1-2.5-7.3-6.2-10.8-9.5-1.5-1.2-3-2.9-5-2.8H34c-3.5.2-7.5-.9-10.4 1.6-4.3 3.4-7.7 7.7-12.1 10.9.2-8.8-.2-17.6.3-26.4z"/><path fill="#a284b5" d="M23.6 35.6c2.9-2.5 7-1.4 10.4-1.6h195c2.1 0 3.6 1.6 5.1 2.8 3.5 3.3 6.7 7 10.8 9.5 0 56 .2 111.8 0 167.8-77.8-.2-155.6-.1-233.3-.1-.2-55.8 0-111.7-.1-167.5 4.4-3.2 7.9-7.5 12-11M47 70v54h42V70H47m120 0v54h42V70h-42M97.3 192h61.4v-78.4H97.3V192z"/><path fill="#fff" d="M47 70h42v54H47V70m18 16v8h8v-8h-8zm102-16h42v54h-42V70m16 16v8h8v-8h-8z"/><path fill="#313031" d="M65 86h8v8h-8v-8zm118 0h8v8h-8v-8z"/><path fill="#f4c3c6" d="M97.3 192v-78.4h61.4V192H97.3m17.4-60v34h27c-.3-11.6.7-23.1 0-34.6l-.1.9c-9-.7-18-.2-27-.3m2.7 37.2a114 114 0 0 0 0 9.6c3.4.3 6.9.3 10.3 0 .2-3.2.2-6.4.1-9.6-3.5-.3-7-.3-10.4 0z"/><path fill="#ad8289" d="M114.7 132c9 .1 18-.3 26.9.3-.7 6 0 12-.2 18-9 .2-17.9 0-26.8 0V132z"/><path fill="#d09fa7" d="M141.6 132.3l.1-1c.7 11.6-.3 23.1 0 34.7h-27v-15.7c8.8 0 17.8.2 26.7 0 .3-6-.5-12 .2-18z"/><path fill="#f7d3d6" d="M117.3 169.2c3.5-.3 7-.3 10.4 0v9.7c-3.5.3-7 .2-10.4-.1a114 114 0 0 1 0-9.6z"/><path fill="#f7e57e" d="M11.6 214h233.2c.3 12.6.3 25.2.2 37.8l-1.6 1v-13.4c-4.7-2.8-8.5-6.8-13.1-9.7-1.5-1.2-3.5-1.2-5.2-1.2h-61a8 8 0 0 0-5.7 1.9c-3.9 3.2-7.7 6.4-12 9-.1 5.6.2 11.1-.3 16.6h-36.5v-16.5c-4.4-2.8-8.3-6.4-12.5-9.6-1.4-1.2-3.3-1.4-5.1-1.4-21.5 0-43 .1-64.4 0-5.1 3.2-9.4 7.6-14.5 10.7v14l-1.5-1c-.2-12.7 0-25.5 0-38.2z"/><path fill="#db6560" d="M13 239.2c5.2-3.1 9.5-7.5 14.6-10.8 21.4.2 43 0 64.4.1 1.8 0 3.7.2 5.1 1.4 4.2 3.2 8 6.8 12.5 9.6V256H94c.1-5.6.2-11.1-.2-16.7-10.4-.4-20.8-.2-31.2 0 .1 5.5.3 11.1 0 16.7H22.9c-3.4-.3-6.7-1.4-9.8-2.9v-13.9zm145.4-8.8a8 8 0 0 1 5.7-1.9h61c1.8 0 3.7 0 5.2 1.2 4.6 3 8.4 6.9 13 9.7.2 4.5.2 9 .1 13.5a29.4 29.4 0 0 1-10 3.1H194c.1-5.6.2-11.2-.2-16.7-10.5-.2-21-.3-31.6 0a155 155 0 0 0-.1 16.7h-16c.5-5.5.2-11 .3-16.5 4.3-2.7 8.1-6 12-9.1z"/><path fill="#e76a65" d="M62.6 239.2c10.4 0 20.8-.3 31.2.1.4 5.6.3 11.1.2 16.7H62.7c.2-5.6 0-11.2 0-16.8zm99.6.1c10.5-.3 21-.2 31.6 0 .4 5.5.3 11.1.2 16.7h-32c-.1-5.6-.2-11.1.2-16.7z"/></svg>