<svg xmlns="http://www.w3.org/2000/svg" viewBox="0 0 256 256"><path fill="#fcdd7e" d="M22.5 0h210.8A25.3 25.3 0 0 1 256 22.6v153.3h-41.3a501241.6 501241.6 0 0 0-201.3 0H0V22.7A25.3 25.3 0 0 1 22.5 0m14.7 39.4C47.6 50.6 57.7 62 68 73.4c16.8 19 34 37.7 50.8 56.6h18.5a41143 41143 0 0 1 81.5-90.6c-9-9.7-18.7-18.8-28-28.3-1.2 1-2.5 2-3.5 3.3-8.4 10-17.4 19.2-25.7 29.2-8.4 9.2-16.8 18.5-25 28-3 3-5.7 6.2-8.6 9.3-11.4-12.3-22.1-25.1-33.6-37.3-9.3-11-19.2-21.5-28.7-32.4-9.8 9-19.3 18.5-28.5 28.2M20 81.7V133c24.5 0 49 .2 73.5-.2-6.8-5.6-14.5-10-21.5-15.2-2.8-2-5.7-3.7-8.4-5.7l.4-3.8h-4.2l1.5 1.9-.3 2.3a67 67 0 0 0-.4-2.8C46.8 100.6 33.6 91 20 81.7m187.5 19.7c-4 2.8-7.8 5.8-12 8l-.5 3-.3-2.5 1.5-1.8H192l.3 4c-2.7 2-5.6 3.5-8.3 5.5-7 5.2-14.7 9.7-21.4 15.3 24.5.2 49 0 73.4 0V81.8c-9.6 6.5-18.9 13.3-28.5 19.7m-93.3 53V167h6.1v-12.7l-6.1.1m21.5 0V167l6-.2.1-12.4-6.1-.2zM0 233.7c9.1-.2 18.3 0 27.4-.1H256a25.4 25.4 0 0 1-22.6 22.4H22.7A25.3 25.3 0 0 1 0 233.7z"/><path fill="#31414f" d="M37.2 39.4c9.2-9.7 18.7-19.2 28.5-28.2 9.5 10.9 19.5 21.3 28.7 32.4 11.5 12.2 22.2 25 33.6 37.3 3-3 5.7-6.3 8.6-9.3 8.2-9.5 16.6-18.8 25-28 8.3-10 17.3-19.3 25.7-29.2 1-1.2 2.3-2.3 3.5-3.3 9.3 9.5 19 18.6 28 28.3a41143 41143 0 0 0-81.5 90.6h-18.5c-16.9-18.9-34-37.6-50.8-56.5C57.7 62 47.6 50.6 37.2 39.4z"/><path fill="#fff" d="M20 81.7c13.5 9.3 26.8 18.9 40.6 27.8l.4 2.8V127h11v-9.4c7 5.2 14.7 9.6 21.5 15.2-24.5.4-49 .1-73.5.2V81.7zm187.5 19.7c9.6-6.4 19-13.2 28.5-19.7V133c-24.5 0-49 .1-73.4-.1 6.7-5.6 14.4-10 21.4-15.3v9.4h11v-14.7l.4-2.9c4.3-2.2 8.1-5.3 12.1-8zM13.4 176h27.9c0 6.9.1 13.9-.2 20.8V213H13.2v-37zm201.3 0h28v37H215l-.1-16.1c-.3-7-.2-14-.2-21z"/><path fill="#c2bc83" d="M59.8 108.2l4.2-.1-.4 3.8-2.3-2-1.5-1.8zM192 108l4.2.2-1.5 1.7-2.4 2.2-.3-4z"/><path fill="#313029" d="M61.3 110l2.3 1.9c2.7 2 5.6 3.7 8.4 5.7v9.4H61v-14.7l.3-2.3zm131 2l2.4-2 .3 2.3V127h-11v-9.4c2.7-2 5.6-3.6 8.3-5.5z"/><path fill="#c6ae63" d="M114.2 154.4h6.1V167l-6-.1-.1-12.6zm21.5-.1l6.1.2v12.4l-6.1.2v-12.8z"/><path fill="#a7877e" d="M0 176h13.4v37h14c-.2 6.9-.2 13.7 0 20.6H0V176zm41.3 0h173.4c0 7-.1 13.9.2 20.9-52.3.3-104.6 0-157 .1-5.5 0-11.1 0-16.8-.2.3-7 .2-13.9.2-20.9zm201.3 0H256v57.7c-9.1-.2-18.3 0-27.4-.1.2-6.9.2-13.7 0-20.6h14v-37z"/><path fill="#dbb0b5" d="M41.1 196.8c5.6.2 11.3.2 16.9.2 52.3-.1 104.6.2 156.9-.1.1 5.3 0 10.7 0 16.1h13.8v20.6H27.3c-.2-6.9-.2-13.7 0-20.6H41l.1-16.2z"/></svg>