<svg xmlns="http://www.w3.org/2000/svg" viewBox="0 0 256 256"><path fill="#f9d86d" d="M22.4 0h211.2c11.3 1 21 10.5 22.4 21.8v7c-39.3.5-78.6.2-118 .2H0v-6.6A25.5 25.5 0 0 1 22.4 0z"/><path fill="#e4612b" d="M0 29h118v91c-6.4.3-12.7 0-19 0a16 16 0 0 0-6.2 1.4l-1.5-1.3c-5.8-.1-11.6-.2-17.4 0 .7-3.4-5.7-2.6-2.7.2l.1 2-1-2.3H62c-1.3-1.5-2.8-1.3-4.3-.3-14.2.7-28.4.1-42.7.3v1.7c-4.2-3.7-11 .6-15-3.9V29zm138 0c39.4 0 78.7.3 118-.1v89c-4.5 4.2-11.3.3-16 4V120c-14-.2-27.9.3-41.8-.2-1.4-1.2-2.9-1.2-4.1.1-2.8.2-5.6.1-8.3 0l-1.2 2.5.2-2.2c3-2.7-3.3-3.5-2.8-.2h-17.3l-1.5 1.4c-2-.8-4-1.4-6.2-1.4-6.3 0-12.6.3-19 0V29zM0 162h36v72h184v-72h36v72a25.6 25.6 0 0 1-22.3 21.9H22.3A25.5 25.5 0 0 1 0 233.7V162z"/><path fill="#cb5626" d="M118 29h20v91c6.4.3 12.7 0 19 0 2.2 0 4.2.6 6.2 1.4l1.5-1.3V153H240v-31c4.7-3.8 11.5.1 16-4v44H156v-36.2h-56V162H0v-44.2c4 4.5 10.8.2 15 4V153h76.3v-33l1.5 1.4c2-.8 4-1.5 6.2-1.4 6.3 0 12.6.3 19 0V29z"/><path fill="#2e2421" d="M57.8 119.7c1.4-1 3-1.2 4.2.2 2.7.2 5.5.1 8.2 0l1.1 2.5c.2 4.4 0 8.9.1 13.3H60.2c.2-5.4 0-10.8.3-16.3l-2.8.3m3.5 1.3c.3.3.3.3 0 0zm132.8-1c1.3-1.4 2.8-1.4 4.2-.2l-2.7-.3c.3 5.4.1 10.8.3 16.3-3.8-.2-7.5-.2-11.2-.1v-13.3l1.2-2.4h8.3m.5 1c.3.3.3.3 0 0z"/><path fill="#b7624d" d="M71.2 120.3c-3-2.8 3.4-3.6 2.7-.3l-2.7.3zM182 120c-.5-3.3 5.9-2.5 2.8.2l-2.8-.2z"/><path fill="#fff" d="M15 120c14.3-.2 28.5.4 42.8-.3l2.7-.3c-.4 5.5-.1 11-.3 16.4 3.8-.2 7.5-.2 11.2-.1v-13.3l-.2-2.2 2.7-.2h17.4v33H15v-33zm149.7 0H182l2.7.2-.2 2.2v13.3h11.2c-.2-5.4 0-10.8-.3-16.2l2.7.3c13.9.5 27.9 0 41.8.2v33h-75.3v-33z"/><path fill="#841400" d="M61.2 121c.3.3.3.3 0 0zm133.4 0c.3.3.3.3 0 0z"/><path fill="#e9c5a7" d="M100 125.8h56V162h64v72H36v-72h64v-36.2M62.8 190v29h130.4v-29H62.8z"/><path fill="#916770" d="M62.8 190h130.4v29H173c.2-5.3.3-10.5 0-15.7H82.5c0 5.3 0 10.5.3 15.7h-20v-29z"/><path fill="#b7828c" d="M82.5 203.3h90.4c.3 5.2.2 10.4 0 15.7H82.8c-.3-5.2-.3-10.4-.3-15.7z"/></svg>