<svg xmlns="http://www.w3.org/2000/svg" viewBox="0 0 257 257"><path fill="#60554f" d="M20.2 0h3c.5 1.8-1.6 2.8-3 1.9V0zM235 0h3l-.2 1.8c-1.3 1-4-.1-2.8-1.8z" opacity=".7"/><path fill="#8c7b75" d="M23.1 0h212c-1.2 1.7 1.4 2.8 2.7 1.8A24.6 24.6 0 0 1 257 23.4v118.3h-38c-7 0-14 .3-21-.4V100H60v41.2c-20 1-40 0-60 .5V23c1.3-.7 1.8-2 2-3.4A23.2 23.2 0 0 1 20.2 1.8c1.4 1 3.5 0 3-1.8M23 28.6v55.2c29 .2 58 .3 87 0-10.8-6.3-21-13.6-31.8-20v-.4L74 61.2c-1.4-1.7-3.4-2.6-5.1-3.9l-5-2.6v-.3C50.2 46.1 37 37 23 28.6m171 26.2l-5 2.5c-1.7 1.3-3.8 2.2-5.2 4l-4.1 2.1v.5c-4.2 2.3-8.1 5-12.1 7.5-6.2 4.4-13 7.9-19 12.4 28.8.3 57.5.2 86.2 0 .2-18.4 0-36.8.1-55.2-13.8 8.5-27.4 17.2-41 26.2zM0 165h60v49c0 8.7.1 17.3-.2 26-19.1.2-38.3-.3-57.5.2l-1-3.2-1.3.8V165zm198 0h59v69.5c-.3 2-.7 3.9-1.3 5.8-19.1-.7-38.3-.1-57.5-.3-.3-8.7-.1-17.3-.1-26-.2-7.7-.1-15.4 0-23l-.1-26z"/><path fill="#50483d" d="M0 19.7h2c-.2 1.3-.7 2.6-2 3.4v-3.4z" opacity=".6"/><g fill="#fff"><path d="M23 28.6C37 36.9 50.3 46 64 54.4V77h14c0-4.4-.1-8.8.3-13.1 10.8 6.3 21 13.6 31.8 20-29 .2-58 .1-87 0V28.5zm171 26.2c13.5-9 27.1-17.7 41-26.2-.2 18.4 0 36.8-.2 55.2-28.7.2-57.4.3-86.2 0 6-4.5 12.8-8 19-12.4 4-2.6 8-5.2 12.1-7.5.4 4.4.3 8.8.3 13.1h14V54.8z"/><path d="M69 57.4c1.7 1.2 3.7 2.1 5.1 3.8l.3 6.8H69V57.4zm114.8 3.8c1.4-1.7 3.5-2.6 5.2-3.9V68h-5.4c0-2.3 0-4.5.3-6.8z"/></g><path fill="#333133" d="M64 54.6l5 2.8V68h5.4c0-2.3-.1-4.5-.3-6.8l4.2 2.2v.5c-.4 4.4-.3 8.7-.3 13.1H64V54.6zm125 2.7l5-2.5V77h-14c0-4.3.1-8.7-.3-13v-.6l4.2-2.2-.3 6.8h5.4V57.3z"/><path fill="#39312e" d="M60 100.1h138v16.2h-54.7V142H198v23h-54.8l.1 26H198v23h-54.7a868 868 0 0 0 0 26h54.9c-.3 5.7-.2 11.3-.2 17H60c0-5.7 0-11.4-.2-17h54.9v-26H59.9c.2-7.7.1-15.4 0-23h54.8v-26H60v-23h54.7v-25.7H60V100z"/><path fill="#c8c4cb" d="M60 116.3h54.7V142H60v-25.7zm83.3 0H198V142h-54.7v-25.7zM60 165h54.8l-.1 26H60v-26zm83.2 0H198v26h-54.7v-26zM60 214h54.7v26H59.8c.4-8.7.1-17.3.2-26zm83.3 0h54.8c0 8.7-.3 17.3 0 26h-54.8a868 868 0 0 1 0-26z"/><path fill="#70625d" d="M0 141.8c20-.5 40 .5 60-.5V165H0v-23.2zm198-.5c7 .7 14 .3 21 .4h38V165h-59v-23.7zM2.3 240.2c19.2-.5 38.4 0 57.5-.2.3 5.6.2 11.3.2 17H23.4c-9.5-1-18-7.7-21-16.8zm195.9-.2c19.2.2 38.4-.4 57.6.3a25.7 25.7 0 0 1-21.1 16.7H198c0-5.7 0-11.3.2-17z"/></svg>