<svg xmlns="http://www.w3.org/2000/svg" viewBox="0 0 256 256"><path fill="#d6a460" d="M22.4 0h211C245 1 255 11 256 22.6v210.7a25.4 25.4 0 0 1-22.4 22.7h-211A25.4 25.4 0 0 1 0 233.5V22.7A25.4 25.4 0 0 1 22.4 0M111 9.3V41h34V9.3h-34M100.8 70v54h54.6V70h-54.7M24 92.5V149h59.2c-3.6-4.4-8.4-7.7-12.3-11.8a51 51 0 0 0-5.9-5.4v-.3c-4.8-3.4-8.4-8.2-13-11.8v-.8c-9.5-8.5-18.5-17.7-28-26.3m180 26.3v.8c-4.8 3.6-8.3 8.5-13 12.3-3.3 2-5.5 5.2-8.4 7.6-3.3 3.2-6.8 6-9.8 9.4H232c0-18.8.3-37.5-.1-56.3-9.4 8.7-18.4 17.7-27.9 26.2M70 171.1v69.8c3 2.5 6.3 4.3 9.3 6.7 1 .9 2.4.9 3.7 1h91.8c3-1 5.1-3.6 7.8-5 1.1-1.2 3.5-1.6 3.4-3.5v-69c-3-2.7-6.4-4.8-9.5-7.4-1.7-1.2-3.1-3-5.4-2.7-29.3 0-58.7-.2-88 .2a318 318 0 0 0-13 9.9z"/><path fill="#a5a7b5" d="M111 9.3h34V41h-34V9.3m7 3.2v13.2h14V12.4l-13.9.1zM100.7 70h54.6v54h-54.6V70m10.3 5.6V98h22.7c-.2-7.5.4-15-.3-22.5-7.5.2-15 0-22.4.1z"/><path fill="#d3d4e7" d="M118 12.5h14l-.1 13.2H118c-.2-4.4-.1-8.8-.1-13.2zm-7 63.1h22.4c.7 7.4.1 14.9.3 22.3-7.6.2-15.1 0-22.7 0V75.7z"/><path fill="#fff" d="M24 92.5c9.5 8.6 18.5 17.8 28 26.3V143h13v-11.3a51 51 0 0 1 6 5.4c3.8 4.1 8.6 7.4 12.2 11.8H24V92.5zm180 26.3c9.5-8.5 18.5-17.5 27.9-26.2.4 18.8.1 37.6.1 56.3h-59.2c3-3.4 6.5-6.2 9.8-9.4 2.9-2.4 5.1-5.7 8.4-7.6V143h13v-24.2z"/><path fill="#3c3a36" d="M52 119.6c4.6 3.6 8.2 8.4 13 11.8V143H52v-23.4zm139 12.3c4.7-3.8 8.2-8.7 13-12.3V143h-13v-11.1z"/><path fill="#898278" d="M70 171a318 318 0 0 1 13-9.8c29.4-.4 58.8-.1 88.1-.2 2.3-.3 3.8 1.5 5.4 2.7 3 2.6 6.4 4.7 9.5 7.4v69c.1 1.9-2.3 2.3-3.4 3.4-2.7 1.5-4.8 4.2-7.8 5H83c-1.3 0-2.7 0-3.7-.9-3-2.4-6.3-4.2-9.3-6.7v-69.8m26 60.8c-.3 1.7-.4 3.4-.4 5 6.2.2 12.4.2 18.5 0v-5c-6-.2-12.1-.2-18.2 0m46 0v5c6.1.2 12.3.2 18.4 0v-5a437 437 0 0 0-18.4 0z"/><path fill="#686157" d="M96 231.9c6-.2 12-.2 18 0l.1 5c-6.1.2-12.3.2-18.5 0l.3-5zm45.9 0a437 437 0 0 1 18.4 0v5c-6.1.2-12.3.2-18.4 0v-5z"/></svg>