<svg xmlns="http://www.w3.org/2000/svg" viewBox="0 0 256 256"><path fill="#63b6fc" d="M22.5 0h15.9v64H18.9v107c6.6-.1 13-.1 19.5.5V256H22.8A25.3 25.3 0 0 1 0 233.5V22.7A25.4 25.4 0 0 1 22.5 0z"/><g fill="#f77b57"><path d="M38.4 0h195A25.4 25.4 0 0 1 256 22.5V58h-64.4v100H256v33c-29 .2-58-.2-87 .3v-66l-6.7-6.7H80v18.7h65.6l5.3 5.2v48.7c-33.6-.5-67.3 0-101-.2-3.8 0-7.6.2-11.5.4V0m43.3 15v70H152V15H81.7zM38.4 256v-52c28.8.2 57.6 0 86.4.1.4 17.3.2 34.6.2 51.9H38.4zm99.8-51.8l12.7-.3v31c2 1.7 3.7 4 6.1 5 4 .8 8 .3 12 .4h85.4a25.7 25.7 0 0 1-21 15.7H138c0-17.3-.2-34.6.2-51.8z"/><path d="M169 204c29 .2 58 .1 87 0v16.7h-80c-3 .2-5-2-7.1-3.4V204z"/></g><path fill="#fff" d="M81.7 15H152v70H81.7V15M111 44v11h11V44h-11z"/><path fill="#363636" d="M111 44h11v11h-11V44z"/><path fill="#efe8e9" d="M191.6 58H256v25.2h-64.4V58zm0 38.6h43.5c7 0 14-.3 20.9.3v22.5h-64.4V96.5zm0 35.4c21.5.2 43-.4 64.4.3V158h-64.4v-26z"/><path fill="#f7c4c3" d="M19 64h19.4v107.5c-6.4-.6-13-.6-19.4-.5V64z"/><path fill="#b2afaf" d="M191.6 83.2H256V97c-7-.6-14-.2-21-.3h-43.4V83.2zm0 36.1H256v13c-21.4-.7-43-.1-64.4-.3v-12.7z"/><path fill="#ffd16d" d="M80 118.7l82.3-.1 6.6 6.7v92c2.1 1.5 4.2 3.6 7 3.4H256v12.5a37 37 0 0 1-1.6 7H169c-4 0-8 .5-12-.3-2.4-1-4.1-3.3-6-5v-43.7l-.1-48.7-5.3-5.2H80v-18.6z"/><path fill="#c66347" d="M38.4 191.4c3.9-.2 7.7-.4 11.6-.4 33.6.3 67.3-.3 101 .2V204l-12.8.3c-.4 17.3-.1 34.5-.2 51.8h-13c0-17.3.2-34.6-.2-51.9-28.8 0-57.6.1-86.4-.1v-12.6zm130.6-.1c29-.5 58-.1 87-.3v13c-29 .1-58 .2-87 0v-12.8z"/></svg>