<svg xmlns="http://www.w3.org/2000/svg" viewBox="0 0 256 257"><path fill="#2c5a64" d="M19 0h3c.7 1.7-1.7 2.7-3 1.9V0zm215.6 0h2.6v1.9c-1.3 1-3.8-.2-2.6-1.9z" opacity=".7"/><path fill="#428494" d="M22 0h29.3c3 3 6.7 5.2 10 7.7 12.3 9.7 24.9 19 37.4 28.3V5a8 8 0 0 1 1.2-5h56.5c.5 1.6 1 3.2 1 5-.2 10.3 0 20.6-.2 31l38-28.8a98 98 0 0 0 9.2-7.2h30.2c-1.2 1.7 1.3 3 2.6 1.9A24 24 0 0 1 252 12.2c-9 6.6-17.7 13.5-26.6 20.1a1551 1551 0 0 1-29.8 22.5c-2.5 2.2-5.1 4.1-7.7 6.1l-.4 4.3v-3.9c-5.2 3.6-9.9 7.8-15 11.4-1.1.8-2.5.9-3.8 1.2l-.4 1.6 2-1.7v2.5c-4.1.1-6.8 3.6-10 5.8-21.5-.2-43-.2-64.6 0a48.7 48.7 0 0 0-7.6-5.2c-2-1.2-3.5-3-5.2-4.6-3.6-2.9-7.5-5.3-11-8.3-4-3.8-9.7-5.9-12.7-10.6L57 53c-2.9-3.2-6.8-5.1-10-7.9-5.8-4.6-11.8-9-17.6-13.4-8.4-6.6-17-13-25.4-19.4A24 24 0 0 1 19 1.8c1.3.9 3.7 0 3-1.8z"/><g fill="#54b8e9"><path d="M51.3 0h48.6a8 8 0 0 0-1.2 5v31C86.2 26.7 73.6 17.4 61.3 7.7 58 5.2 54.3 3 51.3 0zm105.1 0h48a98 98 0 0 1-9.2 7.3l-38 28.6c.2-10.3 0-20.6.1-31a12 12 0 0 0-1-4.9z"/><path d="M0 23.4a28 28 0 0 1 4-11.1c8.4 6.4 17 12.8 25.4 19.4-.2 23.8 0 47.5 0 71.2h26.3l1.3-2.4v2.4h38.6V89l.1-6.8c21.5-.2 43-.2 64.6 0V103h36v-2l1.8.6v1.7c9.3-.5 18.6-.2 27.8-.3.2-22 0-44 .1-66 0-1.5-.3-3-.6-4.6 8.9-6.6 17.6-13.5 26.6-20.1a26 26 0 0 1 4 11.1v211.4c-1 9-7 17-15.4 20.5V129H15.4v126.2A25.6 25.6 0 0 1 0 234.7V23.4M107.2 93c-.3 6.8-.3 13.7 0 20.6h8.5c.2-6.8 0-13.7 0-20.6-2.8-.4-5.7-.3-8.5 0m33 0a567 567 0 0 0 0 20.6h7.6c.3-6.9.3-13.8 0-20.7a33 33 0 0 0-7.6 0z"/></g><path fill="#ecf1f9" d="M29.4 31.7c5.8 4.5 11.8 8.8 17.5 13.4 3.3 2.8 7.2 4.7 10.1 7.9v47.5l-1.3 2.4H29.3V31.7zm166.2 23.1c10-7.3 20-15 29.8-22.5.3 1.6.7 3 .6 4.7v66c-9.3 0-18.6-.3-27.8.2l-.1-1.7c-.1-4.1 0-8.2 0-12.3V53l-2.5 1.8zM66.3 157.4c8 .3 16 .2 24 0-.4 7.6-.2 15.1-.3 22.6H66.3v-22.6zm98.7 0c8 0 16 0 24 .2V180h-24v-22.6z"/><path fill="#d0533f" d="M57 53l2.3.4c3 4.7 8.6 6.8 12.6 10.6l-3.7-.2c1.1 10 .1 20.3.6 30.5l-1.3-3.8c-3.5-.2-7-.5-10.5-1.3V53zm138.6 1.8L198 53v36.2a38 38 0 0 1-9.4 1.3l-1.4 3.8c.3-9.7-.1-19.4.3-29.1l.4-4.3 7.7-6zm-110 21.6l2.5.5c2.8 1.4 5.2 3.3 7.6 5.2V89c-3.3 1-6.8 1.4-10 0V76.5zm74.7 5.6c3.2-2 5.9-5.6 10-5.7V89a14 14 0 0 1-10 0v-7z"/><path fill="#2b1a18" d="M172.5 72.7c5.1-3.6 9.8-7.8 15-11.4v3.9c-.4 9.7 0 19.4-.3 29-5.6 0-11.3.3-16.9 0V73.8l-2 1.7.4-1.6c1.3-.3 2.7-.4 3.8-1.2zM68.2 63.8l3.7.2c3.5 3 7.4 5.4 11 8.3 1.7 1.5 3.2 3.4 5.2 4.6l-2.5-.5V89l.1 5c-5.6.4-11.3.2-17 .2-.4-10.2.6-20.4-.5-30.5z"/><path fill="#ec5e47" d="M57 89.2c3.4.8 7 1.1 10.5 1.3l1.3 3.8c5.6 0 11.3.2 17-.2l-.2-5a15 15 0 0 0 10-.1v14H57V89.2zm103.4-.2a14 14 0 0 0 10 0l-.1 5.1c5.6.4 11.3.2 17 .2l1.3-3.8a38 38 0 0 0 9.5-1.3c0 4-.1 8.2 0 12.3l-1.8-.5v2h-36V89z"/><path fill="#39a8d8" d="M107.2 93c2.8-.2 5.7-.3 8.6 0v20.7h-8.5c-.4-6.9-.4-13.8-.1-20.7zm33 0c2.6-.3 5.1-.2 7.7 0 .2 6.9.2 13.8 0 20.7h-7.7a567 567 0 0 1 0-20.6z"/><path fill="#fff1c6" d="M15.4 129h225.2v126.2c-2.2.8-4.6 1.5-7 1.8h-22.4c-.1-14.7.2-29.4-.2-44-1-.5-2.1-1-3.2-1.3h3.4v-54.2H189l-24-.1c-24.8.3-49.8.1-74.7 0-8 .2-16 .3-23.9 0-7.1.2-14.3.1-21.5.1v54.3l3.4-.1L45 213c-.2 14.7-.1 29.3 0 44H22.4c-2.4-.3-4.7-1-7-1.8V129z"/><path fill="#6d3c39" d="M44.8 157.5c7.2 0 14.4.1 21.5-.1V180H90c.1-7.5-.1-15 .2-22.5 25 0 49.9.2 74.8-.1V180h24v-22.4h22.2v54.1H44.9c-.2-18 0-36-.1-54.2z"/><path fill="#deb4c6" d="M48.2 211.7h159.6l3.2 1.3c.4 14.6 0 29.3.2 44H44.9c-.1-14.7-.2-29.3 0-44l3.3-1.3z"/></svg>