<svg xmlns="http://www.w3.org/2000/svg" viewBox="0 0 256 256"><path fill="#396fc0" d="M22.5 0h38.8c0 7 .2 14 0 21-9 .2-18.2-.3-27.2.2-4.1 4.3-7.2 9.5-10.9 14.2C21.8 36.9 22 39 22 41c.3 35.9-.1 71.8.2 107.7H189v16.6h-2.3c-27-.3-53.8-.1-80.7-.2.1 10-.3 19.9.2 29.8-13.7.3-27.5 0-41.2.1v28.5c4.8 4.8 8.4 10.6 13 15.5h128.3c-.4 5.7-.4 11.3-.3 17H23.3A24.7 24.7 0 0 1 2 237.2c1-1.5-.2-3.3-1.9-3.2V21.5c1.7 1.1 3-1.3 1.9-2.6C3.7 8.9 12.9 1.7 22.5 0zM132 0h91.6c.8 7 .3 14 .4 21h-92V0z"/><path fill="#65b2de" d="M61.3 0H132v21h92c0-7 .4-14-.4-21h11c9.8 1 18.4 8.1 21.4 17.4v221.1a25.7 25.7 0 0 1-21.3 17.5H206c0-5.7 0-11.3.3-17 6.8-5.5 13.8-10.7 20.6-16.3v-74H22.1c-.3-35.9 0-71.8-.2-107.7 0-2-.1-4.1 1.3-5.6 3.8-4.7 6.8-10 10.9-14.2 9-.5 18.1 0 27.2-.2.2-7 0-14 0-21M167 74l.2 3c-2.4 3.2-6 5.5-7.8 9.1-4.6 4-8.6 8.7-13 13l-.4 3.2v-2.6c-2.3 2-4.3 4-6.3 6.1-6 7.1-12.9 13.3-19 20.2H201V75h-30.2l1.1-.8-4.8-.3z"/><path fill="#284f85" d="M0 18.8h1.9c1 1.4-.2 3.8-1.9 2.7v-2.7zM0 234c1.7 0 2.9 1.7 2 3.2l-2-.2v-3z" opacity=".7"/><path fill="#fff" d="M167.1 74l4.8.2-1.1.8H201v51h-31v-12c.2-12.9-.4-25.8.4-38.7-1.3 0-2.3.8-3.1 1.7l-.2-3zm-20.5 25.1c4.3-4.3 8.3-9 12.9-13V106H146v-3.7l.6-3.2z"/><path fill="#393c42" d="M167.3 77c.8-1 1.8-1.7 3-1.7-.7 12.9 0 25.8-.3 38.7a44 44 0 0 0-14-1v-7h3.4V86c1.9-3.5 5.5-6 7.9-9.1z"/><path fill="#292d2e" d="M139.8 105.8c2-2.1 4-4.1 6.2-6.1v6.3h10v7c0 2 0 4-.2 6-5.2-.3-10.4 0-15.6 0l-.4-13.2z"/><path fill="#393d42" d="M120.9 126c6-7 13-13 18.9-20.2l.4 13.3c5.2 0 10.4-.4 15.6-.1v.7c-3.6 0-7.1 0-10.6.2l-.3 6.1h-24z"/><path fill="#4a4f52" d="M156 113a44 44 0 0 1 14 1v12h-25c0-2 0-4 .2-6 3.5-.3 7-.3 10.5-.3l.1-.7.3-6z"/><path fill="#d3cbba" d="M189 148.7h38v74c-6.8 5.6-14 10.8-20.7 16.4L78 239c-4.7-4.9-8.3-10.7-13-15.5-.2-9.5 0-19-.1-28.5 13.8-.1 27.5.2 41.2-.1 27.6.2 55.2 0 82.8 0v-28.7l-2.3-1 2.3.1v-16.6z"/><path fill="#b26b73" d="M106 165.1c26.9 0 53.8-.1 80.7.1l2.3 1V195c-27.6-.1-55.2.1-82.8-.1-.5-10-.1-19.9-.2-29.8z"/></svg>