<svg xmlns="http://www.w3.org/2000/svg" viewBox="0 0 256 256"><path fill="#d3bbe7" d="M22.8 0H233a25.2 25.2 0 0 1 23 22.8V233a25.2 25.2 0 0 1-22.7 23H23a25.2 25.2 0 0 1-23-22.7V23C.7 11.1 11 1 22.8 0M40 91.5v20h20v-20H40m156 0v20h20v-20h-20M21 125.3V158h14.8a113295.4 113295.4 0 0 0 199.8 0c-.2-10.9 0-21.7 0-32.6-8.8.3-17.5.3-26.2 0 .2 3.9.2 7.7.2 11.5-54.2.3-108.4.1-162.6 0v-11.6c-8.7.4-17.3.4-26 0z"/><path fill="#2b282e" d="M40 91.5h20v20H40v-20zm156 0h20v20h-20v-20z"/><path fill="#c68c89" d="M21 125.3c8.7.4 17.3.4 26 0V137c54.2 0 108.4.2 162.6 0 0-4 0-7.7-.2-11.6 8.7.3 17.4.3 26.2 0 0 10.9-.2 21.7 0 32.6h-15.4c.2-3.3 0-6.6-.1-9.8-34-.4-68 0-102.1-.2-27.4.2-54.7-.3-82 .2-.3 3.2-.4 6.5-.2 9.8H21v-32.7z"/><path fill="#d69894" d="M36 148.2c27.3-.5 54.6 0 82-.2 34 .1 68-.2 102.1.2.2 3.2.3 6.5 0 9.8H35.9c-.1-3.3 0-6.6.1-9.8z"/></svg>