<svg xmlns="http://www.w3.org/2000/svg" viewBox="0 0 256 256"><path fill="#af824c" d="M22.4 0h211A25.4 25.4 0 0 1 256 22.5v201.6c-85.3-.2-170.7 0-256-.1V22.6A25.4 25.4 0 0 1 22.4 0m35.4 57.7c-5.3.6-10.6 0-16 .2l-.2 2.5-.4-2.5H21.6V135H74V58c-4.1-.2-8.2 0-12.3 0-.5-1.8-2.8-1.4-3.9-.3m136.4.3c-4 0-8.1-.2-12.2 0v77h52.4V58l-19.6-.1-.4 2.6-.3-2.6c-5.4-.1-11 .4-16.4-.2l-.3-1.2c-1.1.3-2.4.5-3.2 1.5M118 126v12.7h20V126h-20m-6 26H88v41h80v-41h-25c-5.7-.1-9.8-4.8-15-6-5.5 1.6-10 6.3-16 6z"/><path fill="#180000" d="M57.8 57.7c1-1.1 3.4-1.5 3.9.3 4 0 8.2-.2 12.3 0v56H61.7c-4.6-11.5 1.2-24.5-3.5-36H60c0-6.9-.2-13.8.3-20.6l-2.5.3zm136.4.3c.8-1 2-1.2 3.3-1.5l.2 1.2-2-.3c.6 6.9.2 13.7.3 20.6h1.7c-4.6 11.5 1.1 24.5-3.3 36H182V58c4-.2 8.1 0 12.2 0zM21.6 58l19.6-.1.4 2.5v11.4l-5.4.5c-.5 7.9-.2 15.8-.3 23.7 0 6 1 12.3-1.6 18H21.6V58zm193.2-.1h19.6V114h-12.8c-.8-2.6-1.6-5.3-1.6-8-.2-11.3.4-22.5-.1-33.7l-5.5-.5V60.5l.4-2.6z"/><path fill="#fff" d="M41.9 58c5.3-.2 10.6.3 16-.3l2.4-.3C59.8 64.3 60 71 60 78H41.5V60.4L42 58zm153.8-.6l2 .3c5.4.6 11 0 16.4.2l.3 2.6V78a1874.9 1874.9 0 0 1-18.4 0c0-7 .3-13.8-.3-20.7z"/><path fill="#0a0000" d="M36.2 72.3l5.3-.5V78h16.8c4.6 11.5-1.1 24.5 3.4 36H60v8H36v-8h-1.7c2.6-5.7 1.6-12 1.7-18 0-8-.3-15.8.2-23.7zm178.2-.5l5.5.5c.5 11.2-.1 22.4 0 33.6 0 2.8.9 5.5 1.7 8.1H220v8h-24v-8h-1.7c4.5-11.5-1.2-24.5 3.4-36h16.8v-6.2z"/><path fill="#683a0a" d="M21.6 114H36v8h24v-8h14v21H21.6v-21zm160.4 0h14v8h24v-8h14.4v21H182v-21z"/><path fill="#150e0a" d="M118 126h20v12.7h-20V126z"/><path fill="#572431" d="M112 152c6 .3 10.5-4.4 16-6 5.2 1.2 9.3 5.9 15 6h25v41h-13.5c.2-7.3.1-14.7.1-22h-53.2c0 7.3-.1 14.7.1 22H88v-41h24z"/><path fill="#ba4b4f" d="M101.4 171h53.2c0 7.3.1 14.7-.1 22h-53c-.2-7.3-.1-14.7-.1-22z"/><path fill="#f4e7c0" d="M0 224h256v9.2a25.3 25.3 0 0 1-22.5 22.8H22.7A25.3 25.3 0 0 1 0 233.4V224z"/></svg>