<svg xmlns="http://www.w3.org/2000/svg" viewBox="0 0 256 256"><path fill="#86cde4" d="M22.4 0h19.2C50.7 5.8 59 12.8 68 19c15.4 11.3 31 22.5 46.3 34H138c1.4 0 3 .2 4.2-.7 24-17.4 47.7-35 71.8-52.3h19.5A25.4 25.4 0 0 1 256 22.5v205c-38-.5-76-.1-114-.2H12c-4-.1-8 0-12 .5V22.6A25.4 25.4 0 0 1 22.4 0M22 69.3V131h66V80h-2.6l-.8-.8c-3.5-.3-7-1-10.4-1.1v-.7c-6.9-.4-13.5-2-20.2-3-2.1-.5-4.7.3-6.4-1.3l-6-.5c-3.8-1.8-8.5-.5-12-2.5-2.6-.1-5.1-.3-7.6-.8m203.7 1.2c-3.7 1.2-7.7.7-11.3 2.1l-6 .5c-2 1.7-5 .8-7.3 1.4v-.4l1.2-2H198v3c-5.7.6-11.2 2.2-17 2.6-3.3 1.3-7.4.3-10.4 2.2l-2.6.1v51h66V69.3c-2.8.5-5.7.3-8.3 1.2M119 130.3V143h18v-12.7h-18m-1 26.6c-11 .3-22 0-33 .1v41h12.5l-.6-1.8 1 1.9h60.2l1-2-.6 2H170V157h-32.3l-9.8-7.7-10 7.6z"/><path fill="#155f81" d="M41.6 0H214c-24 17.2-47.8 35-71.8 52.3-1.2 1-2.8.6-4.2.7h-23.7C99 41.4 83.4 30.2 68.1 19 59 12.8 50.7 5.8 41.6 0z"/><path fill="#1e0000" d="M22 69.3c2.5.5 5 .7 7.5.8 3.6 2 8.3.7 12 2.5l6 .5c1.8 1.6 4.4.8 6.5 1.3v25h20.4c-.1-7.1.2-14.2-.2-21.3 3.4.1 7 .8 10.4 1.1l.8.7 2.6.1v51H70v-19H28.8c0 6.3-.3 12.7.3 19h-7V69.3zm203.7 1.2c2.7-1 5.5-.7 8.3-1.2V131h-7c.6-6.3.3-12.7.3-19H186l.1 19h-18V80h2.6c3-2 7.1-1 10.5-2.3-.2 7.2 0 14.4-.1 21.6h20V74.5c2.5-.6 5.4.3 7.4-1.4l6-.5c3.6-1.4 7.6-1 11.3-2z"/><path fill="#94b6bd" d="M198 72h4.3l-1.2 2.1c-1 .4-2 .8-3 1v-3z"/><path fill="#fff" d="M198 75.2l3-1v25.1h-20V77.8c5.8-.4 11.3-2 17-2.5zm-144-.8c6.7 1 13.3 2.6 20.1 3v.7c.5 7 .2 14.2.3 21.3H54v-25z"/><path fill="#3f2e57" d="M28.7 112H70l-.1 19H29c-.6-6.3-.4-12.7-.3-19zm157.3 0h41.3c0 6.3.3 12.7-.3 19h-41v-19z"/><path fill="#121218" d="M119 130.3h18V143h-18v-12.7z"/><path fill="#4c2531" d="M118 156.9l10-7.6 9.8 7.7h32.3v41h-11.6l.6-1.8c1.3-5.3.2-10.8.6-16.1-21.1-.2-42.2-.1-63.4 0 .4 5.3-.7 10.8.6 16l.6 2L85 198v-41c11 0 22 .2 33-.1z"/><path fill="#a54154" d="M96.3 180h63.4c-.4 5.4.7 11-.6 16.2l-1 1.9H97.9l-1-2c-1.3-5.2-.2-10.7-.6-16z"/><path fill="#e1d9e4" d="M0 227.8c4-.5 8-.6 12-.5h102c-.2 9.6-.2 19.1 0 28.7H22.6A25.4 25.4 0 0 1 0 233.5v-5.7zm142-.5c38 .1 76-.3 114 .2v5.8a25.4 25.4 0 0 1-22.4 22.7h-91.4c-.2-9.6 0-19.1-.1-28.7z"/><path fill="#d6cfdb" d="M114 227.3h28c.3 9.6 0 19.1.2 28.7H114c-.2-9.6-.2-19.1 0-28.7z"/></svg>