<svg xmlns="http://www.w3.org/2000/svg" viewBox="0 0 256 256"><path fill="#f7d563" d="M22.5 0h210.8A25.3 25.3 0 0 1 256 22.6V227H0V22.8A25.4 25.4 0 0 1 22.5 0m-2 72.6c-.1 13-.2 25.8 0 38.7-.2 6.4-.1 12.7-.1 19h64.2l.1-34.8-3.3-1.3c-.5 0-1.4-.3-1.8-.4a66 66 0 0 0-7.6-2.7v1.5c-5.7-4.8-13.3-5.8-20-8.8-3.1-1.2-6.4-2.1-9.5-3.4l-3-1.2c-.5 0-1.4-.3-1.9-.5-5.7-2.1-11.4-4.3-17.2-6m198 6l-1.8.5-3.1 1.1c-3.2 1.3-6.4 2.4-9.6 3.5-6.8 2.7-14 5-20.9 7.4v.4l-3.6 1-3 1.2-1.8.5-3.3 1.2v34.9h64.3c0-6.3.3-12.6-.1-18.9.3-13 .1-26 0-39-5.7 2-11.4 4-17.1 6.2m-149 9.4c.6 1 1.3 1.8 1.9 2.6l2.6 1L74 88l-4.6.1m47 35V136h23.3v-13h-23.4m-55 45v36h133.3v-36H61.4z"/><path fill="#1b0605" d="M20.4 72.6c5.9 1.8 11.5 4 17.2 6.1l1.8.5 3 1.2c3.2 1.3 6.5 2.2 9.7 3.4v18.5H72V91.1a243.2 243.2 0 0 1 12.7 4.4v34.9H57.6c-1-6.5-1.1-13-.9-19.4-12 0-24.2-.4-36.3.3V72.6zm198 6.1c5.7-2.1 11.4-4.3 17.2-6.1 0 13 .2 26-.1 38.9-12-1.2-24.2-.3-36.2-.5.2 6.5.1 13-.9 19.3h-27l-.1-34.8 3.3-1.3c.5 0 1.4-.3 1.8-.4l3-1.2 3.6-1v10.7h21V83.8c3.1-1.1 6.3-2.2 9.5-3.5l3-1 1.9-.6z"/><path fill="#fff" d="M52 83.8c6.7 3 14.3 4 20 8.8v9.7H52V83.8zm131 7.4c7-2.5 14-4.7 21-7.4v18.5h-21V91.2z"/><path fill="#cdbe7e" d="M69.4 88.1L74 88l-.1 3.7-2.6-1-1.9-2.6z"/><path fill="#391e4f" d="M20.4 111.3c12.1-.7 24.2-.2 36.3-.3-.3 6.5-.1 13 .9 19.3H20.4v-19zm178.9-.3c12 .2 24.1-.7 36.2.5.4 6.3 0 12.6.1 18.9h-37.2c1-6.5 1.1-13 .9-19.4z"/><path fill="#211a15" d="M116.3 123h23.4v13h-23.4v-13z"/><path fill="#4c2531" d="M61.4 168h133.2v36h-17.4l-.1-18H78.9v18H61.3v-36z"/><path fill="#a54154" d="M79 186h98c.2 6 .2 12 .2 18H78.8l.1-18z"/><path fill="#e7ecef" d="M0 227h256v6a25.3 25.3 0 0 1-22.5 23H22.8A25.3 25.3 0 0 1 0 233.3V227z"/></svg>