<svg xmlns="http://www.w3.org/2000/svg" viewBox="0 0 256 256"><path fill="#ec804c" d="M22.3 0h34.5c-.4 18.3 0 36.7-.2 55-.2 2.7.7 5.3 1.8 7.8l1.5-.4-1.3 1.7 2.1-.3-1 1c.8.7 1.5 1.6 2.2 2.5l2.2 3c3.3.4 6.6.2 9.9.2h118.9l1.2-3.3h1.7l-1.5-1.7 1.3.4c1.5-2.8 4-5.4 3.8-8.9V0h33.3a26 26 0 0 1 15.5 6.7l1 .9a27 27 0 0 1 6.8 14.7V225c-80.7-.2-161.3 0-242 0-4.7-.2-9.3-.1-14 .2v-203c.7-5.7 3.4-11 7.2-15.1 4.2-3.8 9.4-6.5 15-7.2M21 82.2v58.1h62c0-13.3.1-26.6-.1-39.9l-1.3-1.2c-3.8-.8-7.5-2-11.3-3l-.8 2.1c-.3-1.2-1-2.2-1.6-3.3l-3.3-.2c-3.7-1.6-7.8-1.8-11.2-4.1l.6-.4h-4c-5-1-9.8-2.4-14.6-4-5-1-9.7-2.7-14.5-4.1m184.8 8.3l-3.8-.8 1 .5c-3.3 3.4-8.7 3.5-13.2 4.8-.2-3-6-.5-2.9 1.2v2.3l-.3-2.5c-4.4 1.5-9 2.2-13.2 4.2.3 13.4 0 26.8.2 40.2h12.1a13393.4 13393.4 0 0 0 50 0c.1-19.4-.2-38.8.1-58.3-10 2.9-19.9 5.8-30 8.4M117 140v17h22v-17h-22m-61 26v42h144v-42H56z"/><path fill="#f7e89f" d="M56.8 0h142.6v57c.2 3.5-2.3 6-3.8 9l-1.3-.5 1.4 1.8-1.6-.1-1.2 3.3h-119c-3.2 0-6.6.2-9.8-.2l-2.2-3c-.7-1-1.4-1.8-2.2-2.6l1-1-2.1.4 1.3-1.7-1.5.4c-1-2.5-2-5-1.8-7.8.2-18.3-.2-36.7.2-55zM0 225.3c4.7-.3 9.3-.4 14-.3h242v8.7a25.3 25.3 0 0 1-23 22.3H23.3c-6-.3-11.3-3-15.7-6.7v-.1A26 26 0 0 1 0 233.7v-8.4z"/><path fill="#1e0000" d="M21 82.2c4.8 1.4 9.5 3.1 14.5 4.1 4.8 1.6 9.7 3 14.6 4H54l-.6.4h-.7c-1 .2-1.6.7-1.8 1.7.2 7 0 14 .1 21 6.2-.2 12.3-.2 18.5-.2V98.3l.8-2.1c3.8 1 7.5 2.3 11.3 3l1.3 1.2c.2 13.3 0 26.6 0 40l-12.9-.1c3.5-4.7 1.6-10.9 2-16.3H31c0 5.4.2 11-.7 16.3H21V82.2zm184.8 8.3c10.1-2.6 20-5.5 30-8.3-.3 19.4 0 38.8-.1 58.2h-9.9c-.4-5.5-.4-11-.5-16.4H185c0 5.5-.3 11 .7 16.3h-12.1c-.3-13.3 0-26.7-.2-40.1 4.2-2 8.8-2.7 13.2-4.2l.3 2.5c.2 5 0 9.9.1 14.8h18v-21c0-1-1-1.8-2-2.1l-1-.5 3.8.8z"/><path fill="#fff" d="M50.9 92.4c.2-1 .8-1.5 1.8-1.6l.7-.1c3.4 2.3 7.5 2.5 11.2 4l3.3.3c.6 1 1.3 2.1 1.6 3.3v15H51l-.1-21zM203 90.2c1 .3 2 1 2 2.2v21c-6-.2-12-.2-18 0V96.2c1-.2 2-.5 2.8-1.2 4.5-1.3 9.9-1.4 13.2-4.8z"/><path fill="#bd6f52" d="M187 96.2c-3.2-1.7 2.6-4.2 2.8-1.2-.8.7-1.8 1-2.9 1.2z"/><path fill="#002636" d="M31 124h41c-.4 5.4 1.5 11.6-2 16.3H30.3c1-5.4.8-10.9.7-16.3zm154 0h40.3c.1 5.4 0 10.9.5 16.3h-40c-1-5.4-.9-10.8-.8-16.3z"/><path fill="#1e1615" d="M117 140h22v17h-22v-17z"/><path fill="#4c2531" d="M56 166h144v42h-18.7v-21.3H75c0 7.1.2 14.2-.2 21.3H56v-42z"/><path fill="#a54154" d="M75 186.7h106.3V208H74.8c.4-7.1.2-14.2.2-21.3z"/></svg>