<svg xmlns="http://www.w3.org/2000/svg" viewBox="0 0 256 256"><path fill="#cbc5ba" d="M22.4 0h46.1c-4.2 4.2-9.5 7.5-13 12.4-.5 17.4 0 34.8-.2 52.2-3.4.4-6.9.5-10.3.4H0V22.5A25.4 25.4 0 0 1 22.4 0zm31.9 198l2.7-2 1.5 1.8c13 .5 26 0 39.1.2-.9 5.3-.5 10.6-.5 16v42H22.4A25.4 25.4 0 0 1 0 233.6v-36.8l2.1 1.1c17.4.2 34.8.1 52.2 0z"/><path fill="#e96373" d="M68.5 0h165A25.4 25.4 0 0 1 256 22.4v211a25.5 25.5 0 0 1-22.3 22.6H155v-58H97.6c-13-.2-26.1.3-39.1-.2l-1.5-1.9-2.7 2a14 14 0 0 0 1-5V64.7c.2-17.4-.3-34.8.2-52.2 3.5-5 8.8-8.3 13-12.5M130 20.9v90l90.1.1V21c-30-.3-60 0-90.1-.1z"/><path fill="#fff" d="M129.9 20.9H220c-.2 30 0 60-.1 90.1h-90.1V20.9M163 54v24h24V54h-24z"/><path fill="#231218" d="M163 54h24v24h-24V54z"/><path fill="#54b3b7" d="M45 65c3.4.1 6.9 0 10.3-.4V193c0 1.7-.4 3.3-1 5H2.1c0-1.5-.7-2.2-2.1-2V65h45zm52.6 133H155v58H97v-42c.1-5.4-.3-10.7.6-16z"/><path fill="#849a8c" d="M0 196c1.4-.2 2.1.5 2.1 2L0 196.7v-.8z"/></svg>