<svg xmlns="http://www.w3.org/2000/svg" viewBox="0 0 256 256"><path fill="#e1ddb7" d="M22.5 0h210.9A25.5 25.5 0 0 1 256 22v4H0v-3.4A25.4 25.4 0 0 1 22.5 0zM239 60c5.7-.3 12 1.5 17-2v65.6c-5 .9-10 .3-14.9.2-.3-9.5 0-19-.3-28.6-27.5-.2-55-.2-82.5 0-.2 15.9 0 31.8 0 47.7H97.8V95.2c-27.6-.3-55-.2-82.6 0 0 9.5.2 19-.3 28.6-5 .3-10 .2-15 .2V60.1c79.7-.2 159.3 0 239-.1z"/><path fill="#d6d1ad" d="M0 26h256v32c-5 3.5-11.3 1.7-17 2-79.7.1-159.3-.1-239 .1V26z"/><path fill="#f4f1f4" d="M15.3 95.1c27.5 0 55-.2 82.5 0 .2 16 0 31.9.1 47.8a1685.4 1685.4 0 0 1 0 35.4H15.4c-.1-18.2.4-36.4-.3-54.5.5-9.6.3-19.1.3-28.7M27.7 110v56c19.2-.4 38.4.2 57.5-.3l.2.8c.4-18.9.1-37.8 0-56.7-19.2.2-38.4 0-57.7 0zm130.6-14.8c27.5-.2 55-.2 82.5 0 .3 9.5 0 19 .3 28.6-.4 18.2 0 36.3-.2 54.5h-82.7a1141.7 1141.7 0 0 0 0-35.4c0-16-.1-31.8.1-47.7m12.3 14.6a32134.8 32134.8 0 0 1 0 56.2c19-.2 38.1-.1 57.2 0h.9l-.1-56.2c-19.3.2-38.7 0-58 0z"/><path fill="#3c3a3c" d="M27.7 109.8c19.3 0 38.5.2 57.8 0 0 18.9.3 37.8-.1 56.7l-.2-.8c-.4-3.9 0-7.8-.3-11.8-19-.2-38.1.2-57.2 0v-44zm142.9 0c19.3 0 38.7.2 58 0V166l-.8-.1c.2-4 .1-8 0-11.9-19-.7-38.1.1-57.2-.3v-44z"/><path fill="#78d1e7" d="M0 124c5 0 10 .1 15-.2.7 18.1.2 36.3.3 54.5h82.6v-19.5h60.3v19.5H241c0-18.2-.3-36.3.1-54.5 5 .1 10 .7 14.9-.2V214c-17.6.2-35.2-.3-52.8.3a61 61 0 0 0 0 13.5c11.9.5 23.8.2 35.8.3 5.6.2 11.8-1.3 17 1.9v3.5a25.4 25.4 0 0 1-22.4 22.5h-211A25.4 25.4 0 0 1 0 233.6V124m69.2 92c-.5 5.3-.3 10.6 0 15.8 16.9 1 33.8-.6 50.7.8.3-6 .3-12.2-.1-18.3-15.3-.6-30.5 0-45.8-.3-1.6.2-4.6-.4-4.8 2m66-1.8c-.3 5.9-.4 11.8.1 17.6 2.4 1.8 5.9-.1 8.7.3 14.3.2 28.6-.5 43 .3.2-6 .2-12.1-.2-18.2-17.2-.3-34.4-.3-51.6 0z"/><path fill="#6bbcce" d="M98 143l60.2-.1v16c-20-.2-40.2 0-60.3 0v-16z"/><path fill="#312e31" d="M27.7 153.8c19 .3 38.2-.1 57.3.1.2 4-.2 8 .3 11.8-19.2.5-38.4 0-57.6.3v-12.2zm142.9 0c19 .4 38.2-.4 57.2.3.1 4 .2 8 0 11.9-19-.1-38.1-.2-57.2 0v-12.2z"/><path fill="#7bd8ef" d="M69.2 216c.2-2.4 3.2-1.8 4.8-2 15.3.2 30.5-.3 45.8.3.5 6 .4 12.2 0 18.3-16.8-1.4-33.7.2-50.6-.8-.3-5.2-.5-10.5 0-15.8zm66-1.8c17.2-.3 34.4-.3 51.6 0 .4 6 .4 12.2.1 18.2-14.3-.8-28.6-.1-43-.3-2.7-.4-6.2 1.5-8.6-.3-.5-5.8-.5-11.7-.1-17.6zm68 .1c17.6-.6 35.2-.1 52.8-.3v16c-5.2-3.2-11.4-1.7-17-2-12 0-23.9.3-35.8-.2a61 61 0 0 1 0-13.5z"/></svg>