<svg xmlns="http://www.w3.org/2000/svg" viewBox="0 0 256 256"><path fill="#e1ddb7" d="M22.4 0h211A25.4 25.4 0 0 1 256 22.5V66h-24.7c-.3-13.3.2-26.6-.2-39.9-23.7-.1-47.4-.2-71 0-.2 20.3 0 40.6-.1 60.9H96V26l-71.1.1c-.4 13.3 0 26.6-.2 39.9H0V22.5A25.4 25.4 0 0 1 22.4 0z"/><path fill="#f9fbce" d="M24.9 26.1h71c.2 20.3 0 40.6.1 60.9v10.3H24.7V66c.3-13.3-.2-26.6.2-39.9m17.1 6c-.2 6.9-.3 13.8.2 20.7h10l.1 34.2H68V36.9l-5-.2-.1-4.6c-7-.2-13.9 0-20.9 0zm118-6c23.7-.2 47.4-.1 71.1 0 .4 13.3 0 26.6.2 40v31.2H160V26m17 6c0 6.9 0 13.8.2 20.7H188V87h15.7V36.8H198V32c-7-.2-14-.1-21 0z"/><path fill="#ffffef" d="M42 32c7 0 14-.1 20.9.1l.1 4.6v16.1H42.2A199 199 0 0 1 42 32zm135 0c7 0 14-.1 21 .1v20.7h-20.8c-.3-6.9-.2-13.8-.1-20.8z"/><path fill="#260600" d="M63 36.7l5 .1V87H52.3V52.8H63v-16zm135 0h5.7V87H188V52.8h10v-16z"/><path fill="#73b6c6" d="M0 66h24.7v31.3h206.6V66H256v167.5a25.4 25.4 0 0 1-22.4 22.5H22.5A25.4 25.4 0 0 1 0 233.6V66m47 58c0 14.3-.2 28.7.2 43a269 269 0 0 0 0 22c-.4 14.7-.1 29.3-.2 44 23.3-.1 46.7.3 70-.2 7.6.4 15.3 0 23 .2h69c-.1-14.7.2-29.3-.2-44 .3-7.3.3-14.7 0-22 .4-14.3.1-28.7.2-43H47z"/><path fill="#68a3b2" d="M96 87h64v10.3H96V87z"/><path fill="#f9edd3" d="M47 124h70v43H47.2c-.4-14.3-.1-28.7-.2-43zm93 0h69c0 14.3.2 28.7-.2 43H140v-43zm-92.8 65H117v43.8c-23.3.4-46.7 0-70 .2.1-14.7-.2-29.3.2-44zm92.8 0h68.8c.4 14.7.1 29.3.2 44h-69v-44z"/><path fill="#3c1229" d="M117 124h23v43h68.8c.3 7.3.3 14.7 0 22H140v44c-7.7-.1-15.4.3-23-.2V189H47.2a269 269 0 0 1 0-22H117v-43z"/></svg>