<svg xmlns="http://www.w3.org/2000/svg" viewBox="0 0 256 256"><path fill="#bd9268" d="M22.5 0h210.9A25.4 25.4 0 0 1 256 22.4v53.9H0V22.5C1 10.9 11 1 22.5 0m10.2 6c0 7.4-.2 14.8 0 22.3H56c-.3-7.4 0-14.8-.2-22.2-7.7 0-15.4.2-23.1 0m169-.1v22.3H225V6.1c-7.7 0-15.5.1-23.2-.1z"/><path fill="#1b1e23" d="M32.7 6c7.7.3 15.4.1 23.1 0 .1 7.5 0 14.9.2 22.3H32.7c-.2-7.5 0-14.9 0-22.3zm169 0c7.8.2 15.5.1 23.2 0v22.3h-23.2V6z"/><path fill="#122133" d="M0 76.3h256v93.6h-68v45h68v19.5l-1 3.9h-67V256H68v-17.7H1l-1-3.7V215h68v-45l-68-.1V76.3m23.7 14.4v55.5h59V90.7h-59m151.3 0v55.5h59V90.7h-59z"/><path fill="#e7aead" d="M23.7 90.7h59v55.5h-59V90.7m7.7 6.6c0 14 .2 27.8 0 41.7 2.8.6 5.7.4 8.6.4h35.4c.3-14 0-28 .3-41.9l-4.7-.3c-13.2.1-26.4-.1-39.6.1zM175 90.7h59v55.5h-59V90.7m7.1 6.5v42.1h44c.5-13.4 0-27 .2-40.4.5-2.2-2.1-1.6-3.3-1.7h-41z"/><path fill="#ec7581" d="M31.4 97.3c13.2-.2 26.4 0 39.6-.1l4.7.3c-.4 14 0 28-.3 41.9H40c-3 0-5.8.2-8.7-.4.3-13.9 0-27.8.1-41.7zm150.7-.1H223c1.2.1 3.8-.5 3.3 1.7-.1 13.5.3 27-.3 40.4h-44c.2-14 0-28 .1-42z"/><path fill="#f1c57e" d="M0 169.9h68v45H0v-45zm188 .1l68-.1v45h-68v-45zM1 238.3h67V256H22.7c-10-.8-18.9-8.2-21.7-17.7zm187 0h67a25.5 25.5 0 0 1-21.5 17.7H188v-17.7z"/></svg>