<svg xmlns="http://www.w3.org/2000/svg" viewBox="0 0 256 256"><g fill="#b78b54"><path d="M22.3 0h211.4A25.5 25.5 0 0 1 256 22.3v37.4c-10 13.9-19 28.6-28.7 42.7-23.7 36.3-48 72.2-71.5 108.6-15.6.5-31.2 0-46.8.2-2.9 0-5.8.3-8.6-.5-3-3.5-5-7.7-7.7-11.4-16.8-25.8-34.2-51.3-51-77.2-14-20.7-27.3-42-41.7-62.4V22.3A25.5 25.5 0 0 1 22.3 0z"/><path d="M0 85.5l12.1 18.3c1.9 3 3.4 6.3 5.8 8.9.2 24.8 0 49.7.1 74.6 16.4-.2 32.8 0 49.2 0 2.2 5.5 6.5 9.8 9.2 15 5.3 8 10.1 16 15.7 23.7 3 .5 6 .3 9 .3 20.3-.2 40.6.1 61-.1 2.3.3 3.3-2.2 4.5-3.8 5-8.2 10.6-16 15.5-24.2 2.2-3.7 5.3-6.8 6.7-11l49.2.1v-74.6c2.2-2.5 3.8-5.3 5.5-8.2L256 85.7v148a25.5 25.5 0 0 1-22.3 22.3H22.3A25.5 25.5 0 0 1 0 233.8V85.5z"/></g><path fill="#a57d4c" d="M0 59.7c14.4 20.5 27.7 41.7 41.7 62.5 16.8 25.8 34.2 51.3 51 77.1 2.7 3.7 4.8 7.9 7.7 11.4 2.8.8 5.7.5 8.6.5 15.6-.3 31.2.3 46.8-.2 23.6-36.4 47.8-72.3 71.5-108.6 9.8-14.1 18.6-28.8 28.7-42.7v26c-4 6.3-8.4 12.5-12.5 18.8a52.3 52.3 0 0 1-5.5 8.3v-2.3c-6.6 9.5-13.1 19-19 28.9-2.2 3.3-4.5 6.4-6.8 9.6-2.4 3.3-4.7 6.6-6.8 10.1l3 .2-3.1.8-5.3 8.2c-4 6.1-8.9 11.9-11.2 19-1.4 4-4.5 7.2-6.7 11-4.9 8.2-10.6 16-15.5 24.1-1.2 1.6-2.2 4.1-4.6 3.8-20.3.2-40.6-.1-61 0-3 0-6 .3-8.9-.2-5.6-7.6-10.4-15.8-15.7-23.6-2.7-5.3-7-9.6-9.2-15.2-2.3-7-7.2-12.8-11.2-19l-5.3-8.1-3-.8 3-.2a99.5 99.5 0 0 0-7-10c-2.2-3.2-4.5-6.4-6.6-9.7-6-10.2-13.1-19.6-19.1-29.7v3c-2.5-2.6-4-5.9-5.9-8.9-4-6-8.2-12.1-12.1-18.3V59.7z"/><path fill="#efedef" d="M18 109.7c6 10.1 13.2 19.5 19 29.7V176h18.7c0-2.6.2-5.2.3-7.7 4 6.1 8.9 11.9 11.2 19-16.4 0-32.8-.2-49.2 0v-77.6zm201 29.7c5.9-9.9 12.4-19.4 19-29v77c-16.4-.2-32.8 0-49.2 0 2.3-7.1 7.2-12.9 11.2-19l.3 7.7H219v-36.6z"/><path fill="#312829" d="M37 139.4l6.8 9.7v10.2h3.9l3 .8 5.3 8.2c-6.3 1.2-12.7 1-19 0v-29zm175.2 9.6c2.3-3.2 4.6-6.3 6.7-9.6l.1 28.8a51.1 51.1 0 0 1-19 0l5.3-8.1 3-.8h4V149z"/><path fill="#efefef" d="M43.8 149c2.5 3.3 4.8 6.6 6.9 10.1l-3 .2h-4V149zm161.6 10.1c2-3.5 4.4-6.8 6.8-10v10.2h-3.9l-3-.2z"/><path fill="#4f3f42" d="M37 168.2a50.6 50.6 0 0 0 19 0l-.3 7.8H37v-7.8zm163 .1c6.3 1.2 12.7 1 19-.1v7.8h-18.7c0-2.6-.2-5.2-.3-7.7z"/></svg>