<svg xmlns="http://www.w3.org/2000/svg" viewBox="0 0 256 256"><path fill="#c0bcd0" d="M17.4 0h221.2A26 26 0 0 1 256 20.5v212.3a25.8 25.8 0 0 1-19 21.7l-1 1.5H18.6l1.8-1A26.3 26.3 0 0 1 0 232.8V21.3C1 11.5 8.2 3 17.4 0m-.6 43.6c-.3 17.7 0 35.3-.2 53 9.8.4 19.6 0 29.4.1h34l17.2-.1c-5.6-4.2-11.4-8-17.3-11.6-4.7-3.1-9.6-6-14-9.5.3-1.2-.1-2-1.2-2.4l-1.5.3-.8-.4c-3.1-1.3-5.7-3.7-8.7-5.3-2.6-1.7-5-3.4-7.7-5v-.3c-9.8-6-19.3-12.7-29.2-18.8m204.8 11c-3.8 2.9-8.2 5-11.8 8-2.7 1.5-5.2 3.2-7.8 4.8v.3c-3.2 2.1-6.7 3.8-9.6 6.4-5.8 2.9-10.7 7.3-16.5 10.3a282.9 282.9 0 0 0-.1 12.1c11.2.5 22.5.1 33.8.2h29.2V43.5c-6 3.4-11.5 7.4-17.2 11.1m-63.7 42c5.8.1 11.6 0 17.4.3v-12c-5.6 4.4-11.8 7.6-17.4 11.8m-51-2.8l.1 15.1 5.7-.1V94H107m36 0v15h5V94h-5M17.1 158.7V218h16l23.7-.1H199c7.7.2 15.3 0 23 .1h16v-59.3h-71.6c-3.7 5.5-7.5 11-11.4 16.3h-52c-2.8.5-4-2.2-5.4-4-2.8-4-5.6-8-8-12.2-24.2-.4-48.4 0-72.5-.1z"/><path fill="#fff" d="M16.8 43.6c10 6 19.4 12.8 29.2 18.8v34.3c-9.8-.1-19.6.3-29.4-.2.2-17.6-.1-35.2.2-52.9zm204.9 11c5.7-3.7 11.2-7.7 17.1-11v53.1h-29.2v-8.3c0-8.6-.2-17.2.2-25.8 3.6-3 8-5.1 11.8-8zm-168 13.1c3 1.6 5.5 4 8.7 5.3l.8.4 1.2 2.8c-3.6.3-7.2.1-10.8.1v-8.6zm138.7 6.4c2.9-2.6 6.4-4.3 9.6-6.4v8.6h-10.5l1-2.2zM80 85c5.8 3.6 11.6 7.4 17.2 11.6-5.8.2-11.5.2-17.2 0V85zm77.9 11.7c5.6-4.2 11.8-7.4 17.3-11.7.2 4 .2 7.9.1 11.8l-17.4-.1zM17.1 193h16.1v25h-16v-25zm204.9 0h16v25h-16v-25z"/><path fill="#211518" d="M46 62.6l7.7 5.1v8.6c3.5 0 7.1.2 10.7-.1l-1.2-2.8 1.5-.3c1 .4 1.5 1.2 1.2 2.4 4.4 3.5 9.3 6.4 14 9.5v3.6l-8.7-.9-.3 4.3H56l-.2-4.2-9.8.2V62.6z"/><path fill="#211818" d="M202 67.4c2.6-1.6 5-3.3 7.8-4.8-.4 8.6-.1 17.2-.2 25.8l-10.2-.5-.3 4.1h-14.2c-.2-1.3-.3-2.8-.3-4.1-3 .3-5.9.6-8.8.7l.1-4.2c5.8-3 10.7-7.4 16.5-10.3l-.9 2.2H202v-8.9z"/><path fill="#394d39" d="M46 88l9.8-.2.3 4.2h14.8l.3-4.3c3 .4 5.8.7 8.8.9v8c-11.3.2-22.7.1-34 .1V88zm129.8.6c2.9-.1 5.8-.4 8.8-.7l.3 4.1H199l.3-4c3.4 0 6.8.2 10.2.4v8.3c-11.3 0-22.6.3-33.8-.2v-8z"/><path fill="#84828c" d="M107 94l5.7.1V109l-5.7.1V94z"/><path fill="#847d8c" d="M143 94h5v15h-5V94z"/><path fill="#754b52" d="M17.1 158.7c24.1 0 48.3-.3 72.4.1 2.5 4.2 5.3 8.2 8 12.2 1.4 1.8 2.7 4.5 5.5 4h52c3.9-5.4 7.7-10.8 11.4-16.3H238V193h-16v25h-23v-25H56.7v24.9c-7.8.2-15.7.1-23.5 0V193h-16l-.1-34.3z"/><path fill="#b28c89" d="M56.7 193H199v25l-142.2-.1c-.2-8.3-.2-16.6 0-24.9z"/></svg>