<svg xmlns="http://www.w3.org/2000/svg" viewBox="0 0 256 256"><path fill="#5aa0bd" d="M22.2 0h27.3v23.8l4.5.2h153V0h26.7A25.7 25.7 0 0 1 256 21.6V66h-77c-1.5 0-3.1-.3-4.3.8-12 9-24.7 17.4-36.9 26.3-6.2.5-12.6 0-18.8.2-13.2-8.8-25.7-18.6-39-27.2-26.6-.3-53.3 0-80-.1V22.3A25.5 25.5 0 0 1 22.2 0z"/><path fill="#36667b" d="M49.5 0H207v24H54l-4.6-.2c.2-8 .1-15.9 0-23.8z"/><path fill="#ffebd3" d="M0 66c26.7.1 53.4-.2 80 .1 13.3 8.6 25.8 18.4 39 27.2 6.3-.2 12.6.3 18.8-.2 12.2-9 24.8-17.3 37-26.3 1-1 2.7-.7 4.1-.8H256v167.7a25.5 25.5 0 0 1-22.3 22.3H22.4A25.5 25.5 0 0 1 0 233.7V66m21 54v9.3c23.9-.4 47.8.2 71.7-.3v-9H21m143 0v9.3c24-.4 47.8.3 71.7-.3v-9H164m-85.9 31l-.1 12v9h100a672 672 0 0 0-.1-21c-4.6 0-9.2-.2-13.8.1-.9 4 1.7 9.2-2 12H93.8c-3.4-3-1-8.1-1.9-12-4.6-.2-9.2-.2-13.8 0z"/><path fill="#5d5a54" d="M21 120h71.7v9c-23.9.5-47.8 0-71.7.3V120zm143 0h71.7v9c-23.8.6-47.8-.1-71.7.3V120zm-86 43h100v9H78v-9z"/><path fill="#f4f4f7" d="M78.1 151H92c.8 4-1.5 9.1 2 12H78l.1-12zm85.9.1c4.7-.3 9.3-.2 13.9 0 .1 4 .2 8 .1 11.9h-16c3.8-2.7 1.2-8 2-11.9z"/></svg>