<svg xmlns="http://www.w3.org/2000/svg" viewBox="0 0 256 256"><path fill="#2382a5" d="M22.4 0h211.3A25.5 25.5 0 0 1 256 22.3v27.8c-6 4.3-12.8 7.4-19 11.4-7 3.7-13.6 8.1-20.7 11.5-4 2.7-8 5.1-12.2 7.3l-.7 4.1-.1-3.7c-4.9 3.3-10.2 5.8-15.1 9l-12 6.6-3.2.7-.6 1.8c-3.7 2-7.4 4-10.9 6.4a2456 2456 0 0 0-67 0c-4.5-2.6-8.9-5.4-13.4-7.8-4.3-2.5-8.7-4.9-12.8-7.7l-3.5-1.9A451 451 0 0 1 52 80.5c-4-2.5-8.3-4.4-12.1-7.1l.4-.2c-7.7-3.5-15-8-22.3-12.3C12 57.4 5.7 54.2 0 50V22.4A25.5 25.5 0 0 1 22.4 0z"/><path fill="#7eb7e4" d="M0 50c5.7 4.2 12 7.4 18 10.9v65c6.7 0 13.3 0 20 .2 14.3-.2 28.6 0 43-.1V97.3c4.6 2.5 9 5.3 13.5 7.9-.3 37.3 0 74.6-.2 111.9 13.9.5 27.8 0 41.7.2 8.6-.1 17.1.3 25.7-.2-.2-37.3.2-74.6-.2-112 3.5-2.3 7.2-4.3 10.9-6.3l.6-1.8 3.2-.7-1.5 1c-.3 0-.8.4-1 .5-1.2 1-1 1.6.6 1.7V126H237V61.5c6.2-4 13-7.1 19-11.4v183.5a25.5 25.5 0 0 1-22.3 22.4H22.4A25.5 25.5 0 0 1 0 233.7V50z"/><path fill="#f9f9f9" d="M18 60.9c7.4 4.2 14.6 8.8 22.3 12.3l-.4.2c-.8 0-1.5 0-2.2.2.7 10.1.2 20.3.3 30.5v22l-20-.1V60.9zM216.3 73c7.1-3.4 13.7-7.8 20.6-11.5.2 21.5 0 43 0 64.5H218V72.2l-1.7.8zM52 80.5a451 451 0 0 0 12.8 7.3l2.4 1.4-.3 4.1h-15c.1-4.2.1-8.5 0-12.8z"/><path fill="#632a26" d="M37.7 73.6l2.2-.2c3.8 2.7 8.1 4.6 12 7.1.1 4.3.1 8.6 0 12.8V106c-4.6-.1-9.8 1-14-2 0-10.1.5-20.3-.2-30.4zm178.6-.6l1.6-.8c.2 10.6 0 21.2.1 31.8-4 2.9-9.2 1.8-13.8 2.1l-.4 7.6-.9.4c0-7 .5-13.9.5-20.8v-8.9l.7-4c4.2-2.3 8.3-4.7 12.2-7.4zm-148 16.7c4 2.8 8.5 5.2 12.8 7.7v6.9c-4 3.3-9.5 1.2-14.1 1.7-.4-5.5.4-10.9 1.3-16.3zm107.9 6.6c4-2.1 8-4.3 12-6.7v3.8c0 4.2-.2 8.4 0 12.6-4 0-8 .3-11.9-.3-1.8-2.4-1.3-5.7-1.6-8.5l1.5-.9z"/><path fill="#f7f9f7" d="M188.2 89.6c5-3.1 10.2-5.6 15-8.9l.2 3.7v8.9h-15.2v-3.7z"/><path fill="#3f2826" d="M64.8 87.8c1.2.6 2.4 1.2 3.5 2A74.7 74.7 0 0 0 67 106l-.1 8H52l-.1-8V93.3h14.9l.3-4.1-2.4-1.4zm123.4 5.6l15.2-.1c0 7-.5 13.8-.5 20.8-4.9.1-9.8-.1-14.6-.2l-.2-8 .1-12.5z"/><path fill="#73322b" d="M173.7 97.8l1-.6c.3 2.8-.2 6 1.6 8.5 4 .6 7.9.3 11.8.3l.2 8c4.8 0 9.7.2 14.6 0l.9-.3.4-7.6c4.7-.3 9.7.8 13.8-2v21.8c-14.5.2-29.1 0-43.7 0V99.5l-.6-1.6zM38 104c4 3 9.3 1.9 14 2l.1 8h14.8v-8c4.7-.5 10.3 1.6 14.1-1.7V126H38v-22z"/><path fill="#42b2e7" d="M174.3 99.5c-1.6 0-1.8-.6-.6-1.7l.6 1.7z"/><path fill="#9c9b9c" d="M94.5 105.2c22.3-.4 44.7-.3 67 0 .3 37.3 0 74.6.2 111.9-8.6.5-17.1 0-25.7.2-13.9-.1-27.8.3-41.7-.2.2-37.3-.1-74.6.2-111.9M102 159v37.3h8.8a6605.2 6605.2 0 0 0 42.5 0V159H102z"/><path fill="#78435a" d="M102 159h51.3v37.3h-8c.1-5.7.2-11.5 0-17.3h-34.5c-.3 5.8-.2 11.6 0 17.3H102V159z"/><path fill="#9f657e" d="M110.8 179h34.5c.2 5.8.1 11.6 0 17.3h-34.5c-.2-5.7-.3-11.5 0-17.3z"/></svg>