<svg xmlns="http://www.w3.org/2000/svg" viewBox="0 0 256 256"><path fill="#fcdc73" d="M22.4 0h211A25.5 25.5 0 0 1 256 22v211.4a25.4 25.4 0 0 1-22.5 22.6H22.7A25.4 25.4 0 0 1 0 233.5v-211A25.4 25.4 0 0 1 22.4 0M227 69.8c-5 3.3-10.5 6-15.3 9.7.8 7.5 0 15 .3 22.5-.1 4 .3 8.1-.4 12.1-1.2-7.6.2-15.4-.4-23.1-.5-3.5 1.2-7.7-1.4-10.5-5.6 3.8-11.6 7.1-17.3 11-2.7 1.9-6.6 2.8-7.6 6.3l-.7-1.7c-3.5 3.3-8 5-11.7 8-5.5 3.1-10.9 6.2-15.9 9.9-2.7 1.5-5.4 3-7.8 5-.3-7.4.1-14.8-.3-22.2a1043 1043 0 0 0-40.8 0c-.4 7.4 0 14.8-.3 22.1-2.4-2-5.2-3.3-7.8-4.9-5.2-3.4-10.4-6.8-15.9-9.8-4.2-2.6-8.1-6-12.8-7.8l-1-1.1c-8-5-16.2-10-24.2-15.2A20 20 0 0 0 45 85v29h-.8c.2-11.5-.3-23 .3-34.5C37.9 75.2 31 71.2 24.6 67a43.8 43.8 0 0 0-7-4v61h72.7c.4 2.3.7 4.7.8 7v72H165v-72c0-2.4.4-4.7.9-7h71.9c0-20.3-.2-40.7 0-61.1-3.5 2.4-7.4 4.3-10.8 6.9z"/><path fill="#39414a" d="M226.9 69.8c3.4-2.6 7.3-4.5 10.8-6.9-.2 20.4 0 40.8 0 61.1h-89v-5c2.4-2 5.1-3.5 7.8-5 18.3.3 36.7 0 55 .1.8-4 .3-8 .4-12.1-.3-7.5.5-15-.3-22.5 4.8-3.7 10.3-6.4 15.3-9.8zM17.7 63c2.4 1.1 4.7 2.5 6.9 4 6.5 4.2 13.3 8.2 19.8 12.5-.6 11.5 0 23-.3 34.5h.8c18.2.2 36.4.2 54.6 0 2.6 1.7 5.4 3 7.8 4.9v5c-5.7.2-11.3.1-17 .1H17.7V63z"/><path fill="#fff" d="M45.6 80.1c8 5.2 16.1 10.1 24.2 15.2l1 1.1c.4 4.9.1 9.7.2 14.6h12.7v-6.8c5.4 3 10.6 6.4 15.8 9.8-18.2.2-36.4.2-54.6 0V85c0-1.7.3-3.3.7-4.9zm146.8 11.3c5.7-3.8 11.7-7 17.3-10.9 2.6 2.8.9 7 1.4 10.5.6 7.7-.8 15.5.4 23.1-18.3-.1-36.7.2-55-.1 5-3.7 10.4-6.8 15.9-9.8v6.8h12.3V97.8c1.1-3.5 5-4.4 7.7-6.4z"/><path fill="#2e343c" d="M70.8 96.4c4.7 1.9 8.6 5.2 12.8 7.8v6.8H71c0-4.9.2-9.7-.2-14.6zm101.6 7.8c3.7-3 8.2-4.8 11.7-8.1l.7 1.7-.1 13.2h-12.3v-6.8z"/><path fill="#efbc68" d="M107.7 96.9a789 789 0 0 1 40.7 0c.4 7.3 0 14.7.3 22v5c5.7.2 11.4.1 17.1.1-.5 2.3-.9 4.6-.9 7v71.9H91V131c0-2.3-.4-4.7-.8-7h17v-5.1c.3-7.4 0-14.7.4-22m-6.6 54.9v30.6a3273.6 3273.6 0 0 0 43.9 0h10v-30.6c-18 .2-36 .2-54 0z"/><path fill="#70515d" d="M101 151.8c18 .2 36 .2 54 0v30.6h-10V171h-34v11.4h-10v-30.6z"/><path fill="#aa5b78" d="M111 171h34v11.4h-34V171z"/></svg>