<svg xmlns="http://www.w3.org/2000/svg" viewBox="0 0 256 256"><path fill="#f4c96b" d="M22.3 0H67v48.4h26v25.3h70V32.3l16-.1V0h54.5A25.4 25.4 0 0 1 256 22.4v211.1a25.5 25.5 0 0 1-22.3 22.5H22.4A25.5 25.5 0 0 1 0 233.6v-211A25.5 25.5 0 0 1 22.3 0m-1 56.7V130c7 .2 14.2-.3 21.3.3l-.1 1.2c2.2-.4 4.2-1.7 6.5-1.6h46.3c-3.7-4-7.8-7.7-11.6-11.6-2.5-2.4-4.7-5.2-7.7-7v-1c-3.8-3.4-7.3-7.3-11.3-10.7v-.3c-2.9-3.5-7-5.8-9.9-9.2-2.8-3-5.8-5.8-8.8-8.7l1.2-.2-3.4-1.4 1.1.1c-8.1-7.5-15.6-15.7-23.7-23.2m198 15.5c-2.6 2.7-6 4.6-8.2 7.5-6.7 6.4-13.2 13-19.7 19.6v.4c-4 3.3-7.5 7.2-11.3 10.7v1c-3 1.7-5.2 4.5-7.7 6.9-3.8 4-7.9 7.7-11.6 11.7h49.5c.8 1 2 1.2 3.2 1.5v-1.1c6.9-.8 13.8-.2 20.6-.4V57.4c-5 4.8-10 9.8-14.9 14.8m-110 37.8v26h-18v73.3H165V136h-18.1v-26H109z"/><path fill="#e46633" d="M67 0h112v32.2l-16 .1v41.4H93V48.3c-8.7.3-17.3.2-26 .1V0z"/><path fill="#f1edff" d="M21.2 56.7c8.1 7.5 15.6 15.7 23.7 23.2l-1-.1 3.3 1.4L45 81c.2 15.8-.3 31.6.3 47.3v.5l-.3 1.6-2.5-.1c-7.1-.6-14.3-.2-21.4-.3V56.7zm197.9 15.5c5-5 9.8-10 14.9-14.8V130c-6.8.2-13.7-.4-20.5.4l-2.6-.3-.3-1v-.7c.6-16.2 0-32.5.4-48.7 2.3-3 5.6-4.8 8.1-7.5zM64.7 99.6c4 3.4 7.5 7.3 11.3 10.8v1l.2 9.6H64.7V99.6zM180 110.4c3.8-3.5 7.3-7.4 11.3-10.8V121h-11.5l.2-9.6v-1z"/><path fill="#362a1b" d="M191.3 99.3c6.5-6.6 13-13.2 19.7-19.6-.4 16.3.2 32.5-.4 48.7l-.1-.1c-.5-4-.3-8-.6-12-5.8-.2-11.5-.2-17.3 0l-1.3 4.7V99.3zM45 81l2.2.2-1.2.2c3 3 6 5.7 8.8 8.7 3 3.4 7 5.7 10 9.2v.3c-.2 7.1-.1 14.3-.1 21.4l-1.4-4.7c-5.7-.2-11.5-.2-17.2 0-.2 4-.1 8-.7 12-.6-15.7 0-31.5-.3-47.3zm31 30.4c3 1.7 5.2 4.5 7.7 6.9 3.8 4 7.9 7.7 11.6 11.7H70.1v-9h6.1l-.2-9.6zm96.3 6.9c2.5-2.4 4.6-5.2 7.7-6.9l-.2 9.6h6v9h-25.1c3.7-4 7.8-7.8 11.6-11.7z"/><path fill="#a2807b" d="M109.1 110H147v26h18v73.3H91V136h18.1v-26m-10 60.8v18.5h9a3800.1 3800.1 0 0 0 48.2 0v-18.5c-19.1-.2-38.2-.1-57.3 0z"/><path fill="#473926" d="M46 116.3c5.8-.2 11.6-.2 17.3 0l1.4 4.7H70v9H49c-2.3-.2-4.3 1.1-6.5 1.5v-1.2h2.6l.3-1.5v-.5c.6-4 .5-8 .7-12zm146.6 0c5.8-.2 11.5-.2 17.3 0 .3 4 0 8 .6 12l.1.7.3 1c.6.2 2 .3 2.6.4v1.1c-1.2-.3-2.5-.5-3.3-1.4-8.1-.2-16.2 0-24.3-.1v-9h5.4l1.3-4.7z"/><path fill="#b59229" d="M45.4 128.3v.5-.5zm165.1 0l.1.1v.6l-.1-.7z"/><path fill="#704d5a" d="M99 170.8c19.1-.1 38.2-.2 57.2 0 .2 6.1.2 12.3 0 18.5H148V179h-40v10.3h-9v-18.6z"/><path fill="#94576d" d="M108 179h40v10.3h-40V179z"/></svg>