<svg xmlns="http://www.w3.org/2000/svg" viewBox="0 0 256 256"><path fill="#adc4e7" d="M22.6 0h210.6A25.3 25.3 0 0 1 256 22.6v210.6a25.3 25.3 0 0 1-22.6 22.8H22.8A25.3 25.3 0 0 1 0 233.4V22.7A25.3 25.3 0 0 1 22.6 0m85.7 25c-.3 12-.1 24 0 36h37V25h-37m-89 12v89h21.5l.2 2.3c-2.3 3-5.3 5.4-8 8V221c0 2 .3 3.9 1.2 5.7 1.9 3.9 3.5 7.9 5.7 11.6H204c3.3 0 6.6.3 9.9-.2 2.7-3.5 3.7-7.8 5.7-11.6 1.8-3.2 1.1-7 1.2-10.5v-79.7c-3.6-3.2-7-6.6-10.2-10.3h23.7V37H181c-.2 24.3 0 48.7-.1 73v16H73l-.1-13.8V37H19.3z"/><path fill="#f4f3f1" d="M108.3 25h37v36h-37c-.1-12-.3-24 0-36zM41.4 126.2c10.6-.4 21.1 0 31.7-.2h137.5c3.1 3.7 6.6 7 10.2 10.3V216c0 3.5.6 7.3-1.2 10.5-2 3.8-3 8.1-5.7 11.6-3.3.5-6.6.1-9.9.2H39.9c-2.2-3.7-3.8-7.8-5.7-11.7A11 11 0 0 1 33 221v-84.6c2.7-2.7 5.7-5 8-8l.4-2.2z"/><path fill="#210918" d="M19.3 37H73v75.2l-1.3-2.1A326 326 0 0 0 60 110c.3-8.2 0-16.3.2-24.5l8.2-1.1V41.7H37.5c-.8 3.8-.6 7.7-1.4 11.4-1.2 1.2-2.6 2.1-3.7 3.3-.5 1.8-.4 3.7-.5 5.6l.1 30H19.3V37zM181 37h53.3v55H222c-.2-12.3.3-24.5-.2-36.8l-5.8-.4V41.7h-31v42.7l6.8 1.2c2.3 8 1 16.3 1.2 24.4h-12c.1-24.3 0-48.7 0-73z"/><path fill="#180610" d="M36 53.1c1-3.7.7-7.6 1.5-11.4.3 14.2.1 28.4.2 42.6h30.7l-8.2 1.2c-.3 8.2 0 16.3-.2 24.5H32V62c0-1.9-.1-3.8.4-5.6 1.1-1.2 2.5-2 3.7-3.3zm180 1.7l5.8.4c.5 12.3 0 24.5.2 36.8v18h-29c-.3-8.1 1.1-16.5-1.2-24.4l-6.8-1.2c10.3-.2 20.7 0 31-.1V54.8z"/><path fill="#e9e8e9" d="M37.5 41.7h30.9v42.7c-10.3-.2-20.5 0-30.7-.1 0-14.2.1-28.4-.2-42.6zm147.5 0h31v42.6l-31 .1V41.7z"/><path fill="#441c3f" d="M19.3 92H32v18h28l11.7.1 1.3 2V126c-10.6.1-21.1-.2-31.7.2l-.4 2.1-.2-2.3H19.3V92zM222 92h12.3v34h-53.5c.2-5.3.2-10.7 0-16H222V92z"/></svg>