<svg xmlns="http://www.w3.org/2000/svg" viewBox="0 0 256 256"><path fill="#7eacde" d="M22.2 0h76.3c.6 4 .6 8 .5 12v45h58c.1-19-.2-38 .2-57h76.5A25.8 25.8 0 0 1 256 21.6V218c-1.8-1.2-3.8-2.2-6-2l-26.2.1c-.7 13.3.6 26.7-.7 40H194v-26c.3-3-2-5.1-3.7-7.3-1.8-2.2-3.3-4.6-5.4-6.5-3.6-.5-7.3-.2-11-.3H74c-1.5 0-3.3 0-4.2 1.7-2.4 3.5-5.8 6.5-7.5 10.4-.5 9.3 0 18.7-.2 28H32.8c-.9-13.3 0-26.7-.5-40H5c-2 .2-3.5-1-5-2V22.4A25.6 25.6 0 0 1 22.2 0M21 33.5v93.8h61V33.5H21m153 0v93.8h61V33.5h-61z"/><path fill="#f4f7f9" d="M98.5 0h58.7c-.4 19-.1 38-.2 57H99V12c0-4 0-8-.5-12z"/><path fill="#230d18" d="M21 33.5h61v67.2H66V74.9h10V40H53v10a88 88 0 0 1-14.9 1.2c-.2 5.5 0 11 0 16.5-5.7 0-11.4-.1-17 .2L21 33.5zm153 0h61V68c-5.7-.3-11.3-.2-17-.2 0-5.5.1-11-.2-16.6-5 0-10 0-14.8-1.1V40h-23v34.9h10v25.8h-16V33.5z"/><path fill="#fff" d="M53 40h23v34.9H53V40zm127 0h23v34.9h-23V40z"/><path fill="#1b0a12" d="M38.1 51.2c5-.1 10-.2 14.9-1.2v25h13v33H38V67.7c0-5.5-.1-11 .1-16.5zM203 50c4.9 1 9.9 1.1 14.8 1.1.3 5.5.2 11 .2 16.6V108h-28V74.9h13v-25z"/><path fill="#6d2a4f" d="M21 67.9c5.7-.3 11.4-.2 17-.2V108h28v-7.3h16v26.6H21V68zm197-.2c5.7 0 11.3-.1 17 .2v59.4h-61v-26.6h16v7.3h28V67.7z"/><path fill="#4a8aef" d="M0 214c1.6 1 3 2.2 5 2h27.2c.6 13.3-.4 26.7.5 40H22.2A25.6 25.6 0 0 1 0 233.8V214zm223.8 2H250c2.3-.3 4.2.7 6 2v16.3a25.7 25.7 0 0 1-22.3 21.7h-10.6c1.3-13.3 0-26.7.7-40z"/><path fill="#3675b7" d="M69.7 217.6c.9-1.7 2.7-1.7 4.3-1.7h100c3.6 0 7.3-.2 11 .3 2 1.9 3.5 4.3 5.3 6.5 1.6 2.2 4 4.3 3.7 7.3v26h-64.1c-1.3-7.3-.3-14.7-.6-22H87.6v19.5l-.7.6-1 1.1.3.8H62c.1-9.3-.3-18.7.2-28 1.7-4 5-7 7.5-10.4z"/><path fill="#b7d3ef" d="M87.7 234h41.6c.3 7.3-.7 14.8.6 22h-40c.1-1.5-.6-2.3-2.3-2.5V234z"/><path fill="#9f9bad" d="M85.8 255.2l1.1-1 .2 1.8h-.9l-.4-.8z"/><path fill="#8cbae7" d="M87 254.1l.7-.6c1.6.2 2.3 1 2.2 2.5H87l-.2-1.9z"/></svg>