<svg xmlns="http://www.w3.org/2000/svg" viewBox="0 0 256 256"><path fill="#f1bc63" d="M22.2 0h36v23c6.3.3 12.6.1 18.9 0V0H179v23c6.3.1 12.6.3 18.8 0l.1-23h36A25.5 25.5 0 0 1 256 22.2v211.6a25.6 25.6 0 0 1-22.2 22.2H22.3A25.5 25.5 0 0 1 0 233.7V22.3A25.5 25.5 0 0 1 22.2 0M22 50.7V127c4.2 0 8.4-.3 12.5.3 1.3.1 2.6.5 3.8-.1 13.9-.4 27.8-.1 41.7-.2v-19c.2-14.7-.3-29.4.3-44 1.3-.6.8-2.1 1-3.2h-1.5c.3-3.4.2-6.8.2-10.1H22m154 0c0 3.4 0 6.8.2 10.1h-1.4l-.1 2.8h1c.7 14.8.2 29.6.3 44.5v19l38-.1c2.8-.1 5.4 1.4 8.1.6h-.8c4-1 8-.5 12-.5 0-25.5.2-51 0-76.4H176m-72 118c0 4.5 0 8.9.2 13.3h5a97 97 0 0 0 0-13.2h-5.1m41.7 0c-.2 4.4-.4 8.8 0 13.2l6-.1.1-13h-6.1M34 199.7V232h21a64567.4 64567.4 0 0 0 166 0c.2-10.8.1-21.6.1-32.3-62.4-.1-124.8-.1-187.1 0z"/><path fill="#d8cdaa" d="M58.2 0h19L77 23c-6.3.1-12.6.3-18.8 0l-.1-23zM179 0h18.8v23c-6.3.3-12.6.1-18.9 0V0z"/><g fill="#f7f9f7"><path d="M22 50.7h58c0 3.3 0 6.7-.2 10h1.5c-.2 1.2.3 2.7-1 3.3l.3-2.5c-14.9.4-29.7 0-44.6.2v65.6l2.3-.1c-1.2.6-2.5.2-3.8.1-4.1-.6-8.3-.2-12.5-.3V50.7zm154 0h57.3c.2 25.5 0 51 0 76.4-4 0-8-.5-12 .5l-1.2.1c-.8-1-1.5-2.3-1.2-3.7v-16.4l.1-46c-14.5 0-29 .2-43.6-.1l.3 2h-1v-2.8l1.5.1c-.2-3.3-.2-6.7-.2-10z"/><path d="M59.3 68.6c4.5.4 9.1.2 13.7 0V85h-7c-2.3 0-4.5 0-6.8-.2.3-5.4.1-10.8 0-16.2zm123.7.1c4.6 0 9.2.3 13.8 0-.2 5.3-.3 10.7 0 16.1-2.2.2-4.4.1-6.7.2H183V68.7z"/></g><path fill="#39322b" d="M36 61.7c14.9-.2 29.7.1 44.6-.2l-.3 2.5c-.6 14.6-.1 29.3-.3 44-4.2-1.5-8.8-1.3-13.2-1.8-.2-7.1.4-14.2-.8-21.2h7V68.7c-4.6 0-9.2.3-13.7-.1l-1-.2c0 2.6-.1 5-.3 7.6H48c-.5 10.3 0 20.6-.2 31l-9.1-.4-2.7-3.1V61.7zm139.4-.2c14.5.3 29 0 43.6.1v46a28 28 0 0 0-10.7-.7c-.2-10.3.1-20.6-.2-30.8l-10-.1-.6-8.2-.7.8c-4.6.4-9.2.2-13.8 0V85h7.1c-4.2 9-.5 19.3-1.4 28.9-1-2.4-.8-5-.9-7.4-4 0-8 .1-11.8 1.6-.2-14.9.3-29.7-.3-44.5l-.3-2.1z"/><path fill="#150f08" d="M58.3 68.4l1 .2c0 5.4.2 10.8-.1 16.2-2.4-2.3-1.3-5.9-1.2-8.8.2-2.5.3-5 .3-7.6zm139.2-.6l.5 8.2c0 3 1.3 6.5-1.2 8.8a175 175 0 0 1 0-16.2l.7-.8z"/><path fill="#211e1b" d="M48 76h10c0 3-1.2 6.5 1.2 8.8 2.3.2 4.5.1 6.8.2 1.2 7 .6 14 .8 21.2l-.1 7.6c-6.3-.1-12.6-.2-19 0v-6.9c.3-10.3-.2-20.6.3-30.9zm150 0h10c.4 10.3 0 20.6.3 30.9v7c-6.6-.3-13.1-.3-19.6 0 .9-9.6-2.8-19.9 1.4-29h6.7c2.4-2.4 1.2-6 1.2-9z"/><path fill="#4f453c" d="M36 103.5l2.7 3.1 9 .3v6.9c6.4-.2 12.7-.1 19 0v-7.6c4.5.5 9 .3 13.3 1.8v19c-14 .1-27.8-.2-41.7.2h-2.4c.2-7.9 0-15.8.1-23.7zm140 4.5a34 34 0 0 1 11.8-1.5c0 2.5-.1 5 .9 7.4 6.5-.3 13-.3 19.5 0v-7a28 28 0 0 1 10.8.7V124c-.4 1.4.3 2.7 1.1 3.7h1.2l.8-.1c-2.7.8-5.3-.7-8-.6H176v-19z"/><path fill="#ce9e52" d="M104 168.8h5.2c.2 4.4.4 8.9 0 13.3l-5-.1c-.2-4.4-.2-8.8-.1-13.2z"/><path fill="#cb9c54" d="M145.8 168.9h6.1v13c-2 0-4 .2-6 0-.5-4.3-.3-8.7-.1-13z"/><path fill="#a76b6d" d="M34 199.7c62.3-.1 124.7-.1 187.1 0V232H201v-20H55v20H34v-32.3z"/><path fill="#ef8278" d="M55 212h146v20H55v-20z"/></svg>