<svg xmlns="http://www.w3.org/2000/svg" viewBox="0 0 256 256"><path fill="#e7e1e9" d="M22.6 0h210.6A25.3 25.3 0 0 1 256 22.5v211c-1 11.6-11 21.5-22.6 22.5H22.8A25.3 25.3 0 0 1 0 233.5v-211C1 11 11 1 22.6 0M20 77.8c.2 19 0 38.2.1 57.2 9.6.2 19.3.2 29 0 11.5.5 23 .4 34.6 0 3.8.2 7.5.2 11.2-.2-3.8-2.6-7.3-5.7-11.2-8v-.5c-1.4-1.1-2.7-2.3-4.2-3.2-2.2-1.6-4.2-3.7-6.7-4.8v-.3c-3.5-2.8-7.1-5.3-10.4-8.2-2-1.5-4.4-2.7-6.6-4-.2 3-.3 6.1 0 9.2H55v-10.6c-2-1.5-4.1-3-6-4.7v2.5a6.7 6.7 0 0 0-2.7-4.5C37.5 91.1 28.9 84.3 20 77.8M206.7 100c-2.2 1.7-4.4 3.3-6.7 4.8v.8a88.5 88.5 0 0 0-7 5c-3.6 2.2-6.8 5.1-10.2 7.6-2.2 1.5-4.4 3-6.3 5-1.9.7-3.2 2.2-4.6 3.6-3.4 2.7-7.4 4.9-10.4 8.1 3.5.3 7 .4 10.5.4 9.3.2 18.7 0 28 .1 2.2 0 4.3 0 6.4-.6v.5c9.9-.3 19.7 0 29.5-.2V77.8c-9.9 7.1-19.4 14.8-29.2 22.1m-98.6 1c-.2 9.6.3 19.2-.3 28.8h-12l.1 5.5c5.7.2 11.4.2 17 0V101h-4.8m34.2.1v34c5.9.6 11.8.2 17.7.1v-5.4c-4.3-.2-8.6 0-12.9-.1-.3-9.6 0-19.2-.2-28.7l-4.6.1M116 160v11h4.3v-11H116m19.8 0v11h3.2c.2-3.7.2-7.3 0-11h-3.3z"/><path fill="#fff" d="M20 77.8c9 6.5 17.5 13.3 26.3 20 1.5 1 2.3 2.6 2.7 4.4V135c-9.6.2-19.3.2-28.9 0V77.8zM206.7 100c9.8-7.4 19.3-15 29.3-22.2-.2 19 0 38.1-.1 57.2-9.8.3-19.6 0-29.4.2.2-11.8.1-23.5.2-35.3zm-150.9 5.7c2.2 1.4 4.5 2.6 6.6 4.1.6 1.7.6 3.5.7 5.2h-7.3c-.3-3-.2-6.2 0-9.3zm137.2 4.8c2.3-1.8 4.6-3.5 7-5v9.5h-7v-4.5zM83.7 126.8c4 2.3 7.4 5.4 11.2 8-3.7.4-7.5.4-11.2.3v-8.3zm77.8 8c3-3.3 7-5.4 10.4-8.1l.1 8.5c-3.5 0-7 0-10.5-.3z"/><path fill="#8c6d84" d="M49 99.7l6 4.7V115h5v8c-3.7 0-7.4-.2-11-.9V99.7z"/><path fill="#8c6b84" d="M200 104.8c2.3-1.5 4.5-3.2 6.7-4.9 0 11.8 0 23.5-.2 35.3v-.5c-.4-4.1-.2-8.2-.5-12.3-3.5.4-7 .6-10.4.7 0-2.7.2-5.4.4-8l4-.1v-10.3z"/><path fill="#c8c4cb" d="M108 101h5v34.2c-5.7.2-11.4.2-17 0l-.2-5.4c4-.2 8-.1 12-.1.6-9.6.1-19.1.3-28.7z"/><path fill="#c6c3ce" d="M142.3 101.1l4.6-.1c.3 9.5-.1 19.1.2 28.7H160v5.5c-5.9.1-11.8.5-17.7-.2v-33.9z"/><path fill="#3c303c" d="M62.4 109.8c3.3 3 7 5.4 10.4 8.2v.3l-.2 4.6v6L60 129v-14h3.1c0-1.7 0-3.5-.7-5.2zm120.4 8.3c3.4-2.5 6.6-5.4 10.1-7.6v4.5h3.1c-.2 2.7-.4 5.4-.4 8.1v5.9H183v-6c0-1.6 0-3.3-.2-4.9z"/><path fill="#846a83" d="M176.5 123c1.9-1.8 4-3.4 6.3-4.9l.3 4.9h-6.6z"/><path fill="#896f88" d="M72.8 118.3c2.5 1.1 4.5 3.2 6.7 4.8-2.3-.2-4.6-.2-6.9-.2l.2-4.6z"/><path fill="#a27d9f" d="M49 122.1c3.6.7 7.3 1 11 1v5.9h12.6v-6.1c2.3 0 4.6 0 7 .2 1.4.9 2.7 2 4 3.2v.5l.1 8.3c-11.5.3-23.1.4-34.7 0v-13zm146.6 1c3.5-.1 7-.3 10.4-.7.3 4 0 8.2.4 12.3-2 .5-4.2.7-6.4.6h-28v-8.6c1.3-1.5 2.6-3 4.5-3.7h6.6l-.1 6h12.7l-.1-5.9z"/><path fill="#949296" d="M116 160h4.3v11H116v-11z"/><path fill="#949294" d="M135.8 160h3.2c.2 3.7.2 7.3 0 11h-3.3v-11z"/></svg>