<svg xmlns="http://www.w3.org/2000/svg" viewBox="0 0 256 256"><path fill="#d8ace1" d="M22.6 0h210.7c9.6.8 18.4 7.7 21.5 16.9-3 .2-5.9.5-8.8.5-15-.2-30 0-45-.1-1.8.1-4-.3-5.3 1.4-2.5 3-6.2 6-5.8 10.3 0 10 .2 20 0 30H66.1c-.2-10 0-20 0-30 .3-4.8-4-8.1-7-11.3-4.9-1-10-.1-15-.4-14.4-.2-28.6.5-42.9-.4C4.2 7.8 13 1 22.6 0z"/><path fill="#f7d1de" d="M0 22.7c.2-2 .7-3.9 1.2-5.8 14.3 1 28.6.2 42.8.4 5 .3 10.2-.6 15.2.4 3 3.2 7.2 6.5 6.9 11.3 0 10-.2 20 0 30h123.8c.2-10 0-20 0-30-.4-4.3 3.3-7.3 5.8-10.3 1.3-1.7 3.5-1.3 5.3-1.4h45c3 0 5.8-.2 8.8-.4.5 1.8 1 3.7 1.2 5.7v210.7a25.3 25.3 0 0 1-22.5 22.7H22.7A25.3 25.3 0 0 1 0 233.4V22.8M19 113v73.1c4 .3 8 .3 12 0l1.8-1.5.9 1.6c15.5.3 31 0 46.5.1V129c0-5.3.2-10.7-.2-16-20.3-.2-40.6-.2-61 0m157 0c-.4 5.3-.2 10.7-.2 16v57.3c15.5 0 31 .3 46.5-.1l1-1.7 1.8 1.7c4 .2 7.9.3 11.8-.1.2-24.4.2-48.7 0-73-20.3-.4-40.6-.2-60.9-.1z"/><g fill="#f7f1f1"><path d="M19 113c20.4-.2 40.7-.2 61 0 .4 5.3.3 10.7.2 16H33.7v57.2l-.9-1.6-1.9 1.6c-4 .2-7.9.2-11.8 0-.2-24.4-.3-48.8 0-73.2zm157 0c20.3-.1 40.7-.3 61 0 .1 24.4.1 48.7 0 73-4 .5-8 .4-12 .2a275 275 0 0 0-1.7-1.7l-1 1.7V129h-46.5c0-5.3-.2-10.7.2-16z"/><path d="M59 132h15v16H59v-16zm122.7 0H197v16h-15.3v-16z"/></g><path fill="#4f84b7" d="M33.7 129h46.5v46H33.6v-46m25.4 3v4c-4-.6-8-.6-12-.4V168h20v-20h7v-16H59zm116.8-3h46.5v46h-46.5v-46m5.9 3v16h7.4v20H209v-32.4c-4-.2-8-.2-12 .4v-4h-15.3z"/><path fill="#4c5360" d="M47 135.6c4-.2 8-.2 12 .4v12h8v20H47v-32.4zm150 .4c4-.6 8-.6 12-.4V168h-20v-20h8v-12z"/><path fill="#789fc6" d="M33.6 175h46.6v11.3c-15.5 0-31 .2-46.5 0V175zm142.2 0h46.6v11.2c-15.6.4-31 0-46.6.1V175z"/></svg>